ply
format ascii 1.0
element vertex 1341
property float32 x
property float32 y
property float32 z
property float32 I
end_header
6.9410 -13.2935 2.6443 0.9409
-0.1879 9.6257 1.4749 0.9618
6.9450 -13.3011 1.9540 0.9413
-0.1880 9.6309 1.2544 0.9619
6.9490 -13.3087 1.2709 0.9415
-7.9627 -11.8728 0.8865 0.9443
6.9529 -13.3162 0.5923 0.9416
-0.1884 9.6514 0.3806 0.9621
-7.9532 -11.8586 0.2412 0.9445
-0.1886 9.6616 -0.0544 0.9621
-7.9503 -11.8544 -0.4019 0.9445
8.5809 3.9252 -0.2657 0.9629
-10.1426 8.8464 -0.6825 0.9475
-17.6294 8.4998 -0.9926 0.9246
-7.9489 -11.8523 -0.7237 0.9444
-5.0884 -11.6403 -0.6443 0.9504
-0.1888 9.6719 -0.4906 0.9620
-9.6707 8.9605 -0.6686 0.9486
-3.5423 6.5427 -0.5455 0.9706
-10.1428 8.8466 -0.9868 0.9475
-12.1328 -12.5267 -1.2787 0.9324
10.8078 2.7639 -0.8180 0.9562
8.0169 3.6672 -0.6464 0.9653
10.0828 8.4413 -0.9642 0.9486
11.0897 13.2973 -1.2696 0.9329
1.3357 8.3227 -0.6180 0.9668
-0.1889 9.6770 -0.7097 0.9619
-3.4470 6.8506 -0.5623 0.9697
-12.9173 -12.5586 -1.3210 0.9303
-3.9588 5.9699 -0.6877 0.9716
-4.8114 6.0125 -0.7393 0.9695
-10.1426 8.8464 -1.2921 0.9474
-14.5003 10.5262 -1.7202 0.9305
-15.3202 9.1540 -1.7134 0.9308
-18.4612 5.1211 -1.8393 0.9259
-18.8141 3.4482 -1.8363 0.9260
-19.0281 1.7543 -1.8345 0.9261
-19.0362 -1.6551 -1.8345 0.9261
-18.8303 -3.3499 -1.8362 0.9260
-17.3848 -8.2706 -1.8483 0.9256
-16.6340 -9.8218 -1.8546 0.9253
-15.6260 -11.2196 -1.8468 0.9256
-13.6223 -11.7571 -1.7275 0.9302
-11.3291 -14.0070 -1.7295 0.9302
-8.8495 -16.1438 -1.7675 0.9287
-5.9207 -17.7015 -1.7920 0.9277
-4.3495 -18.2924 -1.8051 0.9272
0.6645 -19.2278 -1.8471 0.9256
2.3959 -19.2416 -1.8616 0.9250
4.1350 -19.0993 -1.8761 0.9245
6.0873 -14.7305 -1.5302 0.9380
6.5519 -12.5483 -1.3590 0.9447
10.4676 2.6769 -1.0373 0.9575
8.2912 2.9301 -0.8442 0.9653
10.0031 8.3746 -1.2525 0.9489
8.5683 8.5846 -1.1644 0.9524
4.6988 13.3768 -1.3612 0.9446
4.8727 19.2057 -1.9023 0.9235
1.3357 8.3227 -0.8092 0.9667
-3.1609 6.2820 -0.6751 0.9721
-3.7092 5.9757 -0.6752 0.9721
-4.5107 5.9976 -0.7205 0.9703
-5.4888 6.0821 -0.7865 0.9676
-15.0576 9.6225 -1.7156 0.9307
-15.7986 8.2110 -1.7094 0.9310
-18.3114 5.6774 -1.8405 0.9259
-18.7108 4.0138 -1.8372 0.9260
-18.6168 -4.4639 -1.8380 0.9260
-16.0582 -10.8138 -1.8586 0.9252
-13.9474 -11.3246 -1.7248 0.9304
-11.3414 -13.1910 -1.6701 0.9325
-7.9125 -16.7135 -1.7753 0.9284
-6.4344 -17.4737 -1.7877 0.9279
-4.8850 -18.1084 -1.8006 0.9274
-1.6134 -18.9723 -1.8280 0.9263
0.0863 -19.1887 -1.8422 0.9258
3.5500 -19.1648 -1.8712 0.9247
5.2863 -18.9174 -1.8857 0.9241
6.0911 -12.5726 -1.3412 0.9454
-4.7420 14.4269 -1.8039 0.9407
-2.7639 6.4135 -0.8296 0.9723
-3.9200 5.9113 -0.8425 0.9718
-5.6561 5.9009 -0.9709 0.9676
-10.1425 8.8464 -1.5987 0.9472
-11.8694 8.6163 -1.7422 0.9426
-14.7374 5.5460 -1.8704 0.9385
-15.1457 4.2014 -1.8670 0.9387
-15.4397 2.8298 -1.8646 0.9387
-15.6180 1.4399 -1.8631 0.9388
-15.6799 0.0408 -1.8626 0.9388
-15.4532 -2.7491 -1.8644 0.9387
-14.2501 -6.7793 -1.8745 0.9384
-13.6263 -8.0459 -1.8797 0.9382
-12.8960 -9.2594 -1.8858 0.9381
-9.3357 -11.5424 -1.7634 0.9420
-7.8739 -11.7404 -1.6792 0.9446
-5.0893 -11.6425 -1.5093 0.9501
-4.8100 -14.3809 -1.8013 0.9407
-0.8456 -15.4201 -1.8344 0.9397
0.5368 -15.5313 -1.8460 0.9393
3.3300 -15.3810 -1.8694 0.9386
4.7180 -15.1159 -1.8810 0.9382
5.9490 -14.3958 -1.8503 0.9392
6.5519 -12.5481 -1.6815 0.9446
7.9386 -12.3708 -1.7460 0.9425
9.9322 -12.8012 -1.9246 0.9368
12.4789 -11.2188 -1.9933 0.9346
14.2355 -10.6642 -2.1128 0.9309
15.1871 -9.3870 -2.1208 0.9306
16.0163 -8.0208 -2.1277 0.9304
16.7136 -6.5780 -2.1336 0.9302
17.2716 -5.0718 -2.1382 0.9301
17.6837 -3.5164 -2.1417 0.9299
18.0532 -0.3183 -2.1448 0.9299
10.3248 2.6403 -1.2659 0.9580
7.9812 3.6509 -1.0425 0.9653
14.3442 8.1816 -1.9616 0.9356
9.9773 8.3530 -1.5457 0.9489
8.5630 8.5793 -1.4399 0.9523
7.9328 13.9694 -1.9083 0.9373
6.6244 14.5543 -1.8995 0.9376
1.3357 8.3227 -1.0013 0.9666
0.7558 10.8100 -1.2872 0.9573
-0.1891 9.6874 -1.1509 0.9617
-3.0176 15.0265 -1.8206 0.9401
-4.3164 14.5967 -1.8081 0.9405
-2.6645 6.7325 -0.8601 0.9713
-2.9923 5.9469 -0.7908 0.9735
-3.6742 5.9194 -0.8276 0.9723
-11.6191 8.9799 -1.7443 0.9426
-14.0120 7.2825 -1.8758 0.9384
-14.5747 5.9906 -1.8718 0.9385
-15.0210 4.6572 -1.8681 0.9386
-15.5710 1.9089 -1.8635 0.9388
-15.5239 -2.2828 -1.8639 0.9388
-15.2754 -3.6627 -1.8659 0.9387
-14.4354 -6.3428 -1.8730 0.9385
-13.1534 -8.8576 -1.8837 0.9381
-11.4211 -11.1039 -1.8922 0.9379
-8.6630 -12.1137 -1.7690 0.9418
-7.5863 -12.9037 -1.7780 0.9415
-6.4394 -13.6020 -1.7876 0.9412
-5.2297 -14.2022 -1.7978 0.9409
-3.9651 -14.6981 -1.8083 0.9405
-1.3058 -15.3554 -1.8306 0.9398
0.0697 -15.5076 -1.8421 0.9394
1.4621 -15.5371 -1.8537 0.9391
5.6279 -14.8698 -1.8886 0.9380
10.7092 -12.2314 -1.9311 0.9366
11.8140 -11.2810 -1.9404 0.9363
14.8802 -9.8271 -2.1182 0.9307
17.0999 -5.5847 -2.1368 0.9301
17.5617 -4.0442 -2.1407 0.9300
-2.6239 6.0888 -0.9394 0.9736
-3.0591 5.6502 -0.9104 0.9744
-5.5897 5.8317 -1.1446 0.9679
-9.3775 8.1792 -1.7631 0.9510
-10.6184 7.7083 -1.8591 0.9484
-12.4799 4.6964 -1.8893 0.9476
-13.2395 -1.1511 -1.8830 0.9477
-13.0925 -2.3291 -1.8842 0.9477
-12.8465 -3.4917 -1.8863 0.9476
-12.0633 -5.7389 -1.8928 0.9475
-10.1965 -8.8004 -1.9084 0.9470
-9.4033 -9.7086 -1.9151 0.9469
-8.5320 -10.5488 -1.9223 0.9467
-7.5119 -11.2006 -1.9109 0.9470
-6.1510 -11.2210 -1.8131 0.9496
-5.0855 -11.6336 -1.7990 0.9500
-4.0468 -12.0991 -1.8077 0.9498
2.7849 -12.8633 -1.8648 0.9482
5.0783 -12.2888 -1.8840 0.9477
8.6971 -11.2093 -2.0102 0.9443
10.9447 -9.8395 -2.0853 0.9423
13.2830 -6.6521 -2.1049 0.9417
13.8549 -5.4529 -2.1097 0.9416
14.6495 -2.9131 -2.1163 0.9414
14.8635 -1.5959 -2.1181 0.9414
14.9519 -0.2636 -2.1188 0.9414
7.9633 3.6427 -1.2408 0.9652
12.8734 7.3427 -2.0999 0.9419
11.2139 7.7991 -1.9354 0.9463
9.9773 8.3530 -1.8437 0.9488
8.5607 8.5769 -1.7170 0.9522
8.6516 10.3739 -1.9139 0.9469
7.6582 11.0561 -1.9056 0.9471
5.5192 12.1262 -1.8877 0.9476
4.3934 12.5075 -1.8783 0.9479
-0.1892 9.6926 -1.3736 0.9616
-0.9800 8.9671 -1.2781 0.9642
-2.1090 7.1319 -1.0538 0.9704
-2.4978 6.3115 -0.9618 0.9730
-2.9563 5.8755 -0.9319 0.9738
-4.3563 5.7923 -1.0269 0.9711
-5.2075 5.7705 -1.1013 0.9691
-11.2950 7.2180 -1.8993 0.9473
-11.8640 6.1661 -1.8945 0.9474
-12.3408 5.0724 -1.8905 0.9475
-12.7226 3.9446 -1.8873 0.9476
-13.1934 1.6174 -1.8834 0.9477
-13.2800 0.4338 -1.8826 0.9477
-13.1531 -1.9342 -1.8837 0.9477
-12.9403 -3.1028 -1.8855 0.9477
-12.2217 -5.3701 -1.8915 0.9475
-11.7198 -6.4533 -1.8957 0.9474
-11.1265 -7.4927 -1.9006 0.9472
-10.4449 -8.4808 -1.9063 0.9471
-7.8939 -11.0382 -1.9228 0.9467
-6.5933 -11.2147 -1.8433 0.9488
-5.4242 -11.4575 -1.7961 0.9501
-4.4013 -11.9524 -1.8047 0.9498
-1.0958 -12.8857 -1.8324 0.9491
1.2245 -13.0117 -1.8518 0.9486
2.3929 -12.9184 -1.8615 0.9483
3.5543 -12.7195 -1.8713 0.9480
5.8164 -12.0056 -1.8902 0.9475
8.1749 -11.2165 -1.9666 0.9455
9.6246 -10.9925 -2.0702 0.9427
10.6307 -10.1511 -2.0827 0.9423
12.3502 -8.1563 -2.0971 0.9420
13.0658 -7.0421 -2.1031 0.9418
13.6750 -5.8625 -2.1082 0.9417
14.1714 -4.6283 -2.1123 0.9416
14.5496 -3.3506 -2.1155 0.9415
-2.0317 6.1813 -1.0719 0.9740
-2.5169 5.8405 -1.0477 0.9745
-3.1309 5.7828 -1.0833 0.9737
-3.8064 5.7400 -1.1346 0.9725
-8.7557 7.6368 -1.9140 0.9540
-9.4073 6.8291 -1.9150 0.9540
-9.9552 5.9483 -1.9105 0.9541
-10.4246 5.0261 -1.9065 0.9542
-10.8130 4.0691 -1.9033 0.9542
-11.4763 -0.9978 -1.8977 0.9544
-11.3479 -2.0188 -1.8988 0.9543
-10.4494 -4.9712 -1.9063 0.9542
-8.8226 -7.6147 -1.9199 0.9539
-7.3752 -9.1185 -1.9320 0.9536
-6.5555 -9.7746 -1.9389 0.9534
-5.6788 -10.3596 -1.9462 0.9532
-3.7462 -11.2005 -1.9456 0.9532
-1.6280 -11.2185 -1.8675 0.9551
-0.6154 -11.2231 -1.8517 0.9555
0.3880 -11.2265 -1.8505 0.9555
2.4293 -11.2208 -1.8913 0.9545
3.5003 -11.2145 -1.9354 0.9535
5.7258 -10.9661 -2.0380 0.9511
6.7206 -10.4728 -2.0500 0.9508
10.0963 -7.5635 -2.0782 0.9501
10.7595 -6.6503 -2.0838 0.9500
11.8202 -4.6521 -2.0926 0.9498
12.2070 -3.5846 -2.0959 0.9497
12.4923 -2.4841 -2.0983 0.9497
12.6733 -1.3607 -2.0998 0.9496
12.7155 0.9133 -2.1001 0.9496
9.2144 7.7143 -1.9797 0.9525
7.4004 8.8736 -1.9035 0.9542
6.5548 9.4631 -1.8964 0.9544
4.7304 10.3930 -1.8811 0.9548
1.3357 8.3226 -1.3886 0.9664
-0.1750 8.9641 -1.4770 0.9643
-2.1792 10.8513 -1.8233 0.9561
-2.3314 5.8909 -1.0437 0.9746
-2.9147 5.7927 -1.0683 0.9741
-4.3313 5.7590 -1.1871 0.9712
-5.1890 5.7499 -1.2759 0.9691
-9.7795 6.2496 -1.9119 0.9540
-10.2756 5.3406 -1.9078 0.9541
-10.6916 4.3945 -1.9043 0.9542
-11.0248 3.4182 -1.9015 0.9543
-11.2734 2.4184 -1.8994 0.9543
-11.4360 1.4020 -1.8981 0.9544
-11.4999 -0.6524 -1.8975 0.9544
-11.4008 -1.6765 -1.8984 0.9544
-11.2149 -2.6891 -1.8999 0.9543
-10.9434 -3.6833 -1.9022 0.9543
-10.5877 -4.6521 -1.9052 0.9542
-10.1499 -5.5888 -1.9088 0.9541
-9.6326 -6.4867 -1.9131 0.9540
-8.3724 -8.1399 -1.9237 0.9538
-7.6372 -8.8827 -1.9298 0.9536
-6.8379 -9.5616 -1.9365 0.9535
-5.0683 -10.7058 -1.9513 0.9531
-4.0967 -11.1253 -1.9531 0.9531
-1.9735 -11.2163 -1.8761 0.9549
4.2422 -11.2085 -1.9743 0.9526
5.3799 -11.1046 -2.0327 0.9512
7.3480 -10.0820 -2.0552 0.9507
8.2483 -9.4206 -2.0627 0.9505
10.5458 -6.9646 -2.0820 0.9501
11.1522 -6.0106 -2.0870 0.9499
12.0880 -3.9479 -2.0949 0.9498
-1.9081 5.8051 -1.1486 0.9754
-3.1134 5.7505 -1.2291 0.9737
-3.8069 5.7407 -1.2947 0.9724
-4.5979 5.7456 -1.3832 0.9705
-7.7344 6.7460 -1.9290 0.9591
-9.1864 4.4291 -1.9169 0.9593
-9.8009 2.7188 -1.9117 0.9594
-9.9958 1.8320 -1.9101 0.9595
-10.1186 -0.8797 -1.9091 0.9595
-10.0048 -1.7798 -1.9100 0.9595
-9.5483 -3.5365 -1.9138 0.9594
-8.7966 -5.1941 -1.9201 0.9593
-8.3156 -5.9706 -1.9242 0.9592
-7.7682 -6.7046 -1.9287 0.9591
-4.9919 -9.1065 -1.9520 0.9586
-3.3177 -9.9193 -1.9660 0.9583
-2.4287 -10.2142 -1.9734 0.9582
2.2658 -10.4655 -2.0127 0.9574
3.2028 -10.2615 -2.0205 0.9572
5.8698 -9.1470 -2.0428 0.9567
6.6847 -8.6156 -2.0497 0.9566
7.4498 -8.0098 -2.0561 0.9565
8.1582 -7.3343 -2.0620 0.9563
8.8029 -6.5945 -2.0674 0.9562
9.3779 -5.7963 -2.0722 0.9561
10.2968 -4.0525 -2.0799 0.9560
11.0350 -1.1848 -2.0861 0.9558
10.9512 1.7789 -2.0854 0.9558
10.7397 2.7465 -2.0836 0.9559
10.4393 3.6892 -2.0811 0.9559
8.4207 7.0498 -2.0642 0.9563
6.4593 7.7451 -1.8956 0.9598
5.7239 8.2636 -1.8894 0.9599
3.2956 9.3823 -1.8691 0.9603
2.1212 8.3607 -1.6213 0.9655
1.3357 8.3226 -1.5843 0.9663
-1.3642 6.7931 -1.3023 0.9722
-2.2741 5.7461 -1.1615 0.9752
-3.5685 5.7491 -1.2719 0.9728
-4.3283 5.7551 -1.3535 0.9711
-5.2302 5.7955 -1.4673 0.9687
-7.5347 6.9814 -1.9307 0.9591
-8.1073 6.2658 -1.9259 0.9592
-9.0544 4.7058 -1.9180 0.9593
-9.4229 3.8731 -1.9149 0.9594
-9.9387 2.1321 -1.9106 0.9595
-10.0829 1.2361 -1.9094 0.9595
-10.1500 0.3316 -1.9088 0.9595
-10.1396 -0.5753 -1.9089 0.9595
-9.6461 -3.2466 -1.9130 0.9594
-8.9430 -4.9243 -1.9189 0.9593
-7.9595 -6.4628 -1.9271 0.9591
-7.3700 -7.1654 -1.9321 0.9590
-5.2573 -8.9422 -1.9497 0.9587
-4.4538 -9.4079 -1.9565 0.9585
-1.8240 -10.3667 -1.9785 0.9581
-0.8954 -10.5293 -1.9862 0.9579
0.9980 -10.6047 -2.0021 0.9576
1.9477 -10.5150 -2.0100 0.9574
3.8148 -10.0792 -2.0256 0.9571
5.5858 -9.3084 -2.0405 0.9568
6.4157 -8.8028 -2.0474 0.9566
7.9267 -7.5690 -2.0601 0.9564
9.1926 -6.0710 -2.0707 0.9562
9.7182 -5.2378 -2.0750 0.9561
10.5286 -3.4386 -2.0818 0.9559
10.8054 -2.4883 -2.0842 0.9559
-1.8777 5.7127 -1.2711 0.9757
-3.1171 5.7575 -1.3839 0.9736
-3.8217 5.7631 -1.4617 0.9721
-7.3960 5.3690 -1.9319 0.9633
-8.2036 3.9553 -1.9251 0.9635
-8.5123 3.2034 -1.9225 0.9635
-8.7549 2.4286 -1.9205 0.9635
-9.0401 -0.7860 -1.9181 0.9636
-7.4230 -5.3297 -1.9316 0.9633
-6.3862 -6.5935 -1.9403 0.9632
-5.7874 -7.1554 -1.9453 0.9631
-5.1403 -7.6644 -1.9507 0.9630
-3.7189 -8.5074 -1.9626 0.9628
-2.9547 -8.8340 -1.9690 0.9626
-2.1621 -9.0929 -1.9756 0.9625
-1.3469 -9.2814 -1.9825 0.9624
2.0126 -9.2963 -2.0106 0.9619
2.8438 -9.1111 -2.0175 0.9617
3.6575 -8.8508 -2.0243 0.9616
7.7957 -5.8400 -2.0590 0.9610
8.7430 -4.3784 -2.0669 0.9608
9.4072 -2.7624 -2.0725 0.9607
9.6246 -1.9138 -2.0743 0.9607
9.8192 -0.1731 -2.0759 0.9606
9.7945 0.7035 -2.0757 0.9606
9.6886 1.5738 -2.0748 0.9607
9.5024 2.4300 -2.0733 0.9607
8.8976 4.0701 -2.0682 0.9608
8.4848 4.8395 -2.0647 0.9609
7.4585 6.2443 -2.0562 0.9610
6.1891 7.4212 -2.0426 0.9613
5.3393 7.7084 -1.9821 0.9624
3.6692 8.0616 -1.8723 0.9644
2.9257 8.3290 -1.8660 0.9646
1.3409 8.3545 -1.7886 0.9660
-1.3075 6.5108 -1.4037 0.9732
-1.7057 5.7682 -1.2715 0.9757
-2.2664 5.7266 -1.3018 0.9751
-2.8959 5.7554 -1.3619 0.9740
-3.5765 5.7620 -1.4335 0.9727
-4.3144 5.7366 -1.5173 0.9711
-6.7235 6.2298 -1.9375 0.9632
-7.2364 5.5927 -1.9332 0.9633
-7.6913 4.9151 -1.9294 0.9634
-8.0853 4.2021 -1.9261 0.9634
-8.4158 3.4591 -1.9233 0.9635
-8.6808 2.6914 -1.9211 0.9635
-9.0081 1.1043 -1.9184 0.9636
-9.0589 -0.5140 -1.9179 0.9636
-8.9800 -1.3205 -1.9186 0.9636
-6.5760 -6.3934 -1.9387 0.9632
-5.9944 -6.9720 -1.9436 0.9631
-5.3631 -7.4993 -1.9489 0.9630
-4.6863 -7.9710 -1.9545 0.9629
-3.9686 -8.3829 -1.9605 0.9628
-2.4315 -9.0135 -1.9734 0.9626
-1.6233 -9.2260 -1.9801 0.9624
0.0424 -9.4335 -1.9941 0.9622
1.7304 -9.3416 -2.0082 0.9619
3.3861 -8.9467 -2.0221 0.9616
4.1846 -8.6373 -2.0287 0.9615
7.0226 -6.7057 -2.0525 0.9611
8.9963 -3.8567 -2.0690 0.9608
-1.8785 5.7150 -1.4138 0.9756
-3.1188 5.7605 -1.5395 0.9734
-3.8235 5.7657 -1.6260 0.9720
-6.2261 5.4305 -1.9417 0.9666
-7.6836 2.8915 -1.9295 0.9668
-7.9034 2.1924 -1.9276 0.9669
-8.0619 1.4776 -1.9263 0.9669
-8.1582 0.7521 -1.9255 0.9669
-8.0692 -1.4355 -1.9262 0.9669
-7.6981 -2.8512 -1.9293 0.9668
-7.4219 -3.5308 -1.9316 0.9668
-6.6972 -4.8086 -1.9377 0.9667
-5.2180 -6.4513 -1.9501 0.9665
-4.6332 -6.9084 -1.9550 0.9664
-2.6608 -7.9552 -1.9715 0.9661
-1.2121 -8.3525 -1.9836 0.9659
0.2934 -8.4885 -1.9962 0.9657
1.0528 -8.4553 -2.0025 0.9656
2.5546 -8.1847 -2.0151 0.9654
3.9922 -7.6458 -2.0271 0.9652
4.6714 -7.2795 -2.0328 0.9651
5.3163 -6.8519 -2.0382 0.9650
5.9210 -6.3660 -2.0433 0.9649
6.9885 -5.2353 -2.0522 0.9648
8.6213 -1.7144 -2.0659 0.9645
8.5123 2.1769 -2.0650 0.9645
8.2763 2.9248 -2.0630 0.9646
7.9725 3.6469 -2.0605 0.9646
6.1475 6.1591 -2.0452 0.9649
5.5601 6.6670 -2.0403 0.9650
4.9304 7.1180 -2.0350 0.9650
4.2552 7.4933 -2.0252 0.9652
3.5066 7.7044 -1.9894 0.9658
2.7102 7.7157 -1.9220 0.9670
1.9596 7.7238 -1.8728 0.9678
1.2487 7.7805 -1.8520 0.9681
-0.1529 7.8287 -1.8403 0.9683
-1.3089 6.5180 -1.5625 0.9731
-2.8977 5.7590 -1.5152 0.9739
-3.5693 5.7504 -1.5906 0.9726
-6.5283 5.0455 -1.9391 0.9667
-7.2968 3.7924 -1.9327 0.9668
-7.8362 2.4296 -1.9282 0.9669
-8.0155 1.7195 -1.9267 0.9669
-8.1789 -0.4640 -1.9253 0.9669
-7.7776 -2.6177 -1.9287 0.9668
-5.4051 -6.2866 -1.9485 0.9665
-4.8345 -6.7602 -1.9533 0.9664
-3.5754 -7.5523 -1.9638 0.9662
-2.8957 -7.8638 -1.9695 0.9662
-2.1892 -8.1151 -1.9754 0.9661
-1.4610 -8.3036 -1.9815 0.9659
-0.7166 -8.4272 -1.9877 0.9658
0.7975 -8.4741 -2.0004 0.9656
1.5552 -8.3957 -2.0067 0.9655
2.3052 -8.2492 -2.0130 0.9654
3.0412 -8.0351 -2.0192 0.9653
3.7570 -7.7547 -2.0252 0.9652
5.1035 -7.0024 -2.0364 0.9650
6.8234 -5.4392 -2.0508 0.9648
7.2955 -4.8181 -2.0548 0.9647
8.0606 -3.4556 -2.0612 0.9646
8.3465 -2.7259 -2.0636 0.9646
-3.1218 5.7660 -1.6977 0.9733
-4.1810 6.3049 -1.9588 0.9692
-4.7160 5.8933 -1.9543 0.9693
-5.2119 5.4375 -1.9501 0.9694
-6.0727 4.4084 -1.9429 0.9695
-6.7400 3.2496 -1.9374 0.9696
-6.9953 2.6325 -1.9352 0.9696
-7.3408 1.3454 -1.9323 0.9696
-7.4287 0.6849 -1.9316 0.9696
-7.4592 0.0194 -1.9313 0.9696
-7.4321 -0.6462 -1.9316 0.9696
-7.2060 -1.9586 -1.9335 0.9696
-6.4512 -3.8092 -1.9398 0.9695
-6.0950 -4.3762 -1.9427 0.9695
-5.6901 -4.9111 -1.9461 0.9694
-4.2132 -6.2821 -1.9585 0.9692
-3.0448 -6.9654 -1.9683 0.9691
-2.4177 -7.2285 -1.9735 0.9690
-1.1008 -7.5852 -1.9845 0.9688
0.9553 -7.6719 -2.0017 0.9686
1.6406 -7.5777 -2.0075 0.9685
2.3166 -7.4220 -2.0131 0.9684
4.8157 -6.2067 -2.0340 0.9681
6.3264 -4.7393 -2.0467 0.9679
7.9562 -0.1403 -2.0603 0.9677
7.9363 0.5700 -2.0602 0.9677
7.8511 1.2753 -2.0594 0.9677
7.7014 1.9695 -2.0582 0.9677
7.4885 2.6464 -2.0564 0.9677
7.2145 3.3002 -2.0541 0.9678
6.0543 5.0687 -2.0444 0.9679
5.0361 6.0387 -2.0359 0.9680
1.9047 7.5072 -2.0053 0.9685
0.5364 7.6714 -1.9911 0.9687
-0.8311 7.6050 -1.9808 0.9689
-1.3202 6.5740 -1.7361 0.9727
-2.2760 5.7509 -1.6014 0.9748
-4.5402 6.0368 -1.9558 0.9693
-5.5176 5.1124 -1.9476 0.9694
-5.9409 4.5914 -1.9440 0.9695
-6.3166 4.0366 -1.9409 0.9695
-6.6422 3.4521 -1.9382 0.9695
-7.2984 1.5657 -1.9327 0.9696
-7.4056 0.9079 -1.9318 0.9696
-7.4554 0.2435 -1.9314 0.9696
-7.4476 -0.4226 -1.9314 0.9696
-7.2599 -1.7408 -1.9330 0.9696
-6.8472 -3.0086 -1.9365 0.9696
-6.5596 -3.6119 -1.9389 0.9695
-6.2203 -4.1888 -1.9417 0.9695
-5.8316 -4.7350 -1.9449 0.9694
-4.3966 -6.1479 -1.9569 0.9693
-3.2499 -6.8648 -1.9665 0.9691
-2.6314 -7.1461 -1.9717 0.9690
-1.9888 -7.3724 -1.9771 0.9689
-1.3269 -7.5415 -1.9826 0.9689
0.0346 -7.7013 -1.9940 0.9687
0.7236 -7.6897 -1.9998 0.9686
1.4108 -7.6163 -2.0055 0.9685
2.0906 -7.4812 -2.0112 0.9684
5.1828 -5.9195 -2.0371 0.9680
6.1774 -4.9242 -2.0454 0.9679
6.9769 -3.7603 -2.0521 0.9678
7.5518 -2.4664 -2.0569 0.9677
-1.9185 5.8367 -1.7393 0.9748
-2.7550 6.3930 -1.9707 0.9715
-3.3066 6.1074 -1.9661 0.9715
-3.8297 5.7752 -1.9617 0.9716
-4.7757 4.9824 -1.9538 0.9717
-5.5662 4.0407 -1.9472 0.9718
-6.1794 2.9793 -1.9420 0.9719
-6.4140 2.4137 -1.9401 0.9719
-6.7316 1.2338 -1.9374 0.9719
-6.8405 0.0178 -1.9365 0.9720
-6.7378 -1.1987 -1.9374 0.9720
-6.6077 -1.7960 -1.9385 0.9719
-6.4262 -2.3801 -1.9400 0.9719
-6.1944 -2.9469 -1.9419 0.9719
-5.9139 -3.4919 -1.9443 0.9719
-4.8010 -4.9569 -1.9536 0.9717
-4.3481 -5.3759 -1.9574 0.9717
-3.8592 -5.7543 -1.9614 0.9716
-2.2132 -6.6170 -1.9752 0.9714
-1.0072 -6.9402 -1.9853 0.9713
0.8734 -7.0143 -2.0010 0.9710
2.1170 -6.7826 -2.0114 0.9709
2.7204 -6.5831 -2.0165 0.9708
3.3049 -6.3295 -2.0214 0.9708
3.8653 -6.0234 -2.0261 0.9707
4.3969 -5.6669 -2.0305 0.9706
6.7388 -2.6522 -2.0501 0.9703
6.9546 -2.0422 -2.0519 0.9703
7.2145 -0.7746 -2.0541 0.9703
7.2561 -0.1279 -2.0545 0.9703
5.5253 4.6258 -2.0400 0.9705
4.5978 5.5130 -2.0322 0.9706
4.0789 5.8886 -2.0279 0.9707
2.3571 6.7105 -2.0135 0.9709
1.1213 6.9865 -2.0031 0.9710
-0.1374 7.0374 -1.9926 0.9712
-1.7662 5.9727 -1.7632 0.9744
-3.1240 6.2088 -1.9676 0.9715
-4.1593 5.5303 -1.9590 0.9716
-4.6268 5.1269 -1.9550 0.9717
-5.0564 4.6851 -1.9514 0.9717
-6.5422 2.0284 -1.9390 0.9719
-6.7912 0.8326 -1.9369 0.9720
-6.8370 0.2233 -1.9365 0.9720
-6.8299 -0.3875 -1.9366 0.9720
-6.7698 -0.9955 -1.9371 0.9720
-6.4929 -2.1854 -1.9394 0.9719
-6.2779 -2.7585 -1.9412 0.9719
-6.0136 -3.3113 -1.9434 0.9719
-2.9758 -6.2859 -1.9688 0.9715
-2.4090 -6.5420 -1.9736 0.9714
-1.8203 -6.7477 -1.9785 0.9714
-0.5953 -6.9998 -1.9888 0.9712
4.2216 -5.7923 -2.0291 0.9706
4.7314 -5.4039 -2.0333 0.9706
5.6374 -4.4938 -2.0409 0.9705
6.0254 -3.9793 -2.0442 0.9704
7.0666 -1.6273 -2.0529 0.9703
-1.8784 5.7150 -1.8503 0.9751
-2.5380 5.8895 -1.9725 0.9735
-3.5294 5.3222 -1.9642 0.9736
-3.9824 4.9765 -1.9604 0.9737
-4.7869 4.1752 -1.9537 0.9738
-5.1327 3.7260 -1.9508 0.9738
-5.4375 3.2489 -1.9483 0.9738
-5.6992 2.7478 -1.9461 0.9739
-5.9161 2.2263 -1.9442 0.9739
-6.0867 1.6884 -1.9428 0.9739
-6.2845 0.5794 -1.9412 0.9739
-6.2873 -0.5466 -1.9411 0.9739
-5.9273 -2.1954 -1.9441 0.9739
-5.4539 -3.2203 -1.9481 0.9738
-4.8081 -4.1498 -1.9535 0.9738
-4.4260 -4.5696 -1.9567 0.9737
-4.0078 -4.9551 -1.9602 0.9737
-3.0756 -5.6107 -1.9680 0.9736
-0.9273 -6.3899 -1.9860 0.9733
0.8036 -6.4540 -2.0005 0.9731
1.3795 -6.3719 -2.0053 0.9731
2.5016 -6.0536 -2.0147 0.9730
3.0384 -5.8192 -2.0192 0.9729
3.5530 -5.5367 -2.0235 0.9728
4.4979 -4.8360 -2.0314 0.9727
4.9200 -4.4231 -2.0349 0.9727
5.3033 -3.9728 -2.0381 0.9727
5.6444 -3.4887 -2.0410 0.9726
5.9404 -2.9749 -2.0434 0.9726
6.5319 -1.2989 -2.0484 0.9725
6.4500 1.6494 -2.0477 0.9725
6.0442 2.7648 -2.0443 0.9726
4.2253 5.0664 -2.0291 0.9728
1.6048 6.3254 -2.0072 0.9731
1.0316 6.4279 -2.0024 0.9731
-0.1265 6.4774 -1.9927 0.9733
-1.8241 6.1685 -1.9785 0.9734
-2.2633 5.7190 -1.8918 0.9746
-2.8783 5.7205 -1.9697 0.9736
-3.3701 5.4295 -1.9656 0.9736
-4.6618 4.3194 -1.9547 0.9738
-5.0208 3.8804 -1.9517 0.9738
-5.3396 3.4123 -1.9491 0.9738
-6.0345 1.8710 -1.9433 0.9739
-6.2648 0.7680 -1.9413 0.9739
-6.3005 -0.3575 -1.9410 0.9739
-6.2450 -0.9183 -1.9415 0.9739
-6.1409 -1.4725 -1.9424 0.9739
-5.9890 -2.0158 -1.9436 0.9739
-5.5460 -3.0538 -1.9473 0.9739
-4.9281 -4.0014 -1.9525 0.9738
-4.5587 -4.4321 -1.9556 0.9737
-3.7119 -5.1904 -1.9627 0.9736
-3.2405 -5.5119 -1.9666 0.9736
-2.2190 -6.0261 -1.9752 0.9735
-1.1180 -6.3540 -1.9844 0.9734
-0.5480 -6.4439 -1.9892 0.9733
0.0292 -6.4828 -1.9940 0.9732
0.6089 -6.4700 -1.9988 0.9732
1.1865 -6.4053 -2.0037 0.9731
1.7574 -6.2889 -2.0084 0.9730
2.3168 -6.1213 -2.0131 0.9730
2.8601 -5.9035 -2.0177 0.9729
3.3827 -5.6370 -2.0220 0.9729
4.3479 -4.9659 -2.0301 0.9728
4.7821 -4.5664 -2.0338 0.9727
5.5346 -3.6551 -2.0400 0.9726
5.8460 -3.1508 -2.0427 0.9726
6.3253 -2.0658 -2.0467 0.9725
6.4887 -1.4943 -2.0480 0.9725
-1.8583 5.6536 -1.9782 0.9752
-2.8219 5.2121 -1.9701 0.9753
-3.2694 4.9301 -1.9664 0.9754
-3.6896 4.6106 -1.9629 0.9754
-4.0794 4.2560 -1.9596 0.9755
-4.4360 3.8691 -1.9566 0.9755
-4.7570 3.4532 -1.9540 0.9755
-5.0399 3.0114 -1.9516 0.9756
-5.2830 2.5471 -1.9495 0.9756
-5.4844 2.0639 -1.9479 0.9756
-5.6428 1.5653 -1.9465 0.9756
-5.8266 0.5372 -1.9450 0.9756
-5.8506 0.0152 -1.9448 0.9756
-5.7624 -1.0251 -1.9455 0.9756
-5.4948 -2.0352 -1.9478 0.9756
-5.2959 -2.5194 -1.9494 0.9756
-5.0552 -2.9849 -1.9514 0.9756
-4.7745 -3.4281 -1.9538 0.9755
-4.4557 -3.8456 -1.9565 0.9755
-4.1011 -4.2342 -1.9594 0.9755
-2.3784 -5.4409 -1.9738 0.9753
-1.8875 -5.6431 -1.9779 0.9752
0.7434 -5.9705 -2.0000 0.9750
1.8006 -5.7687 -2.0088 0.9748
2.3129 -5.5970 -2.0131 0.9748
2.8088 -5.3794 -2.0172 0.9747
3.2840 -5.1175 -2.0212 0.9747
3.7344 -4.8131 -2.0250 0.9746
4.1561 -4.4685 -2.0285 0.9746
4.5455 -4.0865 -2.0318 0.9746
5.2136 -3.2225 -2.0374 0.9745
5.4865 -2.7476 -2.0396 0.9745
5.8974 -1.7318 -2.0431 0.9744
6.0317 -1.1994 -2.0442 0.9744
6.1518 -0.1085 -2.0452 0.9744
6.0712 0.9862 -2.0445 0.9744
5.9562 1.5232 -2.0436 0.9744
5.5821 2.5535 -2.0405 0.9745
4.6895 3.9261 -2.0330 0.9745
4.3139 4.3221 -2.0298 0.9746
3.9045 4.6818 -2.0264 0.9746
3.4650 5.0023 -2.0227 0.9747
2.5109 5.5166 -2.0148 0.9748
2.0045 5.7066 -2.0105 0.9748
1.4842 5.8500 -2.0062 0.9749
0.9543 5.9459 -2.0017 0.9749
0.4191 5.9939 -1.9973 0.9750
-0.1170 5.9939 -1.9928 0.9750
-0.6498 5.9462 -1.9883 0.9751
-1.1751 5.8516 -1.9839 0.9752
-2.6658 5.2980 -1.9714 0.9753
-3.5514 4.7221 -1.9640 0.9754
-4.3199 4.0027 -1.9576 0.9755
-4.6531 3.5962 -1.9548 0.9755
-4.9491 3.1627 -1.9523 0.9755
-5.2058 2.7056 -1.9502 0.9756
-5.7237 1.2279 -1.9459 0.9756
-5.8476 0.1910 -1.9448 0.9756
-5.5521 -1.8687 -1.9473 0.9756
-4.8733 -3.2817 -1.9530 0.9755
-4.5671 -3.7082 -1.9555 0.9755
-3.8472 -4.4746 -1.9615 0.9754
-3.4386 -4.8083 -1.9650 0.9754
-3.0015 -5.1054 -1.9686 0.9753
-2.0547 -5.5799 -1.9765 0.9752
-1.5520 -5.7532 -1.9808 0.9752
-1.0348 -5.8815 -1.9851 0.9751
-0.5071 -5.9636 -1.9895 0.9751
0.0270 -5.9985 -1.9940 0.9750
0.5633 -5.9856 -1.9984 0.9750
1.0975 -5.9247 -2.0029 0.9749
1.6252 -5.8160 -2.0073 0.9749
2.1422 -5.6600 -2.0117 0.9748
3.5859 -4.9201 -2.0237 0.9747
4.0177 -4.5887 -2.0274 0.9746
4.4183 -4.2190 -2.0307 0.9746
5.1123 -3.3763 -2.0365 0.9745
5.6433 -2.4193 -2.0410 0.9745
5.8413 -1.9077 -2.0426 0.9744
5.9919 -1.3799 -2.0439 0.9744
-1.7283 5.2581 -1.9793 0.9768
-3.0419 4.5871 -1.9683 0.9769
-3.4333 4.2903 -1.9650 0.9769
-3.7965 3.9608 -1.9620 0.9770
-4.4279 3.2144 -1.9567 0.9770
-4.9184 2.3713 -1.9526 0.9771
-5.3605 0.9825 -1.9489 0.9771
-5.4478 0.0142 -1.9482 0.9771
-5.4278 -0.4719 -1.9483 0.9771
-5.2613 -1.4300 -1.9497 0.9771
-5.1159 -1.8948 -1.9509 0.9771
-4.9304 -2.3456 -1.9525 0.9771
-4.7060 -2.7787 -1.9544 0.9771
-4.4443 -3.1910 -1.9566 0.9770
-3.0654 -4.5707 -1.9681 0.9769
-2.6501 -4.8345 -1.9716 0.9769
-2.2124 -5.0610 -1.9752 0.9768
-0.3049 -5.5597 -1.9912 0.9766
1.1856 -5.4761 -2.0037 0.9765
2.1485 -5.1990 -2.0117 0.9764
2.6087 -4.9962 -2.0156 0.9763
3.0496 -4.7522 -2.0193 0.9763
3.4674 -4.4689 -2.0228 0.9763
3.8585 -4.1485 -2.0260 0.9762
5.0916 -2.5498 -2.0363 0.9761
5.4722 -1.6069 -2.0395 0.9761
5.6754 -0.6094 -2.0412 0.9760
5.6938 0.4090 -2.0414 0.9760
5.6332 0.9151 -2.0409 0.9760
5.5267 1.4133 -2.0400 0.9761
5.1802 2.3696 -2.0371 0.9761
4.9433 2.8196 -2.0351 0.9761
4.0048 4.0124 -2.0273 0.9762
3.6252 4.3468 -2.0241 0.9762
3.2175 4.6450 -2.0207 0.9763
2.3322 5.1240 -2.0133 0.9764
1.3790 5.4353 -2.0053 0.9765
-0.6042 5.5282 -1.9887 0.9767
-1.5706 5.3112 -1.9806 0.9767
-2.0341 5.1398 -1.9767 0.9768
-3.3046 4.3940 -1.9661 0.9769
-4.0206 3.7254 -1.9601 0.9770
-5.0474 2.0746 -1.9515 0.9771
-5.3293 1.1432 -1.9492 0.9771
-5.4082 0.6630 -1.9485 0.9771
-5.4449 0.1779 -1.9482 0.9771
-5.4392 -0.3086 -1.9482 0.9771
-5.3911 -0.7928 -1.9486 0.9771
-5.3009 -1.2711 -1.9494 0.9771
-5.1693 -1.7399 -1.9505 0.9771
-4.7857 -2.6352 -1.9537 0.9771
-4.5364 -3.0548 -1.9558 0.9770
-4.2510 -3.4516 -1.9582 0.9770
-3.5801 -4.1640 -1.9638 0.9769
-3.1996 -4.4740 -1.9670 0.9769
-2.7925 -4.7498 -1.9704 0.9769
-2.3619 -4.9891 -1.9740 0.9768
-0.9622 -5.4687 -1.9857 0.9767
0.0251 -5.5757 -1.9939 0.9766
0.5235 -5.5629 -1.9981 0.9765
1.0198 -5.5054 -2.0023 0.9765
1.5100 -5.4035 -2.0064 0.9764
3.3296 -4.5685 -2.0216 0.9763
4.1016 -3.9165 -2.0281 0.9762
4.7449 -3.1336 -2.0334 0.9761
5.0110 -2.7008 -2.0357 0.9761
5.2368 -2.2450 -2.0376 0.9761
5.4203 -1.7702 -2.0391 0.9761
-2.8410 4.2842 -1.9700 0.9782
-3.2069 4.0075 -1.9669 0.9783
-3.5465 3.7000 -1.9641 0.9783
-4.3840 2.6195 -1.9571 0.9784
-4.5960 2.2159 -1.9553 0.9784
-4.7718 1.7957 -1.9538 0.9784
-4.9100 1.3621 -1.9527 0.9784
-5.0098 0.9182 -1.9518 0.9784
-2.2875 0.0060 -0.8766 0.9902
-2.3042 -0.2003 -0.8863 0.9901
-5.0144 -0.8920 -1.9518 0.9784
-4.7809 -1.7707 -1.9537 0.9784
-4.6072 -2.1918 -1.9552 0.9784
-4.1525 -2.9815 -1.9590 0.9783
-3.8745 -3.3440 -1.9613 0.9783
-3.5654 -3.6812 -1.9639 0.9783
-0.2845 -5.1886 -1.9914 0.9780
0.6446 -5.1767 -1.9991 0.9779
1.1060 -5.1084 -2.0030 0.9779
2.4326 -4.6589 -2.0141 0.9777
3.5967 -3.8671 -2.0238 0.9776
4.7445 -2.3760 -2.0334 0.9775
4.9416 -1.9448 -2.0351 0.9775
5.2144 -1.0369 -2.0374 0.9775
5.3048 0.3810 -2.0381 0.9775
5.0085 1.7700 -2.0357 0.9775
4.8270 2.2081 -2.0341 0.9775
4.3492 3.0248 -2.0301 0.9776
2.5971 4.5734 -2.0155 0.9777
-0.1015 5.1995 -1.9929 0.9780
-1.8993 4.7991 -1.9779 0.9781
-2.7125 4.3700 -1.9711 0.9782
-3.7561 3.4803 -1.9623 0.9783
-4.0466 3.1275 -1.9599 0.9783
-4.3047 2.7510 -1.9577 0.9784
-4.5287 2.3537 -1.9559 0.9784
-4.9806 1.0684 -1.9521 0.9784
-2.3012 0.2821 -0.8885 0.9901
-2.3023 -0.1306 -0.8837 0.9902
-5.0384 -0.7409 -1.9516 0.9784
-4.8309 -1.6260 -1.9533 0.9784
-4.6698 -2.0519 -1.9547 0.9784
-3.9716 -3.2247 -1.9605 0.9783
-3.6727 -3.5707 -1.9630 0.9783
-3.3442 -3.8896 -1.9658 0.9783
-2.9884 -4.1788 -1.9687 0.9782
-2.2055 -4.6588 -1.9753 0.9782
-1.7843 -4.8456 -1.9788 0.9781
-1.3474 -4.9947 -1.9825 0.9781
-0.4400 -5.1743 -1.9901 0.9780
0.4884 -5.1903 -1.9978 0.9779
1.4085 -5.0403 -2.0055 0.9778
2.7074 -4.5117 -2.0164 0.9777
3.4772 -3.9714 -2.0228 0.9776
5.0504 -1.6494 -2.0360 0.9775
5.1802 -1.1929 -2.0371 0.9775
-1.5115 4.5985 -1.9811 0.9793
-2.2970 4.2426 -1.9745 0.9794
-3.3239 3.4677 -1.9659 0.9795
-4.1097 2.4556 -1.9594 0.9795
-4.3087 2.0774 -1.9577 0.9795
-2.0159 0.1859 -0.8286 0.9913
-1.9906 0.0052 -0.8147 0.9914
-2.0149 -0.1752 -0.8278 0.9913
-4.6099 -1.2530 -1.9552 0.9796
-4.4822 -1.6601 -1.9562 0.9796
-3.6316 -3.1344 -1.9634 0.9795
-2.6828 -4.0002 -1.9713 0.9794
-1.9353 -4.4273 -1.9775 0.9793
-0.2664 -4.8586 -1.9915 0.9792
0.1684 -4.8719 -1.9951 0.9792
1.0353 -4.7818 -2.0024 0.9791
1.4603 -4.6786 -2.0060 0.9790
1.8751 -4.5375 -2.0094 0.9790
2.2762 -4.3594 -2.0128 0.9790
3.3645 -3.6174 -2.0219 0.9789
3.6786 -3.3071 -2.0245 0.9788
3.9636 -2.9692 -2.0269 0.9788
4.4368 -2.2219 -2.0309 0.9788
4.6209 -1.8186 -2.0324 0.9788
4.9441 -0.5308 -2.0351 0.9787
4.9723 -0.0877 -2.0353 0.9787
4.9074 0.7971 -2.0348 0.9787
4.6833 1.6550 -2.0329 0.9788
4.5139 2.0648 -2.0315 0.9788
4.0676 2.8289 -2.0278 0.9788
3.7947 3.1769 -2.0255 0.9788
3.4918 3.4984 -2.0230 0.9789
3.1614 3.7908 -2.0202 0.9789
2.8065 4.0517 -2.0172 0.9789
2.4301 4.2793 -2.0141 0.9790
2.0353 4.4716 -2.0108 0.9790
0.3403 4.8665 -1.9966 0.9791
-0.0951 4.8686 -1.9930 0.9792
-0.9553 4.7569 -1.9858 0.9792
-2.8925 3.8460 -1.9696 0.9794
-3.5205 3.2620 -1.9643 0.9795
-4.0353 2.5788 -1.9600 0.9795
-4.2455 2.2065 -1.9582 0.9795
-4.4220 1.8176 -1.9567 0.9795
-4.5638 1.4150 -1.9556 0.9796
-2.0200 0.2476 -0.8329 0.9912
-1.9981 0.0653 -0.8182 0.9914
-2.0069 -0.1139 -0.8227 0.9913
-2.0215 -0.2973 -0.8362 0.9912
-4.5292 -1.5244 -1.9558 0.9796
-4.3779 -1.9236 -1.9571 0.9795
-4.1922 -2.3083 -1.9587 0.9795
-3.1341 -3.6452 -1.9675 0.9794
-2.0663 -4.3647 -1.9764 0.9793
-1.6715 -4.5392 -1.9798 0.9793
-0.4120 -4.8455 -1.9903 0.9792
0.8906 -4.8078 -2.0012 0.9791
2.5332 -4.2214 -2.0149 0.9789
3.8711 -3.0858 -2.0261 0.9788
4.1355 -2.7311 -2.0283 0.9788
4.3668 -2.3536 -2.0303 0.9788
4.5631 -1.9562 -2.0319 0.9788
4.7225 -1.5423 -2.0333 0.9788
4.8437 -1.1154 -2.0343 0.9787
-1.4200 4.3201 -1.9819 0.9804
-2.1584 3.9866 -1.9757 0.9804
-2.5017 3.7726 -1.9728 0.9804
-3.3984 2.9642 -1.9653 0.9805
-3.6455 2.6464 -1.9632 0.9805
-3.8634 2.3085 -1.9614 0.9806
-4.0507 1.9530 -1.9599 0.9806
-1.4661 -0.1275 -0.6414 0.9936
-3.8752 -2.2882 -1.9613 0.9806
-3.1408 -3.2427 -1.9675 0.9805
-2.5211 -3.7592 -1.9726 0.9804
-2.1789 -3.9748 -1.9755 0.9804
-0.6552 -4.5148 -1.9883 0.9803
-0.2502 -4.5631 -1.9916 0.9803
0.5666 -4.5504 -1.9985 0.9802
0.9719 -4.4894 -2.0019 0.9802
1.3709 -4.3921 -2.0052 0.9801
1.7601 -4.2592 -2.0085 0.9801
2.4966 -3.8905 -2.0146 0.9800
2.8377 -3.6574 -2.0175 0.9800
3.1569 -3.3942 -2.0202 0.9800
3.4513 -3.1028 -2.0226 0.9800
3.7184 -2.7856 -2.0249 0.9799
4.4718 -1.3131 -2.0312 0.9799
4.5730 -0.9093 -2.0320 0.9799
4.6371 -0.4979 -2.0325 0.9799
4.6521 0.3341 -2.0327 0.9799
4.6028 0.7477 -2.0323 0.9799
4.5161 1.1549 -2.0315 0.9799
4.3928 1.5524 -2.0305 0.9799
4.2341 1.9368 -2.0292 0.9799
3.8159 2.6539 -2.0257 0.9799
3.5601 2.9806 -2.0235 0.9799
3.2762 3.2824 -2.0212 0.9800
2.6337 3.8022 -2.0158 0.9800
2.2806 4.0162 -2.0128 0.9800
1.9103 4.1971 -2.0097 0.9801
0.3195 4.5697 -1.9964 0.9802
-0.4960 4.5382 -1.9896 0.9803
-0.8973 4.4683 -1.9862 0.9803
-1.6716 4.2239 -1.9798 0.9804
-2.7184 3.6144 -1.9710 0.9805
-3.0260 3.3531 -1.9684 0.9805
-3.3091 3.0661 -1.9661 0.9805
-3.7935 2.4242 -1.9620 0.9805
-3.9912 2.0744 -1.9604 0.9806
-4.1574 1.7088 -1.9590 0.9806
-1.4940 0.4632 -0.6817 0.9932
-1.4796 0.3174 -0.6595 0.9934
-1.4434 0.0472 -0.6294 0.9937
-1.4879 -0.3568 -0.6668 0.9933
-3.4993 -2.8413 -1.9645 0.9805
-2.9456 -3.4260 -1.9691 0.9805
-2.2962 -3.9057 -1.9745 0.9804
-1.9415 -4.1011 -1.9775 0.9804
0.0206 -4.5751 -1.9939 0.9802
0.4294 -4.5628 -1.9973 0.9802
1.6304 -4.3078 -2.0074 0.9801
3.0521 -3.4860 -2.0193 0.9800
3.3552 -3.2038 -2.0218 0.9800
3.6318 -2.8950 -2.0241 0.9799
3.8795 -2.5621 -2.0262 0.9799
4.2802 -1.8349 -2.0296 0.9799
4.5430 -1.0462 -2.0318 0.9799
-1.3374 4.0689 -1.9826 0.9813
-2.0332 3.7554 -1.9767 0.9814
-2.3569 3.5542 -1.9740 0.9814
-2.6611 3.3254 -1.9715 0.9814
-3.4354 2.4939 -1.9650 0.9815
-1.2746 0.6145 -0.6550 0.9938
-1.2590 0.4738 -0.6227 0.9941
-1.2706 0.3525 -0.6104 0.9942
-1.2716 0.2331 -0.5984 0.9943
-1.2737 0.1175 -0.5921 0.9944
-1.2732 -0.1107 -0.5916 0.9944
-1.2723 -0.2263 -0.5982 0.9943
-1.2707 -0.3454 -0.6095 0.9942
-3.6521 -2.1564 -1.9632 0.9815
-3.2167 -2.7762 -1.9668 0.9814
-2.9594 -3.0555 -1.9690 0.9814
-2.6782 -3.3113 -1.9713 0.9814
-2.0526 -3.7444 -1.9766 0.9814
-1.3584 -4.0615 -1.9824 0.9813
-0.6170 -4.2515 -1.9886 0.9812
0.9149 -4.2258 -2.0014 0.9811
1.6564 -4.0084 -2.0076 0.9811
2.3492 -3.6607 -2.0134 0.9810
2.6699 -3.4411 -2.0161 0.9810
2.9700 -3.1932 -2.0186 0.9810
3.7211 -2.2999 -2.0249 0.9809
3.9145 -1.9604 -2.0265 0.9809
4.0765 -1.6044 -2.0279 0.9809
4.3610 -0.4682 -2.0302 0.9809
4.3858 -0.0773 -2.0304 0.9809
4.3750 0.3142 -2.0304 0.9809
3.9823 1.8217 -2.0271 0.9809
3.8011 2.1681 -2.0256 0.9809
2.1461 3.7792 -2.0117 0.9810
1.4361 4.0883 -2.0058 0.9811
1.0640 4.1936 -2.0027 0.9811
0.6845 4.2650 -1.9995 0.9811
0.3008 4.3022 -1.9963 0.9812
-0.0841 4.3049 -1.9930 0.9812
-0.4670 4.2734 -1.9898 0.9812
-0.8450 4.2080 -1.9867 0.9813
-1.2152 4.1094 -1.9836 0.9813
-1.5745 3.9786 -1.9806 0.9813
-1.9204 3.8166 -1.9777 0.9813
-2.2501 3.6250 -1.9749 0.9814
-2.8512 3.1594 -1.9699 0.9814
-3.1181 2.8892 -1.9677 0.9814
-3.5750 2.2846 -1.9638 0.9815
-1.2503 0.5139 -0.6257 0.9941
-1.2691 0.3935 -0.6150 0.9942
-1.2672 0.2718 -0.5999 0.9943
-1.2653 0.0413 -0.5860 0.9944
-1.2692 -0.0720 -0.5884 0.9944
-1.2748 -0.1875 -0.5964 0.9943
-1.2662 -0.4262 -0.6184 0.9941
-1.2492 -0.5489 -0.6316 0.9940
-3.5199 -2.3703 -1.9643 0.9815
-3.2975 -2.6774 -1.9662 0.9815
-2.7753 -3.2280 -1.9705 0.9814
-1.8289 -3.8631 -1.9784 0.9813
-1.4791 -4.0168 -1.9814 0.9813
-0.7440 -4.2288 -1.9875 0.9813
-0.3644 -4.2851 -1.9907 0.9812
0.4042 -4.2955 -1.9971 0.9812
0.7871 -4.2491 -2.0003 0.9811
1.1649 -4.1686 -2.0035 0.9811
1.5345 -4.0543 -2.0066 0.9811
1.8929 -3.9070 -2.0096 0.9810
2.8715 -3.2797 -2.0178 0.9810
3.4164 -2.7233 -2.0223 0.9809
4.0256 -1.7258 -2.0274 0.9809
-2.2253 3.3558 -1.9751 0.9822
-2.7797 2.9001 -1.9705 0.9823
-3.2445 2.3553 -1.9666 0.9823
-1.1191 0.4211 -0.5865 0.9947
-1.1324 0.3142 -0.5765 0.9948
-1.1403 0.2090 -0.5687 0.9948
-1.1341 0.0030 -0.5563 0.9950
-1.1440 -0.0994 -0.5633 0.9949
-1.1410 -0.2030 -0.5685 0.9949
-2.2426 -3.3439 -1.9750 0.9822
-1.9379 -3.5351 -1.9775 0.9822
-1.6169 -3.6990 -1.9802 0.9822
-1.2823 -3.8339 -1.9830 0.9822
-0.5823 -4.0125 -1.9889 0.9821
-0.2223 -4.0546 -1.9919 0.9821
0.1405 -4.0645 -1.9949 0.9820
0.8632 -3.9869 -2.0010 0.9820
2.5179 -3.2452 -2.0148 0.9819
2.8007 -3.0112 -2.0172 0.9818
3.0614 -2.7523 -2.0194 0.9818
3.5083 -2.1684 -2.0231 0.9818
4.0543 -0.8062 -2.0277 0.9818
4.1110 -0.4414 -2.0281 0.9817
4.0806 0.6629 -2.0279 0.9817
3.7544 1.7174 -2.0252 0.9818
3.5837 2.0441 -2.0237 0.9818
3.1578 2.6437 -2.0202 0.9818
2.9064 2.9119 -2.0181 0.9818
2.6320 3.1560 -2.0158 0.9819
2.3371 3.3740 -2.0133 0.9819
2.0241 3.5644 -2.0107 0.9819
1.6958 3.7257 -2.0079 0.9819
1.3547 3.8566 -2.0051 0.9820
-0.0793 4.0624 -1.9931 0.9821
-0.4407 4.0330 -1.9901 0.9821
-1.1470 3.8789 -1.9842 0.9821
-1.8130 3.6032 -1.9786 0.9822
-2.1244 3.4226 -1.9760 0.9822
-2.4183 3.2154 -1.9735 0.9822
-2.6923 2.9834 -1.9712 0.9823
-3.1732 2.4524 -1.9672 0.9823
-3.3764 2.1577 -1.9655 0.9823
-1.1107 0.4565 -0.5890 0.9947
-1.1355 0.2436 -0.5697 0.9948
-1.1393 0.0372 -0.5591 0.9949
-1.1436 -0.1681 -0.5670 0.9949
-1.1328 -0.2716 -0.5714 0.9948
-1.1025 -0.4844 -0.5907 0.9946
-1.1127 -0.6127 -0.6231 0.9944
-3.1141 -2.5285 -1.9677 0.9823
-2.6207 -3.0481 -1.9718 0.9822
-2.3411 -3.2736 -1.9742 0.9822
-2.0423 -3.4738 -1.9767 0.9822
-1.7266 -3.6470 -1.9793 0.9822
-1.3963 -3.7918 -1.9821 0.9822
-1.0539 -3.9069 -1.9849 0.9821
-0.7022 -3.9912 -1.9879 0.9821
-0.3439 -4.0440 -1.9909 0.9821
0.0183 -4.0648 -1.9939 0.9821
0.3814 -4.0531 -1.9969 0.9820
0.7426 -4.0090 -2.0000 0.9820
1.0989 -3.9326 -2.0029 0.9820
1.7854 -3.6852 -2.0087 0.9819
2.4183 -3.3180 -2.0140 0.9819
2.7079 -3.0928 -2.0164 0.9819
2.9763 -2.8420 -2.0186 0.9818
3.2213 -2.5678 -2.0207 0.9818
3.4406 -2.2722 -2.0225 0.9818
3.7952 -1.6270 -2.0255 0.9818
3.9274 -1.2826 -2.0266 0.9818
4.0278 -0.9275 -2.0274 0.9818
-1.1940 3.6327 -1.9838 0.9829
-1.5113 3.5070 -1.9811 0.9829
-2.6300 2.7439 -1.9717 0.9830
-2.8615 2.4958 -1.9698 0.9830
-3.0700 2.2286 -1.9681 0.9831
-0.9613 0.5744 -0.5810 0.9950
-1.0377 0.0957 -0.5406 0.9953
-1.0376 -0.0902 -0.5403 0.9953
-1.0322 -0.1836 -0.5439 0.9953
-1.0195 -0.2771 -0.5481 0.9953
-1.0066 -0.3728 -0.5569 0.9952
-0.9783 -0.4654 -0.5620 0.9951
-0.9590 -0.5663 -0.5778 0.9950
-2.8743 -2.4807 -1.9697 0.9830
-2.6441 -2.7299 -1.9716 0.9830
-1.8331 -3.3441 -1.9784 0.9830
-1.5294 -3.4988 -1.9809 0.9829
-0.8857 -3.7250 -1.9863 0.9829
-0.5507 -3.7945 -1.9891 0.9829
0.1328 -3.8430 -1.9949 0.9828
1.1506 -3.6863 -2.0034 0.9827
1.4769 -3.5738 -2.0061 0.9827
2.6464 -2.8454 -2.0159 0.9826
2.8927 -2.6006 -2.0179 0.9826
3.1160 -2.3343 -2.0198 0.9826
3.3146 -2.0487 -2.0215 0.9826
3.4866 -1.7461 -2.0229 0.9826
3.6306 -1.4289 -2.0241 0.9826
3.8960 0.2798 -2.0263 0.9826
3.8548 0.6262 -2.0260 0.9826
3.7824 0.9673 -2.0254 0.9826
3.3857 1.9312 -2.0221 0.9826
3.1975 2.2238 -2.0205 0.9826
2.7462 2.7514 -2.0167 0.9826
2.4871 2.9823 -2.0146 0.9827
2.2086 3.1886 -2.0122 0.9827
0.6106 3.8043 -1.9989 0.9828
0.2684 3.8381 -1.9960 0.9828
-0.0750 3.8412 -1.9931 0.9828
-0.7543 3.7560 -1.9874 0.9829
-1.0848 3.6686 -1.9847 0.9829
-1.7150 3.4084 -1.9794 0.9830
-2.7861 2.5815 -1.9704 0.9830
-1.0162 0.3151 -0.5520 0.9952
-1.0270 0.2203 -0.5449 0.9953
-1.0371 0.1272 -0.5421 0.9953
-1.0340 0.0338 -0.5367 0.9953
-1.0356 -0.1523 -0.5430 0.9953
-1.0222 -0.2451 -0.5453 0.9953
-2.4794 -2.8838 -1.9730 0.9830
-2.2148 -3.0970 -1.9752 0.9830
-1.3206 -3.5864 -1.9827 0.9829
-0.6641 -3.7744 -1.9882 0.9829
-0.3252 -3.8241 -1.9910 0.9829
0.0173 -3.8434 -1.9939 0.9828
0.3606 -3.8320 -1.9968 0.9828
0.7020 -3.7900 -1.9996 0.9828
1.0388 -3.7175 -2.0024 0.9828
1.3682 -3.6149 -2.0052 0.9827
1.6875 -3.4831 -2.0079 0.9827
2.2853 -3.1356 -2.0129 0.9827
2.5588 -2.9225 -2.0152 0.9826
2.8123 -2.6854 -2.0173 0.9826
3.2507 -2.1468 -2.0209 0.9826
3.5854 -1.5371 -2.0237 0.9826
3.7101 -1.2117 -2.0248 0.9826
-1.1313 3.4418 -1.9843 0.9836
-1.4320 3.3229 -1.9818 0.9836
-2.2529 2.8153 -1.9749 0.9837
-2.4926 2.6005 -1.9729 0.9837
-0.8649 0.5168 -0.5518 0.9954
-0.9112 0.3429 -0.5333 0.9956
-0.9412 0.1725 -0.5241 0.9956
-0.9474 0.0874 -0.5211 0.9957
-0.9412 0.0025 -0.5155 0.9957
-0.9419 -0.1675 -0.5240 0.9956
-0.9249 -0.2514 -0.5249 0.9956
-0.9121 -0.3378 -0.5327 0.9956
-2.9207 -2.0971 -1.9693 0.9837
-2.7242 -2.3512 -1.9709 0.9837
-2.5059 -2.5873 -1.9728 0.9837
-2.0105 -2.9977 -1.9769 0.9837
-1.7370 -3.1688 -1.9792 0.9837
-1.1491 -3.4355 -1.9841 0.9836
-0.8391 -3.5290 -1.9867 0.9836
0.1258 -3.6399 -1.9948 0.9835
0.4506 -3.6191 -1.9975 0.9835
1.0895 -3.4907 -2.0029 0.9835
1.3984 -3.3840 -2.0054 0.9834
1.9823 -3.0891 -2.0103 0.9834
2.2526 -2.9032 -2.0126 0.9834
3.1372 -1.9391 -2.0200 0.9833
3.2999 -1.6526 -2.0214 0.9833
3.4361 -1.3524 -2.0225 0.9833
1.8870 0.3065 -1.0471 0.9913
1.8855 0.4822 -1.0659 0.9912
3.0265 2.1048 -2.0191 0.9833
2.8243 2.3645 -2.0174 0.9833
2.5996 2.6046 -2.0155 0.9834
2.3545 2.8232 -2.0135 0.9834
1.5176 3.3343 -2.0064 0.9834
1.2125 3.4520 -2.0039 0.9835
-0.7146 3.5583 -1.9878 0.9836
-1.6250 3.2296 -1.9802 0.9836
-1.9044 3.0681 -1.9778 0.9837
-2.1681 2.8828 -1.9756 0.9837
-2.4141 2.6751 -1.9736 0.9837
-0.9213 0.2857 -0.5283 0.9956
-0.9467 0.1161 -0.5224 0.9957
-0.9177 -0.3089 -0.5303 0.9956
-0.9011 -0.3959 -0.5391 0.9955
-2.7928 -2.2676 -1.9704 0.9837
-2.5817 -2.5100 -1.9721 0.9837
-1.8307 -3.1139 -1.9784 0.9837
-1.5475 -3.2687 -1.9808 0.9836
-1.2513 -3.3980 -1.9833 0.9836
-0.6291 -3.5756 -1.9885 0.9836
0.0164 -3.6404 -1.9939 0.9835
0.6649 -3.5893 -1.9993 0.9835
1.2955 -3.4230 -2.0046 0.9834
2.6621 -2.5420 -2.0160 0.9834
3.0768 -2.0320 -2.0195 0.9833
3.3933 -1.4547 -2.0221 0.9833
1.8723 -0.6115 -1.0788 0.9911
1.8865 -0.4344 -1.0603 0.9912
-1.0734 3.2658 -1.9848 0.9842
-1.3589 3.1533 -1.9824 0.9843
-1.6329 3.0160 -1.9801 0.9843
-2.5743 2.2454 -1.9722 0.9843
-0.8017 0.5820 -0.5720 0.9954
-0.8118 0.4851 -0.5460 0.9956
-0.8388 0.4044 -0.5376 0.9957
-0.8672 0.2406 -0.5196 0.9959
-0.8787 0.1610 -0.5157 0.9959
-0.8779 0.0023 -0.5069 0.9960
-0.8822 -0.0767 -0.5113 0.9959
-0.8401 -0.3996 -0.5371 0.9957
-2.5859 -2.2318 -1.9721 0.9843
-2.3785 -2.4557 -1.9738 0.9843
-1.3752 -3.1459 -1.9822 0.9843
-0.1889 -3.4453 -1.9922 0.9842
0.1193 -3.4529 -1.9947 0.9842
0.4275 -3.4329 -1.9973 0.9841
0.7329 -3.3854 -1.9999 0.9841
1.3262 -3.2092 -2.0048 0.9841
1.8797 -2.9292 -2.0095 0.9841
2.1359 -2.7528 -2.0116 0.9840
2.7962 -2.0947 -2.0171 0.9840
1.7501 -0.6888 -1.0858 0.9914
1.7341 -0.3448 -1.0208 0.9919
1.7396 0.2826 -1.0175 0.9919
1.7309 0.4427 -1.0315 0.9918
1.7071 0.6033 -1.0453 0.9917
3.1823 1.4557 -2.0204 0.9840
3.0379 1.7328 -2.0192 0.9840
2.8692 1.9955 -2.0178 0.9840
2.2325 2.6769 -2.0124 0.9840
1.7175 3.0245 -2.0081 0.9841
1.4392 3.1620 -2.0058 0.9841
1.1500 3.2739 -2.0034 0.9841
-0.3746 3.4274 -1.9906 0.9842
-1.2640 3.1939 -1.9832 0.9843
-1.8074 2.9118 -1.9786 0.9843
-2.5064 2.3224 -1.9728 0.9843
-0.8064 0.6232 -0.5884 0.9953
-0.8646 0.2681 -0.5226 0.9958
-0.8819 0.1081 -0.5130 0.9959
-0.8815 -0.0500 -0.5098 0.9959
-0.8810 -0.1295 -0.5141 0.9959
-0.8727 -0.2092 -0.5181 0.9959
-0.8620 -0.2901 -0.5251 0.9958
-0.8470 -0.3722 -0.5342 0.9957
-0.8235 -0.4534 -0.5428 0.9957
-2.6510 -2.1525 -1.9716 0.9844
-2.4505 -2.3824 -1.9732 0.9843
-2.2303 -2.5940 -1.9751 0.9843
-1.9920 -2.7854 -1.9771 0.9843
-1.1873 -3.2244 -1.9838 0.9843
-0.8960 -3.3215 -1.9862 0.9842
-0.5969 -3.3925 -1.9887 0.9842
0.0155 -3.4534 -1.9939 0.9842
0.3240 -3.4427 -1.9965 0.9842
0.6306 -3.4045 -1.9990 0.9841
0.9330 -3.3389 -2.0015 0.9841
1.2287 -3.2463 -2.0040 0.9841
1.5152 -3.1275 -2.0064 0.9841
2.0515 -2.8147 -2.0109 0.9840
2.5240 -2.4101 -2.0149 0.9840
2.7313 -2.1772 -2.0166 0.9840
1.7326 -0.3990 -1.0265 0.9918
