ply
format ascii 1.0
element vertex 1619
property float32 x
property float32 y
property float32 z
property float32 I
end_header
1.2217 -13.3429 2.3626 0.9470
-5.8325 9.9712 2.0369 0.9542
0.9879 -13.6340 2.4103 0.9460
1.2214 -13.3394 2.0521 0.9472
-5.8333 9.9726 1.7699 0.9543
0.9859 -13.6056 2.0898 0.9463
1.2210 -13.3360 1.7439 0.9474
6.9546 18.1660 2.5330 0.9245
-5.8341 9.9740 1.5047 0.9545
0.9838 -13.5776 1.7727 0.9466
13.2390 10.0491 2.1644 0.9352
1.2207 -13.3325 1.4377 0.9476
6.9487 18.1505 2.0870 0.9248
-16.4412 9.0803 2.0169 0.9272
13.2269 10.0399 1.7832 0.9354
1.2204 -13.3291 1.1331 0.9477
6.9443 18.1391 1.6442 0.9250
-16.0280 8.8521 1.5500 0.9291
0.9798 -13.5224 1.1477 0.9470
13.2149 10.0308 1.4044 0.9356
-15.7163 9.0732 1.5362 0.9297
-5.8365 9.9781 0.7168 0.9547
-14.9270 10.0831 1.1170 0.9304
-16.0275 8.8518 1.1354 0.9292
0.9779 -13.4951 0.8390 0.9472
13.2029 10.0217 1.0279 0.9357
1.2198 -13.3224 0.5275 0.9479
-5.8373 9.9795 0.4559 0.9548
-16.6166 9.1772 0.7485 0.9268
-16.3191 9.4212 0.7430 0.9273
1.2195 -13.3190 0.2259 0.9479
-5.8381 9.9808 0.1953 0.9548
0.9740 -13.4410 0.2276 0.9475
13.1792 10.0036 0.2795 0.9360
-16.2822 9.3999 0.3176 0.9275
1.2192 -13.3156 -0.0753 0.9479
-5.8389 9.9822 -0.0651 0.9548
13.1673 9.9947 -0.0931 0.9360
16.3021 3.6591 -0.4705 0.9353
-5.8397 9.9835 -0.3257 0.9548
-11.5395 6.3732 -0.3712 0.9486
0.9701 -13.3875 -0.3780 0.9477
16.3036 3.3359 -0.4686 0.9356
13.1555 9.9857 -0.4651 0.9360
-11.4795 6.6272 -0.3732 0.9483
1.2186 -13.3089 -0.6778 0.9479
8.4906 -11.6883 -0.7327 0.9438
19.7975 2.6146 -1.0127 0.9231
0.9681 -13.3609 -0.6794 0.9478
16.1345 3.3013 -0.8352 0.9362
-11.0499 6.3792 -0.6471 0.9502
-18.6609 6.6976 -1.0055 0.9237
19.2980 2.5486 -1.4273 0.9249
11.0679 5.8930 -0.9194 0.9510
9.1667 5.9894 -0.8029 0.9570
11.9032 13.4741 -1.3182 0.9304
5.4984 14.3624 -1.1276 0.9402
-6.7981 14.4486 -1.1708 0.9380
-5.8412 9.9862 -0.8483 0.9547
-12.8375 5.6577 -1.0286 0.9453
0.9662 -13.3343 -0.9803 0.9478
9.5070 5.9575 -0.8226 0.9560
12.3037 13.4060 -1.3342 0.9296
-10.1328 7.1282 -0.9084 0.9515
-10.3999 6.0040 -0.8805 0.9530
-12.2416 5.6748 -0.9893 0.9473
-11.3394 -15.7298 -1.8616 0.9250
-9.8782 -16.6633 -1.8597 0.9251
-6.7389 -18.1153 -1.8556 0.9253
-5.0869 -18.6228 -1.8534 0.9254
-3.3980 -18.9794 -1.8511 0.9254
0.0273 -15.0011 -1.4402 0.9415
1.2179 -13.3021 -1.2824 0.9477
6.7360 -17.9081 -1.8369 0.9260
5.7949 -12.0191 -1.2810 0.9478
9.7926 -16.3830 -1.8324 0.9262
8.4923 -11.6906 -1.3872 0.9436
14.8493 -11.8636 -1.8247 0.9265
10.7988 5.7497 -1.1745 0.9520
11.2999 15.3657 -1.8311 0.9262
9.9111 16.3631 -1.8366 0.9260
8.4327 17.2316 -1.8418 0.9258
5.2384 13.6832 -1.4066 0.9428
3.5850 18.9838 -1.8548 0.9253
1.8774 19.2629 -1.8581 0.9252
-1.5862 19.3428 -1.8632 0.9250
-6.6714 18.2601 -1.8664 0.9249
-13.8733 13.5352 -1.8608 0.9251
-9.6387 6.5108 -1.1167 0.9543
-14.2392 -13.2186 -1.8653 0.9249
-12.9901 -14.4262 -1.8637 0.9250
-11.6381 -15.5151 -1.8620 0.9250
-10.1948 -16.4766 -1.8601 0.9251
-7.0831 -17.9887 -1.8561 0.9253
-5.4407 -18.5277 -1.8539 0.9253
-2.0503 -19.1526 -1.8492 0.9255
0.9643 -13.3077 -1.2810 0.9478
2.0446 -12.5244 -1.2183 0.9503
4.7653 -18.5606 -1.8397 0.9259
6.3968 -18.0375 -1.8374 0.9260
9.4824 -16.5699 -1.8329 0.9262
16.8378 3.4452 -1.6500 0.9333
9.2444 5.7929 -1.0474 0.9571
8.0361 6.0998 -0.9686 0.9603
12.8472 13.9982 -1.8241 0.9265
10.2134 16.1621 -1.8355 0.9261
5.4321 13.4209 -1.3900 0.9435
5.6045 18.4368 -1.8500 0.9255
2.2417 19.2171 -1.8575 0.9252
-0.8523 13.5426 -1.3027 0.9469
-3.7814 8.4493 -0.8887 0.9635
-9.4913 16.9564 -1.8656 0.9249
-10.9609 16.0289 -1.8642 0.9249
-13.6111 13.7930 -1.8604 0.9251
-14.8039 12.5338 -1.8622 0.9250
-9.6218 6.7687 -1.1294 0.9538
-11.6038 -11.1893 -1.9148 0.9371
-10.2527 -11.8299 -1.8595 0.9389
-7.9703 -13.4450 -1.8566 0.9390
-6.7310 -14.0912 -1.8550 0.9390
-5.4397 -14.6228 -1.8533 0.9391
-4.1071 -15.0359 -1.8515 0.9391
-2.7442 -15.3275 -1.8496 0.9392
-1.3620 -15.4955 -1.8477 0.9393
0.0228 -12.5737 -1.4936 0.9506
1.1497 -12.5566 -1.4978 0.9505
2.2921 -12.5394 -1.5142 0.9499
4.1360 -14.9280 -1.8400 0.9395
5.7762 -11.9802 -1.5798 0.9478
7.9237 -13.2564 -1.8345 0.9397
11.7145 -11.2142 -1.9263 0.9368
13.8854 -9.1889 -1.9779 0.9351
15.2815 -6.5625 -1.9755 0.9352
16.1918 -3.7340 -1.9738 0.9353
16.5896 -0.7914 -1.9729 0.9353
16.2043 3.6372 -1.9727 0.9353
10.8082 5.7547 -1.4545 0.9519
7.9213 6.2530 -1.1988 0.9602
6.7796 13.8535 -1.8321 0.9398
5.5255 14.4330 -1.8358 0.9396
1.5067 15.4591 -1.8450 0.9394
0.1193 15.5510 -1.8473 0.9393
-5.0989 10.8371 -1.4227 0.9529
-6.3954 8.9820 -1.3098 0.9566
-10.1633 11.8664 -1.8559 0.9390
-11.1926 10.9199 -1.8575 0.9390
-12.1332 9.8836 -1.8589 0.9389
-9.5510 6.4516 -1.3691 0.9546
-16.0900 5.4326 -2.0173 0.9339
-16.9705 0.9710 -2.0192 0.9338
-15.0692 -7.8409 -2.0178 0.9339
-13.4199 -10.3885 -2.0159 0.9339
-12.0406 -11.1775 -1.9515 0.9360
-10.4768 -11.6351 -1.8598 0.9389
-8.2254 -13.2937 -1.8569 0.9390
-6.9984 -13.9635 -1.8553 0.9390
-3.0351 -15.2759 -1.8500 0.9392
-0.2666 -15.5402 -1.8462 0.9393
3.8529 -15.0070 -1.8404 0.9395
6.4498 -14.0528 -1.8367 0.9396
7.6724 -13.4070 -1.8349 0.9397
8.8316 -12.6558 -1.8332 0.9397
11.2848 -11.2207 -1.8903 0.9379
14.4911 -8.1836 -1.9769 0.9352
15.1559 -6.8519 -1.9757 0.9352
15.7000 -5.4674 -1.9748 0.9352
16.1193 -4.0408 -1.9740 0.9353
16.4107 -2.5832 -1.9734 0.9353
15.4233 6.1746 -1.9734 0.9353
11.3072 5.7478 -1.5067 0.9502
9.1610 5.7407 -1.2842 0.9574
7.9701 6.0497 -1.1886 0.9605
5.5019 13.5933 -1.7419 0.9426
3.1656 15.1779 -1.8417 0.9395
1.7992 15.4233 -1.8445 0.9394
0.4141 15.5422 -1.8469 0.9393
-0.9775 15.5332 -1.8488 0.9392
-2.3637 15.3959 -1.8502 0.9392
-3.7321 15.1308 -1.8512 0.9392
-5.0706 14.7404 -1.8516 0.9391
-3.7792 8.4445 -1.0990 0.9634
-7.6156 13.6055 -1.8521 0.9391
-6.1250 8.9571 -1.2889 0.9572
-10.9815 11.1283 -1.8571 0.9390
-9.5201 6.6972 -1.3826 0.9542
-12.1167 5.6169 -1.5864 0.9476
-16.7610 2.8015 -2.0186 0.9338
-16.9986 -0.2272 -2.0194 0.9338
-16.6867 -3.2497 -2.0194 0.9338
-16.3273 -4.7273 -2.0191 0.9338
-15.8358 -6.1661 -2.0186 0.9338
-14.4745 -8.8803 -2.0172 0.9339
-9.2920 -10.7214 -2.0102 0.9443
-8.0876 -11.2191 -1.9596 0.9457
-6.6743 -11.2588 -1.8545 0.9485
-5.6373 -11.8016 -1.8531 0.9485
-4.5565 -12.2487 -1.8517 0.9486
-3.4408 -12.5967 -1.8502 0.9486
-2.2994 -12.8430 -1.8487 0.9487
-1.1414 -12.9860 -1.8471 0.9487
1.1389 -12.4389 -1.7698 0.9508
2.2706 -12.4217 -1.7892 0.9503
5.6321 -11.6815 -1.8375 0.9490
9.2116 -10.5510 -1.9845 0.9450
10.1106 -9.6788 -1.9832 0.9450
10.9281 -8.7309 -1.9819 0.9451
12.8323 -5.5107 -1.9788 0.9451
13.9338 -0.6647 -1.9765 0.9452
13.9361 0.5831 -1.9763 0.9452
13.8280 1.8262 -1.9763 0.9452
13.2846 4.2596 -1.9767 0.9452
8.5522 9.6808 -1.8302 0.9492
7.6575 10.4128 -1.8314 0.9491
6.7008 11.0629 -1.8326 0.9491
3.5344 12.4724 -1.8368 0.9490
1.2596 12.9241 -1.8399 0.9489
0.0997 12.9962 -1.8415 0.9488
-2.2195 12.8289 -1.8447 0.9488
-3.3600 12.5903 -1.8463 0.9487
-4.4757 12.2502 -1.8479 0.9487
-3.9052 8.2999 -1.2997 0.9636
-8.5112 9.9375 -1.8539 0.9485
-9.4769 6.4016 -1.6204 0.9548
-10.1473 5.6042 -1.6425 0.9542
-13.0002 5.7294 -2.0129 0.9442
-14.0684 2.0780 -2.0150 0.9442
-14.2004 0.8125 -2.0153 0.9442
-14.2177 -0.4599 -2.0155 0.9442
-13.9083 -2.9835 -2.0155 0.9442
-13.5843 -4.2140 -2.0152 0.9442
-13.1505 -5.4100 -2.0148 0.9442
-12.6108 -6.5618 -2.0142 0.9442
-11.2323 -8.6951 -2.0126 0.9442
-10.4051 -9.6593 -2.0116 0.9443
-9.4949 -10.5446 -2.0105 0.9443
-8.4102 -11.2119 -1.9859 0.9450
-5.8611 -11.6944 -1.8534 0.9485
-4.7888 -12.1621 -1.8520 0.9486
-2.5431 -12.7994 -1.8490 0.9486
-1.3878 -12.9644 -1.8474 0.9487
-0.2235 -13.0252 -1.8458 0.9487
2.0285 -12.4254 -1.7839 0.9504
3.2310 -12.5847 -1.8409 0.9489
5.4105 -11.7883 -1.8378 0.9489
6.4371 -11.2484 -1.8363 0.9490
7.8231 -11.2106 -1.9369 0.9463
9.9266 -9.8703 -1.9834 0.9450
10.7620 -8.9378 -1.9822 0.9451
12.1673 -6.8713 -1.9799 0.9451
13.7830 -2.1696 -1.9770 0.9452
13.9191 -0.9290 -1.9766 0.9452
13.6655 2.7961 -1.9764 0.9452
11.5005 5.8461 -1.8280 0.9492
9.1812 5.7533 -1.5352 0.9572
7.9500 6.0345 -1.4142 0.9605
5.9080 11.5140 -1.8336 0.9491
1.5043 12.8955 -1.8395 0.9489
0.3461 12.9896 -1.8411 0.9489
-1.9753 12.8663 -1.8444 0.9488
-3.7158 8.3028 -1.2889 0.9639
-6.1414 8.9811 -1.5416 0.9570
-9.1954 9.3183 -1.8549 0.9485
-9.4988 6.6822 -1.6455 0.9542
-12.8879 5.9744 -2.0127 0.9442
-13.3759 4.8008 -2.0136 0.9442
-14.0257 2.3444 -2.0149 0.9442
-14.1503 -1.4605 -2.0156 0.9441
-13.9627 -2.7192 -2.0155 0.9442
-13.6622 -3.9557 -2.0153 0.9442
-13.2515 -5.1598 -2.0149 0.9442
-12.1137 -7.4319 -2.0137 0.9442
-11.3964 -8.4813 -2.0128 0.9442
-10.5876 -9.4612 -2.0119 0.9443
-7.9837 -9.2120 -2.0082 0.9518
-7.1247 -9.8832 -2.0071 0.9518
-5.2367 -10.9630 -2.0015 0.9519
-4.1776 -11.2301 -1.9739 0.9526
-0.9882 -11.2426 -1.8592 0.9553
0.0204 -11.2370 -1.8512 0.9555
1.0281 -11.2285 -1.8575 0.9553
3.1067 -11.2128 -1.9168 0.9539
5.2411 -10.8705 -1.9881 0.9523
7.9289 -9.0819 -1.9861 0.9523
10.0373 -6.6423 -1.9828 0.9524
11.0500 -4.7453 -1.9811 0.9524
12.0004 -0.5725 -1.9792 0.9525
11.9095 1.5728 -1.9790 0.9525
11.7219 2.6310 -1.9791 0.9525
11.0696 4.6772 -1.9797 0.9525
8.8443 5.7787 -1.7404 0.9581
8.1588 7.7194 -1.8503 0.9555
7.3630 8.3347 -1.8321 0.9559
6.5922 8.9641 -1.8331 0.9559
2.0715 10.9695 -1.8390 0.9558
0.0857 11.1796 -1.8418 0.9557
-0.9144 11.1509 -1.8432 0.9557
-3.8482 10.5327 -1.8473 0.9556
-5.2058 8.8998 -1.6985 0.9591
-7.3146 8.5404 -1.8524 0.9554
-8.0536 7.8573 -1.8536 0.9554
-10.1229 5.5908 -1.9051 0.9542
-11.8732 2.8570 -2.0118 0.9517
-12.2114 -0.3950 -2.0128 0.9517
-12.1276 -1.4848 -2.0128 0.9517
-11.2955 -4.6469 -2.0121 0.9517
-10.8323 -5.6363 -2.0116 0.9517
-9.6493 -7.4696 -2.0103 0.9517
-8.9393 -8.2985 -2.0094 0.9518
-7.3117 -9.7475 -2.0073 0.9518
-6.4076 -10.3559 -2.0062 0.9518
-5.4487 -10.8716 -2.0033 0.9519
-4.4210 -11.2277 -1.9879 0.9523
-2.2331 -11.2392 -1.8877 0.9546
-1.2031 -11.2386 -1.8620 0.9552
0.8137 -11.2298 -1.8548 0.9554
2.8793 -11.2148 -1.9074 0.9541
3.9737 -11.2051 -1.9586 0.9529
5.9968 -10.4790 -1.9890 0.9522
7.7563 -9.2318 -1.9864 0.9523
9.2650 -7.6946 -1.9840 0.9523
10.4765 -5.9165 -1.9821 0.9524
10.9589 -4.9545 -1.9813 0.9524
12.0101 0.2744 -1.9790 0.9525
11.1558 4.4662 -1.9796 0.9525
10.7146 5.4466 -1.9801 0.9524
10.1880 6.3842 -1.9807 0.9524
7.9710 6.0504 -1.6486 0.9602
6.7603 8.8364 -1.8329 0.9559
5.0852 9.9105 -1.8350 0.9558
2.2789 10.9266 -1.8388 0.9558
0.2977 11.1742 -1.8415 0.9557
-1.6989 11.0654 -1.8443 0.9556
-2.6830 10.8775 -1.8457 0.9556
-3.6471 10.6021 -1.8470 0.9556
-7.9020 8.0076 -1.8533 0.9554
-9.9720 7.0151 -2.0085 0.9518
-11.4900 4.1239 -2.0111 0.9517
-11.8162 3.0815 -2.0117 0.9517
-12.2166 -0.1633 -2.0127 0.9517
-12.1535 -1.2544 -2.0128 0.9517
-11.7346 -3.3976 -2.0125 0.9517
-10.9379 -5.4302 -2.0117 0.9517
-10.4058 -6.3841 -2.0111 0.9517
-9.7901 -7.2859 -2.0104 0.9517
-7.6884 -7.4137 -2.0075 0.9575
-6.2401 -8.6561 -2.0057 0.9575
-3.7143 -9.9848 -2.0024 0.9576
-1.8752 -10.4735 -1.9999 0.9576
-0.9310 -10.5923 -1.9986 0.9576
0.9682 -10.5749 -1.9960 0.9577
3.7312 -9.9197 -1.9921 0.9578
5.4308 -9.0857 -1.9896 0.9578
6.2174 -8.5589 -1.9884 0.9579
6.9535 -7.9646 -1.9873 0.9579
7.6335 -7.3074 -1.9862 0.9579
9.2860 -5.0142 -1.9836 0.9580
10.2743 -2.3694 -1.9818 0.9580
10.4430 -1.4414 -1.9815 0.9580
10.5306 0.4406 -1.9811 0.9580
10.4490 1.3800 -1.9810 0.9580
9.7117 4.1034 -1.9817 0.9580
7.6671 7.2541 -1.9839 0.9580
6.8071 7.7054 -1.9325 0.9590
5.7818 7.8622 -1.8344 0.9611
5.0586 8.3517 -1.8353 0.9610
3.4949 9.1290 -1.8373 0.9610
2.6667 9.4105 -1.8385 0.9610
1.8161 9.6172 -1.8396 0.9609
0.9500 9.7473 -1.8408 0.9609
0.0751 9.7996 -1.8420 0.9609
-0.8015 9.7735 -1.8432 0.9609
-1.6728 9.6692 -1.8444 0.9608
-3.3719 9.2291 -1.8469 0.9608
-3.8884 8.2643 -1.7167 0.9635
-5.7097 8.0189 -1.8503 0.9607
-6.5953 7.7005 -1.9057 0.9596
-8.2755 6.7412 -2.0062 0.9575
-9.3514 5.1647 -2.0080 0.9575
-9.7791 4.3098 -2.0087 0.9574
-10.6915 -0.3458 -2.0106 0.9574
-10.4590 -2.2436 -2.0106 0.9574
-10.2156 -3.1690 -2.0104 0.9574
-9.8899 -4.0686 -2.0101 0.9574
-9.0033 -5.7615 -2.0091 0.9574
-8.4496 -6.5409 -2.0085 0.9574
-7.8283 -7.2672 -2.0077 0.9575
-7.1445 -7.9343 -2.0068 0.9575
-6.4038 -8.5371 -2.0059 0.9575
-4.7767 -9.5307 -2.0038 0.9575
-3.9036 -9.9137 -2.0026 0.9576
-3.0001 -10.2168 -2.0014 0.9576
-2.0738 -10.4375 -2.0002 0.9576
-1.1320 -10.5742 -1.9989 0.9576
-0.1823 -10.6261 -1.9976 0.9577
1.7100 -10.4749 -1.9949 0.9577
2.6376 -10.2734 -1.9936 0.9577
4.4187 -9.6273 -1.9911 0.9578
6.0546 -8.6764 -1.9886 0.9579
6.8020 -8.0960 -1.9875 0.9579
8.1263 -6.7488 -1.9855 0.9579
9.6136 -4.3463 -1.9831 0.9580
9.9605 -3.4686 -1.9824 0.9580
10.2280 -2.5639 -1.9819 0.9580
10.4141 -1.6393 -1.9815 0.9580
10.5174 -0.7019 -1.9813 0.9580
10.4732 1.1815 -1.9810 0.9580
9.4000 4.7783 -1.9820 0.9580
8.9377 5.6007 -1.9825 0.9580
8.4040 6.3791 -1.9831 0.9580
7.0662 7.6993 -1.9643 0.9584
5.2156 8.2533 -1.8351 0.9610
4.4595 8.6910 -1.8361 0.9610
3.6670 9.0600 -1.8371 0.9610
1.9980 9.5797 -1.8394 0.9610
1.1346 9.7261 -1.8405 0.9609
-0.6158 9.7856 -1.8430 0.9609
-1.4889 9.6979 -1.8442 0.9609
-2.3512 9.5323 -1.8454 0.9608
-3.6911 8.2476 -1.6984 0.9639
-5.5559 8.1248 -1.8501 0.9607
-6.3498 7.7050 -1.8767 0.9602
-8.1453 6.8962 -2.0060 0.9575
-9.2510 5.3407 -2.0078 0.9575
-9.6949 4.4943 -2.0085 0.9574
-10.0609 3.6110 -2.0092 0.9574
-10.5481 1.7631 -2.0101 0.9574
-10.6650 0.8135 -2.0104 0.9574
-10.6408 -1.0983 -2.0107 0.9574
-10.4998 -2.0448 -2.0106 0.9574
-10.2741 -2.9747 -2.0105 0.9574
-9.5771 -4.7546 -2.0097 0.9574
-9.1115 -5.5900 -2.0092 0.9574
-8.5728 -6.3799 -2.0086 0.9574
-6.8321 -6.5880 -2.0062 0.9619
-5.5456 -7.6928 -2.0046 0.9620
-3.3016 -8.8753 -2.0017 0.9620
-1.6670 -9.3110 -1.9995 0.9621
0.0172 -9.4481 -1.9971 0.9621
4.0914 -8.4858 -1.9913 0.9622
4.8308 -8.0818 -1.9903 0.9622
5.5308 -7.6138 -1.9892 0.9623
7.3420 -5.8658 -1.9864 0.9623
7.8338 -5.1841 -1.9857 0.9623
8.2628 -4.4617 -1.9850 0.9623
8.6258 -3.7043 -1.9843 0.9623
9.1430 -2.1085 -1.9834 0.9624
9.2933 -1.2827 -1.9830 0.9624
8.9329 2.8643 -1.9829 0.9624
8.6424 3.6517 -1.9832 0.9624
8.2831 4.4103 -1.9836 0.9624
7.8577 5.1341 -1.9841 0.9624
7.3696 5.8175 -1.9847 0.9623
6.8225 6.4550 -1.9853 0.9623
6.2207 7.0416 -1.9861 0.9623
4.6713 7.7123 -1.9059 0.9638
3.8202 7.8063 -1.8371 0.9651
3.1089 8.1206 -1.8380 0.9651
2.3720 8.3705 -1.8390 0.9651
1.6153 8.5537 -1.8400 0.9650
0.0668 8.7147 -1.8422 0.9650
-1.4874 8.5975 -1.8443 0.9650
-2.2511 8.4351 -1.8454 0.9649
-2.9977 8.2050 -1.8465 0.9649
-3.7211 7.9087 -1.8475 0.9649
-4.5021 7.6969 -1.8849 0.9642
-5.4686 7.6803 -1.9930 0.9622
-6.7865 6.6212 -2.0042 0.9620
-7.3544 5.9908 -2.0051 0.9620
-7.8635 5.3117 -2.0059 0.9619
-8.3097 4.5894 -2.0066 0.9619
-8.9993 3.0385 -2.0078 0.9619
-9.4991 -0.3073 -2.0090 0.9619
-9.2925 -1.9934 -2.0089 0.9619
-8.7872 -3.6150 -2.0085 0.9619
-7.9998 -5.1194 -2.0076 0.9619
-5.6911 -7.5870 -2.0048 0.9620
-4.9880 -8.0616 -2.0039 0.9620
-4.2456 -8.4710 -2.0029 0.9620
-2.6669 -9.0820 -2.0008 0.9620
-1.0064 -9.4011 -1.9985 0.9621
-0.1621 -9.4479 -1.9974 0.9621
1.5207 -9.3148 -1.9950 0.9621
3.1509 -8.8850 -1.9927 0.9622
3.9301 -8.5629 -1.9916 0.9622
4.6771 -8.1729 -1.9905 0.9622
6.0511 -7.2023 -1.9884 0.9623
6.6674 -6.6296 -1.9875 0.9623
8.1773 -4.6180 -1.9851 0.9623
8.8635 -3.0866 -1.9839 0.9624
9.3597 -0.6247 -1.9829 0.9624
9.1895 1.8803 -1.9827 0.9624
8.3649 4.2522 -1.9835 0.9624
7.9533 4.9839 -1.9840 0.9624
7.4782 5.6763 -1.9845 0.9623
6.9432 6.3240 -1.9852 0.9623
5.7010 7.4519 -1.9833 0.9624
4.8710 7.7081 -1.9274 0.9634
3.2620 8.0593 -1.8378 0.9651
2.5300 8.3230 -1.8388 0.9651
1.0091 8.6501 -1.8409 0.9650
-0.5476 8.7018 -1.8430 0.9650
-6.0226 7.3080 -2.0017 0.9620
-6.6591 6.7481 -2.0040 0.9620
-7.2387 6.1287 -2.0049 0.9620
-7.7607 5.4595 -2.0057 0.9619
-8.9396 3.2085 -2.0077 0.9619
-9.5032 -0.1270 -2.0090 0.9619
-9.3288 -1.8168 -2.0090 0.9619
-7.0781 -6.3251 -2.0065 0.9619
-6.1415 -5.9221 -2.0052 0.9656
-5.5858 -6.4451 -2.0045 0.9656
-2.2424 -8.2094 -2.0001 0.9656
-1.4990 -8.3727 -1.9991 0.9657
1.5262 -8.3497 -1.9949 0.9657
2.2651 -8.1755 -1.9938 0.9657
2.9852 -7.9363 -1.9928 0.9658
4.3460 -7.2708 -1.9908 0.9658
5.5658 -6.3751 -1.9890 0.9658
7.7625 -3.3335 -1.9855 0.9659
8.3638 -1.1544 -1.9843 0.9659
8.4326 -0.4023 -1.9841 0.9659
8.4343 0.3529 -1.9840 0.9659
8.0395 2.5778 -1.9842 0.9659
7.7779 3.2864 -1.9845 0.9659
6.6319 5.2352 -1.9858 0.9659
6.1394 5.8087 -1.9864 0.9659
5.5976 6.3363 -1.9870 0.9659
5.0108 6.8137 -1.9878 0.9658
-2.8093 7.6893 -1.9240 0.9669
-3.6086 7.6695 -1.9921 0.9658
-4.2938 7.3406 -1.9987 0.9657
-4.9397 6.9376 -2.0016 0.9656
-5.5425 6.4713 -2.0025 0.9656
-6.6114 5.3856 -2.0041 0.9656
-7.0688 4.7749 -2.0049 0.9656
-7.4697 4.1255 -2.0055 0.9655
-8.0891 2.7312 -2.0066 0.9655
-8.3025 1.9978 -2.0070 0.9655
-8.4791 -1.0381 -2.0077 0.9655
-8.1580 -2.5307 -2.0074 0.9655
-7.8982 -3.2493 -2.0072 0.9655
-7.1908 -4.6016 -2.0064 0.9655
-6.2532 -5.8050 -2.0053 0.9655
-5.1163 -6.8206 -2.0039 0.9656
-4.4844 -7.2476 -2.0031 0.9656
-1.6578 -8.3437 -1.9993 0.9656
-0.1458 -8.4967 -1.9972 0.9657
1.3677 -8.3781 -1.9951 0.9657
2.1099 -8.2180 -1.9940 0.9657
3.5355 -7.7031 -1.9920 0.9658
4.2077 -7.3527 -1.9910 0.9658
5.9992 -5.9651 -1.9883 0.9658
6.9600 -4.7982 -1.9868 0.9659
7.3586 -4.1556 -1.9862 0.9659
8.3406 -1.3129 -1.9844 0.9659
8.4236 -0.5622 -1.9841 0.9659
8.4396 0.1929 -1.9840 0.9659
8.0868 2.4248 -1.9842 0.9659
7.1574 4.4852 -1.9852 0.9659
6.7297 5.1082 -1.9857 0.9659
5.7164 6.2285 -1.9869 0.9659
5.1387 6.7169 -1.9876 0.9658
2.3452 7.7150 -1.8951 0.9674
0.9077 7.7811 -1.8411 0.9683
0.2088 7.8369 -1.8425 0.9683
-1.1907 7.7554 -1.8441 0.9683
-2.6461 7.6924 -1.9119 0.9671
-5.4182 6.5746 -2.0023 0.9656
-5.9867 6.0667 -2.0032 0.9656
-6.5075 5.5096 -2.0040 0.9656
-6.9765 4.9078 -2.0047 0.9656
-7.3896 4.2661 -2.0054 0.9655
-7.7436 3.5897 -2.0060 0.9655
-8.4237 1.4080 -2.0072 0.9655
-8.5169 0.6496 -2.0075 0.9655
-8.4973 -0.8771 -2.0077 0.9655
-8.3847 -1.6329 -2.0076 0.9655
-7.9586 -3.0989 -2.0073 0.9655
-7.6486 -3.7972 -2.0069 0.9655
-6.8473 -5.0958 -2.0060 0.9655
-4.5238 -6.2753 -2.0030 0.9685
-0.6756 -7.6865 -1.9978 0.9686
2.0563 -7.4217 -1.9940 0.9687
3.3416 -6.9306 -1.9921 0.9687
3.9458 -6.6013 -1.9913 0.9687
4.5180 -6.2196 -1.9904 0.9687
5.0538 -5.7886 -1.9896 0.9687
5.9991 -4.7929 -1.9881 0.9688
7.0495 -3.0273 -1.9864 0.9688
7.2902 -2.3847 -1.9860 0.9688
7.4729 -1.7233 -1.9856 0.9688
7.5959 -1.0484 -1.9854 0.9688
7.6585 -0.3654 -1.9852 0.9688
7.6007 1.0038 -1.9851 0.9688
7.4809 1.6791 -1.9851 0.9688
7.3014 2.3411 -1.9853 0.9688
7.0638 2.9847 -1.9855 0.9688
6.7699 3.6046 -1.9858 0.9688
6.4219 4.1960 -1.9862 0.9688
6.0227 4.7543 -1.9867 0.9688
5.5752 5.2749 -1.9872 0.9688
5.0831 5.7538 -1.9878 0.9688
3.9804 6.5715 -1.9893 0.9688
2.7491 7.1810 -1.9909 0.9687
2.0947 7.3921 -1.9893 0.9688
1.4245 7.5434 -1.9876 0.9688
-0.6277 7.6541 -1.9884 0.9688
-1.9856 7.4403 -1.9939 0.9687
-4.4827 6.2956 -2.0010 0.9686
-6.4138 4.3325 -2.0040 0.9685
-6.7773 3.7430 -2.0046 0.9685
-7.0865 3.1232 -2.0051 0.9685
-7.3389 2.4779 -2.0056 0.9685
-7.5324 1.8125 -2.0059 0.9685
-7.6653 1.1322 -2.0062 0.9685
-7.4011 -2.2959 -2.0064 0.9685
-7.1655 -2.9478 -2.0061 0.9685
-6.8723 -3.5758 -2.0058 0.9685
-6.5239 -4.1749 -2.0054 0.9685
-5.1786 -5.7511 -2.0038 0.9685
-3.4638 -6.9112 -2.0016 0.9686
-2.1763 -7.4111 -1.9999 0.9686
-1.5045 -7.5724 -1.9990 0.9686
-0.1323 -7.7121 -1.9971 0.9686
3.8202 -6.6756 -1.9914 0.9687
4.3996 -6.3048 -1.9906 0.9687
4.9435 -5.8839 -1.9898 0.9687
5.9076 -4.9062 -1.9883 0.9688
6.3203 -4.3572 -1.9876 0.9688
6.6824 -3.7738 -1.9870 0.9688
7.2440 -2.5227 -1.9861 0.9688
7.5749 -1.1924 -1.9854 0.9688
7.6503 -0.5106 -1.9852 0.9688
7.6649 0.1752 -1.9851 0.9688
7.6184 0.8594 -1.9851 0.9688
7.3444 2.2021 -1.9852 0.9688
7.1190 2.8500 -1.9855 0.9688
6.8368 3.4754 -1.9857 0.9688
6.5001 4.0732 -1.9861 0.9688
6.1115 4.6389 -1.9866 0.9688
5.6739 5.1679 -1.9871 0.9688
5.1909 5.6560 -1.9877 0.9688
4.6662 6.0993 -1.9884 0.9688
2.8846 7.1269 -1.9907 0.9687
2.2351 7.3528 -1.9898 0.9687
1.5676 7.5160 -1.9879 0.9688
0.2044 7.6717 -1.9870 0.9688
-0.4823 7.6633 -1.9881 0.9688
-1.1664 7.5972 -1.9901 0.9687
-1.8434 7.4738 -1.9931 0.9687
-2.5090 7.2936 -1.9971 0.9686
-3.7729 6.7403 -2.0000 0.9686
-5.9047 4.9993 -2.0032 0.9685
-6.3300 4.4531 -2.0039 0.9685
-6.7047 3.8707 -2.0045 0.9685
-7.2903 2.6166 -2.0055 0.9685
-7.4964 1.9550 -2.0059 0.9685
-7.6423 1.2774 -2.0062 0.9685
-7.7489 -0.1036 -2.0065 0.9685
-7.7089 -0.7957 -2.0066 0.9685
-7.4435 -2.1551 -2.0064 0.9685
-7.2203 -2.8114 -2.0062 0.9685
-6.6023 -4.0506 -2.0055 0.9685
-6.2124 -4.6233 -2.0051 0.9685
-5.7729 -5.1587 -2.0045 0.9685
-5.0946 -4.9126 -2.0036 0.9710
-4.6339 -5.3467 -2.0030 0.9710
-4.1362 -5.7377 -2.0023 0.9710
-3.6056 -6.0823 -2.0017 0.9710
-1.8610 -6.8129 -1.9993 0.9711
-1.2441 -6.9491 -1.9985 0.9711
-0.6179 -7.0294 -1.9977 0.9711
1.8808 -6.7884 -1.9942 0.9711
3.0567 -6.3398 -1.9925 0.9712
3.6096 -6.0388 -1.9916 0.9712
4.6234 -5.2957 -1.9901 0.9712
6.1781 -3.3360 -1.9877 0.9712
6.4501 -2.7699 -1.9872 0.9712
6.6705 -2.1820 -1.9868 0.9712
6.8377 -1.5768 -1.9865 0.9712
6.9504 -0.9593 -1.9863 0.9713
5.8759 3.8392 -1.9870 0.9712
4.1628 5.6606 -1.9891 0.9712
3.0907 6.3156 -1.9905 0.9712
2.5149 6.5691 -1.9913 0.9712
0.0540 7.0456 -1.9946 0.9711
-0.5761 7.0254 -1.9955 0.9711
-2.4221 6.6296 -1.9981 0.9711
-3.0062 6.3893 -1.9990 0.9711
-3.5666 6.0976 -1.9998 0.9711
-4.0989 5.7567 -2.0006 0.9710
-5.0620 4.9386 -2.0020 0.9710
-5.8640 3.9611 -2.0033 0.9710
-6.1962 3.4221 -2.0038 0.9710
-6.4788 2.8553 -2.0043 0.9710
-6.8861 1.6570 -2.0051 0.9710
-7.0076 1.0351 -2.0053 0.9710
-7.0727 0.4047 -2.0055 0.9710
-7.0809 -0.2290 -2.0056 0.9710
-5.5982 -4.3336 -2.0042 0.9710
-5.1872 -4.8154 -2.0037 0.9710
-4.7348 -5.2582 -2.0031 0.9710
-4.2446 -5.6586 -2.0025 0.9710
-3.1672 -6.3194 -2.0011 0.9710
-1.9901 -6.7770 -1.9995 0.9711
-1.3759 -6.9248 -1.9987 0.9711
-0.7512 -7.0171 -1.9978 0.9711
1.1355 -6.9558 -1.9952 0.9711
1.7519 -6.8235 -1.9943 0.9711
2.3537 -6.6368 -1.9935 0.9712
2.9361 -6.3972 -1.9926 0.9712
3.4946 -6.1067 -1.9918 0.9712
4.0248 -5.7676 -1.9910 0.9712
6.6281 -2.3082 -1.9869 0.9712
6.9311 -1.0910 -1.9863 0.9713
7.0002 -0.4672 -1.9861 0.9713
7.0135 0.1603 -1.9860 0.9713
6.9710 0.7864 -1.9860 0.9713
6.5139 2.6078 -1.9863 0.9713
5.9474 3.7269 -1.9869 0.9712
5.1913 4.7283 -1.9878 0.9712
4.7493 5.1748 -1.9884 0.9712
4.2691 5.5802 -1.9890 0.9712
3.7546 5.9414 -1.9897 0.9712
3.2097 6.2554 -1.9904 0.9712
2.6388 6.5197 -1.9911 0.9712
2.0464 6.7321 -1.9919 0.9712
-0.4427 7.0344 -1.9953 0.9711
-1.0701 6.9697 -1.9962 0.9711
-2.2957 6.6737 -1.9979 0.9711
-2.8842 6.4446 -1.9988 0.9711
-3.4500 6.1636 -1.9996 0.9711
-4.9670 5.0334 -2.0019 0.9710
-5.7874 4.0714 -2.0032 0.9710
-6.1298 3.5388 -2.0037 0.9710
-6.4231 2.9776 -2.0042 0.9710
-6.8533 1.7872 -2.0050 0.9710
-6.9865 1.1678 -2.0053 0.9710
-7.0636 0.5388 -2.0055 0.9710
-7.0839 -0.0947 -2.0056 0.9710
-7.0473 -0.7274 -2.0056 0.9710
-6.9540 -1.3543 -2.0056 0.9710
-6.8047 -1.9702 -2.0055 0.9710
-6.6008 -2.5702 -2.0053 0.9710
-6.3438 -3.1494 -2.0050 0.9710
-6.0359 -3.7031 -2.0047 0.9710
-3.8059 -5.2795 -2.0018 0.9731
-3.3178 -5.5968 -2.0012 0.9731
-2.8034 -5.8689 -2.0005 0.9731
-1.7126 -6.2697 -1.9991 0.9732
-1.1450 -6.3952 -1.9983 0.9732
-0.5686 -6.4694 -1.9975 0.9732
0.5917 -6.4620 -1.9959 0.9732
2.2818 -6.0663 -1.9935 0.9732
5.3922 -3.5684 -1.9888 0.9733
5.6881 -3.0715 -1.9883 0.9733
5.9386 -2.5503 -1.9879 0.9733
6.1416 -2.0090 -1.9875 0.9733
6.4523 -0.3078 -1.9868 0.9733
6.4537 0.2700 -1.9868 0.9733
6.1514 1.9724 -1.9869 0.9733
5.9511 2.5145 -1.9871 0.9733
5.4100 3.5348 -1.9877 0.9733
5.0735 4.0050 -1.9881 0.9733
3.3524 5.5347 -1.9903 0.9733
1.2025 6.3675 -1.9931 0.9732
0.6288 6.4521 -1.9939 0.9732
0.0497 6.4850 -1.9947 0.9732
-0.5302 6.4662 -1.9955 0.9732
-1.1065 6.3955 -1.9963 0.9732
-1.6743 6.2736 -1.9971 0.9732
-2.2291 6.1012 -1.9979 0.9732
-2.7665 5.8799 -1.9987 0.9732
-3.2822 5.6113 -1.9995 0.9732
-3.7719 5.2974 -2.0002 0.9732
-4.6578 4.5443 -2.0015 0.9731
-5.0468 4.1111 -2.0021 0.9731
-5.3955 3.6447 -2.0027 0.9731
-6.1731 2.0843 -2.0040 0.9731
-6.3356 1.5245 -2.0043 0.9731
-6.4473 0.9523 -2.0046 0.9731
-6.5071 0.3723 -2.0047 0.9731
-6.3730 -1.3671 -2.0048 0.9731
-6.0269 -2.4794 -2.0045 0.9731
-5.7804 -3.0077 -2.0042 0.9731
-4.7727 -4.4306 -2.0030 0.9731
-4.3566 -4.8382 -2.0025 0.9731
-3.9056 -5.2067 -2.0019 0.9731
-3.4236 -5.5332 -2.0013 0.9731
-2.9145 -5.8151 -2.0007 0.9731
-0.6913 -6.4579 -1.9977 0.9732
-0.1114 -6.4913 -1.9969 0.9732
0.4690 -6.4726 -1.9961 0.9732
1.6125 -6.2807 -1.9944 0.9732
3.2170 -5.6214 -1.9921 0.9733
5.6291 -3.1790 -1.9884 0.9733
6.1026 -2.1252 -1.9876 0.9733
6.2672 -1.5710 -1.9873 0.9733
6.3817 -1.0046 -1.9870 0.9733
6.4454 -0.4302 -1.9869 0.9733
6.3283 1.2948 -1.9868 0.9733
6.1876 1.8553 -1.9869 0.9733
5.9976 2.4011 -1.9871 0.9733
5.7597 2.9279 -1.9873 0.9733
5.4759 3.4315 -1.9876 0.9733
4.7796 4.3533 -1.9885 0.9733
3.9303 5.1374 -1.9895 0.9733
3.4565 5.4697 -1.9901 0.9733
0.7511 6.4384 -1.9938 0.9732
0.1727 6.4824 -1.9945 0.9732
-0.9848 6.4148 -1.9962 0.9732
-2.1128 6.1419 -1.9978 0.9732
-3.1749 5.6721 -1.9993 0.9732
-3.6705 5.3676 -2.0000 0.9732
-4.1369 5.0198 -2.0007 0.9731
-4.5705 4.6316 -2.0014 0.9731
-4.9676 4.2059 -2.0020 0.9731
-5.9098 2.7396 -2.0035 0.9731
-6.1322 2.2009 -2.0039 0.9731
-6.3054 1.6444 -2.0043 0.9731
-6.4279 1.0744 -2.0045 0.9731
-6.2606 -1.8127 -2.0047 0.9731
-6.0730 -2.3647 -2.0045 0.9731
-5.2257 -3.8890 -2.0036 0.9731
-4.8562 -4.3395 -2.0031 0.9731
-3.9443 -4.5511 -2.0019 0.9749
-2.0973 -5.6378 -1.9995 0.9750
-1.5845 -5.8007 -1.9988 0.9750
0.0109 -6.0066 -1.9966 0.9750
3.5213 -4.8475 -1.9916 0.9751
4.3254 -4.1406 -1.9904 0.9751
4.6768 -3.7365 -1.9898 0.9751
4.9908 -3.3027 -1.9893 0.9751
5.6847 -1.8595 -1.9881 0.9751
5.9235 -0.8176 -1.9877 0.9751
5.9737 0.2500 -1.9874 0.9751
5.8339 1.3094 -1.9875 0.9751
5.5084 2.3274 -1.9878 0.9751
5.2790 2.8108 -1.9880 0.9751
4.6959 3.7069 -1.9887 0.9751
4.3468 4.1126 -1.9891 0.9751
3.9628 4.4857 -1.9896 0.9751
3.5470 4.8232 -1.9901 0.9751
3.1026 5.1224 -1.9907 0.9751
2.6332 5.3808 -1.9913 0.9751
0.0460 6.0009 -1.9948 0.9750
-0.4906 5.9833 -1.9955 0.9750
-1.0238 5.9177 -1.9963 0.9750
-2.0625 5.6451 -1.9978 0.9750
-2.5596 5.4401 -1.9985 0.9750
-3.0366 5.1914 -1.9992 0.9750
-3.4896 4.9009 -1.9999 0.9750
-4.3090 4.2040 -2.0011 0.9749
-4.6688 3.8032 -2.0017 0.9749
-4.9913 3.3716 -2.0022 0.9749
-5.2738 2.9127 -2.0026 0.9749
-5.5141 2.4302 -2.0030 0.9749
-5.7102 1.9280 -2.0034 0.9749
-5.8605 1.4102 -2.0037 0.9749
-5.9638 0.8809 -2.0039 0.9749
-6.0191 0.3444 -2.0041 0.9749
-5.8950 -1.2646 -2.0041 0.9749
-5.7581 -1.7862 -2.0040 0.9749
-5.3470 -2.7822 -2.0036 0.9749
-5.0762 -3.2484 -2.0033 0.9749
-4.0302 -4.4757 -2.0020 0.9749
-3.6131 -4.8167 -2.0015 0.9749
-2.2040 -5.5974 -1.9996 0.9750
-1.6944 -5.7700 -1.9990 0.9750
-1.1715 -5.8962 -1.9983 0.9750
0.9671 -5.9242 -1.9953 0.9750
2.0048 -5.6532 -1.9938 0.9750
2.9771 -5.2023 -1.9924 0.9751
3.4289 -4.9137 -1.9917 0.9751
4.2463 -4.2222 -1.9905 0.9751
5.2101 -2.9423 -1.9890 0.9751
5.4511 -2.4644 -1.9886 0.9751
5.6486 -1.9671 -1.9882 0.9751
5.9070 -0.9298 -1.9877 0.9751
5.9660 -0.3982 -1.9875 0.9751
5.9774 0.1366 -1.9874 0.9751
5.9412 0.6702 -1.9874 0.9751
5.7274 1.7173 -1.9876 0.9751
5.5514 2.2225 -1.9877 0.9751
5.3312 2.7101 -1.9880 0.9751
5.0685 3.1761 -1.9882 0.9751
4.7652 3.6170 -1.9886 0.9751
3.6376 4.7548 -1.9900 0.9751
3.1990 5.0623 -1.9906 0.9751
2.2481 5.5544 -1.9918 0.9751
1.2243 5.8699 -1.9932 0.9750
0.1598 5.9985 -1.9946 0.9750
-0.9113 5.9356 -1.9961 0.9750
-1.4386 5.8326 -1.9969 0.9750
-2.4558 5.4873 -1.9983 0.9750
-2.9374 5.2477 -1.9990 0.9750
-3.3958 4.9659 -1.9997 0.9750
-3.8272 4.6440 -2.0004 0.9750
-4.5955 3.8908 -2.0016 0.9749
-4.9261 3.4655 -2.0021 0.9749
-5.2174 3.0121 -2.0025 0.9749
-5.4668 2.5343 -2.0030 0.9749
-5.6724 2.0359 -2.0033 0.9749
-5.8326 1.5211 -2.0036 0.9749
-6.0114 0.4585 -2.0040 0.9749
-6.0286 -0.0806 -2.0041 0.9749
-5.7910 -1.6767 -2.0040 0.9749
-5.6176 -2.1874 -2.0039 0.9749
-5.3990 -2.6803 -2.0036 0.9749
-5.1371 -3.1517 -2.0033 0.9749
-4.8340 -3.5975 -2.0030 0.9749
-2.8526 -4.8119 -2.0004 0.9765
-0.4890 -5.5636 -1.9973 0.9766
0.5089 -5.5579 -1.9959 0.9766
1.4892 -5.3748 -1.9945 0.9766
1.9629 -5.2185 -1.9938 0.9766
4.8949 -2.6431 -1.9894 0.9766
5.1106 -2.1947 -1.9890 0.9766
5.4181 -1.2495 -1.9884 0.9767
5.5076 -0.7602 -1.9882 0.9767
5.2941 1.6975 -1.9882 0.9767
5.1217 2.1641 -1.9883 0.9767
4.9083 2.6134 -1.9886 0.9767
4.6558 3.0420 -1.9888 0.9767
4.3661 3.4465 -1.9892 0.9766
3.6843 4.1705 -1.9900 0.9766
3.2977 4.4842 -1.9905 0.9766
2.4480 5.0024 -1.9916 0.9766
1.9918 5.2027 -1.9922 0.9766
1.0344 5.4777 -1.9935 0.9766
-0.4561 5.5616 -1.9956 0.9766
-1.9170 5.2469 -1.9976 0.9765
-2.3790 5.0563 -1.9983 0.9765
-4.0046 3.9070 -2.0007 0.9765
-4.9010 2.7067 -2.0022 0.9765
-5.4460 1.3104 -2.0031 0.9765
-5.5419 0.8186 -2.0033 0.9765
-5.5933 0.3200 -2.0035 0.9765
-5.5997 -0.1811 -2.0035 0.9765
-5.4780 -1.1751 -2.0035 0.9765
-5.1806 -2.1312 -2.0033 0.9765
-4.7172 -3.0187 -2.0027 0.9765
-3.3578 -4.4763 -2.0011 0.9765
-2.9435 -4.7572 -2.0005 0.9765
-1.0888 -5.4802 -1.9981 0.9765
1.3870 -5.4025 -1.9946 0.9766
1.8637 -5.2551 -1.9939 0.9766
3.9478 -3.9254 -1.9909 0.9766
4.5812 -3.1583 -1.9899 0.9766
4.8441 -2.7356 -1.9894 0.9766
5.3936 -1.3521 -1.9885 0.9767
5.4923 -0.8646 -1.9883 0.9767
5.5578 0.1270 -1.9880 0.9767
5.5241 0.6232 -1.9880 0.9767
5.4464 1.1144 -1.9880 0.9767
4.9569 2.5197 -1.9885 0.9767
4.4305 3.3630 -1.9891 0.9766
3.7626 4.0997 -1.9899 0.9766
3.3819 4.4206 -1.9904 0.9766
2.5423 4.9547 -1.9915 0.9766
2.0900 5.1637 -1.9921 0.9766
0.6461 5.5385 -1.9940 0.9766
0.1486 5.5760 -1.9947 0.9766
-0.3505 5.5689 -1.9954 0.9766
-0.8470 5.5172 -1.9961 0.9766
-4.5780 3.2205 -2.0016 0.9765
-4.8485 2.7991 -2.0021 0.9765
-5.2713 1.8919 -2.0028 0.9765
-5.4200 1.4135 -2.0031 0.9765
-5.5253 0.9235 -2.0033 0.9765
-5.6021 -0.0749 -2.0035 0.9765
-5.4993 -1.0710 -2.0035 0.9765
-5.3814 -1.5581 -2.0035 0.9765
-5.2202 -2.0326 -2.0033 0.9765
-4.7738 -2.9288 -2.0028 0.9765
-4.4922 -3.3431 -2.0025 0.9765
-4.1746 -3.7305 -2.0021 0.9765
-3.7597 -3.6254 -2.0015 0.9779
-3.4199 -3.9460 -2.0011 0.9779
-3.0529 -4.2349 -2.0006 0.9779
-2.6615 -4.4897 -2.0001 0.9779
-0.9188 -5.1316 -1.9978 0.9779
-0.4563 -5.1915 -1.9972 0.9779
0.0095 -5.2099 -1.9965 0.9779
0.4749 -5.1865 -1.9959 0.9779
1.3897 -5.0158 -1.9946 0.9780
2.6679 -4.4634 -1.9927 0.9780
3.0552 -4.2059 -1.9921 0.9780
3.7532 -3.5929 -1.9911 0.9780
4.0583 -3.2423 -1.9906 0.9780
4.3309 -2.8660 -1.9902 0.9780
4.5688 -2.4670 -1.9898 0.9780
4.7702 -2.0485 -1.9894 0.9780
5.0573 -1.1663 -1.9889 0.9780
5.1408 -0.7096 -1.9887 0.9780
5.1845 0.2169 -1.9885 0.9780
5.1443 0.6794 -1.9885 0.9780
5.0631 1.1365 -1.9886 0.9780
4.7806 2.0199 -1.9888 0.9780
4.5814 2.4393 -1.9890 0.9780
4.3457 2.8394 -1.9893 0.9780
4.0752 3.2169 -1.9896 0.9780
3.7721 3.5689 -1.9900 0.9780
3.4387 3.8925 -1.9904 0.9780
2.6921 4.4447 -1.9914 0.9780
2.2848 4.6687 -1.9919 0.9780
0.0399 5.2056 -1.9949 0.9779
-0.4256 5.1900 -1.9956 0.9779
-0.8880 5.1328 -1.9962 0.9779
-1.3436 5.0346 -1.9969 0.9779
-2.2198 4.7180 -1.9981 0.9779
-2.6334 4.5020 -1.9987 0.9779
-3.0261 4.2499 -1.9993 0.9779
-4.3276 2.9233 -2.0013 0.9779
-4.5724 2.5253 -2.0017 0.9779
-4.7807 2.1069 -2.0021 0.9779
-5.1702 0.7636 -2.0028 0.9779
-2.3024 0.1317 -0.8838 0.9902
-2.3012 -0.2817 -0.8884 0.9901
-5.1105 -1.0963 -2.0030 0.9779
-4.9919 -1.5485 -2.0029 0.9779
-4.8331 -1.9883 -2.0028 0.9779
-4.4009 -2.8163 -2.0023 0.9779
-3.8279 -3.5536 -2.0016 0.9779
-3.4943 -3.8806 -2.0012 0.9779
-2.7464 -4.4386 -2.0002 0.9779
-2.3381 -4.6650 -1.9997 0.9779
-1.9113 -4.8540 -1.9991 0.9779
-1.4694 -5.0039 -1.9985 0.9779
-1.0160 -5.1136 -1.9979 0.9779
-0.0894 -5.2095 -1.9967 0.9779
0.3764 -5.1949 -1.9960 0.9779
1.2944 -5.0416 -1.9947 0.9779
1.7392 -4.9042 -1.9941 0.9780
2.5829 -4.5135 -1.9928 0.9780
3.6845 -3.6636 -1.9912 0.9780
3.9962 -3.3189 -1.9907 0.9780
4.5213 -2.5533 -1.9899 0.9780
4.7306 -2.1387 -1.9895 0.9780
5.0344 -1.2620 -1.9890 0.9780
5.1265 -0.8070 -1.9888 0.9780
5.1777 -0.3456 -1.9886 0.9780
5.1877 0.1185 -1.9885 0.9780
5.1563 0.5817 -1.9885 0.9780
5.0837 1.0402 -1.9885 0.9780
4.3986 2.7564 -1.9892 0.9780
4.1353 3.1389 -1.9895 0.9780
3.8389 3.4965 -1.9899 0.9780
3.5118 3.8264 -1.9903 0.9780
2.7758 4.3926 -1.9912 0.9780
2.3728 4.6243 -1.9918 0.9780
1.9506 4.8192 -1.9923 0.9780
1.5125 4.9757 -1.9929 0.9780
1.0621 5.0925 -1.9935 0.9780
0.1386 5.2035 -1.9948 0.9779
-0.7904 5.1484 -1.9961 0.9779
-1.2478 5.0588 -1.9967 0.9779
-1.6954 4.9286 -1.9974 0.9779
-2.9447 4.3063 -1.9992 0.9779
-5.1547 0.8616 -2.0028 0.9779
-2.3040 0.1757 -0.8855 0.9902
-2.2916 -0.0306 -0.8783 0.9902
-2.3033 -0.2377 -0.8873 0.9901
-4.8701 -1.8963 -2.0028 0.9779
-4.6807 -2.3237 -2.0026 0.9779
-4.1910 -3.1190 -2.0020 0.9779
-2.8581 -3.9647 -2.0003 0.9791
-2.1056 -4.4080 -1.9993 0.9791
-1.7028 -4.5773 -1.9988 0.9791
-0.8602 -4.8046 -1.9977 0.9791
0.0089 -4.8781 -1.9965 0.9791
2.1154 -4.3874 -1.9935 0.9792
2.4983 -4.1796 -1.9929 0.9792
4.0559 -2.6840 -1.9905 0.9792
4.2787 -2.3104 -1.9902 0.9792
4.4674 -1.9185 -1.9898 0.9792
4.6203 -1.5113 -1.9896 0.9792
4.8146 -0.6645 -1.9892 0.9792
4.8544 -0.2316 -1.9891 0.9792
4.8179 0.6363 -1.9890 0.9792
4.7419 1.0643 -1.9890 0.9792
4.6280 1.4839 -1.9891 0.9792
4.4772 1.8917 -1.9893 0.9792
4.0698 2.6592 -1.9897 0.9792
3.8165 3.0127 -1.9900 0.9792
2.8823 3.9194 -1.9912 0.9792
2.5211 4.1623 -1.9916 0.9792
2.1396 4.3720 -1.9921 0.9792
1.7407 4.5469 -1.9927 0.9792
0.9040 4.7869 -1.9938 0.9792
-0.3985 4.8596 -1.9956 0.9791
-1.2580 4.7139 -1.9968 0.9791
-1.6748 4.5840 -1.9974 0.9791
-2.0783 4.4173 -1.9980 0.9791
-3.1782 3.7108 -1.9996 0.9791
-3.4979 3.4127 -2.0001 0.9791
-3.7898 3.0871 -2.0006 0.9791
-4.0514 2.7367 -2.0010 0.9791
-4.2805 2.3641 -2.0013 0.9791
-4.6344 1.5648 -2.0020 0.9791
-2.0070 0.1148 -0.8228 0.9913
-1.9980 -0.0646 -0.8182 0.9914
-2.0200 -0.2473 -0.8329 0.9912
-2.0846 -0.4472 -0.8726 0.9908
-4.5244 -1.8613 -2.0023 0.9791
-3.8672 -2.9937 -2.0016 0.9791
-2.9329 -3.9099 -2.0004 0.9791
-2.5711 -4.1554 -1.9999 0.9791
-2.1889 -4.3675 -1.9994 0.9791
-1.3757 -4.6849 -1.9984 0.9791
-0.9512 -4.7877 -1.9978 0.9791
-0.5194 -4.8521 -1.9972 0.9791
0.3525 -4.8641 -1.9960 0.9791
0.7855 -4.8117 -1.9954 0.9791
1.6286 -4.5922 -1.9942 0.9792
2.0319 -4.4270 -1.9936 0.9792
2.4187 -4.2265 -1.9930 0.9792
3.1308 -3.7264 -1.9920 0.9792
3.4505 -3.4309 -1.9915 0.9792
3.7424 -3.1081 -1.9910 0.9792
4.2343 -2.3912 -1.9902 0.9792
4.7149 -1.1819 -1.9894 0.9792
4.8585 0.1110 -1.9890 0.9792
4.8291 0.5448 -1.9890 0.9792
4.7612 0.9742 -1.9890 0.9792
4.5122 1.8064 -1.9892 0.9792
4.1194 2.5814 -1.9897 0.9792
3.8728 2.9396 -1.9899 0.9792
3.5952 3.2746 -1.9903 0.9792
2.9560 3.8638 -1.9911 0.9792
2.2220 4.3304 -1.9920 0.9792
1.8266 4.5128 -1.9925 0.9792
1.4163 4.6593 -1.9931 0.9792
0.9946 4.7686 -1.9937 0.9792
0.1298 4.8724 -1.9948 0.9792
-0.3062 4.8660 -1.9955 0.9791
-1.5874 4.6146 -1.9973 0.9791
-1.9941 4.4556 -1.9979 0.9791
-2.3849 4.2608 -1.9984 0.9791
-2.7569 4.0317 -1.9990 0.9791
-3.1070 3.7702 -1.9995 0.9791
-3.4324 3.4783 -2.0000 0.9791
-3.7304 3.1583 -2.0005 0.9791
-3.9985 2.8129 -2.0009 0.9791
-4.2347 2.4448 -2.0013 0.9791
-4.6038 1.6524 -2.0019 0.9791
-2.0437 0.3416 -0.8480 0.9911
-1.9937 -0.0266 -0.8160 0.9914
-4.3817 -2.1753 -2.0022 0.9791
-3.6462 -3.2583 -2.0013 0.9791
-3.0062 -3.4687 -2.0004 0.9802
-2.6836 -3.7227 -2.0000 0.9802
-1.5989 -4.2981 -1.9986 0.9802
-0.8078 -4.5117 -1.9975 0.9802
-0.4012 -4.5646 -1.9970 0.9802
0.8232 -4.5036 -1.9953 0.9802
1.2221 -4.4108 -1.9947 0.9802
1.6109 -4.2827 -1.9942 0.9802
1.9867 -4.1205 -1.9936 0.9802
2.6871 -3.6991 -1.9926 0.9802
3.0062 -3.4433 -1.9921 0.9803
3.3011 -3.1601 -1.9916 0.9803
3.8095 -2.5210 -1.9908 0.9803
4.0188 -2.1701 -1.9905 0.9803
4.5223 -0.6242 -1.9896 0.9803
4.5597 -0.2175 -1.9895 0.9803
4.3470 1.3938 -1.9895 0.9803
4.2054 1.7769 -1.9897 0.9803
4.0301 2.1458 -1.9898 0.9803
3.5847 2.8297 -1.9904 0.9803
3.3180 3.1393 -1.9907 0.9803
3.0247 3.4239 -1.9910 0.9803
2.7072 3.6812 -1.9914 0.9803
2.3679 3.9093 -1.9919 0.9803
2.0095 4.1062 -1.9924 0.9803
0.8490 4.4956 -1.9939 0.9802
0.4439 4.5548 -1.9945 0.9802
-1.1814 4.4267 -1.9967 0.9802
-1.5727 4.3046 -1.9973 0.9802
-2.6603 3.7362 -1.9989 0.9802
-3.2845 3.2045 -1.9998 0.9802
-3.5585 2.8987 -2.0003 0.9802
-3.8040 2.5696 -2.0006 0.9802
-1.4919 0.5037 -0.6862 0.9932
-1.4737 0.2177 -0.6492 0.9935
-1.4556 0.0833 -0.6354 0.9937
-1.4796 -0.3174 -0.6595 0.9934
-4.2480 -1.7476 -2.0019 0.9802
-3.6310 -2.8108 -2.0012 0.9802
-3.3648 -3.1236 -2.0009 0.9802
-2.7539 -3.6713 -2.0001 0.9802
-2.4142 -3.9019 -1.9997 0.9802
-0.8933 -4.4958 -1.9977 0.9802
-0.4878 -4.5564 -1.9971 0.9802
-0.0786 -4.5805 -1.9965 0.9802
0.3310 -4.5679 -1.9960 0.9802
1.1382 -4.4334 -1.9948 0.9802
1.5295 -4.3128 -1.9943 0.9802
1.9083 -4.1577 -1.9937 0.9802
2.2716 -3.9695 -1.9932 0.9802
2.6166 -3.7496 -1.9927 0.9802
3.5150 -2.9192 -1.9913 0.9803
3.7611 -2.5929 -1.9909 0.9803
4.3121 -1.5017 -1.9900 0.9803
4.5097 -0.7099 -1.9896 0.9803
4.5548 -0.3040 -1.9895 0.9803
4.5636 0.1043 -1.9894 0.9803
4.5360 0.5117 -1.9894 0.9803
4.2382 1.6967 -1.9896 0.9803
3.8693 2.4247 -1.9900 0.9803
3.0890 3.3657 -1.9910 0.9803
0.9341 4.4785 -1.9938 0.9802
0.5302 4.5453 -1.9943 0.9802
-0.2876 4.5696 -1.9955 0.9802
-2.2395 4.0010 -1.9983 0.9802
-2.5888 3.7858 -1.9988 0.9802
-3.2229 3.2660 -1.9997 0.9802
-3.5027 2.9656 -2.0002 0.9802
-3.7544 2.6412 -2.0006 0.9802
-3.9762 2.2955 -2.0009 0.9802
-1.4877 0.5340 -0.6889 0.9931
-1.4318 -0.0191 -0.6241 0.9938
-1.4699 -0.1517 -0.6440 0.9936
-1.5513 -0.6040 -0.7255 0.9928
-3.9146 -2.4017 -2.0015 0.9802
-3.6838 -2.7415 -2.0013 0.9802
-3.4235 -3.0593 -2.0010 0.9802
-3.1111 -2.9999 -2.0005 0.9811
-2.8300 -3.2654 -2.0002 0.9811
-2.5264 -3.5046 -1.9998 0.9811
-2.2026 -3.7155 -1.9994 0.9811
0.0078 -4.3129 -1.9964 0.9812
0.7751 -4.2403 -1.9953 0.9812
1.1506 -4.1530 -1.9948 0.9812
1.5168 -4.0325 -1.9942 0.9812
1.8706 -3.8798 -1.9937 0.9812
2.2093 -3.6962 -1.9932 0.9812
2.8307 -3.2423 -1.9923 0.9812
3.1085 -2.9757 -1.9919 0.9812
3.3613 -2.6855 -1.9915 0.9812
3.7844 -2.0435 -1.9908 0.9812
4.1943 0.9414 -1.9898 0.9812
4.0936 1.3126 -1.9899 0.9812
3.7951 2.0207 -1.9902 0.9812
3.5997 2.3520 -1.9904 0.9812
3.1244 2.9561 -1.9910 0.9812
2.8482 3.2241 -1.9913 0.9812
2.5492 3.4664 -1.9917 0.9812
2.2296 3.6811 -1.9921 0.9812
1.1742 4.1435 -1.9935 0.9812
0.4180 4.2886 -1.9945 0.9812
0.0330 4.3099 -1.9951 0.9812
-0.3524 4.2968 -1.9956 0.9812
-1.8374 3.9051 -1.9977 0.9812
-2.5045 3.5174 -1.9987 0.9811
-2.8095 3.2802 -1.9992 0.9811
-3.3499 2.7288 -2.0000 0.9811
-3.7835 2.0896 -2.0007 0.9811
-1.2499 0.5509 -0.6323 0.9940
-1.2747 0.1883 -0.5965 0.9943
-1.2691 -0.3937 -0.6151 0.9942
-2.8916 -3.2112 -2.0002 0.9811
-2.5925 -3.4562 -1.9999 0.9811
-1.5819 -4.0174 -1.9985 0.9811
-1.2162 -4.1417 -1.9981 0.9812
-0.8410 -4.2327 -1.9975 0.9812
1.4401 -4.0607 -1.9944 0.9812
1.7968 -3.9148 -1.9938 0.9812
2.1389 -3.7376 -1.9933 0.9812
2.4638 -3.5306 -1.9929 0.9812
2.7688 -3.2956 -1.9924 0.9812
3.0516 -3.0343 -1.9920 0.9812
4.1704 -1.0454 -1.9901 0.9812
4.2892 -0.2863 -1.9898 0.9812
4.2715 0.4819 -1.9898 0.9812
4.2114 0.8617 -1.9898 0.9812
3.9911 1.5978 -1.9900 0.9812
3.8327 1.9483 -1.9901 0.9812
3.6436 2.2832 -1.9904 0.9812
3.1798 2.8962 -1.9909 0.9812
2.9088 3.1693 -1.9912 0.9812
2.6144 3.4173 -1.9916 0.9812
1.9651 3.8297 -1.9925 0.9812
0.4992 4.2797 -1.9944 0.9812
0.1148 4.3083 -1.9950 0.9812
-0.2708 4.3025 -1.9955 0.9812
-0.6544 4.2622 -1.9960 0.9812
-1.4034 4.0798 -1.9971 0.9812
-2.4372 3.5641 -1.9986 0.9811
-3.0341 3.0747 -1.9995 0.9811
-3.2974 2.7918 -1.9999 0.9811
-3.5344 2.4864 -2.0003 0.9811
-3.7431 2.1609 -2.0006 0.9811
-1.2706 0.3313 -0.6078 0.9942
-1.2734 0.2128 -0.5976 0.9943
-1.2720 0.0970 -0.5905 0.9944
-1.2614 -0.0169 -0.5839 0.9945
-1.2745 -0.1316 -0.5931 0.9944
-1.2700 -0.2473 -0.5989 0.9943
-1.2704 -0.3678 -0.6122 0.9942
-3.6851 -2.2608 -2.0012 0.9811
-3.4678 -2.5808 -2.0009 0.9811
-2.6592 -3.0683 -1.9916 0.9821
-2.3838 -3.3067 -1.9996 0.9820
-2.0783 -3.5058 -1.9992 0.9820
-1.7563 -3.6768 -1.9987 0.9820
-1.4204 -3.8182 -1.9983 0.9820
-1.0732 -3.9289 -1.9978 0.9820
-0.7176 -4.0081 -1.9973 0.9820
0.0074 -4.0698 -1.9963 0.9820
0.7314 -4.0015 -1.9953 0.9820
1.0858 -3.9191 -1.9948 0.9820
1.4314 -3.8054 -1.9943 0.9820
1.7653 -3.6614 -1.9938 0.9821
2.0850 -3.4881 -1.9934 0.9821
3.5717 -1.9286 -1.9911 0.9821
3.7292 -1.6015 -1.9908 0.9821
3.8570 -1.2616 -1.9906 0.9821
3.9539 -0.9118 -1.9904 0.9821
4.0193 -0.5548 -1.9903 0.9821
4.0222 0.5312 -1.9901 0.9821
3.9587 0.8885 -1.9901 0.9821
3.8636 1.2388 -1.9902 0.9821
3.5818 1.9071 -1.9905 0.9821
3.1858 2.5149 -1.9910 0.9821
2.4058 3.2714 -1.9919 0.9821
1.7857 3.6490 -1.9927 0.9821
1.4528 3.7948 -1.9932 0.9821
0.7544 3.9947 -1.9941 0.9821
0.3944 4.0471 -1.9946 0.9820
0.0312 4.0672 -1.9951 0.9820
-0.3325 4.0547 -1.9956 0.9820
-1.0496 3.9328 -1.9966 0.9820
-2.0566 3.5161 -1.9981 0.9820
-2.3632 3.3189 -1.9985 0.9820
-2.6509 3.0951 -1.9990 0.9820
-2.9175 2.8464 -1.9994 0.9820
-3.1608 2.5748 -1.9998 0.9820
-1.1137 0.6151 -0.6241 0.9943
-1.1021 0.4857 -0.5908 0.9946
-1.1263 0.3803 -0.5831 0.9947
-1.1421 0.0654 -0.5612 0.9949
-1.1355 -0.2436 -0.5697 0.9948
-1.1299 -0.3505 -0.5803 0.9947
-1.1106 -0.4569 -0.5891 0.9947
-3.4357 -2.1986 -2.0008 0.9820
-3.2251 -2.4966 -2.0006 0.9820
-2.7169 -3.0172 -1.9916 0.9821
-2.4462 -3.2610 -1.9996 0.9820
-2.1445 -3.4659 -1.9992 0.9820
-1.8258 -3.6430 -1.9988 0.9820
-0.0698 -4.0694 -1.9965 0.9820
0.6554 -4.0148 -1.9954 0.9820
1.0114 -3.9392 -1.9949 0.9820
1.3590 -3.8321 -1.9944 0.9820
1.6956 -3.6944 -1.9939 0.9821
2.6131 -3.1102 -1.9926 0.9821
2.8800 -2.8636 -1.9922 0.9821
3.3425 -2.3043 -1.9915 0.9821
3.5345 -1.9961 -1.9911 0.9821
3.6983 -1.6720 -1.9909 0.9821
4.0081 -0.6309 -1.9903 0.9821
4.0482 -0.2702 -1.9902 0.9821
4.0561 0.0927 -1.9901 0.9821
3.9748 0.8133 -1.9901 0.9821
3.8863 1.1653 -1.9902 0.9821
3.7669 1.5080 -1.9903 0.9821
3.2329 2.4539 -1.9909 0.9821
2.7452 2.9912 -1.9915 0.9821
2.4673 3.2251 -1.9918 0.9821
2.1697 3.4334 -1.9922 0.9821
1.5244 3.7664 -1.9931 0.9821
1.1820 3.8884 -1.9935 0.9821
0.8300 3.9794 -1.9940 0.9821
0.1083 4.0656 -1.9950 0.9820
-0.2555 4.0601 -1.9955 0.9820
-1.3243 3.8498 -1.9970 0.9820
-1.6635 3.7169 -1.9975 0.9820
-1.9895 3.5542 -1.9980 0.9820
-2.5916 3.1447 -1.9989 0.9820
-3.3348 2.3460 -2.0000 0.9820
-3.5317 2.0389 -2.0003 0.9820
-1.0946 0.5074 -0.5918 0.9946
-1.1226 0.4029 -0.5851 0.9947
-1.1329 0.2954 -0.5743 0.9948
-1.1421 0.1909 -0.5680 0.9949
-1.1362 -0.0152 -0.5574 0.9950
-1.1443 -0.1181 -0.5643 0.9949
-1.1317 -0.3277 -0.5779 0.9948
-1.0872 -0.5397 -0.5954 0.9946
-3.4769 -2.1331 -2.0009 0.9820
-2.7662 -2.6674 -1.9936 0.9828
-2.2537 -3.1263 -1.9993 0.9828
-1.6605 -3.4762 -1.9986 0.9828
-1.0147 -3.7147 -1.9977 0.9828
-0.6785 -3.7897 -1.9973 0.9828
0.3508 -3.8312 -1.9958 0.9828
0.6916 -3.7836 -1.9954 0.9828
1.0267 -3.7057 -1.9949 0.9828
1.9715 -3.2984 -1.9935 0.9828
2.7741 -2.6557 -1.9923 0.9828
2.9998 -2.3967 -1.9919 0.9828
3.8010 -0.5246 -1.9906 0.9829
3.8037 0.5023 -1.9904 0.9829
3.3872 1.8035 -1.9908 0.9829
3.2128 2.0992 -1.9910 0.9829
3.0127 2.3782 -1.9912 0.9829
2.7885 2.6383 -1.9915 0.9829
2.2750 3.0936 -1.9921 0.9828
1.9898 3.2851 -1.9925 0.9828
1.3737 3.5883 -1.9933 0.9828
1.0478 3.6976 -1.9937 0.9828
0.0295 3.8457 -1.9951 0.9828
-0.6559 3.7914 -1.9961 0.9828
-0.9924 3.7185 -1.9966 0.9828
-1.3210 3.6157 -1.9970 0.9828
-1.6393 3.4840 -1.9975 0.9828
-2.2343 3.1379 -1.9984 0.9828
-2.7583 2.6911 -1.9992 0.9828
-2.9883 2.4343 -1.9995 0.9828
-0.9505 0.5250 -0.5633 0.9951
-1.0125 0.3419 -0.5544 0.9952
-1.0362 0.0593 -0.5385 0.9953
-1.0339 -0.0334 -0.5367 0.9953
-1.0372 -0.1270 -0.5421 0.9953
-0.9971 -0.4102 -0.5594 0.9952
-0.9738 -0.6231 -0.5997 0.9948
-3.0490 -2.3603 -2.0003 0.9828
-2.8215 -2.6193 -1.9973 0.9828
-2.3127 -3.0831 -1.9994 0.9828
-2.0275 -3.2768 -1.9991 0.9828
-1.0850 -3.6950 -1.9978 0.9828
-0.0660 -3.8477 -1.9964 0.9828
0.2781 -3.8373 -1.9959 0.9828
0.6197 -3.7962 -1.9955 0.9828
1.2850 -3.6235 -1.9945 0.9828
1.9087 -3.3353 -1.9936 0.9828
3.1609 -2.1791 -1.9917 0.9828
3.3425 -1.8876 -1.9914 0.9829
3.6242 -1.2621 -1.9909 0.9829
3.7222 -0.9331 -1.9907 0.9829
3.8283 -0.2555 -1.9905 0.9829
3.8357 0.0876 -1.9904 0.9829
3.5622 1.4261 -1.9906 0.9829
3.0572 2.3206 -1.9912 0.9829
1.4415 3.5615 -1.9932 0.9828
1.1177 3.6769 -1.9937 0.9828
0.7848 3.7629 -1.9941 0.9828
0.4455 3.8188 -1.9946 0.9828
0.1024 3.8443 -1.9950 0.9828
-0.2416 3.8390 -1.9955 0.9828
-1.2521 3.6400 -1.9969 0.9828
-1.5728 3.5143 -1.9974 0.9828
-2.7067 2.7428 -1.9991 0.9828
-2.9415 2.4904 -1.9995 0.9828
-1.0088 0.3621 -0.5560 0.9952
-1.0200 0.2660 -0.5468 0.9953
-1.0335 0.1727 -0.5436 0.9953
-1.0315 -0.0138 -0.5352 0.9954
-1.0300 -0.2006 -0.5444 0.9953
-1.0183 -0.2948 -0.5499 0.9952
-3.0933 -2.3021 -2.0004 0.9828
-2.3909 -2.7588 -1.9995 0.9835
-2.1345 -2.9609 -1.9992 0.9835
-1.5727 -3.2924 -1.9984 0.9835
-0.9611 -3.5183 -1.9976 0.9835
-0.3192 -3.6317 -1.9967 0.9835
0.0066 -3.6448 -1.9963 0.9835
0.3323 -3.6288 -1.9958 0.9835
0.6551 -3.5838 -1.9954 0.9835
0.9725 -3.5101 -1.9949 0.9835
1.2820 -3.4084 -1.9945 0.9835
1.5812 -3.2795 -1.9940 0.9835
2.1389 -2.9444 -1.9932 0.9835
2.3930 -2.7409 -1.9928 0.9835
3.0328 -2.0070 -1.9918 0.9836
3.3408 -1.4347 -1.9913 0.9836
1.8721 -0.6124 -1.0788 0.9911
1.8865 -0.4350 -1.0604 0.9912
1.8837 -0.0899 -1.0329 0.9914
1.8826 0.0788 -1.0320 0.9914
1.8887 0.2494 -1.0435 0.9913
1.8865 0.4234 -1.0589 0.9912
3.3484 1.4148 -1.9909 0.9836
3.2088 1.7085 -1.9910 0.9836
3.0435 1.9886 -1.9912 0.9836
2.8540 2.2529 -1.9915 0.9836
2.6415 2.4993 -1.9917 0.9836
1.8849 3.1119 -1.9927 0.9835
1.3013 3.3991 -1.9934 0.9835
0.9925 3.5025 -1.9939 0.9835
0.6757 3.5779 -1.9943 0.9835
0.3533 3.6248 -1.9947 0.9835
-0.2978 3.6314 -1.9956 0.9835
-1.5526 3.2999 -1.9974 0.9835
-2.1161 2.9720 -1.9982 0.9835
-2.8302 2.3055 -1.9993 0.9835
-0.8745 0.5907 -0.5780 0.9952
-0.9451 0.1396 -0.5232 0.9957
-0.9464 0.0542 -0.5192 0.9957
-0.9446 -0.0306 -0.5176 0.9957
-0.9467 -0.1159 -0.5224 0.9957
-0.9363 -0.2009 -0.5245 0.9956
-0.9060 -0.3727 -0.5365 0.9955
-2.8877 -2.2354 -2.0001 0.9835
-2.6760 -2.4842 -1.9998 0.9835
-2.4429 -2.7130 -1.9995 0.9835
-2.1903 -2.9200 -1.9992 0.9835
-1.9203 -3.1035 -1.9989 0.9835
-1.0277 -3.4996 -1.9977 0.9835
-0.0625 -3.6445 -1.9964 0.9835
0.2634 -3.6347 -1.9959 0.9835
0.5870 -3.5958 -1.9955 0.9835
0.9058 -3.5281 -1.9950 0.9835
1.2172 -3.4323 -1.9946 0.9835
1.5187 -3.3090 -1.9941 0.9835
1.8080 -3.1594 -1.9937 0.9835
2.5798 -2.5651 -1.9926 0.9835
2.7982 -2.3239 -1.9922 0.9835
2.9942 -2.0642 -1.9919 0.9836
1.8858 -0.4727 -1.0648 0.9912
1.8875 -0.2971 -1.0465 0.9913
1.8866 -0.1259 -1.0356 0.9914
1.8783 0.0429 -1.0290 0.9915
1.8795 0.5636 -1.0747 0.9911
3.2405 1.6473 -1.9910 0.9836
2.8961 2.1983 -1.9914 0.9836
2.6884 2.4486 -1.9917 0.9836
2.2102 2.8890 -1.9923 0.9835
1.9435 3.0755 -1.9926 0.9835
1.3655 3.3736 -1.9934 0.9835
-1.4897 3.3286 -1.9973 0.9835
-1.7816 3.1828 -1.9978 0.9835
-2.3207 2.8160 -1.9986 0.9835
-2.5635 2.5978 -1.9989 0.9835
-0.8796 0.6188 -0.5890 0.9951
-0.8702 0.5024 -0.5503 0.9954
-0.8965 0.4156 -0.5412 0.9955
-0.9140 0.3280 -0.5318 0.9956
-0.9432 0.1576 -0.5237 0.9956
-0.9472 0.0722 -0.5203 0.9957
-0.9426 -0.0126 -0.5163 0.9957
-0.9473 -0.0978 -0.5216 0.9957
-0.9395 -0.1830 -0.5243 0.9956
-0.8896 -0.4417 -0.5440 0.9955
-2.0247 -2.8086 -1.9990 0.9841
-1.4918 -3.1231 -1.9983 0.9841
-0.9117 -3.3375 -1.9975 0.9841
0.0063 -3.4576 -1.9963 0.9842
0.9226 -3.3300 -1.9950 0.9842
1.2162 -3.2335 -1.9945 0.9842
1.5000 -3.1112 -1.9941 0.9842
2.0292 -2.7934 -1.9934 0.9842
2.2703 -2.6004 -1.9930 0.9842
2.4931 -2.3867 -1.9926 0.9842
3.0356 -1.6391 -1.9918 0.9842
1.7325 -0.3995 -1.0265 0.9918
1.7415 -0.2404 -1.0150 0.9919
1.7417 0.2300 -1.0143 0.9919
2.8876 1.8867 -1.9915 0.9842
2.7077 2.1375 -1.9917 0.9842
2.2845 2.5860 -1.9922 0.9842
1.7882 2.9523 -1.9928 0.9842
1.5175 3.1009 -1.9932 0.9842
0.9416 3.3228 -1.9940 0.9842
0.0265 3.4557 -1.9952 0.9842
-0.5894 3.4067 -1.9961 0.9842
-0.8917 3.3411 -1.9965 0.9842
-1.1869 3.2487 -1.9969 0.9842
-1.4728 3.1303 -1.9973 0.9841
-2.0074 2.8192 -1.9981 0.9841
-2.2517 2.6290 -1.9985 0.9841
-0.8468 0.3732 -0.5343 0.9957
-0.8810 0.1301 -0.5141 0.9959
-0.8803 -0.0285 -0.5085 0.9959
-0.8757 -0.1879 -0.5171 0.9959
-0.8646 -0.2682 -0.5227 0.9958
-0.8305 -0.4322 -0.5405 0.9957
-0.8006 -0.5123 -0.5487 0.9956
-2.7391 -2.1203 -1.9999 0.9841
-2.5383 -2.3564 -1.9996 0.9841
-2.3173 -2.5734 -1.9994 0.9841
-2.0777 -2.7698 -1.9990 0.9841
-1.5509 -3.0944 -1.9984 0.9841
-0.9748 -3.3198 -1.9976 0.9841
-0.6741 -3.3929 -1.9972 0.9841
0.8593 -3.3470 -1.9951 0.9842
1.4408 -3.1392 -1.9942 0.9842
1.7153 -2.9973 -1.9938 0.9842
2.2206 -2.6431 -1.9931 0.9842
2.4475 -2.4336 -1.9927 0.9842
3.0040 -1.6965 -1.9918 0.9842
3.1433 -1.4211 -1.9916 0.9842
1.7313 -0.4340 -1.0305 0.9918
1.7382 -0.1160 -1.0058 0.9920
1.7418 0.1965 -1.0120 0.9919
1.7329 0.3546 -1.0212 0.9919
1.7230 0.5166 -1.0386 0.9917
3.0745 1.5629 -1.9913 0.9842
2.9228 1.8316 -1.9914 0.9842
2.0969 2.7409 -1.9924 0.9842
1.8439 2.9178 -1.9928 0.9842
1.5760 3.0714 -1.9931 0.9842
1.2954 3.2006 -1.9935 0.9842
0.4003 3.4316 -1.9947 0.9842
-0.5246 3.4171 -1.9960 0.9842
-1.1250 3.2705 -1.9968 0.9842
-1.6900 3.0192 -1.9976 0.9841
-1.9534 2.8567 -1.9980 0.9841
-0.8425 0.3905 -0.5361 0.9957
-0.8594 0.3085 -0.5272 0.9958
-0.8698 0.2268 -0.5189 0.9959
-0.8821 0.0673 -0.5107 0.9959
-0.8777 -0.1709 -0.5162 0.9959
-0.8659 -0.2507 -0.5204 0.9958
-0.8358 -0.4149 -0.5387 0.9957
-0.8076 -0.4955 -0.5471 0.9956
-0.8032 -0.5977 -0.5780 0.9954
-2.5826 -2.3079 -1.9997 0.9841
