ply
format ascii 1.0
element vertex 1281
property float32 x
property float32 y
property float32 z
property float32 I
end_header
4.5394 9.6650 1.8828 0.9576
-13.0471 8.4363 2.7396 0.9388
4.5564 9.6741 1.8855 0.9575
11.7463 -13.1753 2.7041 0.9311
4.5408 9.6679 1.6363 0.9577
-13.0389 8.4310 2.3784 0.9391
11.7539 -13.1838 2.3000 0.9312
-7.8027 -13.3360 2.0120 0.9396
11.7378 -13.1943 2.2997 0.9312
4.5434 9.6735 1.1476 0.9579
11.7453 -13.2028 1.8975 0.9314
-13.0177 8.4172 1.3123 0.9397
-7.7982 -13.3283 1.3072 0.9399
11.7764 -13.2091 1.0974 0.9315
-7.7960 -13.3245 0.9573 0.9400
11.7839 -13.2175 0.6982 0.9316
-13.0038 8.4083 0.6106 0.9399
-7.7937 -13.3207 0.6085 0.9401
11.7677 -13.2280 0.6981 0.9316
11.7914 -13.2259 0.2993 0.9316
4.5486 9.6846 0.1807 0.9581
-12.9976 8.4043 0.2615 0.9400
-7.7915 -13.3170 0.2606 0.9401
11.7752 -13.2364 0.2993 0.9316
11.7989 -13.2343 -0.0998 0.9315
7.7971 3.4236 -0.0479 0.9665
4.5499 9.6874 -0.0603 0.9581
-7.7893 -13.3132 -0.0868 0.9402
8.9349 2.9900 -0.0530 0.9630
7.7970 3.4136 -0.0479 0.9665
4.5670 9.6965 -0.0603 0.9580
11.8064 -13.2427 -0.4996 0.9315
5.8957 8.2831 -0.2863 0.9601
4.5512 9.6902 -0.3015 0.9581
-12.9853 8.3963 -0.4354 0.9400
18.8704 2.7254 -0.5369 0.9265
8.7408 2.9250 -0.2595 0.9638
4.5683 9.6993 -0.3019 0.9580
11.3591 2.7107 -0.5922 0.9543
8.4011 2.8214 -0.4494 0.9651
7.5769 3.3269 -0.4197 0.9674
-7.7849 -13.3056 -0.7818 0.9401
18.1379 2.6196 -0.9294 0.9292
11.3733 2.7012 -0.5928 0.9543
7.5770 3.3173 -0.4195 0.9674
15.8759 8.7229 -0.9187 0.9300
4.5696 9.7021 -0.5439 0.9580
10.8090 -14.5670 -1.3300 0.9298
8.1352 2.7321 -0.6292 0.9662
7.1614 3.9448 -0.5995 0.9677
4.5539 9.6958 -0.7854 0.9579
2.4476 14.2706 -1.0616 0.9436
0.5598 6.9726 -0.5129 0.9723
-12.9729 8.3883 -1.1327 0.9399
-18.9688 5.9666 -1.4580 0.9233
-7.7827 -13.3018 -1.1300 0.9401
-3.1656 -11.8930 -0.9024 0.9518
18.1812 2.6259 -1.3469 0.9290
8.1595 2.7305 -0.6309 0.9661
7.4770 3.2735 -0.5985 0.9678
7.1614 3.9348 -0.5991 0.9678
5.9379 8.3235 -0.7497 0.9598
4.5709 9.7049 -0.7866 0.9579
2.4623 14.2637 -1.0613 0.9436
9.0560 -14.8161 -1.6671 0.9326
10.2054 -13.7535 -1.6442 0.9335
14.0786 -10.9985 -1.7152 0.9307
14.9011 -9.6237 -1.7030 0.9312
16.1422 -6.7101 -1.6783 0.9322
16.9227 -3.6860 -1.6628 0.9328
17.2426 -0.6033 -1.6564 0.9330
17.2299 0.9446 -1.6566 0.9330
17.1021 2.4888 -1.6592 0.9329
10.7666 2.5693 -1.0627 0.9565
12.8582 10.4614 -1.5914 0.9356
11.9967 11.6964 -1.6085 0.9349
8.8100 15.0764 -1.6764 0.9322
6.1884 16.9874 -1.7357 0.9299
1.0310 6.0111 -0.5855 0.9758
0.4853 6.0441 -0.5821 0.9759
-0.0593 6.1624 -0.5916 0.9755
-14.2818 11.1697 -1.7407 0.9297
-12.8781 8.3270 -1.4723 0.9402
-8.9575 -12.5704 -1.4819 0.9399
-7.3399 -12.5451 -1.3954 0.9433
-6.7075 -14.2611 -1.5130 0.9386
-3.1634 -11.8845 -1.1807 0.9518
-1.5766 -19.5048 -1.8787 0.9244
0.1745 -19.2047 -1.8438 0.9257
3.4721 -18.1936 -1.7782 0.9283
6.4428 -16.7069 -1.7191 0.9306
9.0415 -14.8284 -1.6674 0.9326
10.1922 -13.7667 -1.6445 0.9335
11.0689 -12.4425 -1.5988 0.9353
12.1851 -11.4431 -1.6048 0.9350
14.0666 -11.0136 -1.7152 0.9307
14.8923 -9.6407 -1.7032 0.9312
15.5717 -8.2016 -1.6896 0.9317
16.1362 -6.7279 -1.6784 0.9322
16.5854 -5.2267 -1.6695 0.9325
17.1383 -2.1674 -1.6585 0.9329
17.2308 0.9260 -1.6566 0.9330
17.1043 2.4704 -1.6591 0.9329
10.7671 2.5572 -1.0624 0.9565
12.0076 11.6818 -1.6083 0.9349
11.0426 12.8628 -1.6275 0.9341
5.9380 8.3235 -0.9816 0.9597
8.8245 15.0639 -1.6761 0.9322
1.0376 6.0110 -0.5856 0.9758
-0.0526 6.1566 -0.5911 0.9756
-3.8210 13.3999 -1.3377 0.9455
8.4258 -11.3552 -1.6796 0.9446
9.9874 -11.2024 -1.7827 0.9413
10.9449 -10.2563 -1.7817 0.9414
11.7180 -9.1544 -1.7663 0.9419
13.4612 -5.5956 -1.7316 0.9430
13.8468 -4.3473 -1.7240 0.9432
14.1338 -3.0785 -1.7183 0.9434
14.3216 -1.7955 -1.7145 0.9435
14.3991 0.7894 -1.7130 0.9436
7.7665 2.6083 -0.9732 0.9675
7.1568 3.9423 -0.9706 0.9676
11.4518 7.7214 -1.6406 0.9459
9.9423 9.6935 -1.6494 0.9456
9.1229 10.6498 -1.6657 0.9451
5.2252 8.9418 -1.2302 0.9591
4.5565 9.7014 -1.2732 0.9577
5.0343 13.8195 -1.7471 0.9425
-3.0304 15.8326 -1.9148 0.9371
-7.4500 15.0995 -2.0000 0.9344
-5.3937 8.8352 -1.2296 0.9592
-8.9576 -12.5705 -1.8335 0.9397
-7.3400 -12.5452 -1.7265 0.9431
-6.5896 -14.0105 -1.8391 0.9395
-5.6557 -15.4992 -1.9598 0.9357
0.1411 -15.5272 -1.8445 0.9394
2.8265 -14.8106 -1.7910 0.9411
4.0846 -14.2950 -1.7660 0.9419
7.4466 -12.2127 -1.6991 0.9440
9.9661 -11.2028 -1.7811 0.9414
10.9350 -10.2692 -1.7819 0.9414
13.8428 -4.3624 -1.7240 0.9432
14.3199 -1.8110 -1.7146 0.9435
14.4096 -0.5197 -1.7128 0.9436
14.3998 0.7739 -1.7130 0.9436
7.7813 2.6039 -0.9747 0.9675
9.9517 9.6817 -1.6492 0.9456
5.9380 8.3235 -1.2145 0.9597
4.5736 9.7105 -1.2750 0.9577
1.5885 5.9548 -0.7321 0.9755
-0.6075 6.1604 -0.7353 0.9754
-3.0128 15.8330 -1.9145 0.9371
-4.4865 15.7336 -1.9434 0.9362
-5.9648 15.4923 -1.9720 0.9353
-7.4325 15.1051 -1.9997 0.9344
-5.3765 8.8282 -1.2278 0.9592
-11.6236 13.0802 -2.0786 0.9319
6.8325 -11.1784 -1.8563 0.9484
7.7598 -10.4576 -1.8451 0.9488
8.5884 -9.6332 -1.8286 0.9492
11.5350 -4.7949 -1.7700 0.9508
11.8731 -3.7276 -1.7632 0.9510
12.3674 -0.4327 -1.7534 0.9512
10.6794 2.5485 -1.5556 0.9566
7.3806 3.2408 -1.1421 0.9680
10.4803 7.0664 -1.7910 0.9502
9.4790 7.7122 -1.7314 0.9518
8.4821 8.2698 -1.6785 0.9533
5.2253 8.9420 -1.4674 0.9590
1.5683 5.9046 -0.8656 0.9756
1.0148 5.9169 -0.8506 0.9760
0.4775 5.9471 -0.8453 0.9762
-0.0577 5.9890 -0.8486 0.9761
-0.6018 6.0361 -0.8595 0.9758
-6.1509 12.4665 -1.9697 0.9454
-8.4718 11.4301 -2.0159 0.9441
-9.5642 10.7393 -2.0376 0.9436
-10.5936 9.9379 -2.0581 0.9430
-14.2310 7.4856 -2.2783 0.9371
-15.5442 4.8894 -2.3088 0.9363
-16.2683 2.0485 -2.3232 0.9359
-16.4057 0.5829 -2.3260 0.9358
-16.3897 -0.8897 -2.3257 0.9358
-15.9008 -3.7855 -2.3159 0.9361
-15.4356 -5.1745 -2.3067 0.9363
-14.0994 -7.7566 -2.2801 0.9371
-13.2483 -8.9223 -2.2632 0.9375
-12.2910 -9.9890 -2.2441 0.9380
-11.2252 -10.9323 -2.2201 0.9387
-9.6291 -11.2284 -2.0958 0.9420
-8.2374 -11.5598 -2.0112 0.9443
-3.1255 -11.7420 -1.7216 0.9521
-2.2648 -13.1623 -1.8924 0.9475
0.1183 -13.0204 -1.8449 0.9488
1.2689 -12.7966 -1.8220 0.9494
2.3814 -12.4780 -1.7999 0.9500
5.5284 -11.2200 -1.7723 0.9507
7.7494 -10.4671 -1.8453 0.9487
8.5789 -9.6435 -1.8288 0.9492
9.3316 -8.7634 -1.8138 0.9496
10.0050 -7.8335 -1.8004 0.9500
10.5970 -6.8601 -1.7886 0.9503
11.1059 -5.8494 -1.7785 0.9506
11.5305 -4.8076 -1.7701 0.9508
11.8695 -3.7405 -1.7633 0.9510
12.1223 -2.6541 -1.7583 0.9511
12.2883 -1.5540 -1.7550 0.9512
12.3670 -0.4461 -1.7534 0.9512
12.3584 0.6642 -1.7536 0.9512
10.7307 2.5486 -1.5627 0.9564
7.7239 2.5847 -1.1541 0.9676
7.3819 3.2319 -1.1418 0.9680
7.1546 3.9310 -1.1567 0.9676
10.4871 7.0545 -1.7908 0.9502
9.4993 7.7117 -1.7336 0.9518
8.4902 8.2598 -1.6783 0.9533
5.9380 8.3236 -1.4487 0.9595
5.2380 8.9416 -1.4683 0.9590
4.2269 8.9746 -1.4056 0.9607
2.4315 6.6524 -1.0036 0.9718
1.0214 5.9167 -0.8507 0.9760
0.4839 5.9466 -0.8453 0.9762
-0.5952 6.0364 -0.8594 0.9758
-3.7184 13.0399 -1.9213 0.9467
-4.9334 12.8135 -1.9454 0.9460
-6.1366 12.4714 -1.9694 0.9454
-5.3785 8.8316 -1.4651 0.9591
-8.4583 11.4376 -2.0156 0.9442
-9.5514 10.7483 -2.0373 0.9436
-10.5817 9.9481 -2.0578 0.9430
7.4761 -8.3856 -1.8507 0.9555
8.7334 -6.8227 -1.8257 0.9561
10.6074 -2.3104 -1.7884 0.9569
10.7542 -1.3483 -1.7855 0.9570
10.8234 -0.3787 -1.7841 0.9570
10.5646 2.5211 -1.7893 0.9569
7.6714 2.5763 -1.3331 0.9677
7.2899 3.2010 -1.3116 0.9682
7.9000 7.7023 -1.8176 0.9563
6.7635 7.8955 -1.7127 0.9587
5.9506 8.3602 -1.6905 0.9593
5.1635 8.8362 -1.6860 0.9594
2.1289 5.8439 -1.0246 0.9751
1.0049 5.8590 -0.9793 0.9762
0.4723 5.8823 -0.9722 0.9764
-0.5884 5.9020 -0.9771 0.9762
-3.1927 11.1509 -1.9108 0.9541
-5.2417 10.6238 -1.9516 0.9531
-5.3982 8.8424 -1.7067 0.9589
-7.1946 9.7068 -1.9904 0.9522
-9.8626 7.7135 -2.0627 0.9505
-12.6116 5.2504 -2.2505 0.9461
-13.6821 1.7229 -2.2718 0.9456
-13.7819 -0.7481 -2.2738 0.9456
-13.6428 -1.9779 -2.2710 0.9456
-13.3797 -3.1853 -2.2658 0.9458
-12.9965 -4.3569 -2.2581 0.9459
-11.1882 -7.5349 -2.2222 0.9468
-10.3934 -8.4467 -2.2063 0.9472
-8.5755 -9.9999 -2.1702 0.9480
-7.5746 -10.6297 -2.1503 0.9485
-6.5070 -11.1215 -2.1227 0.9491
-5.2716 -11.2083 -2.0405 0.9510
-4.0934 -11.2177 -1.9672 0.9527
-2.9877 -11.2245 -1.9135 0.9540
-0.9123 -11.2868 -1.8654 0.9551
0.1020 -11.2274 -1.8497 0.9555
2.1397 -11.2119 -1.8804 0.9548
3.2006 -11.2010 -1.9191 0.9539
5.0927 -10.3358 -1.8982 0.9544
7.4678 -8.3944 -1.8509 0.9555
10.0790 -4.2024 -1.7989 0.9567
10.3803 -3.2712 -1.7930 0.9568
10.6052 -2.3219 -1.7885 0.9569
10.7529 -1.3598 -1.7855 0.9570
10.8230 -0.3904 -1.7841 0.9570
10.7300 1.5497 -1.7860 0.9570
10.5671 2.5097 -1.7892 0.9569
7.6876 2.5726 -1.3355 0.9677
7.2899 3.1916 -1.3110 0.9683
8.6152 6.9940 -1.8281 0.9560
5.9641 8.3601 -1.6918 0.9592
5.1761 8.8358 -1.6870 0.9593
2.7700 5.8812 -1.0709 0.9740
-1.1556 6.0729 -1.0184 0.9753
-4.2118 10.9393 -1.9311 0.9536
-8.0984 9.1132 -2.0084 0.9518
-8.9582 8.4219 -2.0255 0.9514
5.9629 -8.0360 -1.8809 0.9601
6.6133 -7.4178 -1.8679 0.9604
8.6105 -4.5233 -1.8282 0.9612
8.9483 -3.7196 -1.8214 0.9613
9.2183 -2.8941 -1.8161 0.9614
9.4198 -2.0518 -1.8121 0.9615
9.5519 -1.1975 -1.8094 0.9616
9.6142 -0.3364 -1.8082 0.9616
9.5287 1.3867 -1.8099 0.9616
9.3813 2.2388 -1.8128 0.9615
8.8795 3.8989 -1.8228 0.9613
8.1085 5.4672 -1.8382 0.9610
4.7071 8.0552 -1.7536 0.9627
2.6779 5.7017 -1.1840 0.9747
0.4640 5.7794 -1.0898 0.9767
-0.5789 5.8064 -1.0968 0.9765
-2.7865 9.7319 -1.9027 0.9596
-5.4012 8.8473 -1.9484 0.9587
-6.2459 8.4269 -1.9716 0.9582
-7.0313 7.8953 -1.9872 0.9579
-9.1419 7.1498 -2.1814 0.9539
-9.8048 6.3398 -2.1946 0.9536
-10.3882 5.4643 -2.2062 0.9534
-11.2877 3.5505 -2.2241 0.9530
-11.5920 2.5315 -2.2302 0.9529
-11.7934 1.4850 -2.2342 0.9528
-11.8891 0.4225 -2.2361 0.9527
-11.8780 -0.6448 -2.2359 0.9527
-11.7600 -1.7049 -2.2335 0.9528
-8.9944 -7.3098 -2.1785 0.9539
-7.4376 -8.6730 -2.1475 0.9546
-4.7412 -10.0806 -2.0939 0.9557
-3.7840 -10.3697 -2.0748 0.9561
-1.8369 -10.6755 -2.0361 0.9569
-0.8645 -10.6946 -2.0167 0.9573
0.0966 -10.6273 -1.9976 0.9577
1.0388 -10.4766 -1.9788 0.9581
1.9554 -10.2460 -1.9606 0.9584
2.8401 -9.9395 -1.9430 0.9588
4.4916 -9.1159 -1.9101 0.9595
5.2488 -8.6082 -1.8951 0.9598
6.6058 -7.4255 -1.8681 0.9604
8.9446 -3.7294 -1.8215 0.9613
9.2155 -2.9041 -1.8161 0.9614
9.6070 0.5163 -1.8083 0.9616
9.5301 1.3764 -1.8099 0.9616
7.7623 2.5976 -1.5385 0.9672
8.8834 3.8892 -1.8227 0.9613
8.1139 5.4581 -1.8380 0.9610
7.6317 6.1955 -1.8476 0.9608
7.0871 6.8948 -1.8585 0.9606
6.4668 7.5327 -1.8660 0.9604
5.5061 7.7181 -1.7820 0.9621
4.7153 8.0493 -1.7534 0.9627
2.1083 5.7681 -1.1543 0.9753
1.5385 5.7676 -1.1220 0.9760
0.9947 5.7620 -1.0990 0.9765
0.4703 5.7792 -1.0898 0.9767
-0.5725 5.8058 -1.0966 0.9765
-1.1318 5.9477 -1.1380 0.9757
-2.7757 9.7338 -1.9025 0.9596
-5.3826 8.8383 -1.9451 0.9588
-6.2362 8.4328 -1.9714 0.9582
-7.0222 7.9022 -1.9870 0.9579
-8.1939 7.7033 -2.1139 0.9553
4.7024 -7.6934 -1.9059 0.9638
5.3373 -7.1930 -1.8933 0.9640
6.9395 -5.4213 -1.8614 0.9646
7.3639 -4.7558 -1.8530 0.9648
7.7299 -4.0607 -1.8457 0.9649
8.4641 -1.8436 -1.8311 0.9652
8.6336 0.4733 -1.8277 0.9653
8.5630 1.2462 -1.8291 0.9652
8.4291 2.0115 -1.8318 0.9652
7.6543 4.2163 -1.8472 0.9649
7.2752 4.9053 -1.8547 0.9648
5.7988 6.7693 -1.8841 0.9642
5.1989 7.3042 -1.8951 0.9640
1.5274 5.7509 -1.2578 0.9760
-1.1397 5.9545 -1.2815 0.9755
-2.4695 8.6251 -1.8964 0.9640
-3.2594 8.4384 -1.9121 0.9637
-4.0349 8.1778 -1.9276 0.9634
-5.7186 7.7154 -2.0300 0.9615
-6.6960 7.5188 -2.1282 0.9597
-8.6253 5.5771 -2.1711 0.9589
-9.1327 4.8039 -2.1812 0.9587
-10.4255 -0.5659 -2.2070 0.9582
-10.3233 -1.4966 -2.2049 0.9582
-10.1299 -2.4116 -2.2011 0.9583
-8.5105 -5.7315 -2.1689 0.9589
-6.5598 -7.6494 -2.1301 0.9596
-4.1940 -8.9171 -2.0830 0.9605
-2.4935 -9.3679 -2.0491 0.9611
-1.6301 -9.4736 -2.0320 0.9615
0.0859 -9.4509 -1.9978 0.9621
0.9248 -9.3265 -1.9811 0.9624
1.7425 -9.1305 -1.9648 0.9627
2.5334 -8.8660 -1.9491 0.9630
3.2921 -8.5366 -1.9340 0.9633
4.6945 -7.6990 -1.9061 0.9638
5.9170 -6.6513 -1.8818 0.9643
6.4526 -6.0597 -1.8711 0.9645
7.7259 -4.0692 -1.8458 0.9649
8.2786 -2.6089 -1.8348 0.9651
8.6403 -0.3116 -1.8276 0.9653
8.6340 0.4640 -1.8277 0.9653
7.6585 4.2079 -1.8471 0.9649
7.2801 4.8972 -1.8546 0.9648
6.3515 6.1792 -1.8731 0.9644
5.8056 6.7626 -1.8840 0.9642
5.2067 7.2984 -1.8951 0.9640
4.5122 7.7025 -1.8870 0.9642
2.6971 5.7265 -1.3380 0.9745
2.1029 5.7533 -1.2948 0.9753
1.5341 5.7510 -1.2582 0.9760
0.4683 5.7550 -1.2205 0.9767
-0.0493 5.7607 -1.2177 0.9767
-0.5678 5.7583 -1.2231 0.9766
-1.1317 5.9475 -1.2797 0.9756
-3.2500 8.4411 -1.9120 0.9637
-4.7796 7.8482 -1.9424 0.9631
-5.7059 7.7157 -2.0285 0.9615
-6.6870 7.5250 -2.1279 0.9597
-7.3994 6.9564 -2.1468 0.9593
4.2493 -6.9521 -1.9150 0.9671
5.3596 -6.0117 -1.8929 0.9674
5.8468 -5.4789 -1.8832 0.9676
6.2850 -4.9100 -1.8744 0.9678
7.2863 -3.0288 -1.8545 0.9681
7.5104 -2.3579 -1.8501 0.9682
7.6776 -1.6723 -1.8467 0.9682
7.8392 -0.2743 -1.8435 0.9683
7.8328 0.4294 -1.8436 0.9683
7.7682 1.1305 -1.8449 0.9683
7.2294 3.1744 -1.8556 0.9681
6.9374 3.8215 -1.8615 0.9680
6.1927 5.0384 -1.8763 0.9677
5.2459 6.1239 -1.8951 0.9674
1.5295 5.7588 -1.4004 0.9758
0.9863 5.7503 -1.3712 0.9763
-0.0552 5.7384 -1.3487 0.9767
-1.1381 5.9462 -1.4229 0.9754
-2.9821 7.7206 -1.9452 0.9666
-5.3350 7.1979 -2.1057 0.9639
-5.9958 6.7326 -2.1188 0.9636
-6.6132 6.2039 -2.1311 0.9634
-7.6912 4.9731 -2.1526 0.9631
-8.1395 4.2815 -2.1615 0.9629
-9.0614 1.9788 -2.1798 0.9626
-9.2152 1.1604 -2.1829 0.9626
-9.2883 0.3300 -2.1843 0.9625
-9.2798 -0.5037 -2.1842 0.9625
-9.1898 -1.3323 -2.1824 0.9626
-9.0193 -2.1472 -2.1790 0.9626
-7.0666 -5.7431 -2.1401 0.9633
-5.8614 -6.8350 -2.1162 0.9637
-5.1924 -7.2866 -2.1028 0.9639
-0.6902 -8.5383 -2.0133 0.9654
0.0773 -8.5008 -1.9980 0.9657
0.8325 -8.3961 -1.9830 0.9659
2.9707 -7.7033 -1.9404 0.9666
4.8195 -6.5098 -1.9036 0.9673
5.3535 -6.0178 -1.8930 0.9674
5.8412 -5.4855 -1.8833 0.9676
6.2801 -4.9170 -1.8745 0.9678
6.6679 -4.3166 -1.8668 0.9679
7.0029 -3.6884 -1.8602 0.9680
7.5080 -2.3661 -1.8501 0.9682
7.6760 -1.6806 -1.8468 0.9682
7.7864 -0.9847 -1.8446 0.9683
7.8389 -0.2827 -1.8435 0.9683
7.7693 1.1221 -1.8449 0.9683
7.4683 2.4992 -1.8509 0.9682
7.2326 3.1665 -1.8556 0.9681
6.9413 3.8138 -1.8614 0.9680
6.5958 4.4369 -1.8683 0.9679
5.7491 5.5931 -1.8851 0.9676
5.2521 6.1178 -1.8950 0.9674
4.7094 6.6013 -1.9058 0.9672
4.1238 7.0396 -1.9174 0.9670
1.5362 5.7587 -1.4008 0.9758
0.9927 5.7506 -1.3715 0.9763
0.4683 5.7552 -1.3571 0.9766
-0.0491 5.7383 -1.3487 0.9767
-2.9726 7.7207 -1.9444 0.9666
-5.3268 7.2031 -2.1055 0.9639
-5.9881 6.7385 -2.1187 0.9636
-6.6061 6.2106 -2.1310 0.9634
4.4003 -5.9301 -1.9120 0.9699
4.8891 -5.4838 -1.9022 0.9701
6.4011 -3.3626 -1.8721 0.9706
6.6585 -2.7678 -1.8670 0.9706
7.1196 -0.8926 -1.8578 0.9708
7.1673 -0.2508 -1.8569 0.9708
7.1614 0.3926 -1.8570 0.9708
6.8236 2.2916 -1.8637 0.9707
6.6061 2.9007 -1.8681 0.9706
6.0195 4.0586 -1.8797 0.9704
5.6533 4.5996 -1.8870 0.9703
5.2410 5.1098 -1.8952 0.9702
4.7848 5.5856 -1.9043 0.9701
4.2871 6.0231 -1.9142 0.9699
3.7508 6.4187 -1.9249 0.9697
1.5290 5.7568 -1.5422 0.9757
-0.0554 5.7516 -1.4893 0.9765
-0.5745 5.7626 -1.4994 0.9764
-4.1918 6.8664 -2.0829 0.9673
-4.8190 6.5018 -2.0954 0.9671
-5.4127 6.0778 -2.1072 0.9669
-5.9667 5.5973 -2.1182 0.9668
-6.4751 5.0641 -2.1284 0.9666
-6.9324 4.4825 -2.1375 0.9665
-7.3335 3.8575 -2.1454 0.9663
-7.6739 3.1948 -2.1522 0.9662
-7.9496 2.5005 -2.1577 0.9662
-8.1573 1.7814 -2.1618 0.9661
-8.2718 -1.1992 -2.1641 0.9661
-7.8976 -2.6475 -2.1567 0.9662
-6.3731 -5.1794 -2.1263 0.9666
-5.2920 -6.1709 -2.1048 0.9670
-4.0574 -6.9347 -2.0803 0.9673
-2.0265 -7.6132 -2.0398 0.9680
0.0701 -7.7169 -1.9981 0.9686
0.7563 -7.6270 -1.9845 0.9688
1.4271 -7.4779 -1.9711 0.9690
2.0778 -7.2718 -1.9582 0.9692
3.8657 -6.3399 -1.9226 0.9698
4.3942 -5.9352 -1.9121 0.9699
4.8834 -5.4894 -1.9023 0.9701
5.7336 -4.4891 -1.8854 0.9704
6.3977 -3.3697 -1.8722 0.9706
7.0171 -1.5363 -1.8599 0.9708
7.1671 -0.2585 -1.8569 0.9708
6.9908 1.6604 -1.8604 0.9707
6.8259 2.2842 -1.8637 0.9707
6.6090 2.8935 -1.8680 0.9706
6.3411 3.4841 -1.8733 0.9705
6.0236 4.0520 -1.8796 0.9704
5.2462 5.1039 -1.8951 0.9702
4.7905 5.5801 -1.9042 0.9701
4.2933 6.0181 -1.9141 0.9699
2.7621 5.8645 -1.6784 0.9736
2.1043 5.7572 -1.5871 0.9750
0.9942 5.7590 -1.5132 0.9761
0.4681 5.7526 -1.4944 0.9764
-0.0492 5.7536 -1.4898 0.9765
-2.1575 7.5662 -2.0371 0.9680
-2.8499 7.4021 -2.0537 0.9678
-3.5293 7.1725 -2.0697 0.9675
-4.1841 6.8704 -2.0828 0.9673
-4.8117 6.5065 -2.0953 0.9671
-5.4058 6.0832 -2.1071 0.9669
3.5533 -5.8134 -1.9288 0.9721
4.0396 -5.4441 -1.9191 0.9722
5.2738 -4.1200 -1.8946 0.9726
6.1245 -2.5459 -1.8776 0.9728
6.4577 -1.4066 -1.8710 0.9729
6.5513 -0.8213 -1.8691 0.9729
6.5900 0.3613 -1.8684 0.9729
6.5349 0.9510 -1.8695 0.9729
6.4305 1.5346 -1.8715 0.9729
5.5337 3.7311 -1.8894 0.9726
5.1955 4.2271 -1.8961 0.9725
4.3941 5.1295 -1.9121 0.9723
3.9353 5.5289 -1.9212 0.9722
2.6940 5.7359 -1.7940 0.9740
2.1032 5.7735 -1.7395 0.9748
1.5318 5.7674 -1.6893 0.9755
0.4629 5.7653 -1.6374 0.9762
-0.0553 5.7456 -1.6266 0.9764
-1.3456 7.0301 -2.0263 0.9707
-1.9825 6.9242 -2.0390 0.9705
-2.6111 6.7599 -2.0515 0.9703
-3.8202 6.2577 -2.0755 0.9700
-4.3895 5.9223 -2.0869 0.9698
-5.8897 4.6063 -2.1167 0.9694
-6.3033 4.0757 -2.1249 0.9693
-6.9731 2.9030 -2.1383 0.9691
-7.2219 2.2716 -2.1432 0.9690
-7.4093 1.6181 -2.1470 0.9690
-7.5920 0.2698 -2.1506 0.9689
-7.5126 -1.0891 -2.1490 0.9689
-7.3754 -1.7558 -2.1463 0.9690
-7.1750 -2.4053 -2.1423 0.9690
-6.5946 -3.6279 -2.1307 0.9692
-5.3282 -5.1892 -2.1055 0.9696
-3.6981 -6.3207 -2.0731 0.9700
-1.2122 -7.0448 -2.0236 0.9707
-0.5723 -7.0802 -2.0109 0.9709
1.3068 -6.8476 -1.9735 0.9714
1.9038 -6.6626 -1.9616 0.9716
3.0277 -6.1448 -1.9393 0.9719
3.5472 -5.8176 -1.9289 0.9721
4.0340 -5.4487 -1.9192 0.9722
4.8977 -4.5995 -1.9021 0.9725
6.1219 -2.5525 -1.8777 0.9728
6.5952 -0.2379 -1.8683 0.9729
6.5903 0.3542 -1.8684 0.9729
6.4320 1.5276 -1.8715 0.9729
6.2794 2.1013 -1.8746 0.9728
6.0787 2.6613 -1.8785 0.9728
5.8310 3.2038 -1.8835 0.9727
5.5375 3.7250 -1.8893 0.9726
4.8197 4.6890 -1.9036 0.9724
3.4476 5.8853 -1.9309 0.9720
2.7005 5.7336 -1.7942 0.9740
0.4691 5.7652 -1.6375 0.9762
-1.3379 7.0310 -2.0261 0.9707
-3.8132 6.2614 -2.0754 0.9700
-4.3828 5.9266 -2.0867 0.9698
-4.9215 5.5383 -2.0974 0.9697
-5.4238 5.0991 -2.1074 0.9695
3.2797 -5.3657 -1.9343 0.9740
5.1794 -3.3451 -1.8964 0.9745
5.4433 -2.8595 -1.8912 0.9746
5.8417 -1.8340 -1.8833 0.9747
5.9742 -1.3013 -1.8806 0.9747
6.0612 -0.7599 -1.8789 0.9748
6.1023 -0.2135 -1.8781 0.9748
6.0972 0.3343 -1.8782 0.9748
5.9489 1.4197 -1.8811 0.9747
5.3887 2.9683 -1.8923 0.9746
5.1156 3.4493 -1.8977 0.9745
4.8017 3.9067 -1.9040 0.9744
4.4486 4.3372 -1.9110 0.9743
4.0584 4.7377 -1.9187 0.9742
3.6334 5.1047 -1.9272 0.9741
2.6897 5.7266 -1.9460 0.9739
1.6415 6.1804 -1.9668 0.9736
1.0871 6.3379 -1.9779 0.9734
0.5176 6.4466 -1.9892 0.9733
-0.0553 5.7474 -1.7678 0.9762
-0.5750 5.7671 -1.7826 0.9760
-1.2371 6.4635 -2.0241 0.9728
-1.8219 6.3630 -2.0358 0.9727
-2.9612 6.0017 -2.0584 0.9724
-3.5055 5.7421 -2.0693 0.9722
-4.0261 5.4319 -2.0796 0.9721
-4.5179 5.0730 -2.0894 0.9720
-6.1029 3.2102 -2.1210 0.9716
-6.3827 2.6573 -2.1265 0.9715
-6.6092 2.0789 -2.1310 0.9714
-6.7797 1.4806 -2.1344 0.9714
-6.8923 0.8679 -2.1367 0.9713
-6.9458 0.2468 -2.1377 0.9713
-6.8737 -0.9965 -2.1363 0.9714
-6.0381 -3.3218 -2.1197 0.9716
-4.8835 -4.7561 -2.0967 0.9719
-3.9197 -5.5007 -2.0775 0.9721
-3.3938 -5.8005 -2.0671 0.9723
-2.8452 -6.0492 -2.0561 0.9724
-2.2790 -6.2455 -2.0449 0.9726
-1.7005 -6.3884 -2.0334 0.9727
-0.5265 -6.5136 -2.0100 0.9730
0.0590 -6.4967 -1.9983 0.9732
1.2041 -6.3091 -1.9756 0.9735
1.7549 -6.1415 -1.9646 0.9736
3.2741 -5.3695 -1.9344 0.9740
4.1427 -4.6568 -1.9171 0.9743
4.5254 -4.2498 -1.9095 0.9744
4.8705 -3.8134 -1.9026 0.9744
5.8399 -1.8403 -1.8833 0.9747
5.9729 -1.3077 -1.8807 0.9747
6.0605 -0.7664 -1.8789 0.9748
6.0469 0.8733 -1.8792 0.9748
4.8057 3.9013 -1.9039 0.9744
4.0633 4.7330 -1.9187 0.9742
3.6387 5.1005 -1.9271 0.9741
2.6957 5.7234 -1.9459 0.9739
1.6480 6.1782 -1.9667 0.9736
1.0938 6.3364 -1.9777 0.9734
0.5245 6.4456 -1.9891 0.9733
-0.0492 5.7499 -1.7686 0.9762
-1.2301 6.4644 -2.0240 0.9728
-2.9545 6.0045 -2.0583 0.9724
3.8496 -4.3179 -1.9229 0.9759
4.2056 -3.9410 -1.9158 0.9760
4.8111 -3.1072 -1.9038 0.9761
5.0572 -2.6566 -1.8989 0.9762
5.2635 -2.1880 -1.8948 0.9763
5.4290 -1.7044 -1.8915 0.9763
5.5527 -1.2095 -1.8890 0.9763
5.6339 -0.7063 -1.8874 0.9764
5.6722 -0.1985 -1.8866 0.9764
5.6675 0.3107 -1.8867 0.9764
5.6197 0.8178 -1.8877 0.9763
5.5290 1.3195 -1.8895 0.9763
5.3961 1.8122 -1.8921 0.9763
5.0063 2.7577 -1.8999 0.9762
4.4590 3.6278 -1.9108 0.9761
4.1300 4.0266 -1.9173 0.9760
3.3711 4.7362 -1.9324 0.9758
2.0176 5.5384 -1.9594 0.9755
1.0067 5.8693 -1.9795 0.9752
0.4791 5.9674 -1.9900 0.9751
-0.6003 6.0214 -2.0115 0.9748
-1.6835 5.8798 -2.0330 0.9745
-2.2152 5.7350 -2.0436 0.9744
-2.7340 5.5412 -2.0539 0.9743
-3.2352 5.2995 -2.0639 0.9742
-3.7142 5.0112 -2.0734 0.9740
-4.5873 4.3034 -2.0908 0.9738
-6.3883 -0.3468 -2.1266 0.9734
-6.3280 -0.9174 -2.1254 0.9734
-5.5621 -3.0599 -2.1102 0.9736
-4.5024 -4.3849 -2.0891 0.9739
-4.0746 -4.7514 -2.0806 0.9740
-2.6271 -5.5856 -2.0518 0.9743
-2.1052 -5.7692 -2.0414 0.9744
-1.5715 -5.9038 -2.0308 0.9746
0.0546 -6.0118 -1.9984 0.9750
0.5901 -5.9508 -1.9878 0.9751
2.5901 -5.2568 -1.9480 0.9756
3.8451 -4.3223 -1.9230 0.9759
4.8079 -3.1125 -1.9038 0.9761
5.2613 -2.1937 -1.8948 0.9763
5.4273 -1.7103 -1.8915 0.9763
5.5514 -1.2154 -1.8890 0.9763
5.6332 -0.7124 -1.8874 0.9764
5.6720 -0.2046 -1.8866 0.9764
5.6678 0.3046 -1.8867 0.9764
5.6205 0.8118 -1.8877 0.9763
5.5304 1.3135 -1.8895 0.9763
5.3979 1.8064 -1.8921 0.9763
5.0091 2.7522 -1.8998 0.9762
4.4627 3.6229 -1.9107 0.9761
4.1341 4.0220 -1.9172 0.9760
3.7712 4.3928 -1.9245 0.9759
2.9512 5.0378 -1.9408 0.9757
2.4993 5.3065 -1.9498 0.9756
1.5268 5.7237 -1.9691 0.9753
1.0129 5.8679 -1.9794 0.9752
0.4855 5.9665 -1.9898 0.9751
-0.0515 6.0181 -2.0005 0.9750
-1.6771 5.8812 -2.0329 0.9746
-2.2089 5.7370 -2.0435 0.9744
-3.7087 5.0150 -2.0733 0.9741
-4.1612 4.6826 -2.0823 0.9739
3.2249 -4.3461 -1.9353 0.9773
3.9208 -3.6741 -1.9215 0.9774
4.7175 -2.4782 -1.9056 0.9776
4.9107 -2.0413 -1.9018 0.9777
5.0657 -1.5904 -1.8987 0.9777
5.1815 -1.1286 -1.8964 0.9777
5.0348 1.6909 -1.8993 0.9777
4.4315 2.9880 -1.9113 0.9776
3.5105 4.0980 -1.9297 0.9773
3.1410 4.4129 -1.9370 0.9773
2.7440 4.6957 -1.9449 0.9772
2.3221 4.9440 -1.9533 0.9771
1.4151 5.3279 -1.9713 0.9769
0.9364 5.4595 -1.9809 0.9767
-0.0539 5.5941 -2.0006 0.9765
-0.5578 5.5947 -2.0106 0.9764
-1.0622 5.5497 -2.0206 0.9763
-2.5364 5.1408 -2.0500 0.9759
-3.0004 4.9149 -2.0592 0.9758
-3.4435 4.6460 -2.0680 0.9757
-4.2504 3.9873 -2.0841 0.9755
-4.9255 3.1848 -2.0975 0.9754
-5.2049 2.7378 -2.1031 0.9753
-5.4414 2.2654 -2.1078 0.9753
-5.6327 1.7718 -2.1116 0.9752
-5.7767 1.2615 -2.1145 0.9752
-5.7507 -1.3690 -2.1139 0.9752
-5.5967 -1.8762 -2.1109 0.9752
-5.1501 -2.8332 -2.1020 0.9753
-4.8621 -3.2745 -2.0963 0.9754
-4.5349 -3.6856 -2.0898 0.9755
-3.3531 -4.7055 -2.0662 0.9758
-2.9053 -4.9656 -2.0573 0.9759
-1.9540 -5.3547 -2.0384 0.9761
-1.4591 -5.4817 -2.0286 0.9762
-0.9572 -5.5629 -2.0186 0.9763
-0.4525 -5.5983 -2.0085 0.9764
0.0508 -5.5883 -1.9985 0.9765
0.5487 -5.5337 -1.9886 0.9767
1.0373 -5.4355 -1.9789 0.9768
1.5130 -5.2952 -1.9694 0.9769
2.4120 -4.8952 -1.9515 0.9771
5.0641 -1.5959 -1.8987 0.9777
5.1804 -1.1342 -1.8964 0.9777
5.2570 -0.6648 -1.8949 0.9777
5.0366 1.6854 -1.8993 0.9777
4.8736 2.1337 -1.9025 0.9777
4.6725 2.5673 -1.9065 0.9776
4.4346 2.9831 -1.9113 0.9776
4.1612 3.3781 -1.9167 0.9775
3.8540 3.7494 -1.9228 0.9774
2.7489 4.6925 -1.9448 0.9772
1.8835 5.1531 -1.9620 0.9770
0.4515 5.5479 -1.9905 0.9766
-0.5517 5.5949 -2.0105 0.9764
-1.5570 5.4604 -2.0305 0.9762
-2.0500 5.3244 -2.0403 0.9761
-2.5308 5.1433 -2.0499 0.9759
-3.8567 4.3400 -2.0763 0.9756
2.6494 -4.3345 -1.9468 0.9785
3.3562 -3.7645 -1.9327 0.9786
3.6683 -3.4375 -1.9265 0.9787
4.1999 -2.7124 -1.9159 0.9788
4.4161 -2.3199 -1.9116 0.9789
4.5976 -1.9111 -1.9080 0.9789
4.7431 -1.4891 -1.9051 0.9789
4.7141 1.5832 -1.9057 0.9789
4.5606 2.0025 -1.9088 0.9789
4.3714 2.4079 -1.9125 0.9788
3.2835 3.8331 -1.9342 0.9786
2.9372 4.1266 -1.9411 0.9785
-0.0503 5.2201 -2.0005 0.9779
-1.9158 4.9600 -2.0376 0.9775
-4.2853 3.3515 -2.0848 0.9770
-4.5813 2.9623 -2.0907 0.9769
-4.8403 2.5460 -2.0958 0.9768
-5.0595 2.1064 -2.1002 0.9768
-5.2367 1.6472 -2.1037 0.9768
-5.3700 1.1727 -2.1064 0.9767
-2.2983 0.0817 -0.8813 0.9902
-2.3020 -0.1250 -0.8834 0.9902
-5.4434 -0.7892 -2.1078 0.9767
-5.0172 -2.1997 -2.0994 0.9768
-4.7895 -2.6349 -2.0948 0.9769
-4.5225 -3.0458 -2.0895 0.9769
-3.5154 -4.0993 -2.0695 0.9771
-2.2709 -4.8282 -2.0447 0.9774
-1.8210 -4.9904 -2.0358 0.9775
-0.8927 -5.1878 -2.0173 0.9777
-0.4221 -5.2226 -2.0079 0.9778
0.0474 -5.2150 -1.9986 0.9779
0.5122 -5.1657 -1.9893 0.9780
0.9687 -5.0758 -1.9802 0.9781
1.8429 -4.7789 -1.9628 0.9783
2.2544 -4.5754 -1.9547 0.9784
3.0116 -4.0678 -1.9396 0.9786
3.6647 -3.4416 -1.9266 0.9787
4.4137 -2.3247 -1.9117 0.9789
4.5956 -1.9161 -1.9081 0.9789
4.7416 -1.4943 -1.9052 0.9789
4.9228 -0.6226 -1.9016 0.9790
4.9571 -0.1788 -1.9009 0.9790
4.9533 0.2662 -1.9009 0.9790
4.7158 1.5781 -1.9057 0.9789
4.5626 1.9976 -1.9087 0.9789
3.6056 3.5078 -1.9278 0.9787
3.2875 3.8294 -1.9341 0.9786
2.9415 4.1232 -1.9410 0.9785
2.5699 4.3869 -1.9484 0.9785
1.7599 4.8148 -1.9645 0.9783
0.8798 5.0966 -1.9820 0.9781
-0.0447 5.2198 -2.0004 0.9779
-0.5147 5.2191 -2.0098 0.9778
-1.4515 5.0902 -2.0284 0.9776
-1.9104 4.9618 -2.0375 0.9775
-2.3577 4.7915 -2.0464 0.9774
-2.7893 4.5800 -2.0550 0.9773
-3.2012 4.3288 -2.0632 0.9772
-3.9510 3.7144 -2.0781 0.9770
2.4849 -4.0654 -1.9501 0.9796
2.8293 -3.8129 -1.9432 0.9797
3.1492 -3.5324 -1.9368 0.9798
3.4427 -3.2261 -1.9310 0.9798
3.9430 -2.5465 -1.9211 0.9799
4.5571 -0.9926 -1.9088 0.9800
4.6244 -0.5798 -1.9075 0.9801
4.6563 -0.1629 -1.9069 0.9801
4.6523 0.2551 -1.9069 0.9801
4.5375 1.0828 -1.9092 0.9800
4.4272 1.4868 -1.9114 0.9800
4.2826 1.8805 -1.9143 0.9800
3.8938 2.6254 -1.9220 0.9799
3.6519 2.9712 -1.9268 0.9799
2.7553 3.8711 -1.9447 0.9797
2.4059 4.1171 -1.9516 0.9796
2.0349 4.3325 -1.9590 0.9795
1.6449 4.5152 -1.9668 0.9794
1.2386 4.6636 -1.9749 0.9794
0.8191 4.7759 -1.9832 0.9793
-0.0470 4.8876 -2.0004 0.9791
-0.4870 4.8850 -2.0092 0.9790
-1.3630 4.7605 -2.0266 0.9788
-1.7917 4.6386 -2.0352 0.9787
-2.2092 4.4776 -2.0435 0.9787
-2.6118 4.2783 -2.0515 0.9786
-2.9958 4.0420 -2.0591 0.9785
-4.2772 2.7657 -2.0846 0.9782
-4.7222 1.9660 -2.0935 0.9781
-4.8871 1.5372 -2.0968 0.9781
-2.0202 0.2544 -0.8333 0.9912
-2.0061 -0.1089 -0.8222 0.9914
-2.0982 -0.4995 -0.8827 0.9907
-4.8560 -1.6279 -2.0961 0.9781
-4.6829 -2.0532 -2.0927 0.9781
-4.4710 -2.4596 -2.0885 0.9782
-4.2225 -2.8437 -2.0835 0.9782
-3.6262 -3.5316 -2.0717 0.9784
-2.9175 -4.0942 -2.0576 0.9785
-1.7031 -4.6673 -2.0334 0.9788
-0.3952 -4.8888 -2.0074 0.9790
0.0444 -4.8831 -1.9986 0.9791
0.4798 -4.8384 -1.9900 0.9792
0.9076 -4.7555 -1.9815 0.9793
2.1139 -4.2902 -1.9575 0.9795
2.8253 -3.8161 -1.9433 0.9797
3.4394 -3.2300 -1.9311 0.9798
3.7049 -2.9007 -1.9258 0.9799
3.9403 -2.5508 -1.9211 0.9799
4.1443 -2.1828 -1.9170 0.9800
4.6239 -0.5847 -1.9075 0.9801
4.6526 0.2501 -1.9069 0.9801
4.5386 1.0779 -1.9092 0.9800
4.2845 1.8758 -1.9143 0.9800
4.1068 2.2564 -1.9178 0.9800
3.6550 2.9672 -1.9268 0.9799
3.3838 3.2920 -1.9322 0.9798
2.7594 3.8680 -1.9446 0.9797
1.6496 4.5133 -1.9667 0.9794
1.2436 4.6620 -1.9748 0.9794
0.8242 4.7748 -1.9831 0.9793
0.3947 4.8503 -1.9917 0.9792
-0.0418 4.8874 -2.0003 0.9791
-0.4817 4.8852 -2.0091 0.9790
-2.9914 4.0450 -2.0590 0.9785
2.6615 -3.5868 -1.9466 0.9807
3.2398 -3.0360 -1.9350 0.9808
3.7117 -2.3971 -1.9257 0.9809
3.9038 -2.0507 -1.9218 0.9809
4.1946 -1.3169 -1.9160 0.9810
4.2914 -0.9347 -1.9141 0.9810
4.3550 -0.5460 -1.9128 0.9810
4.3851 -0.1534 -1.9123 0.9810
4.3439 0.6322 -1.9131 0.9810
4.0323 1.7706 -1.9193 0.9810
3.8641 2.1285 -1.9226 0.9809
3.4371 2.7965 -1.9311 0.9809
3.1810 3.1014 -1.9362 0.9808
2.8987 3.3838 -1.9418 0.9807
2.2626 3.8720 -1.9545 0.9806
1.9133 4.0737 -1.9614 0.9806
1.1641 4.3829 -1.9763 0.9804
0.7696 4.4873 -1.9842 0.9803
0.3658 4.5566 -1.9922 0.9803
-0.0442 4.5898 -2.0004 0.9802
-1.2790 4.4669 -2.0250 0.9799
-1.6808 4.3514 -2.0330 0.9799
-2.0719 4.1993 -2.0407 0.9798
-2.4489 4.0114 -2.0482 0.9797
-3.1469 3.5335 -2.0621 0.9796
-3.4614 3.2471 -2.0684 0.9795
-4.0063 2.5905 -2.0792 0.9794
-4.2315 2.2258 -2.0837 0.9794
-4.4220 1.8409 -2.0875 0.9793
-1.4939 0.4699 -0.6825 0.9932
-1.4811 0.3234 -0.6607 0.9934
-1.4729 0.1855 -0.6470 0.9935
-1.4450 0.0514 -0.6301 0.9937
-1.4737 -0.2136 -0.6490 0.9935
-1.4922 -0.5002 -0.6859 0.9932
-4.3852 -1.9227 -2.0868 0.9793
-4.1873 -2.3036 -2.0828 0.9794
-3.6912 -2.9999 -2.0730 0.9795
-3.0781 -3.5894 -2.0608 0.9796
-1.9914 -4.2340 -2.0391 0.9798
-0.7841 -4.5568 -2.0151 0.9800
0.0417 -4.5859 -1.9987 0.9802
0.4507 -4.5451 -1.9905 0.9803
1.6241 -4.2115 -1.9672 0.9805
1.9877 -4.0341 -1.9600 0.9806
2.3330 -3.8262 -1.9531 0.9806
3.2367 -3.0396 -1.9351 0.9808
3.9017 -2.0550 -1.9219 0.9809
4.0634 -1.6942 -1.9187 0.9810
4.1932 -1.3214 -1.9161 0.9810
4.3545 -0.5507 -1.9129 0.9810
4.3849 -0.1581 -1.9123 0.9810
4.3816 0.2355 -1.9123 0.9810
4.2739 1.0151 -1.9145 0.9810
2.5957 3.6385 -1.9479 0.9807
1.9176 4.0714 -1.9614 0.9806
1.1688 4.3814 -1.9763 0.9804
0.7744 4.4863 -1.9841 0.9803
-0.4523 4.5864 -2.0085 0.9801
-1.6760 4.3530 -2.0329 0.9799
-2.4444 4.0138 -2.0482 0.9797
-2.8041 3.7918 -2.0553 0.9796
-3.4577 3.2507 -2.0683 0.9795
3.0561 -2.8639 -1.9387 0.9817
3.2925 -2.5722 -1.9340 0.9818
3.6839 -1.9352 -1.9262 0.9818
3.8365 -1.5947 -1.9232 0.9819
3.9590 -1.2429 -1.9207 0.9819
4.0506 -0.8823 -1.9189 0.9819
4.1108 -0.5154 -1.9177 0.9819
4.1357 0.2267 -1.9172 0.9819
3.9346 1.3214 -1.9212 0.9819
3.8054 1.6709 -1.9238 0.9818
3.4583 2.3318 -1.9307 0.9818
2.7338 3.1913 -1.9451 0.9816
2.4440 3.4336 -1.9509 0.9816
2.1331 3.6504 -1.9571 0.9815
1.8034 3.8397 -1.9636 0.9815
1.4571 3.9999 -1.9705 0.9814
0.7250 4.2268 -1.9851 0.9813
-0.4304 4.3168 -2.0081 0.9811
-0.8187 4.2772 -2.0158 0.9810
-1.5809 4.0929 -2.0310 0.9808
-1.9484 3.9489 -2.0383 0.9808
-2.3024 3.7714 -2.0453 0.9807
-2.9574 3.3208 -2.0584 0.9806
-1.2487 0.5199 -0.6261 0.9941
-1.2677 0.2769 -0.6006 0.9943
-1.2688 -0.0689 -0.5882 0.9944
-1.2695 -0.3022 -0.6041 0.9943
-1.2486 -0.5474 -0.6311 0.9940
-3.7154 -2.5022 -2.0734 0.9804
-3.4679 -2.8184 -2.0685 0.9805
-2.8930 -3.3735 -2.0571 0.9806
-2.2298 -3.8111 -2.0439 0.9807
-1.8728 -3.9818 -2.0368 0.9808
-1.5029 -4.1186 -2.0294 0.9809
-1.1235 -4.2210 -2.0219 0.9809
-0.7379 -4.2884 -2.0142 0.9810
-0.3492 -4.3206 -2.0065 0.9811
0.4244 -4.2804 -1.9911 0.9812
0.8033 -4.2092 -1.9835 0.9813
1.8736 -3.8026 -1.9622 0.9815
2.7914 -3.1377 -1.9440 0.9817
3.2898 -2.5758 -1.9340 0.9818
3.6819 -1.9392 -1.9262 0.9818
3.8348 -1.5989 -1.9232 0.9819
3.9577 -1.2472 -1.9208 0.9819
4.1102 -0.5198 -1.9177 0.9819
4.1359 0.2223 -1.9172 0.9819
3.9359 1.3171 -1.9212 0.9819
3.2454 2.6346 -1.9349 0.9817
2.7371 3.1883 -1.9450 0.9816
2.1370 3.6480 -1.9570 0.9815
1.8075 3.8376 -1.9635 0.9815
0.3491 4.2905 -1.9926 0.9812
-0.0369 4.3211 -2.0002 0.9811
-0.4257 4.3170 -2.0080 0.9811
-1.1987 4.2037 -2.0234 0.9809
-1.9440 3.9509 -2.0382 0.9808
-2.2982 3.7737 -2.0452 0.9807
-2.6358 3.5642 -2.0520 0.9807
2.6413 -2.9626 -1.9470 0.9825
3.1127 -2.4317 -1.9376 0.9826
3.8881 -0.4874 -1.9221 0.9827
3.9151 -0.1370 -1.9216 0.9827
3.8781 0.5644 -1.9223 0.9827
3.8144 0.9103 -1.9236 0.9827
3.7211 1.2497 -1.9255 0.9827
3.5987 1.5802 -1.9279 0.9826
3.4479 1.8993 -1.9309 0.9826
3.2698 2.2047 -1.9344 0.9826
3.0655 2.4941 -1.9385 0.9825
2.8363 2.7653 -1.9431 0.9825
2.5837 3.0162 -1.9481 0.9825
2.0154 3.4488 -1.9594 0.9824
1.7035 3.6271 -1.9656 0.9823
0.6844 3.9903 -1.9859 0.9821
0.3252 4.0501 -1.9930 0.9821
-0.4060 4.0726 -2.0076 0.9819
-0.7722 4.0344 -2.0149 0.9819
-1.8366 3.7224 -2.0361 0.9817
-2.1699 3.5543 -2.0427 0.9816
-3.3169 2.5941 -2.0655 0.9814
-3.5438 2.2914 -2.0700 0.9814
-1.0973 0.5772 -0.6082 0.9945
-1.1348 0.2478 -0.5698 0.9948
-1.1442 0.1441 -0.5657 0.9949
-1.1328 -0.2697 -0.5712 0.9948
-1.1028 -0.4835 -0.5906 0.9946
-1.1124 -0.6120 -0.6228 0.9944
-3.2662 -2.6544 -2.0645 0.9814
-3.0076 -2.9291 -2.0594 0.9815
-2.7255 -3.1782 -2.0538 0.9815
-2.4226 -3.3997 -2.0477 0.9816
-2.1016 -3.5919 -2.0413 0.9816
-1.7654 -3.7535 -2.0346 0.9817
-1.4170 -3.8833 -2.0277 0.9818
-0.3295 -4.0763 -2.0061 0.9819
0.4006 -4.0402 -1.9915 0.9821
1.7699 -3.5921 -1.9643 0.9823
3.1102 -2.4351 -1.9376 0.9826
3.4816 -1.8338 -1.9302 0.9826
3.6266 -1.5120 -1.9273 0.9826
3.8302 -0.8386 -1.9233 0.9827
3.8876 -0.4916 -1.9222 0.9827
3.9149 -0.1412 -1.9216 0.9827
3.8787 0.5602 -1.9223 0.9827
3.2721 2.2011 -1.9344 0.9826
2.5869 3.0133 -1.9480 0.9825
2.0190 3.4465 -1.9593 0.9824
1.0398 3.8978 -1.9788 0.9822
0.6887 3.9894 -1.9858 0.9821
0.3295 4.0495 -1.9930 0.9821
-0.0349 4.0775 -2.0002 0.9820
-0.4016 4.0728 -2.0075 0.9819
-0.7678 4.0350 -2.0148 0.9819
-1.4863 3.8603 -2.0291 0.9817
-1.8325 3.7242 -2.0360 0.9817
-3.0604 2.8771 -2.0604 0.9815
2.2454 -3.0260 -1.9548 0.9832
2.7358 -2.5637 -1.9451 0.9832
2.9482 -2.3032 -1.9408 0.9833
3.4373 -1.4288 -1.9311 0.9834
3.5475 -1.1137 -1.9289 0.9834
3.6299 -0.7906 -1.9273 0.9834
3.6841 -0.4619 -1.9262 0.9834
3.7097 -0.1298 -1.9257 0.9834
3.6746 0.5348 -1.9264 0.9834
3.5255 1.1840 -1.9294 0.9834
3.0972 2.0883 -1.9379 0.9833
2.9033 2.3622 -1.9417 0.9833
2.4464 2.8559 -1.9508 0.9832
1.9077 3.2646 -1.9615 0.9831
1.6122 3.4327 -1.9674 0.9831
1.3022 3.5745 -1.9736 0.9830
0.9797 3.6888 -1.9800 0.9829
0.6474 3.7743 -1.9866 0.9829
-0.3838 3.8499 -2.0071 0.9827
-1.0722 3.7449 -2.0208 0.9826
-1.4082 3.6458 -2.0275 0.9825
-2.3487 3.1689 -2.0462 0.9824
-2.8919 2.7129 -2.0571 0.9823
-3.1306 2.4484 -2.0618 0.9823
-3.3443 2.1625 -2.0661 0.9822
-0.9606 0.5053 -0.5631 0.9951
-1.0370 0.1306 -0.5422 0.9953
-1.0128 -0.3395 -0.5542 0.9952
-3.3019 -2.2237 -2.0652 0.9822
-3.0828 -2.5054 -2.0609 0.9823
-2.2876 -3.2103 -2.0450 0.9824
-1.9848 -3.3924 -2.0390 0.9824
-1.6676 -3.5456 -2.0327 0.9825
-1.3388 -3.6690 -2.0262 0.9826
-1.0013 -3.7617 -2.0194 0.9826
-0.6579 -3.8233 -2.0126 0.9827
1.9673 -3.2263 -1.9604 0.9831
2.2422 -3.0286 -1.9549 0.9832
2.4981 -2.8081 -1.9498 0.9832
2.9458 -2.3064 -1.9409 0.9833
3.2982 -1.7371 -1.9339 0.9833
3.5463 -1.1176 -1.9289 0.9834
3.6291 -0.7946 -1.9273 0.9834
3.7067 0.1992 -1.9258 0.9834
3.6150 0.8586 -1.9276 0.9834
3.4109 1.4933 -1.9316 0.9834
3.0994 2.0849 -1.9378 0.9833
2.6887 2.6157 -1.9460 0.9832
2.4494 2.8531 -1.9508 0.9832
2.1896 3.0693 -1.9559 0.9832
1.9111 3.2624 -1.9615 0.9831
1.6159 3.4308 -1.9674 0.9831
1.3060 3.5730 -1.9735 0.9830
0.9837 3.6876 -1.9799 0.9829
0.6514 3.7735 -1.9865 0.9829
-0.3797 3.8501 -2.0071 0.9827
-1.0682 3.7459 -2.0208 0.9826
-1.4042 3.6471 -2.0275 0.9825
-1.7310 3.5179 -2.0340 0.9825
-2.3452 3.1713 -2.0462 0.9824
-2.6272 2.9564 -2.0518 0.9823
-2.8889 2.7159 -2.0570 0.9823
1.8685 -3.0570 -1.9623 0.9838
2.7968 -2.1849 -1.9439 0.9839
2.9759 -1.9219 -1.9403 0.9840
3.2616 -1.3558 -1.9346 0.9840
1.8811 -0.0658 -1.0309 0.9915
1.8849 0.1034 -1.0339 0.9914
1.8883 0.2748 -1.0451 0.9913
3.0991 1.7071 -1.9378 0.9840
2.9384 1.9812 -1.9410 0.9840
2.7542 2.2409 -1.9447 0.9839
2.5477 2.4839 -1.9488 0.9839
2.0733 2.9129 -1.9583 0.9838
1.2342 3.3881 -1.9749 0.9837
0.9285 3.4958 -1.9810 0.9836
0.2913 3.6285 -1.9937 0.9835
-0.3635 3.6459 -2.0067 0.9834
-0.6910 3.6103 -2.0133 0.9834
-1.3328 3.4507 -2.0260 0.9833
-1.6417 3.3274 -2.0322 0.9832
-1.9390 3.1761 -2.0381 0.9832
-2.2219 2.9978 -2.0437 0.9831
-2.4881 2.7938 -2.0490 0.9831
-2.7350 2.5657 -2.0539 0.9830
-0.8690 0.5619 -0.5668 0.9953
-0.9051 0.3769 -0.5370 0.9955
-0.9208 0.2896 -0.5287 0.9956
-0.9449 0.0336 -0.5178 0.9957
-0.9462 -0.0514 -0.5190 0.9957
-0.9179 -0.3077 -0.5302 0.9956
-0.9013 -0.3951 -0.5390 0.9955
-0.8771 -0.4825 -0.5483 0.9954
-2.9153 -2.3693 -2.0575 0.9830
-2.6852 -2.6152 -2.0529 0.9831
-2.4341 -2.8384 -2.0480 0.9831
-1.8781 -3.2099 -2.0369 0.9832
-1.5782 -3.3554 -2.0309 0.9832
-0.6229 -3.6201 -2.0119 0.9834
-0.2950 -3.6495 -2.0054 0.9834
0.0332 -3.6494 -1.9989 0.9835
0.6797 -3.5617 -1.9860 0.9836
0.9931 -3.4755 -1.9798 0.9837
1.2966 -3.3623 -1.9737 0.9837
1.5881 -3.2230 -1.9679 0.9837
2.3693 -2.6633 -1.9524 0.9839
2.5925 -2.4347 -1.9479 0.9839
2.7945 -2.1880 -1.9439 0.9839
3.1295 -1.6483 -1.9372 0.9840
3.2602 -1.3593 -1.9346 0.9840
1.8847 0.1013 -1.0337 0.9914
1.8697 0.6257 -1.0799 0.9910
3.2365 1.4170 -1.9351 0.9840
2.7566 2.2378 -1.9447 0.9839
2.5503 2.4811 -1.9488 0.9839
2.3230 2.7060 -1.9533 0.9839
2.0764 2.9106 -1.9582 0.9838
1.5318 3.2524 -1.9690 0.9837
1.2379 3.3866 -1.9749 0.9837
0.9322 3.4947 -1.9810 0.9836
0.6172 3.5754 -1.9872 0.9836
0.2952 3.6280 -1.9936 0.9835
-0.0312 3.6517 -2.0001 0.9835
-0.6871 3.6109 -2.0132 0.9834
-1.3291 3.4520 -2.0260 0.9833
-1.9355 3.1781 -2.0380 0.9832
-2.2186 3.0001 -2.0437 0.9831
-2.7322 2.5686 -2.0539 0.9830
1.7743 -2.9028 -1.9642 0.9844
2.2530 -2.5271 -1.9547 0.9845
2.6570 -2.0757 -1.9466 0.9845
2.8274 -1.8260 -1.9432 0.9846
1.7195 -0.5398 -1.0405 0.9917
1.7328 -0.3774 -1.0239 0.9918
1.7418 -0.2184 -1.0135 0.9919
1.7410 0.2534 -1.0158 0.9919
1.7322 0.4134 -1.0282 0.9918
3.0740 1.3498 -1.9383 0.9846
2.9446 1.6220 -1.9409 0.9846
2.7917 1.8824 -1.9440 0.9846
2.6165 2.1288 -1.9474 0.9845
1.4510 3.0895 -1.9706 0.9844
0.8812 3.3179 -1.9820 0.9843
-0.0333 3.4642 -2.0002 0.9841
-0.3448 3.4580 -2.0064 0.9841
-0.6553 3.4237 -2.0126 0.9840
-0.9624 3.3614 -2.0187 0.9840
-1.5561 3.1539 -2.0305 0.9839
-1.8376 3.0100 -2.0361 0.9838
-2.3573 2.6470 -2.0464 0.9838
-0.7988 0.5165 -0.5492 0.9956
-0.8643 0.2719 -0.5231 0.9958
-0.8753 0.1912 -0.5172 0.9959
-0.8818 0.1110 -0.5131 0.9959
-0.8814 -0.0478 -0.5096 0.9959
-0.8811 -0.1277 -0.5140 0.9959
-0.8729 -0.2078 -0.5180 0.9959
-0.8472 -0.3714 -0.5341 0.9957
-2.7615 -2.2443 -2.0545 0.9837
-2.5439 -2.4775 -2.0501 0.9837
-2.0508 -2.8780 -2.0403 0.9838
-1.7799 -3.0422 -2.0349 0.9839
-1.4959 -3.1806 -2.0293 0.9839
-1.2014 -3.2923 -2.0234 0.9839
0.0315 -3.4620 -1.9989 0.9841
0.3406 -3.4347 -1.9927 0.9842
0.6451 -3.3800 -1.9867 0.9842
1.2309 -3.1917 -1.9750 0.9843
2.6548 -2.0786 -1.9467 0.9845
2.8255 -1.8291 -1.9433 0.9846
1.8237 -0.7604 -1.1408 0.9909
1.7191 -0.5418 -1.0407 0.9917
1.7418 -0.2203 -1.0136 0.9919
1.7340 -0.0625 -1.0018 0.9920
1.7368 0.0934 -1.0042 0.9920
1.7411 0.2515 -1.0157 0.9919
3.0754 1.3465 -1.9383 0.9846
2.7937 1.8793 -1.9439 0.9846
2.6187 2.1259 -1.9474 0.9845
2.4225 2.3568 -1.9513 0.9845
1.9719 2.7640 -1.9603 0.9844
1.7206 2.9371 -1.9653 0.9844
1.4543 3.0878 -1.9706 0.9844
0.8848 3.3168 -1.9819 0.9843
-0.0296 3.4642 -2.0001 0.9841
-0.3410 3.4583 -2.0063 0.9841
-0.6516 3.4243 -2.0125 0.9840
-0.9588 3.3623 -2.0186 0.9840
-1.5527 3.1555 -2.0304 0.9839
-1.8343 3.0119 -2.0360 0.9838
