ply
format ascii 1.0
element vertex 1493
property float32 x
property float32 y
property float32 z
property float32 I
end_header
6.8508 -13.7818 2.7138 0.9394
10.3534 9.9927 2.5372 0.9432
-14.3548 9.5317 3.0383 0.9324
-6.5639 -13.2958 2.6145 0.9416
-1.9684 -11.8652 1.8425 0.9525
10.3052 9.9462 2.1941 0.9437
-1.9682 -11.8642 1.5661 0.9526
10.2579 9.9005 1.8565 0.9441
-14.3693 9.5413 2.2461 0.9328
-1.9680 -11.8628 1.2913 0.9528
-14.3765 9.5461 1.8531 0.9329
-1.9677 -11.8613 1.0178 0.9529
10.1838 9.8290 1.1981 0.9448
-6.3914 -13.8424 0.9454 0.9407
-1.9675 -11.8599 0.7455 0.9530
5.3476 -13.7087 0.9125 0.9427
10.1718 9.8175 0.8766 0.9449
-6.3822 -13.8226 0.6003 0.9409
5.3474 -13.7083 0.5802 0.9428
10.1482 9.7946 0.2382 0.9451
-1.9668 -11.8556 -0.0677 0.9531
10.1364 9.7832 -0.0793 0.9452
-1.9666 -11.8544 -0.3384 0.9531
5.3942 -13.8281 -0.4179 0.9423
12.5256 2.9506 -0.3623 0.9498
11.1894 3.7172 -0.3320 0.9539
-6.5727 -13.3136 -0.4181 0.9423
-6.3461 -13.7443 -0.7677 0.9412
5.3923 -13.8234 -0.7525 0.9423
11.8412 2.7894 -0.6170 0.9524
10.1129 9.7606 -0.7128 0.9453
-12.4672 8.2783 -0.7590 0.9418
-16.7030 7.2077 -0.9226 0.9297
-17.0879 5.6247 -0.9123 0.9305
-6.5737 -13.3156 -0.7531 0.9423
11.0442 3.3525 -0.5853 0.9548
-13.2087 8.2838 -1.1432 0.9394
-18.9055 5.6823 -1.4475 0.9239
-1.9662 -11.8520 -0.8809 0.9530
5.3905 -13.8187 -1.0876 0.9422
11.1572 2.6282 -0.8405 0.9551
10.1011 9.7492 -1.0293 0.9453
-12.4678 8.2787 -1.0973 0.9417
-6.5747 -13.3176 -1.0890 0.9422
10.9572 3.3261 -0.8396 0.9551
17.1720 8.7983 -1.4147 0.9255
8.7298 13.8941 -1.2031 0.9363
-12.6158 13.7476 -1.7913 0.9278
-13.3783 10.1602 -1.6128 0.9347
-16.3942 -11.2618 -1.9095 0.9232
-10.9439 -15.6139 -1.8306 0.9262
-7.2206 -12.5542 -1.3904 0.9435
-4.8409 -18.6635 -1.8511 0.9254
-1.4529 -19.3326 -1.8613 0.9251
11.0951 2.6136 -1.0943 0.9552
17.9892 7.8213 -1.8832 0.9242
17.1820 9.3756 -1.8792 0.9244
16.2387 10.8468 -1.8748 0.9245
9.1414 10.5554 -1.3406 0.9454
5.0869 18.6123 -1.8524 0.9254
3.3981 18.9531 -1.8486 0.9255
1.6887 19.1367 -1.8444 0.9257
-0.0262 19.1624 -1.8397 0.9259
-5.0579 18.3087 -1.8236 0.9265
-6.6505 17.7266 -1.8177 0.9267
-5.0081 8.3986 -0.9388 0.9615
-10.9963 15.1744 -1.7991 0.9275
-13.4510 12.9115 -1.7900 0.9278
-12.4684 8.2791 -1.4369 0.9416
-16.3610 8.8695 -1.7867 0.9279
-14.8738 -11.6698 -1.8150 0.9268
-13.8068 -12.9831 -1.8195 0.9267
-12.6253 -14.2005 -1.8242 0.9265
-7.6778 -12.5801 -1.4149 0.9425
-6.1684 -12.4947 -1.3378 0.9455
-5.5230 -14.2737 -1.4694 0.9404
-3.6565 -18.9698 -1.8547 0.9253
-1.9538 -19.2731 -1.8598 0.9251
-0.2261 -19.4224 -1.8648 0.9249
3.2477 -19.2499 -1.8742 0.9246
6.6490 -18.4488 -1.8827 0.9242
12.8756 2.6815 -1.2626 0.9485
10.9073 3.3109 -1.0943 0.9552
17.0784 8.7504 -1.8423 0.9258
14.3380 13.1354 -1.8668 0.9248
10.3138 16.4150 -1.8612 0.9251
8.7977 17.2515 -1.8592 0.9251
7.2124 17.9427 -1.8565 0.9252
5.5725 18.4837 -1.8534 0.9254
-12.8198 8.0398 -1.7975 0.9409
-14.5703 7.4150 -1.9420 0.9363
-15.2006 6.0953 -1.9454 0.9362
-15.6863 4.7148 -1.9457 0.9362
-16.2889 1.8518 -1.9474 0.9361
-16.4011 0.3906 -1.9488 0.9361
-16.3853 -1.0760 -1.9505 0.9360
-16.2415 -2.5372 -1.9527 0.9359
-15.9702 -3.9820 -1.9551 0.9359
-15.5730 -5.3993 -1.9579 0.9358
-13.6552 -9.3803 -1.9679 0.9354
-12.7881 -10.5824 -1.9717 0.9353
-11.3547 -11.2481 -1.8985 0.9376
-5.7582 -12.4710 -1.6317 0.9462
-5.2269 -14.6285 -1.8453 0.9393
-3.9090 -15.0707 -1.8494 0.9392
-1.9525 -11.7697 -1.4172 0.9531
0.2253 -15.6703 -1.8616 0.9388
1.6267 -15.6197 -1.8654 0.9387
4.3950 -15.1390 -1.8725 0.9385
7.6094 -15.3079 -2.0306 0.9335
8.9729 -14.6119 -2.0368 0.9333
11.4550 -12.8133 -2.0416 0.9331
12.5643 -11.7501 -2.0434 0.9331
14.4709 -9.3398 -2.0459 0.9330
15.9072 -6.6202 -2.0467 0.9330
17.0760 -2.1667 -2.0447 0.9330
17.1887 -0.6332 -2.0432 0.9331
10.7601 3.5745 -1.3468 0.9554
15.6738 6.8146 -2.0302 0.9335
14.2468 7.7740 -1.9279 0.9367
9.3582 9.0321 -1.5449 0.9490
9.1404 10.5542 -1.6585 0.9453
5.4095 14.5398 -1.8428 0.9394
2.7294 15.2232 -1.8371 0.9396
1.3570 15.3777 -1.8337 0.9397
-0.0211 15.4060 -1.8300 0.9398
-1.3932 15.3087 -1.8260 0.9400
-2.7477 15.0875 -1.8217 0.9401
-4.9857 8.3610 -1.1563 0.9615
-10.9311 10.4927 -1.7998 0.9408
-15.5574 5.1210 -1.9455 0.9362
-16.2324 2.2746 -1.9470 0.9361
-16.3816 0.8170 -1.9483 0.9361
-16.0622 -3.5638 -1.9544 0.9359
-14.6104 -7.7274 -1.9633 0.9356
-13.8871 -9.0169 -1.9668 0.9355
-11.9537 -11.2406 -1.9491 0.9360
-9.1760 -12.3925 -1.8317 0.9398
-6.1682 -12.4942 -1.6551 0.9454
-5.4380 -14.0541 -1.7900 0.9411
-4.2970 -14.9541 -1.8482 0.9392
-1.5763 -15.5490 -1.8565 0.9390
-0.1823 -15.6612 -1.8605 0.9389
1.2190 -15.6475 -1.8643 0.9387
2.6162 -15.5070 -1.8680 0.9386
14.2212 -9.7119 -2.0456 0.9330
15.0367 -8.4066 -2.0463 0.9330
15.7295 -7.0317 -2.0466 0.9330
16.7237 -4.1212 -2.0460 0.9330
17.0168 -2.6106 -2.0450 0.9330
17.1834 0.4563 -2.0419 0.9331
17.0560 1.9863 -2.0397 0.9332
10.7721 3.2699 -1.3372 0.9557
15.1350 7.7546 -2.0201 0.9338
9.8289 9.0045 -1.5834 0.9477
9.4508 12.4225 -1.8541 0.9391
8.2857 13.1872 -1.8500 0.9392
7.0594 13.8429 -1.8458 0.9393
4.4735 14.8385 -1.8410 0.9395
-8.6254 9.3992 -1.8075 0.9498
-9.4234 8.5857 -1.8063 0.9498
-10.1468 7.7061 -1.8053 0.9498
-11.6709 7.3194 -1.9519 0.9459
-12.2862 6.2526 -1.9533 0.9458
-12.7947 5.1306 -1.9532 0.9458
-13.2032 3.9684 -1.9534 0.9458
-13.5086 2.7747 -1.9540 0.9458
-13.7861 -0.9053 -1.9576 0.9457
-13.4318 -3.3490 -1.9614 0.9456
-12.6539 -5.6984 -1.9663 0.9455
-10.7410 -8.8884 -1.9754 0.9452
-6.4701 -11.2495 -1.8388 0.9489
-5.4476 -11.7984 -1.8413 0.9489
-3.2752 -12.6270 -1.8483 0.9487
-1.9480 -11.7422 -1.6865 0.9531
-0.9812 -13.0565 -1.8552 0.9485
1.3610 -13.0686 -1.8617 0.9483
4.9796 -12.7654 -1.9415 0.9461
6.3695 -12.8136 -2.0275 0.9438
7.4969 -12.2083 -2.0299 0.9438
8.5658 -11.5024 -2.0320 0.9437
9.5670 -10.7015 -2.0339 0.9437
13.2800 -5.5268 -2.0381 0.9435
14.0459 -3.0761 -2.0373 0.9436
14.3539 -0.5287 -2.0352 0.9436
14.3327 0.7542 -2.0336 0.9437
14.1950 2.0287 -2.0317 0.9437
11.2545 2.6511 -1.6383 0.9544
13.5770 4.5103 -2.0271 0.9438
13.1026 5.6967 -2.0244 0.9439
11.6082 7.7538 -1.9779 0.9452
10.2282 8.2421 -1.8612 0.9483
7.6376 10.6006 -1.8512 0.9486
6.6483 11.2190 -1.8478 0.9487
5.6096 11.7454 -1.8443 0.9488
4.5301 12.1761 -1.8408 0.9489
3.4186 12.5082 -1.8373 0.9490
1.1357 12.8693 -1.8305 0.9491
-0.0177 12.8965 -1.8273 0.9492
-1.1669 12.8216 -1.8242 0.9493
-2.3031 12.6458 -1.8212 0.9494
-3.4175 12.3709 -1.8185 0.9495
-4.5019 11.9995 -1.8159 0.9495
-4.0128 8.3431 -1.3118 0.9633
-4.9851 8.3600 -1.3791 0.9614
-9.1986 8.8296 -1.8066 0.9498
-9.9443 7.9686 -1.8056 0.9498
-11.4500 7.6029 -1.9474 0.9460
-12.6569 5.4617 -1.9532 0.9458
-13.4305 3.1249 -1.9538 0.9458
-13.6613 1.9143 -1.9546 0.9458
-13.7854 0.6875 -1.9557 0.9458
-13.8017 -0.5462 -1.9571 0.9457
-13.7098 -1.7777 -1.9588 0.9457
-13.5101 -2.9975 -1.9608 0.9456
-12.2800 -6.4948 -1.9683 0.9454
-11.6687 -7.5765 -1.9713 0.9453
-10.9634 -8.6017 -1.9744 0.9453
-9.2910 -10.4502 -1.9813 0.9451
-8.3048 -11.2160 -1.9774 0.9452
-6.8601 -11.2402 -1.8658 0.9482
-3.6006 -12.5306 -1.8473 0.9487
-1.3199 -13.0196 -1.8542 0.9485
1.0200 -13.0931 -1.8608 0.9483
2.1884 -12.9713 -1.8639 0.9482
3.3428 -12.7442 -1.8668 0.9482
6.0318 -12.9701 -2.0267 0.9439
8.2612 -11.7180 -2.0314 0.9437
10.2311 -10.0797 -2.0350 0.9436
11.8735 -8.1086 -2.0372 0.9436
12.5536 -7.0183 -2.0378 0.9436
13.1316 -5.8704 -2.0381 0.9435
13.6026 -4.6745 -2.0380 0.9435
14.3510 0.3811 -2.0341 0.9437
14.2471 1.6592 -2.0323 0.9437
14.0276 2.9214 -2.0302 0.9438
12.7025 6.5083 -2.0223 0.9440
10.4443 7.9772 -1.8621 0.9483
9.6739 8.8625 -1.8589 0.9484
8.8284 9.6735 -1.8556 0.9485
7.9151 10.4039 -1.8522 0.9486
6.9418 11.0483 -1.8488 0.9487
5.9166 11.6019 -1.8453 0.9487
4.8481 12.0608 -1.8418 0.9488
3.7450 12.4219 -1.8383 0.9489
-7.4383 8.1056 -1.8123 0.9564
-8.4387 7.6885 -1.8807 0.9548
-9.4748 7.1957 -1.9600 0.9529
-10.0760 6.3191 -1.9593 0.9529
-10.5979 5.3934 -1.9590 0.9529
-11.3889 3.4231 -1.9591 0.9529
-11.8235 1.3442 -1.9603 0.9529
-11.9026 0.2835 -1.9614 0.9529
-11.2872 -3.9134 -1.9680 0.9527
-10.9051 -4.9109 -1.9703 0.9527
-9.2507 -7.6551 -1.9781 0.9525
-5.0641 -10.9677 -1.9901 0.9522
-4.0067 -11.2134 -1.9617 0.9529
-2.9102 -11.2197 -1.9095 0.9541
-1.8618 -11.2230 -1.8741 0.9549
-0.8438 -11.2284 -1.8550 0.9554
1.1756 -11.2884 -1.8697 0.9550
2.2464 -11.4851 -1.9279 0.9537
3.4058 -11.7315 -2.0124 0.9517
5.4658 -10.9955 -2.0228 0.9514
6.4321 -10.4743 -2.0249 0.9514
7.3480 -9.8672 -2.0267 0.9513
8.9983 -8.4152 -2.0296 0.9513
10.3602 -6.6866 -2.0313 0.9512
10.9181 -5.7363 -2.0318 0.9512
11.3873 -4.7391 -2.0319 0.9512
11.7638 -3.7033 -2.0317 0.9512
12.0446 -2.6378 -2.0312 0.9512
12.2274 -1.5514 -2.0305 0.9513
12.2938 0.6469 -2.0281 0.9513
11.6509 3.8705 -2.0225 0.9514
11.2459 4.8894 -2.0202 0.9515
10.7511 5.8665 -2.0176 0.9516
10.1708 6.7937 -2.0149 0.9516
8.1056 7.8232 -1.8558 0.9554
6.5647 9.1114 -1.8500 0.9555
4.8241 10.1007 -1.8440 0.9556
2.9415 10.7624 -1.8380 0.9558
-1.9840 10.8941 -1.8242 0.9561
-3.8798 10.3414 -1.8196 0.9562
-4.0129 8.3433 -1.5252 0.9632
-7.2263 8.2981 -1.8127 0.9564
-8.0210 7.6993 -1.8316 0.9559
-9.9090 6.5796 -1.9595 0.9529
-10.4544 5.6675 -1.9591 0.9529
-10.9178 4.7113 -1.9589 0.9529
-11.2954 3.7181 -1.9590 0.9529
-11.5846 2.6955 -1.9594 0.9529
-11.8892 0.5929 -1.9610 0.9529
-11.0254 -4.6239 -1.9696 0.9527
-10.5814 -5.5965 -1.9720 0.9526
-10.0526 -6.5272 -1.9745 0.9526
-8.7565 -8.2341 -1.9801 0.9524
-7.9985 -8.9965 -1.9831 0.9524
-7.1747 -9.6897 -1.9862 0.9523
-5.3511 -10.8391 -1.9914 0.9522
-4.3379 -11.2110 -1.9803 0.9524
-3.2235 -11.2182 -1.9229 0.9538
-1.1379 -11.2249 -1.8587 0.9553
1.9248 -11.4086 -1.9060 0.9542
3.0789 -11.7380 -1.9991 0.9520
5.1762 -11.1304 -2.0222 0.9515
6.1556 -10.6351 -2.0243 0.9514
8.7748 -8.6450 -2.0293 0.9513
9.5166 -7.8313 -2.0304 0.9513
10.1818 -6.9533 -2.0312 0.9512
10.7646 -6.0182 -2.0317 0.9512
11.2601 -5.0337 -2.0319 0.9512
11.6640 -4.0083 -2.0318 0.9512
11.3732 4.5968 -2.0209 0.9515
10.3483 6.5294 -2.0157 0.9516
9.7008 7.4093 -2.0109 0.9517
8.4668 7.7567 -1.8917 0.9545
6.8026 8.9417 -1.8509 0.9555
5.9677 9.4979 -1.8479 0.9555
5.0877 9.9765 -1.8449 0.9556
4.1700 10.3739 -1.8419 0.9557
3.2220 10.6873 -1.8389 0.9558
-7.7278 7.0408 -1.9650 0.9583
-8.3221 6.3203 -1.9642 0.9584
-9.3092 4.7376 -1.9633 0.9584
-9.6946 3.8875 -1.9633 0.9584
-10.4537 0.2490 -1.9654 0.9583
-10.4402 -0.6856 -1.9666 0.9583
-10.1670 -2.5350 -1.9695 0.9582
-9.9091 -3.4356 -1.9713 0.9582
-9.5723 -4.3107 -1.9733 0.9582
-9.1592 -5.1536 -1.9754 0.9581
-8.6727 -5.9576 -1.9777 0.9581
-8.1162 -6.7163 -1.9801 0.9580
-7.4939 -7.4236 -1.9827 0.9580
-6.0709 -8.6614 -1.9881 0.9579
-1.7434 -10.5090 -2.0023 0.9576
0.1536 -10.6805 -2.0077 0.9575
1.1078 -10.6379 -2.0103 0.9574
2.9890 -10.2960 -2.0151 0.9573
3.9004 -9.9989 -2.0173 0.9573
4.7822 -9.6203 -2.0193 0.9572
5.6269 -9.1631 -2.0211 0.9572
6.4275 -8.6311 -2.0227 0.9571
9.5473 -5.0161 -2.0271 0.9571
10.5327 -2.3067 -2.0267 0.9571
10.6931 -1.3568 -2.0260 0.9571
10.7666 -0.3966 -2.0251 0.9571
9.8410 4.2786 -2.0170 0.9573
9.4095 5.1344 -2.0148 0.9573
8.9031 5.9470 -2.0124 0.9574
8.3264 6.7096 -2.0099 0.9574
6.7059 7.7432 -1.9253 0.9592
5.7507 7.9817 -1.8491 0.9608
5.0082 8.4512 -1.8465 0.9608
4.2277 8.8519 -1.8438 0.9609
3.4157 9.1808 -1.8412 0.9609
2.5789 9.4356 -1.8386 0.9610
-0.0133 9.7415 -1.8310 0.9611
-0.8818 9.6890 -1.8287 0.9612
-2.5845 9.3556 -1.8243 0.9613
-4.0130 8.3436 -1.7402 0.9630
-5.6742 7.8302 -1.8176 0.9614
-7.5424 7.2398 -1.9651 0.9583
-8.1557 6.5354 -1.9644 0.9584
-9.1831 4.9783 -1.9634 0.9584
-10.1757 2.3676 -1.9637 0.9584
-10.3495 1.4502 -1.9643 0.9584
-10.4421 0.5208 -1.9651 0.9583
-10.3808 -1.3460 -1.9675 0.9583
-10.2270 -2.2691 -1.9690 0.9583
-9.9924 -3.1758 -1.9707 0.9582
-9.6784 -4.0590 -1.9727 0.9582
-8.2852 -6.5004 -1.9794 0.9580
-6.9471 -7.8138 -1.9652 0.9583
-6.2916 -8.4971 -1.9873 0.9579
-5.5157 -9.0375 -1.9901 0.9578
-2.0154 -10.4558 -2.0015 0.9576
0.8304 -10.6592 -2.0096 0.9574
1.7809 -10.5557 -2.0121 0.9574
2.7192 -10.3668 -2.0145 0.9573
3.6379 -10.0938 -2.0167 0.9573
6.1994 -8.7934 -2.0223 0.9572
7.6743 -7.5607 -2.0249 0.9571
9.4131 -5.2626 -2.0270 0.9571
10.1995 -3.5050 -2.0272 0.9571
10.6553 -1.6347 -2.0262 0.9571
10.7542 -0.6767 -2.0254 0.9571
10.6902 1.2450 -2.0229 0.9571
9.9520 4.0224 -2.0176 0.9573
9.0580 5.7153 -2.0131 0.9573
7.8775 7.2168 -2.0081 0.9574
7.0608 7.7367 -1.9688 0.9583
5.9589 7.8326 -1.8498 0.9607
4.4584 8.7426 -1.8446 0.9608
3.6549 9.0926 -1.8420 0.9609
2.8246 9.3692 -1.8393 0.9610
-6.2987 6.8638 -1.9692 0.9626
-6.8830 6.2711 -1.9683 0.9626
-7.4127 5.6296 -1.9675 0.9627
-7.8836 4.9442 -1.9670 0.9627
-8.2923 4.2200 -1.9668 0.9627
-8.6357 3.4628 -1.9667 0.9627
-9.1163 1.8726 -1.9672 0.9627
-9.2499 1.0516 -1.9678 0.9627
-9.3106 0.2217 -1.9686 0.9626
-9.2121 -1.4391 -1.9709 0.9626
-8.5220 -3.8377 -1.9756 0.9625
-7.7191 -5.3025 -1.9796 0.9624
-6.0591 -7.1830 -1.9864 0.9623
-5.4003 -7.7046 -1.9888 0.9623
-4.6968 -8.1662 -1.9913 0.9622
-3.9541 -8.5637 -1.9938 0.9622
-2.3743 -9.1536 -1.9989 0.9621
-0.7104 -9.4534 -2.0039 0.9620
1.8260 -9.3358 -2.0108 0.9619
4.2465 -8.5428 -2.0166 0.9617
4.9962 -8.1360 -2.0182 0.9617
6.3716 -7.1272 -2.0208 0.9617
8.4743 -4.4524 -2.0235 0.9616
8.8383 -3.6783 -2.0236 0.9616
9.1308 -2.8744 -2.0234 0.9616
9.3492 -2.0475 -2.0231 0.9616
9.5576 -0.3520 -2.0217 0.9617
9.5460 0.5023 -2.0206 0.9617
9.4572 1.3516 -2.0194 0.9617
9.2921 2.1889 -2.0179 0.9617
7.9090 5.2829 -2.0104 0.9619
7.3976 5.9612 -2.0082 0.9619
6.2050 7.1648 -2.0035 0.9620
4.5860 7.7387 -1.9015 0.9639
3.7590 7.8706 -1.8437 0.9650
3.0375 8.1643 -1.8413 0.9650
2.2937 8.3922 -1.8390 0.9651
0.7629 8.6449 -1.8345 0.9651
-0.7847 8.6227 -1.8302 0.9652
-4.5926 7.7018 -1.8955 0.9640
-5.4569 7.5303 -1.9657 0.9627
-6.1189 7.0264 -1.9695 0.9626
-6.7184 6.4489 -1.9685 0.9626
-7.2644 5.8211 -1.9677 0.9627
-7.7528 5.1479 -1.9672 0.9627
-8.1800 4.4345 -1.9668 0.9627
-8.5426 3.6863 -1.9667 0.9627
-9.2185 1.2917 -1.9676 0.9627
-9.3093 -0.3684 -1.9693 0.9626
-9.1070 -2.0206 -1.9718 0.9626
-6.2417 -7.0204 -1.9857 0.9623
-5.5969 -7.5588 -1.9881 0.9623
-4.9059 -8.0383 -1.9906 0.9622
-3.4069 -8.8049 -1.9956 0.9621
-2.6106 -9.0854 -1.9982 0.9621
-1.7914 -9.2939 -2.0007 0.9620
-0.1105 -9.4874 -2.0056 0.9620
1.5820 -9.3772 -2.0102 0.9619
3.2309 -8.9646 -2.0142 0.9618
4.0219 -8.6482 -2.0161 0.9618
4.7817 -8.2614 -2.0177 0.9617
6.8126 -6.7118 -2.0215 0.9617
7.3877 -6.0794 -2.0224 0.9616
7.9034 -5.3973 -2.0230 0.9616
8.3553 -4.6712 -2.0234 0.9616
9.0532 -3.1111 -2.0235 0.9616
9.4582 -1.4510 -2.0227 0.9616
9.5465 -0.6007 -2.0219 0.9616
9.3480 1.9468 -2.0184 0.9617
8.8382 3.5722 -2.0150 0.9618
6.3916 7.0034 -2.0042 0.9620
4.8597 7.7345 -1.9308 0.9633
3.9640 7.7730 -1.8444 0.9650
3.2501 8.0855 -1.8420 0.9650
2.5122 8.3328 -1.8397 0.9650
-6.1989 5.6478 -1.9709 0.9661
-6.6761 5.0702 -1.9702 0.9661
-7.4687 3.8009 -1.9695 0.9662
-7.7779 3.1189 -1.9695 0.9662
-8.0259 2.4123 -1.9696 0.9662
-8.3306 0.9471 -1.9705 0.9661
-8.3850 0.1997 -1.9712 0.9661
-8.3733 -0.5499 -1.9721 0.9661
-6.9479 -4.7728 -1.9811 0.9660
-5.4518 -6.4631 -1.9872 0.9659
-4.2250 -7.3459 -1.9917 0.9658
-3.5565 -7.7026 -1.9939 0.9657
-0.6387 -8.4984 -2.0030 0.9656
0.1227 -8.5307 -2.0051 0.9656
1.6410 -8.3898 -2.0092 0.9655
2.3856 -8.2174 -2.0110 0.9655
3.1123 -7.9785 -2.0128 0.9654
5.1260 -6.8834 -2.0171 0.9653
6.2745 -5.8679 -2.0190 0.9653
7.2223 -4.6614 -2.0203 0.9653
7.9377 -3.3034 -2.0206 0.9653
8.2004 -2.5815 -2.0205 0.9653
8.3967 -1.8389 -2.0202 0.9653
8.5845 -0.3162 -2.0189 0.9653
7.8529 3.4142 -2.0125 0.9654
5.5783 6.4412 -2.0026 0.9656
4.9756 6.9058 -2.0004 0.9656
4.3328 7.3116 -1.9975 0.9657
3.6484 7.6390 -1.9896 0.9658
2.1132 7.7318 -1.8838 0.9676
1.3869 7.7355 -1.8470 0.9682
0.6864 7.7787 -1.8353 0.9684
-0.7063 7.7605 -1.8314 0.9685
-3.6340 7.5556 -1.9704 0.9661
-4.3024 7.2151 -1.9743 0.9661
-4.9262 6.7979 -1.9731 0.9661
-6.0505 5.8078 -1.9711 0.9661
-6.5425 5.2426 -1.9704 0.9661
-6.9826 4.6365 -1.9699 0.9661
-8.3024 1.1634 -1.9703 0.9661
-8.3248 -1.0794 -1.9729 0.9661
-8.2003 -1.8194 -1.9741 0.9661
-8.0107 -2.5459 -1.9755 0.9661
-7.4424 -3.9363 -1.9787 0.9660
-5.0355 -6.8007 -1.9888 0.9658
-4.4133 -7.2311 -1.9910 0.9658
-3.0640 -7.9188 -1.9956 0.9657
-1.6107 -8.3564 -2.0001 0.9656
3.6134 -7.7698 -2.0139 0.9654
4.9443 -7.0132 -2.0167 0.9654
5.5538 -6.5475 -2.0178 0.9653
6.1190 -6.0285 -2.0188 0.9653
6.6352 -5.4602 -2.0196 0.9653
7.8490 -3.5088 -2.0206 0.9653
8.1307 -2.7941 -2.0206 0.9653
8.3465 -2.0568 -2.0203 0.9653
8.4948 -1.3032 -2.0198 0.9653
8.5743 -0.5395 -2.0192 0.9653
8.5845 0.2280 -2.0183 0.9653
8.5254 0.9929 -2.0172 0.9653
8.3976 1.7489 -2.0160 0.9654
7.9409 3.2096 -2.0130 0.9654
7.2308 4.5624 -2.0094 0.9655
6.7880 5.1846 -2.0075 0.9655
5.1552 6.7762 -2.0011 0.9656
4.5246 7.2012 -1.9988 0.9657
3.8501 7.5498 -1.9918 0.9658
3.1042 7.7226 -1.9561 0.9664
-5.1543 5.6168 -1.9738 0.9690
-6.4526 4.0467 -1.9721 0.9690
-6.7873 3.4541 -1.9718 0.9690
-7.4614 1.5326 -1.9722 0.9690
-7.6195 0.1815 -1.9734 0.9690
-4.4112 -6.2935 -1.9899 0.9687
-3.2284 -6.9920 -1.9940 0.9687
-1.9376 -7.4701 -1.9982 0.9686
-0.5795 -7.7112 -2.0022 0.9686
0.8025 -7.7061 -2.0060 0.9685
1.4885 -7.6104 -2.0078 0.9685
3.4599 -6.9603 -2.0125 0.9684
4.6481 -6.2417 -2.0150 0.9684
5.6891 -5.3204 -2.0168 0.9683
6.9001 -3.6253 -2.0181 0.9683
7.1965 -2.9950 -2.0182 0.9683
7.4347 -2.3405 -2.0181 0.9683
7.7294 -0.9807 -2.0173 0.9683
7.7835 -0.2867 -2.0167 0.9683
7.7748 0.4091 -2.0158 0.9683
7.5699 1.7832 -2.0136 0.9684
7.3756 2.4502 -2.0123 0.9684
7.1223 3.0966 -2.0108 0.9684
6.8120 3.7171 -2.0092 0.9684
6.0319 4.8607 -2.0057 0.9685
5.5687 5.3747 -2.0038 0.9685
5.0617 5.8446 -2.0019 0.9686
3.9337 6.6381 -1.9978 0.9686
2.6850 7.2168 -1.9937 0.9687
2.0254 7.4107 -1.9891 0.9688
1.3528 7.5454 -1.9848 0.9688
0.6727 7.6231 -1.9814 0.9689
-0.6923 7.6075 -1.9779 0.9689
-1.3685 7.5144 -1.9776 0.9689
-2.0347 7.3653 -1.9784 0.9689
-2.6846 7.1558 -1.9789 0.9689
-3.3103 6.8826 -1.9774 0.9689
-4.4760 6.1768 -1.9750 0.9690
-5.0071 5.7497 -1.9741 0.9690
-5.4981 5.2776 -1.9733 0.9690
-6.3455 4.2134 -1.9722 0.9690
-7.2339 2.3812 -1.9719 0.9690
-7.4186 1.7261 -1.9721 0.9690
-7.5447 1.0572 -1.9726 0.9690
-7.6179 -0.3015 -1.9740 0.9690
-7.4506 -1.6531 -1.9760 0.9690
-7.2779 -2.3130 -1.9773 0.9689
-6.7606 -3.5757 -1.9802 0.9689
-6.4197 -4.1683 -1.9818 0.9689
-0.0901 -7.7378 -2.0036 0.9685
0.6016 -7.7223 -2.0055 0.9685
2.6329 -7.3055 -2.0106 0.9684
3.2770 -7.0465 -2.0121 0.9684
3.8956 -6.7303 -2.0135 0.9684
4.4835 -6.3595 -2.0147 0.9684
5.5481 -5.4660 -2.0166 0.9683
6.0160 -4.9506 -2.0172 0.9683
6.4355 -4.3949 -2.0178 0.9683
7.5673 -1.8648 -2.0179 0.9683
7.7019 -1.1816 -2.0175 0.9683
7.7742 -0.4892 -2.0169 0.9683
7.4384 2.2580 -2.0127 0.9684
7.2020 2.9109 -2.0113 0.9684
6.9081 3.5394 -2.0097 0.9684
6.5591 4.1385 -2.0081 0.9685
6.1580 4.7034 -2.0063 0.9685
5.7082 5.2294 -2.0044 0.9685
4.6781 6.1491 -2.0005 0.9686
2.8727 7.1466 -1.9943 0.9687
-5.9073 3.7047 -1.9740 0.9714
-6.4711 2.5949 -1.9737 0.9714
-6.6773 2.0070 -1.9738 0.9714
-6.8308 1.4031 -1.9741 0.9714
-6.9752 0.1661 -1.9752 0.9714
-6.9648 -0.4574 -1.9759 0.9714
-6.8994 -1.0778 -1.9769 0.9714
-6.7792 -1.6903 -1.9779 0.9714
-6.6053 -2.2901 -1.9791 0.9714
-6.3787 -2.8725 -1.9804 0.9713
-6.1012 -3.4329 -1.9818 0.9713
-5.7748 -3.9670 -1.9834 0.9713
-4.9857 -4.9389 -1.9867 0.9712
-4.5290 -5.3691 -1.9885 0.9712
-4.0353 -5.7572 -1.9903 0.9712
-2.9528 -6.3951 -1.9941 0.9711
-1.7719 -6.8312 -1.9979 0.9711
-0.5298 -7.0504 -2.0016 0.9710
0.1017 -7.0759 -2.0033 0.9710
1.3607 -6.9566 -2.0067 0.9710
1.9778 -6.8126 -2.0082 0.9709
2.5799 -6.6136 -2.0097 0.9709
4.2475 -5.7037 -2.0132 0.9709
4.7419 -5.3041 -2.0141 0.9709
5.6132 -4.3793 -2.0155 0.9708
5.9830 -3.8615 -2.0159 0.9708
6.3045 -3.3124 -2.0161 0.9708
6.5753 -2.7365 -2.0162 0.9708
6.7930 -2.1385 -2.0161 0.9708
7.0625 -0.8961 -2.0154 0.9708
7.1044 0.3738 -2.0140 0.9709
7.0395 1.0061 -2.0131 0.9709
6.9179 1.6296 -2.0120 0.9709
4.1287 5.7304 -1.9994 0.9711
0.6174 6.9960 -1.9882 0.9712
-0.6354 6.9821 -1.9847 0.9713
-1.2551 6.8919 -1.9831 0.9713
-1.8639 6.7472 -1.9816 0.9713
-3.5780 6.0004 -1.9777 0.9714
-4.0973 5.6541 -1.9767 0.9714
-4.5836 5.2634 -1.9758 0.9714
-5.4428 4.3615 -1.9745 0.9714
-5.8092 3.8574 -1.9741 0.9714
-6.4014 2.7623 -1.9737 0.9714
-6.6227 2.1800 -1.9738 0.9714
-6.7917 1.5802 -1.9740 0.9714
-6.9070 0.9679 -1.9744 0.9714
-6.9736 -0.2760 -1.9757 0.9714
-6.9241 -0.8978 -1.9766 0.9714
-6.1871 -3.2723 -1.9814 0.9713
-5.5152 -4.3272 -1.9845 0.9713
-5.1112 -4.8063 -1.9862 0.9713
-4.6659 -5.2480 -1.9880 0.9712
-1.9484 -6.7809 -1.9973 0.9711
-0.7129 -7.0324 -2.0010 0.9710
-0.0824 -7.0743 -2.0028 0.9710
0.5500 -7.0596 -2.0046 0.9710
1.1790 -6.9881 -2.0062 0.9710
1.7995 -6.8603 -2.0078 0.9709
2.4065 -6.6771 -2.0093 0.9709
2.9949 -6.4400 -2.0106 0.9709
3.5600 -6.1507 -2.0118 0.9709
4.0971 -5.8115 -2.0129 0.9709
5.0696 -4.9946 -2.0147 0.9708
5.4970 -4.5235 -2.0153 0.9708
5.8802 -4.0156 -2.0158 0.9708
7.0373 -1.0796 -2.0155 0.9708
7.1036 -0.4470 -2.0150 0.9708
7.0643 0.8227 -2.0134 0.9709
6.7979 2.0635 -2.0112 0.9709
6.5823 2.6604 -2.0099 0.9709
6.3141 3.2351 -2.0084 0.9709
4.2775 5.6226 -2.0000 0.9711
3.7550 5.9764 -1.9981 0.9711
2.6274 6.5365 -1.9943 0.9711
-4.3461 4.7360 -1.9771 0.9735
-4.7500 4.3277 -1.9765 0.9735
-5.1161 3.8855 -1.9760 0.9735
-5.9610 2.3903 -1.9754 0.9735
-6.3838 0.7257 -1.9762 0.9735
-6.4249 0.1530 -1.9767 0.9735
-6.4152 -0.4213 -1.9774 0.9735
-6.3547 -0.9927 -1.9783 0.9734
-6.2438 -1.5568 -1.9792 0.9734
-5.6184 -3.1613 -1.9829 0.9734
-5.3175 -3.6528 -1.9843 0.9734
-4.9740 -4.1160 -1.9858 0.9733
-4.5903 -4.5472 -1.9873 0.9733
-1.6306 -6.2866 -1.9976 0.9732
-1.0638 -6.4126 -1.9993 0.9732
1.8194 -6.2669 -2.0072 0.9731
2.3731 -6.0835 -2.0085 0.9730
4.7807 -4.4709 -2.0133 0.9730
5.7977 -3.0461 -2.0144 0.9730
6.0467 -2.5165 -2.0145 0.9730
6.2469 -1.9665 -2.0144 0.9730
6.5338 0.3438 -2.0124 0.9730
6.4743 0.9253 -2.0116 0.9730
6.2001 2.0597 -2.0095 0.9730
5.7277 3.1254 -2.0069 0.9731
5.0732 4.0881 -2.0040 0.9731
4.6843 4.5211 -2.0024 0.9731
4.2585 4.9172 -2.0008 0.9731
2.2604 6.0755 -1.9938 0.9732
1.7075 6.2476 -1.9921 0.9733
1.1420 6.3696 -1.9904 0.9733
-1.1558 6.3462 -1.9840 0.9734
-1.7165 6.2133 -1.9827 0.9734
-2.2628 6.0313 -1.9813 0.9734
-2.7905 5.8017 -1.9802 0.9734
-3.7738 5.2077 -1.9781 0.9734
-4.2219 4.8480 -1.9773 0.9735
-4.6362 4.4502 -1.9766 0.9735
-5.0136 4.0175 -1.9761 0.9735
-5.3512 3.5532 -1.9757 0.9735
-5.8967 2.5446 -1.9754 0.9735
-6.1006 2.0081 -1.9754 0.9735
-6.2562 1.4556 -1.9757 0.9735
-6.3623 0.8915 -1.9760 0.9735
-6.4182 0.3201 -1.9765 0.9735
-6.4233 -0.2542 -1.9772 0.9735
-6.3775 -0.8269 -1.9780 0.9734
-6.2812 -1.3936 -1.9789 0.9734
-5.9400 -2.4912 -1.9812 0.9734
-5.4096 -3.5125 -1.9839 0.9734
-4.2956 -4.8316 -1.9885 0.9733
-1.7932 -6.2405 -1.9971 0.9732
-1.2300 -6.3811 -1.9988 0.9732
-0.6560 -6.4710 -2.0005 0.9731
-0.0758 -6.5091 -2.0022 0.9731
0.5060 -6.4950 -2.0038 0.9731
1.0846 -6.4288 -2.0053 0.9731
2.2136 -6.1420 -2.0081 0.9730
2.7548 -5.9235 -2.0093 0.9730
3.7682 -5.3449 -2.0115 0.9730
5.4075 -3.6929 -2.0141 0.9730
5.7164 -3.1958 -2.0144 0.9730
5.9792 -2.6729 -2.0145 0.9730
6.1938 -2.1285 -2.0144 0.9730
6.4717 -0.9928 -2.0139 0.9730
6.5413 0.1737 -2.0127 0.9730
6.4971 0.7566 -2.0119 0.9730
6.0547 2.4472 -2.0086 0.9730
4.3860 4.8059 -2.0012 0.9731
3.9362 5.1739 -1.9996 0.9732
3.4556 5.4999 -1.9978 0.9732
2.9483 5.7814 -1.9961 0.9732
2.4183 6.0162 -1.9944 0.9732
-4.0242 4.3852 -1.9784 0.9752
-4.3982 4.0073 -1.9778 0.9752
-5.3002 2.6973 -1.9768 0.9752
-5.6956 1.7119 -1.9769 0.9752
-5.7808 -1.4414 -1.9804 0.9752
-5.6319 -1.9526 -1.9814 0.9752
-5.2011 -2.9265 -1.9837 0.9752
-4.6040 -3.8099 -1.9864 0.9751
-3.4378 -4.9047 -1.9910 0.9751
-2.9886 -5.1962 -1.9926 0.9750
-1.5087 -5.8164 -1.9974 0.9750
-0.4510 -6.0014 -2.0005 0.9750
0.6243 -5.9949 -2.0035 0.9749
1.1578 -5.9193 -2.0049 0.9749
1.6827 -5.7962 -2.0062 0.9749
2.1947 -5.6262 -2.0074 0.9749
2.6897 -5.4108 -2.0086 0.9749
3.1636 -5.1517 -2.0096 0.9748
3.6124 -4.8509 -2.0105 0.9748
4.4205 -4.1341 -2.0119 0.9748
4.7731 -3.7239 -2.0124 0.9748
5.0874 -3.2835 -2.0127 0.9748
5.5909 -2.3268 -2.0130 0.9748
6.0056 -0.7620 -2.0123 0.9748
6.0480 -0.2228 -2.0118 0.9748
5.9870 0.8557 -2.0103 0.9748
5.0150 3.3498 -2.0047 0.9749
4.3332 4.1822 -2.0018 0.9749
3.9395 4.5489 -2.0003 0.9750
3.5150 4.8786 -1.9987 0.9750
3.0630 5.1688 -1.9971 0.9750
1.5802 5.7816 -1.9923 0.9751
0.5260 5.9610 -1.9892 0.9751
-0.0082 5.9796 -1.9877 0.9751
-2.0948 5.5836 -1.9823 0.9752
-2.5834 5.3713 -1.9812 0.9752
-3.0511 5.1167 -1.9802 0.9752
-3.4941 4.8217 -1.9794 0.9752
-4.9550 3.2902 -1.9771 0.9752
-5.4603 2.3562 -1.9768 0.9752
-5.6490 1.8595 -1.9769 0.9752
-5.7930 1.3479 -1.9771 0.9752
-5.8912 0.8255 -1.9774 0.9752
-5.9429 0.2964 -1.9779 0.9752
-5.9474 -0.2354 -1.9785 0.9752
-5.8155 -1.2903 -1.9801 0.9752
-5.4991 -2.3063 -1.9822 0.9752
-4.7006 -3.6880 -1.9860 0.9751
-4.3558 -4.0959 -1.9875 0.9751
-2.1661 -5.5982 -1.9953 0.9750
-1.6591 -5.7739 -1.9969 0.9750
-1.1379 -5.9036 -1.9985 0.9750
-0.6069 -5.9863 -2.0001 0.9750
-0.0701 -6.0212 -2.0016 0.9749
0.4680 -6.0079 -2.0031 0.9749
2.0472 -5.6804 -2.0071 0.9749
3.4846 -4.9426 -2.0102 0.9748
4.3111 -4.2473 -2.0117 0.9748
5.2855 -2.9550 -2.0129 0.9748
5.7269 -1.9680 -2.0129 0.9748
5.8792 -1.4488 -2.0127 0.9748
6.0407 -0.3801 -2.0119 0.9748
6.0079 0.6997 -2.0106 0.9748
5.9189 1.2327 -2.0097 0.9748
5.3719 2.7524 -2.0064 0.9749
5.1015 3.2189 -2.0051 0.9749
-3.7427 4.0785 -1.9795 0.9768
-4.0907 3.7271 -1.9790 0.9768
-4.6866 2.9392 -1.9783 0.9768
-5.2975 1.5923 -1.9782 0.9768
-5.4191 1.1131 -1.9784 0.9768
-5.4979 0.6250 -1.9787 0.9768
-5.4720 -0.8548 -1.9806 0.9767
-5.3761 -1.3405 -1.9814 0.9767
-5.0571 -2.2774 -1.9834 0.9767
-4.8364 -2.7213 -1.9845 0.9767
-4.5770 -3.1441 -1.9857 0.9767
-3.9502 -3.9131 -1.9884 0.9767
-3.5876 -4.2531 -1.9898 0.9766
-3.1960 -4.5597 -1.9912 0.9766
-2.7782 -4.8304 -1.9927 0.9766
-0.4191 -5.5774 -2.0001 0.9765
0.5801 -5.5707 -2.0029 0.9765
1.0758 -5.5002 -2.0042 0.9765
2.0391 -5.2274 -2.0065 0.9764
3.7462 -4.1904 -2.0101 0.9764
4.1065 -3.8404 -2.0106 0.9764
4.7259 -3.0501 -2.0114 0.9764
4.9797 -2.6163 -2.0116 0.9764
5.3656 -1.6891 -2.0116 0.9764
5.5789 -0.7079 -2.0110 0.9764
5.6128 0.2953 -2.0100 0.9764
5.4665 1.2877 -2.0084 0.9764
5.3272 1.7697 -2.0074 0.9764
5.1453 2.2370 -2.0064 0.9764
4.9222 2.6859 -2.0052 0.9765
4.6599 3.1127 -2.0040 0.9765
4.0268 3.8865 -2.0013 0.9765
3.6612 4.2275 -1.9999 0.9765
3.2668 4.5341 -1.9985 0.9765
2.8469 4.8041 -1.9970 0.9766
2.4049 5.0353 -1.9955 0.9766
1.9443 5.2259 -1.9940 0.9766
1.4689 5.3746 -1.9925 0.9766
0.9826 5.4802 -1.9910 0.9766
-0.5035 5.5330 -1.9868 0.9767
-0.9948 5.4624 -1.9855 0.9767
-1.4776 5.3486 -1.9843 0.9767
-2.4025 4.9952 -1.9822 0.9767
-3.2496 4.4844 -1.9804 0.9767
-3.6357 4.1749 -1.9797 0.9768
-5.0787 2.1916 -1.9781 0.9768
-5.2542 1.7295 -1.9781 0.9768
-5.4794 0.7678 -1.9786 0.9768
-5.4918 -0.7121 -1.9803 0.9767
-5.4085 -1.2000 -1.9811 0.9767
-5.2822 -1.6788 -1.9821 0.9767
-4.9047 -2.5941 -1.9842 0.9767
-4.6564 -3.0234 -1.9854 0.9767
-4.0498 -3.8082 -1.9880 0.9767
-3.3128 -4.4740 -1.9908 0.9766
-2.4681 -4.9993 -1.9938 0.9766
-2.0134 -5.2035 -1.9953 0.9766
-1.0576 -5.4868 -1.9983 0.9765
-0.5640 -5.5634 -1.9997 0.9765
-0.0651 -5.5955 -2.0011 0.9765
1.4226 -5.4234 -2.0051 0.9765
2.3669 -5.0896 -2.0073 0.9764
2.8132 -4.8604 -2.0083 0.9764
4.0049 -3.9456 -2.0105 0.9764
4.6447 -3.1719 -2.0113 0.9764
4.9099 -2.7450 -2.0116 0.9764
5.4614 -1.3458 -2.0115 0.9764
5.6191 0.1492 -2.0101 0.9764
5.5814 0.6500 -2.0094 0.9764
5.4989 1.1452 -2.0086 0.9764
5.2026 2.1027 -2.0067 0.9764
4.9913 2.5574 -2.0056 0.9765
4.1274 3.7812 -2.0017 0.9765
3.7707 4.1317 -2.0003 0.9765
3.3844 4.4486 -1.9989 0.9765
2.9716 4.7294 -1.9974 0.9766
1.6086 5.3357 -1.9929 0.9766
-3.4944 3.8079 -1.9806 0.9781
-4.3758 2.7442 -1.9794 0.9781
-4.6029 2.3425 -1.9792 0.9781
-5.0597 1.0393 -1.9795 0.9781
-2.2951 0.0547 -0.8798 0.9902
-5.1087 -0.7981 -1.9815 0.9781
-5.0191 -1.2514 -1.9823 0.9781
-3.9957 -3.3065 -1.9875 0.9780
-3.6870 -3.6524 -1.9888 0.9780
-3.3484 -3.9695 -1.9901 0.9780
-2.5927 -4.5078 -1.9928 0.9780
-2.1815 -4.7246 -1.9942 0.9780
-1.7522 -4.9039 -1.9956 0.9779
-1.3084 -5.0443 -1.9970 0.9779
-0.8534 -5.1445 -1.9984 0.9779
-0.3911 -5.2037 -1.9998 0.9779
0.5412 -5.1970 -2.0024 0.9779
1.0036 -5.1310 -2.0036 0.9779
2.3309 -4.6891 -2.0067 0.9778
2.7414 -4.4642 -2.0076 0.9778
3.4941 -3.9084 -2.0090 0.9778
3.8300 -3.5818 -2.0096 0.9778
4.6443 -2.4401 -2.0105 0.9778
5.0042 -1.5753 -2.0105 0.9778
5.2402 -0.1930 -2.0095 0.9778
5.0989 1.2011 -2.0075 0.9778
4.9691 1.6508 -2.0066 0.9778
4.3472 2.9037 -2.0034 0.9779
4.0681 3.2782 -2.0022 0.9779
3.7569 3.6260 -2.0009 0.9779
3.0481 4.2306 -1.9982 0.9779
2.6564 4.4827 -1.9968 0.9779
1.8144 4.8768 -1.9940 0.9780
0.4565 5.1725 -1.9899 0.9780
-0.0071 5.1892 -1.9886 0.9780
-0.4700 5.1646 -1.9873 0.9780
-0.9286 5.0990 -1.9861 0.9780
-1.3793 4.9929 -1.9850 0.9781
-2.2429 4.6633 -1.9830 0.9781
-3.0339 4.1867 -1.9814 0.9781
-3.3944 3.8978 -1.9807 0.9781
-4.0314 3.2305 -1.9797 0.9781
-4.3031 2.8573 -1.9794 0.9781
-4.5405 2.4615 -1.9792 0.9781
-4.9058 1.6148 -1.9792 0.9781
-5.0308 1.1706 -1.9794 0.9781
-5.1160 0.7169 -1.9797 0.9781
-5.0493 -1.1203 -1.9820 0.9781
-4.9313 -1.5672 -1.9829 0.9781
-4.5786 -2.4216 -1.9849 0.9781
-4.0797 -3.2009 -1.9872 0.9780
-3.7800 -3.5545 -1.9884 0.9780
-3.4499 -3.8803 -1.9897 0.9780
-3.0918 -4.1756 -1.9911 0.9780
-2.3032 -4.6653 -1.9938 0.9780
-1.8788 -4.8557 -1.9952 0.9779
-1.4389 -5.0075 -1.9966 0.9779
-0.9868 -5.1195 -1.9980 0.9779
-0.5262 -5.1907 -1.9994 0.9779
-0.0608 -5.2204 -2.0007 0.9779
0.4058 -5.2083 -2.0020 0.9779
0.8696 -5.1545 -2.0032 0.9779
2.2078 -4.7475 -2.0064 0.9778
2.6240 -4.5335 -2.0073 0.9778
3.7353 -3.6800 -2.0094 0.9778
4.0256 -3.3127 -1.9978 0.9779
4.3319 -2.9583 -2.0102 0.9778
4.9616 -1.7050 -2.0105 0.9778
5.2338 -0.3293 -2.0096 0.9778
5.2409 0.1392 -2.0091 0.9778
5.1290 1.0682 -2.0077 0.9778
3.5180 3.8548 -1.9999 0.9779
3.1578 4.1507 -1.9986 0.9779
2.7727 4.4130 -1.9972 0.9779
2.3661 4.6396 -1.9958 0.9779
1.5012 4.9794 -1.9930 0.9780
-3.5779 3.2598 -1.9810 0.9793
-3.8539 2.9268 -1.9806 0.9793
-4.0992 2.5708 -1.9803 0.9793
-2.0787 0.4270 -0.8685 0.9909
-2.0191 0.2296 -0.8317 0.9913
-1.9963 0.0475 -0.8173 0.9914
-2.0096 -0.1320 -0.8242 0.9913
-2.0318 -0.3174 -0.8416 0.9912
-4.4219 -1.9913 -1.9848 0.9793
-4.2286 -2.3793 -1.9858 0.9792
-4.0014 -2.7487 -1.9869 0.9792
-3.1357 -3.7173 -1.9904 0.9792
-2.4278 -4.2211 -1.9930 0.9792
-2.0426 -4.4239 -1.9943 0.9792
-0.7990 -4.8164 -1.9982 0.9791
-0.3661 -4.8716 -1.9995 0.9791
0.0703 -4.8878 -2.0007 0.9791
0.5066 -4.8649 -2.0019 0.9791
0.9394 -4.8030 -2.0030 0.9791
1.3652 -4.7024 -2.0041 0.9791
1.7804 -4.5640 -2.0050 0.9790
2.1817 -4.3889 -2.0059 0.9790
2.5658 -4.1783 -2.0068 0.9790
3.5845 -3.3522 -2.0086 0.9790
3.8702 -3.0194 -2.0090 0.9790
4.3465 -2.2836 -2.0095 0.9790
4.6832 -1.4743 -2.0095 0.9790
4.7957 -1.0502 -2.0093 0.9790
4.8995 0.2578 -2.0080 0.9790
4.7723 1.1242 -2.0066 0.9790
4.6510 1.5451 -2.0058 0.9790
4.4924 1.9532 -2.0049 0.9791
4.0693 2.7181 -2.0028 0.9791
3.5170 3.3945 -2.0005 0.9791
3.1979 3.6926 -1.9993 0.9791
2.4871 4.1970 -1.9967 0.9791
2.1012 4.3994 -1.9954 0.9791
1.6989 4.5664 -1.9941 0.9792
0.4275 4.8439 -1.9902 0.9792
-0.0067 4.8598 -1.9890 0.9792
-0.8697 4.7756 -1.9867 0.9792
-1.2919 4.6765 -1.9856 0.9792
-2.8420 3.9218 -1.9822 0.9793
-3.1797 3.6513 -1.9816 0.9793
-3.4921 3.3520 -1.9811 0.9793
-3.7766 3.0263 -1.9807 0.9793
-4.0311 2.6767 -1.9804 0.9793
-2.0953 0.4875 -0.8804 0.9907
-2.0207 0.2832 -0.8351 0.9912
-2.0008 -0.0792 -0.8195 0.9914
-2.0891 -0.4635 -0.8758 0.9908
-4.6191 -1.4680 -1.9836 0.9793
-4.4716 -1.8753 -1.9845 0.9793
-4.2884 -2.2681 -1.9855 0.9793
-3.5401 -3.3289 -1.9888 0.9792
-3.2308 -3.6338 -1.9900 0.9792
-2.8953 -3.9102 -1.9913 0.9792
-2.5363 -4.1557 -1.9926 0.9792
-2.1566 -4.3684 -1.9939 0.9792
-1.7592 -4.5465 -1.9952 0.9792
-1.3472 -4.6884 -1.9965 0.9791
-0.4926 -4.8595 -1.9991 0.9791
0.8140 -4.8250 -2.0027 0.9791
1.6608 -4.6082 -2.0048 0.9791
3.1736 -3.7414 -2.0079 0.9790
4.0541 -2.7686 -2.0092 0.9790
4.4824 -2.0038 -2.0095 0.9790
4.8982 -0.3082 -2.0087 0.9790
4.5423 1.8359 -2.0052 0.9790
4.1393 2.6118 -2.0031 0.9791
3.2935 3.6088 -1.9996 0.9791
2.9563 3.8859 -1.9984 0.9791
2.2153 4.3441 -1.9958 0.9791
1.8175 4.5215 -1.9944 0.9792
-3.3614 3.0626 -1.9818 0.9804
-3.6207 2.7498 -1.9814 0.9804
-1.4938 0.4490 -0.6798 0.9932
-1.4758 0.3031 -0.6566 0.9934
-1.4383 0.0343 -0.6270 0.9937
-1.4590 -0.0958 -0.6372 0.9936
-1.4734 -0.2301 -0.6499 0.9935
-3.5150 -2.9087 -1.9884 0.9803
-3.2431 -3.2127 -1.9895 0.9803
-2.9451 -3.4914 -1.9907 0.9803
-1.5407 -4.3119 -1.9955 0.9802
-1.1503 -4.4349 -1.9968 0.9802
-0.7503 -4.5226 -1.9980 0.9802
-0.3438 -4.5742 -1.9992 0.9802
0.8820 -4.5093 -2.0025 0.9802
1.6714 -4.2847 -2.0044 0.9801
2.4087 -3.9224 -2.0060 0.9801
3.3648 -3.1467 -2.0078 0.9801
3.6329 -2.8343 -2.0081 0.9801
3.8720 -2.4990 -2.0084 0.9801
4.5710 -0.5800 -2.0081 0.9801
4.5992 0.2420 -2.0072 0.9801
4.5579 0.6514 -2.0066 0.9801
4.4800 1.0554 -2.0059 0.9801
4.3662 1.4505 -2.0051 0.9801
4.0351 2.2018 -2.0033 0.9801
3.8205 2.5520 -2.0023 0.9802
3.5755 2.8813 -2.0013 0.9802
3.3022 3.1872 -2.0001 0.9802
3.0028 3.4672 -1.9990 0.9802
1.2056 4.4110 -1.9929 0.9802
0.4015 4.5496 -1.9905 0.9803
-0.0063 4.5646 -1.9893 0.9803
-0.4135 4.5433 -1.9882 0.9803
-1.2136 4.3929 -1.9862 0.9803
-1.6001 4.2650 -1.9853 0.9803
-3.7872 2.5148 -1.9813 0.9804
-3.9962 2.1664 -1.9811 0.9804
-4.1736 1.8010 -1.9810 0.9804
-1.4929 0.4914 -0.6850 0.9932
-1.4859 0.3457 -0.6649 0.9934
-1.4737 0.2065 -0.6485 0.9935
-1.4522 0.0724 -0.6337 0.9937
-1.4471 -0.0573 -0.6312 0.9937
-1.4731 -0.1910 -0.6474 0.9935
-1.4824 -0.3289 -0.6618 0.9934
-1.4937 -0.4747 -0.6831 0.9932
-3.8240 -2.4829 -1.9870 0.9803
-3.5890 -2.8158 -1.9881 0.9803
-3.0344 -3.4130 -1.9903 0.9803
-2.7193 -3.6725 -1.9915 0.9803
-2.3820 -3.9029 -1.9927 0.9802
-2.0253 -4.1025 -1.9939 0.9802
-0.8675 -4.5008 -1.9976 0.9802
-0.4626 -4.5630 -1.9988 0.9802
-0.0534 -4.5887 -2.0000 0.9802
0.7643 -4.5301 -2.0022 0.9802
1.1662 -4.4460 -2.0032 0.9801
2.3056 -3.9833 -2.0058 0.9801
3.5578 -2.9277 -2.0080 0.9801
3.8055 -2.5988 -2.0083 0.9801
4.2076 -1.8810 -2.0086 0.9801
4.4746 -1.1027 -2.0084 0.9801
4.5546 -0.6987 -2.0082 0.9801
4.6043 0.1223 -2.0074 0.9801
4.5738 0.5327 -2.0068 0.9801
4.2643 1.7236 -2.0045 0.9801
4.0916 2.0964 -2.0036 0.9801
3.3846 3.1007 -2.0005 0.9802
2.7760 3.6489 -1.9981 0.9802
2.0803 4.0794 -1.9957 0.9802
1.7068 4.2462 -1.9945 0.9802
1.3202 4.3789 -1.9932 0.9802
-2.8965 3.1564 -1.9830 0.9813
-3.1660 2.8846 -1.9825 0.9813
-3.4103 2.5900 -1.9822 0.9813
-3.8158 1.9419 -1.9819 0.9813
-1.2530 0.5025 -0.6249 0.9941
-1.2698 0.3817 -0.6137 0.9942
-1.2750 0.1450 -0.5940 0.9944
-1.2636 0.0301 -0.5851 0.9944
-1.2706 -0.0834 -0.5894 0.9944
-1.2647 -0.4385 -0.6196 0.9941
-3.7408 -2.1048 -1.9868 0.9813
-3.3101 -2.7391 -1.9888 0.9812
-3.0540 -3.0253 -1.9898 0.9812
-2.4701 -3.5240 -1.9920 0.9812
-2.1468 -3.7326 -1.9932 0.9812
-1.8061 -3.9116 -1.9943 0.9812
-1.4505 -4.0596 -1.9955 0.9812
-1.0830 -4.1753 -1.9966 0.9812
-0.7063 -4.2577 -1.9978 0.9812
-0.3236 -4.3062 -1.9989 0.9811
0.0621 -4.3203 -2.0000 0.9811
0.4478 -4.2997 -2.0010 0.9811
0.8302 -4.2447 -2.0020 0.9811
1.5732 -4.0330 -2.0038 0.9811
2.5884 -3.4758 -2.0060 0.9811
2.8891 -3.2317 -2.0065 0.9811
3.4191 -2.6675 -2.0074 0.9811
3.6441 -2.3519 -2.0076 0.9811
3.8398 -2.0174 -2.0078 0.9811
4.2367 -0.9278 -2.0076 0.9811
4.3020 -0.5458 -2.0073 0.9811
4.2167 0.9933 -2.0053 0.9811
3.9698 1.7260 -2.0037 0.9811
2.8268 3.2641 -1.9987 0.9811
2.5227 3.5014 -1.9976 0.9812
2.1988 3.7105 -1.9965 0.9812
1.8577 3.8897 -1.9953 0.9812
1.1351 4.1533 -1.9930 0.9812
0.7594 4.2356 -1.9918 0.9812
0.3780 4.2841 -1.9907 0.9812
-0.3894 4.2784 -1.9886 0.9812
-0.7694 4.2245 -1.9876 0.9813
-1.1429 4.1370 -1.9867 0.9813
-1.8588 3.8646 -1.9850 0.9813
-2.1955 3.6819 -1.9843 0.9813
-3.0901 2.9661 -1.9827 0.9813
-3.3419 2.6779 -1.9823 0.9813
-3.7641 2.0406 -1.9819 0.9813
-1.2445 0.5371 -0.6274 0.9940
-1.2671 0.4171 -0.6175 0.9941
-1.2750 0.1787 -0.5960 0.9943
-1.2680 0.0632 -0.5877 0.9944
-1.2752 -0.1653 -0.5952 0.9943
-1.2478 -0.5233 -0.6263 0.9941
-3.6012 -2.3382 -1.9875 0.9813
-1.1910 -4.1450 -1.9963 0.9812
-0.8167 -4.2372 -1.9975 0.9812
-0.0503 -4.3197 -1.9997 0.9811
0.3357 -4.3093 -2.0007 0.9811
0.7194 -4.2642 -2.0017 0.9811
1.8260 -3.9264 -2.0044 0.9811
2.1700 -3.7491 -2.0052 0.9811
2.4969 -3.5416 -2.0058 0.9811
2.8039 -3.3055 -2.0064 0.9811
3.3484 -2.7554 -2.0073 0.9811
3.7859 -2.1166 -2.0077 0.9811
4.1021 -1.4096 -2.0078 0.9811
4.3274 -0.2723 -2.0071 0.9811
4.3335 0.1151 -2.0066 0.9811
4.3048 0.5014 -2.0061 0.9811
4.1443 1.2580 -2.0047 0.9811
4.0138 1.6223 -2.0040 0.9811
3.6581 2.3081 -2.0022 0.9811
3.4357 2.6242 -2.0012 0.9811
3.1861 2.9189 -2.0001 0.9811
2.9112 3.1899 -1.9990 0.9811
2.2950 3.6527 -1.9968 0.9812
1.9586 3.8407 -1.9956 0.9812
1.6070 3.9979 -1.9945 0.9812
-3.2193 2.4449 -1.9829 0.9822
-3.4243 2.1475 -1.9827 0.9822
-1.0905 0.5549 -0.6002 0.9946
-1.1133 0.4464 -0.5884 0.9947
-1.1309 0.3399 -0.5792 0.9948
-1.1371 0.2336 -0.5694 0.9948
-1.1442 0.1301 -0.5649 0.9949
-1.1429 -0.0751 -0.5618 0.9949
-1.1430 -0.1785 -0.5675 0.9949
-1.1330 -0.2825 -0.5728 0.9948
-1.1248 -0.3900 -0.5840 0.9947
-1.0990 -0.4949 -0.5912 0.9946
-3.3408 -2.2949 -1.9882 0.9821
-3.1241 -2.5852 -1.9891 0.9821
-2.0260 -3.5225 -1.9933 0.9821
-1.0219 -3.9398 -1.9965 0.9820
-0.3053 -4.0631 -1.9987 0.9820
0.0586 -4.0762 -1.9997 0.9820
0.7833 -4.0047 -2.0016 0.9820
1.1382 -3.9205 -2.0025 0.9820
1.8186 -3.6585 -2.0041 0.9820
2.4418 -3.2789 -2.0054 0.9820
2.7254 -3.0486 -2.0059 0.9819
2.9873 -2.7937 -2.0063 0.9819
3.4375 -2.2186 -2.0069 0.9819
3.6221 -1.9030 -2.0070 0.9819
3.9027 -1.2286 -2.0070 0.9819
3.9965 -0.8752 -2.0068 0.9819
4.0872 -0.1506 -2.0062 0.9819
4.0835 0.2149 -2.0058 0.9819
4.0469 0.5784 -2.0053 0.9820
3.9779 0.9371 -2.0047 0.9820
3.3930 2.2664 -2.0015 0.9820
2.3804 3.3039 -1.9974 0.9820
2.0748 3.5013 -1.9964 0.9820
1.7530 3.6705 -1.9953 0.9820
-0.3675 4.0381 -1.9890 0.9821
-0.7262 3.9873 -1.9880 0.9821
-1.0787 3.9048 -1.9871 0.9821
-3.1547 2.5280 -1.9830 0.9822
-1.1075 0.6004 -0.6179 0.9944
-1.1326 0.2635 -0.5704 0.9948
-1.1439 0.1603 -0.5666 0.9949
-1.1414 0.0569 -0.5606 0.9949
-1.1290 -0.3588 -0.5811 0.9947
-1.1084 -0.4648 -0.5896 0.9947
-3.3990 -2.2070 -1.9879 0.9821
-3.1899 -2.5027 -1.9888 0.9821
-1.7995 -3.6451 -1.9940 0.9821
-1.1239 -3.9113 -1.9962 0.9820
-0.4109 -4.0531 -1.9984 0.9820
-0.0475 -4.0758 -1.9994 0.9820
0.3167 -4.0658 -2.0004 0.9820
1.0356 -3.9483 -2.0023 0.9820
1.3845 -3.8417 -2.0031 0.9820
1.7226 -3.7042 -2.0039 0.9820
2.0471 -3.5369 -2.0046 0.9820
2.3554 -3.3410 -2.0052 0.9820
2.6450 -3.1183 -2.0057 0.9819
2.9135 -2.8704 -2.0062 0.9819
3.3785 -2.3072 -2.0068 0.9819
3.5713 -1.9966 -2.0070 0.9819
3.9725 -0.9789 -2.0069 0.9819
4.0822 -0.2568 -2.0064 0.9819
4.0880 0.1086 -2.0059 0.9819
3.2416 2.4759 -2.0008 0.9820
3.0061 2.7540 -1.9998 0.9820
2.7469 3.0098 -1.9988 0.9820
2.4659 3.2413 -1.9978 0.9820
1.5165 3.7727 -1.9945 0.9820
-2.5861 2.8181 -1.9842 0.9829
-2.8268 2.5755 -1.9839 0.9829
-0.9668 0.4920 -0.5628 0.9951
-0.9997 0.4009 -0.5588 0.9952
-1.0172 0.3058 -0.5510 0.9952
-1.0375 0.1180 -0.5417 0.9953
-1.0329 0.0246 -0.5360 0.9954
-1.0368 -0.0681 -0.5390 0.9953
-1.0347 -0.1616 -0.5433 0.9953
-1.0203 -0.2544 -0.5455 0.9953
-0.9863 -0.4441 -0.5611 0.9951
-3.1594 -2.1703 -1.9885 0.9829
-2.7256 -2.7001 -1.9903 0.9829
-2.4749 -2.9340 -1.9913 0.9829
-1.9157 -3.3307 -1.9933 0.9828
-1.2942 -3.6221 -1.9954 0.9828
0.0554 -3.8537 -1.9994 0.9828
0.7405 -3.7858 -2.0012 0.9828
1.0759 -3.7062 -2.0021 0.9828
1.7191 -3.4584 -2.0036 0.9827
2.3081 -3.0994 -2.0048 0.9827
2.8237 -2.6407 -2.0057 0.9827
3.4236 -1.7988 -2.0063 0.9827
3.5706 -1.4860 -2.0064 0.9827
3.6889 -1.1613 -2.0063 0.9827
3.7776 -0.8273 -2.0062 0.9827
3.8634 -0.1423 -2.0056 0.9827
3.7602 0.8858 -2.0041 0.9827
3.5403 1.5393 -2.0027 0.9828
3.3875 1.8484 -2.0019 0.9828
3.2076 2.1425 -2.0011 0.9828
3.0022 2.4193 -2.0002 0.9828
2.7729 2.6763 -1.9993 0.9828
2.5217 2.9118 -1.9983 0.9828
1.9617 3.3104 -1.9963 0.9828
0.6777 3.7798 -1.9922 0.9828
-0.0053 3.8363 -1.9902 0.9829
-0.3475 3.8187 -1.9893 0.9829
-0.6867 3.7708 -1.9884 0.9829
-1.0202 3.6929 -1.9876 0.9829
-1.9601 3.2871 -1.9854 0.9829
-2.5120 2.8846 -1.9844 0.9829
-2.7589 2.6483 -1.9840 0.9829
-2.9839 2.3910 -1.9836 0.9829
-3.1850 2.1149 -1.9834 0.9829
-0.9545 0.5175 -0.5633 0.9951
-0.9917 0.4280 -0.5604 0.9951
-1.0361 0.1452 -0.5428 0.9953
-1.0357 0.0517 -0.5380 0.9953
-1.0368 -0.1344 -0.5424 0.9953
-1.0257 -0.2275 -0.5450 0.9953
-1.0153 -0.3227 -0.5527 0.9952
-0.9951 -0.4173 -0.5598 0.9951
-3.0166 -2.3668 -1.9891 0.9829
-2.7946 -2.6279 -1.9901 0.9829
-2.2850 -3.0859 -1.9920 0.9828
-2.0014 -3.2793 -1.9930 0.9828
-1.7015 -3.4466 -1.9941 0.9828
-1.3878 -3.5866 -1.9951 0.9828
-0.0449 -3.8533 -1.9991 0.9828
0.2994 -3.8437 -2.0001 0.9828
0.6417 -3.8033 -2.0010 0.9828
2.7539 -2.7132 -2.0056 0.9827
3.5308 -1.5784 -2.0064 0.9827
3.8221 -0.5864 -2.0060 0.9827
3.8586 -0.2428 -2.0057 0.9827
3.8641 0.1026 -2.0053 0.9827
3.8386 0.4471 -2.0049 0.9827
3.7823 0.7877 -2.0043 0.9827
3.6957 1.1219 -2.0037 0.9827
3.5796 1.4468 -2.0030 0.9828
3.2626 2.0586 -2.0014 0.9828
2.5970 2.8456 -1.9986 0.9828
-2.4502 2.6700 -1.9848 0.9836
-2.6782 2.4402 -1.9844 0.9836
-2.8850 2.1910 -1.9841 0.9836
-0.8650 0.5425 -0.5592 0.9954
-0.8868 0.4513 -0.5450 0.9955
-0.9076 0.3640 -0.5356 0.9956
-0.9378 0.1926 -0.5244 0.9956
-0.9437 0.0225 -0.5170 0.9957
-0.9443 -0.1475 -0.5235 0.9957
-0.9161 -0.3176 -0.5310 0.9956
-0.8991 -0.4049 -0.5400 0.9955
-0.8740 -0.4917 -0.5492 0.9954
-0.8765 -0.6021 -0.5824 0.9952
-2.5820 -2.5578 -1.9906 0.9836
-2.3445 -2.7793 -1.9915 0.9836
-1.8146 -3.1549 -1.9934 0.9835
-1.5265 -3.3060 -1.9944 0.9835
-1.2258 -3.4307 -1.9954 0.9835
-0.5968 -3.5975 -1.9973 0.9835
-0.2734 -3.6382 -1.9983 0.9835
0.0525 -3.6497 -1.9992 0.9835
0.3782 -3.6321 -2.0001 0.9835
0.7013 -3.5853 -2.0009 0.9835
1.0189 -3.5098 -2.0017 0.9835
2.8868 -2.2522 -2.0054 0.9834
3.3810 -1.4071 -2.0058 0.9834
1.8888 -0.2396 -1.0428 0.9914
1.8845 0.0992 -1.0336 0.9914
3.2080 1.7505 -2.0016 0.9835
2.8432 2.2912 -1.9999 0.9835
2.6262 2.5347 -1.9990 0.9835
2.3883 2.7577 -1.9981 0.9835
0.9595 3.5105 -1.9933 0.9835
-0.0050 3.6342 -1.9904 0.9836
-0.3292 3.6176 -1.9896 0.9836
-0.6506 3.5723 -1.9887 0.9836
-1.2745 3.3970 -1.9872 0.9836
-1.5721 3.2686 -1.9865 0.9836
-1.8570 3.1142 -1.9859 0.9836
-2.1270 2.9352 -1.9854 0.9836
-2.3800 2.7330 -1.9849 0.9836
-2.6140 2.5092 -1.9845 0.9836
-0.8724 0.5793 -0.5736 0.9952
-0.8790 0.4766 -0.5477 0.9955
-0.9328 0.2170 -0.5246 0.9956
-0.9457 0.1325 -0.5230 0.9957
-0.9349 -0.2074 -0.5245 0.9956
-0.9046 -0.3794 -0.5373 0.9955
-0.8822 -0.4666 -0.5466 0.9955
-0.8696 -0.5646 -0.5679 0.9953
-2.8577 -2.2421 -1.9894 0.9836
-2.6473 -2.4894 -1.9903 0.9836
-1.8958 -3.1062 -1.9931 0.9835
-1.6117 -3.2647 -1.9941 0.9835
-0.0425 -3.6494 -1.9989 0.9835
0.6077 -3.6019 -2.0007 0.9835
1.8325 -3.1660 -2.0035 0.9835
2.1084 -2.9906 -2.0041 0.9835
3.0239 -2.0651 -2.0055 0.9834
3.1964 -1.7870 -2.0057 0.9834
1.8870 -0.6485 -1.0929 0.9909
1.8861 -0.1187 -1.0350 0.9914
1.8792 0.0499 -1.0296 0.9915
3.3898 1.3701 -2.0025 0.9835
3.2528 1.6666 -2.0018 0.9835
2.6916 2.4658 -1.9993 0.9835
2.2081 2.9025 -1.9974 0.9835
1.3582 3.3788 -1.9945 0.9835
1.0506 3.4849 -1.9935 0.9835
-2.5414 2.3155 -1.9850 0.9842
-0.8040 0.5043 -0.5479 0.9956
-0.8821 0.1003 -0.5126 0.9959
-0.8818 -0.0579 -0.5102 0.9959
-0.8714 -0.2173 -0.5185 0.9959
-0.8609 -0.2985 -0.5261 0.9958
-0.8450 -0.3805 -0.5351 0.9957
-0.8206 -0.4617 -0.5436 0.9957
-0.7979 -0.5481 -0.5589 0.9955
-2.2243 -2.6368 -1.9917 0.9842
-1.9809 -2.8261 -1.9926 0.9842
-1.7215 -2.9930 -1.9935 0.9842
-1.4481 -3.1362 -1.9944 0.9842
-1.1629 -3.2545 -1.9953 0.9842
-0.2593 -3.4510 -1.9981 0.9841
0.0498 -3.4619 -1.9989 0.9841
0.3588 -3.4451 -1.9998 0.9841
0.9664 -3.3290 -2.0013 0.9841
1.8157 -2.9567 -2.0032 0.9841
2.3136 -2.5879 -2.0042 0.9841
2.5359 -2.3715 -2.0046 0.9841
2.7378 -2.1360 -2.0048 0.9841
2.9179 -1.8832 -2.0050 0.9841
1.7328 -0.3795 -1.0241 0.9918
1.7418 -0.2210 -1.0137 0.9919
1.7412 0.2489 -1.0155 0.9919
1.7323 0.4081 -1.0275 0.9918
3.1799 1.3825 -2.0019 0.9841
3.0427 1.6603 -2.0012 0.9841
2.8812 1.9246 -2.0005 0.9841
2.6969 2.1732 -1.9997 0.9841
2.4910 2.4043 -1.9988 0.9841
2.0220 2.8064 -1.9970 0.9842
1.7626 2.9744 -1.9961 0.9842
1.4893 3.1184 -1.9952 0.9842
1.2045 3.2374 -1.9943 0.9842
0.6090 3.3968 -1.9924 0.9842
0.3032 3.4361 -1.9915 0.9842
-0.3124 3.4323 -1.9898 0.9842
-0.6173 3.3893 -1.9890 0.9842
-1.7621 2.9550 -1.9864 0.9842
-2.0183 2.7852 -1.9859 0.9842
-2.4804 2.3809 -1.9850 0.9842
-0.8255 0.4475 -0.5421 0.9957
-0.8484 0.3661 -0.5335 0.9957
-0.8817 -0.1143 -0.5133 0.9959
-0.8749 -0.1941 -0.5174 0.9959
-0.8639 -0.2746 -0.5234 0.9958
-0.7980 -0.5181 -0.5493 0.9956
-2.7114 -2.1273 -1.9897 0.9842
-2.5117 -2.3618 -1.9905 0.9842
-2.0535 -2.7733 -1.9923 0.9842
-1.7985 -2.9469 -1.9932 0.9842
-1.5290 -3.0971 -1.9941 0.9842
-1.2470 -3.2227 -1.9951 0.9842
-0.3490 -3.4427 -1.9978 0.9841
0.5764 -3.4164 -2.0004 0.9841
1.4626 -3.1450 -2.0025 0.9841
1.7380 -3.0027 -2.0031 0.9841
2.2454 -2.6471 -2.0041 0.9841
2.4732 -2.4366 -2.0045 0.9841
2.6812 -2.2064 -2.0048 0.9841
2.8678 -1.9585 -2.0050 0.9841
1.7104 -0.5878 -1.0442 0.9917
1.7405 -0.2670 -1.0166 0.9919
1.7378 -0.1093 -1.0053 0.9920
1.7323 0.0460 -1.0005 0.9920
1.7327 0.3609 -1.0218 0.9919
1.7830 0.7207 -1.1103 0.9912
2.9307 1.8492 -2.0007 0.9841
2.7528 2.1026 -1.9999 0.9841
2.5531 2.3389 -1.9991 0.9841
2.3331 2.5564 -1.9982 0.9841
2.0946 2.7532 -1.9973 0.9841
1.8396 2.9279 -1.9964 0.9842
1.5702 3.0790 -1.9955 0.9842
1.2885 3.2054 -1.9945 0.9842
0.9967 3.3061 -1.9936 0.9842
