ply
format ascii 1.0
element vertex 1232
property float32 x
property float32 y
property float32 z
property float32 I
end_header
12.4337 -13.6279 3.2528 0.9278
-7.6834 -13.3901 2.7221 0.9392
5.3926 -13.6612 2.5897 0.9421
12.3076 -13.6228 3.2372 0.9281
15.8575 8.8549 3.2025 0.9289
8.5836 10.1338 2.3417 0.9475
-7.6849 -13.3928 2.3655 0.9394
15.8433 8.8470 2.7799 0.9292
8.5729 10.1212 2.0320 0.9477
-7.6865 -13.3954 2.0111 0.9396
15.8399 8.8451 2.3625 0.9294
8.5623 10.1087 1.7251 0.9480
8.1170 17.5274 2.5153 0.9250
-1.8137 17.3024 2.2655 0.9322
15.8146 8.9327 1.9504 0.9295
8.4967 10.1313 1.4199 0.9482
-1.7749 16.1690 1.7467 0.9367
-15.5887 9.8727 1.9814 0.9285
15.8365 8.8432 1.9477 0.9296
8.5518 10.0962 1.4208 0.9482
15.8091 8.9296 1.5370 0.9297
-1.8245 17.4048 1.4814 0.9322
8.4760 10.1066 0.8179 0.9485
-15.5863 9.8712 1.1440 0.9287
8.5310 10.0717 0.8185 0.9485
4.0831 -13.6250 0.5609 0.9447
-15.5852 9.8705 0.7274 0.9288
-7.6925 -13.4060 0.6095 0.9400
8.5206 10.0595 0.5198 0.9486
-1.8244 17.4041 0.6901 0.9323
15.7968 8.9226 0.3065 0.9300
8.4556 10.0822 0.2223 0.9487
-7.6940 -13.4086 0.2611 0.9400
15.8283 8.8386 0.3062 0.9300
-1.8244 17.4038 0.2956 0.9324
15.7928 8.9203 -0.1021 0.9300
8.4454 10.0701 -0.0740 0.9488
-7.6955 -13.4112 -0.0871 0.9400
10.1261 3.5227 -0.3019 0.9580
15.7888 8.9181 -0.5106 0.9300
8.4353 10.0580 -0.3696 0.9488
-18.7501 5.7076 -0.5519 0.9246
10.1286 3.4681 -0.3015 0.9581
15.8255 8.8370 -0.5104 0.9300
-15.5805 9.8675 -0.9353 0.9288
-17.5344 7.1090 -0.9595 0.9270
15.8240 8.8362 -0.9191 0.9300
8.4797 10.0111 -0.6654 0.9488
-1.8245 17.4047 -0.8875 0.9323
11.8147 2.9551 -0.8930 0.9523
9.8919 3.4412 -0.7679 0.9589
8.4150 10.0338 -0.9602 0.9488
-13.2136 8.3685 -1.1468 0.9392
-16.9825 8.7309 -1.4001 0.9263
-16.9160 6.8583 -1.3384 0.9294
-17.8896 5.4457 -1.3711 0.9277
-7.7000 -13.4191 -1.1344 0.9398
9.8959 3.3884 -0.7669 0.9589
8.1176 17.5287 -1.4164 0.9254
-6.3939 8.5416 -0.7823 0.9581
4.1493 -13.8461 -1.3877 0.9436
11.6237 2.9073 -1.1503 0.9530
9.7666 4.4140 -1.0290 0.9578
8.4048 10.0217 -1.2557 0.9488
7.9497 17.3887 -1.8356 0.9260
4.8137 18.8973 -1.8722 0.9246
1.3447 19.1656 -1.8445 0.9257
-1.9018 17.3253 -1.6733 0.9324
-6.8240 17.1646 -1.7733 0.9285
-5.1877 8.3154 -0.9409 0.9614
-6.3952 8.4567 -1.0179 0.9583
-14.1321 10.8384 -1.7098 0.9309
-13.1797 8.3471 -1.4977 0.9392
-15.7524 8.0985 -1.7005 0.9313
-17.5901 7.1316 -1.8222 0.9266
-18.2900 5.5675 -1.8355 0.9261
-18.7048 3.9048 -1.8345 0.9261
-18.9811 2.2139 -1.8346 0.9261
-18.6750 -4.6225 -1.8470 0.9256
-18.2444 -6.2968 -1.8529 0.9254
-16.1158 -11.0587 -1.8764 0.9245
-13.9917 -11.5736 -1.7433 0.9296
-11.8446 -14.0532 -1.7645 0.9288
-8.8779 -12.6852 -1.4865 0.9397
-3.0423 -11.8223 -1.1720 0.9521
-3.1003 -18.9485 -1.8433 0.9257
-1.4016 -19.3003 -1.8578 0.9252
0.3354 -19.4998 -1.8724 0.9246
11.8603 2.9050 -1.1723 0.9521
15.6689 8.7496 -1.7229 0.9304
8.4593 9.9870 -1.2565 0.9488
8.0200 11.4001 -1.3382 0.9455
7.8728 13.6428 -1.5122 0.9387
-3.6217 18.4205 -1.8023 0.9273
-5.2155 17.8798 -1.7881 0.9279
-4.1860 8.3814 -0.8994 0.9631
-12.0034 13.3517 -1.7237 0.9304
7.9442 -15.6184 -2.0815 0.9318
10.7078 -14.0878 -2.1019 0.9312
11.9779 -13.1283 -2.1110 0.9309
13.1561 -12.0489 -2.1191 0.9307
15.1882 -9.5671 -2.1322 0.9302
16.0203 -8.1868 -2.1371 0.9301
17.2723 -5.2117 -2.1431 0.9299
17.9322 -2.0471 -2.1439 0.9299
18.0307 -0.4324 -2.1424 0.9299
17.7617 2.7826 -2.1356 0.9301
11.3672 2.8432 -1.3919 0.9539
9.7898 3.4056 -1.2312 0.9591
14.2723 8.0615 -1.9471 0.9361
13.4331 9.2663 -1.9385 0.9364
12.4885 10.3818 -1.9291 0.9367
9.1610 9.1214 -1.5356 0.9493
7.6422 10.9768 -1.5888 0.9475
6.5662 14.3627 -1.8759 0.9384
5.2258 14.8147 -1.8661 0.9387
3.8562 15.1384 -1.8557 0.9390
2.4702 15.3328 -1.8448 0.9394
1.0804 15.3987 -1.8336 0.9397
-1.6633 15.1526 -1.8107 0.9404
-4.2850 14.4268 -1.7877 0.9412
-4.2353 8.3773 -1.1150 0.9629
-5.1745 8.2942 -1.1612 0.9614
-6.3463 8.3920 -1.2498 0.9585
-9.8733 10.8748 -1.7447 0.9426
-10.7706 9.9127 -1.7388 0.9427
-12.2988 7.7892 -1.7293 0.9430
-15.0107 4.5693 -1.8638 0.9388
-15.3095 -3.7895 -1.8734 0.9384
-14.4706 -6.4974 -1.8842 0.9381
-13.1783 -9.0430 -1.8985 0.9376
-11.4195 -11.3147 -1.9096 0.9373
-9.6504 -11.4499 -1.7787 0.9415
-8.6326 -12.3347 -1.7884 0.9412
-6.3664 -13.8359 -1.8092 0.9405
-3.0307 -11.7774 -1.4446 0.9522
-2.5052 -15.3116 -1.8430 0.9394
-1.1308 -15.5724 -1.8547 0.9390
1.6867 -15.7197 -1.8780 0.9383
3.1068 -15.6004 -1.8895 0.9379
7.8655 -15.6526 -2.0809 0.9319
9.2831 -14.9613 -2.0915 0.9315
11.9109 -13.1838 -2.1105 0.9309
14.1743 -10.9259 -2.1259 0.9304
16.6832 -6.8115 -2.1405 0.9300
17.6604 -3.7318 -2.1441 0.9299
18.0294 -0.5206 -2.1425 0.9299
17.9806 1.0950 -2.1398 0.9300
11.7482 2.8775 -1.4368 0.9524
9.7446 4.3468 -1.2675 0.9579
13.4817 9.2028 -1.9390 0.9364
12.5426 10.3235 -1.9296 0.9367
9.2472 9.1177 -1.5426 0.9490
7.9395 13.7583 -1.8869 0.9380
6.6382 14.3343 -1.8764 0.9384
5.2997 14.7934 -1.8666 0.9387
2.5460 15.3256 -1.8454 0.9393
1.1560 15.3984 -1.8343 0.9397
-0.2264 15.3442 -1.8229 0.9401
-4.2158 14.4526 -1.7883 0.9412
-4.1846 8.3786 -1.1125 0.9630
-6.3470 8.4789 -1.2581 0.9582
-9.8219 10.9252 -1.7451 0.9425
3.8320 -12.7871 -1.8914 0.9475
5.3959 -13.4763 -2.0568 0.9430
7.7838 -12.4091 -2.0755 0.9425
8.8988 -11.7078 -2.0837 0.9423
13.2764 -6.7846 -2.1125 0.9415
14.6423 -3.0194 -2.1183 0.9414
14.8527 -1.6956 -2.1181 0.9414
14.8920 0.9800 -2.1146 0.9415
9.6670 3.3629 -1.4502 0.9595
9.6186 4.3471 -1.4956 0.9583
12.8353 7.2498 -2.0887 0.9422
11.5517 7.9684 -1.9884 0.9449
9.0747 9.0355 -1.8144 0.9496
3.2226 12.6509 -1.8497 0.9486
2.0655 12.8208 -1.8400 0.9489
0.9041 12.8865 -1.8304 0.9491
-0.2524 12.8490 -1.8209 0.9494
-2.5157 12.4730 -1.8029 0.9499
-3.6058 12.1402 -1.7944 0.9501
-4.2357 8.3781 -1.3302 0.9628
-5.1749 8.2949 -1.3853 0.9613
-9.1117 8.3860 -1.7546 0.9512
-9.8869 7.5826 -1.7654 0.9509
-11.8482 6.0913 -1.8876 0.9476
-13.0089 2.7157 -1.8830 0.9477
-13.2007 1.5397 -1.8831 0.9477
-13.2923 0.3513 -1.8840 0.9477
-13.2830 -0.8415 -1.8858 0.9476
-13.1725 -2.0307 -1.8885 0.9476
-12.9612 -3.2082 -1.8919 0.9475
-12.6499 -4.3659 -1.8961 0.9474
-11.7340 -6.5900 -1.9068 0.9471
-10.4436 -8.6387 -1.9204 0.9467
-8.8077 -10.4501 -1.9364 0.9463
-6.4841 -11.3000 -1.8460 0.9487
-5.3525 -11.6324 -1.8143 0.9496
-0.9469 -13.0401 -1.8525 0.9486
2.5937 -13.0238 -1.8816 0.9478
3.7684 -12.8023 -1.8909 0.9475
5.3258 -13.4922 -2.0552 0.9431
6.5478 -13.0304 -2.0663 0.9428
7.7213 -12.4442 -2.0751 0.9426
8.8396 -11.7488 -2.0832 0.9423
11.7571 -9.0627 -2.1033 0.9418
12.5513 -7.9921 -2.1083 0.9417
13.2419 -6.8488 -2.1123 0.9415
13.8219 -5.6432 -2.1154 0.9415
14.2853 -4.3867 -2.1173 0.9414
14.9348 -0.4312 -2.1170 0.9414
11.5098 2.8191 -1.6790 0.9533
10.4344 8.5883 -1.9148 0.9469
9.1600 9.0317 -1.8227 0.9494
6.6297 11.4886 -1.8794 0.9478
3.2854 12.6387 -1.8503 0.9486
2.1288 12.8143 -1.8405 0.9489
-0.1897 12.8537 -1.8214 0.9494
-2.4553 12.4884 -1.8033 0.9499
-3.5473 12.1607 -1.7949 0.9501
-5.1364 8.3235 -1.3858 0.9613
-6.3490 8.4816 -1.5012 0.9581
-8.3045 9.2373 -1.7600 0.9511
5.6587 -11.1252 -2.0562 0.9507
6.6565 -10.6119 -2.0637 0.9505
7.6057 -10.0065 -2.0706 0.9503
10.0738 -7.6869 -2.0875 0.9499
10.7433 -6.7672 -2.0917 0.9498
11.8114 -4.7551 -2.0976 0.9497
12.1993 -3.6810 -2.0992 0.9497
12.7362 -0.3054 -2.0987 0.9497
12.7006 0.8358 -2.0968 0.9497
12.5579 1.9674 -2.0940 0.9498
11.9591 4.1603 -2.0859 0.9500
10.9663 6.1942 -2.0748 0.9502
9.5254 7.9185 -2.0406 0.9510
6.5261 9.3736 -1.8816 0.9548
5.6361 9.8781 -1.8736 0.9549
2.7699 10.8740 -1.8486 0.9555
1.7767 11.0282 -1.8402 0.9557
0.7783 11.0928 -1.8319 0.9559
-1.2027 10.9567 -1.8158 0.9563
-2.1701 10.7594 -1.8082 0.9565
-4.2361 8.3790 -1.5467 0.9627
-5.1753 8.2955 -1.6107 0.9611
-8.2575 7.5998 -1.8488 0.9555
-9.7672 6.1858 -1.9046 0.9542
-11.0239 3.3557 -1.8983 0.9544
-11.2764 2.3541 -1.8977 0.9544
-11.4425 1.3346 -1.8978 0.9544
-11.5212 0.3045 -1.8986 0.9544
-11.5116 -0.7293 -1.9002 0.9543
-11.4138 -1.7595 -1.9025 0.9543
-10.9550 -3.7810 -1.9092 0.9541
-10.1541 -5.7027 -1.9185 0.9539
-9.6305 -6.6085 -1.9241 0.9538
-9.0288 -7.4685 -1.9303 0.9536
-8.3526 -8.2758 -1.9370 0.9535
-6.7937 -9.7072 -1.9519 0.9531
-5.9212 -10.3191 -1.9599 0.9529
-4.9925 -10.8499 -1.9676 0.9527
-1.8352 -11.2167 -1.8724 0.9550
0.1942 -11.2886 -1.8599 0.9553
4.5642 -11.5626 -2.0479 0.9509
5.6031 -11.1504 -2.0558 0.9507
7.5554 -10.0418 -2.0702 0.9503
9.2795 -8.5823 -2.0823 0.9500
10.0349 -7.7352 -2.0873 0.9499
12.1808 -3.7405 -2.0991 0.9497
12.4716 -2.6354 -2.0999 0.9496
12.7350 -0.3677 -2.0988 0.9497
12.5684 1.9061 -2.0942 0.9498
12.3260 3.0190 -2.0906 0.9499
10.0933 4.5023 -1.8207 0.9562
10.9983 6.1415 -2.0752 0.9502
10.3714 7.0796 -2.0687 0.9504
9.6203 7.9182 -2.0526 0.9507
7.4143 8.7533 -1.8898 0.9546
6.5734 9.3437 -1.8820 0.9547
5.6857 9.8528 -1.8740 0.9549
1.8311 11.0221 -1.8407 0.9557
0.8327 11.0916 -1.8324 0.9559
-1.1494 10.9650 -1.8163 0.9563
-3.0618 10.4964 -1.8012 0.9566
-3.9742 10.1406 -1.7943 0.9568
-4.1853 8.3800 -1.5431 0.9627
-5.1372 8.3248 -1.6115 0.9611
-6.3382 8.4671 -1.7424 0.9580
-7.1871 7.9944 -1.7710 0.9574
8.7782 -6.6983 -2.0755 0.9561
9.8634 -5.0404 -2.0820 0.9559
10.2859 -4.1410 -2.0842 0.9559
10.9384 1.7137 -2.0811 0.9559
10.4220 3.6256 -2.0741 0.9561
10.0336 4.5346 -2.0696 0.9562
9.5634 5.4017 -2.0645 0.9563
9.0163 6.2195 -2.0588 0.9564
8.3977 6.9811 -2.0526 0.9565
5.7045 8.1935 -1.8765 0.9602
3.2831 9.3073 -1.8551 0.9606
2.4266 9.5261 -1.8477 0.9608
0.6826 9.7286 -1.8331 0.9611
-0.1908 9.7126 -1.8259 0.9612
-1.9063 9.4512 -1.8122 0.9615
-2.7353 9.2095 -1.8058 0.9617
-3.5372 8.8972 -1.7996 0.9618
-4.2366 8.3798 -1.7649 0.9625
-5.0365 8.0731 -1.7885 0.9620
-5.7904 7.6570 -1.8044 0.9617
-7.5238 6.9245 -1.9219 0.9592
-8.0982 6.2108 -1.9183 0.9593
-8.6080 5.4517 -1.9152 0.9594
-9.4212 3.8197 -1.9108 0.9595
-10.1576 0.2685 -1.9099 0.9595
-10.0605 -1.5509 -1.9133 0.9594
-9.8949 -2.4492 -1.9160 0.9594
-8.4773 -5.8171 -1.9325 0.9590
-7.3464 -7.2790 -1.9439 0.9588
-6.6867 -7.9336 -1.9502 0.9586
-5.9698 -8.5301 -1.9570 0.9585
-5.2006 -9.0632 -1.9641 0.9584
-3.5268 -9.9207 -1.9790 0.9581
-2.6343 -10.2369 -1.9868 0.9579
-1.7136 -10.4732 -1.9947 0.9577
-0.7717 -10.6268 -2.0027 0.9576
0.1840 -10.6955 -2.0106 0.9574
1.1457 -10.6777 -2.0185 0.9572
2.1055 -10.5725 -2.0262 0.9571
4.8921 -9.7354 -2.0479 0.9566
6.5907 -8.7597 -2.0605 0.9564
7.3685 -8.1559 -2.0660 0.9562
8.7444 -6.7404 -2.0752 0.9561
9.8380 -5.0882 -2.0818 0.9559
10.2651 -4.1910 -2.0841 0.9559
10.6066 -3.2571 -2.0855 0.9558
11.0894 -0.3202 -2.0852 0.9559
11.0648 0.6738 -2.0836 0.9559
10.7387 2.6303 -2.0781 0.9560
10.0569 4.4861 -2.0698 0.9562
7.7395 7.6311 -2.0429 0.9567
4.9724 8.6167 -1.8699 0.9603
0.7303 9.7273 -1.8335 0.9611
-0.1434 9.7155 -1.8263 0.9612
-1.8604 9.4623 -1.8126 0.9615
-3.4943 8.9160 -1.8000 0.9618
-4.1857 8.3808 -1.7608 0.9626
-4.9978 8.0989 -1.7888 0.9620
-6.8273 7.5941 -1.9194 0.9593
4.3799 -8.6108 -2.0421 0.9613
5.1479 -8.2069 -2.0478 0.9612
7.1949 -6.5893 -2.0623 0.9609
7.7704 -5.9292 -2.0661 0.9608
8.2830 -5.2175 -2.0693 0.9608
9.6795 1.5165 -2.0710 0.9607
9.2261 3.2096 -2.0649 0.9608
8.8845 4.0153 -2.0609 0.9609
8.4705 4.7845 -2.0564 0.9610
7.4429 6.1874 -2.0459 0.9612
6.8392 6.8096 -2.0401 0.9613
4.4745 7.8422 -1.9085 0.9638
3.6587 8.0028 -1.8600 0.9647
2.9170 8.2694 -1.8535 0.9648
2.1569 8.4675 -1.8470 0.9649
1.3849 8.5962 -1.8405 0.9650
-0.1698 8.6446 -1.8277 0.9653
-1.6981 8.4189 -1.8154 0.9655
-4.7777 7.6582 -1.9080 0.9638
-5.5240 7.3047 -1.9359 0.9632
-6.1484 6.7721 -1.9335 0.9633
-6.7170 6.1819 -1.9296 0.9634
-7.6879 4.8689 -1.9236 0.9635
-8.0837 4.1560 -1.9213 0.9635
-8.4162 3.4122 -1.9197 0.9636
-9.0134 1.0513 -1.9182 0.9636
-9.0654 -0.5743 -1.9201 0.9635
-8.9860 -1.3853 -1.9219 0.9635
-8.3323 -3.7412 -1.9307 0.9633
-7.5638 -5.1903 -1.9391 0.9632
-4.6320 -8.0724 -1.9673 0.9627
-3.1386 -8.8288 -1.9807 0.9624
-2.3434 -9.1062 -1.9876 0.9623
-1.5237 -9.3123 -1.9946 0.9622
-0.6859 -9.4447 -2.0017 0.9620
0.1634 -9.5016 -2.0087 0.9619
1.8689 -9.3842 -2.0226 0.9616
2.7108 -9.2093 -2.0292 0.9615
4.3370 -8.6308 -2.0418 0.9613
5.8388 -7.7604 -2.0528 0.9611
6.5259 -7.2233 -2.0577 0.9610
7.1618 -6.6237 -2.0621 0.9609
7.7406 -5.9666 -2.0659 0.9608
8.2567 -5.2575 -2.0691 0.9608
9.0822 -3.7081 -2.0736 0.9607
9.6068 -2.0300 -2.0755 0.9607
9.8109 -0.2833 -2.0747 0.9607
9.6875 1.4692 -2.0712 0.9607
9.5043 2.3279 -2.0684 0.9608
8.9050 3.9723 -2.0611 0.9609
8.4949 4.7436 -2.0566 0.9610
7.4742 6.1519 -2.0462 0.9612
6.2199 7.3433 -2.0342 0.9614
5.4996 7.8175 -2.0204 0.9617
4.5255 7.8423 -1.9139 0.9637
2.1987 8.4585 -1.8474 0.9649
0.6497 8.6537 -1.8344 0.9651
-6.1159 6.8029 -1.9337 0.9633
3.9296 -7.7257 -2.0371 0.9650
4.6174 -7.3612 -2.0422 0.9649
6.9632 -5.3134 -2.0586 0.9646
7.4214 -4.6748 -2.0614 0.9646
8.1522 -3.2820 -2.0654 0.9645
8.4179 -2.5400 -2.0665 0.9645
8.6137 -1.7762 -2.0670 0.9645
8.7889 -0.2108 -2.0662 0.9645
8.7669 0.5769 -2.0649 0.9645
8.6720 1.3586 -2.0630 0.9646
8.5052 2.1273 -2.0605 0.9646
8.2683 2.8764 -2.0575 0.9647
7.9637 3.5992 -2.0539 0.9647
7.1640 4.9418 -2.0454 0.9649
4.2520 7.4523 -2.0165 0.9654
3.5468 7.7582 -2.0049 0.9656
1.9859 7.7960 -1.8907 0.9675
1.2547 7.7881 -1.8540 0.9681
0.5464 7.7876 -1.8348 0.9684
-0.8508 7.7502 -1.8324 0.9685
-1.5595 7.7321 -1.8538 0.9681
-2.2902 7.7109 -1.8905 0.9675
-3.0556 7.6858 -1.9439 0.9666
-3.7421 7.4018 -1.9493 0.9665
-4.3862 7.0307 -1.9476 0.9665
-5.5468 6.1094 -1.9394 0.9667
-6.9390 4.3947 -1.9304 0.9668
-7.8393 2.3863 -1.9259 0.9669
-8.1926 0.2165 -1.9261 0.9669
-8.1114 -1.2505 -1.9289 0.9668
-7.9757 -1.9742 -1.9310 0.9668
-7.7775 -2.6843 -1.9337 0.9668
-6.8217 -4.6811 -1.9444 0.9666
-5.3712 -6.3728 -1.9588 0.9663
-4.7921 -6.8472 -1.9642 0.9662
-2.8247 -7.9459 -1.9820 0.9659
-2.1083 -8.1927 -1.9882 0.9658
0.1469 -8.5392 -2.0072 0.9655
0.9140 -8.5183 -2.0135 0.9654
3.8913 -7.7437 -2.0368 0.9650
4.5808 -7.3827 -2.0420 0.9649
5.8505 -6.4757 -2.0511 0.9648
6.4192 -5.9369 -2.0550 0.9647
6.9366 -5.3469 -2.0584 0.9647
7.3980 -4.7107 -2.0613 0.9646
8.1357 -3.3217 -2.0653 0.9645
8.7328 -1.0402 -2.0669 0.9645
8.7880 -0.2538 -2.0662 0.9645
7.9820 3.5606 -2.0541 0.9647
6.7046 5.5183 -2.0408 0.9649
5.5828 6.5911 -2.0301 0.9651
4.9558 7.0445 -2.0243 0.9652
3.5858 7.7431 -2.0055 0.9655
2.7949 7.8016 -1.9477 0.9665
-0.1148 7.7829 -1.8293 0.9685
-3.7058 7.4199 -1.9492 0.9665
-4.9555 6.6200 -1.9435 0.9666
2.2428 -7.4841 -2.0229 0.9682
2.9116 -7.2717 -2.0281 0.9682
3.5598 -6.9987 -2.0330 0.9681
4.1819 -6.6668 -2.0377 0.9680
5.3256 -5.8371 -2.0459 0.9679
6.7155 -4.2301 -2.0550 0.9677
7.0745 -3.6152 -2.0570 0.9677
7.3754 -2.9693 -2.0586 0.9677
7.6154 -2.2978 -2.0596 0.9677
7.7923 -1.6068 -2.0600 0.9677
7.9046 -0.9024 -2.0599 0.9677
7.9511 -0.1907 -2.0593 0.9677
7.9317 0.5220 -2.0581 0.9677
7.6965 1.9251 -2.0541 0.9678
7.2087 3.2579 -2.0482 0.9678
6.4873 4.4750 -2.0405 0.9680
6.0473 5.0272 -2.0361 0.9680
4.4602 6.4063 -2.0211 0.9683
3.2278 7.0604 -2.0100 0.9684
1.2214 7.5814 -1.9883 0.9688
-0.1499 7.6292 -1.9757 0.9690
-0.8307 7.5672 -1.9710 0.9690
-4.5376 6.0003 -1.9478 0.9694
-5.5163 5.0769 -1.9411 0.9695
-6.3172 4.0008 -1.9361 0.9696
-6.9181 2.8049 -1.9329 0.9696
-7.1383 2.1729 -1.9320 0.9696
-7.3026 1.5245 -1.9315 0.9696
-7.2607 -1.7972 -1.9367 0.9696
-7.0794 -2.4434 -1.9391 0.9695
-6.8422 -3.0722 -1.9419 0.9695
-6.5505 -3.6788 -1.9452 0.9694
-5.8119 -4.8075 -1.9529 0.9693
-4.8834 -5.7940 -1.9619 0.9692
-3.7908 -6.6063 -1.9721 0.9690
-3.1925 -6.9382 -1.9775 0.9689
-2.5654 -7.2165 -1.9830 0.9688
-1.9142 -7.4385 -1.9887 0.9688
-1.2438 -7.6019 -1.9944 0.9687
-0.5595 -7.7050 -2.0002 0.9686
1.5217 -7.6409 -2.0172 0.9683
2.8756 -7.2849 -2.0278 0.9682
3.5251 -7.0151 -2.0328 0.9681
5.2965 -5.8625 -2.0457 0.9679
5.8103 -5.3738 -2.0492 0.9678
6.6943 -4.2626 -2.0548 0.9677
7.3605 -3.0052 -2.0585 0.9677
7.6039 -2.3350 -2.0595 0.9677
7.9503 -0.2296 -2.0593 0.9677
7.9344 0.4832 -2.0582 0.9677
7.7063 1.8875 -2.0543 0.9677
7.4964 2.5668 -2.0516 0.9678
6.0726 4.9982 -2.0364 0.9680
5.5875 5.5092 -2.0317 0.9681
3.2628 7.0456 -2.0104 0.9684
1.9400 7.4632 -1.9966 0.9686
1.2588 7.5769 -1.9887 0.9688
0.5730 7.6327 -1.9818 0.9689
-0.1126 7.6309 -1.9760 0.9690
-1.4661 7.4568 -1.9677 0.9691
-2.1254 7.2863 -1.9652 0.9691
-2.7634 7.0511 -1.9609 0.9692
-3.3759 6.7593 -1.9562 0.9693
-5.0208 5.5847 -1.9444 0.9694
2.0487 -6.8364 -2.0204 0.9708
3.2504 -6.3903 -2.0296 0.9706
3.8176 -6.0861 -2.0338 0.9706
4.3557 -5.7306 -2.0377 0.9705
4.8600 -5.3268 -2.0413 0.9705
5.7491 -4.3869 -2.0472 0.9704
6.4528 -3.2975 -2.0515 0.9703
6.7268 -2.7081 -2.0529 0.9703
6.9455 -2.0957 -2.0538 0.9703
7.2344 0.4761 -2.0524 0.9703
7.1572 1.1213 -2.0509 0.9703
7.0211 1.7561 -2.0488 0.9704
6.8272 2.3750 -2.0464 0.9704
5.9214 4.0847 -2.0365 0.9705
3.5252 6.1785 -2.0138 0.9709
2.9501 6.4530 -2.0086 0.9709
1.1197 6.9501 -1.9929 0.9712
-0.1376 7.0016 -1.9825 0.9713
-0.7622 6.9435 -1.9774 0.9714
-1.3776 6.8303 -1.9726 0.9714
-2.5622 6.4448 -1.9634 0.9716
-3.1225 6.1761 -1.9592 0.9716
-4.1583 5.4987 -1.9516 0.9717
-5.0566 4.6538 -1.9455 0.9718
-5.4461 4.1768 -1.9430 0.9719
-6.0920 3.1320 -1.9392 0.9719
-6.3439 2.5720 -1.9379 0.9719
-6.6968 1.3980 -1.9367 0.9720
-6.7954 0.7926 -1.9368 0.9720
-6.8408 0.1808 -1.9373 0.9720
-6.8329 -0.4329 -1.9382 0.9719
-6.4900 -2.2399 -1.9436 0.9719
-5.6872 -3.9026 -1.9526 0.9717
-4.9190 -4.8738 -1.9603 0.9716
-3.9884 -5.6989 -1.9692 0.9715
-3.4703 -6.0478 -1.9739 0.9714
-2.3474 -6.6033 -1.9839 0.9713
-1.7511 -6.8047 -1.9891 0.9712
0.1218 -7.0811 -2.0049 0.9710
1.3903 -6.9814 -2.0152 0.9708
2.0150 -6.8455 -2.0201 0.9708
2.6262 -6.6530 -2.0249 0.9707
3.7874 -6.1040 -2.0336 0.9706
4.3272 -5.7513 -2.0375 0.9705
5.3015 -4.9032 -2.0443 0.9704
6.4363 -3.3289 -2.0514 0.9703
6.7133 -2.7409 -2.0528 0.9703
6.9350 -2.1296 -2.0537 0.9703
7.2051 -0.8582 -2.0541 0.9703
7.2510 -0.2094 -2.0536 0.9703
7.0300 1.7219 -2.0490 0.9704
6.8393 2.3418 -2.0465 0.9704
6.2927 3.5138 -2.0403 0.9705
4.6205 5.4550 -2.0238 0.9707
4.1036 5.8331 -2.0190 0.9708
3.5559 6.1620 -2.0140 0.9709
1.7760 6.8323 -1.9985 0.9711
0.5257 7.0025 -1.9879 0.9712
-0.1033 7.0032 -1.9828 0.9713
-0.7283 6.9481 -1.9777 0.9714
-1.3444 6.8379 -1.9728 0.9714
-1.9468 6.6740 -1.9681 0.9715
-3.6275 5.8783 -1.9554 0.9717
-4.6017 5.1186 -1.9485 0.9718
2.9873 -5.8731 -2.0267 0.9728
3.5081 -5.5926 -2.0306 0.9728
4.0020 -5.2652 -2.0342 0.9727
4.8920 -4.4802 -2.0403 0.9726
5.2802 -4.0291 -2.0429 0.9726
5.6257 -3.5437 -2.0450 0.9726
5.9255 -3.0280 -2.0467 0.9725
6.1768 -2.4867 -2.0480 0.9725
6.5252 -1.3455 -2.0492 0.9725
6.6192 -0.7556 -2.0492 0.9725
6.5725 1.0297 -2.0462 0.9725
6.4479 1.6128 -2.0443 0.9726
5.4408 3.7531 -2.0330 0.9727
5.0735 4.2177 -2.0293 0.9728
4.6662 4.6461 -2.0253 0.9728
4.2225 5.0349 -2.0211 0.9729
2.7137 5.9357 -2.0074 0.9731
1.6033 6.2943 -1.9978 0.9732
1.0306 6.3970 -1.9930 0.9732
0.4524 6.4480 -1.9881 0.9733
-0.1267 6.4471 -1.9834 0.9734
-0.7020 6.3948 -1.9787 0.9734
-1.2690 6.2919 -1.9742 0.9735
-2.8779 5.6923 -1.9619 0.9737
-3.3699 5.4017 -1.9582 0.9737
-3.8337 5.0695 -1.9549 0.9738
-4.2658 4.6985 -1.9519 0.9738
-4.6631 4.2916 -1.9492 0.9738
-6.0385 1.8382 -1.9415 0.9739
-6.3105 0.1668 -1.9416 0.9739
-6.2459 -0.9629 -1.9438 0.9739
-5.5355 -3.1088 -1.9527 0.9738
-4.5335 -4.4919 -1.9629 0.9736
-2.6909 -5.8481 -1.9800 0.9734
-1.0470 -6.3989 -1.9943 0.9732
2.4141 -6.1158 -2.0223 0.9729
2.9583 -5.8870 -2.0265 0.9728
3.9758 -5.2842 -2.0340 0.9727
4.4403 -4.9148 -2.0373 0.9727
5.6080 -3.5709 -2.0449 0.9726
6.5185 -1.3774 -2.0492 0.9725
6.6155 -0.7880 -2.0492 0.9725
6.6579 -0.1922 -2.0487 0.9725
6.5777 0.9976 -2.0463 0.9725
6.0558 2.7013 -2.0396 0.9726
5.0946 4.1932 -2.0295 0.9728
4.6894 4.6237 -2.0256 0.9728
4.2476 5.0147 -2.0214 0.9729
3.7731 5.3633 -2.0170 0.9729
3.2702 5.6669 -2.0124 0.9730
2.7430 5.9231 -2.0077 0.9731
2.1962 6.1304 -2.0029 0.9731
0.4840 6.4465 -1.9884 0.9733
-0.0952 6.4485 -1.9836 0.9734
-1.2384 6.2988 -1.9745 0.9735
-2.3323 5.9511 -1.9660 0.9736
-3.3438 5.4186 -1.9584 0.9737
-3.8092 5.0886 -1.9551 0.9737
-4.2431 4.7197 -1.9521 0.9738
3.6974 -4.8646 -2.0311 0.9746
4.1244 -4.5205 -2.0341 0.9745
4.5187 -4.1384 -2.0368 0.9745
4.8768 -3.7213 -2.0391 0.9745
5.1955 -3.2727 -2.0411 0.9744
5.4720 -2.7963 -2.0427 0.9744
5.7038 -2.2963 -2.0439 0.9744
5.8888 -1.7769 -2.0446 0.9744
6.0253 -1.2425 -2.0450 0.9744
6.1122 -0.6978 -2.0449 0.9744
6.1486 -0.1475 -2.0444 0.9744
6.1344 0.4037 -2.0435 0.9744
5.9550 1.4895 -2.0405 0.9745
5.7917 2.0148 -2.0384 0.9745
5.5812 2.5224 -2.0359 0.9745
5.0270 3.4677 -2.0300 0.9746
4.6883 3.8975 -2.0266 0.9746
4.3126 4.2940 -2.0229 0.9747
3.4636 4.9749 -2.0150 0.9748
2.5097 5.4896 -2.0064 0.9749
2.0035 5.6797 -2.0020 0.9749
0.4187 5.9676 -1.9885 0.9751
-0.1173 5.9679 -1.9841 0.9752
-0.6499 5.9205 -1.9798 0.9752
-1.6888 5.6860 -1.9716 0.9753
-3.9533 4.3544 -1.9550 0.9755
-4.3220 3.9777 -1.9525 0.9755
-4.6557 3.5707 -1.9503 0.9756
-4.9522 3.1364 -1.9485 0.9756
-5.8506 0.1546 -1.9454 0.9756
-5.8433 -0.3702 -1.9463 0.9756
-5.6915 -1.4088 -1.9490 0.9756
-4.8584 -3.3338 -1.9586 0.9755
-4.1997 -4.1612 -1.9652 0.9754
-3.4029 -4.8623 -1.9728 0.9753
-2.9598 -5.1582 -1.9768 0.9752
-1.4918 -5.7972 -1.9898 0.9751
-0.4355 -5.9972 -1.9988 0.9750
0.1036 -6.0256 -2.0032 0.9749
0.6444 -6.0053 -2.0077 0.9749
2.7340 -5.4406 -2.0240 0.9747
3.2160 -5.1831 -2.0276 0.9746
3.6733 -4.8822 -2.0309 0.9746
4.1019 -4.5403 -2.0339 0.9745
4.4981 -4.1602 -2.0366 0.9745
5.4581 -2.8229 -2.0426 0.9744
5.6924 -2.3241 -2.0438 0.9744
5.8799 -1.8056 -2.0446 0.9744
5.9626 1.4604 -2.0406 0.9745
5.8019 1.9866 -2.0385 0.9745
5.5939 2.4953 -2.0361 0.9745
5.3406 2.9822 -2.0333 0.9745
5.0443 3.4433 -2.0302 0.9746
2.5368 5.4779 -2.0067 0.9749
0.9827 5.9154 -1.9933 0.9750
0.4479 5.9662 -1.9888 0.9751
-2.1603 5.5123 -1.9680 0.9754
-2.6405 5.2869 -1.9644 0.9754
-3.0981 5.0205 -1.9610 0.9754
-3.5298 4.7154 -1.9579 0.9755
-3.9323 4.3740 -1.9551 0.9755
1.6173 -5.3969 -2.0148 0.9764
2.5635 -5.0398 -2.0220 0.9763
3.8283 -4.1960 -2.0312 0.9762
4.5259 -3.4535 -2.0359 0.9761
5.4639 -1.6486 -2.0410 0.9760
5.5905 -1.1528 -2.0413 0.9760
5.6711 -0.6474 -2.0412 0.9760
5.6920 0.3746 -2.0399 0.9761
5.6322 0.8824 -2.0387 0.9761
5.1802 2.3412 -2.0329 0.9761
4.9433 2.7922 -2.0303 0.9762
4.6667 3.2192 -2.0274 0.9762
4.3529 3.6186 -2.0242 0.9762
4.0045 3.9872 -2.0209 0.9763
0.8865 5.5024 -1.9931 0.9766
-0.6044 5.5060 -1.9808 0.9767
-1.0930 5.4191 -1.9769 0.9768
-2.9057 4.6576 -1.9631 0.9769
-3.3063 4.3722 -1.9603 0.9770
-3.6798 4.0531 -1.9576 0.9770
-4.6106 2.9200 -1.9516 0.9771
-4.8503 2.4936 -1.9503 0.9771
-5.0515 2.0481 -1.9493 0.9771
-5.2129 1.5868 -1.9486 0.9771
-5.4407 -0.3447 -1.9495 0.9771
-5.3910 -0.8311 -1.9506 0.9771
-5.2988 -1.3116 -1.9521 0.9771
-5.1647 -1.7825 -1.9539 0.9771
-4.7748 -2.6816 -1.9584 0.9770
-4.2319 -3.5005 -1.9640 0.9769
-3.9077 -3.8718 -1.9672 0.9769
-3.5513 -4.2136 -1.9706 0.9769
-3.1655 -4.5230 -1.9742 0.9768
-1.8602 -5.2327 -1.9860 0.9767
-1.3869 -5.3894 -1.9901 0.9766
0.5986 -5.5793 -2.0067 0.9764
1.5907 -5.4042 -2.0146 0.9764
3.4099 -4.5321 -2.0282 0.9762
4.5087 -3.4754 -2.0357 0.9761
5.2818 -2.1565 -2.0402 0.9761
5.4557 -1.6753 -2.0409 0.9760
5.5848 -1.1801 -2.0413 0.9760
5.6680 -0.6751 -2.0412 0.9760
5.6367 0.8549 -2.0388 0.9761
4.3709 3.5976 -2.0244 0.9762
4.0244 3.9680 -2.0210 0.9763
3.6463 4.3048 -2.0175 0.9763
3.2400 4.6055 -2.0137 0.9764
2.8090 4.8677 -2.0098 0.9764
2.3570 5.0895 -2.0057 0.9765
1.4053 5.4060 -1.9975 0.9766
0.9135 5.4986 -1.9933 0.9766
-0.5775 5.5095 -1.9810 0.9767
-1.0666 5.4249 -1.9771 0.9768
-2.0099 5.1285 -1.9698 0.9769
-2.4570 4.9194 -1.9664 0.9769
-2.8831 4.6721 -1.9633 0.9769
-3.2852 4.3886 -1.9604 0.9770
-3.6602 4.0713 -1.9578 0.9770
1.5082 -5.0327 -2.0133 0.9777
1.9562 -4.8857 -2.0168 0.9777
2.3899 -4.6985 -2.0201 0.9777
2.8054 -4.4724 -2.0232 0.9776
4.9311 -1.9852 -2.0371 0.9775
5.2086 -1.0741 -2.0380 0.9775
5.2479 0.8222 -2.0356 0.9775
5.0089 1.7425 -2.0323 0.9775
4.8277 2.1819 -2.0302 0.9776
4.3499 3.0006 -2.0251 0.9776
3.7335 3.7174 -2.0190 0.9777
3.3799 4.0301 -2.0157 0.9777
2.1751 4.7577 -2.0047 0.9778
1.2864 5.0499 -1.9970 0.9779
0.3633 5.1781 -1.9892 0.9780
-0.5643 5.1403 -1.9817 0.9781
-1.0205 5.0598 -1.9780 0.9781
-2.7143 4.3508 -1.9651 0.9783
-3.0888 4.0845 -1.9625 0.9783
-3.4380 3.7868 -1.9600 0.9783
-4.5327 2.3303 -1.9531 0.9784
-4.8718 1.4830 -1.9516 0.9784
-2.3015 0.2684 -0.8880 0.9901
-4.8260 -1.6656 -1.9565 0.9784
-4.4610 -2.5053 -1.9607 0.9783
-3.6498 -3.6163 -1.9689 0.9782
-3.3166 -3.9350 -1.9721 0.9782
-2.9558 -4.2235 -1.9755 0.9782
-2.5702 -4.4793 -1.9791 0.9781
-2.1627 -4.7002 -1.9827 0.9781
-1.7363 -4.8842 -1.9865 0.9780
-1.2944 -5.0298 -1.9903 0.9780
-0.8403 -5.1355 -1.9942 0.9780
-0.3776 -5.2003 -1.9981 0.9779
0.5584 -5.2042 -2.0058 0.9778
1.0242 -5.1428 -2.0095 0.9778
1.4834 -5.0395 -2.0132 0.9777
3.1784 -4.2244 -2.0259 0.9776
4.4784 -2.8516 -2.0346 0.9775
4.7190 -2.4407 -2.0360 0.9775
5.0831 -1.5609 -2.0377 0.9775
5.2033 -1.0995 -2.0380 0.9775
5.2807 -0.6290 -2.0380 0.9775
5.3052 0.3231 -2.0368 0.9775
5.2520 0.7965 -2.0357 0.9775
4.8386 2.1583 -2.0303 0.9776
4.6203 2.5800 -2.0279 0.9776
4.3649 2.9796 -2.0253 0.9776
4.0746 3.3537 -2.0223 0.9776
3.3999 4.0139 -2.0158 0.9777
2.6198 4.5399 -2.0087 0.9778
1.7611 4.9159 -2.0011 0.9779
0.8524 5.1312 -1.9933 0.9780
-0.5392 5.1435 -1.9819 0.9781
-0.9959 5.0652 -1.9782 0.9781
-2.6932 4.3643 -1.9653 0.9783
-3.4197 3.8038 -1.9601 0.9783
1.4113 -4.7093 -2.0121 0.9790
1.8303 -4.5713 -2.0153 0.9789
2.2358 -4.3957 -2.0184 0.9789
2.6243 -4.1837 -2.0213 0.9789
3.3371 -3.6576 -2.0264 0.9788
4.6108 -1.8562 -2.0342 0.9787
4.9403 -0.5640 -2.0351 0.9787
4.9072 0.7688 -2.0329 0.9788
4.6842 1.6295 -2.0298 0.9788
4.0689 2.8068 -2.0231 0.9789
3.7960 3.1557 -2.0203 0.9789
3.4930 3.4779 -2.0174 0.9789
3.1625 3.7709 -2.0142 0.9790
2.8075 4.0324 -2.0110 0.9790
2.4308 4.2604 -2.0075 0.9790
2.0359 4.4532 -2.0040 0.9791
1.6259 4.6094 -2.0004 0.9791
1.2043 4.7279 -1.9968 0.9791
0.7746 4.8080 -1.9931 0.9792
-0.0953 4.8514 -1.9859 0.9792
-0.5285 4.8148 -1.9824 0.9793
-1.7806 4.4789 -1.9726 0.9794
-3.2226 3.5495 -1.9621 0.9795
-3.5239 3.2432 -1.9601 0.9795
-3.7968 2.9119 -1.9583 0.9795
-4.2496 2.1848 -1.9557 0.9796
-4.4262 1.7946 -1.9548 0.9796
-2.0194 0.2355 -0.8321 0.9913
-2.0089 -0.1273 -0.8238 0.9913
-2.0295 -0.3129 -0.8404 0.9912
-4.5242 -1.5615 -1.9588 0.9795
-2.7693 -3.9569 -1.9767 0.9793
-1.2121 -4.7101 -1.9905 0.9792
-0.3535 -4.8685 -1.9978 0.9791
0.5226 -4.8710 -2.0050 0.9790
1.8078 -4.5798 -2.0152 0.9789
2.2141 -4.4062 -2.0182 0.9789
2.9730 -3.9514 -2.0238 0.9789
3.6386 -3.3652 -2.0284 0.9788
4.4126 -2.2822 -2.0332 0.9788
4.7528 -1.4595 -2.0348 0.9787
4.8651 -1.0281 -2.0351 0.9787
4.9376 -0.5881 -2.0351 0.9787
4.9695 -0.1435 -2.0347 0.9787
4.9606 0.3021 -2.0340 0.9787
4.8214 1.1809 -2.0316 0.9788
4.6924 1.6067 -2.0299 0.9788
4.5252 2.0186 -2.0280 0.9788
2.8274 4.0190 -2.0111 0.9790
2.4519 4.2489 -2.0077 0.9790
2.0578 4.4436 -2.0042 0.9791
1.6486 4.6018 -2.0006 0.9791
1.2276 4.7224 -1.9970 0.9791
0.7982 4.8046 -1.9933 0.9792
-0.5050 4.8178 -1.9826 0.9793
-2.1505 4.3059 -1.9698 0.9794
-3.2054 3.5654 -1.9622 0.9795
1.3246 -4.4200 -2.0110 0.9801
2.0981 -4.1249 -2.0169 0.9800
3.4289 -3.1403 -2.0264 0.9799
3.6996 -2.8230 -2.0282 0.9799
3.9405 -2.4821 -2.0296 0.9799
4.5677 -0.9419 -2.0326 0.9799
4.6615 -0.1118 -2.0322 0.9799
4.3941 1.5286 -2.0276 0.9799
4.2356 1.9143 -2.0257 0.9799
4.0429 2.2836 -2.0236 0.9799
3.2779 3.2637 -2.0159 0.9800
2.2818 3.9993 -2.0067 0.9801
1.5266 4.3278 -2.0000 0.9802
0.7274 4.5152 -1.9932 0.9802
-0.0895 4.5570 -1.9864 0.9803
-0.8982 4.4533 -1.9799 0.9804
-1.2915 4.3482 -1.9768 0.9804
-2.3908 3.8323 -1.9686 0.9805
-2.7212 3.5984 -1.9662 0.9805
-3.0293 3.3365 -1.9640 0.9805
-3.3127 3.0488 -1.9621 0.9805
-3.5694 2.7375 -1.9604 0.9806
-3.9955 2.0541 -1.9579 0.9806
-1.4720 0.1717 -0.6459 0.9936
-1.4581 -0.0924 -0.6367 0.9936
-1.4897 -0.3687 -0.6688 0.9933
-1.4906 -0.5145 -0.6872 0.9931
-4.1082 -1.8446 -1.9626 0.9805
-3.9304 -2.2074 -1.9646 0.9805
-3.7211 -2.5534 -1.9668 0.9805
-2.6020 -3.7178 -1.9777 0.9804
-2.2621 -3.9421 -1.9808 0.9804
-1.9030 -4.1356 -1.9840 0.9803
-0.3320 -4.5715 -1.9976 0.9802
0.0790 -4.5906 -2.0010 0.9802
0.4906 -4.5727 -2.0043 0.9801
1.6966 -4.2981 -2.0138 0.9800
3.9282 -2.5013 -2.0296 0.9799
4.1389 -2.1406 -2.0308 0.9799
4.3159 -1.7621 -2.0317 0.9799
4.5631 -0.9642 -2.0326 0.9799
4.6310 -0.5516 -2.0325 0.9799
4.6528 0.2833 -2.0315 0.9799
4.5225 1.1077 -2.0293 0.9799
4.4017 1.5072 -2.0277 0.9799
4.0543 2.2639 -2.0237 0.9799
3.8308 2.6150 -2.0214 0.9800
2.6538 3.7722 -2.0101 0.9801
1.9319 4.1717 -2.0036 0.9801
1.5479 4.3207 -2.0002 0.9802
1.1527 4.4343 -1.9968 0.9802
0.7496 4.5120 -1.9934 0.9802
-0.0673 4.5578 -1.9866 0.9803
-1.2703 4.3548 -1.9770 0.9804
-1.6528 4.2173 -1.9741 0.9804
-2.0210 4.0466 -1.9713 0.9805
-2.3722 3.8442 -1.9687 0.9805
-2.7037 3.6119 -1.9663 0.9805
-3.0131 3.3515 -1.9641 0.9805
2.3167 -3.6933 -2.0181 0.9810
3.2253 -2.9539 -2.0245 0.9809
3.7062 -2.3345 -2.0275 0.9809
4.2957 -0.8858 -2.0303 0.9809
4.3577 -0.4975 -2.0302 0.9809
4.3744 0.2879 -2.0292 0.9809
4.1331 1.4378 -2.0256 0.9809
3.9842 1.8007 -2.0238 0.9809
3.8032 2.1482 -2.0218 0.9809
2.7929 3.3302 -2.0118 0.9810
2.1476 3.7640 -2.0059 0.9811
1.4370 4.0739 -1.9996 0.9811
0.6849 4.2513 -1.9932 0.9812
0.3009 4.2886 -1.9900 0.9812
-0.4676 4.2600 -1.9837 0.9813
-1.2166 4.0960 -1.9778 0.9813
-1.9226 3.8028 -1.9724 0.9814
-2.2527 3.6109 -1.9700 0.9814
-2.8546 3.1442 -1.9657 0.9815
-3.1219 2.8732 -1.9639 0.9815
-1.2518 0.5075 -0.6253 0.9941
-1.2696 0.3865 -0.6143 0.9942
-1.2750 0.1487 -0.5942 0.9944
-1.2641 0.0334 -0.5854 0.9944
-1.2701 -0.3144 -0.6056 0.9942
-1.2547 -0.5634 -0.6366 0.9940
-3.5063 -2.4060 -1.9684 0.9814
-2.7509 -3.2638 -1.9758 0.9814
-2.4510 -3.5021 -1.9786 0.9813
-1.7922 -3.8949 -1.9846 0.9813
-1.0719 -4.1654 -1.9909 0.9812
0.8468 -4.2519 -2.0068 0.9811
1.2260 -4.1652 -2.0098 0.9810
1.5964 -4.0444 -2.0126 0.9810
1.9549 -3.8904 -2.0154 0.9810
2.6241 -3.4876 -2.0203 0.9809
3.4666 -2.6721 -2.0260 0.9809
3.8926 -2.0133 -2.0286 0.9809
4.0590 -1.6572 -2.0294 0.9809
4.2913 -0.9068 -2.0303 0.9809
4.3835 -0.1266 -2.0299 0.9809
4.2536 1.0419 -2.0271 0.9809
3.8138 2.1297 -2.0220 0.9809
3.3650 2.7697 -2.0174 0.9810
2.8094 3.3168 -2.0120 0.9810
2.1661 3.7537 -2.0061 0.9811
1.4571 4.0672 -1.9998 0.9811
1.0852 4.1747 -1.9966 0.9812
0.7058 4.2482 -1.9934 0.9812
-0.0633 4.2922 -1.9870 0.9813
-0.8256 4.1990 -1.9809 0.9813
-1.1966 4.1022 -1.9780 0.9813
-1.5570 3.9729 -1.9752 0.9814
-1.9041 3.8124 -1.9726 0.9814
-2.5477 3.4034 -1.9679 0.9814
-2.8393 3.1583 -1.9658 0.9815
1.1757 -3.9233 -2.0090 0.9819
3.4940 -2.2009 -2.0256 0.9818
3.6790 -1.8800 -2.0266 0.9818
3.9580 -1.1943 -2.0279 0.9817
4.0495 -0.8350 -2.0282 0.9817
4.1079 -0.4690 -2.0281 0.9817
4.1238 0.2714 -2.0272 0.9818
4.0811 0.6394 -2.0263 0.9818
3.5860 2.0255 -2.0202 0.9818
3.3867 2.3362 -2.0182 0.9818
3.1603 2.6272 -2.0159 0.9819
2.9087 2.8961 -2.0134 0.9819
2.6342 3.1410 -2.0108 0.9819
2.0259 3.5507 -2.0052 0.9820
1.3558 3.8437 -1.9993 0.9820
1.0046 3.9438 -1.9963 0.9820
0.6463 4.0118 -1.9932 0.9821
0.2840 4.0474 -1.9902 0.9821
-0.0796 4.0504 -1.9872 0.9821
-0.7987 3.9597 -1.9814 0.9822
-1.1485 3.8669 -1.9787 0.9822
-1.4883 3.7435 -1.9761 0.9822
-2.6959 2.9694 -1.9673 0.9823
-2.9485 2.7136 -1.9656 0.9823
-3.3806 2.1410 -1.9629 0.9823
-1.0917 0.5613 -0.6022 0.9945
-1.1305 0.3441 -0.5797 0.9947
-1.1427 -0.0724 -0.5616 0.9949
-1.1431 -0.1762 -0.5674 0.9949
-1.1330 -0.2804 -0.5725 0.9948
-3.0977 -2.5623 -1.9720 0.9822
-2.3138 -3.3062 -1.9795 0.9822
-1.6916 -3.6764 -1.9851 0.9821
-1.3576 -3.8188 -1.9881 0.9821
-1.0116 -3.9310 -1.9911 0.9821
-0.6564 -4.0119 -1.9941 0.9821
-0.2949 -4.0607 -1.9971 0.9820
1.1564 -3.9287 -2.0089 0.9819
1.5057 -3.8144 -2.0116 0.9819
2.4743 -3.2887 -2.0188 0.9818
2.7383 -3.0309 -2.0036 0.9820
3.2683 -2.5193 -2.0242 0.9818
3.4831 -2.2179 -2.0255 0.9818
3.6697 -1.8980 -2.0266 0.9818
3.8265 -1.5623 -2.0274 0.9818
4.0454 -0.8548 -2.0282 0.9817
4.1251 0.2512 -2.0272 0.9818
4.0843 0.6194 -2.0264 0.9818
4.0102 0.9822 -2.0252 0.9818
3.9034 1.3366 -2.0238 0.9818
3.7650 1.6795 -2.0222 0.9818
3.5961 2.0081 -2.0203 0.9818
2.6497 3.1283 -2.0110 0.9819
1.3747 3.8374 -1.9995 0.9820
0.6660 4.0089 -1.9934 0.9821
-0.0598 4.0511 -1.9874 0.9821
-1.1297 3.8728 -1.9789 0.9822
-1.4701 3.7510 -1.9762 0.9822
-1.7979 3.5998 -1.9738 0.9822
-2.1106 3.4203 -1.9714 0.9823
-2.4059 3.2140 -1.9693 0.9823
-2.6815 2.9827 -1.9674 0.9823
1.4407 -3.5982 -2.0107 0.9827
2.8730 -2.6312 -2.0211 0.9826
3.4755 -1.7761 -2.0248 0.9826
3.6220 -1.4582 -2.0256 0.9826
3.9040 -0.0936 -2.0259 0.9826
3.8554 0.6040 -2.0245 0.9826
3.6814 1.2807 -2.0221 0.9826
3.5492 1.6040 -2.0205 0.9826
2.9863 2.4826 -2.0147 0.9827
2.2108 3.1754 -2.0073 0.9827
1.2818 3.6338 -1.9990 0.9828
0.9498 3.7287 -1.9961 0.9828
0.6111 3.7933 -1.9933 0.9828
-0.0753 3.8305 -1.9876 0.9829
-0.7554 3.7453 -1.9821 0.9829
-1.4079 3.5413 -1.9770 0.9830
-2.2911 3.0296 -1.9705 0.9830
-3.0066 2.3059 -1.9657 0.9831
-0.9720 0.6156 -0.5969 0.9948
-0.9650 0.4961 -0.5629 0.9951
-1.0374 0.1210 -0.5418 0.9953
-1.0366 -0.0657 -0.5389 0.9953
-1.0113 -0.3490 -0.5550 0.9952
-0.9867 -0.4430 -0.5611 0.9951
-0.9496 -0.5333 -0.5650 0.9951
-3.1328 -2.1497 -1.9711 0.9830
-2.9307 -2.4242 -1.9731 0.9830
-2.4569 -2.9150 -1.9777 0.9830
-1.9023 -3.3152 -1.9829 0.9829
-1.5999 -3.4770 -1.9856 0.9829
-1.2838 -3.6114 -1.9884 0.9829
-0.6207 -3.7933 -1.9941 0.9828
-0.2788 -3.8392 -1.9970 0.9828
0.0663 -3.8543 -1.9998 0.9828
0.4118 -3.8382 -2.0026 0.9828
1.7423 -3.4671 -2.0130 0.9827
2.0481 -3.3009 -2.0153 0.9826
2.6094 -2.8882 -2.0193 0.9826
2.8600 -2.6451 -2.0210 0.9826
3.2905 -2.0953 -2.0238 0.9826
3.6147 -1.4758 -2.0255 0.9826
3.8214 -0.8075 -2.0263 0.9826
3.8783 -0.4620 -2.0262 0.9826
3.9036 -0.1127 -2.0259 0.9826
3.8969 0.2373 -2.0254 0.9826
3.8584 0.5852 -2.0246 0.9826
3.6878 1.2627 -2.0222 0.9826
3.3978 1.8973 -2.0189 0.9826
3.2110 2.1919 -2.0169 0.9826
2.9986 2.4681 -2.0148 0.9827
2.7623 2.7236 -2.0125 0.9827
2.5042 2.9565 -2.0100 0.9827
1.9315 3.3471 -2.0047 0.9827
-0.0565 3.8311 -1.9877 0.9829
-0.3989 3.8053 -1.9849 0.9829
-0.7371 3.7492 -1.9823 0.9829
-1.0686 3.6633 -1.9797 0.9830
-1.7009 3.4056 -1.9748 0.9830
-1.9969 3.2359 -1.9726 0.9830
-2.2764 3.0410 -1.9706 0.9830
-2.5372 2.8222 -1.9688 0.9830
1.0521 -3.5109 -2.0074 0.9834
1.6655 -3.2745 -2.0121 0.9834
2.7193 -2.4905 -2.0196 0.9833
2.9335 -2.2384 -2.0210 0.9833
3.1240 -1.9678 -2.0222 0.9833
3.4278 -1.3800 -2.0238 0.9833
1.8791 -0.5670 -1.0750 0.9911
1.8875 0.2957 -1.0464 0.9913
1.8859 0.4717 -1.0647 0.9912
1.9038 0.6623 -1.1040 0.9908
3.3594 1.5183 -2.0191 0.9833
3.2072 1.8115 -2.0174 0.9833
2.0933 3.0067 -2.0066 0.9834
0.5789 3.5930 -1.9933 0.9835
0.2544 3.6255 -1.9906 0.9836
-0.7157 3.5486 -1.9827 0.9836
-1.3341 3.3558 -1.9779 0.9837
-1.9074 3.0573 -1.9736 0.9837
-2.1714 2.8714 -1.9717 0.9837
-2.4178 2.6630 -1.9700 0.9837
-2.6445 2.4339 -1.9685 0.9837
-0.8857 0.4553 -0.5454 0.9955
-0.9220 0.2806 -0.5278 0.9956
-0.9469 0.1105 -0.5222 0.9957
-0.9440 0.0250 -0.5172 0.9957
-0.8993 -0.4038 -0.5399 0.9955
-2.3281 -2.7622 -1.9786 0.9837
-1.5157 -3.2941 -1.9860 0.9836
-1.2162 -3.4211 -1.9886 0.9836
-0.9061 -3.5211 -1.9913 0.9836
0.0628 -3.6501 -1.9995 0.9835
0.3900 -3.6346 -2.0021 0.9835
1.0349 -3.5157 -2.0073 0.9834
1.3472 -3.4130 -2.0097 0.9834
1.6494 -3.2824 -2.0120 0.9834
1.9388 -3.1248 -2.0141 0.9834
2.2131 -2.9415 -2.0161 0.9834
2.7070 -2.5036 -2.0195 0.9833
3.1143 -1.9830 -2.0221 0.9833
1.8890 -0.2250 -1.0419 0.9914
1.8858 0.1149 -1.0348 0.9914
1.8861 0.4620 -1.0636 0.9912
1.8822 0.6445 -1.0896 0.9910
3.3669 1.5019 -2.0192 0.9833
3.0396 2.0749 -2.0157 0.9834
2.3709 2.7992 -2.0091 0.9834
2.1081 2.9966 -2.0067 0.9834
1.8289 3.1694 -2.0042 0.9835
0.9169 3.5274 -1.9962 0.9835
0.5965 3.5904 -1.9934 0.9835
-0.0536 3.6294 -1.9880 0.9836
-0.3779 3.6052 -1.9854 0.9836
-0.6984 3.5523 -1.9829 0.9836
-1.0125 3.4711 -1.9804 0.9836
-1.6119 3.2273 -1.9758 0.9837
-2.4048 2.6750 -1.9701 0.9837
2.1120 -2.7786 -2.0151 0.9840
2.5780 -2.3610 -2.0183 0.9840
1.7781 -0.7158 -1.1066 0.9912
1.7402 0.2726 -1.0169 0.9919
3.1848 1.4394 -2.0178 0.9840
3.0406 1.7175 -2.0162 0.9840
2.8721 1.9812 -2.0144 0.9840
2.6805 2.2283 -2.0125 0.9840
2.4676 2.4569 -2.0104 0.9840
1.4410 3.1521 -2.0010 0.9841
0.8533 3.3500 -1.9959 0.9842
0.2413 3.4396 -1.9907 0.9842
-0.3753 3.4188 -1.9857 0.9842
-1.2662 3.1848 -1.9787 0.9843
-1.8104 2.9018 -1.9747 0.9843
-2.2950 2.5278 -1.9712 0.9844
-2.5104 2.3104 -1.9698 0.9844
-0.8319 0.4277 -0.5401 0.9957
-0.8528 0.3458 -0.5313 0.9958
-0.8820 0.1029 -0.5127 0.9959
-0.8799 0.0233 -0.5082 0.9959
-0.8817 -0.0559 -0.5101 0.9959
-0.8453 -0.3795 -0.5349 0.9957
-0.8208 -0.4610 -0.5435 0.9957
-0.7978 -0.5475 -0.5586 0.9955
-2.6362 -2.1806 -1.9752 0.9843
-2.4327 -2.4104 -1.9772 0.9843
-1.7102 -2.9805 -1.9840 0.9843
-1.4382 -3.1255 -1.9864 0.9842
-1.1539 -3.2459 -1.9889 0.9842
-0.8596 -3.3405 -1.9915 0.9842
-0.2505 -3.4492 -1.9966 0.9842
0.0596 -3.4622 -1.9992 0.9841
0.6780 -3.4045 -2.0042 0.9841
0.9814 -3.3340 -2.0066 0.9841
1.2775 -3.2364 -2.0089 0.9841
1.5640 -3.1124 -2.0110 0.9840
1.8383 -2.9628 -2.0131 0.9840
2.0983 -2.7888 -2.0150 0.9840
2.3416 -2.5919 -2.0167 0.9840
2.5663 -2.3735 -2.0182 0.9840
2.9522 -1.8798 -2.0207 0.9840
1.7960 -0.7333 -1.1200 0.9911
1.7328 -0.3662 -1.0225 0.9919
1.7327 -0.0500 -1.0008 0.9920
1.7318 0.4242 -1.0294 0.9918
3.1919 1.4238 -2.0179 0.9840
3.0492 1.7027 -2.0163 0.9840
0.2582 3.4386 -1.9909 0.9842
-0.3586 3.4208 -1.9858 0.9842
-0.6627 3.3708 -1.9834 0.9843
-1.7962 2.9108 -1.9748 0.9843
-2.2827 2.5392 -1.9713 0.9844
