ply
format ascii 1.0
element vertex 1452
property float32 x
property float32 y
property float32 z
property float32 I
end_header
-6.7032 9.6384 2.0701 0.9534
-6.7450 9.6224 1.8002 0.9536
0.9485 -13.2830 2.0401 0.9475
-6.7064 9.6430 1.7994 0.9536
13.9973 -13.7959 2.5593 0.9238
-6.7483 9.6270 1.5310 0.9537
5.4694 -11.9222 1.7076 0.9485
-2.6738 16.2742 1.7710 0.9358
0.9490 -13.2901 1.4308 0.9478
5.4637 -11.9097 1.4070 0.9487
-2.6101 16.2624 1.7686 0.9359
-6.7128 9.6522 1.2625 0.9538
-6.7547 9.6361 0.9962 0.9539
0.9493 -13.2936 1.1282 0.9479
5.4607 -11.9031 1.1086 0.9488
-6.7160 9.6568 0.9957 0.9539
-6.7579 9.6407 0.7301 0.9539
5.4580 -11.8972 0.8117 0.9489
-6.7192 9.6614 0.7297 0.9539
0.9498 -13.3007 0.5258 0.9480
-6.7224 9.6659 0.4642 0.9540
-6.7642 9.6498 0.1991 0.9539
0.9500 -13.3042 0.2253 0.9480
5.4528 -11.8859 0.2209 0.9490
-6.7255 9.6705 0.1990 0.9540
-6.7674 9.6543 -0.0664 0.9539
0.9503 -13.3077 -0.0751 0.9480
5.4511 -11.8824 -0.0736 0.9491
-6.7287 9.6750 -0.0664 0.9540
-4.8647 8.4635 -0.2749 0.9617
-6.7706 9.6589 -0.3321 0.9539
0.9505 -13.3112 -0.3758 0.9480
5.4495 -11.8789 -0.3680 0.9490
6.9727 3.5774 -0.2207 0.9691
-4.8268 8.4699 -0.2745 0.9617
-6.7319 9.6796 -0.3320 0.9539
-4.7812 8.3183 -0.4866 0.9623
-14.0988 13.9475 -1.0058 0.9236
5.4479 -11.8754 -0.6626 0.9490
7.2593 2.9360 -0.3971 0.9691
-4.7401 8.3179 -0.4855 0.9624
9.1576 2.8160 -0.7025 0.9623
7.0492 2.8815 -0.5584 0.9699
6.7374 3.4883 -0.5563 0.9700
10.3096 13.7170 -1.2582 0.9335
-4.7812 8.3183 -0.7035 0.9623
-6.7770 9.6680 -0.8657 0.9538
0.9510 -13.3183 -0.9790 0.9479
5.4463 -11.8718 -0.9578 0.9490
7.1310 2.8841 -0.5640 0.9696
6.7378 3.4569 -0.5553 0.9701
10.3296 13.6382 -1.2544 0.9337
-4.7401 8.3178 -0.7020 0.9623
-9.2276 6.3712 -0.8222 0.9560
-10.4067 5.8838 -0.8766 0.9532
6.8291 2.7915 -0.7083 0.9708
6.6416 3.4387 -0.7180 0.9704
16.6086 10.5860 -1.8909 0.9239
2.5023 8.5191 -0.8524 0.9649
0.3219 19.4264 -1.8653 0.9249
-2.2176 13.4971 -1.3132 0.9465
-11.7415 13.9093 -1.7475 0.9295
-10.2408 5.7401 -1.1271 0.9539
-17.2082 7.7090 -1.8103 0.9270
-18.1970 6.2628 -1.8476 0.9256
-18.6478 4.5983 -1.8439 0.9257
-18.9585 2.9052 -1.8414 0.9258
-18.7837 -3.9403 -1.8426 0.9258
-18.3865 -5.6168 -1.8457 0.9257
-17.8505 -7.2581 -1.8500 0.9255
-17.1781 -8.8536 -1.8553 0.9253
-13.2795 -12.2480 -1.7344 0.9300
-12.1898 -13.4558 -1.7431 0.9296
-10.9954 -14.5733 -1.7527 0.9293
-6.8523 -17.2938 -1.7859 0.9280
-3.7078 -18.4968 -1.8111 0.9270
-2.0508 -18.8924 -1.8244 0.9265
0.9513 -13.3218 -1.2822 0.9477
4.8579 -18.9694 -1.8799 0.9243
6.5860 -18.5944 -1.8938 0.9238
5.4020 -11.7752 -1.2438 0.9493
8.8979 2.7002 -0.8927 0.9633
6.8963 2.7892 -0.7142 0.9705
6.6425 3.4080 -0.7167 0.9704
10.5469 13.9252 -1.6771 0.9322
0.3939 19.4313 -1.8659 0.9249
-2.1604 13.4604 -1.3088 0.9467
-6.2483 17.7449 -1.8061 0.9272
-4.7401 8.3178 -0.9191 0.9623
-6.7414 9.6933 -1.1335 0.9537
-8.6958 6.0040 -1.0145 0.9584
-10.1545 5.7412 -1.1199 0.9542
-17.0456 7.7120 -1.7962 0.9276
-18.1754 6.3307 -1.8477 0.9256
-19.1237 1.2649 -1.8400 0.9259
-18.7971 -3.8705 -1.8425 0.9258
-18.4056 -5.5482 -1.8456 0.9257
-17.8753 -7.1912 -1.8498 0.9255
-17.2085 -8.7888 -1.8551 0.9253
-14.7029 -11.2146 -1.7753 0.9284
-9.7578 -15.5514 -1.7626 0.9289
-8.3776 -16.4658 -1.7736 0.9285
9.2811 -13.1884 -1.9156 0.9371
10.4777 -12.3658 -1.9253 0.9368
16.9643 -5.8035 -2.1298 0.9303
17.4482 -4.2682 -2.1337 0.9302
17.7832 -2.6914 -2.1364 0.9301
17.5840 3.7226 -2.1350 0.9302
8.6770 2.6682 -1.0783 0.9641
6.6602 2.7224 -0.8547 0.9714
6.2914 4.0100 -0.8862 0.9704
12.9699 10.0071 -1.9459 0.9361
10.8816 12.0564 -1.9292 0.9367
2.4669 8.3988 -1.0398 0.9654
1.6624 15.5833 -1.8616 0.9388
0.2581 15.5742 -1.8502 0.9392
-1.1310 15.4366 -1.8386 0.9396
-4.7812 8.3182 -1.1397 0.9621
-7.5909 8.9924 -1.3979 0.9537
-10.5165 10.4036 -1.7572 0.9422
-8.3730 5.7355 -1.2056 0.9599
-10.2821 5.7633 -1.4002 0.9536
-14.4273 6.4632 -1.8779 0.9383
-14.9167 5.1338 -1.8739 0.9384
-15.2917 3.7707 -1.8708 0.9385
-15.7143 -0.4300 -1.8673 0.9386
-15.6187 -1.8368 -1.8681 0.9386
-15.4051 -3.2316 -1.8697 0.9386
-14.0708 -7.2521 -1.8804 0.9382
-13.4025 -8.5076 -1.8857 0.9381
-10.1625 -11.2179 -1.7980 0.9408
-5.5703 -14.0585 -1.7963 0.9409
-1.6604 -15.2962 -1.8277 0.9399
0.8926 -12.5004 -1.4887 0.9508
3.9105 -15.2702 -1.8724 0.9385
5.3859 -11.7402 -1.5343 0.9493
9.2303 -13.2198 -1.9152 0.9371
12.4940 -12.4058 -2.0915 0.9315
15.5393 -8.7479 -2.1182 0.9307
17.7723 -2.7571 -2.1364 0.9301
17.8736 2.0685 -2.1373 0.9301
17.5986 3.6577 -2.1351 0.9302
6.6934 2.7072 -0.8577 0.9713
13.0089 9.9606 -1.9462 0.9361
7.2323 14.2801 -1.9014 0.9376
3.1275 15.4534 -1.8729 0.9385
0.3158 15.5771 -1.8507 0.9392
-1.0742 15.4447 -1.8391 0.9395
-5.0410 14.3163 -1.8029 0.9407
-6.2632 13.7194 -1.7915 0.9411
-4.7401 8.3178 -1.1372 0.9622
-7.5325 8.9905 -1.3932 0.9539
-10.4797 10.4442 -1.7575 0.9421
-8.3322 5.7530 -1.2027 0.9600
-10.1930 5.7630 -1.3909 0.9539
-15.5420 2.4405 -1.8688 0.9386
-15.4163 -3.1744 -1.8697 0.9386
-14.6498 -5.8936 -1.8757 0.9384
-14.0960 -7.1993 -1.8802 0.9382
-12.6617 -9.6577 -1.8916 0.9379
-11.7849 -10.7891 -1.8979 0.9377
-7.9517 -12.6730 -1.7772 0.9415
7.9045 -11.2322 -1.9461 0.9460
13.5523 -6.0411 -2.1024 0.9418
14.0668 -4.8123 -2.1065 0.9417
14.7379 -2.2305 -2.1120 0.9416
14.9097 0.4356 -2.1134 0.9415
14.5745 3.0855 -2.1108 0.9416
8.5866 2.6405 -1.2729 0.9644
6.5102 3.3706 -1.0387 0.9708
6.2824 4.0043 -1.0556 0.9704
9.9524 9.2135 -1.9216 0.9467
9.0529 10.0303 -1.9144 0.9469
7.0582 11.3889 -1.8984 0.9473
2.4574 8.3663 -1.2355 0.9654
-3.2026 12.4104 -1.8160 0.9495
-4.2810 12.0159 -1.8073 0.9498
-4.7812 8.3182 -1.3594 0.9620
-6.2732 8.9493 -1.5485 0.9568
-7.4971 8.8813 -1.6468 0.9541
-8.3453 5.7165 -1.4332 0.9600
-12.9488 3.1930 -1.8897 0.9475
-13.2909 0.8297 -1.8868 0.9476
-13.2287 -1.5557 -1.8873 0.9476
-13.0460 -2.7367 -1.8887 0.9476
-12.3827 -5.0348 -1.8940 0.9474
-11.9057 -6.1362 -1.8978 0.9473
-9.0989 -10.0438 -1.9202 0.9467
-4.6885 -11.8329 -1.8034 0.9499
-3.6266 -12.2631 -1.8119 0.9496
2.1020 -12.9433 -1.8579 0.9484
3.2695 -12.7671 -1.8673 0.9481
5.3720 -11.7099 -1.8254 0.9493
7.8414 -11.2306 -1.9407 0.9462
9.3810 -11.1548 -2.0651 0.9428
10.4016 -10.3282 -2.0769 0.9425
11.3256 -9.3883 -2.0844 0.9423
12.8972 -7.2605 -2.0971 0.9420
14.0479 -4.8639 -2.1064 0.9417
14.4495 -3.5914 -2.1096 0.9416
14.9113 0.3805 -2.1135 0.9415
14.8119 1.7142 -2.1127 0.9415
14.5865 3.0317 -2.1109 0.9416
8.6864 2.6360 -1.2862 0.9640
6.5923 2.6663 -1.0076 0.9717
9.9879 9.1780 -1.9219 0.9467
9.0914 9.9983 -1.9147 0.9469
8.1262 10.7291 -1.9070 0.9471
3.3279 8.3538 -1.2741 0.9643
2.6078 12.8853 -1.8627 0.9483
1.4356 13.0011 -1.8533 0.9485
0.2638 13.0110 -1.8439 0.9488
-0.8983 12.9165 -1.8346 0.9490
-3.1573 12.4246 -1.8164 0.9495
-4.2374 12.0340 -1.8077 0.9498
-5.2739 11.5524 -1.7994 0.9500
-4.7401 8.3178 -1.3565 0.9621
-6.2228 8.9477 -1.5442 0.9569
-7.8690 6.5476 -1.4505 0.9595
-8.3186 5.7436 -1.4323 0.9600
-12.6127 4.3931 -1.8924 0.9475
-13.2879 0.8789 -1.8869 0.9476
-13.3116 -0.3150 -1.8866 0.9476
-13.2340 -1.5068 -1.8872 0.9476
-12.7771 -3.8516 -1.8908 0.9475
-11.9272 -6.0916 -1.8976 0.9473
-11.3606 -7.1526 -1.9021 0.9472
-9.1346 -10.0086 -1.9199 0.9467
-8.2271 -10.8207 -1.9260 0.9466
-7.0330 -11.2089 -1.8749 0.9479
8.9281 -8.7996 -2.0651 0.9505
11.0366 -6.1594 -2.0821 0.9501
11.5678 -5.1565 -2.0864 0.9500
12.5714 -1.9026 -2.0946 0.9498
12.6976 -0.7691 -2.0956 0.9497
12.7166 0.3716 -2.0958 0.9497
6.5273 2.6681 -1.1617 0.9718
6.5251 3.3783 -1.2105 0.9707
6.2735 3.9986 -1.2256 0.9703
9.9320 7.6632 -2.0666 0.9504
8.5080 7.8763 -1.9100 0.9541
5.1263 10.2154 -1.8829 0.9547
2.1979 11.0708 -1.8594 0.9553
1.1921 11.1744 -1.8513 0.9555
0.1854 11.1871 -1.8432 0.9557
-0.8140 11.1102 -1.8352 0.9558
-2.7599 10.6946 -1.8195 0.9562
-3.6916 10.3615 -1.8120 0.9564
-4.5867 9.9494 -1.8048 0.9566
-6.9911 8.2819 -1.7855 0.9570
-7.8056 7.7218 -1.8088 0.9565
-8.3447 5.7161 -1.6663 0.9598
-10.1264 5.6761 -1.9124 0.9540
-10.9390 3.7648 -1.9058 0.9542
-11.2189 2.7664 -1.9035 0.9542
-11.5347 -0.3157 -1.9009 0.9543
-11.4633 -1.3481 -1.9015 0.9543
-11.3039 -2.3712 -1.9027 0.9543
-10.7251 -4.3609 -1.9073 0.9541
-10.3092 -5.3134 -1.9106 0.9541
-9.8121 -6.2285 -1.9146 0.9540
-9.2368 -7.0995 -1.9192 0.9539
-6.2325 -10.0151 -1.9433 0.9533
-4.3682 -11.0246 -1.9536 0.9531
-3.3140 -11.2057 -1.9251 0.9537
-2.2481 -11.2150 -1.8843 0.9547
-1.2181 -11.2214 -1.8595 0.9553
2.8731 -11.2192 -1.9079 0.9541
5.1311 -11.1847 -2.0272 0.9513
8.8943 -8.8314 -2.0648 0.9505
9.6793 -8.0236 -2.0712 0.9503
11.9875 -4.1505 -2.0898 0.9499
12.7179 0.3245 -2.0958 0.9497
12.6338 1.4621 -2.0952 0.9497
12.4431 2.5862 -2.0937 0.9498
6.5253 3.3479 -1.2082 0.9707
7.7760 8.5517 -1.9041 0.9542
6.9545 9.1821 -1.8976 0.9544
6.0814 9.7322 -1.8906 0.9545
5.1649 10.1981 -1.8832 0.9547
1.2336 11.1719 -1.8516 0.9555
0.2268 11.1884 -1.8435 0.9556
-2.7207 10.7066 -1.8199 0.9562
-3.6538 10.3768 -1.8123 0.9564
-4.5506 9.9679 -1.8051 0.9566
-4.7401 8.3177 -1.5771 0.9619
-6.9614 8.3088 -1.7857 0.9570
-7.7493 7.7231 -1.8024 0.9566
-7.8464 6.5288 -1.6816 0.9595
-8.3190 5.7439 -1.6654 0.9598
-11.2090 2.8080 -1.9036 0.9542
-11.4680 -1.3057 -1.9014 0.9543
-11.3122 -2.3293 -1.9027 0.9543
-11.0692 -3.3367 -1.9046 0.9542
-10.7405 -4.3209 -1.9072 0.9542
-9.8342 -6.1916 -1.9144 0.9540
-6.2685 -9.9905 -1.9430 0.9533
-5.3682 -10.5509 -1.9502 0.9531
7.7905 -7.6785 -2.0560 0.9565
8.4696 -6.9682 -2.0615 0.9563
9.0815 -6.1962 -2.0664 0.9562
11.0754 0.3236 -2.0826 0.9559
10.9987 1.3141 -2.0820 0.9559
10.8299 2.2927 -2.0807 0.9559
6.4724 2.6457 -1.3143 0.9719
6.4049 3.3161 -1.3556 0.9711
6.4003 4.0794 -1.4266 0.9696
8.6926 6.7068 -2.0637 0.9563
8.0240 7.4282 -2.0553 0.9565
6.9627 7.7145 -1.9533 0.9586
6.0420 8.0389 -1.8902 0.9599
4.4805 8.9285 -1.8777 0.9602
1.9240 9.6913 -1.8571 0.9606
0.1625 9.8039 -1.8430 0.9609
-0.7137 9.7416 -1.8360 0.9610
-1.5776 9.6020 -1.8290 0.9612
-2.4224 9.3871 -1.8222 0.9613
-4.7808 8.3176 -1.8032 0.9617
-5.4893 7.8310 -1.7975 0.9618
-6.5062 7.7074 -1.8958 0.9598
-7.3187 7.2401 -1.9350 0.9590
-7.9180 6.5390 -1.9302 0.9591
-8.9202 5.0000 -1.9221 0.9592
-9.8880 2.4382 -1.9142 0.9594
-10.1680 -0.2782 -1.9119 0.9594
-10.1048 -1.1883 -1.9124 0.9594
-9.9635 -2.0900 -1.9135 0.9594
-9.7450 -2.9769 -1.9152 0.9594
-9.4506 -3.8426 -1.9176 0.9593
-8.6422 -5.4859 -1.9240 0.9592
-7.5584 -6.9713 -1.9327 0.9590
-6.9217 -7.6405 -1.9378 0.9589
-6.2272 -8.2535 -1.9434 0.9588
-4.6840 -9.2910 -1.9557 0.9585
-2.9715 -10.0479 -1.9695 0.9583
-2.0670 -10.3116 -1.9767 0.9581
-0.1952 -10.5949 -1.9918 0.9578
1.7117 -10.5401 -2.0071 0.9575
5.3822 -9.4040 -2.0366 0.9569
6.2236 -8.9136 -2.0434 0.9567
7.7612 -7.7063 -2.0558 0.9565
8.4429 -6.9987 -2.0613 0.9563
9.5996 -5.4041 -2.0706 0.9562
10.7385 -2.6691 -2.0798 0.9560
10.9433 -1.6976 -2.0815 0.9559
11.0766 0.2826 -2.0826 0.9559
11.0037 1.2735 -2.0821 0.9559
8.5128 2.5833 -1.6721 0.9644
6.4006 4.0463 -1.4233 0.9697
3.3279 8.3538 -1.6902 0.9641
1.0805 9.7850 -1.8504 0.9607
0.1988 9.8047 -1.8433 0.9609
-0.6778 9.7457 -1.8362 0.9610
-1.5423 9.6093 -1.8293 0.9612
-2.3881 9.3974 -1.8225 0.9613
-3.2087 9.1126 -1.8159 0.9614
-3.9981 8.7577 -1.8095 0.9616
-4.7506 8.3363 -1.8035 0.9617
-5.4610 7.8522 -1.7978 0.9618
-7.8945 6.5689 -1.9304 0.9591
-8.4323 5.8221 -1.9260 0.9592
-9.3018 4.2084 -1.9190 0.9593
-9.6281 3.3536 -1.9163 0.9594
-9.8793 2.4749 -1.9143 0.9594
-10.0538 1.5787 -1.9129 0.9594
-10.1505 0.6714 -1.9121 0.9594
-9.9708 -2.0531 -1.9134 0.9594
-9.0989 -4.6471 -1.9204 0.9593
-5.5115 -8.7838 -1.9491 0.9587
-4.7177 -9.2724 -1.9555 0.9585
6.2500 -7.3762 -2.0436 0.9612
7.5029 -6.1729 -2.0537 0.9611
8.0428 -5.4875 -2.0581 0.9610
8.5179 -4.7538 -2.0619 0.9609
9.2563 -3.1666 -2.0679 0.9608
9.5123 -2.3269 -2.0700 0.9608
9.7998 0.2863 -2.0724 0.9607
9.5836 2.0289 -2.0707 0.9607
9.3551 2.8768 -2.0689 0.9608
7.6995 5.9407 -2.0557 0.9610
6.4850 7.1852 -2.0459 0.9612
0.9279 8.6985 -1.8491 0.9649
0.1444 8.7168 -1.8428 0.9650
-1.4039 8.5446 -1.8304 0.9652
-2.1565 8.3567 -1.8243 0.9653
-2.8872 8.1037 -1.8184 0.9654
-5.2855 7.5403 -1.9464 0.9631
-5.9387 7.0352 -1.9461 0.9631
-6.5291 6.4590 -1.9413 0.9631
-7.0657 5.8351 -1.9370 0.9632
-8.3191 3.7268 -1.9269 0.9634
-8.6090 2.9629 -1.9245 0.9635
-8.8315 2.1777 -1.9227 0.9635
-8.9852 1.3769 -1.9215 0.9635
-9.0691 0.5662 -1.9208 0.9635
-9.0827 -0.2486 -1.9206 0.9635
-8.7032 -2.6587 -1.9236 0.9635
-7.7145 -4.8970 -1.9315 0.9633
-6.7438 -6.2200 -1.9393 0.9632
-5.5528 -7.3596 -1.9488 0.9630
-4.8845 -7.8490 -1.9542 0.9629
-3.4258 -8.6461 -1.9659 0.9627
-2.6459 -8.9467 -1.9721 0.9626
-1.8397 -9.1777 -1.9786 0.9625
-1.0135 -9.3369 -1.9852 0.9623
-0.1736 -9.4220 -1.9920 0.9622
0.6735 -9.4318 -1.9988 0.9621
2.3618 -9.2224 -2.0123 0.9618
4.7745 -8.3422 -2.0318 0.9615
5.5188 -7.9042 -2.0377 0.9614
6.2220 -7.3985 -2.0434 0.9612
6.8775 -6.8289 -2.0487 0.9612
7.4793 -6.2000 -2.0536 0.9611
8.0218 -5.5168 -2.0579 0.9610
8.4997 -4.7849 -2.0618 0.9609
8.9084 -4.0106 -2.0651 0.9608
9.2440 -3.2006 -2.0678 0.9608
9.5033 -2.3620 -2.0699 0.9608
9.7831 -0.6289 -2.0722 0.9607
9.8009 0.2501 -2.0724 0.9607
9.7368 1.1268 -2.0719 0.9607
9.3661 2.8423 -2.0690 0.9608
7.1453 6.5659 -2.0512 0.9611
0.9603 8.6962 -1.8494 0.9649
-0.6029 8.6687 -1.8368 0.9651
-2.1259 8.3658 -1.8246 0.9653
-3.5620 7.8024 -1.8130 0.9655
-5.2573 7.5594 -1.9463 0.9631
-6.5058 6.4838 -1.9415 0.9631
-7.0447 5.8617 -1.9372 0.9632
-7.5264 5.1966 -1.9333 0.9633
-8.3057 3.7578 -1.9270 0.9634
-8.8237 2.2104 -1.9228 0.9635
-8.9802 1.4101 -1.9215 0.9635
-8.9058 -1.8338 -1.9220 0.9635
-8.1239 -4.1491 -1.9282 0.9634
-7.7320 -4.8681 -1.9314 0.9633
-6.7662 -6.1944 -1.9391 0.9632
-6.1985 -6.7916 -1.9436 0.9631
-5.5794 -7.3382 -1.9486 0.9630
-4.9129 -7.8300 -1.9539 0.9629
4.9794 -7.0756 -2.0334 0.9651
5.6071 -6.6175 -2.0385 0.9650
6.1917 -6.1026 -2.0432 0.9649
6.7277 -5.5351 -2.0475 0.9648
7.2102 -4.9195 -2.0514 0.9648
7.6347 -4.2608 -2.0549 0.9647
7.9971 -3.5648 -2.0578 0.9647
8.5225 -2.0848 -2.0620 0.9646
8.6804 -1.3138 -2.0633 0.9646
8.7662 -0.5310 -2.0640 0.9646
8.5861 1.8177 -2.0627 0.9646
6.8633 2.8055 -1.7426 0.9700
7.7692 4.0225 -2.0562 0.9647
7.3660 4.6950 -2.0529 0.9647
6.9034 5.3264 -2.0492 0.9648
5.8173 6.4453 -2.0405 0.9650
3.0385 7.7103 -1.9477 0.9665
2.2675 7.7198 -1.8910 0.9675
1.5361 7.7375 -1.8540 0.9681
0.8342 7.8201 -1.8483 0.9682
-1.2692 7.7247 -1.8398 0.9683
-2.7460 7.7073 -1.9229 0.9669
-3.4919 7.5746 -1.9603 0.9663
-5.3541 6.3426 -1.9508 0.9665
-5.8878 5.8246 -1.9465 0.9665
-6.8067 4.6626 -1.9391 0.9667
-7.5075 3.3632 -1.9334 0.9668
-8.1869 0.5111 -1.9278 0.9669
-8.1992 -0.2244 -1.9277 0.9669
-8.1478 -0.9582 -1.9281 0.9669
-7.8554 -2.3997 -1.9304 0.9668
-6.5476 -5.0326 -1.9409 0.9666
-6.0821 -5.6096 -1.9446 0.9666
-5.5669 -6.1450 -1.9487 0.9665
-4.4019 -7.0735 -1.9581 0.9663
-3.0855 -7.7873 -1.9686 0.9662
-1.6559 -8.2607 -1.9801 0.9660
-0.9120 -8.4011 -1.9861 0.9659
-0.1561 -8.4749 -1.9921 0.9658
0.6056 -8.4808 -1.9983 0.9657
1.3671 -8.4181 -2.0044 0.9656
2.1222 -8.2868 -2.0104 0.9655
4.9526 -7.0932 -2.0332 0.9651
6.1685 -6.1249 -2.0430 0.9649
6.7066 -5.5595 -2.0474 0.9648
7.1914 -4.9457 -2.0513 0.9648
7.9834 -3.5942 -2.0577 0.9647
8.7800 0.2240 -2.0642 0.9646
8.7228 1.0095 -2.0637 0.9646
7.7845 3.9939 -2.0563 0.9647
6.9236 5.3012 -2.0494 0.9648
6.4079 5.8883 -2.0453 0.9649
5.8416 6.4244 -2.0407 0.9650
4.5757 7.3226 -2.0293 0.9651
3.8796 7.6601 -2.0180 0.9653
2.2985 7.7195 -1.8930 0.9674
1.5649 7.7327 -1.8542 0.9681
0.8633 7.8180 -1.8486 0.9682
-2.7140 7.7078 -1.9205 0.9670
-4.1304 7.2480 -1.9606 0.9663
-5.3311 6.3630 -1.9510 0.9665
-7.1711 4.0545 -1.9361 0.9667
-7.9645 1.9952 -1.9297 0.9668
-8.1063 1.2729 -1.9285 0.9668
-7.8640 -2.3705 -1.9304 0.9668
-7.3308 -3.7440 -1.9346 0.9667
-6.9761 -4.3922 -1.9374 0.9667
-6.5657 -5.0079 -1.9407 0.9666
-3.7875 -7.4441 -1.9630 0.9663
4.5115 -6.4108 -2.0297 0.9681
5.6074 -5.5268 -2.0385 0.9680
6.9105 -3.8567 -2.0490 0.9678
7.5054 -2.5676 -2.0539 0.9678
7.7116 -1.8864 -2.0555 0.9677
7.8540 -1.1887 -2.0567 0.9677
7.9314 -0.4804 -2.0573 0.9677
7.9430 0.2321 -2.0575 0.9677
7.5849 2.3324 -2.0546 0.9677
6.6679 4.2500 -2.0473 0.9679
5.2690 5.8378 -2.0361 0.9680
4.7145 6.2727 -2.0317 0.9681
4.1239 6.6542 -2.0269 0.9682
2.8559 7.2468 -2.0168 0.9683
2.1858 7.4415 -2.0081 0.9685
1.5045 7.5779 -2.0004 0.9686
0.8167 7.6559 -1.9935 0.9687
0.1272 7.6756 -1.9876 0.9688
-3.7790 6.5746 -1.9634 0.9692
-4.3427 6.1952 -1.9589 0.9692
-4.8697 5.7687 -1.9547 0.9693
-5.3561 5.2986 -1.9507 0.9693
-6.5399 3.6658 -1.9412 0.9695
-7.0734 2.4344 -1.9369 0.9696
-7.4653 -0.2043 -1.9336 0.9696
-7.4184 -0.8724 -1.9340 0.9696
-6.9331 -2.8190 -1.9378 0.9695
-6.3344 -4.0209 -1.9426 0.9695
-4.5521 -6.0333 -1.9569 0.9693
-4.0022 -6.4313 -1.9613 0.9692
-2.8040 -7.0768 -1.9709 0.9690
-2.1644 -7.3185 -1.9760 0.9690
-0.8281 -7.6285 -1.9868 0.9688
-0.1417 -7.6933 -1.9923 0.9687
0.5496 -7.6964 -1.9978 0.9686
1.9248 -7.5162 -2.0089 0.9685
2.5974 -7.3332 -2.0143 0.9684
3.2524 -7.0896 -2.0196 0.9683
3.8842 -6.7867 -2.0246 0.9682
5.0564 -6.0126 -2.0341 0.9681
5.5865 -5.5470 -2.0384 0.9680
6.5104 -4.4774 -2.0458 0.9679
6.8958 -3.8820 -2.0489 0.9678
7.4956 -2.5953 -2.0538 0.9678
7.7043 -1.9149 -2.0555 0.9677
7.8494 -1.2177 -2.0567 0.9677
7.9295 -0.5098 -2.0573 0.9677
6.2684 4.7996 -2.0441 0.9679
5.2910 5.8188 -2.0363 0.9680
4.1489 6.6396 -2.0271 0.9682
2.2136 7.4346 -2.0085 0.9685
1.5327 7.5735 -2.0007 0.9686
0.8452 7.6539 -1.9938 0.9687
0.1556 7.6760 -1.9879 0.9688
-0.5314 7.6401 -1.9829 0.9689
-1.2113 7.5470 -1.9791 0.9689
-1.8798 7.3975 -1.9762 0.9690
-3.7550 6.5892 -1.9636 0.9691
-6.5267 3.6901 -1.9413 0.9695
-7.2509 1.8165 -1.9354 0.9696
-7.4215 -0.8450 -1.9340 0.9696
-7.1592 -2.1581 -1.9360 0.9696
-6.6725 -3.4078 -1.9399 0.9695
-5.9744 -4.5569 -1.9455 0.9694
-3.4429 -6.7667 -1.9658 0.9691
4.1199 -5.8543 -2.0266 0.9707
4.6373 -5.4729 -2.0307 0.9706
5.1187 -5.0451 -2.0346 0.9706
5.5598 -4.5742 -2.0382 0.9705
6.3054 -3.5190 -2.0442 0.9704
6.6031 -2.9434 -2.0466 0.9704
6.8468 -2.3423 -2.0486 0.9704
7.0344 -1.7208 -2.0501 0.9703
7.1639 -1.0842 -2.0512 0.9703
7.0865 1.5002 -2.0506 0.9703
6.4158 3.3218 -2.0453 0.9704
6.0845 3.8781 -2.0426 0.9704
5.7041 4.4011 -2.0396 0.9705
5.2781 4.8862 -2.0362 0.9705
4.8102 5.3296 -2.0324 0.9706
4.3048 5.7277 -2.0284 0.9707
2.6094 6.6214 -2.0148 0.9708
0.7494 7.0244 -1.9998 0.9711
0.1167 7.0453 -1.9948 0.9711
-1.7475 6.7715 -1.9798 0.9713
-4.4613 5.2849 -1.9579 0.9717
-4.9077 4.8551 -1.9543 0.9717
-5.6773 3.8890 -1.9481 0.9718
-6.4851 2.2320 -1.9416 0.9719
-6.6543 1.6409 -1.9402 0.9719
-6.8350 0.4267 -1.9387 0.9719
-6.8454 -0.1873 -1.9386 0.9719
-6.8022 -0.8000 -1.9389 0.9719
-6.5568 -2.0030 -1.9409 0.9719
-6.3563 -2.5845 -1.9425 0.9719
-6.1055 -3.1468 -1.9445 0.9718
-5.8061 -3.6856 -1.9469 0.9718
-4.1699 -5.5268 -1.9600 0.9716
-1.9810 -6.6986 -1.9775 0.9714
-0.7576 -6.9791 -1.9873 0.9712
-0.1296 -7.0367 -1.9924 0.9712
1.7593 -6.8699 -2.0076 0.9709
3.5478 -6.1989 -2.0220 0.9707
5.0996 -5.0636 -2.0345 0.9706
7.1598 -1.1107 -2.0511 0.9703
7.1987 0.8331 -2.0515 0.9703
6.7052 2.7119 -2.0476 0.9704
6.4284 3.2982 -2.0454 0.9704
6.0992 3.8558 -2.0427 0.9704
5.7207 4.3802 -2.0397 0.9705
5.2965 4.8670 -2.0363 0.9705
4.8303 5.3122 -2.0326 0.9706
4.3264 5.7122 -2.0285 0.9707
3.7892 6.0639 -2.0242 0.9707
3.2235 6.3647 -2.0197 0.9708
2.6341 6.6123 -2.0150 0.9708
1.4050 6.9421 -2.0051 0.9710
0.7754 7.0223 -2.0000 0.9711
0.1428 7.0456 -1.9950 0.9711
-0.4877 7.0122 -1.9899 0.9712
-1.1111 6.9228 -1.9849 0.9713
-1.7226 6.7786 -1.9800 0.9713
-2.3173 6.5811 -1.9752 0.9714
-2.8908 6.3322 -1.9706 0.9715
-3.4387 6.0342 -1.9662 0.9715
-3.9571 5.6898 -1.9620 0.9716
-4.4420 5.3018 -1.9581 0.9717
-4.8901 4.8735 -1.9545 0.9717
-5.2981 4.4084 -1.9512 0.9718
-5.9828 3.3826 -1.9456 0.9718
-6.4770 2.2560 -1.9416 0.9719
-6.8334 0.4520 -1.9387 0.9719
-6.8460 -0.1620 -1.9386 0.9719
-6.7109 -1.3818 -1.9397 0.9719
-6.5640 -1.9787 -1.9408 0.9719
-6.3655 -2.5608 -1.9424 0.9719
-3.1526 -6.1963 -1.9681 0.9715
4.2618 -5.0298 -2.0277 0.9728
5.4720 -3.7335 -2.0375 0.9727
6.0646 -2.7034 -2.0423 0.9726
6.6526 0.1944 -2.0471 0.9725
6.5076 1.3777 -2.0460 0.9725
6.3542 1.9540 -2.0447 0.9726
6.1487 2.5133 -2.0431 0.9726
5.8929 3.0510 -2.0411 0.9726
5.5892 3.5625 -2.0386 0.9726
4.8497 4.4896 -2.0327 0.9727
3.9567 5.2644 -2.0256 0.9728
3.4623 5.5867 -2.0216 0.9729
2.9418 5.8623 -2.0174 0.9729
1.8404 6.2656 -2.0086 0.9730
0.1074 6.4842 -1.9947 0.9732
-0.4728 6.4526 -1.9900 0.9733
-1.6092 6.2359 -1.9809 0.9734
-2.1566 6.0532 -1.9765 0.9735
-2.6844 5.8231 -1.9722 0.9735
-3.1887 5.5477 -1.9682 0.9736
-3.6658 5.2295 -1.9643 0.9736
-4.1120 4.8712 -1.9607 0.9737
-4.5242 4.4756 -1.9574 0.9737
-5.5283 3.0987 -1.9493 0.9738
-5.9813 2.0586 -1.9456 0.9739
-6.3047 0.3936 -1.9430 0.9739
-6.2744 -0.7379 -1.9432 0.9739
-6.0476 -1.8474 -1.9450 0.9739
-5.8622 -2.3836 -1.9464 0.9739
-5.6305 -2.9020 -1.9483 0.9738
-5.0345 -3.8696 -1.9531 0.9738
-4.6745 -4.3114 -1.9559 0.9737
-4.2764 -4.7205 -1.9591 0.9737
-3.3777 -5.4277 -1.9663 0.9736
-1.2673 -6.3222 -1.9833 0.9734
-0.1193 -6.4769 -1.9925 0.9733
1.6183 -6.3195 -2.0065 0.9731
2.1829 -6.1630 -2.0110 0.9730
2.7322 -5.9557 -2.0154 0.9730
3.2617 -5.6990 -2.0197 0.9729
3.7667 -5.3947 -2.0237 0.9728
4.2429 -5.0451 -2.0276 0.9728
5.0922 -4.2212 -2.0344 0.9727
5.4578 -3.7535 -2.0374 0.9727
6.2798 -2.1743 -2.0440 0.9726
6.4538 -1.6041 -2.0454 0.9726
6.6414 -0.4270 -2.0470 0.9725
6.6533 0.1698 -2.0471 0.9725
6.5128 1.3536 -2.0460 0.9725
6.3616 1.9305 -2.0448 0.9726
6.1582 2.4907 -2.0432 0.9726
5.6027 3.5419 -2.0387 0.9726
5.2557 4.0241 -2.0360 0.9727
4.4389 4.8817 -2.0294 0.9728
3.9764 5.2501 -2.0257 0.9728
2.9638 5.8519 -2.0176 0.9729
1.8637 6.2593 -2.0088 0.9730
1.2925 6.3865 -2.0042 0.9731
-1.0230 6.3739 -1.9856 0.9733
-2.1344 6.0617 -1.9766 0.9735
-2.6631 5.8335 -1.9724 0.9735
-4.0942 4.8867 -1.9609 0.9737
-4.8846 4.0644 -1.9545 0.9738
-5.2218 3.6054 -1.9518 0.9738
-5.7683 2.6098 -1.9473 0.9739
-5.9738 2.0807 -1.9457 0.9739
-6.1321 1.5362 -1.9444 0.9739
-6.2422 0.9802 -1.9435 0.9739
-6.3033 0.4169 -1.9430 0.9739
-6.2771 -0.7147 -1.9432 0.9739
-6.0542 -1.8250 -1.9449 0.9739
-5.6409 -2.8810 -1.9482 0.9738
-5.3662 -3.3786 -1.9504 0.9738
-5.0485 -3.8507 -1.9529 0.9738
-4.6901 -4.2938 -1.9558 0.9737
-4.2935 -4.7043 -1.9590 0.9737
3.9385 -4.6482 -2.0251 0.9746
4.3461 -4.2836 -2.0284 0.9746
4.7194 -3.8828 -2.0314 0.9746
5.3499 -2.9857 -2.0365 0.9745
5.6014 -2.4969 -2.0386 0.9745
5.8073 -1.9867 -2.0402 0.9745
6.0752 -0.9194 -2.0424 0.9744
6.1346 -0.3716 -2.0429 0.9744
6.1435 0.1795 -2.0430 0.9744
6.1017 0.7290 -2.0427 0.9744
6.0097 1.2723 -2.0419 0.9744
5.8684 1.8046 -2.0408 0.9745
5.6789 2.3213 -2.0393 0.9745
5.1631 3.2908 -2.0352 0.9745
4.8414 3.7354 -2.0326 0.9746
4.4809 4.1482 -2.0297 0.9746
3.2004 5.1640 -2.0195 0.9747
2.7197 5.4196 -2.0156 0.9748
1.7020 5.7944 -2.0075 0.9749
1.1735 5.9110 -2.0032 0.9749
0.6379 5.9796 -1.9989 0.9750
0.0994 5.9996 -1.9946 0.9750
-0.4375 5.9715 -1.9903 0.9751
-0.9686 5.8956 -1.9860 0.9751
-1.4898 5.7729 -1.9818 0.9752
-3.3957 4.8443 -1.9665 0.9754
-4.1919 4.1469 -1.9601 0.9755
-4.8515 3.3233 -1.9547 0.9755
-5.3555 2.3992 -1.9507 0.9756
-5.5445 1.9083 -1.9491 0.9756
-5.8449 0.3649 -1.9467 0.9756
-5.8538 -0.1602 -1.9466 0.9756
-5.4340 -2.2095 -1.9499 0.9756
-5.2188 -2.6898 -1.9516 0.9756
-4.3315 -3.9950 -1.9587 0.9755
-3.9621 -4.3736 -1.9617 0.9754
-3.5602 -4.7187 -1.9649 0.9754
-3.1287 -5.0275 -1.9683 0.9753
-1.6892 -5.7117 -1.9799 0.9752
-1.1731 -5.8523 -1.9840 0.9752
1.4968 -5.8446 -2.0055 0.9749
2.5261 -5.5064 -2.0138 0.9748
3.4814 -4.9862 -2.0215 0.9747
3.9210 -4.6624 -2.0250 0.9746
4.3299 -4.2994 -2.0283 0.9746
4.7047 -3.9000 -2.0313 0.9746
5.5919 -2.5175 -2.0385 0.9745
5.9602 -1.4814 -2.0415 0.9744
6.0716 -0.9419 -2.0424 0.9744
6.0145 1.2501 -2.0420 0.9744
5.6877 2.3004 -2.0394 0.9745
5.4537 2.7981 -2.0375 0.9745
4.8554 3.7177 -2.0327 0.9746
2.7399 5.4100 -2.0158 0.9748
2.2398 5.6225 -2.0118 0.9748
1.7235 5.7886 -2.0076 0.9749
1.1955 5.9072 -2.0034 0.9749
0.6601 5.9777 -1.9991 0.9750
-0.4155 5.9736 -1.9904 0.9751
-0.9469 5.8997 -1.9862 0.9751
-1.4685 5.7789 -1.9820 0.9752
-2.4662 5.4021 -1.9740 0.9753
-3.7931 4.5273 -1.9633 0.9754
-4.1768 4.1627 -1.9602 0.9754
-4.8394 3.3414 -1.9548 0.9755
-5.1135 2.8911 -1.9526 0.9755
-5.3467 2.4190 -1.9507 0.9756
-5.5376 1.9288 -1.9492 0.9756
-5.6846 1.4241 -1.9480 0.9756
-5.8436 0.3865 -1.9467 0.9756
-5.8544 -0.1385 -1.9466 0.9756
-5.7383 -1.1816 -1.9475 0.9756
-5.2285 -2.6703 -1.9515 0.9756
-4.9734 -3.1313 -1.9536 0.9755
-4.6786 -3.5685 -1.9559 0.9755
-3.9780 -4.3586 -1.9615 0.9754
-3.5774 -4.7052 -1.9647 0.9754
-3.1470 -5.0155 -1.9682 0.9754
-2.6900 -5.2871 -1.9719 0.9753
4.0349 -3.9768 -2.0259 0.9762
4.3809 -3.6043 -2.0287 0.9762
4.9653 -2.7711 -2.0334 0.9761
5.1984 -2.3173 -2.0353 0.9761
5.6373 -0.8532 -2.0389 0.9761
5.6923 -0.3448 -2.0394 0.9761
5.6619 0.6765 -2.0391 0.9761
5.4457 1.6746 -2.0374 0.9761
5.2702 2.1543 -2.0360 0.9761
5.0517 2.6155 -2.0343 0.9761
4.7922 3.0544 -2.0322 0.9761
4.4940 3.4674 -2.0298 0.9762
4.1598 3.8510 -2.0272 0.9762
3.3955 4.5178 -2.0210 0.9763
2.5260 5.0338 -2.0141 0.9764
1.5812 5.3834 -2.0065 0.9764
0.5928 5.5571 -1.9985 0.9765
0.0924 5.5767 -1.9945 0.9766
-0.4067 5.5513 -1.9905 0.9766
-2.7476 4.7801 -1.9717 0.9769
-3.5449 4.1994 -1.9653 0.9769
-3.9011 3.8593 -1.9624 0.9770
-4.5158 3.0933 -1.9574 0.9770
-4.9856 2.2335 -1.9536 0.9771
-5.2973 1.3062 -1.9511 0.9771
-5.3909 0.8261 -1.9503 0.9771
-5.4420 0.3398 -1.9499 0.9771
-4.0312 -3.7181 -1.9611 0.9770
-3.6871 -4.0700 -1.9639 0.9769
-3.3127 -4.3906 -1.9669 0.9769
-2.9108 -4.6774 -1.9701 0.9769
-2.4843 -4.9279 -1.9735 0.9768
-2.0366 -5.1400 -1.9771 0.9768
-0.6001 -5.5285 -1.9886 0.9767
2.3464 -5.1147 -2.0123 0.9764
2.8003 -4.8928 -2.0160 0.9763
3.2329 -4.6302 -2.0195 0.9763
3.6406 -4.3290 -2.0228 0.9763
4.3673 -3.6203 -2.0286 0.9762
4.9548 -2.7893 -2.0334 0.9761
5.1896 -2.3364 -2.0353 0.9761
5.3822 -1.8635 -2.0368 0.9761
5.5308 -1.3747 -2.0380 0.9761
5.6644 0.6555 -2.0392 0.9761
5.5811 1.1600 -2.0385 0.9761
5.4520 1.6545 -2.0375 0.9761
5.0615 2.5969 -2.0344 0.9761
4.5070 3.4509 -2.0299 0.9762
4.1742 3.8357 -2.0273 0.9762
3.4124 4.5055 -2.0212 0.9763
2.0806 5.2229 -2.0105 0.9764
1.6013 5.3780 -2.0066 0.9764
0.1130 5.5767 -1.9947 0.9766
-0.3862 5.5532 -1.9907 0.9766
-0.8804 5.4853 -1.9867 0.9767
-1.8380 5.2199 -1.9790 0.9768
-3.1429 4.5192 -1.9685 0.9769
-3.5296 4.2127 -1.9654 0.9769
-3.8871 3.8739 -1.9625 0.9770
-4.5045 3.1102 -1.9575 0.9770
-4.9775 2.2520 -1.9537 0.9771
-5.1554 1.7957 -1.9522 0.9771
-5.2925 1.3258 -1.9511 0.9771
-5.3879 0.8460 -1.9504 0.9771
-5.4408 0.3599 -1.9499 0.9771
-4.8673 -2.4859 -1.9544 0.9771
-4.6295 -2.9147 -1.9563 0.9770
-4.3546 -3.3215 -1.9585 0.9770
-4.0447 -3.7029 -1.9610 0.9770
3.4091 -4.0234 -2.0209 0.9777
4.3729 -2.9836 -2.0287 0.9776
4.6273 -2.5825 -2.0307 0.9776
5.1583 -1.2618 -2.0350 0.9775
5.3038 -0.3213 -2.0362 0.9775
5.2755 0.6303 -2.0360 0.9775
4.4661 2.8466 -2.0296 0.9776
4.1886 3.2317 -2.0274 0.9776
3.5355 3.9172 -2.0221 0.9776
3.1657 4.2120 -2.0192 0.9777
2.7713 4.4716 -2.0160 0.9777
2.3556 4.6942 -2.0127 0.9778
0.5531 5.1849 -1.9982 0.9779
0.0862 5.2038 -1.9945 0.9780
-0.3796 5.1808 -1.9907 0.9780
-1.2932 5.0114 -1.9834 0.9781
-2.1592 4.6837 -1.9764 0.9781
-3.6442 3.6051 -1.9644 0.9783
-4.2191 2.8901 -1.9598 0.9783
-4.4567 2.4981 -1.9579 0.9784
-4.6587 2.0870 -1.9562 0.9784
-2.2961 -0.0628 -0.8802 0.9902
-2.3014 -0.2706 -0.8880 0.9901
-4.9890 -1.0465 -1.9535 0.9784
-4.8774 -1.4900 -1.9544 0.9784
-4.5395 -2.3396 -1.9571 0.9784
-4.3156 -2.7394 -1.9589 0.9783
-4.0571 -3.1183 -1.9609 0.9783
-3.4441 -3.8018 -1.9658 0.9783
-2.3199 -4.6016 -1.9749 0.9782
-1.9015 -4.7991 -1.9782 0.9781
-1.4665 -4.9589 -1.9817 0.9781
-1.0182 -5.0795 -1.9853 0.9781
-0.5601 -5.1599 -1.9890 0.9780
2.1882 -4.7699 -2.0111 0.9778
2.6112 -4.5624 -2.0145 0.9777
3.3940 -4.0358 -2.0208 0.9777
3.7472 -3.7207 -2.0236 0.9776
4.3616 -2.9996 -2.0286 0.9776
5.1535 -1.2809 -2.0350 0.9775
5.2495 -0.8144 -2.0358 0.9775
5.3025 -0.3409 -2.0362 0.9775
5.2003 1.0808 -2.0354 0.9775
5.0802 1.5416 -2.0345 0.9775
4.7168 2.4200 -2.0316 0.9775
3.5501 3.9043 -2.0223 0.9776
2.7880 4.4617 -2.0161 0.9777
1.9405 4.8711 -2.0093 0.9778
1.4936 5.0164 -2.0058 0.9778
0.5723 5.1832 -1.9984 0.9779
-1.2748 5.0165 -1.9835 0.9781
-1.7160 4.8734 -1.9800 0.9781
-2.5495 4.4737 -1.9733 0.9782
-2.9354 4.2207 -1.9702 0.9782
-3.9357 3.2748 -1.9621 0.9783
-4.2086 2.9058 -1.9599 0.9783
-4.4476 2.5146 -1.9580 0.9784
-4.6511 2.1043 -1.9563 0.9784
-4.8175 1.6780 -1.9550 0.9784
-2.3034 0.1524 -0.8846 0.9902
-2.3019 -0.2621 -0.8878 0.9901
-4.9928 -1.0281 -1.9535 0.9784
-4.8828 -1.4719 -1.9543 0.9784
-4.5480 -2.3228 -1.9570 0.9784
-4.3255 -2.7233 -1.9588 0.9783
-4.0684 -3.1031 -1.9608 0.9783
-3.4579 -3.7888 -1.9657 0.9783
-2.3367 -4.5927 -1.9747 0.9782
2.8353 -4.0289 -2.0163 0.9789
3.1893 -3.7640 -2.0191 0.9789
3.5183 -3.4677 -2.0218 0.9789
3.8194 -3.1423 -2.0242 0.9789
4.8235 -1.1800 -2.0323 0.9788
4.9116 -0.7433 -2.0331 0.9788
4.9329 0.5894 -2.0333 0.9788
4.7451 1.4591 -2.0318 0.9788
4.5925 1.8773 -2.0306 0.9788
3.9177 3.0227 -2.0252 0.9788
3.6269 3.3577 -2.0229 0.9789
3.3074 3.6644 -2.0203 0.9789
2.9617 3.9406 -2.0175 0.9789
2.5930 4.1840 -2.0146 0.9790
2.2043 4.3926 -2.0115 0.9790
1.7990 4.5650 -2.0082 0.9790
1.3805 4.7000 -2.0048 0.9791
0.5178 4.8541 -1.9979 0.9791
-0.7873 4.7917 -1.9874 0.9792
-1.2113 4.6939 -1.9840 0.9793
-1.6242 4.5588 -1.9807 0.9793
-2.7650 3.9445 -1.9715 0.9794
-3.7000 3.0556 -1.9640 0.9795
-4.5221 1.5564 -1.9573 0.9795
-2.1025 0.5185 -0.8863 0.9907
-2.0284 0.3108 -0.8399 0.9912
-2.0086 0.1254 -0.8237 0.9913
-1.9970 -0.0547 -0.8176 0.9914
-2.0195 -0.2375 -0.8322 0.9912
-2.0815 -0.4366 -0.8705 0.9908
-4.4316 -1.8019 -1.9580 0.9795
-4.2554 -2.1933 -1.9594 0.9795
-2.1735 -4.3112 -1.9760 0.9793
-1.7813 -4.4958 -1.9792 0.9793
-0.9537 -4.7574 -1.9858 0.9792
-0.0897 -4.8682 -1.9928 0.9792
0.3474 -4.8652 -1.9963 0.9791
1.2143 -4.7416 -2.0032 0.9791
3.1752 -3.7755 -2.0190 0.9789
3.5052 -3.4805 -2.0217 0.9789
3.8075 -3.1563 -2.0241 0.9789
4.3184 -2.4311 -2.0283 0.9788
4.5226 -2.0361 -2.0299 0.9788
4.6899 -1.6238 -2.0313 0.9788
4.9087 -0.7615 -2.0330 0.9788
4.9351 0.5711 -2.0333 0.9788
4.8627 1.0107 -2.0327 0.9788
4.7505 1.4416 -2.0318 0.9788
4.5996 1.8603 -2.0306 0.9788
4.4112 2.2632 -2.0291 0.9788
4.1870 2.6470 -2.0273 0.9788
3.9290 3.0083 -2.0253 0.9788
3.3211 3.6524 -2.0204 0.9789
2.9765 3.9299 -2.0176 0.9789
2.6086 4.1746 -2.0147 0.9789
2.2207 4.3847 -2.0116 0.9790
1.8160 4.5587 -2.0083 0.9790
0.0988 4.8724 -1.9945 0.9792
-0.3375 4.8531 -1.9910 0.9792
-0.7696 4.7949 -1.9876 0.9792
-1.1940 4.6986 -1.9842 0.9793
-2.7505 3.9549 -1.9716 0.9794
-3.6889 3.0694 -1.9641 0.9795
-3.9449 2.7238 -1.9620 0.9795
-4.3601 1.9727 -1.9586 0.9795
-4.5164 1.5731 -1.9574 0.9795
-2.0327 0.3192 -0.8421 0.9911
-1.9962 -0.0472 -0.8172 0.9914
-2.0192 -0.2299 -0.8317 0.9913
-4.5777 -1.3799 -1.9568 0.9795
-4.4382 -1.7855 -1.9579 0.9795
-3.8134 -2.9086 -1.9629 0.9795
-3.5414 -3.2421 -1.9651 0.9795
-3.2407 -3.5507 -1.9675 0.9794
-2.1893 -4.3029 -1.9759 0.9794
2.6607 -3.7809 -2.0149 0.9800
3.5834 -2.9482 -2.0223 0.9800
3.8370 -2.6179 -2.0244 0.9799
4.2496 -1.8943 -2.0277 0.9799
4.6069 -0.6972 -2.0306 0.9799
4.6517 -0.2818 -2.0310 0.9799
4.4509 1.3687 -2.0294 0.9799
3.9186 2.4976 -2.0252 0.9799
3.4030 3.1504 -2.0211 0.9800
3.1034 3.4385 -2.0187 0.9800
2.7793 3.6979 -2.0161 0.9800
2.4335 3.9266 -2.0133 0.9800
2.0689 4.1229 -2.0104 0.9801
1.6887 4.2851 -2.0073 0.9801
0.4862 4.5578 -1.9977 0.9802
0.0758 4.5755 -1.9944 0.9802
-0.3338 4.5564 -1.9911 0.9803
-1.1379 4.4093 -1.9846 0.9803
-1.5259 4.2829 -1.9815 0.9804
-2.9162 3.4546 -1.9703 0.9805
-3.7175 2.5465 -1.9638 0.9805
-4.1057 1.8393 -1.9607 0.9806
-1.4895 0.3673 -0.6686 0.9933
-1.4577 0.0910 -0.6365 0.9936
-1.4404 -0.0394 -0.6280 0.9937
-1.4777 -0.3100 -0.6580 0.9934
-1.4940 -0.4564 -0.6808 0.9932
-4.1663 -1.6940 -1.9601 0.9806
-3.8027 -2.4139 -1.9630 0.9805
-3.5745 -2.7474 -1.9648 0.9805
-3.0335 -3.3486 -1.9692 0.9805
-2.0422 -4.0509 -1.9771 0.9804
-1.6736 -4.2238 -1.9801 0.9804
-1.2905 -4.3635 -1.9831 0.9803
-0.8958 -4.4687 -1.9863 0.9803
-0.4926 -4.5384 -1.9895 0.9803
0.3262 -4.5685 -1.9961 0.9802
1.1400 -4.4515 -2.0027 0.9801
1.5366 -4.3384 -2.0058 0.9801
1.9221 -4.1898 -2.0090 0.9801
2.2931 -4.0067 -2.0119 0.9801
2.9795 -3.5428 -2.0175 0.9800
3.8271 -2.6320 -2.0243 0.9799
4.0512 -2.2806 -2.0261 0.9799
4.5202 -1.1235 -2.0299 0.9799
4.6506 -0.2990 -2.0310 0.9799
4.6588 0.1189 -2.0311 0.9799
4.5611 0.9480 -2.0303 0.9799
4.3146 1.7450 -2.0283 0.9799
4.1380 2.1231 -2.0269 0.9799
3.9279 2.4832 -2.0253 0.9799
3.4148 3.1379 -2.0211 0.9800
3.1163 3.4272 -2.0188 0.9800
2.0843 4.1154 -2.0105 0.9801
1.3124 4.4077 -2.0043 0.9801
0.9108 4.5003 -2.0011 0.9802
0.0927 4.5755 -1.9945 0.9802
-0.3170 4.5579 -1.9912 0.9803
-1.8854 4.1299 -1.9786 0.9804
-2.2445 3.9386 -1.9757 0.9804
-3.1985 3.1877 -1.9680 0.9805
-3.7082 2.5603 -1.9639 0.9805
-3.9193 2.2159 -1.9622 0.9805
-1.4903 0.3733 -0.6696 0.9933
-1.4382 -0.0340 -0.6270 0.9937
-1.4717 -0.1675 -0.6455 0.9936
-1.4760 -0.3039 -0.6568 0.9934
-4.1724 -1.6785 -1.9600 0.9806
-4.0079 -2.0470 -1.9614 0.9806
-3.5845 -2.7341 -1.9647 0.9805
-3.0457 -3.3371 -1.9691 0.9805
-2.7380 -3.6011 -1.9715 0.9805
-2.4076 -3.8370 -1.9742 0.9804
-2.0571 -4.0430 -1.9770 0.9804
2.5036 -3.5576 -2.0136 0.9810
2.8157 -3.3231 -2.0162 0.9810
3.9971 -1.7818 -2.0257 0.9809
4.1431 -1.4173 -2.0269 0.9809
4.3328 -0.6557 -2.0284 0.9809
4.2864 0.9075 -2.0281 0.9809
3.8847 2.0113 -2.0249 0.9809
3.4576 2.6677 -2.0215 0.9809
3.2014 2.9638 -2.0194 0.9810
2.9198 3.2350 -2.0172 0.9810
2.2899 3.6949 -2.0121 0.9810
1.9470 3.8799 -2.0094 0.9810
1.5893 4.0329 -2.0065 0.9811
1.2198 4.1529 -2.0035 0.9811
0.4577 4.2908 -1.9974 0.9812
-0.3143 4.2902 -1.9912 0.9812
-0.6964 4.2383 -1.9881 0.9812
-1.4372 4.0339 -1.9822 0.9813
-1.7902 3.8833 -1.9793 0.9813
-2.1280 3.7022 -1.9766 0.9814
-3.0247 2.9922 -1.9694 0.9814
-3.2772 2.7064 -1.9674 0.9814
-3.5032 2.3997 -1.9655 0.9815
-3.7011 2.0745 -1.9639 0.9815
-1.2643 -0.0346 -0.5854 0.9944
-1.2674 -0.2659 -0.5994 0.9943
-1.2695 -0.3878 -0.6144 0.9942
-3.3683 -2.5889 -1.9665 0.9814
-2.5671 -3.4024 -1.9729 0.9814
-1.9237 -3.8158 -1.9781 0.9813
-0.8436 -4.2083 -1.9867 0.9813
-0.4639 -4.2735 -1.9898 0.9812
-0.0793 -4.3046 -1.9929 0.9812
0.3071 -4.3011 -1.9960 0.9812
0.6923 -4.2629 -1.9991 0.9811
1.4463 -4.0832 -2.0051 0.9811
2.1579 -3.7703 -2.0109 0.9810
2.4903 -3.5666 -2.0135 0.9810
3.3606 -2.7858 -2.0205 0.9809
4.1377 -1.4326 -2.0268 0.9809
4.2513 -1.0567 -2.0278 0.9809
4.3738 -0.2812 -2.0288 0.9809
4.3816 0.1118 -2.0288 0.9809
4.3535 0.5038 -2.0286 0.9809
2.9319 3.2244 -2.0173 0.9810
2.6281 3.4699 -2.0148 0.9810
2.3037 3.6866 -2.0122 0.9810
1.2353 4.1486 -2.0037 0.9811
0.8573 4.2362 -2.0006 0.9811
-0.2985 4.2917 -1.9913 0.9812
-0.6807 4.2411 -1.9883 0.9812
-1.0563 4.1567 -1.9852 0.9813
-1.7759 3.8901 -1.9795 0.9813
-2.7356 3.2651 -1.9717 0.9814
-3.0137 3.0035 -1.9695 0.9814
-3.2673 2.7186 -1.9674 0.9814
-3.4944 2.4127 -1.9656 0.9815
-3.6935 2.0883 -1.9640 0.9815
-1.2566 0.5685 -0.6384 0.9939
-1.2707 0.0841 -0.5895 0.9944
-1.2750 -0.1451 -0.5940 0.9944
-1.2681 -0.2611 -0.5993 0.9943
-1.2698 -0.3827 -0.6139 0.9942
-1.2527 -0.5039 -0.6250 0.9941
-3.7772 -1.9291 -1.9632 0.9815
-3.5918 -2.2614 -1.9647 0.9815
-3.1364 -2.8714 -1.9683 0.9814
-2.8697 -3.1443 -1.9705 0.9814
-2.5795 -3.3927 -1.9728 0.9814
-2.2681 -3.6147 -1.9753 0.9814
-1.9377 -3.8085 -1.9779 0.9813
2.6554 -3.1339 -2.0149 0.9819
2.9287 -2.8865 -2.0171 0.9818
3.7684 -1.6798 -2.0239 0.9818
3.9059 -1.3362 -2.0250 0.9818
4.0116 -0.9814 -2.0258 0.9818
4.0846 -0.6182 -2.0264 0.9818
4.1302 0.1207 -2.0268 0.9818
4.1023 0.4901 -2.0266 0.9818
3.9466 1.2136 -2.0254 0.9818
3.6626 1.8963 -2.0231 0.9818
3.2602 2.5154 -2.0199 0.9818
2.4663 3.2814 -2.0135 0.9819
1.8365 3.6596 -2.0085 0.9819
1.4992 3.8043 -2.0058 0.9819
1.1508 3.9178 -2.0030 0.9820
0.4319 4.0486 -1.9972 0.9820
0.0674 4.0651 -1.9943 0.9820
-0.6572 4.0001 -1.9885 0.9821
-1.3566 3.8078 -1.9828 0.9822
-1.6900 3.6660 -1.9801 0.9822
-2.0091 3.4953 -1.9776 0.9822
-2.3113 3.2972 -1.9751 0.9822
-2.8562 2.8255 -1.9707 0.9823
-3.0948 2.5558 -1.9688 0.9823
-1.0998 0.4927 -0.5911 0.9946
-1.1329 0.2794 -0.5724 0.9948
-1.1426 0.0713 -0.5616 0.9949
-1.1385 -0.0312 -0.5587 0.9949
-1.1443 -0.1346 -0.5652 0.9949
-1.1118 -0.4521 -0.5887 0.9947
-1.0921 -0.5628 -0.6026 0.9945
-3.3844 -2.1484 -1.9664 0.9823
-2.4239 -3.2126 -1.9741 0.9822
-2.1289 -3.4209 -1.9764 0.9822
-1.4881 -3.7556 -1.9816 0.9822
-1.1472 -3.8792 -1.9843 0.9821
-0.0748 -4.0621 -1.9929 0.9821
1.0123 -3.9531 -2.0016 0.9820
1.3643 -3.8519 -2.0045 0.9820
2.0353 -3.5562 -2.0099 0.9819
2.3486 -3.3638 -2.0124 0.9819
2.6436 -3.1435 -2.0148 0.9819
2.9178 -2.8972 -2.0170 0.9818
3.3945 -2.3345 -2.0208 0.9818
3.5928 -2.0226 -2.0224 0.9818
4.0823 -0.6333 -2.0264 0.9818
4.1306 0.1054 -2.0268 0.9818
4.0441 0.8405 -2.0261 0.9818
3.9511 1.1990 -2.0254 0.9818
3.6697 1.8828 -2.0232 0.9818
3.2696 2.5035 -2.0200 0.9818
3.0293 2.7837 -2.0180 0.9818
2.4785 3.2724 -2.0136 0.9819
1.8501 3.6530 -2.0086 0.9819
1.1653 3.9138 -2.0031 0.9820
0.8089 3.9967 -2.0002 0.9820
0.0824 4.0650 -1.9944 0.9820
-1.3426 3.8130 -1.9829 0.9822
-1.6765 3.6724 -1.9803 0.9822
-1.9962 3.5029 -1.9777 0.9822
-2.8458 2.8362 -1.9708 0.9823
-3.0855 2.5673 -1.9689 0.9823
-3.4883 1.9722 -1.9656 0.9823
-1.0983 0.4969 -0.5913 0.9946
-1.1246 0.3917 -0.5841 0.9947
-1.1330 0.2838 -0.5729 0.9948
-1.1308 -0.3408 -0.5793 0.9948
-3.3922 -2.1357 -1.9663 0.9823
-2.1414 -3.4128 -1.9763 0.9822
-1.8293 -3.5955 -1.9788 0.9822
3.5603 -1.5870 -2.0222 0.9826
3.8961 -0.2360 -2.0249 0.9826
3.8754 0.4630 -2.0248 0.9826
3.8175 0.8082 -2.0243 0.9826
3.7284 1.1465 -2.0236 0.9826
3.2836 2.0929 -2.0201 0.9826
2.8525 2.6408 -2.0166 0.9826
2.6019 2.8828 -2.0146 0.9827
2.0411 3.2935 -2.0101 0.9827
0.4083 3.8277 -1.9970 0.9828
0.0637 3.8436 -1.9942 0.9828
-0.2805 3.8285 -1.9915 0.9829
-0.9566 3.7069 -1.9860 0.9829
-1.5986 3.4676 -1.9809 0.9829
-2.1865 3.1192 -1.9761 0.9830
-2.4544 2.9076 -1.9740 0.9830
-2.7023 2.6733 -1.9720 0.9830
-2.9282 2.4182 -1.9702 0.9830
-3.1305 2.1444 -1.9685 0.9830
-1.0114 0.3481 -0.5549 0.9952
-1.0207 0.2517 -0.5454 0.9953
-1.0350 0.1586 -0.5432 0.9953
-1.0278 -0.2156 -0.5448 0.9953
-0.9984 -0.4059 -0.5591 0.9952
-0.9645 -0.4971 -0.5629 0.9951
-3.0098 -2.3134 -1.9694 0.9830
-2.2931 -3.0392 -1.9751 0.9830
-2.0138 -3.2361 -1.9773 0.9830
-1.7179 -3.4076 -1.9797 0.9830
-1.0850 -3.6688 -1.9848 0.9829
-0.7530 -3.7563 -1.9875 0.9829
-0.4140 -3.8139 -1.9902 0.9829
-0.0708 -3.8409 -1.9929 0.9828
0.2740 -3.8372 -1.9957 0.9828
0.6175 -3.8025 -1.9985 0.9828
0.9570 -3.7369 -2.0012 0.9828
2.2196 -3.1789 -2.0114 0.9827
2.4982 -2.9706 -2.0136 0.9827
2.7572 -2.7377 -2.0157 0.9826
2.9942 -2.4820 -2.0176 0.9826
3.5543 -1.6002 -2.0221 0.9826
3.6853 -1.2760 -2.0232 0.9826
3.9021 0.0996 -2.0250 0.9826
3.8205 0.7941 -2.0243 0.9826
3.2914 2.0808 -2.0201 0.9826
3.0893 2.3654 -2.0185 0.9826
2.8624 2.6303 -2.0167 0.9826
2.6127 2.8733 -2.0147 0.9827
2.3422 3.0925 -2.0125 0.9827
1.4305 3.5908 -2.0052 0.9827
0.7647 3.7784 -1.9999 0.9828
0.4225 3.8264 -1.9971 0.9828
0.0779 3.8435 -1.9944 0.9828
-0.2664 3.8297 -1.9916 0.9828
-1.2699 3.6064 -1.9835 0.9829
-1.5858 3.4737 -1.9810 0.9829
-1.8883 3.3136 -1.9785 0.9830
-2.1750 3.1274 -1.9762 0.9830
-2.6925 2.6834 -1.9721 0.9830
-2.9194 2.4291 -1.9702 0.9830
-3.1226 2.1560 -1.9686 0.9830
-0.9504 0.5373 -0.5664 0.9951
-0.9856 0.4459 -0.5612 0.9951
-1.0107 0.3520 -0.5552 0.9952
-1.0329 -0.0244 -0.5360 0.9954
-1.0284 -0.2117 -0.5447 0.9953
-0.9709 -0.6113 -0.5952 0.9948
-2.8023 -2.5655 -1.9710 0.9830
-2.5637 -2.8090 -1.9729 0.9830
-2.0257 -3.2284 -1.9773 0.9830
-1.7304 -3.4010 -1.9796 0.9830
2.1126 -3.0020 -2.0105 0.9834
2.8430 -2.3390 -2.0164 0.9833
3.2196 -1.7969 -2.0194 0.9833
3.3697 -1.5021 -2.0207 0.9833
1.8810 -0.6435 -1.0888 0.9910
1.8861 -0.4614 -1.0635 0.9912
1.8879 -0.2857 -1.0458 0.9913
1.8857 -0.1142 -1.0347 0.9914
1.8890 0.2257 -1.0420 0.9914
1.8861 0.3993 -1.0559 0.9912
3.2752 1.6957 -2.0200 0.9833
3.1080 1.9810 -2.0187 0.9833
2.9158 2.2498 -2.0171 0.9833
2.7002 2.4998 -2.0154 0.9834
1.9325 3.1182 -2.0092 0.9834
1.3418 3.4050 -2.0045 0.9834
1.0301 3.5071 -2.0020 0.9835
-0.5888 3.5835 -1.9890 0.9836
-1.8008 3.1330 -1.9792 0.9837
-2.0720 2.9559 -1.9771 0.9837
-2.7753 2.2920 -1.9714 0.9837
-0.8995 0.4030 -0.5398 0.9955
-0.9165 0.3154 -0.5309 0.9956
-0.9299 0.2293 -0.5245 0.9956
-0.9467 0.0591 -0.5195 0.9957
-0.9067 -0.3687 -0.5361 0.9955
-0.8854 -0.4563 -0.5455 0.9955
-0.8666 -0.5501 -0.5622 0.9953
-2.6470 -2.4414 -1.9723 0.9837
-2.4199 -2.6712 -1.9741 0.9837
-1.9083 -3.0665 -1.9782 0.9837
-1.6278 -3.2288 -1.9805 0.9836
-1.3336 -3.3657 -1.9828 0.9836
-1.0280 -3.4759 -1.9853 0.9836
-0.7133 -3.5585 -1.9878 0.9836
0.2595 -3.6343 -1.9956 0.9835
1.2212 -3.4478 -2.0033 0.9835
1.5270 -3.3286 -2.0058 0.9834
2.1014 -3.0096 -2.0104 0.9834
2.8342 -2.3495 -2.0163 0.9834
1.8972 -0.6569 -1.0997 0.9909
1.8876 -0.2928 -1.0462 0.9913
1.8787 0.5701 -1.0753 0.9911
2.9242 2.2390 -2.0172 0.9833
2.2174 2.9277 -2.0115 0.9834
1.9441 3.1112 -2.0093 0.9834
1.6557 3.2691 -2.0070 0.9834
1.0431 3.5035 -2.0021 0.9835
0.7242 3.5782 -1.9995 0.9835
0.4002 3.6240 -1.9969 0.9835
0.0738 3.6405 -1.9943 0.9835
-0.2523 3.6277 -1.9917 0.9836
-0.8933 3.5153 -1.9865 0.9836
-1.2031 3.4168 -1.9840 0.9836
-1.5026 3.2913 -1.9816 0.9836
-1.7893 3.1398 -1.9793 0.9837
-2.0611 2.9636 -1.9771 0.9837
-2.3159 2.7642 -1.9751 0.9837
-2.7669 2.3023 -1.9715 0.9837
-0.8771 0.6056 -0.5838 0.9952
-0.8733 0.4937 -0.5494 0.9954
-0.8987 0.4066 -0.5402 0.9955
-0.9158 0.3190 -0.5312 0.9956
-0.9290 0.2327 -0.5245 0.9956
-0.9442 0.1483 -0.5235 0.9957
-0.9437 -0.0223 -0.5170 0.9957
-0.9074 -0.3650 -0.5357 0.9955
-0.8655 -0.5449 -0.5602 0.9953
-2.8607 -2.1820 -1.9706 0.9837
-2.4297 -2.6621 -1.9740 0.9837
-2.1836 -2.8719 -1.9760 0.9837
-1.9196 -3.0593 -1.9781 0.9837
-1.6396 -3.2226 -1.9804 0.9836
2.0032 -2.8466 -2.0096 0.9841
2.2524 -2.6583 -2.0116 0.9840
2.6954 -2.2176 -2.0152 0.9840
1.7318 -0.4236 -1.0293 0.9918
1.7406 -0.2634 -1.0164 0.9919
1.7376 -0.1053 -1.0050 0.9920
1.7328 0.3668 -1.0226 0.9919
1.7211 0.5293 -1.0396 0.9917
2.9465 1.8781 -2.0174 0.9840
2.7644 2.1329 -2.0159 0.9840
2.5602 2.3701 -2.0143 0.9840
2.0922 2.7837 -2.0105 0.9840
1.8325 2.9569 -2.0084 0.9841
1.2726 3.2292 -2.0039 0.9841
0.0572 3.4535 -1.9942 0.9842
-0.2521 3.4405 -1.9917 0.9842
-0.5586 3.3999 -1.9892 0.9842
-0.8599 3.3321 -1.9868 0.9842
-1.1536 3.2378 -1.9844 0.9842
-1.4373 3.1178 -1.9822 0.9843
-1.9664 2.8053 -1.9779 0.9843
-2.2076 2.6152 -1.9760 0.9843
-2.4308 2.4048 -1.9742 0.9843
-2.6343 2.1755 -1.9725 0.9843
-0.7977 0.5464 -0.5582 0.9955
-0.8455 0.3787 -0.5349 0.9957
-0.8807 0.1350 -0.5144 0.9959
-0.8817 0.0550 -0.5100 0.9959
-0.8800 -0.0241 -0.5083 0.9959
-0.8820 -0.1037 -0.5127 0.9959
-0.8762 -0.1838 -0.5169 0.9959
-0.8526 -0.3467 -0.5314 0.9958
-0.8316 -0.4286 -0.5402 0.9957
-2.2968 -2.5353 -1.9751 0.9843
-2.0624 -2.7335 -1.9770 0.9843
-1.8110 -2.9102 -1.9790 0.9843
-1.5447 -3.0640 -1.9811 0.9843
-1.2654 -3.1937 -1.9834 0.9843
-0.9754 -3.2981 -1.9857 0.9842
0.2462 -3.4475 -1.9955 0.9842
0.5547 -3.4159 -1.9980 0.9841
1.7271 -3.0177 -2.0074 0.9841
2.2425 -2.6665 -2.0116 0.9840
2.4747 -2.4572 -2.0134 0.9840
2.6871 -2.2275 -2.0152 0.9840
3.0459 -1.7147 -2.0180 0.9840
1.7096 -0.5919 -1.0445 0.9917
1.7315 -0.4304 -1.0301 0.9918
1.7403 -0.2700 -1.0168 0.9919
1.7327 0.3601 -1.0217 0.9919
1.7222 0.5226 -1.0391 0.9917
3.1109 1.5961 -2.0187 0.9840
2.9535 1.8672 -2.0174 0.9840
2.1026 2.7761 -2.0106 0.9840
1.5701 3.1001 -2.0063 0.9841
0.9894 3.3228 -2.0017 0.9841
0.6869 3.3940 -1.9992 0.9841
0.0700 3.4535 -1.9943 0.9842
-0.2394 3.4416 -1.9918 0.9842
-0.5460 3.4021 -1.9893 0.9842
-0.8476 3.3354 -1.9869 0.9842
-1.1416 3.2422 -1.9845 0.9842
-1.4258 3.1233 -1.9823 0.9843
-1.6980 2.9797 -1.9801 0.9843
-2.6263 2.1853 -1.9726 0.9843
-0.7983 0.5512 -0.5601 0.9955
-0.8199 0.4636 -0.5438 0.9957
-0.8446 0.3821 -0.5352 0.9957
-0.8712 0.2183 -0.5185 0.9959
-0.8805 0.1383 -0.5146 0.9959
-0.8818 0.0583 -0.5102 0.9959
-0.8798 -0.0208 -0.5081 0.9959
-0.8821 -0.1004 -0.5126 0.9959
-0.8052 -0.6142 -0.5847 0.9953
-2.5209 -2.3079 -1.9733 0.9843
-2.3061 -2.5267 -1.9750 0.9843
-2.0724 -2.7257 -1.9769 0.9843
-1.8217 -2.9034 -1.9789 0.9843
-1.5560 -3.0582 -1.9810 0.9843
