ply
format ascii 1.0
element vertex 1465
property float32 x
property float32 y
property float32 z
property float32 I
end_header
-12.0128 8.5023 2.5950 0.9420
-7.1288 -13.2433 2.6520 0.9407
9.9397 9.9637 2.4816 0.9444
-14.6432 9.4475 3.0727 0.9317
-6.5954 -13.6233 2.6689 0.9404
-12.0130 8.5024 2.2546 0.9422
-6.5865 -13.6048 2.3156 0.9407
17.1435 6.9278 2.8326 0.9279
-7.1381 -13.2606 1.9611 0.9411
9.9158 9.9398 1.8283 0.9449
-0.3097 17.4849 2.2773 0.9319
-6.5777 -13.5865 1.9657 0.9409
-7.1427 -13.2693 1.6182 0.9412
9.9040 9.9279 1.5058 0.9451
-14.8693 9.5934 1.9002 0.9313
-6.5689 -13.5684 1.6188 0.9412
9.8923 9.9162 1.1857 0.9453
-14.9486 9.6445 1.5060 0.9311
-6.5602 -13.5504 1.2744 0.9414
17.1051 8.7565 1.6267 0.9258
-12.0092 8.4997 0.9123 0.9427
-7.1519 -13.2864 0.9357 0.9413
-7.1565 -13.2949 0.5954 0.9413
9.8690 9.8929 0.5510 0.9456
-7.1611 -13.3034 0.2552 0.9413
-6.5343 -13.4971 0.2533 0.9418
9.8459 9.8698 -0.0785 0.9458
17.0903 8.7489 -0.1081 0.9261
-17.7007 6.4335 -0.5303 0.9274
11.0353 3.9173 -0.3297 0.9542
-12.7884 8.2508 -0.4285 0.9409
-18.8006 5.9329 -0.5551 0.9241
-6.5173 -13.4619 -0.4212 0.9419
-12.0024 8.4949 -0.7457 0.9428
-7.1749 -13.3291 -0.7677 0.9412
10.9626 2.8226 -0.5741 0.9557
10.5403 3.7416 -0.5672 0.9562
-12.7892 8.2514 -0.7719 0.9409
-18.0955 5.7104 -0.9623 0.9268
-6.5088 -13.4443 -0.7575 0.9419
13.4812 2.8148 -0.6984 0.9463
10.9092 3.3143 -0.5782 0.9554
-11.9933 8.4884 -1.0773 0.9428
-15.9025 5.7800 -1.2406 0.9344
-7.1796 -13.3377 -1.1106 0.9411
10.8415 2.7914 -0.8209 0.9561
10.5156 3.7328 -0.8182 0.9562
9.8115 9.8352 -1.0186 0.9458
9.2731 13.3817 -1.1937 0.9368
-10.0372 13.4413 -1.2300 0.9349
-13.5677 10.5753 -1.2613 0.9333
10.8093 3.2839 -0.8283 0.9557
16.9733 8.6891 -1.3981 0.9264
2.1894 19.0670 -1.8426 0.9258
0.4823 19.1150 -1.8357 0.9260
-2.8905 18.7474 -1.8211 0.9266
-3.8913 8.7073 -0.9156 0.9624
-9.0930 16.2799 -1.7902 0.9278
-9.4458 13.8522 -1.6096 0.9348
-11.7337 14.2873 -1.7749 0.9284
-12.9225 13.1499 -1.7700 0.9286
-16.0833 7.5269 -1.7048 0.9311
-15.8524 5.7618 -1.6193 0.9345
-19.2114 5.1007 -1.9083 0.9232
-19.5989 3.3727 -1.9092 0.9232
-14.1095 -12.3896 -1.8027 0.9273
-6.7449 -12.5304 -1.3662 0.9444
-5.7213 -13.3564 -1.3950 0.9433
-5.9641 -18.2654 -1.8447 0.9257
-2.6532 -19.1872 -1.8596 0.9251
0.7961 -19.5055 -1.8742 0.9246
2.5381 -19.4298 -1.8812 0.9243
4.2722 -19.1956 -1.8880 0.9240
5.9836 -18.8031 -1.8944 0.9238
7.6574 -18.2542 -1.9004 0.9235
10.4909 3.7240 -1.0687 0.9563
18.0241 8.2707 -1.9039 0.9234
16.1702 11.2633 -1.8919 0.9239
10.7035 8.9699 -1.3407 0.9454
8.9466 10.7282 -1.3411 0.9454
9.6149 16.9146 -1.8679 0.9248
8.0515 17.6587 -1.8632 0.9250
3.4771 13.6406 -1.3514 0.9450
-0.3087 17.4274 -1.6734 0.9324
-2.0266 18.9009 -1.8250 0.9265
-5.3004 18.0907 -1.8098 0.9270
-6.8595 17.4720 -1.8020 0.9273
-5.1670 8.3839 -0.9455 0.9612
-12.3132 13.7447 -1.7716 0.9285
-13.4646 12.5733 -1.7686 0.9286
-12.7908 8.2524 -1.4614 0.9407
-16.2566 8.5437 -1.7631 0.9289
-19.7327 2.5292 -1.9099 0.9232
-14.6403 -11.7046 -1.7995 0.9274
-13.5875 -13.0057 -1.8057 0.9272
-12.4213 -14.2146 -1.8123 0.9270
-11.1490 -15.3210 -1.8191 0.9267
-7.5397 -12.5790 -1.4080 0.9428
-5.1846 -18.5407 -1.8483 0.9256
-1.8306 -19.3203 -1.8632 0.9250
-0.1046 -19.4827 -1.8705 0.9247
1.6356 -19.4888 -1.8776 0.9244
3.3757 -19.3367 -1.8845 0.9242
5.1007 -19.0261 -1.8911 0.9239
6.7959 -18.5579 -1.8974 0.9237
10.7143 4.3297 -1.1094 0.9546
0.3879 15.3739 -1.8268 0.9399
-2.3284 15.1019 -1.8151 0.9403
-2.8908 8.4073 -1.0561 0.9648
-3.8423 8.5976 -1.1186 0.9628
-5.6956 8.3526 -1.2009 0.9601
-9.5430 11.6198 -1.7861 0.9412
-11.8832 8.4105 -1.7293 0.9430
-13.1541 7.6511 -1.8076 0.9405
-14.6723 6.8666 -1.9243 0.9368
-15.6567 4.1569 -1.9242 0.9368
-15.9710 2.7484 -1.9250 0.9368
-16.2319 -0.1263 -1.9282 0.9367
-16.1760 -1.5721 -1.9305 0.9366
-12.3899 -10.8796 -1.9586 0.9357
-10.7405 -11.2753 -1.8498 0.9392
-9.5429 -11.9957 -1.8208 0.9401
-8.2430 -12.5020 -1.7788 0.9415
-5.6360 -13.1572 -1.7002 0.9440
-4.8191 -14.7587 -1.8442 0.9394
-2.1405 -15.4795 -1.8562 0.9390
2.0430 -15.6401 -1.8736 0.9384
4.8100 -15.1150 -1.8842 0.9381
9.4109 -14.5095 -2.0543 0.9327
10.6851 -13.6406 -2.0583 0.9326
11.8763 -12.6568 -2.0617 0.9325
13.9669 -10.3773 -2.0669 0.9323
16.2382 -6.3300 -2.0702 0.9322
16.7360 -4.8596 -2.0701 0.9322
17.0959 -3.3500 -2.0694 0.9322
17.3148 -1.8142 -2.0680 0.9323
17.3910 -0.2661 -2.0660 0.9323
17.1158 2.8131 -2.0604 0.9325
10.6428 2.7403 -1.3054 0.9567
9.0419 9.0637 -1.5208 0.9497
5.1593 14.6462 -1.8446 0.9394
2.4685 15.2492 -1.8350 0.9397
1.0986 15.3637 -1.8297 0.9398
-2.9697 14.9639 -1.8122 0.9404
-4.2749 14.5905 -1.8060 0.9406
-5.1461 8.3501 -1.1651 0.9613
-9.0045 12.0583 -1.7877 0.9412
-10.9663 10.2404 -1.7823 0.9414
-11.8209 9.2137 -1.7803 0.9414
-12.5831 8.1184 -1.7788 0.9415
-14.9519 6.2298 -1.9241 0.9368
-15.8233 3.4816 -1.9245 0.9368
-16.0790 2.0609 -1.9256 0.9368
-16.2118 0.6225 -1.9272 0.9367
-15.0162 -6.4752 -1.9425 0.9363
-12.8674 -10.2872 -1.9569 0.9358
-10.0705 -11.5244 -1.8180 0.9402
-9.0326 -12.4126 -1.8235 0.9400
-7.4661 -12.4562 -1.7251 0.9432
-6.0470 -12.4904 -1.6484 0.9456
-5.4857 -14.4961 -1.8411 0.9395
-0.0843 -15.7002 -1.8650 0.9387
2.7163 -15.5599 -1.8762 0.9384
4.1016 -15.2994 -1.8815 0.9382
5.0578 -13.8116 -1.7472 0.9425
7.3163 -15.5354 -2.0398 0.9332
10.0346 -14.1056 -2.0563 0.9326
11.2702 -13.1804 -2.0600 0.9325
13.4658 -11.0048 -2.0658 0.9323
14.4058 -9.7725 -2.0678 0.9323
15.2288 -8.4577 -2.0692 0.9322
15.9274 -7.0719 -2.0701 0.9322
16.4951 -5.6272 -2.0703 0.9322
16.9269 -4.1362 -2.0698 0.9322
10.5895 4.2793 -1.3567 0.9550
15.2412 7.8023 -2.0339 0.9334
2.6154 12.6791 -1.8343 0.9490
0.3248 12.8737 -1.8247 0.9493
-1.9526 12.6645 -1.8156 0.9495
-2.8910 8.4079 -1.2598 0.9647
-3.8432 8.5996 -1.3346 0.9627
-5.6959 8.3529 -1.4325 0.9600
-8.0400 9.7898 -1.7949 0.9501
-9.6258 8.1906 -1.7908 0.9502
-10.8146 7.6542 -1.8773 0.9479
-12.3710 5.7895 -1.9353 0.9463
-13.6258 1.1105 -1.9370 0.9463
-13.6816 -0.1065 -1.9386 0.9462
-13.6318 -1.3249 -1.9406 0.9462
-13.4766 -2.5357 -1.9430 0.9461
-12.8535 -4.8996 -1.9490 0.9459
-11.8266 -7.1276 -1.9565 0.9457
-11.1695 -8.1693 -1.9607 0.9456
-7.4154 -11.2468 -1.9087 0.9470
-6.1348 -11.3968 -1.8339 0.9491
-2.9306 -12.7159 -1.8489 0.9486
-1.7923 -12.9614 -1.8540 0.9485
-0.6335 -13.1044 -1.8589 0.9484
7.8516 -12.1053 -2.0444 0.9434
8.9118 -11.3769 -2.0477 0.9433
9.9026 -10.5534 -2.0505 0.9432
10.8150 -9.6416 -2.0529 0.9431
13.0046 -6.4561 -2.0572 0.9430
14.2459 -2.7915 -2.0569 0.9430
14.4299 -1.5120 -2.0558 0.9431
14.4431 1.0679 -2.0520 0.9432
10.1221 8.4826 -1.8712 0.9480
7.4649 10.7723 -1.8570 0.9484
6.4593 11.3632 -1.8520 0.9486
0.9198 12.8623 -1.8271 0.9492
-2.4916 12.5549 -1.8136 0.9496
-3.5909 12.2559 -1.8095 0.9497
-4.6574 11.8628 -1.8057 0.9498
-9.2423 8.6305 -1.7917 0.9502
-9.9642 7.7666 -1.7900 0.9502
-11.4645 7.3967 -1.9331 0.9464
-13.0241 4.1100 -1.9351 0.9463
-13.6708 -0.6940 -1.9395 0.9462
-13.5702 -1.9099 -1.9417 0.9461
-13.3643 -3.1140 -1.9443 0.9461
-12.6422 -5.4515 -1.9507 0.9459
-12.1301 -6.5674 -1.9544 0.9458
-9.1597 -10.4821 -1.9724 0.9453
-8.1789 -11.2394 -1.9695 0.9454
-6.7447 -11.2525 -1.8588 0.9484
-5.6472 -11.6648 -1.8363 0.9490
-3.5093 -12.5494 -1.8463 0.9487
-0.0705 -13.1361 -1.8613 0.9483
1.1014 -13.1239 -1.8661 0.9482
2.2705 -13.0059 -1.8707 0.9481
9.3985 -10.9915 -2.0491 0.9432
12.6903 -7.0479 -2.0568 0.9430
13.2715 -5.8927 -2.0575 0.9430
13.7443 -4.6887 -2.0576 0.9430
14.3493 -2.1769 -2.0564 0.9431
14.4851 0.4005 -2.0532 0.9431
14.3756 1.6859 -2.0508 0.9432
13.8085 4.1951 -2.0448 0.9434
13.3568 5.3976 -2.0412 0.9435
12.7985 6.5519 -2.0372 0.9436
2.2509 10.9116 -1.8354 0.9558
1.2681 11.0432 -1.8312 0.9559
0.2797 11.0873 -1.8271 0.9560
-1.6828 10.9146 -1.8193 0.9562
-2.8911 8.4084 -1.4648 0.9646
-3.8441 8.6016 -1.5521 0.9625
-5.3466 9.5725 -1.8063 0.9565
-5.6961 8.3532 -1.6656 0.9598
-6.9400 8.4504 -1.8014 0.9566
-7.6561 7.7908 -1.7994 0.9567
-10.2003 5.9330 -1.9440 0.9533
-11.0857 4.0292 -1.9431 0.9533
-11.4013 3.0271 -1.9433 0.9533
-11.7690 -1.1438 -1.9479 0.9532
-11.6330 -2.1889 -1.9500 0.9531
-11.4063 -3.2193 -1.9525 0.9531
-11.0904 -4.2275 -1.9553 0.9530
-10.6871 -5.2058 -1.9583 0.9530
-10.1990 -6.1467 -1.9617 0.9529
-8.9824 -7.8875 -1.9693 0.9527
-8.2621 -8.6735 -1.9734 0.9526
-5.7160 -10.6187 -1.9867 0.9523
-4.7469 -11.0816 -1.9860 0.9523
-3.6637 -11.2203 -1.9445 0.9533
-1.5520 -11.2237 -1.8666 0.9551
0.4606 -11.2856 -1.8607 0.9552
1.4827 -11.3509 -1.8858 0.9547
2.5847 -11.6134 -1.9600 0.9529
3.7272 -11.7123 -2.0248 0.9514
4.7683 -11.3670 -2.0307 0.9513
5.7706 -10.9161 -2.0341 0.9512
6.7295 -10.3753 -2.0373 0.9511
7.6364 -9.7486 -2.0400 0.9510
9.2638 -8.2587 -2.0445 0.9509
11.1360 -5.5284 -2.0482 0.9508
12.3577 -1.2948 -2.0470 0.9509
12.2286 2.0099 -2.0416 0.9510
11.9861 3.0862 -2.0390 0.9511
11.2152 5.1463 -2.0328 0.9512
10.0886 7.0272 -2.0254 0.9514
9.2710 7.7694 -1.9927 0.9521
7.9876 8.0069 -1.8632 0.9552
6.4132 9.2547 -1.8549 0.9554
5.5514 9.7661 -1.8506 0.9555
2.7553 10.8092 -1.8376 0.9558
1.7784 10.9860 -1.8334 0.9559
-0.1962 11.0773 -1.8252 0.9561
-1.1786 10.9924 -1.8213 0.9562
-3.0961 10.5673 -1.8140 0.9563
-4.1635 8.3361 -1.5350 0.9629
-6.5468 8.7672 -1.8026 0.9566
-7.2924 8.1402 -1.8004 0.9567
-8.2204 7.6763 -1.8529 0.9554
-9.3108 7.2573 -1.9448 0.9533
-10.4437 5.4887 -1.9436 0.9533
-10.8883 4.5367 -1.9432 0.9533
-11.7066 1.5005 -1.9443 0.9533
-11.8007 0.4531 -1.9455 0.9533
-11.8035 -0.5992 -1.9470 0.9532
-11.7148 -1.6487 -1.9489 0.9532
-11.2651 -3.7084 -1.9538 0.9531
-10.9068 -4.7032 -1.9567 0.9530
-9.9345 -6.5847 -1.9635 0.9528
-9.3271 -7.4568 -1.9672 0.9527
-8.6441 -8.2740 -1.9712 0.9526
-7.8903 -9.0295 -1.9754 0.9526
-7.0711 -9.7172 -1.9798 0.9524
-4.2450 -11.2175 -1.9759 0.9525
-3.1381 -11.2222 -1.9196 0.9539
-2.0838 -11.2239 -1.8806 0.9548
-1.0637 -11.2263 -1.8577 0.9553
-0.0606 -11.2818 -1.8586 0.9553
1.9996 -11.4544 -1.9155 0.9540
3.1672 -11.8141 -2.0150 0.9516
4.2348 -11.5642 -2.0288 0.9513
5.2562 -11.1612 -2.0324 0.9512
6.2386 -10.6665 -2.0357 0.9511
7.1735 -10.0837 -2.0386 0.9511
10.8672 -6.0354 -2.0478 0.9509
11.3643 -5.0459 -2.0484 0.9508
11.7690 -4.0149 -2.0485 0.9508
12.3982 -0.7630 -2.0463 0.9509
12.3155 1.4443 -2.0428 0.9510
12.1240 2.5315 -2.0404 0.9510
11.4504 4.6272 -2.0345 0.9512
10.9748 5.6183 -2.0311 0.9512
0.2454 9.7274 -1.8290 0.9612
-0.6199 9.6921 -1.8255 0.9612
-1.4772 9.5809 -1.8221 0.9613
-4.6974 8.4102 -1.8107 0.9616
-7.2740 7.4020 -1.9506 0.9586
-10.0245 2.6615 -1.9495 0.9587
-10.3448 -1.0054 -1.9536 0.9586
-10.0232 -2.8290 -1.9576 0.9585
-9.3877 -4.5729 -1.9627 0.9584
-7.8849 -6.9238 -1.9723 0.9582
-7.2508 -7.6119 -1.9760 0.9581
-6.5572 -8.2425 -1.9797 0.9580
-3.2958 -10.0937 -1.9958 0.9577
-2.3895 -10.3683 -1.9999 0.9576
-1.4604 -10.5613 -2.0040 0.9575
2.3341 -10.4873 -2.0194 0.9572
5.0453 -9.5440 -2.0291 0.9570
5.8825 -9.0694 -2.0319 0.9570
6.6741 -8.5202 -2.0343 0.9569
8.0942 -7.2160 -2.0382 0.9568
9.7279 -4.8294 -2.0414 0.9568
10.1205 -3.9452 -2.0417 0.9568
10.6568 -2.0882 -2.0412 0.9568
10.4764 2.6974 -2.0334 0.9569
10.1820 3.6144 -2.0308 0.9570
9.8063 4.4998 -2.0280 0.9570
8.8252 6.1472 -2.0215 0.9572
7.5516 7.5698 -2.0098 0.9574
5.6161 8.1045 -1.8533 0.9607
4.8628 8.5547 -1.8496 0.9607
4.0740 8.9352 -1.8458 0.9608
1.5596 9.6344 -1.8345 0.9611
0.6948 9.7156 -1.8308 0.9611
-1.8855 9.5006 -1.8206 0.9613
-3.5281 8.9863 -1.8146 0.9615
-4.1637 8.3364 -1.7515 0.9628
-5.7552 7.7070 -1.8079 0.9616
-8.1890 6.3829 -1.9515 0.9586
-8.7197 5.6258 -1.9505 0.9586
-9.1823 4.8258 -1.9498 0.9587
-9.8904 3.1211 -1.9494 0.9587
-10.2923 1.3192 -1.9504 0.9586
-9.8983 -3.2585 -1.9587 0.9585
-9.1894 -4.9752 -1.9641 0.9584
-8.1886 -6.5466 -1.9705 0.9582
-6.2032 -8.5244 -1.9816 0.9580
-5.4309 -9.0606 -1.9855 0.9579
-4.6124 -9.5273 -1.9896 0.9578
-3.7541 -9.9202 -1.9937 0.9577
-1.0067 -10.6246 -2.0059 0.9575
-0.0574 -10.6932 -2.0099 0.9574
0.8960 -10.6765 -2.0138 0.9573
3.7037 -10.1139 -2.0245 0.9571
4.5961 -9.7593 -2.0276 0.9570
5.4540 -9.3249 -2.0305 0.9570
7.0374 -8.2301 -2.0354 0.9569
7.7492 -7.5786 -2.0373 0.9568
8.3995 -6.8644 -2.0389 0.9568
9.9271 -4.4078 -2.0416 0.9568
10.2806 -3.5071 -2.0417 0.9568
10.5505 -2.5781 -2.0414 0.9568
10.8316 -0.6666 -2.0398 0.9568
10.5960 2.2124 -2.0346 0.9569
10.3449 3.1428 -2.0322 0.9569
10.0109 4.0455 -2.0295 0.9570
9.5972 4.9130 -2.0265 0.9571
-0.5518 8.6270 -1.8273 0.9653
-1.3151 8.5298 -1.8243 0.9653
-3.5060 7.8451 -1.8164 0.9655
-5.2103 7.6408 -1.9549 0.9629
-7.5518 5.3449 -1.9557 0.9629
-8.3742 3.9191 -1.9544 0.9629
-8.6890 3.1581 -1.9542 0.9629
-8.9362 2.3726 -1.9544 0.9629
-9.1140 1.5684 -1.9548 0.9629
-8.6809 -3.3091 -1.9638 0.9627
-7.9775 -4.8079 -1.9689 0.9626
-7.5290 -5.5066 -1.9717 0.9626
-5.8355 -7.3353 -1.9813 0.9624
-4.4586 -8.2829 -1.9884 0.9623
-2.1241 -9.2167 -1.9993 0.9621
0.3878 -9.5011 -2.0100 0.9619
4.4777 -8.4703 -2.0252 0.9616
5.2199 -8.0479 -2.0277 0.9615
8.6276 -4.2831 -2.0361 0.9614
9.2511 -2.6863 -2.0363 0.9614
9.6216 -0.1472 -2.0341 0.9614
9.5900 0.7091 -2.0327 0.9614
9.4810 1.5583 -2.0310 0.9615
8.7036 3.9938 -2.0242 0.9616
7.8357 5.4579 -2.0185 0.9617
6.7226 6.7389 -2.0121 0.9618
6.0859 7.2978 -2.0086 0.9619
2.8953 8.2192 -1.8420 0.9650
2.1485 8.4288 -1.8387 0.9651
-2.4212 8.2636 -1.8202 0.9654
-3.1424 8.0040 -1.8176 0.9655
-3.8518 7.7120 -1.8222 0.9654
-4.7390 7.6895 -1.9093 0.9637
-6.1838 6.9028 -1.9590 0.9628
-8.5342 3.5558 -1.9543 0.9629
-9.1762 -1.2915 -1.9588 0.9628
-8.8192 -2.9032 -1.9626 0.9628
-7.7691 -5.1494 -1.9702 0.9626
-7.2910 -5.8290 -1.9732 0.9626
-6.7541 -6.4649 -1.9763 0.9625
-5.5199 -7.5854 -1.9830 0.9624
-4.8316 -8.0608 -1.9865 0.9623
-4.1025 -8.4740 -1.9901 0.9622
-0.8946 -9.4414 -2.0047 0.9620
-0.0510 -9.5003 -2.0082 0.9619
0.7959 -9.4834 -2.0116 0.9618
1.6393 -9.3904 -2.0150 0.9618
4.8400 -8.2752 -2.0264 0.9616
8.4196 -4.6761 -2.0358 0.9614
8.8042 -3.9092 -2.0362 0.9614
9.1177 -3.1104 -2.0364 0.9614
9.3572 -2.2865 -2.0361 0.9614
9.5209 -1.4444 -2.0356 0.9614
9.5471 1.1196 -2.0319 0.9615
9.1795 2.7888 -2.0279 0.9615
8.8845 3.5903 -2.0255 0.9616
8.5187 4.3609 -2.0229 0.9616
0.8904 7.7546 -1.8345 0.9684
-0.4967 7.7655 -1.8288 0.9685
-1.9053 7.7164 -1.8680 0.9679
-3.4075 7.6246 -1.9628 0.9663
-4.0788 7.3027 -1.9659 0.9662
-6.3530 5.4058 -1.9605 0.9663
-6.8054 4.8166 -1.9595 0.9663
-8.2135 1.4134 -1.9587 0.9663
-8.3410 -0.0649 -1.9604 0.9663
-7.5319 -3.6689 -1.9690 0.9662
-7.1843 -4.3298 -1.9714 0.9661
-6.7793 -4.9584 -1.9740 0.9661
-6.3200 -5.5497 -1.9767 0.9660
-5.8097 -6.0989 -1.9796 0.9660
-4.6510 -7.0540 -1.9858 0.9659
-2.6355 -8.0714 -1.9955 0.9657
-1.9100 -8.2875 -1.9988 0.9657
-1.1669 -8.4384 -2.0021 0.9656
0.3485 -8.5386 -2.0084 0.9655
1.1086 -8.4865 -2.0115 0.9654
4.0210 -7.6064 -2.0221 0.9653
5.3164 -6.7869 -2.0262 0.9652
6.4451 -5.7458 -2.0293 0.9651
6.9346 -5.1524 -2.0304 0.9651
7.3687 -4.5168 -2.0313 0.9651
7.7434 -3.8442 -2.0318 0.9651
8.3030 -2.4109 -2.0320 0.9651
8.5115 1.3989 -2.0272 0.9652
8.1135 2.8801 -2.0234 0.9652
7.8163 3.5866 -2.0212 0.9653
7.4570 4.2627 -2.0187 0.9653
7.0389 4.9029 -2.0161 0.9654
6.5655 5.5021 -2.0132 0.9654
6.0410 6.0556 -2.0103 0.9655
5.4698 6.5590 -2.0072 0.9655
2.7254 7.7368 -1.9279 0.9669
1.9732 7.7410 -1.8775 0.9677
0.5563 7.7797 -1.8331 0.9685
-0.1379 7.7862 -1.8302 0.9685
-1.5325 7.7222 -1.8503 0.9682
-2.2590 7.7103 -1.8883 0.9675
-3.0211 7.6950 -1.9429 0.9666
-3.7342 7.4765 -1.9641 0.9662
-7.3767 3.8769 -1.9585 0.9663
-8.2679 1.0597 -1.9590 0.9663
-8.3329 0.3200 -1.9599 0.9663
-8.2679 -1.1636 -1.9623 0.9663
-8.1383 -1.8963 -1.9639 0.9662
-7.9447 -2.6154 -1.9658 0.9662
-6.9961 -4.6370 -1.9726 0.9661
-6.5646 -5.2483 -1.9753 0.9661
-6.0802 -5.8199 -1.9781 0.9660
-4.3472 -7.2528 -1.9873 0.9659
-3.6906 -7.6232 -1.9905 0.9658
-0.8042 -8.4873 -2.0036 0.9656
0.7152 -8.5220 -2.0099 0.9655
2.2209 -8.2842 -2.0157 0.9654
2.9532 -8.0644 -2.0184 0.9653
5.6051 -6.5552 -2.0270 0.9652
6.1709 -6.0350 -2.0286 0.9652
7.1510 -4.8510 -2.0309 0.9651
8.3982 -2.0522 -2.0319 0.9651
8.5705 1.0051 -2.0281 0.9652
1.5494 7.5109 -1.9857 0.9688
0.8729 7.6017 -1.9811 0.9689
-0.4870 7.6132 -1.9752 0.9690
-1.1617 7.5344 -1.9738 0.9690
-1.8272 7.4000 -1.9735 0.9690
-2.4786 7.2087 -1.9737 0.9690
-3.1068 6.9518 -1.9715 0.9690
-3.7093 6.6410 -1.9695 0.9691
-4.2815 6.2788 -1.9677 0.9691
-5.3187 5.4123 -1.9647 0.9691
-6.5503 3.8100 -1.9620 0.9692
-6.8620 3.2114 -1.9616 0.9692
-7.1200 2.5879 -1.9615 0.9692
-7.3225 1.9442 -1.9616 0.9692
-7.4679 1.2851 -1.9620 0.9692
-7.5550 0.6157 -1.9626 0.9692
-7.5832 -0.0590 -1.9635 0.9692
-7.5522 -0.7340 -1.9646 0.9691
-7.4621 -1.4041 -1.9660 0.9691
-7.1072 -2.7092 -1.9693 0.9691
-6.8448 -3.3342 -1.9713 0.9690
-6.5282 -3.9344 -1.9735 0.9690
-4.7698 -5.9958 -1.9837 0.9688
-3.0300 -7.0736 -1.9924 0.9687
-2.3922 -7.3261 -1.9954 0.9687
1.0055 -7.6972 -2.0099 0.9684
3.6453 -6.8956 -2.0195 0.9683
4.2485 -6.5502 -2.0215 0.9683
5.8408 -5.2071 -2.0260 0.9682
6.2842 -4.6691 -2.0270 0.9682
7.0167 -3.4834 -2.0283 0.9681
7.2996 -2.8455 -2.0285 0.9681
7.7882 -0.8160 -2.0275 0.9682
7.8265 -0.1197 -2.0267 0.9682
7.7143 1.2679 -2.0242 0.9682
7.5649 1.9478 -2.0226 0.9682
7.3548 2.6108 -2.0207 0.9683
3.8176 6.7160 -2.0002 0.9686
3.2001 7.0187 -1.9972 0.9686
2.5591 7.2647 -1.9942 0.9687
-1.4838 7.4765 -1.9736 0.9690
-2.1434 7.3156 -1.9738 0.9690
-4.5453 6.0868 -1.9669 0.9691
-5.5444 5.1774 -1.9641 0.9691
-6.7071 3.5249 -1.9618 0.9692
-6.9932 2.9137 -1.9615 0.9692
-7.2246 2.2799 -1.9615 0.9692
-7.3998 1.6282 -1.9618 0.9692
-7.5172 0.9635 -1.9623 0.9692
-7.5756 -0.3846 -1.9640 0.9691
-7.5161 -1.0578 -1.9652 0.9691
-7.3977 -1.7237 -1.9667 0.9691
-7.2211 -2.3772 -1.9684 0.9691
-6.6989 -3.6268 -1.9724 0.9690
-5.5233 -5.2868 -1.9796 0.9689
-5.0378 -5.7651 -1.9823 0.9689
-4.5112 -6.1992 -1.9851 0.9688
-3.3506 -6.9209 -1.9909 0.9687
-2.0770 -7.4274 -1.9969 0.9686
-1.4099 -7.5941 -1.9998 0.9686
-0.0416 -7.7462 -2.0057 0.9685
0.6487 -7.7300 -2.0085 0.9685
1.3358 -7.6519 -2.0112 0.9684
2.0140 -7.5122 -2.0137 0.9684
2.6776 -7.3120 -2.0162 0.9683
5.0802 -5.9412 -2.0240 0.9682
5.5926 -5.4694 -2.0254 0.9682
6.0606 -4.9529 -2.0265 0.9682
7.4150 -2.5296 -2.0285 0.9681
7.6100 -1.8596 -2.0283 0.9681
7.7435 -1.1748 -2.0279 0.9682
7.7674 0.9109 -2.0249 0.9682
7.6499 1.5973 -2.0234 0.9682
7.2326 2.9227 -2.0198 0.9683
0.8009 6.9747 -1.9875 0.9712
-0.4470 6.9882 -1.9823 0.9713
-2.2690 6.5989 -1.9755 0.9714
-2.8443 6.3644 -1.9734 0.9714
-3.3961 6.0804 -1.9716 0.9715
-4.8707 4.9564 -1.9672 0.9715
-5.2896 4.5009 -1.9662 0.9715
-5.9993 3.4895 -1.9648 0.9716
-6.2848 2.9413 -1.9644 0.9716
-6.9448 -0.0541 -1.9661 0.9715
-6.8332 -1.2857 -1.9684 0.9715
-6.6966 -1.8900 -1.9698 0.9715
-6.5073 -2.4805 -1.9715 0.9715
-5.9761 -3.6016 -1.9753 0.9714
-5.6380 -4.1236 -1.9774 0.9714
-4.8293 -5.0697 -1.9821 0.9713
-3.8641 -5.8605 -1.9872 0.9712
-2.7715 -6.4701 -1.9926 0.9712
-2.1878 -6.7002 -1.9953 0.9711
-1.5851 -6.8777 -1.9981 0.9711
-0.9681 -7.0010 -2.0008 0.9710
-0.3417 -7.0687 -2.0034 0.9710
0.9190 -7.0353 -2.0086 0.9709
1.5432 -6.9339 -2.0110 0.9709
4.4018 -5.6193 -2.0207 0.9708
5.3348 -4.7560 -2.0233 0.9707
6.0983 -3.7381 -2.0249 0.9707
6.6665 -2.5987 -2.0256 0.9707
7.0204 -1.3757 -2.0252 0.9707
7.1130 -0.7453 -2.0247 0.9707
7.1483 -0.1094 -2.0239 0.9707
7.0466 1.1582 -2.0216 0.9707
6.7192 2.3852 -2.0185 0.9708
6.4743 2.9709 -2.0166 0.9708
6.1780 3.5316 -2.0146 0.9708
5.0084 5.0205 -2.0076 0.9709
4.5361 5.4394 -2.0050 0.9710
3.4908 6.1410 -1.9997 0.9711
2.9265 6.4185 -1.9970 0.9711
2.3406 6.6444 -1.9943 0.9711
1.1227 6.9351 -1.9889 0.9712
-0.7461 6.9584 -1.9812 0.9713
-1.3607 6.8562 -1.9788 0.9714
-2.5489 6.4922 -1.9745 0.9714
-3.6525 5.9265 -1.9708 0.9715
-4.6382 5.1775 -1.9678 0.9715
-5.0776 4.7414 -1.9667 0.9715
-5.4767 4.2688 -1.9658 0.9715
-5.8327 3.7631 -1.9650 0.9716
-6.7773 1.4912 -1.9645 0.9716
-6.8847 0.8824 -1.9650 0.9716
-6.9384 0.2664 -1.9656 0.9715
-6.9378 -0.3522 -1.9666 0.9715
-6.7740 -1.5784 -1.9690 0.9715
-6.1326 -3.3203 -1.9742 0.9714
-5.0548 -4.8384 -1.9809 0.9713
-3.6113 -6.0249 -1.9885 0.9712
-2.4929 -6.5875 -1.9939 0.9711
-1.8994 -6.7924 -1.9967 0.9711
-1.2892 -6.9440 -1.9994 0.9711
3.0346 -6.4438 -2.0163 0.9708
5.5354 -4.5237 -2.0238 0.9707
6.7719 -2.3102 -2.0256 0.9707
7.0949 0.8320 -2.0223 0.9707
6.9880 1.4591 -2.0209 0.9708
-0.4116 6.4350 -1.9833 0.9734
-0.9814 6.3657 -1.9811 0.9734
-2.0899 6.0782 -1.9770 0.9735
-3.6118 5.2967 -1.9719 0.9735
-4.8740 4.1473 -1.9684 0.9736
-5.2217 3.6957 -1.9676 0.9736
-5.5283 3.2155 -1.9671 0.9736
-6.3026 1.0846 -1.9671 0.9736
-6.3759 0.5196 -1.9676 0.9736
-6.3992 -0.0498 -1.9683 0.9736
-6.3725 -0.6193 -1.9693 0.9736
-5.9947 -2.2851 -1.9733 0.9735
-5.5046 -3.3175 -1.9768 0.9735
-5.1927 -3.7979 -1.9788 0.9734
-4.8393 -4.2495 -1.9809 0.9734
-4.4470 -4.6684 -1.9831 0.9734
-3.0670 -5.6977 -1.9903 0.9733
-2.5511 -5.9555 -1.9928 0.9733
-2.0136 -6.1666 -1.9953 0.9732
-1.4587 -6.3293 -1.9978 0.9732
-0.8908 -6.4420 -2.0003 0.9732
0.2658 -6.5136 -2.0051 0.9731
0.8454 -6.4716 -2.0074 0.9731
3.5687 -5.5022 -2.0172 0.9729
5.2764 -3.9203 -2.0218 0.9729
5.6060 -3.4363 -2.0225 0.9729
6.1282 -2.3889 -2.0231 0.9728
6.4536 -1.2646 -2.0227 0.9729
6.5389 -0.6851 -2.0222 0.9729
6.4786 1.0648 -2.0194 0.9729
5.9537 2.7319 -2.0148 0.9730
5.3648 3.7368 -2.0109 0.9730
5.0056 4.1949 -2.0088 0.9730
4.1732 5.0042 -2.0042 0.9731
3.7069 5.3493 -2.0018 0.9731
2.6933 5.9070 -1.9968 0.9732
1.0335 6.3845 -1.9893 0.9733
-0.1143 6.4510 -1.9845 0.9734
-1.2531 6.3144 -1.9800 0.9734
-2.3478 5.9802 -1.9760 0.9735
-4.6785 4.3688 -1.9689 0.9736
-5.0465 3.9335 -1.9680 0.9736
-5.3747 3.4677 -1.9673 0.9736
-5.6607 2.9750 -1.9669 0.9736
-5.9022 2.4592 -1.9667 0.9736
-6.0976 1.9242 -1.9667 0.9736
-6.2453 1.3742 -1.9669 0.9736
-6.3934 0.2455 -1.9679 0.9736
-6.3417 -0.8925 -1.9698 0.9736
-6.0913 -2.0052 -1.9725 0.9735
-5.8935 -2.5414 -1.9741 0.9735
-5.6490 -3.0584 -1.9758 0.9735
-5.3596 -3.5524 -1.9777 0.9734
-4.6550 -4.4556 -1.9819 0.9734
-4.2449 -4.8577 -1.9842 0.9734
-3.8003 -5.2224 -1.9866 0.9733
-2.2945 -6.0632 -1.9940 0.9732
-1.7481 -6.2512 -1.9965 0.9732
-0.6138 -6.4781 -2.0015 0.9731
0.5455 -6.4999 -2.0062 0.9731
1.6927 -6.3141 -2.0107 0.9730
2.2501 -6.1446 -2.0127 0.9730
2.7906 -5.9256 -2.0146 0.9730
3.8030 -5.3458 -2.0179 0.9729
4.2665 -4.9896 -2.0193 0.9729
4.6963 -4.5929 -2.0204 0.9729
5.0888 -4.1587 -2.0214 0.9729
6.2251 -2.1236 -2.0231 0.9728
6.3889 -1.5612 -2.0229 0.9729
6.5012 -0.9863 -2.0225 0.9729
6.5228 0.7650 -2.0200 0.9729
6.4249 1.3415 -2.0188 0.9729
6.0761 2.4554 -2.0157 0.9729
1.2099 5.8655 -1.9908 0.9751
0.6824 5.9431 -1.9885 0.9751
0.1507 5.9736 -1.9863 0.9751
-0.3810 5.9568 -1.9841 0.9752
-1.4280 5.7832 -1.9801 0.9752
-1.9351 5.6279 -1.9783 0.9752
-2.4261 5.4287 -1.9765 0.9752
-3.3449 4.9052 -1.9735 0.9753
-4.5144 3.8413 -1.9703 0.9753
-4.8365 3.4231 -1.9696 0.9753
-5.1206 2.9784 -1.9691 0.9753
-5.3645 2.5105 -1.9688 0.9753
-5.5663 2.0231 -1.9687 0.9753
-5.9056 0.4813 -1.9696 0.9753
-5.5514 -2.1161 -1.9748 0.9753
-5.3453 -2.6037 -1.9764 0.9752
-5.0968 -3.0717 -1.9781 0.9752
-4.8077 -3.5163 -1.9799 0.9752
-4.4802 -3.9341 -1.9819 0.9752
-3.2926 -4.9938 -1.9883 0.9751
-2.8384 -5.2730 -1.9906 0.9751
-2.3607 -5.5110 -1.9929 0.9750
-1.8631 -5.7059 -1.9952 0.9750
-0.8241 -5.9596 -1.9998 0.9750
-0.2909 -6.0160 -2.0021 0.9749
0.2459 -6.0247 -2.0043 0.9749
0.7818 -5.9853 -2.0064 0.9749
1.3127 -5.8980 -2.0085 0.9749
1.8340 -5.7633 -2.0104 0.9748
2.3417 -5.5823 -2.0122 0.9748
3.7414 -4.7763 -2.0168 0.9747
4.1540 -4.4270 -2.0180 0.9747
4.5337 -4.0418 -2.0190 0.9747
5.1819 -3.1764 -2.0203 0.9747
5.8383 -1.6953 -2.0208 0.9747
6.0442 -0.6333 -2.0201 0.9747
6.0561 0.4478 -2.0186 0.9747
5.8741 1.5124 -2.0163 0.9748
5.7122 2.0277 -2.0149 0.9748
5.5048 2.5260 -2.0133 0.9748
5.2537 3.0032 -2.0115 0.9748
4.9610 3.4556 -2.0097 0.9748
4.2613 4.2716 -2.0056 0.9749
3.8601 4.6288 -2.0035 0.9749
2.9718 5.2279 -1.9989 0.9750
2.4919 5.4653 -1.9966 0.9750
1.9934 5.6587 -1.9943 0.9750
1.4802 5.8069 -1.9920 0.9751
0.9565 5.9088 -1.9897 0.9751
0.4265 5.9637 -1.9874 0.9751
-0.1058 5.9714 -1.9852 0.9751
-1.6741 5.7139 -1.9792 0.9752
-2.6558 5.3175 -1.9758 0.9753
-3.9580 4.4182 -1.9717 0.9753
-5.2433 2.7556 -1.9689 0.9753
-5.8763 0.7532 -1.9693 0.9753
-5.9217 0.2274 -1.9699 0.9753
-5.7800 -1.3468 -1.9728 0.9753
-5.6410 -1.8570 -1.9741 0.9753
-5.4575 -2.3533 -1.9756 0.9753
-4.6545 -3.7212 -1.9809 0.9752
-4.3093 -4.1248 -1.9829 0.9752
-3.9293 -4.4966 -1.9850 0.9751
-2.6109 -5.3930 -1.9917 0.9751
-1.6174 -5.7838 -1.9963 0.9750
-1.0976 -5.9117 -1.9986 0.9750
-0.5678 -5.9927 -2.0009 0.9749
-0.0324 -6.0262 -2.0032 0.9749
0.5045 -6.0117 -2.0054 0.9749
1.0386 -5.9492 -2.0074 0.9749
3.9442 -4.6127 -2.0174 0.9747
4.7040 -3.8442 -2.0194 0.9747
5.3140 -2.9513 -2.0205 0.9747
5.5563 -2.4671 -2.0208 0.9747
5.7540 -1.9629 -2.0209 0.9747
6.0093 -0.9117 -2.0204 0.9747
6.0649 -0.3732 -2.0198 0.9747
6.0718 0.1679 -2.0191 0.9747
5.6178 2.2702 -2.0141 0.9748
1.1248 5.4529 -1.9910 0.9766
0.1401 5.5542 -1.9869 0.9767
-0.3543 5.5390 -1.9849 0.9767
-1.7997 5.2343 -1.9794 0.9768
-2.6949 4.8249 -1.9763 0.9768
-3.8668 3.9348 -1.9728 0.9768
-4.1998 3.5736 -1.9720 0.9768
-4.4996 3.1847 -1.9713 0.9769
-4.7640 2.7710 -1.9709 0.9769
-4.9910 2.3357 -1.9706 0.9769
-5.1787 1.8823 -1.9705 0.9769
-5.3259 1.4141 -1.9706 0.9769
-5.5141 -0.0429 -1.9719 0.9768
-5.4907 -0.5337 -1.9728 0.9768
-5.4241 -1.0206 -1.9737 0.9768
-4.9718 -2.4218 -1.9777 0.9768
-4.4712 -3.2702 -1.9810 0.9767
-4.1663 -3.6584 -1.9828 0.9767
-3.4586 -4.3476 -1.9867 0.9767
-2.6387 -4.9021 -1.9909 0.9766
-2.1944 -5.1229 -1.9930 0.9766
-1.7318 -5.3036 -1.9952 0.9766
-0.7659 -5.5385 -1.9995 0.9765
-0.2703 -5.5906 -2.0016 0.9765
0.2285 -5.5982 -2.0036 0.9765
0.7264 -5.5612 -2.0056 0.9765
1.2196 -5.4796 -2.0075 0.9764
1.7038 -5.3542 -2.0093 0.9764
2.1753 -5.1856 -2.0110 0.9764
2.6301 -4.9754 -2.0125 0.9764
3.4750 -4.4362 -2.0152 0.9763
4.2105 -3.7537 -2.0172 0.9763
4.5295 -3.3654 -2.0179 0.9763
5.0566 -2.5103 -2.0188 0.9763
5.2603 -2.0506 -2.0190 0.9763
5.6132 -0.5882 -2.0183 0.9763
5.5625 0.9142 -2.0159 0.9763
5.4559 1.4048 -2.0147 0.9764
4.6089 3.2103 -2.0086 0.9764
4.3010 3.6044 -2.0068 0.9764
3.9594 3.9690 -2.0048 0.9765
3.5869 4.3012 -2.0028 0.9765
3.1866 4.5986 -2.0007 0.9765
2.3161 5.0797 -1.9965 0.9766
0.8893 5.4933 -1.9900 0.9766
-0.0984 5.5524 -1.9859 0.9767
-0.5915 5.5161 -1.9839 0.9767
-1.0789 5.4365 -1.9820 0.9767
-1.5570 5.3141 -1.9803 0.9768
-3.6820 4.1101 -1.9733 0.9768
-4.0312 3.7644 -1.9724 0.9768
-4.6316 2.9882 -1.9711 0.9769
-4.8782 2.5637 -1.9707 0.9769
-5.0864 2.1193 -1.9705 0.9769
-5.3820 1.1842 -1.9707 0.9769
-5.2472 -1.7274 -1.9755 0.9768
-4.8651 -2.6340 -1.9784 0.9768
-4.6152 -3.0590 -1.9801 0.9768
-4.0073 -3.8357 -1.9837 0.9767
-3.6536 -4.1811 -1.9856 0.9767
-3.2704 -4.4943 -1.9877 0.9767
-1.9735 -5.2151 -1.9940 0.9766
-1.0201 -5.4942 -1.9984 0.9765
-0.0301 -5.5998 -2.0026 0.9765
0.4688 -5.5859 -2.0046 0.9765
1.4543 -5.4246 -2.0084 0.9764
2.3968 -5.0894 -2.0117 0.9764
3.2656 -4.5904 -2.0146 0.9764
4.9350 -2.7408 -2.0187 0.9763
5.1599 -2.2911 -2.0189 0.9763
5.3435 -1.8229 -2.0190 0.9763
5.4841 -1.3401 -2.0189 0.9763
5.6390 0.1559 -2.0173 0.9763
5.6002 0.6568 -2.0164 0.9763
5.5167 1.1519 -2.0153 0.9763
5.2183 2.1088 -2.0127 0.9764
1.0498 5.0890 -1.9913 0.9780
-0.3307 5.1705 -1.9855 0.9781
-0.7888 5.1160 -1.9837 0.9781
-1.2398 5.0212 -1.9820 0.9781
-3.2712 3.9831 -1.9752 0.9782
-3.9221 3.3373 -1.9735 0.9782
-4.2022 2.9741 -1.9729 0.9782
-4.4491 2.5878 -1.9724 0.9782
-4.6611 2.1814 -1.9722 0.9782
-4.8365 1.7579 -1.9721 0.9782
-5.0724 0.8729 -1.9724 0.9782
-2.3042 0.1878 -0.8859 0.9901
-4.9630 -1.4007 -1.9762 0.9782
-4.6421 -2.2612 -1.9788 0.9781
-4.1743 -3.0530 -1.9818 0.9781
-3.8894 -3.4153 -1.9835 0.9781
-3.5733 -3.7512 -1.9853 0.9781
-3.2283 -4.0581 -1.9872 0.9780
-2.8572 -4.3334 -1.9891 0.9780
-2.4627 -4.5750 -1.9911 0.9780
-1.1704 -5.0783 -1.9971 0.9779
-0.2522 -5.2157 -2.0011 0.9779
0.2131 -5.2225 -2.0030 0.9779
0.6776 -5.1876 -2.0049 0.9778
1.5892 -4.9939 -2.0083 0.9778
2.4529 -4.6400 -2.0113 0.9778
3.2405 -4.1369 -2.0138 0.9777
3.5976 -3.8340 -2.0148 0.9777
3.9262 -3.5002 -2.0157 0.9777
4.1921 -3.1147 -2.0014 0.9779
4.4871 -2.7504 -2.0169 0.9777
4.9047 -1.9120 -2.0173 0.9777
5.0553 -1.4679 -2.0173 0.9777
5.1653 -1.0122 -2.0171 0.9777
5.2338 -0.5484 -2.0167 0.9777
5.2447 0.3878 -2.0154 0.9777
5.0879 1.3100 -2.0134 0.9777
4.9481 1.7565 -2.0121 0.9778
4.7689 2.1883 -2.0108 0.9778
4.5519 2.6020 -2.0093 0.9778
4.0119 3.3621 -2.0059 0.9778
3.6935 3.7024 -2.0041 0.9778
3.3463 4.0127 -2.0023 0.9779
0.8299 5.1269 -1.9903 0.9780
0.3701 5.1753 -1.9884 0.9780
-0.0918 5.1828 -1.9865 0.9780
-0.5521 5.1493 -1.9846 0.9781
-1.0072 5.0753 -1.9829 0.9781
-1.4536 4.9613 -1.9812 0.9781
-2.3066 4.6181 -1.9782 0.9781
-2.7066 4.3917 -1.9769 0.9781
-3.0848 4.1310 -1.9757 0.9782
-3.4384 3.8381 -1.9747 0.9782
-3.7646 3.5154 -1.9739 0.9782
-4.0610 3.1654 -1.9732 0.9782
-4.3254 2.7907 -1.9726 0.9782
-4.5558 2.3943 -1.9723 0.9782
-4.7503 1.9792 -1.9721 0.9782
-4.9075 1.5487 -1.9721 0.9782
-5.0263 1.1059 -1.9722 0.9782
-2.3019 0.2950 -0.8893 0.9901
-5.1024 -0.7181 -1.9746 0.9782
-5.0208 -1.1699 -1.9756 0.9782
-4.8997 -1.6129 -1.9768 0.9781
-4.0410 -3.2307 -1.9827 0.9781
-3.7408 -3.5806 -1.9844 0.9781
-3.4105 -3.9029 -1.9862 0.9780
-3.0526 -4.1949 -1.9881 0.9780
-2.6698 -4.4542 -1.9901 0.9780
-1.8417 -4.8667 -1.9941 0.9780
-0.4923 -5.1959 -2.0001 0.9779
-0.0281 -5.2242 -2.0020 0.9779
0.4373 -5.2108 -2.0039 0.9778
0.9001 -5.1559 -2.0057 0.9778
1.3565 -5.0597 -2.0074 0.9778
2.2353 -4.7465 -2.0106 0.9778
2.6507 -4.5319 -2.0120 0.9778
3.0453 -4.2808 -2.0132 0.9777
3.4160 -3.9950 -2.0143 0.9777
4.0442 -3.3051 -2.0015 0.9779
4.3549 -2.9542 -2.0166 0.9777
4.6014 -2.5555 -2.0170 0.9777
4.9823 -1.6997 -2.0173 0.9777
5.2036 -0.7894 -2.0169 0.9777
5.2581 0.1454 -2.0158 0.9777
5.2221 0.6124 -2.0149 0.9777
5.0255 1.5267 -2.0128 0.9778
4.8666 1.9666 -2.0115 0.9778
0.9830 4.7655 -1.9915 0.9792
0.5546 4.8296 -1.9896 0.9792
0.1225 4.8554 -1.9878 0.9792
-0.7388 4.7919 -1.9844 0.9793
-1.1613 4.7033 -1.9828 0.9793
-1.5741 4.5779 -1.9813 0.9793
-3.3833 3.4428 -1.9755 0.9794
-3.6748 3.1269 -1.9748 0.9794
-3.9373 2.7867 -1.9742 0.9794
-4.3675 2.0440 -1.9736 0.9794
-4.5318 1.6471 -1.9735 0.9794
-2.0490 0.3526 -0.8509 0.9911
-2.0137 0.1641 -0.8269 0.9913
-1.9922 -0.0155 -0.8154 0.9914
-2.0168 -0.1960 -0.8293 0.9913
-3.9101 -2.8598 -1.9826 0.9793
-2.3061 -4.2842 -1.9913 0.9792
-1.9176 -4.4766 -1.9932 0.9792
-1.5131 -4.6339 -1.9951 0.9792
-1.0958 -4.7546 -1.9970 0.9791
-0.6690 -4.8378 -1.9988 0.9791
-0.2361 -4.8826 -2.0007 0.9791
0.1995 -4.8886 -2.0025 0.9791
0.6343 -4.8557 -2.0042 0.9791
1.4873 -4.6738 -2.0074 0.9790
2.2955 -4.3423 -2.0102 0.9790
3.0323 -3.8711 -2.0126 0.9790
3.6737 -3.2751 -2.0143 0.9790
4.1984 -2.5735 -2.0154 0.9789
4.5891 -1.7889 -2.0159 0.9789
4.7300 -1.3735 -2.0158 0.9789
4.8971 -0.5131 -2.0153 0.9789
4.9075 0.3629 -2.0140 0.9790
4.6304 1.6437 -2.0110 0.9790
4.4630 2.0479 -2.0097 0.9790
4.2601 2.4352 -2.0083 0.9790
3.4573 3.4656 -2.0035 0.9791
2.4126 4.2442 -1.9981 0.9791
0.3466 4.8468 -1.9887 0.9792
-0.0860 4.8541 -1.9870 0.9792
-0.5171 4.8230 -1.9852 0.9793
-1.7685 4.5045 -1.9806 0.9793
-2.5357 4.1144 -1.9780 0.9793
-3.5273 3.2938 -1.9752 0.9794
-3.8051 2.9658 -1.9745 0.9794
-4.0529 2.6148 -1.9740 0.9794
-4.4511 1.8545 -1.9735 0.9794
-4.5984 1.4511 -1.9735 0.9794
-2.0880 0.4594 -0.8750 0.9908
-2.0049 -0.1018 -0.8216 0.9914
-2.0207 -0.2844 -0.8352 0.9912
-4.5903 -1.5111 -1.9779 0.9793
-3.5038 -3.3537 -1.9850 0.9793
-3.1942 -3.6553 -1.9867 0.9792
-1.7244 -4.5569 -1.9941 0.9792
-1.3134 -4.6967 -1.9960 0.9791
-0.8911 -4.7994 -1.9979 0.9791
-0.0263 -4.8904 -2.0015 0.9791
0.8425 -4.8259 -2.0050 0.9790
1.6872 -4.6074 -2.0081 0.9790
2.4805 -4.2410 -2.0108 0.9790
2.8497 -4.0058 -2.0120 0.9790
3.1965 -3.7382 -2.0130 0.9790
4.0747 -2.7642 -2.0152 0.9789
4.3054 -2.3911 -2.0156 0.9789
4.5016 -1.9987 -2.0158 0.9789
4.7844 -1.1691 -2.0158 0.9789
4.9141 -0.3024 -2.0150 0.9789
4.8139 1.0051 -2.0127 0.9790
0.5209 4.5361 -1.9899 0.9803
0.1151 4.5606 -1.9882 0.9803
-0.2910 4.5490 -1.9866 0.9803
-0.6940 4.5014 -1.9850 0.9803
-1.0910 4.4185 -1.9835 0.9803
-1.8544 4.1494 -1.9808 0.9804
-2.2149 3.9655 -1.9796 0.9804
-3.4531 2.9382 -1.9760 0.9804
-3.9174 2.2786 -1.9751 0.9804
-1.4926 0.3963 -0.6730 0.9933
-1.4717 0.2532 -0.6508 0.9935
-1.4281 -0.0111 -0.6224 0.9938
-1.4687 -0.1427 -0.6431 0.9936
-1.4686 -0.2763 -0.6513 0.9935
-1.5290 -0.5828 -0.7131 0.9929
-4.0857 -1.9902 -1.9806 0.9804
-3.4222 -3.0051 -1.9849 0.9803
-2.5132 -3.8116 -1.9898 0.9803
-2.1659 -4.0237 -1.9915 0.9803
-1.0290 -4.4647 -1.9968 0.9802
-0.6281 -4.5426 -1.9986 0.9802
0.1873 -4.5898 -2.0020 0.9802
0.5955 -4.5586 -2.0036 0.9801
1.3962 -4.3875 -2.0066 0.9801
1.7823 -4.2487 -2.0080 0.9801
2.1546 -4.0759 -2.0093 0.9801
2.5102 -3.8702 -2.0104 0.9801
2.8461 -3.6333 -2.0114 0.9801
3.4479 -3.0738 -2.0131 0.9800
3.7088 -2.7556 -2.0137 0.9800
3.9402 -2.4152 -2.0141 0.9800
4.1401 -2.0553 -2.0144 0.9800
4.3068 -1.6789 -2.0146 0.9800
4.5357 -0.8888 -2.0143 0.9800
4.5555 0.7487 -2.0120 0.9801
4.4687 1.1506 -2.0111 0.9801
4.3463 1.5428 -2.0100 0.9801
3.9989 2.2860 -2.0075 0.9801
3.7770 2.6309 -2.0060 0.9801
3.5253 2.9543 -2.0045 0.9801
3.2458 3.2537 -2.0030 0.9801
2.9410 3.5267 -2.0013 0.9802
1.5204 4.3161 -1.9943 0.9802
0.7300 4.5093 -1.9908 0.9803
-0.0808 4.5595 -1.9874 0.9803
-0.4858 4.5305 -1.9858 0.9803
-2.0302 4.0648 -1.9802 0.9804
-2.3824 3.8657 -1.9790 0.9804
-3.3144 3.0950 -1.9763 0.9804
-3.5755 2.7869 -1.9757 0.9804
-3.8084 2.4571 -1.9752 0.9804
-4.1826 1.7427 -1.9748 0.9804
-1.4817 0.3260 -0.6612 0.9934
-1.4730 0.1888 -0.6472 0.9935
-1.4465 0.0555 -0.6309 0.9937
-1.4527 -0.0738 -0.6339 0.9937
-1.4929 -0.4915 -0.6850 0.9932
-3.7919 -2.5133 -1.9826 0.9803
-3.5558 -2.8428 -1.9841 0.9803
-3.2913 -3.1504 -1.9856 0.9803
-2.6852 -3.6900 -1.9889 0.9803
-1.9920 -4.1147 -1.9923 0.9803
0.3843 -4.5793 -2.0028 0.9801
0.7909 -4.5306 -2.0043 0.9801
1.9636 -4.1696 -2.0086 0.9801
2.6747 -3.7598 -2.0109 0.9801
4.0406 -2.2440 -2.0143 0.9800
4.4901 -1.0972 -2.0144 0.9800
4.6119 -0.2838 -2.0138 0.9800
4.6175 0.1277 -2.0132 0.9800
4.5862 0.5378 -2.0124 0.9801
4.5182 0.9434 -2.0116 0.9801
4.4141 1.3410 -2.0106 0.9801
4.1016 2.0997 -2.0082 0.9801
-0.6536 4.2394 -1.9855 0.9813
-1.0275 4.1614 -1.9841 0.9813
-1.3928 4.0508 -1.9828 0.9813
-2.0863 3.7353 -1.9804 0.9813
-2.4092 3.5330 -1.9794 0.9813
-3.2529 2.7679 -1.9771 0.9813
-3.4854 2.4669 -1.9766 0.9814
-3.6904 2.1465 -1.9762 0.9814
-1.2651 0.5920 -0.6465 0.9939
-1.2617 0.4586 -0.6214 0.9941
-1.2729 0.2190 -0.5979 0.9943
-1.2710 -0.2392 -0.5986 0.9943
-3.2230 -2.8301 -1.9854 0.9813
-2.9606 -3.1080 -1.9869 0.9813
-1.6956 -3.9584 -1.9933 0.9812
-0.2086 -4.3156 -1.9999 0.9811
0.9408 -4.2271 -2.0045 0.9811
1.3141 -4.1294 -2.0059 0.9811
2.0278 -3.8359 -2.0084 0.9811
2.3623 -3.6422 -2.0095 0.9810
3.2445 -2.8925 -2.0120 0.9810
3.4900 -2.5930 -2.0126 0.9810
4.2680 -0.8363 -2.0132 0.9810
4.3248 -0.4531 -2.0128 0.9810
4.3469 -0.0665 -2.0123 0.9810
4.3342 0.3205 -2.0117 0.9810
4.2869 0.7046 -2.0110 0.9810
4.0902 1.4519 -2.0091 0.9811
3.9426 1.8091 -2.0079 0.9811
3.7637 2.1515 -2.0067 0.9811
3.5549 2.4762 -2.0054 0.9811
3.3181 2.7807 -2.0039 0.9811
2.4601 3.5501 -1.9993 0.9811
2.1327 3.7519 -1.9977 0.9812
1.7889 3.9235 -1.9960 0.9812
1.0633 4.1715 -1.9927 0.9812
0.6873 4.2460 -1.9910 0.9812
-0.8347 4.2060 -1.9848 0.9813
-1.5649 3.9860 -1.9822 0.9813
-1.9123 3.8287 -1.9810 0.9813
-2.2441 3.6413 -1.9799 0.9813
-3.3683 2.6254 -1.9768 0.9814
-3.5877 2.3147 -1.9764 0.9814
-3.7789 1.9860 -1.9761 0.9814
-1.2486 0.5202 -0.6261 0.9941
-1.2752 0.1634 -0.5951 0.9943
-1.2682 -0.0644 -0.5878 0.9944
-1.2750 -0.1795 -0.5960 0.9943
-3.7655 -2.0386 -1.9820 0.9813
-3.5714 -2.3672 -1.9833 0.9813
-3.0996 -2.9669 -1.9861 0.9813
-2.5286 -3.4748 -1.9892 0.9812
-2.2111 -3.6890 -1.9908 0.9812
-1.1612 -4.1524 -1.9958 0.9812
-0.7877 -4.2427 -1.9975 0.9812
-0.4074 -4.2995 -1.9991 0.9811
0.3618 -4.3105 -2.0023 0.9811
1.4906 -4.0705 -2.0065 0.9811
1.8480 -3.9242 -2.0078 0.9811
3.1070 -3.0386 -2.0116 0.9810
3.8021 -2.1116 -2.0131 0.9810
3.9753 -1.7651 -2.0133 0.9810
4.1166 -1.4044 -2.0134 0.9810
4.2251 -1.0324 -2.0133 0.9810
4.3451 0.1201 -2.0121 0.9810
4.2518 0.8878 -2.0106 0.9810
4.0231 1.6258 -2.0085 0.9811
3.8602 1.9761 -2.0073 0.9811
0.4629 4.0312 -1.9904 0.9821
0.1023 4.0534 -1.9889 0.9821
-0.6170 4.0015 -1.9860 0.9821
-0.9699 3.9281 -1.9847 0.9821
-1.3148 3.8238 -1.9834 0.9821
-1.9695 3.5262 -1.9812 0.9822
-2.2744 3.3353 -1.9802 0.9822
-3.0711 2.6132 -1.9780 0.9822
-3.2907 2.3290 -1.9776 0.9822
-1.1328 0.3008 -0.5749 0.9948
-1.1416 0.1964 -0.5682 0.9949
-1.1438 0.0932 -0.5629 0.9949
-3.4630 -2.0871 -1.9833 0.9821
-2.7944 -2.9335 -1.9873 0.9821
-1.9247 -3.5755 -1.9918 0.9821
-0.9141 -3.9663 -1.9965 0.9820
-0.5580 -4.0350 -1.9981 0.9820
0.1664 -4.0762 -2.0011 0.9820
0.5288 -4.0481 -2.0026 0.9820
1.5823 -3.7720 -2.0065 0.9819
1.9128 -3.6183 -2.0076 0.9819
2.2283 -3.4355 -2.0086 0.9819
2.5263 -3.2251 -2.0095 0.9819
2.8043 -2.9886 -2.0103 0.9819
3.0602 -2.7281 -2.0110 0.9819
3.2916 -2.4457 -2.0115 0.9819
3.4969 -2.1435 -2.0119 0.9819
3.6742 -1.8241 -2.0122 0.9819
3.8222 -1.4900 -2.0123 0.9819
4.0254 -0.7888 -2.0121 0.9819
4.0789 -0.4274 -2.0118 0.9819
4.0999 -0.0627 -2.0113 0.9819
4.0880 0.3023 -2.0107 0.9819
3.8582 1.3696 -2.0082 0.9819
3.7190 1.7065 -2.0072 0.9819
3.5504 2.0295 -2.0060 0.9819
3.3536 2.3359 -2.0047 0.9820
3.1303 2.6233 -2.0034 0.9820
2.6120 3.1322 -2.0005 0.9820
2.3212 3.3496 -1.9990 0.9820
2.0124 3.5402 -1.9975 0.9820
1.6880 3.7023 -1.9959 0.9820
1.0035 3.9367 -1.9928 0.9821
0.6487 4.0072 -1.9912 0.9821
-0.0718 4.0526 -1.9882 0.9821
-0.4318 4.0272 -1.9868 0.9821
-1.1373 3.8817 -1.9841 0.9821
-1.8052 3.6143 -1.9817 0.9822
-2.4149 3.2339 -1.9798 0.9822
-2.6920 3.0050 -1.9790 0.9822
-2.9477 2.7526 -1.9783 0.9822
-1.1091 0.4621 -0.5894 0.9947
-1.1345 0.2496 -0.5698 0.9948
-1.1442 0.1467 -0.5659 0.9949
-1.1439 -0.1610 -0.5666 0.9949
-1.1326 -0.2639 -0.5704 0.9948
-1.1276 -0.3712 -0.5823 0.9947
-1.1050 -0.4765 -0.5903 0.9947
-1.1070 -0.5994 -0.6175 0.9944
-3.3713 -2.2345 -1.9839 0.9821
-3.1611 -2.5273 -1.9852 0.9821
-2.6668 -3.0518 -1.9880 0.9821
-2.0868 -3.4815 -1.9910 0.9821
-1.0957 -3.9183 -1.9957 0.9820
-0.7433 -4.0033 -1.9973 0.9820
-0.0219 -4.0780 -2.0004 0.9820
0.3413 -4.0667 -2.0018 0.9820
0.7023 -4.0231 -2.0032 0.9820
1.7433 -3.7017 -2.0070 0.9819
2.0668 -3.5338 -2.0081 0.9819
2.3742 -3.3374 -2.0091 0.9819
2.9305 -2.8660 -2.0107 0.9819
3.1749 -2.5946 -2.0113 0.9819
3.5859 -1.9916 -2.0121 0.9819
3.7493 -1.6647 -2.0122 0.9819
4.0553 -0.6152 -2.0120 0.9819
4.0706 0.4774 -2.0104 0.9819
4.0104 0.8374 -2.0096 0.9819
3.6414 1.8641 -2.0066 0.9819
0.0967 3.8332 -1.9892 0.9829
-1.2435 3.6166 -1.9840 0.9829
-2.4225 2.9497 -1.9802 0.9829
-2.6745 2.7215 -1.9795 0.9830
-2.9052 2.4720 -1.9789 0.9830
-3.1129 2.2032 -1.9785 0.9830
-0.9561 0.5561 -0.5738 0.9950
-0.9808 0.4590 -0.5618 0.9951
-1.0079 0.3664 -0.5564 0.9952
-1.0329 0.1778 -0.5437 0.9953
-1.0306 -0.0080 -0.5347 0.9954
-1.0377 -0.1009 -0.5409 0.9953
-1.0188 -0.2876 -0.5492 0.9952
-1.0043 -0.3828 -0.5576 0.9952
-0.9745 -0.4747 -0.5623 0.9951
-0.9630 -0.5804 -0.5833 0.9949
-3.0886 -2.2590 -1.9851 0.9829
-2.8772 -2.5265 -1.9864 0.9829
-2.3870 -3.0005 -1.9891 0.9829
-2.1121 -3.2033 -1.9905 0.9829
-1.1936 -3.6555 -1.9949 0.9828
-0.5275 -3.8149 -1.9979 0.9828
0.1573 -3.8535 -2.0008 0.9828
1.1718 -3.6822 -2.0047 0.9827
2.3877 -3.0481 -2.0087 0.9827
2.6504 -2.8246 -2.0095 0.9827
2.8922 -2.5784 -2.0101 0.9827
3.1109 -2.3114 -2.0106 0.9827
3.4724 -1.7239 -2.0112 0.9827
3.8636 0.2857 -2.0098 0.9827
3.8216 0.6281 -2.0092 0.9827
3.7491 0.9653 -2.0084 0.9827
3.1700 2.2081 -2.0042 0.9827
2.7249 2.7315 -2.0016 0.9828
2.4693 2.9611 -2.0002 0.9828
1.2773 3.6259 -1.9943 0.9828
0.9489 3.7224 -1.9929 0.9828
0.6134 3.7893 -1.9914 0.9829
0.2736 3.8260 -1.9899 0.9829
-0.4084 3.8087 -1.9872 0.9829
-0.7452 3.7547 -1.9859 0.9829
-1.0757 3.6713 -1.9846 0.9829
-1.3973 3.5589 -1.9835 0.9829
-2.0039 3.2516 -1.9815 0.9829
-2.2843 3.0590 -1.9806 0.9829
-2.5465 2.8425 -1.9798 0.9829
-3.0083 2.3448 -1.9787 0.9830
-3.2043 2.0674 -1.9783 0.9830
-0.9608 0.5049 -0.5631 0.9951
-1.0156 0.3205 -0.5525 0.9952
-1.0346 0.0397 -0.5371 0.9953
-1.0357 -0.0526 -0.5380 0.9953
-1.0361 -0.1458 -0.5428 0.9953
-1.0137 -0.3337 -0.5537 0.9952
-3.1885 -2.1134 -1.9845 0.9829
-2.7669 -2.6485 -1.9870 0.9829
-2.2568 -3.1013 -1.9898 0.9829
-1.3605 -3.5951 -1.9942 0.9828
0.3226 -3.8444 -2.0014 0.9828
0.6639 -3.8030 -2.0028 0.9828
1.3291 -3.6296 -2.0052 0.9827
1.6477 -3.4989 -2.0063 0.9827
2.5168 -2.9434 -2.0091 0.9827
2.7697 -2.7087 -2.0098 0.9827
3.0006 -2.4522 -2.0103 0.9827
3.3890 -1.8822 -2.0111 0.9827
3.5434 -1.5733 -2.0113 0.9827
3.6694 -1.2518 -2.0113 0.9827
3.8325 -0.5814 -2.0110 0.9827
3.8684 -0.2381 -2.0106 0.9827
3.8733 0.1071 -2.0102 0.9827
3.8472 0.4512 -2.0095 0.9827
3.5869 1.4495 -2.0070 0.9827
0.0916 3.6312 -1.9895 0.9836
-0.5528 3.5853 -1.9869 0.9836
-0.8691 3.5198 -1.9857 0.9836
-1.1782 3.4266 -1.9846 0.9836
-1.4776 3.3064 -1.9835 0.9836
-1.7651 3.1603 -1.9826 0.9836
-2.0384 2.9894 -1.9817 0.9836
-2.2955 2.7950 -1.9809 0.9836
-0.9473 0.0772 -0.5206 0.9957
-0.9419 -0.0073 -0.5159 0.9957
-0.9405 -0.1770 -0.5242 0.9956
-0.9241 -0.2608 -0.5259 0.9956
-0.8916 -0.4343 -0.5432 0.9955
-0.8635 -0.5204 -0.5522 0.9954
-2.9262 -2.1402 -1.9856 0.9836
-2.5036 -2.6282 -1.9881 0.9836
-1.4332 -3.3457 -1.9935 0.9835
-0.8186 -3.5518 -1.9963 0.9835
0.1489 -3.6493 -2.0004 0.9835
0.4734 -3.6240 -2.0017 0.9835
0.7945 -3.5697 -2.0030 0.9835
1.1096 -3.4868 -2.0041 0.9835
1.7119 -3.2383 -2.0062 0.9834
2.2607 -2.8861 -2.0079 0.9834
2.7383 -2.4412 -2.0093 0.9834
2.9454 -2.1884 -2.0097 0.9834
3.1290 -1.9180 -2.0101 0.9834
3.4200 -1.3332 -2.0104 0.9834
1.8849 -0.3694 -1.0520 0.9913
1.8891 -0.1980 -1.0404 0.9914
3.1778 1.8165 -2.0048 0.9834
3.0019 2.0909 -2.0037 0.9835
2.8022 2.3484 -2.0025 0.9835
2.5805 2.5868 -2.0012 0.9835
-0.0643 3.6307 -1.9888 0.9836
-0.3869 3.6082 -1.9876 0.9836
-0.7060 3.5573 -1.9863 0.9836
-1.0191 3.4783 -1.9852 0.9836
-1.3239 3.3720 -1.9841 0.9836
-1.8988 3.0809 -1.9821 0.9836
-2.1645 2.8985 -1.9813 0.9836
-2.6422 2.4673 -1.9800 0.9836
-0.8688 0.5605 -0.5663 0.9953
-0.8830 0.4641 -0.5463 0.9955
-0.9051 0.3771 -0.5370 0.9955
-0.9353 0.2058 -0.5245 0.9956
-0.9451 0.0363 -0.5180 0.9957
-0.9460 -0.0480 -0.5188 0.9957
-0.9456 -0.1331 -0.5230 0.9957
-0.9328 -0.2173 -0.5246 0.9956
-0.9188 -0.3025 -0.5298 0.9956
-2.6213 -2.5091 -1.9874 0.9836
-2.1379 -2.9379 -1.9900 0.9836
-1.5854 -3.2748 -1.9928 0.9835
0.6287 -3.6014 -2.0023 0.9835
0.9472 -3.5333 -2.0035 0.9835
1.5602 -3.3130 -2.0057 0.9834
1.8497 -3.1626 -2.0067 0.9834
2.6223 -2.5646 -2.0090 0.9834
2.8409 -2.3217 -2.0095 0.9834
3.0369 -2.0601 -2.0099 0.9834
1.8859 -0.1161 -1.0349 0.9914
1.8891 0.2215 -1.0417 0.9914
1.8859 0.3938 -1.0552 0.9913
1.8786 0.5707 -1.0753 0.9911
3.3963 1.3725 -2.0063 0.9834
3.2591 1.6684 -2.0053 0.9834
0.3934 3.4260 -1.9910 0.9842
0.0869 3.4452 -1.9897 0.9842
-2.6125 2.2230 -1.9805 0.9843
-0.8691 0.2307 -0.5191 0.9959
-0.8822 0.0719 -0.5110 0.9959
-0.8783 -0.1653 -0.5160 0.9959
-0.8377 -0.4081 -0.5380 0.9957
-0.8105 -0.4885 -0.5463 0.9956
-2.5863 -2.2711 -1.9872 0.9842
-2.1454 -2.6969 -1.9896 0.9842
-1.3596 -3.1740 -1.9935 0.9842
-1.0725 -3.2846 -1.9949 0.9842
-0.1672 -3.4581 -1.9988 0.9841
0.4490 -3.4372 -2.0013 0.9841
1.0524 -3.3070 -2.0036 0.9841
1.3431 -3.2019 -2.0047 0.9841
1.8911 -2.9157 -2.0065 0.9841
2.1439 -2.7369 -2.0073 0.9841
2.7930 -2.0752 -2.0089 0.9841
3.1175 -1.5477 -2.0095 0.9841
1.7386 -0.6777 -1.0773 0.9914
1.7252 -0.5010 -1.0372 0.9917
1.7298 -0.0265 -0.9988 0.9920
1.7391 0.1286 -1.0068 0.9920
1.7394 0.2859 -1.0177 0.9919
1.7307 0.4456 -1.0318 0.9918
3.1567 1.4485 -2.0052 0.9841
3.0138 1.7228 -2.0043 0.9841
2.8470 1.9831 -2.0032 0.9841
2.6578 2.2273 -2.0021 0.9841
2.4476 2.4535 -2.0009 0.9841
1.7093 3.0071 -1.9970 0.9842
0.8527 3.3451 -1.9930 0.9842
0.5513 3.4054 -1.9917 0.9842
0.2459 3.4387 -1.9904 0.9842
-0.0610 3.4448 -1.9891 0.9842
-0.6699 3.3753 -1.9867 0.9842
-0.9670 3.3005 -1.9856 0.9842
-1.2562 3.1997 -1.9846 0.9842
-2.2899 2.5561 -1.9813 0.9843
-2.7052 2.1086 -1.9803 0.9843
-0.7991 0.5156 -0.5491 0.9956
-0.8294 0.4359 -0.5409 0.9957
-0.8510 0.3546 -0.5322 0.9958
-0.8642 0.2727 -0.5232 0.9958
-0.8751 0.1925 -0.5173 0.9959
-0.8818 0.1130 -0.5132 0.9959
-0.8628 -0.2840 -0.5244 0.9958
-0.8257 -0.4470 -0.5421 0.9957
-2.4872 -2.3807 -1.9878 0.9842
-2.2669 -2.5941 -1.9890 0.9842
-2.0283 -2.7873 -1.9902 0.9842
-0.6314 -3.4006 -1.9969 0.9842
0.2898 -3.4532 -2.0007 0.9841
0.5963 -3.4158 -2.0019 0.9841
1.1936 -3.2596 -2.0041 0.9841
1.4797 -3.1420 -2.0051 0.9841
1.7542 -2.9992 -2.0060 0.9841
2.8798 -1.9536 -2.0091 0.9841
3.0426 -1.6898 -2.0094 0.9841
3.1812 -1.4125 -2.0096 0.9841
1.7113 -0.5838 -1.0439 0.9917
1.7318 -0.4232 -1.0293 0.9918
1.7377 -0.1069 -1.0052 0.9920
1.7325 0.0479 -1.0006 0.9920
1.7327 0.3618 -1.0220 0.9919
1.7221 0.5232 -1.0391 0.9917
1.7828 0.7204 -1.1102 0.9912
