ply
format ascii 1.0
element vertex 1513
property float32 x
property float32 y
property float32 z
property float32 I
end_header
-9.1233 11.0266 2.5235 0.9435
-0.6635 -5.2641 0.9356 0.9787
0.7620 -5.2965 0.9435 0.9785
1.2563 -5.3103 0.9622 0.9781
1.7750 -5.3254 0.9898 0.9775
2.9306 -5.3571 1.0767 0.9755
3.5980 -5.3738 1.1403 0.9741
-0.3144 -5.2721 0.9313 0.9788
0.1578 -5.2816 0.9317 0.9788
1.1239 -5.3066 0.9564 0.9782
-9.1230 11.0263 2.1924 0.9437
-0.6624 -5.2549 0.8114 0.9788
-0.1894 -5.2658 0.8072 0.9789
0.2823 -5.2754 0.8093 0.9788
0.7607 -5.2877 0.8184 0.9786
1.7719 -5.3162 0.8585 0.9776
2.3250 -5.3325 0.8912 0.9767
3.5928 -5.3659 0.9893 0.9742
5.2312 -5.4073 1.1526 0.9700
6.2908 -5.4349 1.2736 0.9669
7.6117 -5.4699 1.4359 0.9628
-0.3138 -5.2633 0.8077 0.9789
0.6333 -5.2843 0.8153 0.9787
1.6324 -5.3121 0.8513 0.9778
-9.1228 11.0260 1.8636 0.9439
-0.1891 -5.2571 0.6850 0.9790
0.7595 -5.2791 0.6945 0.9787
1.7689 -5.3070 0.7285 0.9777
2.3208 -5.3230 0.7562 0.9768
3.5875 -5.3581 0.8397 0.9743
5.2223 -5.3982 0.9781 0.9702
6.2791 -5.4247 1.0806 0.9671
7.5956 -5.4583 1.2180 0.9630
-0.7869 -5.2427 0.6904 0.9788
-0.3133 -5.2543 0.6854 0.9790
0.6323 -5.2757 0.6919 0.9788
1.1202 -5.2889 0.7040 0.9784
1.6296 -5.3031 0.7224 0.9779
-1.1400 -5.2250 0.5743 0.9787
-0.6601 -5.2366 0.5668 0.9790
0.7582 -5.2705 0.5718 0.9788
2.9162 -5.3309 0.6525 0.9759
5.2136 -5.3891 0.8052 0.9703
6.2674 -5.4147 0.8894 0.9672
7.5816 -5.4482 1.0025 0.9631
-0.3128 -5.2453 0.5642 0.9791
0.6313 -5.2671 0.5696 0.9789
1.1183 -5.2802 0.5796 0.9785
-9.0570 10.9465 1.2027 0.9446
-1.1380 -5.2159 0.4519 0.9788
-0.1885 -5.2394 0.4438 0.9792
0.7570 -5.2620 0.4500 0.9789
1.2480 -5.2750 0.4589 0.9785
2.3126 -5.3042 0.4898 0.9770
2.9109 -5.3210 0.5134 0.9759
4.3292 -5.3599 0.5832 0.9727
5.2048 -5.3801 0.6337 0.9704
7.5685 -5.4389 0.7890 0.9633
-0.3122 -5.2363 0.4441 0.9792
0.1567 -5.2470 0.4444 0.9791
1.1165 -5.2715 0.4561 0.9786
-9.0575 10.9471 0.8811 0.9446
-1.1360 -5.2069 0.3305 0.9789
-0.1882 -5.2305 0.3246 0.9792
0.7558 -5.2535 0.3291 0.9790
1.2459 -5.2664 0.3356 0.9785
1.7599 -5.2801 0.3451 0.9779
2.3086 -5.2950 0.3582 0.9771
2.9055 -5.3113 0.3754 0.9760
3.5685 -5.3297 0.3977 0.9746
5.1962 -5.3712 0.4634 0.9705
6.2444 -5.3947 0.5117 0.9675
7.5556 -5.4295 0.5770 0.9634
-0.3117 -5.2274 0.3247 0.9792
0.1565 -5.2386 0.3250 0.9792
0.6293 -5.2502 0.3279 0.9790
1.1147 -5.2629 0.3336 0.9787
1.6214 -5.2764 0.3423 0.9781
-9.0580 10.9476 0.5603 0.9447
-0.6567 -5.2098 0.2071 0.9792
-0.1879 -5.2217 0.2060 0.9793
0.2800 -5.2329 0.2066 0.9792
0.7546 -5.2451 0.2090 0.9790
1.7570 -5.2713 0.2191 0.9780
2.3046 -5.2857 0.2274 0.9772
2.9002 -5.3016 0.2383 0.9761
7.5427 -5.4203 0.3662 0.9635
-1.2625 -5.1947 0.2108 0.9788
-0.7815 -5.2067 0.2076 0.9791
-0.3112 -5.2185 0.2061 0.9793
0.1562 -5.2301 0.2063 0.9793
1.1129 -5.2544 0.2118 0.9787
1.6187 -5.2676 0.2173 0.9782
-1.1321 -5.1890 0.0897 0.9790
-0.6556 -5.2010 0.0885 0.9792
-0.1875 -5.2128 0.0881 0.9793
0.2796 -5.2247 0.0884 0.9793
1.2419 -5.2493 0.0911 0.9787
1.7540 -5.2625 0.0937 0.9781
2.3006 -5.2766 0.0972 0.9772
5.1772 -5.3516 0.1258 0.9707
-0.3107 -5.2097 0.0882 0.9793
0.1560 -5.2216 0.0882 0.9793
1.6160 -5.2589 0.0929 0.9782
-9.1256 11.0294 -0.0806 0.9443
-1.1325 -5.1907 -0.0299 0.9790
1.2420 -5.2500 -0.0304 0.9787
1.7542 -5.2629 -0.0312 0.9781
2.3007 -5.2768 -0.0324 0.9772
2.8949 -5.2918 -0.0340 0.9762
4.3030 -5.3275 -0.0386 0.9730
6.2224 -5.3758 -0.0463 0.9676
-9.2425 -13.6235 -0.0927 0.9363
-1.2607 -5.1875 -0.0301 0.9789
1.6162 -5.2594 -0.0310 0.9782
-9.1262 11.0301 -0.4031 0.9443
-0.6561 -5.2054 -0.1477 0.9792
-0.1877 -5.2173 -0.1470 0.9793
0.2798 -5.2288 -0.1474 0.9793
1.2422 -5.2508 -0.1519 0.9786
1.7548 -5.2646 -0.1563 0.9780
2.3016 -5.2788 -0.1622 0.9772
6.2252 -5.3782 -0.2316 0.9676
7.5290 -5.4105 -0.2611 0.9636
-9.2420 -13.6229 -0.4635 0.9362
-1.2614 -5.1902 -0.1504 0.9789
-0.3109 -5.2142 -0.1471 0.9793
-0.6565 -5.2081 -0.2662 0.9792
-0.1878 -5.2200 -0.2649 0.9793
0.2799 -5.2314 -0.2657 0.9792
0.7542 -5.2422 -0.2686 0.9790
1.7549 -5.2651 -0.2815 0.9780
2.8971 -5.2959 -0.3061 0.9761
4.3070 -5.3324 -0.3476 0.9729
6.2279 -5.3805 -0.4174 0.9676
-1.2620 -5.1929 -0.2710 0.9788
-0.7812 -5.2050 -0.2669 0.9791
0.1562 -5.2286 -0.2653 0.9793
1.1120 -5.2504 -0.2722 0.9787
1.6169 -5.2619 -0.2792 0.9782
-9.1273 11.0315 -1.0498 0.9442
-0.1879 -5.2227 -0.3832 0.9793
2.8974 -5.2965 -0.4427 0.9761
3.5583 -5.3144 -0.4689 0.9747
4.3088 -5.3346 -0.5028 0.9729
-0.7551 18.1128 -1.3292 0.9299
0.1563 -5.2312 -0.3837 0.9792
0.6283 -5.2420 -0.3871 0.9790
1.6178 -5.2648 -0.4038 0.9782
17.2720 8.8511 -1.8633 0.9250
16.3728 10.3331 -1.8587 0.9251
15.3463 11.7247 -1.8541 0.9253
12.9497 14.1953 -1.8447 0.9257
11.6006 15.2560 -1.8400 0.9259
7.0886 17.6527 -1.8263 0.9264
3.8176 18.5460 -1.8178 0.9267
2.1415 18.7723 -1.8139 0.9269
0.4555 18.8503 -1.8103 0.9270
-1.1298 17.2877 -1.6632 0.9328
-4.5339 18.2028 -1.8010 0.9274
-6.1329 17.7010 -1.7985 0.9275
-7.6801 17.0626 -1.7964 0.9276
-9.1644 16.2927 -1.7946 0.9276
-8.9723 -17.1055 -1.8544 0.9253
-5.8147 -18.5195 -1.8635 0.9250
-1.1349 -5.2017 -0.5111 0.9788
-0.1880 -5.2254 -0.5020 0.9792
3.5586 -5.3149 -0.6141 0.9746
6.2292 -5.3817 -0.7903 0.9675
7.5275 -5.4093 -0.8899 0.9634
17.4870 8.4464 -1.8644 0.9249
16.6228 9.9504 -1.8599 0.9251
15.6290 11.3669 -1.8553 0.9253
14.5148 12.6852 -1.8507 0.9255
11.9654 14.9881 -1.8412 0.9258
10.5522 15.9561 -1.8365 0.9260
9.0623 16.7925 -1.8319 0.9262
7.5080 17.4916 -1.8274 0.9264
5.9018 18.0491 -1.8231 0.9265
0.9007 18.8441 -1.8112 0.9270
-0.7197 17.2633 -1.6588 0.9329
-2.2904 17.3724 -1.6823 0.9320
-4.1047 18.3119 -1.8017 0.9274
-7.2775 17.2441 -1.7969 0.9275
-8.7795 16.5084 -1.7951 0.9276
-9.3672 -16.8779 -1.8532 0.9254
-6.2461 -18.3655 -1.8624 0.9250
-1.2634 -5.1985 -0.5136 0.9787
0.1563 -5.2339 -0.5027 0.9792
0.6286 -5.2447 -0.5071 0.9790
1.1132 -5.2558 -0.5158 0.9786
1.6187 -5.2676 -0.5291 0.9781
16.9339 -2.6008 -2.0351 0.9333
16.6793 3.4731 -2.0238 0.9337
16.2747 4.9403 -2.0203 0.9338
15.7400 6.3624 -2.0167 0.9339
14.8021 7.5854 -1.9757 0.9352
11.4703 10.5120 -1.8481 0.9393
10.4641 11.4706 -1.8443 0.9394
4.4313 14.7190 -1.8259 0.9400
0.3694 15.2870 -1.8164 0.9403
-2.3491 15.0648 -1.8111 0.9404
-3.6804 14.7762 -1.8088 0.9405
-4.9797 14.3725 -1.8068 0.9406
-6.2374 13.8572 -1.8051 0.9406
-7.4441 13.2344 -1.8037 0.9407
-8.5909 12.5090 -1.8026 0.9407
-15.4814 5.5294 -1.9527 0.9359
-16.4405 1.2316 -1.9584 0.9357
-16.4413 -1.7173 -1.9636 0.9356
-16.2471 -3.1836 -1.9666 0.9355
-15.4742 -6.0436 -1.9733 0.9353
-14.9001 -7.4150 -1.9770 0.9352
-12.4754 -11.1651 -1.9887 0.9348
-10.3325 -13.2606 -1.9969 0.9345
-8.4298 -13.0796 -1.8484 0.9392
-7.2428 -13.8083 -1.8522 0.9391
-4.6894 -14.9356 -1.8595 0.9389
-1.1355 -5.2044 -0.6328 0.9788
-0.6575 -5.2163 -0.6245 0.9790
-0.2837 -7.8861 -0.9374 0.9687
0.4228 -7.9016 -0.9399 0.9686
0.7554 -5.2508 -0.6301 0.9789
1.2448 -5.2616 -0.6423 0.9785
1.7578 -5.2736 -0.6603 0.9779
2.3050 -5.2866 -0.6851 0.9770
3.5598 -5.3166 -0.7600 0.9746
4.3097 -5.3358 -0.8147 0.9727
7.5270 -5.4090 -1.1010 0.9634
14.7967 -8.7430 -2.0415 0.9331
16.5535 -4.4998 -2.0377 0.9332
16.8727 -3.0005 -2.0357 0.9333
17.0537 -1.4801 -2.0334 0.9334
16.9985 1.5730 -2.0278 0.9335
15.2354 7.3589 -2.0098 0.9341
13.4109 8.0277 -1.8566 0.9390
9.6722 12.1156 -1.8415 0.9395
3.4488 14.9582 -1.8234 0.9400
2.0955 15.1795 -1.8202 0.9401
-0.6362 15.2608 -1.8143 0.9403
-3.3317 14.8636 -1.8094 0.9405
-4.6405 14.4901 -1.8073 0.9406
-5.9101 14.0038 -1.8055 0.9406
-7.1311 13.4089 -1.8040 0.9407
-8.2946 12.7101 -1.8028 0.9407
-9.3919 11.9127 -1.8020 0.9407
-11.2752 11.9334 -1.9502 0.9360
-14.0370 8.5192 -1.9505 0.9360
-15.8206 4.5016 -1.9539 0.9359
-16.4018 1.6187 -1.9578 0.9358
-16.5011 0.1477 -1.9602 0.9357
-16.4709 -1.3284 -1.9629 0.9356
-15.0634 -7.0578 -1.9760 0.9352
-14.4003 -8.3908 -1.9798 0.9351
-13.6202 -9.6622 -1.9836 0.9349
-11.7316 -11.9797 -1.9917 0.9347
-10.6369 -13.0063 -1.9958 0.9346
-6.3282 -14.2760 -1.8549 0.9390
-5.0380 -14.8132 -1.8586 0.9389
-0.7825 -5.2132 -0.6262 0.9790
-0.3116 -5.2250 -0.6218 0.9791
1.1137 -5.2586 -0.6385 0.9786
1.6195 -5.2704 -0.6549 0.9780
14.1507 -2.1734 -2.0285 0.9438
14.2815 0.3778 -2.0242 0.9439
14.1733 1.6497 -2.0218 0.9440
13.9507 2.9049 -2.0191 0.9441
13.1726 5.3246 -2.0131 0.9442
12.6245 6.4695 -2.0100 0.9443
9.6117 8.8087 -1.8473 0.9487
8.7715 9.6152 -1.8441 0.9488
7.8641 10.3421 -1.8409 0.9489
6.8972 10.9842 -1.8377 0.9490
4.8170 11.9956 -1.8316 0.9491
3.7205 12.3580 -1.8286 0.9492
2.5980 12.6214 -1.8258 0.9493
1.4584 12.7842 -1.8231 0.9493
0.3104 12.8457 -1.8206 0.9494
-4.1880 12.0875 -1.8125 0.9496
-5.2465 11.6558 -1.8111 0.9497
-6.2623 11.1333 -1.8099 0.9497
-7.2278 10.5241 -1.8090 0.9497
-8.1357 9.8330 -1.8083 0.9497
-9.7209 9.8138 -1.9572 0.9457
-10.5578 8.9059 -1.9571 0.9457
-13.0235 4.6515 -1.9595 0.9457
-13.6635 2.2639 -1.9624 0.9456
-13.8761 -0.2033 -1.9663 0.9455
-13.6522 -2.6751 -1.9712 0.9453
-12.9957 -5.0756 -1.9768 0.9452
-12.5099 -6.2255 -1.9799 0.9451
-11.9231 -7.3296 -1.9831 0.9450
-11.2395 -8.3790 -1.9864 0.9449
-10.4641 -9.3651 -1.9897 0.9448
-5.0183 -12.0827 -1.8538 0.9485
-1.1361 -5.2072 -0.7552 0.9787
-0.6578 -5.2191 -0.7453 0.9790
-0.1994 -5.5411 -0.7856 0.9778
0.7559 -5.2544 -0.7522 0.9788
1.2457 -5.2656 -0.7667 0.9784
1.7590 -5.2774 -0.7882 0.9778
4.3120 -5.3386 -0.9723 0.9727
7.5264 -5.4086 -1.3132 0.9632
12.9561 -6.1671 -2.0331 0.9437
13.4480 -4.9828 -2.0320 0.9437
13.8299 -3.7594 -2.0307 0.9437
14.2908 0.0408 -2.0249 0.9439
14.0204 2.5759 -2.0198 0.9440
13.7151 3.8123 -2.0170 0.9441
13.3000 5.0144 -2.0140 0.9442
10.5888 7.7012 -1.8552 0.9485
9.8213 8.5833 -1.8481 0.9487
9.0000 9.4098 -1.8449 0.9488
8.1096 10.1583 -1.8417 0.9488
4.0127 12.2719 -1.8294 0.9492
2.8963 12.5616 -1.8265 0.9493
-0.5347 12.8260 -1.8189 0.9495
-4.9710 11.7787 -1.8115 0.9497
-7.9021 10.0230 -1.8084 0.9497
-10.3447 9.1525 -1.9571 0.9457
-11.8107 7.1680 -1.9575 0.9457
-13.3077 3.7866 -1.9604 0.9456
-13.8729 0.1241 -1.9657 0.9455
-13.8445 -1.1166 -1.9680 0.9454
-13.7068 -2.3514 -1.9705 0.9454
-13.1066 -4.7656 -1.9760 0.9452
-12.6480 -5.9261 -1.9790 0.9451
-10.6774 -9.1115 -1.9888 0.9449
-9.8379 -10.0459 -1.9923 0.9448
-4.2178 -12.4016 -1.8560 0.9485
-0.7829 -5.2160 -0.7473 0.9789
-0.4700 -7.8817 -1.1187 0.9686
0.1588 -5.3169 -0.7537 0.9787
0.6294 -5.2516 -0.7494 0.9789
1.1146 -5.2626 -0.7622 0.9785
12.1422 -1.8649 -2.0238 0.9514
12.2581 0.3243 -2.0201 0.9515
11.9785 2.4943 -2.0157 0.9516
11.6936 3.5497 -2.0132 0.9517
11.3151 4.5738 -2.0106 0.9517
10.2925 6.4957 -2.0050 0.9519
9.6468 7.3703 -2.0000 0.9520
8.4439 7.7384 -1.8868 0.9546
7.5434 8.2690 -1.8439 0.9556
6.7648 8.8964 -1.8412 0.9557
5.9345 9.4509 -1.8384 0.9558
1.2562 11.0119 -1.8259 0.9561
0.2674 11.0670 -1.8237 0.9561
-0.7211 11.0344 -1.8217 0.9562
-5.3996 9.5996 -1.8144 0.9563
-6.2325 9.0750 -1.8136 0.9564
-7.3344 8.8645 -1.8954 0.9544
-10.8213 4.9952 -1.9635 0.9528
-11.9156 0.8926 -1.9685 0.9527
-11.1917 -4.3710 -1.9793 0.9525
-10.7709 -5.3601 -1.9820 0.9524
-10.2634 -6.3093 -1.9847 0.9523
-9.0034 -8.0578 -1.9905 0.9522
-8.2600 -8.8427 -1.9934 0.9521
-6.5748 -10.2014 -1.9994 0.9520
-5.6402 -10.7530 -2.0003 0.9520
-4.5454 -10.9440 -1.9522 0.9531
0.7564 -5.2576 -0.8750 0.9787
5.2370 -5.4133 -1.2408 0.9699
6.2924 -5.4362 -1.3699 0.9669
10.6002 -6.2635 -2.0283 0.9513
11.1137 -5.2901 -2.0277 0.9513
12.2656 0.0350 -2.0206 0.9515
11.4239 4.3071 -2.0113 0.9517
10.9789 5.3029 -2.0086 0.9518
9.8325 7.1511 -2.0029 0.9519
8.8352 7.7215 -1.9330 0.9535
7.7395 8.0919 -1.8446 0.9556
6.9755 8.7377 -1.8419 0.9557
5.2942 9.8103 -1.8365 0.9558
4.3907 10.2291 -1.8338 0.9559
-1.4443 10.9548 -1.8203 0.9562
-2.4146 10.7720 -1.8186 0.9562
-4.2857 10.1548 -1.8158 0.9563
-6.8142 8.6432 -1.8132 0.9564
-10.1849 6.1813 -1.9627 0.9528
-10.6994 5.2486 -1.9633 0.9528
-11.1301 4.2739 -1.9641 0.9528
-11.7270 2.2285 -1.9665 0.9528
-11.8885 1.1733 -1.9680 0.9527
-11.8093 -2.0259 -1.9739 0.9526
-11.2878 -4.1043 -1.9787 0.9525
-10.8905 -5.1027 -1.9813 0.9524
-10.4056 -6.0632 -1.9840 0.9524
-9.8365 -6.9781 -1.9868 0.9523
-9.1874 -7.8400 -1.9897 0.9522
-7.6689 -9.3772 -1.9956 0.9521
-6.8110 -10.0395 -1.9986 0.9520
-4.8644 -10.9738 -1.9775 0.9525
-3.7194 -10.9363 -1.9030 0.9543
-1.2654 -5.2069 -0.8827 0.9785
0.1576 -5.2763 -0.8696 0.9788
0.7495 -6.2533 -1.0375 0.9748
1.1153 -5.2658 -0.8867 0.9784
10.7185 -0.6759 -2.0187 0.9572
10.7270 0.2838 -2.0170 0.9573
10.6490 1.2395 -2.0151 0.9573
10.4852 2.1833 -2.0131 0.9573
10.2373 3.1076 -2.0109 0.9574
9.9077 4.0049 -2.0086 0.9574
9.4991 4.8679 -2.0062 0.9575
9.0153 5.6897 -2.0038 0.9575
7.8393 7.1843 -1.9987 0.9576
7.0720 7.7522 -1.9723 0.9582
5.2028 8.2858 -1.8390 0.9610
0.2347 9.7121 -1.8260 0.9612
-0.6329 9.6849 -1.8243 0.9613
-3.9718 8.8238 -1.8188 0.9614
-4.7415 8.4296 -1.8179 0.9614
-7.3622 7.4326 -1.9664 0.9583
-7.9961 6.7450 -1.9663 0.9583
-8.5671 6.0044 -1.9664 0.9583
-9.0706 5.2162 -1.9667 0.9583
-10.3415 1.7135 -1.9703 0.9582
-10.4606 0.7836 -1.9717 0.9582
-10.4509 -1.0916 -1.9751 0.9581
-10.3217 -2.0225 -1.9770 0.9581
-10.1105 -2.9393 -1.9790 0.9581
-9.4479 -4.7017 -1.9836 0.9580
-9.0012 -5.5334 -1.9860 0.9579
-7.2403 -7.7510 -1.9936 0.9577
-6.5276 -8.3775 -1.9962 0.9577
-4.9460 -9.4296 -2.0014 0.9576
-0.8001 -3.6673 -0.7055 0.9848
0.2825 -5.2788 -0.9936 0.9787
0.7608 -5.2880 -1.0042 0.9785
1.2472 -5.2719 -1.0183 0.9782
1.7610 -5.2835 -1.0468 0.9776
2.9046 -5.3095 -1.1376 0.9757
8.1508 -7.0418 -2.0246 0.9571
10.7018 -0.9288 -2.0191 0.9572
10.5367 1.9358 -2.0136 0.9573
10.0025 3.7711 -2.0093 0.9574
9.1501 5.4772 -2.0044 0.9575
8.6135 6.2646 -2.0019 0.9576
8.0093 6.9997 -1.9993 0.9576
7.3203 7.6536 -1.9906 0.9578
6.2179 7.7887 -1.8733 0.9602
5.3987 8.1635 -1.8396 0.9609
4.6421 8.6019 -1.8372 0.9610
3.8505 8.9708 -1.8349 0.9610
3.0303 9.2675 -1.8327 0.9611
2.1880 9.4899 -1.8305 0.9611
1.3303 9.6365 -1.8285 0.9612
-0.4044 9.6995 -1.8247 0.9613
-3.7630 8.9164 -1.8191 0.9614
-5.3347 8.1746 -1.8347 0.9610
-7.1850 7.6045 -1.9664 0.9583
-7.8348 6.9319 -1.9663 0.9583
-8.9445 5.4285 -1.9666 0.9583
-9.3960 4.6092 -1.9671 0.9583
-10.0746 2.8667 -1.9688 0.9583
-10.2964 1.9567 -1.9700 0.9582
-10.4372 1.0300 -1.9713 0.9582
-10.4957 0.0939 -1.9729 0.9582
-10.3639 -1.7779 -1.9765 0.9581
-10.1741 -2.6991 -1.9785 0.9581
-9.1263 -5.3177 -1.9853 0.9579
-8.6257 -6.1191 -1.9878 0.9579
-8.0550 -6.8737 -1.9903 0.9578
-6.7212 -8.2183 -1.9955 0.9577
-5.9682 -8.7972 -1.9981 0.9577
-5.1654 -9.3071 -2.0007 0.9576
-3.4360 -10.1029 -2.0058 0.9575
-0.2108 -3.5354 -0.6657 0.9857
0.1576 -5.2761 -0.9921 0.9787
1.1159 -5.2689 -1.0123 0.9783
9.4330 -1.4488 -2.0173 0.9617
9.3142 1.9395 -2.0111 0.9618
9.0951 2.7609 -2.0091 0.9619
8.8033 3.5585 -2.0071 0.9619
8.4414 4.3258 -2.0050 0.9620
6.3637 6.9758 -1.9959 0.9621
5.7006 7.4969 -1.9908 0.9622
4.8999 7.8034 -1.9477 0.9630
3.9945 7.8390 -1.8597 0.9647
3.2354 8.0569 -1.8353 0.9651
2.5002 8.3047 -1.8333 0.9652
1.7468 8.4860 -1.8314 0.9652
0.9810 8.5996 -1.8296 0.9652
0.2089 8.6448 -1.8279 0.9653
-0.5635 8.6215 -1.8263 0.9653
-2.0850 8.3712 -1.8236 0.9653
-2.8225 8.1464 -1.8224 0.9654
-5.2769 7.6836 -1.9703 0.9626
-7.6300 5.3476 -1.9695 0.9626
-8.4631 3.9066 -1.9703 0.9626
-9.2084 1.5257 -1.9730 0.9626
-9.3137 0.6977 -1.9743 0.9625
-9.3455 -0.1369 -1.9757 0.9625
-9.3034 -0.9717 -1.9772 0.9625
-9.1874 -1.8002 -1.9790 0.9624
-8.9983 -2.6160 -1.9808 0.9624
-8.7374 -3.4125 -1.9828 0.9624
-8.4065 -4.1834 -1.9848 0.9623
-7.5447 -5.6245 -1.9892 0.9623
-5.1216 -7.9466 -1.9984 0.9621
-4.3965 -8.3819 -2.0007 0.9620
-3.6345 -8.7508 -2.0029 0.9620
-2.8416 -9.0503 -2.0051 0.9620
-0.7319 -3.3546 -0.7258 0.9861
0.2825 -5.2786 -1.1174 0.9786
0.7937 -5.5172 -1.1782 0.9775
1.2475 -5.2729 -1.1454 0.9781
1.7614 -5.2846 -1.1775 0.9775
2.3094 -5.2968 -1.2214 0.9767
2.9046 -5.3095 -1.2793 0.9756
7.7649 -5.5800 -2.0212 0.9617
8.2310 -4.8635 -2.0209 0.9617
8.6302 -4.1080 -2.0204 0.9617
8.9595 -3.3197 -2.0197 0.9617
9.3977 -1.6712 -2.0177 0.9617
9.5322 0.0272 -2.0149 0.9618
9.1601 2.5462 -2.0097 0.9619
7.6563 5.5684 -2.0011 0.9620
5.8838 7.3702 -1.9935 0.9622
1.1839 8.5763 -1.8300 0.9652
-0.3600 8.6343 -1.8267 0.9653
-1.8873 8.4195 -1.8239 0.9653
-2.6299 8.2120 -1.8227 0.9654
-3.3770 8.0019 -1.8359 0.9651
-5.0890 7.7980 -1.9683 0.9626
-5.7698 7.3184 -1.9699 0.9626
-8.3680 4.1049 -1.9702 0.9626
-8.7040 3.3423 -1.9708 0.9626
-9.1684 1.7423 -1.9727 0.9626
-9.2931 0.9171 -1.9739 0.9625
-9.3443 0.0836 -1.9753 0.9625
-9.3217 -0.7518 -1.9768 0.9625
-8.8131 -3.2045 -1.9822 0.9624
-7.6731 -5.4433 -1.9886 0.9623
-6.5974 -6.7369 -1.9932 0.9622
-5.3060 -7.8212 -1.9978 0.9621
-4.5917 -8.2733 -2.0001 0.9621
-1.2668 -5.2126 -1.1339 0.9783
-0.4971 -3.3120 -0.7079 0.9864
0.1576 -5.2759 -1.1157 0.9787
8.4745 -1.3016 -2.0151 0.9654
8.4994 0.9893 -2.0110 0.9655
8.3704 1.7430 -2.0094 0.9655
8.1743 2.4814 -2.0077 0.9655
7.9129 3.1985 -2.0059 0.9655
7.5884 3.8887 -2.0040 0.9656
6.7621 5.1663 -2.0000 0.9656
6.2672 5.7436 -1.9979 0.9657
5.7233 6.2738 -1.9958 0.9657
5.1348 6.7527 -1.9938 0.9657
3.8383 7.5325 -1.9869 0.9659
3.1399 7.8193 -1.9803 0.9660
2.3667 7.8612 -1.9295 0.9668
1.6229 7.8841 -1.8918 0.9675
-1.2390 7.9459 -1.8900 0.9675
-1.9814 7.9552 -1.9268 0.9669
-2.7420 7.9139 -1.9684 0.9662
-4.1164 7.3183 -1.9734 0.9661
-5.9049 5.9614 -1.9720 0.9661
-6.8713 4.8159 -1.9721 0.9661
-7.2749 4.1836 -1.9723 0.9661
-7.9075 2.8243 -1.9734 0.9661
-8.1314 2.1077 -1.9742 0.9661
-8.2912 1.3738 -1.9752 0.9661
-8.4136 -0.1233 -1.9776 0.9660
-8.0989 -2.3545 -1.9822 0.9659
-3.2675 -7.8674 -2.0021 0.9656
-0.4019 -3.1882 -0.7552 0.9869
0.2288 -4.2764 -1.0065 0.9826
0.8090 -5.6231 -1.3352 0.9769
1.2477 -5.2740 -1.2737 0.9780
1.7615 -5.2849 -1.3093 0.9774
2.3093 -5.2966 -1.3580 0.9765
2.9044 -5.3092 -1.4223 0.9754
4.7764 -7.1337 -2.0177 0.9653
5.3957 -6.6803 -2.0182 0.9653
5.2361 -5.4124 -1.7699 0.9695
8.4427 -1.5014 -2.0154 0.9654
8.5381 -0.7410 -2.0142 0.9654
8.5647 0.0244 -2.0129 0.9654
8.2325 2.2883 -2.0082 0.9655
6.8839 5.0066 -2.0005 0.9656
6.4027 5.5956 -1.9985 0.9657
4.6759 7.0705 -1.9922 0.9658
3.3263 7.7494 -1.9820 0.9659
0.3783 7.9162 -1.8626 0.9680
-1.0472 7.9431 -1.8830 0.9676
-2.5494 7.9605 -1.9645 0.9662
-3.2612 7.7274 -1.9712 0.9661
-3.9429 7.4141 -1.9736 0.9661
-4.5877 7.0299 -1.9729 0.9661
-5.1959 6.5905 -1.9724 0.9661
-5.7628 6.0992 -1.9721 0.9661
-6.7556 4.9765 -1.9720 0.9661
-7.8379 3.0098 -1.9732 0.9661
-8.3671 0.8257 -1.9760 0.9660
-8.4127 0.0753 -1.9772 0.9660
-8.3916 -0.6768 -1.9786 0.9660
-7.9316 -2.8840 -1.9835 0.9659
-7.6495 -3.5841 -1.9854 0.9659
-6.9034 -4.8973 -1.9892 0.9658
-5.9343 -6.0597 -1.9933 0.9657
-5.3750 -6.5723 -1.9954 0.9657
-4.7716 -7.0334 -1.9975 0.9657
-4.1287 -7.4391 -1.9996 0.9656
-3.4514 -7.7860 -2.0016 0.9656
-2.7450 -8.0711 -2.0036 0.9656
-0.4769 -3.1770 -0.7550 0.9869
-0.1913 -3.2075 -0.7552 0.9869
0.1285 -4.3016 -1.0114 0.9825
7.6853 -1.1804 -2.0132 0.9684
7.7559 -0.4891 -2.0121 0.9684
7.7638 0.2054 -2.0109 0.9684
7.4156 2.2510 -2.0065 0.9685
7.1790 2.9019 -2.0049 0.9685
6.1366 4.6884 -1.9995 0.9686
5.1949 5.6946 -1.9958 0.9687
4.6612 6.1299 -1.9939 0.9687
2.8617 7.1263 -1.9883 0.9688
2.2119 7.3469 -1.9866 0.9688
1.5445 7.5034 -1.9835 0.9688
0.8670 7.5999 -1.9805 0.9689
0.1846 7.6396 -1.9786 0.9689
-1.8464 7.4129 -1.9780 0.9689
-2.4997 7.2146 -1.9769 0.9689
-3.7402 6.6495 -1.9754 0.9690
-4.8611 5.8752 -1.9744 0.9690
-5.3657 5.4170 -1.9741 0.9690
-7.3881 1.9150 -1.9761 0.9690
-7.6183 0.5707 -1.9780 0.9689
-7.6433 -0.1120 -1.9792 0.9689
-7.6077 -0.7946 -1.9805 0.9689
-7.3558 -2.1385 -1.9834 0.9688
-7.1412 -2.7891 -1.9850 0.9688
-3.5874 -6.8394 -1.9996 0.9686
-2.3177 -7.3818 -2.0033 0.9685
-0.6778 -3.1068 -0.8233 0.9869
-0.3919 -3.1091 -0.8114 0.9871
0.2275 -4.2515 -1.1024 0.9826
0.7910 -5.4984 -1.4383 0.9773
3.1091 -7.1310 -2.0142 0.9684
4.8925 -6.0572 -2.0160 0.9683
5.4146 -5.5969 -2.0163 0.9683
7.0293 -3.3459 -2.0157 0.9683
7.2979 -2.7041 -2.0151 0.9684
7.6563 -1.3616 -2.0135 0.9684
7.7298 0.7153 -2.0099 0.9684
7.4682 2.0759 -2.0070 0.9685
7.2471 2.7323 -2.0053 0.9685
6.9682 3.3657 -2.0036 0.9685
5.3291 5.5718 -1.9963 0.9686
3.6513 6.7659 -1.9906 0.9687
3.0297 7.0585 -1.9888 0.9688
2.3851 7.2943 -1.9870 0.9688
1.7220 7.4685 -1.9845 0.9688
0.3649 7.6347 -1.9790 0.9689
-0.3182 7.6324 -1.9779 0.9689
-0.9985 7.5732 -1.9778 0.9689
-1.6712 7.4554 -1.9783 0.9689
-2.9678 7.0323 -1.9763 0.9690
-5.2365 5.5422 -1.9742 0.9690
-5.7102 5.0521 -1.9741 0.9690
-7.1217 2.7348 -1.9752 0.9690
-7.3401 2.0886 -1.9759 0.9690
-7.5005 1.4253 -1.9768 0.9689
-7.6016 0.7502 -1.9777 0.9689
-7.6426 0.0684 -1.9789 0.9689
-7.6230 -0.6148 -1.9801 0.9689
-7.5428 -1.2940 -1.9815 0.9689
-7.4027 -1.9639 -1.9830 0.9689
-6.9466 -3.2548 -1.9862 0.9688
-6.6340 -3.8655 -1.9880 0.9688
-6.2680 -4.4465 -1.9898 0.9687
-5.8512 -4.9931 -1.9916 0.9687
-4.8789 -5.9657 -1.9954 0.9687
-3.7469 -6.7511 -1.9992 0.9686
-3.1319 -7.0653 -2.0010 0.9686
-0.1868 -3.1330 -0.8126 0.9871
0.1294 -4.3299 -1.1216 0.9823
0.6335 -5.2859 -1.3784 0.9782
7.0235 -1.0787 -2.0116 0.9709
7.0883 -0.4470 -2.0106 0.9709
7.0960 0.1877 -2.0095 0.9709
7.0466 0.8202 -2.0083 0.9709
6.9406 1.4452 -2.0070 0.9710
6.7790 2.0578 -2.0055 0.9710
6.2951 3.2259 -2.0025 0.9710
5.6115 4.2872 -1.9991 0.9711
4.7511 5.2081 -1.9957 0.9711
3.7423 5.9599 -1.9922 0.9712
1.4142 6.8704 -1.9858 0.9713
0.1692 7.0024 -1.9829 0.9713
-0.4565 6.9850 -1.9816 0.9713
-1.0778 6.9123 -1.9805 0.9713
-1.6899 6.7848 -1.9794 0.9714
-2.2880 6.6037 -1.9785 0.9714
-3.9526 5.7552 -1.9765 0.9714
-4.9119 4.9588 -1.9759 0.9714
-5.3349 4.5002 -1.9758 0.9714
-6.0513 3.4799 -1.9761 0.9714
-6.3391 2.9262 -1.9765 0.9714
-6.5769 2.3490 -1.9771 0.9714
-6.9623 -0.7272 -1.9817 0.9713
-6.8740 -1.3469 -1.9830 0.9713
-6.5342 -2.5520 -1.9859 0.9713
-6.2851 -3.1277 -1.9874 0.9712
-5.9855 -3.6795 -1.9890 0.9712
-5.6377 -4.2028 -1.9907 0.9712
-5.2443 -4.6935 -1.9924 0.9712
-4.8083 -5.1475 -1.9941 0.9711
-4.3332 -5.5612 -1.9958 0.9711
-3.2804 -6.2540 -1.9992 0.9711
-2.1190 -6.7490 -2.0026 0.9710
-0.6630 -3.0388 -0.8805 0.9872
-0.1108 -3.0785 -0.8721 0.9873
1.0109 -7.0264 -2.0096 0.9709
2.2470 -6.7415 -2.0117 0.9709
3.4131 -6.2390 -2.0132 0.9709
3.9577 -5.9110 -2.0138 0.9709
4.9477 -5.1143 -2.0145 0.9709
5.3849 -4.6522 -2.0146 0.9708
6.6690 -2.4710 -2.0134 0.9709
6.9740 1.2813 -2.0073 0.9710
5.3139 4.6441 -1.9979 0.9711
4.8738 5.0957 -1.9962 0.9711
4.3954 5.5058 -1.9944 0.9711
3.8828 5.8713 -1.9927 0.9712
3.3401 6.1893 -1.9910 0.9712
-0.2916 6.9950 -1.9820 0.9713
-0.9146 6.9368 -1.9808 0.9713
-2.1318 6.6566 -1.9787 0.9714
-2.7166 6.4369 -1.9779 0.9714
-4.3219 5.4820 -1.9762 0.9714
-4.7936 5.0734 -1.9759 0.9714
-5.2272 4.6248 -1.9758 0.9714
-6.2679 3.0748 -1.9764 0.9714
-6.7188 1.9118 -1.9775 0.9714
-6.9947 0.0626 -1.9802 0.9713
-6.9764 -0.5626 -1.9814 0.9713
-6.9027 -1.1842 -1.9826 0.9713
-6.5913 -2.3966 -1.9855 0.9713
-6.3558 -2.9779 -1.9870 0.9712
-5.7340 -4.0677 -1.9902 0.9712
-5.3524 -4.5674 -1.9919 0.9712
-4.4622 -5.4561 -1.9954 0.9711
-3.4263 -6.1735 -1.9988 0.9711
-2.2772 -6.6957 -2.0021 0.9710
-0.7475 -3.0756 -0.8960 0.9869
0.6335 -5.2857 -1.5070 0.9781
6.5273 0.1727 -2.0084 0.9730
6.4822 0.7545 -2.0072 0.9731
4.7871 4.3872 -1.9972 0.9732
4.3728 4.7934 -1.9956 0.9732
3.9241 5.1606 -1.9941 0.9732
1.8632 6.1887 -1.9879 0.9733
1.3021 6.3258 -1.9865 0.9733
-0.9926 6.3657 -1.9816 0.9734
-1.5564 6.2485 -1.9806 0.9734
-2.6410 5.8673 -1.9790 0.9734
-3.6406 5.3010 -1.9780 0.9734
-4.0988 4.9538 -1.9776 0.9735
-4.5243 4.5675 -1.9774 0.9735
-4.9140 4.1451 -1.9773 0.9735
-5.2647 3.6899 -1.9774 0.9735
-5.5738 3.2053 -1.9776 0.9735
-5.8388 2.6952 -1.9780 0.9734
-6.4217 0.4811 -1.9807 0.9734
-6.3299 -1.2403 -1.9839 0.9734
-5.5103 -3.3874 -1.9895 0.9733
-5.1898 -3.8689 -1.9910 0.9733
-4.4257 -4.7379 -1.9942 0.9732
-3.9881 -5.1183 -1.9957 0.9732
-3.5179 -5.4583 -1.9973 0.9732
-2.4947 -6.0064 -2.0005 0.9731
-1.9498 -6.2099 -2.0020 0.9731
-0.1087 -3.0219 -0.9301 0.9874
0.2824 -5.2778 -1.6256 0.9781
2.0668 -6.2007 -2.0104 0.9730
2.6132 -5.9937 -2.0111 0.9730
4.5503 -4.7035 -2.0129 0.9730
4.9524 -4.2785 -2.0130 0.9730
5.6338 -3.3289 -2.0127 0.9730
6.3101 -1.7153 -2.0113 0.9730
6.4356 -1.1445 -2.0105 0.9730
6.4992 0.6014 -2.0075 0.9731
6.4157 1.1787 -2.0063 0.9731
6.2807 1.7458 -2.0051 0.9731
6.0956 2.2981 -2.0037 0.9731
5.8618 2.8313 -2.0023 0.9731
5.5813 3.3410 -2.0008 0.9731
4.4856 4.6898 -1.9961 0.9732
4.0456 5.0676 -1.9945 0.9732
3.5740 5.4044 -1.9929 0.9732
2.5517 5.9447 -1.9898 0.9733
2.0091 6.1442 -1.9883 0.9733
0.8828 6.3946 -1.9855 0.9733
-0.2685 6.4415 -1.9830 0.9734
-0.8423 6.3882 -1.9819 0.9734
-1.4087 6.2843 -1.9809 0.9734
-1.9634 6.1306 -1.9800 0.9734
-2.5020 5.9285 -1.9792 0.9734
-3.5147 5.3857 -1.9781 0.9734
-4.4154 4.6731 -1.9774 0.9735
-4.8148 4.2599 -1.9773 0.9735
-5.1761 3.8130 -1.9774 0.9735
-6.4246 -0.5181 -1.9825 0.9734
-6.3563 -1.0904 -1.9836 0.9734
-4.5353 -4.6312 -1.9937 0.9732
-4.1069 -5.0217 -1.9953 0.9732
-3.6449 -5.3727 -1.9969 0.9732
-3.1531 -5.6812 -1.9985 0.9732
-0.4474 -2.9805 -0.9270 0.9875
0.0964 -3.2284 -0.9934 0.9866
0.7770 -6.4825 -2.0082 0.9730
1.9197 -6.2470 -2.0101 0.9730
6.0368 0.1597 -2.0074 0.9749
5.9953 0.6978 -2.0063 0.9749
5.5858 2.2579 -2.0027 0.9749
4.7775 3.6501 -1.9985 0.9750
4.4292 4.0592 -1.9971 0.9750
3.6311 4.7753 -1.9941 0.9750
2.7197 5.3373 -1.9912 0.9751
-1.9510 5.6309 -1.9809 0.9752
-2.4452 5.4323 -1.9802 0.9752
-2.9197 5.1908 -1.9797 0.9752
-4.1891 4.2292 -1.9787 0.9752
-4.8747 3.4165 -1.9787 0.9752
-5.1608 2.9678 -1.9789 0.9752
-5.4061 2.4955 -1.9792 0.9752
-5.7668 1.4948 -1.9803 0.9752
-5.9353 -0.6200 -1.9837 0.9752
-5.5686 -2.1749 -1.9872 0.9751
-5.3557 -2.6652 -1.9885 0.9751
-5.0998 -3.1350 -1.9899 0.9751
-4.0953 -4.3842 -1.9942 0.9750
-3.6901 -4.7359 -1.9957 0.9750
-3.2548 -5.0502 -1.9972 0.9750
-0.6377 -2.9229 -0.9944 0.9875
-0.1069 -2.9718 -0.9885 0.9875
0.2824 -5.2775 -1.7568 0.9780
1.9113 -5.7343 -2.0092 0.9748
2.9028 -5.3063 -2.0105 0.9748
3.3659 -5.0270 -2.0110 0.9748
4.9143 -3.5315 -2.0116 0.9748
5.2095 -3.0782 -2.0114 0.9748
5.4628 -2.6003 -2.0111 0.9748
5.9515 -1.0584 -2.0094 0.9748
6.0198 -0.5224 -2.0085 0.9749
6.0397 0.0172 -2.0076 0.9749
6.0109 0.5562 -2.0066 0.9749
5.6384 2.1258 -2.0030 0.9749
5.4225 2.6191 -2.0017 0.9749
4.8632 3.5370 -1.9989 0.9750
4.1504 4.3394 -1.9960 0.9750
2.8455 5.2727 -1.9916 0.9751
2.3615 5.5018 -1.9902 0.9751
1.8595 5.6867 -1.9888 0.9751
1.3433 5.8262 -1.9875 0.9751
-0.7797 5.9140 -1.9829 0.9752
-1.8177 5.6760 -1.9811 0.9752
-3.2543 4.9866 -1.9793 0.9752
-3.6859 4.6753 -1.9790 0.9752
-4.0883 4.3269 -1.9787 0.9752
-4.7926 3.5305 -1.9787 0.9752
-5.0892 3.0887 -1.9789 0.9752
-5.3455 2.6222 -1.9791 0.9752
-5.5595 2.1348 -1.9796 0.9752
-5.7295 1.6303 -1.9801 0.9752
-5.9636 0.0534 -1.9824 0.9752
-5.9475 -0.4797 -1.9834 0.9752
-5.7738 -1.5318 -1.9856 0.9751
-5.1714 -3.0133 -1.9895 0.9751
-4.1968 -4.2855 -1.9938 0.9750
-3.3725 -4.9710 -1.9968 0.9750
-2.9172 -5.2562 -1.9982 0.9750
-0.1764 -2.9579 -0.9850 0.9876
0.0920 -3.0806 -1.0245 0.9871
0.7186 -5.9954 -2.0072 0.9749
5.6089 0.1484 -2.0065 0.9764
5.5706 0.6484 -2.0055 0.9765
5.3605 1.6272 -2.0033 0.9765
4.9795 2.5518 -2.0009 0.9765
4.7286 2.9843 -1.9996 0.9765
3.3753 4.4389 -1.9942 0.9766
2.0738 5.1644 -1.9902 0.9766
1.6033 5.3256 -1.9889 0.9767
1.1206 5.4441 -1.9877 0.9767
-0.8546 5.4803 -1.9835 0.9767
-1.8144 5.2367 -1.9819 0.9767
-2.2741 5.0521 -1.9813 0.9767
-3.1350 4.5648 -1.9803 0.9767
-3.5296 4.2660 -1.9800 0.9768
-4.2317 3.5696 -1.9798 0.9768
-4.5338 3.1776 -1.9799 0.9768
-4.7999 2.7602 -1.9800 0.9768
-5.3632 1.3901 -1.9813 0.9767
-5.4677 0.9059 -1.9819 0.9767
-5.5288 0.4142 -1.9827 0.9767
-5.5193 -0.5765 -1.9845 0.9767
-5.3344 -1.5508 -1.9866 0.9767
-5.1776 -2.0222 -1.9878 0.9767
-4.9794 -2.4780 -1.9890 0.9766
-4.4650 -3.3286 -1.9916 0.9766
-4.1527 -3.7165 -1.9929 0.9766
-3.4300 -4.4020 -1.9956 0.9766
-2.5957 -4.9487 -1.9984 0.9765
-2.1448 -5.1642 -1.9997 0.9765
-0.6274 -2.8758 -1.0526 0.9876
-0.3619 -2.8708 -1.0348 0.9878
0.7990 -5.5539 -2.0065 0.9764
1.2923 -5.4627 -2.0074 0.9764
2.2451 -5.1494 -2.0089 0.9764
2.6967 -4.9296 -2.0094 0.9764
3.5320 -4.3729 -2.0102 0.9764
3.9088 -4.0404 -2.0104 0.9764
4.2542 -3.6754 -2.0104 0.9764
4.5653 -3.2807 -2.0104 0.9764
5.2693 -1.9524 -2.0095 0.9764
5.6115 0.0160 -2.0067 0.9764
5.5137 1.0130 -2.0048 0.9765
5.0391 2.4340 -2.0012 0.9765
4.5199 3.2873 -1.9986 0.9765
4.2054 3.6753 -1.9973 0.9766
3.8578 4.0334 -1.9959 0.9766
2.1955 5.1149 -1.9905 0.9766
1.2490 5.4170 -1.9880 0.9767
0.2651 5.5464 -1.9857 0.9767
-0.7251 5.4996 -1.9837 0.9767
-1.2128 5.4105 -1.9828 0.9767
-2.6009 4.8906 -1.9809 0.9767
-4.4575 3.2836 -1.9798 0.9768
-4.7332 2.8726 -1.9800 0.9768
-5.1705 1.9855 -1.9806 0.9767
-5.5169 0.5445 -1.9825 0.9767
-5.5458 0.0496 -1.9833 0.9767
-5.4715 -0.9386 -1.9852 0.9767
-5.3687 -1.4243 -1.9863 0.9767
-5.2231 -1.8991 -1.9874 0.9767
-5.0357 -2.3594 -1.9886 0.9767
-4.5415 -3.2217 -1.9912 0.9766
-2.7113 -4.8852 -1.9980 0.9765
-1.8014 -5.2966 -2.0006 0.9765
-0.7001 -2.8808 -1.0602 0.9875
-0.4314 -2.8745 -1.0394 0.9877
0.6677 -5.5705 -2.0063 0.9764
1.1630 -5.4911 -2.0072 0.9764
1.6493 -5.3674 -2.0080 0.9764
5.2256 -0.3295 -2.0065 0.9778
5.1964 0.6048 -2.0048 0.9778
5.1192 1.0659 -2.0038 0.9778
4.8426 1.9575 -2.0017 0.9779
4.6458 2.3808 -2.0005 0.9779
4.1431 3.1654 -1.9981 0.9779
3.8414 3.5205 -1.9968 0.9779
3.5094 3.8470 -1.9955 0.9779
2.7656 4.4043 -1.9930 0.9780
2.3597 4.6308 -1.9917 0.9780
1.9355 4.8200 -1.9905 0.9780
1.4965 4.9707 -1.9893 0.9780
1.0460 5.0815 -1.9882 0.9780
-0.7977 5.1160 -1.9842 0.9781
-2.9270 4.2619 -1.9813 0.9781
-4.2329 2.9667 -1.9809 0.9781
-4.8699 1.7394 -1.9817 0.9781
-5.0071 1.2978 -1.9822 0.9781
-2.3040 0.1726 -0.8854 0.9902
-2.3031 -0.2406 -0.8874 0.9901
-4.6476 -2.3128 -1.9894 0.9780
-4.4251 -2.7203 -1.9906 0.9780
-3.2007 -4.1077 -1.9956 0.9779
-2.8229 -4.3799 -1.9969 0.9779
-0.3558 -2.8224 -1.0901 0.9879
0.7453 -5.1807 -2.0058 0.9778
1.2055 -5.0955 -2.0066 0.9778
1.6563 -4.9693 -2.0073 0.9778
2.0941 -4.8030 -2.0079 0.9778
2.5153 -4.5980 -2.0084 0.9778
3.9678 -3.4279 -2.0094 0.9778
4.2580 -3.0598 -2.0094 0.9778
4.9147 -1.8210 -2.0085 0.9778
5.2344 0.0149 -2.0059 0.9778
5.2099 0.4821 -2.0051 0.9778
5.1436 0.9450 -2.0041 0.9778
4.7014 2.2708 -2.0008 0.9779
2.8692 4.3386 -1.9933 0.9780
2.4687 4.5746 -1.9920 0.9780
1.6136 4.9347 -1.9896 0.9780
1.1658 5.0562 -1.9885 0.9780
-0.2158 5.1762 -1.9854 0.9781
-1.1322 5.0510 -1.9837 0.9781
-1.5782 4.9279 -1.9829 0.9781
-2.0113 4.7658 -1.9823 0.9781
-2.4283 4.5659 -1.9818 0.9781
-3.5500 3.7572 -1.9809 0.9781
-3.8712 3.4251 -1.9808 0.9781
-4.1617 3.0657 -1.9808 0.9781
-4.4191 2.6820 -1.9810 0.9781
-5.0827 0.9659 -1.9826 0.9781
-2.3042 -0.1858 -0.8859 0.9901
-5.0114 -1.3295 -1.9869 0.9780
-4.7001 -2.2022 -1.9891 0.9780
-4.2385 -3.0068 -1.9915 0.9780
-3.9555 -3.3754 -1.9927 0.9780
-3.6406 -3.7175 -1.9940 0.9780
-3.2962 -4.0304 -1.9953 0.9779
-2.9249 -4.3114 -1.9965 0.9779
-2.5298 -4.5583 -1.9978 0.9779
-2.1140 -4.7689 -1.9991 0.9779
-1.6807 -4.9417 -2.0003 0.9779
-0.4242 -2.8259 -1.0951 0.9878
-0.1704 -2.8577 -1.0971 0.9878
1.0848 -5.1220 -2.0064 0.9778
4.8911 -0.3084 -2.0058 0.9790
4.8973 0.1296 -2.0050 0.9790
4.5334 1.8325 -2.0012 0.9791
4.3492 2.2288 -2.0002 0.9791
3.5966 3.2962 -1.9967 0.9791
3.2859 3.6020 -1.9955 0.9791
1.8126 4.5138 -1.9908 0.9792
1.4015 4.6551 -1.9897 0.9792
0.9796 4.7590 -1.9886 0.9792
0.1173 4.8526 -1.9866 0.9792
-0.7472 4.7919 -1.9849 0.9793
-1.5866 4.5794 -1.9835 0.9793
-1.9887 4.4182 -1.9830 0.9793
-2.3748 4.2219 -1.9825 0.9793
-2.7418 3.9923 -1.9822 0.9793
-3.0870 3.7310 -1.9819 0.9793
-3.4076 3.4401 -1.9818 0.9793
-4.6902 1.2157 -1.9830 0.9793
-2.0421 0.3384 -0.8472 0.9911
-1.9941 -0.0292 -0.8162 0.9914
-2.0723 -0.4061 -0.8643 0.9909
-4.5261 -1.7677 -1.9887 0.9792
-4.1440 -2.5474 -1.9909 0.9792
-3.6289 -3.2478 -1.9932 0.9792
-3.3264 -3.5610 -1.9944 0.9792
-2.9969 -3.8461 -1.9956 0.9791
-2.6430 -4.1008 -1.9968 0.9791
-1.8735 -4.5109 -1.9991 0.9791
-1.4640 -4.6628 -2.0002 0.9791
-0.1018 -2.8309 -1.1594 0.9878
0.1788 -3.3411 -1.3694 0.9856
1.1283 -4.7693 -2.0058 0.9790
1.5502 -4.6511 -2.0065 0.9790
2.3542 -4.3034 -2.0076 0.9790
2.7296 -4.0767 -2.0080 0.9790
3.0832 -3.8172 -2.0082 0.9790
3.7135 -3.2082 -2.0085 0.9790
3.9851 -2.8637 -2.0084 0.9790
4.4300 -2.1087 -2.0080 0.9790
4.7326 -1.2865 -2.0072 0.9790
4.8272 -0.8584 -2.0066 0.9790
4.8995 0.0140 -2.0052 0.9790
4.8766 0.4513 -2.0044 0.9791
4.8147 0.8846 -2.0035 0.9791
4.7142 1.3104 -2.0025 0.9791
4.5760 1.7252 -2.0015 0.9791
4.1915 2.5090 -1.9993 0.9791
3.9484 2.8716 -1.9982 0.9791
3.6740 3.2109 -1.9970 0.9791
2.6867 4.0626 -1.9934 0.9792
2.3118 4.2837 -1.9922 0.9792
1.0918 4.7353 -1.9889 0.9792
0.6642 4.8114 -1.9878 0.9792
-0.2021 4.8482 -1.9860 0.9792
-2.2746 4.2770 -1.9826 0.9793
-2.9982 3.8029 -1.9820 0.9793
-3.3255 3.5196 -1.9818 0.9793
-3.6264 3.2085 -1.9817 0.9793
-4.5219 1.7364 -1.9824 0.9793
-4.6599 1.3259 -1.9829 0.9793
-1.9925 0.0178 -0.8155 0.9914
-2.0135 -0.1624 -0.8267 0.9913
-4.4017 -2.0624 -1.9894 0.9792
-3.9691 -2.8157 -1.9917 0.9792
-3.0863 -3.7738 -1.9952 0.9792
-2.7386 -4.0367 -1.9964 0.9791
-2.3686 -4.2677 -1.9976 0.9791
-1.9791 -4.4648 -1.9988 0.9791
-0.4182 -2.7860 -1.1530 0.9879
0.0876 -2.9311 -1.2002 0.9874
4.5490 -0.6987 -2.0058 0.9801
4.5917 -0.2895 -2.0051 0.9801
4.4989 0.9368 -2.0028 0.9801
4.3953 1.3342 -2.0018 0.9802
4.2565 1.7206 -2.0009 0.9802
4.0837 2.0927 -1.9998 0.9802
3.0858 3.3826 -1.9955 0.9802
2.4321 3.8732 -1.9932 0.9802
1.7024 4.2395 -1.9910 0.9803
1.3163 4.3723 -1.9900 0.9803
-1.4905 4.3020 -1.9842 0.9803
-1.8683 4.1506 -1.9837 0.9803
-2.2310 3.9663 -1.9833 0.9803
-2.9001 3.5052 -1.9827 0.9803
-3.2013 3.2319 -1.9826 0.9803
-3.4771 2.9331 -1.9825 0.9803
-3.7252 2.6109 -1.9826 0.9803
-3.9438 2.2680 -1.9827 0.9803
-4.1311 1.9069 -1.9830 0.9803
-1.4881 0.5315 -0.6887 0.9931
-1.4918 0.3867 -0.6716 0.9933
-1.4725 0.2440 -0.6505 0.9935
-3.6648 -2.7321 -1.9922 0.9803
-3.4081 -3.0502 -1.9933 0.9802
-2.8143 -3.6118 -1.9955 0.9802
-2.4819 -3.8509 -1.9967 0.9802
-1.7592 -4.2356 -1.9988 0.9802
0.1714 -3.2025 -1.3977 0.9861
1.4553 -4.3663 -2.0058 0.9801
1.8399 -4.2200 -2.0064 0.9801
2.5623 -3.8269 -2.0072 0.9801
3.2029 -3.3108 -2.0076 0.9801
3.4859 -3.0116 -2.0077 0.9801
3.7408 -2.6882 -2.0076 0.9801
4.1586 -1.9795 -2.0072 0.9801
4.5840 -0.3978 -2.0053 0.9801
4.5997 0.0131 -2.0046 0.9801
4.5783 0.4237 -2.0038 0.9801
4.5203 0.8305 -2.0030 0.9801
3.7076 2.6965 -1.9980 0.9802
3.1652 3.3093 -1.9958 0.9802
2.8554 3.5768 -1.9946 0.9802
2.5232 3.8153 -1.9935 0.9802
2.1712 4.0232 -1.9924 0.9802
1.8022 4.1987 -1.9913 0.9803
1.4193 4.3406 -1.9903 0.9803
1.0255 4.4477 -1.9892 0.9803
0.6239 4.5193 -1.9883 0.9803
0.2177 4.5549 -1.9874 0.9803
-0.5956 4.5172 -1.9857 0.9803
-2.1369 4.0181 -1.9834 0.9803
-2.4867 3.8105 -1.9830 0.9803
-2.8167 3.5727 -1.9828 0.9803
-3.1242 3.3066 -1.9826 0.9803
-3.4069 3.0143 -1.9825 0.9803
-4.0848 2.0038 -1.9829 0.9803
-1.4682 0.2790 -0.6513 0.9935
-1.4690 0.1450 -0.6433 0.9936
-1.4717 -0.2525 -0.6508 0.9935
-1.4865 -0.5405 -0.6894 0.9931
-4.1343 -1.9371 -1.9898 0.9803
-3.9469 -2.2998 -1.9908 0.9803
-3.7278 -2.6445 -1.9919 0.9803
-3.4786 -2.9685 -1.9930 0.9802
-2.8983 -3.5438 -1.9952 0.9802
-2.5717 -3.7907 -1.9964 0.9802
-2.2241 -4.0074 -1.9975 0.9802
4.3220 -0.2725 -2.0045 0.9811
4.3276 0.1145 -2.0039 0.9811
4.2984 0.5003 -2.0031 0.9811
4.1374 1.2559 -2.0014 0.9811
4.0069 1.6197 -2.0005 0.9811
3.8444 1.9701 -1.9996 0.9811
2.9053 3.1848 -1.9954 0.9812
2.6079 3.4297 -1.9944 0.9812
2.2900 3.6469 -1.9933 0.9812
1.9541 3.8349 -1.9923 0.9812
1.2395 4.1172 -1.9903 0.9812
0.8665 4.2094 -1.9893 0.9812
-0.2799 4.2831 -1.9868 0.9813
-0.6611 4.2394 -1.9861 0.9813
-2.1013 3.7357 -1.9840 0.9813
-2.4261 3.5325 -1.9836 0.9813
-3.2750 2.7625 -1.9832 0.9813
-1.2617 0.5824 -0.6432 0.9939
-1.2705 0.3293 -0.6075 0.9942
-1.2735 0.2110 -0.5975 0.9943
-1.2719 0.0953 -0.5904 0.9944
-1.2617 -0.0185 -0.5841 0.9945
-1.2746 -0.1331 -0.5932 0.9944
-1.2698 -0.2488 -0.5989 0.9943
-1.2703 -0.3693 -0.6123 0.9942
-1.2557 -0.4904 -0.6240 0.9941
-3.6649 -2.2529 -1.9913 0.9812
-3.4508 -2.5725 -1.9923 0.9812
-3.2090 -2.8719 -1.9934 0.9812
-2.9412 -3.1487 -1.9944 0.9812
-2.6497 -3.4006 -1.9955 0.9812
-2.3367 -3.6255 -1.9966 0.9812
-2.0046 -3.8217 -1.9976 0.9812
-1.6561 -3.9875 -1.9986 0.9811
-1.2941 -4.1215 -1.9996 0.9811
-0.0989 -2.7500 -1.2737 0.9879
0.1659 -3.0997 -1.4369 0.9864
0.6165 -4.2851 -2.0039 0.9811
1.3698 -4.1096 -2.0052 0.9811
1.7318 -3.9719 -2.0057 0.9811
2.0800 -3.8022 -2.0061 0.9811
2.7240 -3.3725 -2.0067 0.9811
3.2808 -2.8344 -2.0069 0.9811
3.7324 -2.2054 -2.0067 0.9811
4.1815 -1.1367 -2.0058 0.9811
4.2652 -0.7585 -2.0053 0.9811
4.3147 -0.3745 -2.0047 0.9811
4.3095 0.3988 -2.0033 0.9811
4.2550 0.7817 -2.0025 0.9811
4.1664 1.1581 -2.0017 0.9811
3.7051 2.2179 -1.9988 0.9811
2.3757 3.5924 -1.9936 0.9812
1.6970 3.9536 -1.9915 0.9812
1.3365 4.0873 -1.9905 0.9812
0.9657 4.1883 -1.9896 0.9812
0.5875 4.2559 -1.9887 0.9812
0.2050 4.2895 -1.9878 0.9812
-0.5609 4.2542 -1.9863 0.9813
-0.9383 4.1858 -1.9856 0.9813
-1.3079 4.0840 -1.9850 0.9813
-1.6670 3.9499 -1.9845 0.9813
-2.3421 3.5889 -1.9837 0.9813
-2.6529 3.3650 -1.9835 0.9813
-2.9426 3.1144 -1.9833 0.9813
-3.2089 2.8391 -1.9832 0.9813
-3.4496 2.5412 -1.9833 0.9813
-3.6630 2.2231 -1.9834 0.9813
-3.8473 1.8873 -1.9836 0.9813
-1.2705 0.3615 -0.6114 0.9942
-1.2707 0.2415 -0.5987 0.9943
-3.7165 -2.1656 -1.9911 0.9812
-3.2754 -2.7950 -1.9931 0.9812
-2.7288 -3.3366 -1.9952 0.9812
-2.4212 -3.5689 -1.9963 0.9812
-0.6618 -2.7231 -1.2972 0.9877
-0.4069 -2.7107 -1.2688 0.9880
-0.1633 -2.7394 -1.2703 0.9880
1.2723 -4.1405 -2.0050 0.9811
4.0392 -0.6204 -2.0046 0.9820
4.0773 -0.2571 -2.0040 0.9820
4.0827 0.1080 -2.0034 0.9820
3.7805 1.5282 -2.0002 0.9820
3.6273 1.8588 -1.9993 0.9820
3.4452 2.1743 -1.9984 0.9820
3.2357 2.4721 -1.9974 0.9820
3.0005 2.7498 -1.9964 0.9820
2.7416 3.0053 -1.9954 0.9820
2.4610 3.2365 -1.9944 0.9820
2.1611 3.4416 -1.9934 0.9821
1.8442 3.6191 -1.9924 0.9821
1.5129 3.7675 -1.9915 0.9821
0.0979 4.0516 -1.9880 0.9821
-0.2642 4.0427 -1.9873 0.9821
-0.9785 3.9286 -1.9860 0.9821
-1.3251 3.8245 -1.9854 0.9821
-2.2901 3.3346 -1.9843 0.9821
-2.5785 3.1164 -1.9841 0.9821
-1.1229 0.4011 -0.5849 0.9947
-1.1422 0.1892 -0.5679 0.9949
-1.1435 0.0857 -0.5625 0.9949
-1.1364 -0.0167 -0.5575 0.9949
-1.1386 -0.2231 -0.5691 0.9948
-1.1158 -0.4358 -0.5876 0.9947
-3.4588 -2.1262 -1.9915 0.9821
-2.7755 -2.9713 -1.9945 0.9820
-2.5004 -3.2089 -1.9955 0.9820
-1.5627 -3.7624 -1.9984 0.9820
-0.3388 -2.6880 -1.3290 0.9880
-0.0979 -2.7199 -1.3350 0.9879
0.1598 -2.9868 -1.4672 0.9868
0.9406 -3.9758 -2.0040 0.9820
1.2922 -3.8770 -2.0046 0.9820
1.6337 -3.7470 -2.0051 0.9820
1.9622 -3.5869 -2.0055 0.9819
2.2750 -3.3978 -2.0058 0.9819
3.6923 -1.7575 -2.0059 0.9819
3.8339 -1.4206 -2.0056 0.9819
3.9447 -1.0723 -2.0052 0.9820
4.0237 -0.7156 -2.0047 0.9820
4.0704 -0.3533 -2.0042 0.9820
4.0657 0.3762 -2.0029 0.9820
4.0144 0.7375 -2.0021 0.9820
3.6706 1.7729 -1.9995 0.9820
3.0649 2.6786 -1.9967 0.9820
2.5370 3.1779 -1.9947 0.9820
2.2420 3.3901 -1.9937 0.9821
1.6015 3.7312 -1.9917 0.9821
0.5545 4.0168 -1.9890 0.9821
0.1935 4.0486 -1.9882 0.9821
-0.5294 4.0155 -1.9868 0.9821
-0.8856 3.9510 -1.9861 0.9821
-1.2346 3.8550 -1.9856 0.9821
-1.5735 3.7284 -1.9851 0.9821
-1.8998 3.5723 -1.9847 0.9821
-2.5043 3.1764 -1.9841 0.9821
-2.7777 2.9399 -1.9840 0.9821
-3.0291 2.6800 -1.9839 0.9821
-1.1174 0.4291 -0.5871 0.9947
-1.1417 -0.1959 -0.5682 0.9949
-1.1217 -0.4079 -0.5855 0.9947
-1.0929 -0.5121 -0.5920 0.9946
-3.5075 -2.0438 -1.9913 0.9821
-2.2847 -3.3677 -1.9962 0.9820
-1.9758 -3.5600 -1.9972 0.9820
-0.6538 -2.6903 -1.3581 0.9877
-0.1615 -2.7090 -1.3312 0.9880
0.0840 -2.8121 -1.3800 0.9875
0.4860 -4.0548 -2.0032 0.9820
0.8464 -3.9965 -2.0039 0.9820
3.8182 -0.5864 -2.0040 0.9827
3.8595 0.1021 -2.0029 0.9828
3.8336 0.4462 -2.0022 0.9828
3.7771 0.7865 -2.0015 0.9828
3.6903 1.1202 -2.0007 0.9828
3.5741 1.4447 -1.9999 0.9828
3.2572 2.0557 -1.9982 0.9828
3.0592 2.3373 -1.9973 0.9828
2.0434 3.2543 -1.9935 0.9828
1.7438 3.4222 -1.9926 0.9828
0.7733 3.7571 -1.9899 0.9829
0.0926 3.8317 -1.9884 0.9829
-0.9255 3.7156 -1.9865 0.9829
-1.2533 3.6172 -1.9859 0.9829
-1.5709 3.4900 -1.9855 0.9829
-2.1660 3.1539 -1.9849 0.9829
-2.6921 2.7178 -1.9845 0.9829
-2.9240 2.4665 -1.9845 0.9829
-3.1326 2.1956 -1.9845 0.9829
-1.0377 -0.1084 -0.5412 0.9953
-1.0298 -0.2018 -0.5444 0.9953
-1.0022 -0.3914 -0.5582 0.9952
-3.0795 -2.2957 -1.9926 0.9828
-2.6244 -2.8095 -1.9945 0.9828
-2.3641 -3.0341 -1.9954 0.9828
-1.7884 -3.4095 -1.9973 0.9828
-1.4774 -3.5572 -1.9982 0.9828
-0.5770 -2.6448 -1.4043 0.9879
-0.3359 -2.6646 -1.3933 0.9880
0.1569 -2.9310 -1.5227 0.9869
1.8548 -3.3905 -2.0049 0.9827
2.1505 -3.2118 -2.0052 0.9827
2.6880 -2.7785 -2.0056 0.9827
2.9255 -2.5274 -2.0056 0.9827
3.6240 -1.3428 -2.0050 0.9827
3.8478 -0.3339 -2.0037 0.9827
3.8611 0.0110 -2.0031 0.9828
3.7950 0.6972 -2.0017 0.9828
3.7161 1.0330 -2.0010 0.9828
3.6076 1.3601 -2.0001 0.9828
3.4702 1.6762 -1.9993 0.9828
2.8979 2.5326 -1.9966 0.9828
1.8243 3.3805 -1.9928 0.9828
1.5145 3.5283 -1.9919 0.9828
1.1928 3.6478 -1.9910 0.9829
0.1830 3.8288 -1.9886 0.9829
-0.5007 3.7977 -1.9872 0.9829
-1.4882 3.5263 -1.9856 0.9829
-1.7968 3.3787 -1.9852 0.9829
-2.0911 3.2042 -1.9849 0.9829
-2.6272 2.7806 -1.9846 0.9829
-1.0186 0.2898 -0.5494 0.9952
-1.0377 0.1024 -0.5409 0.9953
-1.0308 0.0092 -0.5348 0.9954
-1.0374 -0.0837 -0.5399 0.9953
-1.0330 -0.1772 -0.5437 0.9953
-1.5607 -3.5209 -1.9980 0.9828
-1.2406 -3.6479 -1.9989 0.9828
-0.6459 -2.6575 -1.4188 0.9878
0.8001 -3.7779 -2.0034 0.9827
1.1346 -3.6924 -2.0039 0.9827
1.8861 -0.1189 -1.0351 0.9914
1.8891 0.2199 -1.0416 0.9914
1.8786 0.5703 -1.0753 0.9911
3.2479 1.6644 -1.9988 0.9835
2.8975 2.2137 -1.9971 0.9835
2.6870 2.4626 -1.9963 0.9835
2.4553 2.6915 -1.9954 0.9835
1.3552 3.3748 -1.9918 0.9836
1.0480 3.4809 -1.9910 0.9836
0.7326 3.5591 -1.9902 0.9836
-0.2367 3.6221 -1.9881 0.9836
-1.4883 3.3065 -1.9860 0.9836
-1.7774 3.1599 -1.9857 0.9836
-2.0522 2.9881 -1.9854 0.9836
-2.7703 2.3369 -1.9850 0.9836
-0.8708 0.5008 -0.5502 0.9954
-0.9143 0.3265 -0.5317 0.9956
-0.9433 0.1563 -0.5237 0.9956
-0.9473 -0.0989 -0.5216 0.9957
-0.9394 -0.1841 -0.5243 0.9956
-0.9092 -0.3551 -0.5346 0.9956
-0.8623 -0.5301 -0.5544 0.9954
-2.9170 -2.1746 -1.9928 0.9835
-2.7124 -2.4275 -1.9936 0.9835
-2.4859 -2.6612 -1.9945 0.9835
-2.2393 -2.8739 -1.9954 0.9835
-1.9746 -3.0637 -1.9963 0.9835
-1.6938 -3.2292 -1.9972 0.9835
-1.3993 -3.3690 -1.9981 0.9835
-1.0933 -3.4820 -1.9989 0.9835
-0.5720 -2.6218 -1.4698 0.9878
-0.3334 -2.6452 -1.4603 0.9879
-0.0960 -2.6694 -1.4630 0.9879
0.5206 -3.6190 -2.0025 0.9835
1.1567 -3.4705 -2.0036 0.9835
1.4624 -3.3540 -2.0040 0.9835
1.7564 -3.2106 -2.0044 0.9834
2.0364 -3.0414 -2.0047 0.9834
2.7702 -2.3933 -2.0051 0.9834
2.9728 -2.1363 -2.0050 0.9834
3.3049 -1.5731 -2.0047 0.9834
1.8839 -0.5121 -1.0693 0.9911
1.8885 -0.1639 -1.0382 0.9914
1.8727 0.0053 -1.0257 0.9915
1.8842 0.3462 -1.0493 0.9913
3.4166 1.2881 -1.9999 0.9835
3.1304 1.8738 -1.9982 0.9835
2.9493 2.1450 -1.9974 0.9835
2.7447 2.3987 -1.9965 0.9835
2.5184 2.6331 -1.9956 0.9835
2.2722 2.8462 -1.9947 0.9835
2.0080 3.0364 -1.9938 0.9835
1.7281 3.2022 -1.9929 0.9835
1.1299 3.4556 -1.9912 0.9836
0.1734 3.6272 -1.9889 0.9836
-0.1512 3.6270 -1.9882 0.9836
-0.4744 3.5979 -1.9876 0.9836
-0.7935 3.5401 -1.9870 0.9836
-1.1062 3.4542 -1.9865 0.9836
-1.4100 3.3409 -1.9861 0.9836
-1.7024 3.2011 -1.9857 0.9836
-2.2441 2.8464 -1.9852 0.9836
-2.7144 2.4016 -1.9850 0.9836
-0.8623 0.5234 -0.5525 0.9954
-0.9102 0.3495 -0.5340 0.9956
-0.9239 0.2629 -0.5261 0.9956
-0.9402 0.1787 -0.5242 0.9956
-0.9474 0.0935 -0.5214 0.9957
-0.9420 0.0084 -0.5160 0.9957
-0.9131 -0.3320 -0.5321 0.9956
-0.8955 -0.4196 -0.5416 0.9955
-0.8688 -0.5062 -0.5507 0.9954
-2.9672 -2.1049 -1.9925 0.9835
-2.7685 -2.3625 -1.9934 0.9835
-2.5477 -2.6015 -1.9943 0.9835
-2.3062 -2.8199 -1.9952 0.9835
-2.0461 -3.0159 -1.9961 0.9835
-1.7693 -3.1880 -1.9970 0.9835
-1.4782 -3.3347 -1.9978 0.9835
-0.6417 -2.6403 -1.4882 0.9877
-0.3961 -2.6388 -1.4615 0.9879
-0.1588 -2.6630 -1.4611 0.9879
1.7404 -0.2673 -1.0166 0.9919
2.7486 2.0999 -1.9970 0.9842
2.0910 2.7499 -1.9945 0.9842
1.5671 3.0754 -1.9928 0.9842
1.2857 3.2018 -1.9920 0.9842
0.9942 3.3025 -1.9912 0.9842
0.6951 3.3768 -1.9905 0.9842
-0.2246 3.4367 -1.9884 0.9842
-0.5305 3.4019 -1.9878 0.9842
-0.8319 3.3401 -1.9873 0.9842
-1.6865 2.9983 -1.9861 0.9842
-1.9473 2.8354 -1.9859 0.9842
-2.1925 2.6499 -1.9857 0.9842
-2.4203 2.4434 -1.9856 0.9842
-0.7994 0.5602 -0.5636 0.9955
-0.8175 0.4701 -0.5445 0.9957
-0.8791 -0.0129 -0.5076 0.9959
-0.8822 -0.0922 -0.5121 0.9959
-0.8658 -0.2517 -0.5206 0.9958
-0.8551 -0.3340 -0.5300 0.9958
-2.5732 -2.3029 -1.9937 0.9842
-2.3582 -2.5246 -1.9946 0.9842
-1.8731 -2.9063 -1.9962 0.9842
-1.6067 -3.0632 -1.9971 0.9842
-0.5721 -2.6221 -1.5495 0.9877
-0.3365 -2.6698 -1.5536 0.9876
0.7986 -3.3756 -2.0027 0.9841
1.0971 -3.2915 -2.0032 0.9841
1.3870 -3.1811 -2.0036 0.9841
1.6658 -3.0450 -2.0039 0.9841
2.1814 -2.7007 -2.0044 0.9841
2.4140 -2.4953 -2.0045 0.9841
2.6273 -2.2698 -2.0045 0.9841
3.1344 -1.4920 -2.0042 0.9841
1.7007 -0.6302 -1.0471 0.9917
1.7288 -0.4700 -1.0344 0.9918
1.7377 -0.3090 -1.0190 0.9919
1.7404 -0.1510 -1.0086 0.9920
1.7409 0.1611 -1.0094 0.9920
1.7277 0.4802 -1.0353 0.9918
2.9694 1.7775 -1.9981 0.9841
2.7977 2.0347 -1.9972 0.9841
2.6037 2.2755 -1.9964 0.9842
2.3891 2.4978 -1.9956 0.9842
1.6394 3.0379 -1.9930 0.9842
1.3610 3.1709 -1.9922 0.9842
1.0720 3.2784 -1.9914 0.9842
0.4713 3.4143 -1.9899 0.9842
-0.1435 3.4413 -1.9886 0.9842
-0.4501 3.4138 -1.9880 0.9842
-1.0497 3.2776 -1.9870 0.9842
-1.3379 3.1701 -1.9866 0.9842
-1.8799 2.8806 -1.9859 0.9842
-2.1294 2.7010 -1.9857 0.9842
-2.3620 2.4998 -1.9856 0.9842
-2.5757 2.2789 -1.9856 0.9842
-0.8094 0.4912 -0.5466 0.9956
-0.8370 0.4106 -0.5383 0.9957
-0.8786 0.0079 -0.5073 0.9960
-0.8821 -0.0711 -0.5110 0.9959
-0.8796 -0.1509 -0.5152 0.9959
-0.8415 -0.3943 -0.5365 0.9957
-0.8156 -0.4752 -0.5450 0.9956
-2.6265 -2.2413 -1.9935 0.9842
-2.4169 -2.4679 -1.9943 0.9842
-1.9409 -2.8610 -1.9960 0.9842
-1.6784 -3.0241 -1.9969 0.9842
-1.4022 -3.1632 -1.9977 0.9841
-0.6408 -2.6368 -1.5666 0.9875
0.4126 -3.4429 -2.0020 0.9841
