ply
format ascii 1.0
element vertex 1623
property float32 x
property float32 y
property float32 z
property float32 I
end_header
-17.1644 -5.5210 3.1793 0.9294
-17.2260 -9.1765 3.4415 0.9238
-8.3547 -5.4572 1.7596 0.9603
-6.8720 -5.4192 1.5432 0.9651
-2.6636 -5.4119 1.0636 0.9758
-0.5480 -5.4165 0.9600 0.9781
-0.0633 -5.4208 0.9559 0.9782
2.8176 -16.7570 2.9962 0.9333
4.4974 -17.2020 3.1351 0.9303
7.9940 -17.2483 3.3521 0.9257
9.7165 -16.8476 3.4293 0.9240
7.3460 14.1386 2.8094 0.9373
6.2651 15.2395 2.9054 0.9353
-7.5315 -5.4237 1.6365 0.9630
-6.2616 -5.4175 1.4600 0.9669
-5.2340 -5.4149 1.3279 0.9699
-4.3710 -5.4133 1.2268 0.9721
-3.6249 -5.4123 1.1486 0.9739
-2.9636 -5.4119 1.0880 0.9752
-2.3642 -5.4120 1.0414 0.9763
-1.8100 -5.4125 1.0063 0.9771
-0.3001 -5.4187 0.9569 0.9782
3.6105 -16.7674 3.0243 0.9327
8.7537 -16.8349 3.3458 0.9258
-8.2824 -5.4099 1.5155 0.9608
-6.8564 -5.4069 1.3377 0.9653
-4.7869 -5.4055 1.1061 0.9712
-3.9876 -5.4048 1.0289 0.9732
-3.2877 -5.4046 0.9691 0.9747
-2.6601 -5.4048 0.9228 0.9759
-1.0397 -5.4073 0.8435 0.9780
-0.0633 -5.4156 0.8297 0.9783
2.8176 -16.7567 2.6031 0.9336
4.4304 -16.9454 2.6832 0.9316
9.7163 -16.8472 2.9794 0.9243
12.8833 13.9240 2.9061 0.9261
10.7713 13.9518 2.7002 0.9312
-7.5073 -5.4063 1.4173 0.9633
-6.2503 -5.4077 1.2661 0.9671
-5.2254 -5.4060 1.1518 0.9700
-3.6198 -5.4047 0.9965 0.9740
-1.8078 -5.4057 0.8732 0.9772
-1.2865 -5.4067 0.8514 0.9778
8.7535 -16.8345 2.9068 0.9261
-8.2578 -5.3939 1.2844 0.9610
-6.8389 -5.3931 1.1342 0.9655
-5.7129 -5.3960 1.0233 0.9688
-4.7794 -5.3971 0.9388 0.9713
-3.9818 -5.3970 0.8734 0.9733
-3.2832 -5.3972 0.8227 0.9748
-1.0387 -5.4019 0.7163 0.9781
-0.0632 -5.4104 0.7046 0.9784
2.8175 -16.7564 2.2127 0.9338
4.4602 -17.0598 2.2962 0.9313
8.9253 13.9764 2.1595 0.9353
-7.4870 -5.3917 1.2015 0.9635
-6.2351 -5.3946 1.0737 0.9673
-5.2169 -5.3973 0.9775 0.9702
-4.3578 -5.3970 0.9033 0.9724
-3.6147 -5.3970 0.8459 0.9741
-2.9557 -5.3975 0.8013 0.9755
-2.3582 -5.3981 0.7671 0.9765
-0.7861 -5.4040 0.7111 0.9782
0.1831 -5.4127 0.7052 0.9784
-8.2335 -5.3780 1.0560 0.9612
-6.8215 -5.3794 0.9329 0.9657
-5.6998 -5.3837 0.8419 0.9690
-4.7710 -5.3876 0.7728 0.9715
-3.9761 -5.3892 0.7192 0.9734
-2.0803 -5.3918 0.6206 0.9770
-1.5455 -5.3931 0.6024 0.9777
-0.5464 -5.4009 0.5829 0.9784
-0.0632 -5.4052 0.5805 0.9785
4.4598 -17.0582 1.8933 0.9315
7.9265 -17.1026 2.0242 0.9270
8.9255 13.9767 1.7808 0.9355
-6.2202 -5.3816 0.8832 0.9675
-5.2058 -5.3857 0.8043 0.9703
-4.3513 -5.3889 0.7438 0.9725
-2.3552 -5.3913 0.6318 0.9766
-1.8033 -5.3924 0.6106 0.9774
3.6103 -16.7664 1.8417 0.9333
8.7532 -16.8338 2.0374 0.9265
-8.2094 -5.3623 0.8301 0.9614
-6.8044 -5.3659 0.7336 0.9658
-4.7611 -5.3764 0.6079 0.9716
-3.2743 -5.3826 0.5333 0.9750
-2.6498 -5.3838 0.5080 0.9762
-2.0777 -5.3852 0.4886 0.9771
-1.0367 -5.3915 0.4648 0.9782
4.4594 -17.0566 1.4924 0.9317
9.7156 -16.8461 1.6462 0.9249
12.7205 13.7481 1.5856 0.9276
10.7721 13.9528 1.4922 0.9317
8.9257 13.9770 1.4039 0.9356
7.2733 13.9986 1.3354 0.9386
6.1158 14.8763 1.3616 0.9375
-4.3431 -5.3787 0.5852 0.9726
-2.3522 -5.3845 0.4974 0.9767
-1.8011 -5.3859 0.4807 0.9775
-1.2823 -5.3894 0.4690 0.9780
-0.7846 -5.3937 0.4614 0.9784
-0.2989 -5.3980 0.4577 0.9785
3.6102 -16.7661 1.4518 0.9335
8.7530 -16.8335 1.6061 0.9267
-8.1854 -5.3466 0.6063 0.9616
-6.7874 -5.3525 0.5360 0.9660
-5.6740 -5.3593 0.4840 0.9692
-4.7512 -5.3652 0.4444 0.9717
-2.6464 -5.3769 0.3716 0.9763
-2.0752 -5.3785 0.3575 0.9772
-1.5423 -5.3819 0.3472 0.9778
-0.5453 -5.3907 0.3360 0.9785
-0.0630 -5.3950 0.3346 0.9786
0.4190 -5.3995 0.3358 0.9785
2.8174 -16.7554 1.0536 0.9342
4.4590 -17.0550 1.0931 0.9318
7.9250 -17.0994 1.1687 0.9273
9.7154 -16.8457 1.2059 0.9250
10.7724 13.9531 1.0931 0.9318
8.9259 13.9773 1.0284 0.9357
-9.0142 -5.3420 0.6498 0.9589
-7.4273 -5.3486 0.5676 0.9640
-5.1833 -5.3624 0.4625 0.9706
-3.5986 -5.3731 0.4010 0.9744
-2.3493 -5.3778 0.3639 0.9768
-1.7991 -5.3798 0.3518 0.9775
-0.2986 -5.3929 0.3349 0.9786
0.1826 -5.3973 0.3349 0.9786
-8.1606 -5.3304 0.3843 0.9617
-6.7705 -5.3391 0.3400 0.9661
-5.6613 -5.3473 0.3071 0.9693
-4.7414 -5.3542 0.2820 0.9718
-3.9547 -5.3602 0.2627 0.9737
-3.2640 -5.3656 0.2476 0.9752
-2.6430 -5.3701 0.2360 0.9763
-2.0727 -5.3721 0.2270 0.9772
-1.0347 -5.3812 0.2161 0.9783
-0.5448 -5.3856 0.2134 0.9786
-0.0630 -5.3900 0.2125 0.9787
0.4186 -5.3944 0.2133 0.9786
7.9243 -17.0978 0.7431 0.9273
8.9261 13.9776 0.6539 0.9358
7.3415 14.1298 0.6279 0.9382
-3.5919 -5.3630 0.2545 0.9745
-2.9397 -5.3682 0.2413 0.9758
-2.3463 -5.3710 0.2311 0.9768
0.1824 -5.3922 0.2127 0.9786
2.1032 -17.0191 0.6762 0.9337
3.6101 -16.7655 0.6762 0.9337
7.3852 -17.9480 0.7653 0.9252
8.7526 -16.8328 0.7481 0.9269
-8.1361 -5.3144 0.1642 0.9619
-5.6486 -5.3353 0.1312 0.9694
-3.9475 -5.3504 0.1123 0.9738
-3.2584 -5.3566 0.1059 0.9752
-2.0708 -5.3672 0.0972 0.9772
-1.5395 -5.3719 0.0944 0.9779
-0.5444 -5.3808 0.0914 0.9786
-0.0629 -5.3850 0.0910 0.9787
0.4183 -5.3894 0.0913 0.9786
2.8173 -16.7548 0.2870 0.9343
12.8027 13.8369 0.3184 0.9274
8.9263 13.9779 0.2801 0.9358
7.3416 14.1301 0.2690 0.9383
6.2660 15.2417 0.2784 0.9362
-8.9560 -5.3075 0.1759 0.9592
-7.3883 -5.3205 0.1538 0.9642
-6.1615 -5.3309 0.1376 0.9679
-4.3176 -5.3471 0.1161 0.9729
-3.5856 -5.3537 0.1088 0.9746
-2.9349 -5.3595 0.1032 0.9759
-1.7957 -5.3696 0.0956 0.9776
-0.7824 -5.3787 0.0918 0.9785
-0.2981 -5.3829 0.0911 0.9787
2.1030 -17.0177 0.2896 0.9337
3.6100 -16.7652 0.2897 0.9337
7.3830 -17.9426 0.3277 0.9253
8.7524 -16.8324 0.3205 0.9269
-5.6514 -5.3379 -0.0438 0.9694
-4.7341 -5.3460 -0.0402 0.9718
-3.2599 -5.3589 -0.0353 0.9752
-2.6402 -5.3643 -0.0337 0.9764
-2.0715 -5.3689 -0.0324 0.9772
-0.5445 -5.3824 -0.0305 0.9786
-0.0629 -5.3866 -0.0303 0.9787
0.4183 -5.3893 -0.0304 0.9786
2.8172 -16.7545 -0.0957 0.9343
7.9228 -17.0946 -0.1061 0.9274
12.7994 13.8334 -0.1061 0.9274
10.7731 13.9541 -0.0993 0.9319
8.9265 13.9782 -0.0934 0.9358
6.2661 15.2419 -0.0928 0.9362
-8.9610 -5.3105 -0.0586 0.9592
-6.1644 -5.3334 -0.0459 0.9679
-4.3196 -5.3496 -0.0387 0.9729
-3.5872 -5.3560 -0.0363 0.9745
-0.7827 -5.3803 -0.0306 0.9785
0.1823 -5.3881 -0.0304 0.9787
2.1028 -17.0162 -0.0965 0.9337
3.6099 -16.7648 -0.0965 0.9337
8.7522 -16.8320 -0.1068 0.9269
-6.7603 -5.3311 -0.2424 0.9661
-5.6538 -5.3402 -0.2190 0.9694
-2.6413 -5.3665 -0.1684 0.9763
-2.0721 -5.3706 -0.1621 0.9772
-1.5404 -5.3753 -0.1574 0.9779
-1.0344 -5.3797 -0.1543 0.9783
-0.5447 -5.3840 -0.1524 0.9786
-0.0629 -5.3868 -0.1517 0.9787
0.4182 -5.3892 -0.1522 0.9786
4.4573 -17.0486 -0.4962 0.9319
7.9221 -17.0930 -0.5305 0.9274
9.7146 -16.8443 -0.5475 0.9251
12.7962 13.8299 -0.5305 0.9274
6.2663 15.2423 -0.4640 0.9362
-7.3980 -5.3276 -0.2567 0.9642
-6.1660 -5.3348 -0.2296 0.9679
-5.1664 -5.3450 -0.2093 0.9707
-4.3216 -5.3521 -0.1937 0.9728
-2.9373 -5.3640 -0.1722 0.9758
-2.3455 -5.3691 -0.1650 0.9768
-0.2982 -5.3856 -0.1519 0.9786
0.1823 -5.3880 -0.1518 0.9787
3.6099 -16.7645 -0.4829 0.9337
7.3786 -17.9319 -0.5460 0.9253
8.7520 -16.8317 -0.5342 0.9269
-4.7382 -5.3505 -0.3624 0.9718
-2.6424 -5.3687 -0.3035 0.9763
-2.0728 -5.3723 -0.2920 0.9772
-1.5409 -5.3769 -0.2837 0.9778
-0.0629 -5.3867 -0.2732 0.9787
0.4182 -5.3891 -0.2741 0.9786
4.4569 -17.0470 -0.8936 0.9319
7.9213 -17.0914 -0.9553 0.9273
9.7144 -16.8439 -0.9861 0.9251
12.7930 13.8264 -0.9553 0.9273
10.6651 13.8142 -0.8851 0.9325
7.1875 13.8335 -0.7906 0.9395
5.9256 14.4136 -0.7903 0.9395
-8.9796 -5.3215 -0.5294 0.9591
-7.4046 -5.3323 -0.4628 0.9641
-5.1675 -5.3461 -0.3771 0.9707
-4.3237 -5.3546 -0.3490 0.9728
-2.9386 -5.3662 -0.3103 0.9758
-1.7974 -5.3747 -0.2874 0.9776
-1.2799 -5.3792 -0.2804 0.9781
0.1823 -5.3879 -0.2734 0.9786
2.1024 -17.0134 -0.8694 0.9336
7.3764 -17.9266 -0.9831 0.9253
8.7519 -16.8313 -0.9621 0.9268
-8.1752 -3.4596 -0.6509 0.9650
-8.2208 -5.3697 -0.7200 0.9614
-6.7726 -5.3408 -0.6324 0.9660
-5.6594 -5.3455 -0.5708 0.9693
-4.7387 -5.3511 -0.5241 0.9717
-3.9541 -5.3593 -0.4883 0.9736
-3.2641 -5.3659 -0.4605 0.9751
-2.0735 -5.3741 -0.4224 0.9772
-1.5414 -5.3786 -0.4102 0.9778
-1.0348 -5.3816 -0.4018 0.9783
10.7739 13.9551 -1.2927 0.9317
8.9271 13.9791 -1.2162 0.9356
7.2744 14.0007 -1.1569 0.9387
6.0961 14.8284 -1.1755 0.9377
-9.4697 17.2801 -1.4448 0.9240
-7.4130 -5.3384 -0.6698 0.9640
-4.3244 -5.3556 -0.5047 0.9728
-3.5918 -5.3629 -0.4733 0.9744
-2.3474 -5.3734 -0.4299 0.9768
-0.2982 -5.3854 -0.3955 0.9786
0.1823 -5.3878 -0.3953 0.9786
2.0952 -16.9547 -1.2526 0.9338
-3.5083 18.4004 -1.7983 0.9275
-5.0996 17.9001 -1.7869 0.9279
-8.0959 16.5139 -1.7657 0.9288
-9.4820 15.6423 -1.7561 0.9291
-10.7823 14.6619 -1.7473 0.9295
-13.0959 12.4081 -1.7320 0.9301
-14.0967 11.1521 -1.7256 0.9303
-14.9860 9.8219 -1.7202 0.9305
-17.0471 9.1152 -1.8559 0.9253
-18.3433 5.9316 -1.8508 0.9255
-19.2375 0.8729 -1.8488 0.9255
-19.2541 -0.8437 -1.8503 0.9255
-8.0042 -3.3873 -0.8344 0.9657
-8.2205 -5.3695 -0.9426 0.9613
-5.6643 -5.3501 -0.7480 0.9692
-4.7411 -5.3538 -0.6866 0.9717
-3.9545 -5.3600 -0.6395 0.9736
-3.2649 -5.3671 -0.6031 0.9751
-2.6446 -5.3732 -0.5750 0.9762
-2.0742 -5.3759 -0.5532 0.9771
-1.0347 -5.3815 -0.5261 0.9782
0.4182 -5.3889 -0.5189 0.9785
2.8170 -16.7532 -1.6310 0.9340
4.4411 -16.9864 -1.6856 0.9319
7.8929 -17.0301 -1.8020 0.9273
9.7140 -16.8432 -1.8667 0.9248
12.5804 13.5967 -1.7784 0.9283
8.9273 13.9794 -1.5924 0.9355
6.0933 14.8216 -1.5385 0.9376
0.6381 19.0389 -1.8289 0.9263
-2.7111 18.5957 -1.8041 0.9273
-4.3274 18.1618 -1.7924 0.9277
-5.8899 17.5939 -1.7812 0.9282
-7.3885 16.8986 -1.7706 0.9286
-8.8137 16.0831 -1.7607 0.9290
-10.1570 15.1549 -1.7515 0.9293
-11.4104 14.1221 -1.7430 0.9296
-12.5670 12.9932 -1.7354 0.9299
-13.6204 11.7768 -1.7286 0.9302
-18.9507 3.4116 -1.8486 0.9255
-19.2077 -1.7197 -1.8514 0.9254
-18.6704 -5.1183 -1.8586 0.9252
-8.9984 -5.3326 -1.0042 0.9588
-5.1730 -5.3518 -0.7146 0.9705
-4.3248 -5.3560 -0.6609 0.9727
-3.5925 -5.3639 -0.6198 0.9744
-2.9408 -5.3703 -0.5878 0.9757
-2.7804 -6.3646 -0.6668 0.9725
-0.7830 -5.3828 -0.5222 0.9784
0.1823 -5.3877 -0.5175 0.9786
2.0950 -16.9533 -1.6400 0.9337
3.6097 -16.7635 -1.6463 0.9334
7.3211 -17.7921 -1.8471 0.9256
8.7515 -16.8306 -1.8212 0.9266
-2.8483 14.9389 -1.8065 0.9406
-4.1453 14.5502 -1.7971 0.9409
-5.3971 14.0533 -1.7882 0.9412
-7.7324 12.7560 -1.7719 0.9417
-10.7066 10.1443 -1.7520 0.9423
-12.2671 8.0399 -1.7422 0.9426
-13.9730 7.4715 -1.8822 0.9382
-14.5579 6.1874 -1.8790 0.9383
-15.3933 3.5008 -1.8752 0.9384
-15.7681 0.7155 -1.8750 0.9384
-15.7794 -0.6914 -1.8762 0.9384
-7.9233 -3.3530 -1.0220 0.9659
-8.2202 -5.3693 -1.1663 0.9612
-6.7842 -5.3500 -1.0263 0.9658
-3.9553 -5.3610 -0.7914 0.9735
-2.9142 -5.9211 -0.7839 0.9738
-2.2114 -5.7315 -0.7297 0.9756
-1.0347 -5.3814 -0.6509 0.9782
-0.0629 -5.3863 -0.6399 0.9785
0.4182 -5.3888 -0.6420 0.9785
4.0161 -15.3608 -1.8860 0.9380
5.3961 -15.0218 -1.8960 0.9377
6.7462 -14.5559 -1.9057 0.9374
10.4946 -12.4241 -1.9319 0.9366
13.5608 -11.2177 -2.0905 0.9316
14.6623 -10.0737 -2.1131 0.9308
16.2907 -7.3476 -2.1228 0.9305
17.3796 -4.3533 -2.1282 0.9304
17.7065 -2.7903 -2.1292 0.9303
17.8834 -1.2029 -2.1291 0.9303
17.5060 3.5532 -2.1219 0.9306
17.0832 5.0864 -2.1173 0.9307
16.5188 6.5695 -2.1117 0.9309
13.8475 8.6199 -1.9375 0.9364
9.7921 12.6834 -1.9034 0.9375
8.5798 13.4353 -1.8936 0.9378
7.2747 14.0013 -1.8742 0.9384
5.9960 14.5847 -1.8732 0.9385
4.6477 14.9764 -1.8627 0.9388
3.2775 15.2440 -1.8522 0.9391
1.8967 15.3876 -1.8417 0.9395
-2.1997 15.0883 -1.8112 0.9404
-3.5155 14.7543 -1.8017 0.9407
-4.7905 14.3097 -1.7925 0.9410
-6.0160 13.7595 -1.7838 0.9413
-9.3178 11.5322 -1.7611 0.9420
-10.2705 10.6188 -1.7548 0.9422
-11.1393 9.6316 -1.7492 0.9424
-13.4106 7.9417 -1.8514 0.9391
-15.2308 4.1702 -1.8758 0.9384
-15.5333 2.7964 -1.8748 0.9384
-15.7197 1.4024 -1.8747 0.9384
-15.7886 -0.0025 -1.8755 0.9384
-15.5729 -2.8085 -1.8797 0.9382
-15.2887 -4.1912 -1.8831 0.9381
-9.0079 -5.3383 -1.2438 0.9587
-7.4619 -5.3736 -1.0923 0.9636
-6.1870 -5.3529 -0.9718 0.9676
-5.1776 -5.3566 -0.8849 0.9704
-4.3275 -5.3594 -0.8182 0.9726
-1.7983 -5.3775 -0.6735 0.9774
-1.2801 -5.3801 -0.6569 0.9780
-0.7830 -5.3827 -0.6461 0.9783
0.1823 -5.3876 -0.6403 0.9785
1.9313 -15.6287 -1.8706 0.9385
4.7235 -15.2037 -1.8911 0.9379
7.4199 -14.2697 -1.9105 0.9373
8.7016 -13.6165 -1.9195 0.9370
11.0711 -11.9579 -1.9357 0.9365
12.4278 -11.2287 -1.9896 0.9348
14.1889 -10.6886 -2.1102 0.9309
17.1658 -5.1051 -2.1273 0.9304
17.5650 -3.5594 -2.1289 0.9304
-2.3953 12.5629 -1.8121 0.9496
-3.4889 12.2461 -1.8042 0.9499
-4.5460 11.8372 -1.7966 0.9501
-7.4285 10.1015 -1.7766 0.9506
-8.2719 9.3702 -1.7710 0.9508
-12.3194 5.2360 -1.8966 0.9474
-12.7232 4.1143 -1.8947 0.9474
-13.0706 -2.9512 -1.8986 0.9473
-7.8863 -4.2011 -1.2661 0.9645
-8.2199 -5.3691 -1.3911 0.9611
-6.7863 -5.3516 -1.2246 0.9657
-3.9582 -5.3649 -0.9447 0.9734
-3.2655 -5.3682 -0.8903 0.9749
-2.6709 -5.4266 -0.8570 0.9759
-1.0347 -5.3813 -0.7764 0.9781
0.4182 -5.3887 -0.7658 0.9784
2.1886 -13.0159 -1.8701 0.9481
6.7090 -11.6329 -1.9027 0.9472
7.8702 -11.2063 -1.9403 0.9462
9.4179 -11.1495 -2.0679 0.9427
10.4423 -10.3354 -2.0817 0.9424
14.8300 -0.9975 -2.1060 0.9417
14.8525 0.3264 -2.1050 0.9417
14.5255 2.9482 -2.1001 0.9419
14.1799 4.2219 -2.0963 0.9420
13.7176 5.4555 -2.0917 0.9421
10.7932 8.1359 -1.9151 0.9469
9.9902 9.0320 -1.9082 0.9470
9.1113 9.8474 -1.9009 0.9472
7.1603 11.2125 -1.8850 0.9477
6.1064 11.7528 -1.8766 0.9479
5.0129 12.1935 -1.8680 0.9481
2.7451 12.7681 -1.8505 0.9486
0.4333 12.9293 -1.8330 0.9491
-1.8491 12.6832 -1.8161 0.9495
-2.9576 12.4129 -1.8080 0.9498
-4.0335 12.0486 -1.8003 0.9500
-6.9925 10.4333 -1.7796 0.9505
-7.8672 9.7369 -1.7737 0.9507
-8.6765 8.9707 -1.7683 0.9508
-9.4151 8.1407 -1.7635 0.9510
-10.8637 7.8182 -1.8964 0.9474
-13.3072 1.1872 -1.8930 0.9475
-13.3648 -0.0021 -1.8936 0.9474
-13.3216 -1.1927 -1.8951 0.9474
-7.9970 -2.9800 -1.2092 0.9661
-7.8798 -3.7660 -1.2374 0.9653
-7.4616 -5.3734 -1.3028 0.9635
-6.1889 -5.3546 -1.1596 0.9675
-4.3309 -5.3635 -0.9768 0.9725
-3.5940 -5.3661 -0.9151 0.9742
-2.9753 -5.4334 -0.8777 0.9753
-1.9330 -5.7801 -0.8636 0.9757
-1.2801 -5.3800 -0.7836 0.9779
-0.7830 -5.3826 -0.7707 0.9783
1.6151 -13.0692 -1.8659 0.9482
2.7849 -12.9333 -1.8745 0.9480
5.0789 -12.3432 -1.8912 0.9475
6.1831 -11.8913 -1.8990 0.9473
7.2455 -11.3380 -1.9065 0.9471
8.6522 -11.1996 -2.0053 0.9444
9.9649 -10.7631 -2.0783 0.9425
12.5565 -7.8108 -2.0953 0.9420
13.2271 -6.6747 -2.0992 0.9419
14.2370 -4.2341 -2.1046 0.9418
14.5663 -2.9517 -2.1058 0.9417
14.7736 -1.6436 -2.1062 0.9417
14.8160 1.0013 -2.1041 0.9418
-3.0093 10.5627 -1.8093 0.9565
-4.8007 9.7924 -1.7966 0.9568
-5.6351 9.2960 -1.7908 0.9569
-6.4209 8.7312 -1.7854 0.9570
-9.1341 7.2261 -1.9187 0.9539
-10.6685 4.5344 -1.9097 0.9541
-11.0197 3.5635 -1.9079 0.9541
-11.2868 2.5669 -1.9069 0.9542
-11.4680 1.5516 -1.9064 0.9542
-11.4867 -1.5360 -1.9091 0.9541
-11.3175 -2.5553 -1.9114 0.9541
-8.5554 -2.7518 -1.4805 0.9642
-7.8797 -3.3346 -1.4096 0.9659
-7.8648 -4.1897 -1.4680 0.9645
-8.2196 -5.3689 -1.6174 0.9610
-5.6718 -5.3573 -1.2853 0.9689
-4.7484 -5.3620 -1.1799 0.9714
-3.2664 -5.3697 -1.0354 0.9748
-2.0950 -5.4298 -0.9588 0.9767
-1.0347 -5.3812 -0.9027 0.9780
-0.5446 -5.3837 -0.8914 0.9783
-0.0629 -5.3861 -0.8874 0.9784
0.4182 -5.3886 -0.8904 0.9783
1.8804 -11.1829 -1.8681 0.9551
2.9227 -11.1790 -1.9035 0.9542
8.0822 -9.5681 -2.0633 0.9505
9.7009 -8.0247 -2.0740 0.9502
10.3988 -7.1445 -2.0785 0.9501
11.9688 -4.1608 -2.0875 0.9499
12.5300 -1.9745 -2.0897 0.9499
12.6756 0.2786 -2.0887 0.9499
12.5903 1.4047 -2.0870 0.9499
12.4007 2.5170 -2.0845 0.9500
11.2316 5.6722 -2.0729 0.9503
9.9721 7.5169 -2.0572 0.9506
6.9953 9.0608 -1.8858 0.9547
6.1383 9.6120 -1.8788 0.9548
5.2381 10.0816 -1.8716 0.9550
2.3595 10.9743 -1.8492 0.9555
-1.5935 10.9299 -1.8196 0.9562
-2.5503 10.7035 -1.8126 0.9564
-3.4801 10.3955 -1.8060 0.9565
-5.2323 9.5478 -1.7936 0.9568
-6.0426 9.0160 -1.7880 0.9570
-6.8016 8.4180 -1.7829 0.9571
-11.3901 2.0505 -1.9066 0.9542
-11.5269 1.0284 -1.9065 0.9542
-11.5762 -0.0018 -1.9071 0.9542
-11.5376 -1.0330 -1.9083 0.9541
-11.4112 -2.0580 -1.9102 0.9541
-7.9378 -2.9580 -1.3955 0.9662
-7.8462 -4.6498 -1.5025 0.9637
-5.1807 -5.3598 -1.2280 0.9702
-4.3314 -5.3642 -1.1358 0.9724
-3.5953 -5.3680 -1.0643 0.9741
-2.3713 -5.4282 -0.9758 0.9763
-1.8449 -5.5166 -0.9583 0.9767
-1.2801 -5.3799 -0.9110 0.9778
1.3865 -11.2200 -1.8624 0.9552
2.4072 -11.1791 -1.8838 0.9547
3.4728 -11.1782 -1.9283 0.9537
10.0672 -7.5837 -2.0764 0.9502
11.7702 -4.6767 -2.0865 0.9500
12.6072 -1.4026 -2.0897 0.9499
12.6789 -0.2747 -2.0892 0.9499
12.6452 0.8546 -2.0879 0.9499
-1.8128 9.5078 -1.8193 0.9614
-2.6432 9.2779 -1.8133 0.9615
-3.4477 8.9772 -1.8075 0.9616
-4.9558 8.1754 -1.7969 0.9618
-6.7949 7.6971 -1.9298 0.9591
-8.0431 6.3630 -1.9277 0.9591
-8.5633 5.6124 -1.9245 0.9592
-9.3995 3.9950 -1.9197 0.9593
-9.9460 2.2619 -1.9172 0.9593
-10.1886 0.4623 -1.9170 0.9593
-8.6660 -2.7874 -1.7111 0.9636
-7.8773 -3.3336 -1.6078 0.9658
-7.8672 -4.1909 -1.6754 0.9644
-7.5190 -7.1020 -1.9440 0.9588
-4.7483 -5.3619 -1.3462 0.9713
-2.6707 -5.4264 -1.1368 0.9757
-2.0949 -5.4296 -1.0939 0.9766
-1.5413 -5.3785 -1.0516 0.9775
-1.0347 -5.3811 -1.0300 0.9779
-0.0629 -5.3860 -1.0124 0.9783
0.4182 -5.3885 -1.0159 0.9782
1.7794 -10.5824 -2.0170 0.9573
3.6523 -10.1675 -2.0307 0.9570
4.5574 -9.8333 -2.0371 0.9568
5.4311 -9.4170 -2.0433 0.9567
7.7872 -7.7074 -2.0594 0.9564
9.0666 -6.2292 -2.0676 0.9562
10.0559 -4.5355 -2.0735 0.9561
10.4296 -3.6258 -2.0754 0.9561
11.0447 0.2427 -2.0765 0.9560
10.8080 2.1937 -2.0729 0.9561
10.5557 3.1429 -2.0701 0.9562
8.0786 7.3037 -2.0470 0.9566
7.1508 7.7285 -1.9791 0.9581
4.5818 8.8183 -1.8679 0.9604
3.7656 9.1595 -1.8614 0.9605
2.9249 9.4251 -1.8549 0.9606
2.0669 9.6137 -1.8483 0.9608
1.1986 9.7246 -1.8417 0.9609
0.3270 9.7577 -1.8351 0.9610
-0.5410 9.7137 -1.8286 0.9612
-5.3152 7.9307 -1.7945 0.9619
-9.2209 4.4034 -1.9207 0.9593
-9.5672 3.5617 -1.9188 0.9593
-9.8399 2.6942 -1.9176 0.9593
-10.0372 1.8069 -1.9169 0.9593
-10.1578 0.9062 -1.9169 0.9593
-10.2009 -0.0016 -1.9174 0.9593
-10.1661 -0.9102 -1.9185 0.9593
-7.5173 -5.4135 -1.7412 0.9630
-7.8116 -6.7585 -1.9415 0.9588
-5.1806 -5.3596 -1.4011 0.9701
-4.3313 -5.3641 -1.2959 0.9723
-3.0917 -5.6459 -1.2099 0.9741
-1.8163 -5.4312 -1.0764 0.9770
-1.2801 -5.3798 -1.0394 0.9777
-0.2982 -5.3848 -1.0137 0.9783
2.2629 -10.5090 -2.0206 0.9572
3.2002 -10.3006 -2.0274 0.9570
4.1178 -10.0073 -2.0340 0.9569
5.0078 -9.6309 -2.0403 0.9568
5.8624 -9.1737 -2.0463 0.9567
8.7786 -6.6130 -2.0658 0.9563
9.8428 -4.9669 -2.0723 0.9561
10.2572 -4.0755 -2.0746 0.9561
10.5875 -3.1487 -2.0762 0.9560
10.8307 -2.1947 -2.0771 0.9560
10.9844 -1.2220 -2.0774 0.9560
11.0473 -0.2393 -2.0769 0.9560
11.0187 0.7446 -2.0758 0.9560
-1.6141 8.4658 -1.8217 0.9654
-2.3544 8.2641 -1.8164 0.9655
-3.0720 7.9990 -1.8112 0.9656
-3.8240 7.8002 -1.8363 0.9651
-4.7206 7.7875 -1.9250 0.9635
-6.0799 6.8872 -1.9419 0.9631
-7.1784 5.6789 -1.9348 0.9633
-8.0497 4.3043 -1.9295 0.9634
-8.3927 3.5671 -1.9276 0.9634
-8.8819 2.0199 -1.9254 0.9634
-9.0249 1.2211 -1.9251 0.9635
-9.0987 0.4129 -1.9253 0.9634
-9.0369 -1.2084 -1.9272 0.9634
-8.6975 -2.7976 -1.9312 0.9633
-8.0884 -4.3088 -1.9372 0.9632
-7.6873 -5.0212 -1.9409 0.9632
-3.9589 -5.3659 -1.4095 0.9731
-2.6707 -5.4263 -1.2784 0.9756
-0.5446 -5.3834 -1.1438 0.9781
2.4179 -9.2480 -2.0206 0.9617
5.5543 -7.9087 -2.0428 0.9613
7.4939 -6.1991 -2.0558 0.9610
8.0292 -5.5164 -2.0592 0.9610
8.5002 -4.7864 -2.0620 0.9609
9.2322 -3.2095 -2.0661 0.9608
9.7597 -0.6565 -2.0677 0.9608
9.7762 0.2149 -2.0670 0.9608
9.0486 3.5986 -2.0584 0.9610
7.7310 5.8277 -2.0465 0.9612
6.5427 7.0713 -2.0364 0.9614
1.0658 8.6472 -1.8417 0.9650
-1.2452 8.5408 -1.8244 0.9653
-2.7239 8.1365 -1.8137 0.9655
-4.2713 7.7942 -1.8787 0.9643
-5.1184 7.6370 -1.9433 0.9631
-5.7796 7.1532 -1.9439 0.9631
-6.9295 5.9916 -1.9364 0.9632
-7.4234 5.3423 -1.9333 0.9633
-7.8588 4.6540 -1.9306 0.9633
-8.2328 3.9316 -1.9285 0.9634
-8.7870 2.4059 -1.9258 0.9634
-8.9635 1.6136 -1.9252 0.9634
-9.1095 -0.0014 -1.9256 0.9634
-9.0778 -0.8127 -1.9265 0.9634
-8.8059 -2.4140 -1.9301 0.9634
-7.9421 -2.9596 -1.7916 0.9659
-8.2617 -3.9485 -1.9356 0.9633
-6.9664 -6.0273 -1.9472 0.9630
-6.4176 -6.6394 -1.9519 0.9630
-3.5951 -5.3677 -1.3656 0.9739
-2.9705 -5.4246 -1.3073 0.9750
-2.3712 -5.4280 -1.2521 0.9761
-1.8163 -5.4311 -1.2105 0.9769
2.8403 -9.1423 -2.0236 0.9616
3.6534 -8.8788 -2.0295 0.9615
6.5882 -7.1159 -2.0499 0.9611
7.7749 -5.8569 -2.0576 0.9610
9.3716 -2.7871 -2.0667 0.9608
9.5864 -1.9426 -2.0676 0.9608
9.7223 -1.0816 -2.0678 0.9608
-2.2169 7.7815 -1.9016 0.9673
-3.6654 7.4766 -1.9570 0.9664
-4.9176 6.6870 -1.9508 0.9665
-6.4756 5.1229 -1.9406 0.9666
-6.8966 4.5201 -1.9380 0.9667
-8.0161 1.8230 -1.9321 0.9668
-8.2118 0.3726 -1.9319 0.9668
-8.1552 -1.0905 -1.9337 0.9668
-7.8473 -2.5241 -1.9374 0.9667
-6.5142 -5.1371 -1.9498 0.9665
-4.9585 -6.7207 -1.9629 0.9663
-4.3515 -7.1535 -1.9678 0.9662
-2.6706 -5.4262 -1.4214 0.9755
-2.0948 -5.4294 -1.3677 0.9764
-1.5413 -5.3782 -1.3149 0.9773
-1.0346 -5.3808 -1.2878 0.9777
-0.5446 -5.3833 -1.2717 0.9780
-0.0629 -5.3858 -1.2659 0.9781
1.4198 -8.4437 -2.0123 0.9654
2.9102 -8.1016 -2.0232 0.9652
4.3221 -7.4941 -2.0332 0.9651
4.9832 -7.0956 -2.0378 0.9650
5.6068 -6.6376 -2.0421 0.9649
6.1871 -6.1238 -2.0459 0.9649
6.7190 -5.5581 -2.0494 0.9648
7.1977 -4.9452 -2.0524 0.9648
7.6189 -4.2902 -2.0550 0.9647
7.9785 -3.5985 -2.0570 0.9647
8.2733 -2.8761 -2.0586 0.9646
8.6585 -1.3644 -2.0601 0.9646
8.7453 -0.5882 -2.0600 0.9646
8.7036 0.9711 -2.0582 0.9647
8.3778 2.4944 -2.0544 0.9647
8.1119 3.2261 -2.0517 0.9648
6.9349 5.2275 -2.0410 0.9649
5.8720 6.3463 -2.0320 0.9651
5.2708 6.8272 -2.0271 0.9652
0.9595 7.7840 -1.8433 0.9683
-1.1352 7.7866 -1.8494 0.9682
-2.6039 7.7783 -1.9278 0.9669
-4.6259 6.9022 -1.9528 0.9664
-5.2113 6.4498 -1.9488 0.9665
-6.2505 5.4045 -1.9420 0.9666
-7.0909 4.1992 -1.9368 0.9667
-7.4291 3.5477 -1.9349 0.9667
-7.7095 2.8701 -1.9334 0.9668
-7.9303 2.1713 -1.9324 0.9668
-8.1871 0.7304 -1.9318 0.9668
-8.2214 -0.0013 -1.9322 0.9668
-8.1003 -1.4609 -1.9345 0.9667
-7.9456 -2.1782 -1.9363 0.9667
-7.4525 -3.5618 -1.9413 0.9666
-5.7842 -5.9841 -1.9560 0.9664
-5.2407 -6.4903 -1.9606 0.9663
-4.6536 -6.9481 -1.9654 0.9662
-4.0269 -7.3537 -1.9705 0.9661
-2.3712 -5.4278 -1.3921 0.9760
-1.8162 -5.4310 -1.3459 0.9767
-1.2800 -5.3796 -1.2996 0.9775
-0.7829 -5.3821 -1.2782 0.9779
-0.2982 -5.3846 -1.2674 0.9781
1.0487 -8.4860 -2.0096 0.9655
1.8049 -8.3822 -2.0152 0.9654
2.5508 -8.2103 -2.0206 0.9653
3.2800 -7.9713 -2.0258 0.9652
3.9864 -7.6666 -2.0309 0.9651
5.3066 -6.8690 -2.0400 0.9650
6.4650 -5.8412 -2.0478 0.9648
6.9703 -5.2508 -2.0510 0.9648
7.4202 -4.6157 -2.0538 0.9647
8.1373 -3.2332 -2.0579 0.9647
8.3980 -2.4976 -2.0592 0.9646
8.7118 -0.9692 -2.0601 0.9646
8.7620 -0.1898 -2.0598 0.9646
-1.4275 7.4867 -1.9734 0.9690
-2.0862 7.3227 -1.9714 0.9690
-2.7235 7.0916 -1.9669 0.9691
-7.1231 2.3034 -1.9383 0.9695
-7.4149 1.0032 -1.9373 0.9696
-7.4232 -0.9926 -1.9391 0.9695
-7.3109 -1.6507 -1.9406 0.9695
-6.9170 -2.9272 -1.9447 0.9694
-6.6380 -3.5362 -1.9474 0.9694
-6.3067 -4.1194 -1.9504 0.9694
-5.0224 -5.6714 -1.9614 0.9692
-4.5073 -6.1093 -1.9657 0.9691
-1.0346 -5.3807 -1.4187 0.9776
-0.0629 -5.3857 -1.3945 0.9780
0.4181 -5.3881 -1.3993 0.9779
5.0780 -6.0116 -2.0375 0.9680
5.6026 -5.5453 -2.0410 0.9680
6.0833 -5.0322 -2.0441 0.9679
7.4874 -2.6029 -2.0524 0.9678
7.8354 -1.2347 -2.0538 0.9678
7.9140 -0.5323 -2.0537 0.9678
7.8769 0.8788 -2.0521 0.9678
7.7617 1.5754 -2.0506 0.9678
7.3436 2.9206 -2.0462 0.9679
6.2812 4.7348 -2.0366 0.9680
5.8235 5.2649 -2.0327 0.9681
5.3207 5.7505 -2.0285 0.9681
4.7771 6.1876 -2.0240 0.9682
3.5870 6.9038 -2.0144 0.9684
2.2925 7.3873 -2.0027 0.9685
1.6197 7.5333 -1.9951 0.9687
0.9395 7.6222 -1.9885 0.9688
0.2565 7.6539 -1.9828 0.9689
-2.4143 7.2117 -1.9691 0.9691
-3.6388 6.6400 -1.9604 0.9692
-4.2070 6.2771 -1.9565 0.9693
-4.7403 5.8668 -1.9529 0.9693
-5.2349 5.4124 -1.9496 0.9694
-6.0945 4.3860 -1.9441 0.9695
-6.4535 3.8217 -1.9419 0.9695
-6.7619 3.2292 -1.9402 0.9695
-7.2189 1.9766 -1.9379 0.9695
-7.4573 -0.6677 -1.9386 0.9695
-7.3730 -1.3297 -1.9398 0.9695
-7.2316 -1.9825 -1.9415 0.9695
-6.7813 -3.2410 -1.9460 0.9694
-5.7119 -4.9419 -1.9556 0.9693
-4.7644 -5.9005 -1.9636 0.9692
-4.2297 -6.3152 -1.9680 0.9691
-2.3711 -5.4277 -1.5336 0.9758
-1.8162 -5.4308 -1.4827 0.9766
-0.7829 -5.3820 -1.4082 0.9778
1.6367 -7.6011 -2.0132 0.9684
2.3125 -7.4434 -2.0181 0.9683
3.6123 -6.9472 -2.0274 0.9682
5.8538 -5.2889 -2.0427 0.9679
6.3104 -4.7537 -2.0456 0.9679
6.7168 -4.1782 -2.0481 0.9678
7.3645 -2.9262 -2.0518 0.9678
7.6000 -2.2602 -2.0530 0.9678
7.7736 -1.5752 -2.0536 0.9678
7.9099 0.5346 -2.0527 0.9678
-1.3084 6.8625 -1.9777 0.9714
-1.9099 6.7039 -1.9734 0.9714
-3.0558 6.2331 -1.9652 0.9716
-3.5917 5.9251 -1.9615 0.9716
-4.0976 5.5720 -1.9580 0.9717
-4.5699 5.1767 -1.9548 0.9717
-5.0052 4.7424 -1.9520 0.9717
-5.7529 3.7705 -1.9472 0.9718
-6.0601 3.2404 -1.9454 0.9718
-6.3198 2.6861 -1.9440 0.9719
-6.5303 2.1117 -1.9429 0.9719
-6.6901 1.5215 -1.9423 0.9719
-6.7981 0.9198 -1.9420 0.9719
-6.8560 -0.3004 -1.9427 0.9719
-6.7019 -1.5132 -1.9450 0.9718
-6.5463 -2.1056 -1.9467 0.9718
-5.7788 -3.7747 -1.9540 0.9717
-5.0346 -4.7553 -1.9605 0.9716
-4.5999 -5.1943 -1.9642 0.9716
-4.1274 -5.5943 -1.9681 0.9715
-3.6206 -5.9520 -1.9722 0.9715
-2.6705 -5.4259 -1.7120 0.9752
-2.0947 -5.4292 -1.6474 0.9761
-0.0825 -7.0636 -1.9998 0.9711
0.5479 -7.0595 -2.0045 0.9710
3.0040 -6.4816 -2.0224 0.9707
3.5762 -6.2008 -2.0264 0.9707
4.1217 -5.8688 -2.0302 0.9706
5.1139 -5.0615 -2.0369 0.9705
5.5519 -4.5926 -2.0398 0.9705
5.9459 -4.0851 -2.0422 0.9705
6.5883 -2.9715 -2.0460 0.9704
7.0180 -1.7579 -2.0481 0.9704
7.1480 -1.1264 -2.0485 0.9704
6.9195 2.0602 -2.0439 0.9704
5.7343 4.3225 -2.0329 0.9706
4.8591 5.2516 -2.0255 0.9707
4.3635 5.6519 -2.0214 0.9708
3.2778 6.3087 -2.0126 0.9709
2.6971 6.5604 -2.0080 0.9709
2.0975 6.7587 -2.0034 0.9710
-0.3898 6.9991 -1.9845 0.9713
-2.7837 6.3667 -1.9671 0.9715
-3.3328 6.0817 -1.9633 0.9716
-3.8539 5.7503 -1.9597 0.9716
-4.3431 5.3753 -1.9563 0.9717
-4.7969 4.9596 -1.9533 0.9717
-5.2122 4.5067 -1.9506 0.9718
-5.9156 3.5032 -1.9463 0.9718
-6.1987 2.9602 -1.9446 0.9718
-6.6183 1.8121 -1.9426 0.9719
-6.7518 1.2155 -1.9421 0.9719
-6.8614 -0.0011 -1.9424 0.9719
-6.8367 -0.6121 -1.9432 0.9719
-6.4471 -2.4025 -1.9477 0.9718
-6.2149 -2.9703 -1.9500 0.9718
-5.6056 -4.0368 -1.9556 0.9717
-5.2327 -4.5273 -1.9588 0.9716
-4.3632 -5.4036 -1.9661 0.9715
-1.6255 -6.8317 -1.9880 0.9712
-0.3901 -7.0450 -1.9975 0.9711
2.1128 -6.8007 -2.0160 0.9708
2.7157 -6.5998 -2.0203 0.9708
4.8845 -5.2758 -2.0354 0.9706
6.4499 -3.2548 -2.0452 0.9704
6.7189 -2.6696 -2.0467 0.9704
-2.2975 5.9825 -1.9711 0.9735
-2.8157 5.7435 -1.9674 0.9736
-3.3100 5.4605 -1.9640 0.9736
-3.7768 5.1358 -1.9608 0.9737
-4.2127 4.7720 -1.9579 0.9737
-4.6145 4.3722 -1.9552 0.9737
-6.2699 0.8483 -1.9461 0.9739
-6.3210 0.2868 -1.9462 0.9739
-6.3231 -0.2771 -1.9467 0.9739
-6.2761 -0.8392 -1.9476 0.9738
-6.1804 -1.3955 -1.9488 0.9738
-5.8455 -2.4737 -1.9523 0.9738
-5.6085 -2.9877 -1.9546 0.9738
-5.3273 -3.4797 -1.9571 0.9737
-4.6400 -4.3826 -1.9631 0.9736
-3.8027 -5.1543 -1.9701 0.9736
-2.0947 -5.4290 -1.7898 0.9759
0.5040 -6.4948 -2.0037 0.9731
1.0825 -6.4378 -2.0079 0.9730
1.6547 -6.3291 -2.0121 0.9730
2.2160 -6.1691 -2.0162 0.9729
2.7617 -5.9588 -2.0201 0.9729
3.2872 -5.6998 -2.0238 0.9728
4.2599 -5.0431 -2.0305 0.9728
4.6987 -4.6506 -2.0334 0.9727
6.4453 -1.6145 -2.0437 0.9726
6.5646 -1.0345 -2.0441 0.9726
6.6305 -0.4460 -2.0440 0.9726
6.6424 0.1460 -2.0435 0.9726
6.6002 0.7364 -2.0427 0.9726
6.5045 1.3202 -2.0414 0.9726
6.3560 1.8925 -2.0398 0.9726
6.1562 2.4483 -2.0378 0.9727
5.6105 3.4925 -2.0327 0.9727
5.2696 3.9722 -2.0297 0.9728
4.0117 5.1963 -2.0192 0.9729
3.0146 5.8021 -2.0111 0.9730
0.2167 6.4647 -1.9895 0.9733
-1.4897 6.2523 -1.9769 0.9735
-3.0713 5.6044 -1.9657 0.9736
-3.5520 5.2998 -1.9623 0.9737
-4.4222 4.5722 -1.9565 0.9737
-5.1506 3.7067 -1.9518 0.9738
-5.4550 3.2304 -1.9500 0.9738
-5.7165 2.7299 -1.9485 0.9738
-6.1040 1.6713 -1.9466 0.9739
-6.3021 0.5623 -1.9461 0.9739
-6.3282 -0.0010 -1.9464 0.9739
-6.3052 -0.5645 -1.9471 0.9739
-6.2333 -1.1242 -1.9482 0.9738
-6.1129 -1.6758 -1.9496 0.9738
-5.9448 -2.2153 -1.9513 0.9738
-5.7302 -2.7386 -1.9534 0.9738
-5.4704 -3.2419 -1.9558 0.9737
-5.1672 -3.7211 -1.9586 0.9737
-4.8229 -4.1727 -1.9616 0.9737
-4.4396 -4.5931 -1.9648 0.9736
-4.0203 -4.9789 -1.9683 0.9736
-1.4965 -6.2893 -1.9885 0.9733
-0.9327 -6.4115 -1.9928 0.9733
0.2200 -6.5037 -2.0015 0.9731
1.9429 -6.2538 -2.0142 0.9730
3.0328 -5.8326 -2.0220 0.9729
3.5462 -5.5493 -2.0256 0.9728
4.0328 -5.2202 -2.0289 0.9728
4.9087 -4.4350 -2.0348 0.9727
5.2903 -3.9853 -2.0372 0.9727
6.1710 -2.4519 -2.0424 0.9726
6.5129 -1.3198 -2.0439 0.9726
6.6050 -0.7348 -2.0441 0.9726
6.6433 -0.1439 -2.0438 0.9726
-1.1157 5.8515 -1.9801 0.9752
-1.6291 5.7181 -1.9764 0.9752
-2.1277 5.5404 -1.9728 0.9753
-2.6080 5.3198 -1.9694 0.9753
-3.0662 5.0583 -1.9662 0.9754
-3.4990 4.7581 -1.9632 0.9754
-4.2760 4.0515 -1.9581 0.9755
-4.6146 3.6507 -1.9559 0.9755
-4.9166 3.2223 -1.9540 0.9755
-5.4023 2.2961 -1.9512 0.9756
-5.5827 1.8053 -1.9503 0.9756
-5.8612 -0.2568 -1.9502 0.9756
-5.7285 -1.2934 -1.9521 0.9755
-5.5948 -1.7996 -1.9536 0.9755
-5.4173 -2.2926 -1.9554 0.9755
-5.1973 -2.7687 -1.9575 0.9755
-4.2984 -4.0599 -1.9654 0.9754
-3.9261 -4.4335 -1.9685 0.9753
-3.0885 -5.0772 -1.9754 0.9753
-2.6292 -5.3419 -1.9791 0.9752
-1.6466 -5.7458 -1.9868 0.9751
-0.6040 -5.9708 -1.9949 0.9750
-0.0703 -6.0130 -1.9989 0.9750
0.4662 -6.0075 -2.0029 0.9749
1.0011 -5.9539 -2.0069 0.9749
2.5530 -5.5084 -2.0181 0.9747
3.9363 -4.6601 -2.0277 0.9746
5.0457 -3.4666 -2.0349 0.9745
5.5892 -2.5209 -2.0381 0.9745
5.7945 -2.0144 -2.0392 0.9745
5.9528 -1.4911 -2.0399 0.9745
6.1238 -0.4119 -2.0402 0.9745
6.1349 0.1348 -2.0398 0.9745
6.0080 1.2194 -2.0378 0.9745
4.5166 4.0834 -2.0240 0.9747
4.1285 4.4621 -2.0207 0.9747
3.7086 4.8036 -2.0172 0.9747
3.2603 5.1054 -2.0136 0.9748
2.7877 5.3653 -2.0098 0.9748
2.2945 5.5813 -2.0059 0.9749
0.2005 5.9828 -1.9898 0.9751
-0.3322 5.9650 -1.9859 0.9751
-0.8602 5.9001 -1.9820 0.9752
-1.8857 5.6329 -1.9745 0.9753
-3.2906 4.9097 -1.9647 0.9754
-4.7735 3.4353 -1.9549 0.9755
-5.4998 2.0475 -1.9507 0.9756
-5.6581 1.5492 -1.9500 0.9756
-5.7724 1.0392 -1.9496 0.9756
-5.8419 0.5212 -1.9496 0.9756
-5.8660 -0.0009 -1.9499 0.9756
-5.8445 -0.5233 -1.9505 0.9756
-5.6658 -1.5532 -1.9528 0.9755
-5.3102 -2.5379 -1.9564 0.9755
-5.0690 -3.0040 -1.9586 0.9755
-3.7236 -4.6115 -1.9702 0.9753
-2.8570 -5.2173 -1.9773 0.9752
-2.3709 -5.4273 -1.9687 0.9753
-1.8938 -5.6630 -1.9849 0.9751
-0.3322 -5.9983 -1.9969 0.9750
0.2035 -6.0162 -2.0010 0.9749
1.2722 -5.9080 -2.0089 0.9748
1.7964 -5.7823 -2.0127 0.9748
2.3082 -5.6096 -2.0164 0.9748
2.8033 -5.3913 -2.0199 0.9747
3.7267 -4.8239 -2.0263 0.9746
4.1471 -4.4793 -2.0291 0.9746
4.5351 -4.0975 -2.0317 0.9746
4.8873 -3.6816 -2.0339 0.9745
5.8813 -1.7491 -2.0396 0.9745
6.1002 -0.6786 -2.0402 0.9745
6.1213 0.4137 -2.0394 0.9745
-1.0376 5.4417 -1.9811 0.9767
-1.9793 5.1538 -1.9743 0.9768
-2.4263 4.9492 -1.9711 0.9769
-3.2560 4.4275 -1.9654 0.9769
-3.6325 4.1148 -1.9628 0.9770
-4.2952 3.3980 -1.9585 0.9770
-4.5765 2.9995 -1.9568 0.9770
-5.1973 1.6806 -1.9533 0.9771
-5.4109 0.7321 -1.9526 0.9771
-5.3326 -1.2040 -1.9550 0.9770
-5.0424 -2.1339 -1.9580 0.9770
-4.5938 -3.0006 -1.9622 0.9770
-4.3139 -3.4019 -1.9647 0.9769
-3.9995 -3.7776 -1.9674 0.9769
-2.4451 -4.9680 -1.9801 0.9768
-1.9968 -5.1752 -1.9837 0.9767
-1.0513 -5.4675 -1.9910 0.9766
-0.5614 -5.5498 -1.9948 0.9766
0.4332 -5.5823 -2.0023 0.9765
1.9030 -5.2978 -2.0130 0.9764
2.8214 -4.8921 -2.0196 0.9763
3.2505 -4.6283 -2.0225 0.9763
3.6546 -4.3265 -2.0253 0.9762
4.0302 -3.9889 -2.0278 0.9762
4.6833 -3.2176 -2.0320 0.9762
4.9551 -2.7902 -2.0336 0.9761
5.3775 -1.8694 -2.0359 0.9761
5.5243 -1.3838 -2.0366 0.9761
5.5759 1.1317 -2.0346 0.9761
5.0658 2.5584 -2.0295 0.9762
2.5898 4.9844 -2.0087 0.9764
1.6588 5.3451 -2.0014 0.9765
0.1864 5.5620 -1.9901 0.9766
-0.7999 5.4866 -1.9828 0.9767
-1.2828 5.3841 -1.9793 0.9768
-2.2098 5.0542 -1.9726 0.9768
-2.6468 4.8299 -1.9696 0.9769
-3.8136 3.9429 -1.9616 0.9770
-4.4432 3.1976 -1.9576 0.9770
-4.7064 2.7871 -1.9560 0.9770
-5.1200 1.9061 -1.9537 0.9771
-5.4410 -0.4871 -1.9535 0.9771
-5.3785 -0.9700 -1.9544 0.9771
-5.2741 -1.4458 -1.9557 0.9770
-4.9426 -2.3622 -1.9590 0.9770
-3.8263 -3.9586 -1.9688 0.9769
-2.6572 -4.8525 -1.9784 0.9768
-2.2186 -5.0787 -1.9819 0.9767
-1.7609 -5.2656 -1.9855 0.9767
-0.3087 -5.5750 -1.9967 0.9766
0.6873 -5.5621 -2.0042 0.9765
1.1819 -5.4887 -2.0078 0.9764
2.1439 -5.2102 -2.0148 0.9764
2.6034 -5.0067 -2.0180 0.9763
3.0434 -4.7623 -2.0211 0.9763
4.5364 -3.4173 -2.0310 0.9762
4.8269 -3.0026 -2.0328 0.9761
5.0787 -2.5628 -2.0343 0.9761
5.2897 -2.1018 -2.0355 0.9761
5.4580 -1.6232 -2.0363 0.9761
5.6940 -0.1234 -2.0367 0.9761
5.6808 0.3839 -2.0361 0.9761
-1.8482 4.8125 -1.9756 0.9782
-2.2659 4.6219 -1.9726 0.9782
-2.6646 4.3957 -1.9698 0.9782
-3.3933 3.8438 -1.9649 0.9783
-4.2760 2.8025 -1.9592 0.9783
-4.8565 1.5704 -1.9560 0.9784
-4.9758 1.1316 -1.9555 0.9784
-2.3130 0.3130 -0.8945 0.9901
-2.3001 -0.1008 -0.8823 0.9902
-2.3105 -0.3090 -0.8933 0.9901
-4.9827 -1.1250 -1.9575 0.9784
-4.8660 -1.5652 -1.9588 0.9783
-4.2914 -2.8031 -1.9643 0.9783
-4.0296 -3.1777 -1.9666 0.9783
-3.7355 -3.5283 -1.9691 0.9782
-3.4113 -3.8522 -1.9718 0.9782
-3.0594 -4.1467 -1.9748 0.9782
-2.6822 -4.4094 -1.9778 0.9781
-1.4290 -4.9863 -1.9878 0.9780
-0.9811 -5.1026 -1.9912 0.9780
-0.5239 -5.1788 -1.9947 0.9779
0.4042 -5.2078 -2.0017 0.9779
0.8676 -5.1600 -2.0051 0.9778
3.7566 -3.7181 -2.0255 0.9776
4.3647 -2.9988 -2.0294 0.9776
4.6178 -2.6003 -2.0309 0.9776
4.8339 -2.1802 -2.0321 0.9775
5.2429 -0.8262 -2.0340 0.9775
5.2955 -0.3562 -2.0339 0.9775
5.2720 0.5882 -2.0329 0.9775
5.1962 1.0547 -2.0319 0.9775
5.0784 1.5120 -2.0306 0.9776
4.9197 1.9566 -2.0290 0.9776
3.5747 3.8635 -2.0171 0.9777
3.2118 4.1602 -2.0141 0.9777
2.8243 4.4227 -2.0110 0.9778
2.4155 4.6490 -2.0077 0.9778
1.5475 4.9866 -2.0009 0.9779
0.1740 5.1909 -1.9904 0.9780
-0.2883 5.1768 -1.9869 0.9780
-0.7467 5.1219 -1.9835 0.9781
-1.1977 5.0267 -1.9802 0.9781
-2.0636 4.7198 -1.9740 0.9782
-2.4720 4.5108 -1.9712 0.9782
-3.5626 3.6834 -1.9637 0.9783
-3.8723 3.3482 -1.9617 0.9783
-4.3974 2.6041 -1.9585 0.9783
-4.6089 2.2010 -1.9573 0.9784
-4.9222 1.3477 -1.9557 0.9784
-5.0218 0.9040 -1.9554 0.9784
-2.2865 -0.0004 -0.8762 0.9903
-5.0257 -0.9064 -1.9570 0.9784
-4.7916 -1.7856 -1.9596 0.9783
-3.5736 -3.6971 -1.9705 0.9782
-3.2350 -4.0063 -1.9733 0.9782
-2.8698 -4.2849 -1.9763 0.9782
-1.6437 -4.9151 -1.9861 0.9780
-1.2017 -5.0506 -1.9895 0.9780
-0.7487 -5.1466 -1.9930 0.9780
-0.2881 -5.2019 -1.9965 0.9779
0.6412 -5.1886 -2.0035 0.9779
1.1024 -5.1195 -2.0069 0.9778
2.4274 -4.6683 -2.0164 0.9777
2.8374 -4.4400 -2.0193 0.9777
3.9239 -3.5453 -2.0266 0.9776
4.2280 -3.1850 -2.0285 0.9776
4.4984 -2.7983 -2.0302 0.9776
4.7329 -2.3883 -2.0316 0.9775
4.9293 -1.9586 -2.0326 0.9775
5.0860 -1.5126 -2.0334 0.9775
5.2016 -1.0540 -2.0339 0.9775
5.2751 -0.5869 -2.0340 0.9775
5.2936 0.3577 -2.0332 0.9775
-0.9073 4.7586 -1.9827 0.9793
-1.3253 4.6518 -1.9796 0.9793
-2.4968 4.1190 -1.9713 0.9794
-3.1802 3.6024 -1.9667 0.9794
-3.4847 3.3017 -1.9647 0.9795
-4.4054 1.8724 -1.9591 0.9795
-4.5528 1.4722 -1.9584 0.9795
-2.0206 0.2734 -0.8345 0.9912
-2.0030 0.0909 -0.8206 0.9914
-2.0206 -0.2702 -0.8343 0.9912
-4.0220 -2.6271 -1.9661 0.9795
-3.7763 -2.9780 -1.9683 0.9794
-3.5004 -3.3063 -1.9707 0.9794
-3.1964 -3.6094 -1.9732 0.9794
-2.8663 -3.8850 -1.9760 0.9793
-2.1383 -4.3446 -1.9819 0.9793
-1.3382 -4.6698 -1.9882 0.9792
-0.0570 -4.8814 -1.9980 0.9791
0.8121 -4.8297 -2.0044 0.9791
1.6608 -4.6233 -2.0106 0.9790
2.0687 -4.4636 -2.0135 0.9790
3.8132 -3.1543 -2.0254 0.9788
4.8139 -1.2058 -2.0311 0.9788
4.9028 -0.7726 -2.0314 0.9788
4.9612 0.1090 -2.0310 0.9788
4.6014 1.8300 -2.0267 0.9788
4.4164 2.2304 -2.0249 0.9788
3.6579 3.3071 -2.0182 0.9789
3.3447 3.6149 -2.0156 0.9789
3.0054 3.8928 -2.0128 0.9790
2.2607 4.3511 -2.0068 0.9790
1.8615 4.5279 -2.0036 0.9791
1.4487 4.6681 -2.0004 0.9791
1.0257 4.7707 -1.9972 0.9791
0.1629 4.8610 -1.9906 0.9792
-1.1219 4.7087 -1.9811 0.9793
-1.9334 4.4221 -1.9753 0.9794
-2.3163 4.2267 -1.9726 0.9794
-3.0216 3.7397 -1.9678 0.9794
-3.3390 3.4522 -1.9656 0.9795
-3.8912 2.8003 -1.9621 0.9795
-4.1221 2.4411 -1.9607 0.9795
-4.3205 2.0633 -1.9596 0.9795
-2.0573 0.3704 -0.8555 0.9910
-2.0153 0.1798 -0.8281 0.9913
-4.6195 -1.2664 -1.9604 0.9795
-4.3282 -2.0686 -1.9633 0.9795
-4.1307 -2.4479 -1.9652 0.9795
-3.6391 -3.1486 -1.9695 0.9794
-2.3241 -4.2440 -1.9804 0.9793
-1.9400 -4.4409 -1.9834 0.9793
-0.2697 -4.8703 -1.9963 0.9791
0.1652 -4.8830 -1.9996 0.9791
1.0318 -4.7916 -2.0060 0.9790
1.8708 -4.5464 -2.0121 0.9790
2.6546 -4.1540 -2.0176 0.9789
3.6703 -3.3161 -2.0245 0.9788
3.9544 -2.9789 -2.0263 0.9788
4.4262 -2.2336 -2.0291 0.9788
4.6098 -1.8316 -2.0301 0.9788
4.8642 -0.9857 -2.0313 0.9788
-1.2451 4.3704 -1.9805 0.9804
-1.6270 4.2364 -1.9778 0.9804
-1.9950 4.0694 -1.9751 0.9804
-3.5356 2.7971 -1.9648 0.9805
-3.7678 2.4694 -1.9633 0.9805
-1.4735 0.1994 -0.6480 0.9935
-1.4493 -0.0635 -0.6322 0.9937
-1.4935 -0.4804 -0.6837 0.9932
-4.1509 -1.7566 -1.9644 0.9805
-3.7802 -2.4692 -1.9678 0.9805
-3.2896 -3.1071 -1.9721 0.9804
-2.3608 -3.8810 -1.9798 0.9804
-2.0088 -4.0815 -1.9826 0.9803
-0.8628 -4.4875 -1.9915 0.9803
-0.4607 -4.5535 -1.9946 0.9802
1.1647 -4.4548 -2.0067 0.9801
2.3098 -4.0049 -2.0149 0.9800
2.6603 -3.7880 -2.0173 0.9800
3.5775 -2.9593 -2.0234 0.9799
3.8297 -2.6312 -2.0250 0.9799
4.0514 -2.2813 -2.0264 0.9799
4.2407 -1.9127 -2.0274 0.9799
4.3958 -1.5282 -2.0282 0.9799
4.5989 -0.7247 -2.0290 0.9799
4.5586 0.9252 -2.0272 0.9799
4.1435 2.0925 -2.0230 0.9799
3.9371 2.4508 -2.0211 0.9800
3.6995 2.7887 -2.0190 0.9800
3.4326 3.1034 -2.0167 0.9800
2.8208 3.6536 -2.0116 0.9801
2.1222 4.0845 -2.0060 0.9801
1.7476 4.2509 -2.0030 0.9801
1.3602 4.3829 -2.0000 0.9802
0.9631 4.4797 -1.9970 0.9802
0.5597 4.5407 -1.9939 0.9802
0.1530 4.5654 -1.9908 0.9803
-1.0540 4.4237 -1.9819 0.9804
-1.4416 4.3062 -1.9791 0.9804
-1.8167 4.1552 -1.9764 0.9804
-2.1766 3.9718 -1.9739 0.9804
-3.1383 3.2448 -1.9673 0.9805
-3.6578 2.6323 -1.9640 0.9805
-3.8750 2.2948 -1.9627 0.9805
-4.0616 1.9396 -1.9616 0.9806
-1.5049 0.5603 -0.6998 0.9930
-1.4703 0.2647 -0.6511 0.9935
-1.4667 0.1309 -0.6418 0.9936
-1.4229 -0.0002 -0.6201 0.9938
-1.4668 -0.1313 -0.6418 0.9936
-1.4702 -0.2652 -0.6511 0.9935
-1.5059 -0.5612 -0.7004 0.9930
-4.0684 -1.9444 -1.9652 0.9805
-3.8825 -2.3009 -1.9669 0.9805
-3.6659 -2.6399 -1.9688 0.9805
-3.1468 -3.2555 -1.9733 0.9804
-2.8481 -3.5272 -1.9758 0.9804
-1.0570 -4.4422 -1.9900 0.9803
-0.6583 -4.5257 -1.9931 0.9802
-0.2533 -4.5734 -1.9962 0.9802
2.4911 -3.8982 -2.0162 0.9800
2.8315 -3.6652 -2.0185 0.9800
3.9468 -2.4551 -2.0257 0.9799
4.1522 -2.0953 -2.0269 0.9799
4.3242 -1.7182 -2.0279 0.9799
4.4615 -1.3268 -2.0286 0.9799
4.6542 -0.1008 -2.0289 0.9799
4.6437 0.3138 -2.0284 0.9799
-0.8027 4.2102 -1.9840 0.9813
-1.8794 3.8335 -1.9762 0.9814
-2.5237 3.4317 -1.9718 0.9814
-2.8163 3.1902 -1.9698 0.9814
-3.3317 2.6358 -1.9664 0.9814
-3.5507 2.3271 -1.9651 0.9815
-3.7416 2.0007 -1.9640 0.9815
-1.2461 0.5296 -0.6267 0.9940
-1.2751 0.1725 -0.5956 0.9943
-1.2674 0.0575 -0.5873 0.9944
-1.2685 -0.2864 -0.6019 0.9943
-1.2680 -0.4079 -0.6166 0.9941
-1.2467 -0.5276 -0.6266 0.9941
-3.7516 -1.9985 -1.9676 0.9814
-3.5619 -2.3266 -1.9693 0.9814
-2.5370 -3.4386 -1.9780 0.9813
-2.2237 -3.6555 -1.9806 0.9813
-1.8920 -3.8441 -1.9832 0.9813
-1.5444 -4.0028 -1.9860 0.9813
-1.1836 -4.1303 -1.9888 0.9812
-0.8124 -4.2254 -1.9917 0.9812
-0.4337 -4.2871 -1.9946 0.9812
-0.0504 -4.3150 -1.9975 0.9812
2.1734 -3.7684 -2.0137 0.9810
2.5030 -3.5640 -2.0159 0.9810
3.1016 -3.0698 -2.0200 0.9809
3.8109 -2.1459 -2.0244 0.9809
3.9888 -1.7990 -2.0254 0.9809
4.1346 -1.4374 -2.0262 0.9809
4.3256 -0.6816 -2.0269 0.9809
4.3772 0.0962 -2.0266 0.9809
4.3500 0.4853 -2.0260 0.9809
4.2878 0.8703 -2.0252 0.9809
4.0607 1.6149 -2.0228 0.9809
3.8978 1.9685 -2.0213 0.9809
3.2297 2.9199 -2.0154 0.9810
2.9536 3.1922 -2.0131 0.9810
2.6544 3.4382 -2.0106 0.9810
0.5269 4.2751 -1.9939 0.9812
-0.2388 4.2884 -1.9881 0.9812
-0.6188 4.2441 -1.9853 0.9813
-0.9927 4.1665 -1.9826 0.9813
-1.7114 3.9142 -1.9774 0.9813
-2.3728 3.5404 -1.9728 0.9814
-2.9571 3.0574 -1.9689 0.9814
-3.4469 2.4806 -1.9657 0.9815
-1.2707 0.3479 -0.6098 0.9942
-1.2720 0.2290 -0.5983 0.9943
-1.2583 -0.0002 -0.5824 0.9945
-1.2707 -0.3483 -0.6099 0.9942
-3.6584 -2.1680 -1.9684 0.9814
-3.4541 -2.4874 -1.9703 0.9814
-3.2222 -2.7878 -1.9723 0.9814
-2.9646 -3.0670 -1.9745 0.9814
-2.6829 -3.3227 -1.9768 0.9814
-2.3795 -3.5528 -1.9793 0.9813
-2.0565 -3.7555 -1.9819 0.9813
-1.7164 -3.9290 -1.9846 0.9813
-1.3617 -4.0719 -1.9874 0.9813
-0.2384 -4.3056 -1.9961 0.9812
0.1460 -4.3160 -1.9990 0.9811
0.5304 -4.2920 -2.0018 0.9811
0.9116 -4.2337 -2.0046 0.9811
1.2866 -4.1413 -2.0073 0.9811
2.6640 -3.4484 -2.0170 0.9810
2.9633 -3.2007 -2.0191 0.9810
3.4899 -2.6289 -2.0225 0.9809
3.7126 -2.3094 -2.0238 0.9809
3.9056 -1.9709 -2.0250 0.9809
4.0673 -1.6161 -2.0259 0.9809
4.2915 -0.8696 -2.0269 0.9809
4.3776 -0.0948 -2.0268 0.9809
4.3677 0.2952 -2.0264 0.9809
-0.7577 3.9741 -1.9845 0.9821
-1.1071 3.8859 -1.9820 0.9822
-1.4468 3.7673 -1.9795 0.9822
-2.0872 3.4432 -1.9750 0.9822
-2.3830 3.2404 -1.9730 0.9822
-2.6594 3.0125 -1.9711 0.9823
-3.1464 2.4892 -1.9680 0.9823
-3.3533 2.1978 -1.9667 0.9823
-1.1409 0.0518 -0.5602 0.9949
-1.1407 -0.0500 -0.5601 0.9949
-1.1441 -0.1530 -0.5662 0.9949
-1.1334 -0.2559 -0.5699 0.9948
-1.1016 -0.5868 -0.6122 0.9945
-3.1575 -2.4900 -1.9725 0.9822
-2.9263 -2.7640 -1.9745 0.9822
-2.6715 -3.0168 -1.9766 0.9822
-2.3951 -3.2464 -1.9789 0.9822
-0.7667 -3.9875 -1.9918 0.9821
-0.0476 -4.0715 -1.9973 0.9820
0.6770 -4.0262 -2.0027 0.9820
1.0341 -3.9551 -2.0053 0.9820
1.3838 -3.8522 -2.0078 0.9819
2.0498 -3.5541 -2.0125 0.9819
2.9246 -2.8947 -2.0185 0.9818
3.1733 -2.6250 -2.0201 0.9818
3.5930 -2.0232 -2.0227 0.9818
3.8981 -1.3551 -2.0244 0.9818
4.1190 -0.2770 -2.0250 0.9818
4.1267 0.0907 -2.0247 0.9818
4.1012 0.4576 -2.0242 0.9818
4.0426 0.8205 -2.0234 0.9818
3.9515 1.1765 -2.0224 0.9818
3.6754 1.8561 -2.0197 0.9818
3.2822 2.4742 -2.0162 0.9819
3.0459 2.7537 -2.0142 0.9819
2.7856 3.0107 -2.0120 0.9819
2.5037 3.2429 -2.0096 0.9819
2.2024 3.4487 -2.0072 0.9819
1.5519 3.7748 -2.0020 0.9820
1.2081 3.8928 -1.9993 0.9820
0.8556 3.9794 -1.9966 0.9820
0.4973 4.0343 -1.9939 0.9821
0.1360 4.0569 -1.9911 0.9821
-0.5840 4.0060 -1.9858 0.9821
-1.2819 3.8291 -1.9807 0.9822
-1.6157 3.6953 -1.9783 0.9822
-2.5266 3.1271 -1.9720 0.9822
-2.7925 2.8872 -1.9703 0.9823
-3.0359 2.6250 -1.9687 0.9823
-3.2553 2.3427 -1.9673 0.9823
-1.0898 0.5204 -0.5924 0.9946
-1.1326 0.3101 -0.5760 0.9948
-1.1441 0.1021 -0.5634 0.9949
-1.1336 -0.0002 -0.5561 0.9950
-1.1407 -0.2057 -0.5686 0.9948
-1.1198 -0.4173 -0.5862 0.9947
-1.0896 -0.5208 -0.5924 0.9946
-3.4547 -2.0473 -1.9699 0.9823
-3.2616 -2.3488 -1.9716 0.9823
-3.0425 -2.6324 -1.9735 0.9822
-2.7991 -2.8958 -1.9756 0.9822
-2.5330 -3.1370 -1.9778 0.9822
-2.2464 -3.3540 -1.9801 0.9822
-1.9413 -3.5451 -1.9826 0.9822
-1.6201 -3.7086 -1.9851 0.9821
-0.9393 -3.9477 -1.9905 0.9821
-0.5850 -4.0211 -1.9932 0.9821
-0.2250 -4.0628 -1.9959 0.9820
0.5004 -4.0493 -2.0014 0.9820
1.5585 -3.7876 -2.0091 0.9819
2.7944 -3.0182 -2.0176 0.9818
3.0546 -2.7598 -2.0193 0.9818
3.6823 -1.8582 -2.0232 0.9818
3.8347 -1.5236 -2.0240 0.9818
4.0459 -0.8199 -2.0250 0.9818
4.1271 -0.0894 -2.0249 0.9818
-2.2544 3.0656 -1.9741 0.9830
-2.7576 2.6128 -1.9708 0.9830
-2.9772 2.3553 -1.9694 0.9830
-0.9573 0.5119 -0.5632 0.9951
-1.0353 0.0470 -0.5376 0.9953
-1.0351 -0.0454 -0.5375 0.9953
-1.0366 -0.1386 -0.5425 0.9953
-1.0148 -0.3264 -0.5530 0.9952
-3.1824 -2.0787 -1.9719 0.9830
-2.5272 -2.8538 -1.9776 0.9830
-1.6891 -3.4319 -1.9844 0.9829
-1.0564 -3.6863 -1.9894 0.9829
-0.7250 -3.7706 -1.9919 0.9828
0.2982 -3.8430 -1.9997 0.9828
0.6400 -3.8060 -2.0022 0.9828
1.6287 -3.5141 -2.0093 0.9827
1.9371 -3.3588 -2.0115 0.9827
2.2307 -3.1762 -2.0135 0.9827
2.5069 -2.9678 -2.0154 0.9826
2.7635 -2.7352 -2.0171 0.9826
3.5529 -1.6025 -2.0220 0.9826
3.6827 -1.2803 -2.0227 0.9826
3.8913 -0.2617 -2.0233 0.9826
3.8193 0.7752 -2.0218 0.9826
3.6175 1.4387 -2.0197 0.9826
3.3002 2.0544 -2.0167 0.9826
2.8784 2.6023 -2.0131 0.9827
2.6326 2.8453 -2.0110 0.9827
1.1421 3.6802 -1.9990 0.9828
0.4702 3.8145 -1.9939 0.9828
0.1286 3.8363 -1.9913 0.9829
-0.2132 3.8276 -1.9887 0.9829
-0.5523 3.7886 -1.9862 0.9829
-1.2125 3.6218 -1.9814 0.9829
-1.5283 3.4956 -1.9792 0.9830
-2.1196 3.1625 -1.9751 0.9830
-3.0802 2.2167 -1.9687 0.9830
-1.0194 0.2791 -0.5483 0.9952
-1.0376 -0.0929 -0.5404 0.9953
-1.0061 -0.3749 -0.5570 0.9952
-0.9775 -0.4672 -0.5621 0.9951
-0.9598 -0.5688 -0.5788 0.9950
-2.6479 -2.7394 -1.9765 0.9830
-2.3961 -2.9674 -1.9786 0.9830
-2.1248 -3.1725 -1.9809 0.9829
-1.5322 -3.5074 -1.9856 0.9829
-0.8882 -3.7330 -1.9907 0.9829
-0.2127 -3.8413 -1.9958 0.9828
0.1302 -3.8499 -1.9984 0.9828
0.4730 -3.8279 -2.0010 0.9828
0.8129 -3.7753 -2.0035 0.9827
1.1472 -3.6924 -2.0059 0.9827
1.4730 -3.5798 -2.0082 0.9827
1.7878 -3.4383 -2.0105 0.9827
2.3740 -3.0730 -2.0145 0.9827
2.6405 -2.8520 -2.0163 0.9826
2.8862 -2.6077 -2.0179 0.9826
3.1091 -2.3421 -2.0194 0.9826
3.3072 -2.0573 -2.0206 0.9826
3.4789 -1.7556 -2.0216 0.9826
3.8990 -0.0845 -2.0232 0.9826
3.8903 0.2629 -2.0228 0.9826
-0.9921 3.4824 -1.9832 0.9836
-2.6136 2.4763 -1.9720 0.9837
-2.8218 2.2323 -1.9706 0.9837
-0.9196 0.2974 -0.5294 0.9956
-0.9339 0.2124 -0.5245 0.9956
-0.9455 -0.0414 -0.5184 0.9957
-0.9342 -0.2109 -0.5245 0.9956
-0.9198 -0.2959 -0.5292 0.9956
-0.9040 -0.3826 -0.5376 0.9955
-2.3948 -2.7043 -1.9784 0.9837
-2.1468 -2.9097 -1.9805 0.9836
-1.8813 -3.0926 -1.9826 0.9836
-1.6003 -3.2515 -1.9849 0.9836
-1.3060 -3.3850 -1.9872 0.9836
-1.0007 -3.4920 -1.9896 0.9836
-0.6867 -3.5716 -1.9920 0.9835
-0.3665 -3.6230 -1.9945 0.9835
-0.0426 -3.6457 -1.9969 0.9835
0.9255 -3.5401 -2.0041 0.9835
1.2384 -3.4475 -2.0063 0.9834
1.5420 -3.3272 -2.0085 0.9834
1.8340 -3.1799 -2.0106 0.9834
2.1118 -3.0069 -2.0125 0.9834
2.8381 -2.3477 -2.0173 0.9833
3.0377 -2.0870 -2.0186 0.9833
3.2131 -1.8093 -2.0196 0.9833
3.3628 -1.5167 -2.0205 0.9833
1.9028 -0.6615 -1.1034 0.9909
1.8858 -0.4724 -1.0648 0.9912
1.8855 0.3827 -1.0538 0.9913
3.4242 1.3618 -2.0183 0.9833
3.2872 1.6601 -2.0170 0.9833
3.1241 1.9447 -2.0155 0.9834
2.4925 2.6938 -2.0101 0.9834
1.9711 3.0865 -2.0058 0.9834
1.6865 3.2460 -2.0035 0.9835
0.7661 3.5635 -1.9963 0.9835
0.4453 3.6131 -1.9939 0.9835
0.1218 3.6339 -1.9914 0.9836
-0.8397 3.5243 -1.9843 0.9836
-1.7355 3.1669 -1.9779 0.9837
-2.0086 2.9970 -1.9760 0.9837
-2.7226 2.3541 -1.9713 0.9837
-0.8936 0.4268 -0.5424 0.9955
-0.9247 0.2532 -0.5251 0.9956
-0.9416 0.1695 -0.5240 0.9956
-0.9474 0.0845 -0.5209 0.9957
-0.9408 -0.0001 -0.5153 0.9957
-0.9416 -0.1698 -0.5240 0.9956
-0.9247 -0.2535 -0.5252 0.9956
-0.8936 -0.4271 -0.5424 0.9955
-2.9245 -2.1061 -1.9739 0.9837
-2.5092 -2.5960 -1.9775 0.9837
-1.7396 -3.1768 -1.9838 0.9836
-1.4516 -3.3229 -1.9861 0.9836
-1.1514 -3.4430 -1.9884 0.9836
-0.8414 -3.5361 -1.9908 0.9836
-0.2015 -3.6382 -1.9957 0.9835
0.1234 -3.6462 -1.9982 0.9835
1.0862 -3.4963 -2.0052 0.9834
1.3947 -3.3895 -2.0075 0.9834
1.6927 -3.2553 -2.0096 0.9834
1.9777 -3.0948 -2.0116 0.9834
2.2474 -2.9091 -2.0134 0.9834
2.4995 -2.6998 -2.0151 0.9834
2.7320 -2.4684 -2.0166 0.9833
2.9429 -2.2169 -2.0180 0.9833
3.2928 -1.6616 -2.0201 0.9833
1.8801 -0.5591 -1.0743 0.9911
1.8892 -0.2102 -1.0411 0.9914
1.8780 -0.0407 -1.0288 0.9915
-0.6442 3.3788 -1.9859 0.9842
-1.2306 3.2042 -1.9817 0.9843
-1.5094 3.0789 -1.9797 0.9843
-1.7758 2.9295 -1.9778 0.9843
-2.0278 2.7574 -1.9761 0.9843
-2.4808 2.3505 -1.9731 0.9843
-0.7963 0.5219 -0.5497 0.9956
-0.8272 0.4423 -0.5416 0.9957
-0.8496 0.3611 -0.5330 0.9957
-0.8634 0.2792 -0.5239 0.9958
-0.8815 0.1193 -0.5136 0.9959
-0.8810 0.0400 -0.5092 0.9959
-0.8816 -0.1179 -0.5135 0.9959
-0.8636 -0.2778 -0.5237 0.9958
-0.8277 -0.4409 -0.5415 0.9957
-2.6870 -2.1189 -1.9757 0.9843
-1.5185 -3.0853 -1.9853 0.9842
-0.6515 -3.3884 -1.9921 0.9842
-0.3477 -3.4369 -1.9944 0.9842
-0.0404 -3.4583 -1.9968 0.9842
0.5748 -3.4184 -2.0013 0.9841
1.1744 -3.2694 -2.0057 0.9841
1.4623 -3.1551 -2.0078 0.9841
1.7390 -3.0154 -2.0097 0.9841
2.6907 -2.2258 -2.0161 0.9840
2.8799 -1.9786 -2.0173 0.9840
3.0461 -1.7152 -2.0183 0.9840
3.1879 -1.4378 -2.0191 0.9840
1.7091 -0.5942 -1.0447 0.9917
1.7314 -0.4337 -1.0305 0.9918
1.7383 -0.1169 -1.0059 0.9920
1.7313 0.0381 -0.9998 0.9920
1.7418 0.1943 -1.0118 0.9919
1.7332 0.3518 -1.0211 0.9919
1.7235 0.5132 -1.0383 0.9917
3.1166 1.5739 -2.0158 0.9840
2.9620 1.8438 -2.0144 0.9840
2.1246 2.7520 -2.0073 0.9841
1.5996 3.0786 -2.0030 0.9841
1.3177 3.2052 -2.0008 0.9841
1.0260 3.3060 -1.9985 0.9841
0.1155 3.4475 -1.9916 0.9842
-0.4965 3.4056 -1.9870 0.9842
-0.7968 3.3442 -1.9848 0.9842
-1.6471 3.0056 -1.9787 0.9843
-1.9064 2.8444 -1.9769 0.9843
-2.1502 2.6612 -1.9753 0.9843
-0.8011 0.5765 -0.5699 0.9955
-0.8132 0.4816 -0.5456 0.9956
-0.8678 0.2376 -0.5195 0.9959
-0.8822 0.0787 -0.5114 0.9959
-0.8822 -0.0790 -0.5114 0.9959
-0.8677 -0.2379 -0.5195 0.9959
-2.5890 -2.2399 -1.9765 0.9843
-2.3814 -2.4637 -1.9783 0.9843
-2.1547 -2.6685 -1.9802 0.9843
-1.0924 -3.2667 -1.9887 0.9842
0.1170 -3.4586 -1.9979 0.9841
0.4249 -3.4384 -2.0002 0.9841
0.7301 -3.3907 -2.0025 0.9841
1.3226 -3.2143 -2.0068 0.9841
1.8753 -2.9345 -2.0106 0.9840
2.1309 -2.7583 -2.0124 0.9840
2.5902 -2.3403 -2.0155 0.9840
2.9677 -1.8460 -2.0178 0.9840
1.7236 -0.5126 -1.0382 0.9917
1.7333 -0.3512 -1.0211 0.9919
1.7418 -0.1938 -1.0118 0.9919
1.7383 0.1175 -1.0059 0.9920
