ply
format ascii 1.0
element vertex 1606
property float32 x
property float32 y
property float32 z
property float32 I
end_header
-16.1552 8.4676 3.2162 0.9286
1.6349 -17.5786 3.1130 0.9308
3.1627 -17.1687 3.0782 0.9315
11.9128 -13.6169 3.1902 0.9291
13.3876 -12.7912 3.2649 0.9276
6.8308 17.8242 3.3658 0.9254
3.0832 16.2853 2.9225 0.9349
-3.6053 13.5503 2.4724 0.9446
-4.7659 13.0778 2.4543 0.9450
-9.5231 11.1426 2.5845 0.9422
-12.4375 10.1557 2.8313 0.9369
-13.8643 9.3901 2.9526 0.9342
-15.6513 8.6704 3.1549 0.9299
-17.7202 7.8382 3.4166 0.9243
-2.1460 -19.5678 3.4710 0.9232
-0.3810 -19.2350 3.3923 0.9248
1.2518 -17.9502 3.1728 0.9295
2.7804 -17.3330 3.0953 0.9312
7.0118 -15.3968 2.9831 0.9336
11.5005 -13.7755 3.1642 0.9297
-11.1974 10.4537 2.3467 0.9399
-16.1396 8.4594 2.7915 0.9289
-1.6506 -19.1189 2.9398 0.9253
6.0739 -16.0866 2.6342 0.9328
11.9804 -13.6942 2.7874 0.9290
13.3983 -12.8015 2.8388 0.9278
6.8239 17.8062 2.9213 0.9257
3.0805 16.2710 2.5369 0.9352
0.1242 15.0611 2.3074 0.9409
-8.2726 11.6429 2.1880 0.9438
-9.5157 11.1340 2.2437 0.9425
-10.8391 10.5985 2.3224 0.9405
-12.4270 10.1472 2.4578 0.9371
-15.6364 8.6622 2.7384 0.9302
-17.7019 7.8301 2.9653 0.9247
1.2589 -18.0513 2.7721 0.9294
2.7961 -17.4313 2.7045 0.9311
8.5668 -15.0749 2.6562 0.9322
-9.8806 11.0341 1.9288 0.9420
-11.1883 10.4453 1.9932 0.9401
-16.1241 8.4513 2.3706 0.9292
-1.6602 -19.2300 2.5135 0.9251
3.1828 -17.2782 2.2878 0.9316
6.0779 -16.0971 2.2406 0.9329
7.3855 -15.2713 2.2090 0.9339
8.9442 -14.9250 2.2658 0.9322
11.9887 -13.7037 2.3710 0.9292
6.8170 17.7883 2.4807 0.9260
4.8157 16.9683 2.2969 0.9313
1.5504 15.8226 2.0703 0.9379
0.1241 15.0491 1.9598 0.9411
-2.4143 14.0133 1.8517 0.9443
-4.7589 13.0586 1.8099 0.9455
-8.2664 11.6341 1.8585 0.9441
-9.5083 11.1254 1.9058 0.9427
-12.4166 10.1387 2.0875 0.9374
-13.8398 9.3735 2.1767 0.9348
-17.6839 7.8221 2.5180 0.9250
-2.1311 -19.4315 2.5456 0.9242
2.7981 -17.4432 2.3005 0.9312
8.5726 -15.0850 2.2594 0.9324
-14.4468 9.3050 1.8453 0.9332
-1.6614 -19.2444 2.0742 0.9252
1.6386 -17.6186 1.9001 0.9313
3.1850 -17.2899 1.8878 0.9317
13.4196 -12.8218 1.9930 0.9281
4.8113 16.9526 1.8923 0.9316
0.1240 15.0373 1.6148 0.9413
-2.4125 14.0029 1.5258 0.9444
-3.5973 13.5204 1.5023 0.9453
-4.7555 13.0491 1.4914 0.9457
-7.0679 12.1093 1.5056 0.9452
-8.2602 11.6254 1.5314 0.9442
-9.5010 11.1168 1.5703 0.9429
-10.8218 10.5817 1.6253 0.9409
-13.8276 9.3653 1.7933 0.9350
-2.1327 -19.4462 2.1007 0.9243
1.2606 -18.0758 1.9457 0.9297
2.8000 -17.4551 1.8983 0.9314
8.5783 -15.0950 1.8644 0.9325
12.9888 -12.9976 1.9732 0.9287
-9.7407 10.8778 1.2361 0.9431
-11.1704 10.4286 1.2936 0.9405
-14.2529 9.1801 1.4352 0.9342
-16.0934 8.4353 1.5381 0.9297
-1.6627 -19.2587 1.6364 0.9253
1.6399 -17.6318 1.4990 0.9314
3.1871 -17.3015 1.4893 0.9318
6.0857 -16.1178 1.4584 0.9332
8.9561 -14.9448 1.4749 0.9324
12.0052 -13.7226 1.5435 0.9294
13.4302 -12.8319 1.5724 0.9281
6.8035 17.7530 1.6094 0.9265
1.5285 15.5985 1.3268 0.9390
-2.3906 13.8757 1.1919 0.9450
-4.7520 13.0396 1.1749 0.9458
-6.9852 11.9675 1.1730 0.9459
-8.1822 11.5155 1.1958 0.9449
-9.4110 11.0115 1.2262 0.9435
-15.5926 8.6379 1.5090 0.9309
-2.1343 -19.4609 1.6573 0.9244
2.8019 -17.4669 1.4975 0.9314
7.0322 -15.4415 1.4363 0.9342
11.5897 -13.8824 1.5309 0.9300
-12.5277 9.7557 0.9846 0.9383
-14.2404 9.1720 1.0504 0.9344
-15.9016 8.3347 1.1133 0.9306
-1.6639 -19.2731 1.1996 0.9254
1.6411 -17.6450 1.0989 0.9314
6.0896 -16.1282 1.0690 0.9332
12.0135 -13.7320 1.1314 0.9295
13.4407 -12.8420 1.1527 0.9282
4.8025 16.9216 1.0908 0.9319
3.0698 16.2148 1.0233 0.9360
1.5418 15.7340 0.9803 0.9386
0.1238 15.0138 0.9310 0.9416
-1.1784 14.4833 0.9011 0.9434
-2.4024 13.9445 0.8774 0.9449
-3.5824 13.4643 0.8640 0.9457
-4.7486 13.0302 0.8600 0.9459
-5.8976 12.5631 0.8606 0.9459
-7.0576 12.0917 0.8682 0.9454
-8.2480 11.6082 0.8830 0.9445
-10.8048 10.5650 0.9371 0.9412
-13.8036 9.3490 1.0338 0.9354
-15.4070 8.5351 1.0922 0.9318
-17.6305 7.7985 1.1955 0.9256
-2.1359 -19.4756 1.2149 0.9245
1.2623 -18.1001 1.1251 0.9299
2.8038 -17.4787 1.0977 0.9315
8.5896 -15.1149 1.0781 0.9327
-9.8504 11.0003 0.5822 0.9426
-12.6610 9.8594 0.6328 0.9378
-14.4087 9.2804 0.6758 0.9337
-1.6651 -19.2873 0.7633 0.9254
1.6423 -17.6582 0.6993 0.9315
3.1914 -17.3248 0.6946 0.9319
6.0935 -16.1385 0.6802 0.9333
6.7901 17.7180 0.7482 0.9269
4.7981 16.9062 0.6930 0.9321
1.5405 15.7213 0.6229 0.9387
-1.1775 14.4724 0.5725 0.9435
-2.4007 13.9342 0.5575 0.9450
-3.5798 13.4545 0.5490 0.9458
-4.7452 13.0209 0.5465 0.9460
-7.0525 12.0829 0.5517 0.9455
-8.2419 11.5996 0.5611 0.9446
-15.5638 8.6220 0.7016 0.9313
1.2631 -18.1123 0.7159 0.9299
8.5952 -15.1249 0.6860 0.9327
11.6054 -13.9012 0.7141 0.9301
13.0192 -13.0280 0.7262 0.9289
-9.8429 10.9919 0.2492 0.9427
-11.1440 10.4038 0.2575 0.9408
-14.3961 9.2723 0.2893 0.9338
-1.6664 -19.3016 0.3273 0.9254
1.6435 -17.6714 0.2998 0.9315
3.1935 -17.3364 0.2978 0.9319
7.4121 -15.3263 0.2876 0.9342
8.9738 -14.9744 0.2949 0.9325
12.0299 -13.7507 0.3086 0.9295
6.7834 17.7006 0.3202 0.9270
-1.1766 14.4615 0.2451 0.9436
-4.7418 13.0116 0.2339 0.9461
-8.2358 11.5911 0.2402 0.9447
-10.7879 10.5485 0.2549 0.9414
-12.3027 10.0457 0.2683 0.9384
1.2640 -18.1244 0.3069 0.9299
2.8075 -17.5023 0.2994 0.9315
11.6133 -13.9106 0.3061 0.9301
13.0293 -13.0381 0.3114 0.9289
-9.9209 11.0791 -0.0837 0.9422
-16.0331 8.4036 -0.1019 0.9302
1.6448 -17.6846 -0.1000 0.9314
3.1957 -17.3480 -0.0993 0.9319
6.1013 -16.1591 -0.0972 0.9332
8.9797 -14.9843 -0.0984 0.9325
9.6790 0.4091 -0.0545 0.9620
6.7768 17.6833 -0.1066 0.9270
3.0620 16.1734 -0.0927 0.9363
-1.1757 14.4507 -0.0816 0.9437
-3.5578 13.3718 -0.0779 0.9462
-4.7384 13.0023 -0.0779 0.9461
-5.8849 12.5361 -0.0780 0.9461
-7.0423 12.0655 -0.0787 0.9457
-9.5854 11.2156 -0.0831 0.9427
-10.7795 10.5403 -0.0849 0.9415
-12.2927 10.0375 -0.0894 0.9385
-17.5779 7.7753 -0.1082 0.9260
1.2648 -18.1365 -0.1024 0.9299
2.8094 -17.5141 -0.0999 0.9315
7.0524 -15.4857 -0.0958 0.9342
11.6211 -13.9200 -0.1021 0.9300
12.7177 -12.7262 -0.1013 0.9306
9.7617 0.1868 -0.0550 0.9617
10.8944 1.1874 -0.0617 0.9571
-9.9134 11.0707 -0.4184 0.9423
-12.6351 9.8392 -0.4509 0.9379
-16.0181 8.3958 -0.5092 0.9302
1.6460 -17.6978 -0.5005 0.9313
3.1978 -17.3596 -0.4970 0.9318
6.1052 -16.1695 -0.4867 0.9332
7.4228 -15.3483 -0.4801 0.9341
8.9856 -14.9941 -0.4922 0.9324
9.8348 -0.4644 -0.2772 0.9614
9.4912 0.4012 -0.2675 0.9627
11.4562 1.5173 -0.3254 0.9548
6.7701 17.6660 -0.5327 0.9271
4.7851 16.8603 -0.4935 0.9323
0.1234 14.9673 -0.4215 0.9419
-3.5552 13.3622 -0.3893 0.9462
-4.7350 12.9930 -0.3894 0.9462
-7.0372 12.0568 -0.3931 0.9457
-8.2238 11.5741 -0.3998 0.9448
-10.7711 10.5321 -0.4242 0.9415
-13.7562 9.3169 -0.4678 0.9357
-17.5605 7.7676 -0.5407 0.9260
-2.1423 -19.5341 -0.5533 0.9244
1.2657 -18.1486 -0.5123 0.9298
7.0574 -15.4968 -0.4795 0.9341
8.6122 -15.1547 -0.4908 0.9326
11.5903 -13.8831 -0.5092 0.9302
9.5692 0.1831 -0.2695 0.9624
-12.6264 9.8325 -0.8116 0.9379
-3.4317 -19.3472 -0.9965 0.9243
7.4281 -15.3593 -0.8652 0.9339
12.0132 -13.7317 -0.9253 0.9295
9.2864 0.3926 -0.4714 0.9635
6.6813 17.4343 -0.9469 0.9279
3.0568 16.1459 -0.8334 0.9363
1.5404 15.7201 -0.8011 0.9387
-1.1740 14.4291 -0.7342 0.9437
-2.3937 13.8935 -0.7150 0.9451
-4.7316 12.9837 -0.7008 0.9462
-7.0322 12.0480 -0.7075 0.9457
-9.5408 11.1634 -0.7447 0.9429
-13.7444 9.3089 -0.8419 0.9357
1.2623 -18.1002 -0.9202 0.9299
2.8029 -17.4734 -0.8975 0.9316
7.0625 -15.5080 -0.8642 0.9340
8.5895 -15.1148 -0.8817 0.9327
-11.1089 10.3711 -1.1143 0.9409
-14.0724 9.0638 -1.2273 0.9351
-15.7938 8.2782 -1.3075 0.9310
-17.8987 7.4274 -1.4209 0.9252
-3.4347 -19.3643 -1.4420 0.9242
0.0624 -18.8550 -1.3825 0.9272
1.6485 -17.7244 -1.3052 0.9311
3.1914 -17.3248 -1.2917 0.9318
4.7634 -17.1047 -1.3019 0.9313
6.0932 -16.1376 -1.2648 0.9332
7.4334 -15.3704 -1.2519 0.9338
8.7959 -14.6776 -1.2546 0.9337
9.9999 -13.7349 -1.2457 0.9341
12.2041 -11.6604 -1.2376 0.9345
14.1381 -9.3391 -1.2424 0.9343
15.0026 -8.0859 -1.2496 0.9339
16.7762 -5.4753 -1.2939 0.9317
18.5937 -4.2760 -1.3989 0.9263
8.5130 -1.1703 -0.6301 0.9661
8.3766 0.3541 -0.6147 0.9669
6.7569 17.6315 -1.3845 0.9271
1.5042 15.3510 -1.1310 0.9400
0.1218 14.7625 -1.0825 0.9425
-1.1594 14.2500 -1.0483 0.9443
-3.5741 13.4331 -1.0192 0.9458
-4.7282 12.9744 -1.0125 0.9461
-5.8723 12.5092 -1.0132 0.9461
-7.0271 12.0393 -1.0221 0.9456
-8.2117 11.5571 -1.0395 0.9447
-10.7543 10.5157 -1.1028 0.9415
-2.1224 -19.3522 -1.4275 0.9249
-0.3757 -18.9695 -1.3912 0.9267
5.8204 -16.5632 -1.2872 0.9320
7.0676 -15.5191 -1.2503 0.9339
8.4735 -14.9107 -1.2575 0.9335
10.8487 -12.9948 -1.2412 0.9344
11.9344 -11.9425 -1.2379 0.9345
12.9528 -10.8284 -1.2379 0.9345
13.9035 -9.6529 -1.2410 0.9344
15.5985 -7.1164 -1.2571 0.9335
18.3748 -4.6753 -1.3902 0.9268
8.0477 0.1540 -0.5902 0.9682
10.0743 1.0980 -0.7430 0.9602
-11.0472 10.3135 -1.4509 0.9411
-12.6092 9.8191 -1.5343 0.9378
-14.1535 9.1160 -1.6163 0.9346
-11.5543 -16.0925 -1.9019 0.9235
-4.2784 -15.7665 -1.5684 0.9365
-1.3416 -15.5403 -1.4975 0.9392
2.6746 -14.5193 -1.4174 0.9424
5.0785 -13.4502 -1.3803 0.9439
9.2067 -10.5237 -1.3424 0.9454
10.0934 -9.6437 -1.3402 0.9454
10.9200 -8.7083 -1.3409 0.9454
12.9831 -6.9974 -1.4159 0.9425
14.1072 -6.0461 -1.4735 0.9402
15.2630 -3.5101 -1.5036 0.9390
8.4471 -1.1612 -0.8186 0.9663
8.1119 -0.3830 -0.7797 0.9679
16.6585 3.7445 -1.6392 0.9337
4.0872 1.3117 -0.4121 0.9829
4.0382 1.7072 -0.4209 0.9825
15.3041 12.0813 -1.8719 0.9246
7.3956 12.2038 -1.3700 0.9443
6.7503 17.6142 -1.8110 0.9270
0.1232 14.9325 -1.4336 0.9418
-2.3900 13.8722 -1.3514 0.9450
-3.5568 13.3682 -1.3281 0.9459
-5.8262 12.4110 -1.3163 0.9464
-6.9693 11.9404 -1.3273 0.9460
-8.1455 11.4640 -1.3501 0.9451
-9.3743 10.9686 -1.3852 0.9437
-13.7184 9.2913 -1.5907 0.9356
-7.8402 -15.5517 -1.6720 0.9324
-6.2227 -15.6923 -1.6207 0.9344
-1.7099 -15.5916 -1.5058 0.9389
-0.3042 -15.3591 -1.4748 0.9401
2.3478 -14.6361 -1.4231 0.9422
3.5919 -14.1564 -1.4022 0.9430
4.7804 -13.6043 -1.3844 0.9437
6.9886 -12.2977 -1.3580 0.9447
8.0072 -11.5497 -1.3492 0.9451
10.7122 -8.9553 -1.3405 0.9454
12.5854 -7.1633 -1.3903 0.9435
14.5713 -5.1313 -1.4831 0.9398
15.1311 -3.8500 -1.4989 0.9392
7.9658 0.1524 -0.7649 0.9685
9.9566 1.0852 -0.9615 0.9606
4.1597 1.2296 -0.4164 0.9827
16.3187 8.2131 -1.7539 0.9292
15.9585 9.9101 -1.8035 0.9273
-9.7592 10.8985 -1.7378 0.9428
-12.6005 9.8123 -1.8971 0.9377
-18.5062 -6.1757 -2.3174 0.9244
-17.3997 -7.5939 -2.2551 0.9264
-14.9225 -9.9997 -2.1338 0.9302
-13.5904 -10.9857 -2.0758 0.9320
-8.0019 -13.5552 -1.8698 0.9386
-6.5998 -13.8803 -1.8257 0.9400
-5.2087 -14.0763 -1.7829 0.9413
-2.3529 -13.2649 -1.6003 0.9472
1.1711 -12.5912 -1.5021 0.9503
2.2595 -12.2660 -1.4815 0.9510
3.3058 -11.8708 -1.4637 0.9516
5.2641 -10.8848 -1.4362 0.9525
7.9162 -9.0486 -1.4281 0.9527
9.0029 -8.6019 -1.4791 0.9511
10.7789 -7.1201 -1.5345 0.9493
11.4182 -6.1540 -1.5408 0.9491
11.9927 -5.1399 -1.5499 0.9488
12.4995 -4.0795 -1.5618 0.9484
12.9357 -2.9749 -1.5767 0.9479
8.0597 -0.3806 -0.9584 0.9680
7.9338 0.3354 -0.9433 0.9685
10.5711 1.4000 -1.2667 0.9580
3.8235 0.8594 -0.4655 0.9843
3.7049 1.1890 -0.4622 0.9844
13.0136 8.5042 -1.8466 0.9393
11.8696 11.2292 -1.9409 0.9363
7.3460 12.1220 -1.6837 0.9445
7.3922 15.0945 -1.9965 0.9345
6.1834 16.1350 -2.0525 0.9328
4.7677 16.7990 -2.0743 0.9321
3.0490 16.1046 -1.9470 0.9361
1.5174 15.4852 -1.8482 0.9392
-1.1713 14.3965 -1.7158 0.9435
-3.5714 13.4229 -1.6499 0.9456
-4.7214 12.9557 -1.6380 0.9460
-5.8638 12.4912 -1.6391 0.9459
-8.1996 11.5400 -1.6816 0.9446
-12.2426 9.9966 -1.8775 0.9383
-15.4639 8.5666 -2.0999 0.9313
-17.4906 7.7367 -2.2718 0.9259
-17.6956 -7.2409 -2.2712 0.9259
-13.9391 -10.7446 -2.0906 0.9316
-11.1842 -12.3664 -1.9806 0.9350
-9.7770 -12.9735 -1.9297 0.9367
-8.3660 -13.4518 -1.8817 0.9382
-6.9609 -13.8076 -1.8368 0.9396
-5.5702 -14.0470 -1.7950 0.9409
-4.1469 -13.9939 -1.7337 0.9429
0.8831 -12.6633 -1.5079 0.9502
1.9822 -12.3569 -1.4866 0.9508
5.9427 -10.4572 -1.4287 0.9527
7.6492 -9.1623 -1.4178 0.9531
9.8492 -8.2339 -1.5249 0.9496
8.6270 -1.3898 -1.0380 0.9654
8.1345 -0.5728 -0.9687 0.9677
7.9042 0.1512 -0.9391 0.9687
9.9300 1.0823 -1.1865 0.9606
3.9113 0.7847 -0.4739 0.9841
3.6462 1.4430 -0.4658 0.9843
13.1260 8.1511 -1.8354 0.9397
12.6470 9.5177 -1.8802 0.9382
12.0456 10.8793 -1.9281 0.9367
-11.0825 10.3465 -2.1482 0.9406
-12.2237 9.5189 -2.1952 0.9393
-14.1285 9.0999 -2.3812 0.9344
-11.1651 4.6332 -1.7128 0.9523
-16.0770 3.5022 -2.3314 0.9357
-16.0805 2.0215 -2.2964 0.9366
-16.4438 -2.3715 -2.3540 0.9351
-15.1032 -5.0401 -2.2560 0.9377
-14.2707 -6.2283 -2.2062 0.9390
-13.3509 -7.3101 -2.1567 0.9404
-11.3081 -9.1409 -2.0603 0.9429
-9.0841 -10.5233 -1.9697 0.9454
-6.7710 -11.4701 -1.8872 0.9476
-5.6049 -11.7879 -1.8494 0.9486
-4.4431 -12.0073 -1.8140 0.9496
-3.2922 -12.1323 -1.7812 0.9505
-2.1582 -12.1674 -1.7509 0.9513
1.0916 -11.7374 -1.6702 0.9535
3.0634 -11.0003 -1.6179 0.9549
4.0064 -10.6109 -1.6071 0.9552
5.8000 -9.6784 -1.5987 0.9554
6.6253 -9.0998 -1.5949 0.9555
9.9306 -5.3523 -1.5984 0.9554
10.8517 -3.5417 -1.6174 0.9549
8.8193 -1.2124 -1.2614 0.9647
8.0821 -0.3816 -1.1464 0.9678
7.9354 0.3354 -1.1254 0.9684
3.4502 1.1072 -0.5134 0.9855
3.4358 1.4525 -0.5285 0.9850
3.6335 1.9352 -0.5833 0.9835
10.5608 8.3362 -1.9064 0.9471
9.3043 10.5299 -1.9910 0.9448
8.4855 11.5347 -2.0289 0.9438
7.0345 11.6080 -1.9232 0.9466
6.1080 12.4722 -1.9677 0.9454
5.0844 13.2672 -2.0131 0.9442
2.7634 14.5965 -2.1049 0.9417
0.1230 14.9092 -2.1125 0.9415
-1.1704 14.3856 -2.0450 0.9434
-2.3931 13.8901 -1.9971 0.9446
-3.5688 13.4131 -1.9666 0.9455
-8.1935 11.5314 -2.0043 0.9445
-10.7290 10.4909 -2.1261 0.9412
-11.8465 9.6732 -2.1670 0.9401
-14.8992 8.2538 -2.4134 0.9335
-11.0497 4.8876 -1.7120 0.9524
-15.8362 5.3718 -2.3694 0.9347
-17.2437 1.0141 -2.4475 0.9326
-15.3022 -4.7164 -2.2688 0.9374
-14.4949 -5.9312 -2.2191 0.9387
-13.5962 -7.0410 -2.1694 0.9400
-12.6213 -8.0412 -2.1204 0.9413
-8.2325 -10.9240 -1.9381 0.9462
-7.0721 -11.3714 -1.8974 0.9473
-5.9062 -11.7154 -1.8590 0.9484
-4.7426 -11.9598 -1.8229 0.9494
-2.4494 -12.1667 -1.7585 0.9511
-1.3312 -12.1379 -1.7301 0.9519
2.8168 -11.1018 -1.6228 0.9548
4.7019 -10.3246 -1.6074 0.9552
7.1999 -8.6242 -1.5918 0.9556
7.9285 -7.9339 -1.5892 0.9557
9.7938 -5.5744 -1.5967 0.9555
10.3010 -4.6995 -1.6043 0.9553
10.7468 -3.7844 -1.6144 0.9550
11.1285 -2.8316 -1.6270 0.9547
4.1437 0.4516 -0.5906 0.9833
3.7026 0.7428 -0.5351 0.9849
3.4822 1.0294 -0.5145 0.9854
3.4203 1.3536 -0.5212 0.9852
3.5766 1.8001 -0.5673 0.9840
-9.4121 10.5109 -2.3243 0.9444
-11.1381 8.6735 -2.3256 0.9444
-11.8332 7.6215 -2.3187 0.9445
-12.4035 6.5012 -2.3070 0.9448
-11.1269 4.6174 -1.9846 0.9523
-13.1479 4.1236 -2.2700 0.9457
-13.3181 2.9012 -2.2455 0.9462
-13.3147 -3.1549 -2.2542 0.9460
-12.7447 -4.2530 -2.2134 0.9470
-12.0838 -5.2739 -2.1720 0.9480
-11.3440 -6.2113 -2.1306 0.9489
-10.5367 -7.0607 -2.0895 0.9499
-9.6733 -7.8194 -2.0491 0.9508
-6.8505 -9.5412 -1.9350 0.9535
-5.8633 -9.9324 -1.9001 0.9543
-2.8725 -10.5856 -1.8069 0.9565
-1.8872 -10.6393 -1.7801 0.9571
-0.9165 -10.6162 -1.7554 0.9577
1.8640 -10.1187 -1.6950 0.9591
3.5726 -9.4620 -1.6662 0.9598
4.3745 -9.0452 -1.6552 0.9601
5.1378 -8.5734 -1.6466 0.9603
6.5396 -7.4751 -1.6362 0.9605
7.7596 -6.1879 -1.6350 0.9606
9.2086 -3.9467 -1.6505 0.9602
9.5806 -3.1268 -1.6602 0.9600
9.8929 -2.2751 -1.6723 0.9597
8.8540 -1.2172 -1.4723 0.9644
8.1718 0.3454 -1.3474 0.9674
3.5618 1.8970 -0.6648 0.9838
3.8455 2.5130 -0.7568 0.9815
6.4856 10.7022 -2.0615 0.9505
5.1990 10.6161 -1.9473 0.9532
4.3129 11.2541 -1.9855 0.9523
3.3540 11.8177 -2.0237 0.9514
1.2426 12.6807 -2.0990 0.9497
0.1069 12.9602 -2.1351 0.9488
-1.0680 13.1264 -2.1696 0.9480
-2.2693 13.1716 -2.2018 0.9473
-8.1333 11.4468 -2.3133 0.9447
-10.1002 9.8761 -2.3271 0.9443
-10.9392 8.9324 -2.3266 0.9444
-11.6651 7.9006 -2.3210 0.9445
-12.2684 6.7964 -2.3105 0.9447
-13.0820 4.4376 -2.2757 0.9455
-13.2870 3.2178 -2.2522 0.9461
-14.4187 2.1522 -2.4016 0.9426
-14.4061 0.8472 -2.3774 0.9432
-12.2627 -5.0178 -2.1827 0.9477
-11.5421 -5.9773 -2.1413 0.9487
-9.0031 -8.3224 -2.0198 0.9515
-6.1196 -9.8399 -1.9089 0.9541
-5.1247 -10.1653 -1.8754 0.9549
-4.1256 -10.4040 -1.8438 0.9556
-3.1290 -10.5589 -1.8142 0.9563
-2.1406 -10.6329 -1.7868 0.9570
-1.1657 -10.6294 -1.7616 0.9576
-0.2090 -10.5514 -1.7386 0.9581
0.7254 -10.4023 -1.7178 0.9586
3.3594 -9.5604 -1.6694 0.9598
4.1708 -9.1583 -1.6578 0.9600
4.9443 -8.7005 -1.6486 0.9602
7.0141 -7.0188 -1.6347 0.9606
7.6128 -6.3642 -1.6346 0.9606
8.6595 -4.9288 -1.6415 0.9604
9.8181 -2.4981 -1.6690 0.9598
10.0845 -1.6246 -1.6827 0.9594
8.4382 -0.5942 -1.3935 0.9663
8.2462 0.1578 -1.3587 0.9671
3.3214 1.3145 -0.5884 0.9856
3.5080 1.7655 -0.6470 0.9842
3.7600 2.3349 -0.7291 0.9822
4.1099 3.0929 -0.8474 0.9794
-10.9175 4.5304 -2.2217 0.9530
-11.2715 3.5351 -2.2204 0.9531
-12.3567 1.5534 -2.3409 0.9506
-12.1265 -0.6531 -2.2826 0.9518
-11.8501 -1.7090 -2.2504 0.9524
-11.4759 -2.7193 -2.2168 0.9531
-11.0122 -3.6749 -2.1821 0.9538
-10.4678 -4.5686 -2.1468 0.9546
-9.8520 -5.3943 -2.1112 0.9553
-4.2964 -9.0360 -1.8806 0.9601
0.8583 -9.2290 -1.7422 0.9630
1.6635 -9.0307 -1.7260 0.9633
2.4432 -8.7734 -1.7118 0.9636
3.1943 -8.4600 -1.6997 0.9639
3.9140 -8.0931 -1.6897 0.9641
4.5995 -7.6751 -1.6818 0.9642
5.8583 -6.6963 -1.6723 0.9644
6.4268 -6.1405 -1.6707 0.9645
6.9517 -5.5437 -1.6712 0.9645
7.4306 -4.9083 -1.6739 0.9644
8.8419 -2.0334 -1.7053 0.9637
9.0572 -1.2451 -1.7184 0.9635
3.9607 0.1674 -0.7451 0.9840
3.5728 0.4732 -0.6774 0.9854
3.3364 0.7500 -0.6428 0.9862
3.4924 1.8601 -0.7437 0.9840
7.5605 7.1526 -1.9562 0.9585
7.0070 7.9300 -1.9890 0.9578
2.9018 10.2246 -1.9977 0.9577
0.0918 11.1305 -2.0922 0.9557
-1.9403 11.2624 -2.1481 0.9546
-2.9721 11.1707 -2.1727 0.9540
-5.0040 10.6595 -2.2134 0.9532
-6.9037 9.7163 -2.2403 0.9526
-8.5655 8.3754 -2.2517 0.9524
-10.4156 5.7700 -2.2381 0.9527
-10.8285 4.7898 -2.2256 0.9530
-11.1316 3.7760 -2.2094 0.9533
-11.5816 -2.4631 -2.2256 0.9530
-11.1401 -3.4336 -2.1911 0.9537
-10.6157 -4.3439 -2.1559 0.9544
-8.6369 -6.6575 -2.0497 0.9566
-7.8729 -7.2776 -2.0152 0.9573
-7.0714 -7.8189 -1.9815 0.9580
-6.2407 -8.2810 -1.9490 0.9587
-5.3885 -8.6643 -1.9178 0.9593
-4.5219 -8.9696 -1.8881 0.9599
-1.8994 -9.4347 -1.8089 0.9616
-1.0360 -9.4466 -1.7862 0.9621
0.6465 -9.2704 -1.7467 0.9629
2.2443 -8.8454 -1.7153 0.9635
3.0031 -8.5463 -1.7027 0.9638
4.4258 -7.7879 -1.6837 0.9642
6.2840 -6.2882 -1.6709 0.9645
8.7769 -2.2332 -1.7023 0.9638
9.0072 -1.4511 -1.7148 0.9635
3.6466 0.3974 -0.6895 0.9852
3.2336 0.9559 -0.6338 0.9864
3.2656 1.2924 -0.6601 0.9858
3.4414 1.7320 -0.7241 0.9844
4.0391 3.0397 -0.9502 0.9796
7.6911 6.9464 -1.9480 0.9587
-8.1920 6.3793 -2.1947 0.9584
-8.7100 5.6100 -2.1900 0.9585
-9.1420 4.7917 -2.1818 0.9587
-9.8790 4.0995 -2.2609 0.9572
-10.5413 3.3061 -2.3352 0.9558
-10.7078 2.3326 -2.3165 0.9562
-10.7724 1.3542 -2.2950 0.9566
-10.7372 0.3827 -2.2711 0.9570
-10.0730 -2.3868 -2.1882 0.9586
-9.6845 -3.2318 -2.1581 0.9591
-8.1157 -5.4384 -2.0651 0.9608
-6.1027 -7.0696 -1.9741 0.9625
-5.3677 -7.4760 -1.9454 0.9631
-3.0644 -8.2814 -1.8665 0.9645
-2.2835 -8.4149 -1.8431 0.9650
-1.5048 -8.4834 -1.8212 0.9654
-0.7329 -8.4888 -1.8010 0.9658
0.0279 -8.4331 -1.7826 0.9661
0.7737 -8.3185 -1.7660 0.9664
3.5383 -7.3164 -1.7179 0.9673
4.1600 -6.9416 -1.7106 0.9675
4.7484 -6.5219 -1.7053 0.9676
5.3013 -6.0597 -1.7019 0.9676
5.8163 -5.5572 -1.7004 0.9676
6.2911 -5.0169 -1.7009 0.9676
7.7449 -2.5277 -1.7221 0.9672
4.0000 -0.1889 -0.8465 0.9838
3.2374 0.7277 -0.7014 0.9865
3.1103 0.9982 -0.6905 0.9867
3.2523 1.3749 -0.7464 0.9857
6.7330 6.3697 -1.9592 0.9628
5.0240 8.2903 -2.0491 0.9611
1.7652 9.3239 -2.0059 0.9619
0.0804 9.7433 -2.0596 0.9609
-2.5893 9.7317 -2.1287 0.9597
-3.4783 9.5445 -2.1473 0.9593
-5.1900 8.8919 -2.1763 0.9588
-7.4274 7.2625 -2.1958 0.9584
-8.0448 6.5690 -2.1954 0.9584
-9.5758 4.2357 -2.2133 0.9581
-10.4653 3.5499 -2.3359 0.9558
-10.6746 2.5851 -2.3216 0.9561
-10.7557 0.6325 -2.2775 0.9569
-10.4484 -1.2611 -2.2246 0.9579
-9.3493 -3.8257 -2.1353 0.9595
-8.8398 -4.5778 -2.1043 0.9601
-8.2713 -5.2698 -2.0731 0.9607
-7.6515 -5.8980 -2.0421 0.9613
-6.9881 -6.4597 -2.0116 0.9618
-4.8090 -7.7326 -1.9248 0.9635
-4.0424 -8.0184 -1.8981 0.9640
-1.7055 -8.4719 -1.8267 0.9653
-0.9315 -8.4934 -1.8061 0.9657
-0.1674 -8.4533 -1.7872 0.9660
0.5826 -8.3537 -1.7701 0.9663
1.3148 -8.1968 -1.7548 0.9666
2.7129 -7.7204 -1.7298 0.9671
3.3726 -7.4056 -1.7201 0.9673
4.0024 -7.0429 -1.7123 0.9674
4.5996 -6.6346 -1.7065 0.9675
5.1620 -6.1831 -1.7026 0.9676
7.0155 -3.9931 -1.7063 0.9675
7.3690 -3.3619 -1.7121 0.9674
7.6741 -2.7024 -1.7198 0.9673
7.9289 -2.0175 -1.7294 0.9671
8.1311 -1.3099 -1.7409 0.9669
3.8356 0.0734 -0.8109 0.9844
3.3767 1.6995 -0.7991 0.9847
3.6605 2.2731 -0.9108 0.9825
6.8525 6.1890 -1.9518 0.9630
-7.2235 5.6251 -2.1517 0.9631
-7.7568 4.9960 -2.1684 0.9628
-8.7049 4.5626 -2.3098 0.9604
-9.0698 3.7637 -2.3079 0.9605
-9.5378 1.1990 -2.2593 0.9613
-9.2282 -1.3309 -2.1913 0.9624
-8.6336 -2.8811 -2.1391 0.9633
-6.7137 -5.4270 -2.0289 0.9651
-6.1189 -5.9243 -2.0017 0.9656
-2.7725 -7.4926 -1.8776 0.9677
-1.3646 -7.6932 -1.8363 0.9684
-0.6653 -7.7060 -1.8178 0.9687
0.7036 -7.5650 -1.7856 0.9693
1.3659 -7.4149 -1.7720 0.9695
2.6299 -6.9653 -1.7498 0.9699
3.2258 -6.6701 -1.7413 0.9700
3.7939 -6.3308 -1.7346 0.9701
4.3318 -5.9497 -1.7297 0.9702
5.3073 -5.0709 -1.7252 0.9703
6.1342 -4.0520 -1.7278 0.9702
6.4866 -3.4961 -1.7318 0.9702
6.7956 -2.9125 -1.7376 0.9701
7.0592 -2.3039 -1.7452 0.9699
3.8654 -0.8889 -0.9322 0.9838
3.6616 -0.5034 -0.8687 0.9849
3.5996 -0.1700 -0.8469 0.9853
3.5288 0.1492 -0.8301 0.9856
3.2944 0.4363 -0.7810 0.9864
3.1989 1.3524 -0.8162 0.9858
3.3597 1.7894 -0.8946 0.9845
4.0163 3.1705 -1.2026 0.9792
6.0630 5.7359 -1.9616 0.9663
5.6005 6.3383 -1.9879 0.9658
5.0801 6.9055 -2.0148 0.9654
3.1939 8.3342 -2.0976 0.9640
-1.4998 8.7051 -2.0760 0.9644
-2.2913 8.6118 -2.0944 0.9640
-3.0749 8.4376 -2.1106 0.9638
-4.5809 7.8484 -2.1358 0.9633
-5.2846 7.4375 -2.1443 0.9632
-6.5488 6.4035 -2.1526 0.9631
-7.5706 5.1274 -2.1489 0.9631
-8.4550 4.6839 -2.2717 0.9611
-9.2597 3.1410 -2.2980 0.9606
-9.5289 1.4223 -2.2643 0.9612
-9.4485 -0.2900 -2.2217 0.9619
-9.2836 -1.1205 -2.1977 0.9623
-8.3444 -3.4145 -2.1190 0.9636
-7.4054 -4.7181 -2.0637 0.9646
-6.8613 -5.2888 -2.0360 0.9650
-5.6563 -6.2542 -1.9819 0.9659
-5.0083 -6.6457 -1.9558 0.9664
-4.3381 -6.9753 -1.9305 0.9668
-3.6515 -7.2430 -1.9064 0.9672
-2.9539 -7.4492 -1.8834 0.9676
-2.2506 -7.5947 -1.8616 0.9680
-1.5462 -7.6805 -1.8413 0.9683
-0.1521 -7.6792 -1.8051 0.9689
0.5297 -7.5954 -1.7894 0.9692
1.1964 -7.4586 -1.7753 0.9694
3.6499 -6.4226 -1.7362 0.9701
5.1892 -5.1927 -1.7253 0.9703
5.6321 -4.7084 -1.7253 0.9703
6.0363 -4.1909 -1.7271 0.9703
6.9956 -2.4635 -1.7431 0.9700
7.2242 -1.8382 -1.7520 0.9698
3.5533 0.0680 -0.8353 0.9855
3.1784 0.6376 -0.7619 0.9868
3.0553 0.9032 -0.7488 0.9870
3.1612 1.2511 -0.7990 0.9861
3.3156 1.6687 -0.8724 0.9849
3.6121 2.2431 -0.9993 0.9827
3.8748 2.9160 -1.1397 0.9803
6.1729 5.5752 -1.9549 0.9664
-6.0901 5.6856 -2.1572 0.9662
-7.8095 4.0933 -2.2829 0.9642
-8.3342 2.6139 -2.2615 0.9646
-8.4801 1.8473 -2.2471 0.9648
-8.5478 1.0746 -2.2306 0.9650
-7.7804 -2.5964 -2.1237 0.9667
-7.4310 -3.2432 -2.0993 0.9671
-7.0276 -3.8479 -2.0745 0.9674
-6.5758 -4.4065 -2.0495 0.9678
-6.0811 -4.9157 -2.0246 0.9682
-4.9864 -5.7764 -1.9758 0.9690
-4.3975 -6.1248 -1.9522 0.9693
-3.7883 -6.4174 -1.9295 0.9697
-2.5291 -6.8347 -1.8869 0.9703
1.2521 -6.7974 -1.7896 0.9718
1.8427 -6.6172 -1.7785 0.9720
2.4134 -6.3919 -1.7690 0.9722
2.9614 -6.1234 -1.7611 0.9723
3.9790 -5.4651 -1.7503 0.9725
4.8760 -4.6588 -1.7461 0.9725
5.6351 -3.7223 -1.7486 0.9725
5.9577 -3.2110 -1.7523 0.9724
6.2398 -2.6743 -1.7577 0.9723
3.4890 -0.8024 -0.9269 0.9853
3.3325 -0.4581 -0.8710 0.9862
3.2755 0.1385 -0.8489 0.9865
3.1749 0.4205 -0.8292 0.9869
3.0175 0.9684 -0.8205 0.9870
3.1468 1.3303 -0.8846 0.9860
3.6910 2.4120 -1.1416 0.9819
5.5090 5.2118 -1.9635 0.9692
4.0767 6.7272 -2.0366 0.9680
3.5020 7.1509 -2.0616 0.9676
2.2262 7.8440 -2.1112 0.9669
1.5341 8.1030 -2.1353 0.9665
0.8112 8.2784 -2.1537 0.9662
0.0675 8.1883 -2.1202 0.9667
-1.3457 7.8107 -2.0521 0.9678
-2.0526 7.7146 -2.0669 0.9676
-3.4359 7.3192 -2.0935 0.9671
-4.0952 7.0162 -2.1034 0.9670
-5.3095 6.2124 -2.1159 0.9668
-7.3095 4.9507 -2.2858 0.9642
-7.7196 4.2765 -2.2849 0.9642
-8.0398 3.5563 -2.2762 0.9643
-8.2838 2.8099 -2.2649 0.9645
-8.4499 2.0463 -2.2511 0.9647
-8.4823 -0.2604 -2.1973 0.9655
-8.3435 -1.0071 -2.1760 0.9659
-7.8612 -2.4229 -2.1299 0.9666
-6.2128 -4.7890 -2.0310 0.9681
-4.5519 -6.0401 -1.9582 0.9692
-3.9474 -6.3471 -1.9353 0.9696
-0.7731 -7.0495 -1.8362 0.9711
0.4852 -6.9571 -1.8057 0.9716
1.0966 -6.8364 -1.7927 0.9718
2.8221 -6.1968 -1.7630 0.9723
3.3516 -5.8977 -1.7564 0.9724
4.3266 -5.1825 -1.7480 0.9725
4.7675 -4.7707 -1.7463 0.9725
5.5453 -3.8500 -1.7479 0.9725
5.8781 -3.3457 -1.7512 0.9724
3.2676 -1.1507 -0.8970 0.9858
3.5826 -0.9116 -0.9572 0.9848
3.3137 -0.2333 -0.8601 0.9864
3.1089 1.2304 -0.8657 0.9863
3.2578 1.6396 -0.9443 0.9850
3.8185 2.8736 -1.2374 0.9804
5.6106 5.0674 -1.9575 0.9692
-5.3134 5.9337 -2.2548 0.9674
-6.3080 4.9122 -2.2633 0.9673
-6.7111 4.3225 -2.2598 0.9674
-7.0516 3.6960 -2.2538 0.9674
-7.6626 -0.4127 -2.1724 0.9686
-7.0731 -2.3604 -2.1109 0.9695
-5.9971 -4.0187 -2.0437 0.9704
-5.0719 -4.9106 -1.9985 0.9711
-4.5620 -5.2848 -1.9764 0.9714
-4.0273 -5.6092 -1.9548 0.9717
-3.4728 -5.8829 -1.9339 0.9720
-2.9031 -6.1056 -1.9139 0.9723
-2.3227 -6.2770 -1.8947 0.9726
-1.7361 -6.3977 -1.8766 0.9728
-0.5602 -6.4894 -1.8439 0.9733
1.7004 -6.1059 -1.7943 0.9740
2.2279 -5.9004 -1.7855 0.9741
2.7347 -5.6546 -1.7781 0.9742
3.2182 -5.3701 -1.7723 0.9743
4.1059 -4.6932 -1.7653 0.9744
4.5056 -4.3049 -1.7641 0.9744
4.8731 -3.8861 -1.7645 0.9744
5.9824 -1.9525 -1.7815 0.9742
3.2316 -0.7432 -0.9387 0.9863
3.0925 -0.4251 -0.8837 0.9871
3.0276 0.4010 -0.8646 0.9874
2.9772 0.6692 -0.8638 0.9874
2.9778 0.9556 -0.8853 0.9871
3.6400 2.3787 -1.2310 0.9821
5.0428 4.7707 -1.9652 0.9716
4.6477 5.2599 -1.9870 0.9712
4.2060 5.7174 -2.0094 0.9709
3.7200 6.1385 -2.0320 0.9706
3.1922 6.5182 -2.0547 0.9703
2.6258 6.8519 -2.0773 0.9700
0.7380 7.5318 -2.1424 0.9690
-1.3129 7.6208 -2.1892 0.9684
-1.9603 7.3678 -2.1583 0.9688
-3.2210 6.8613 -2.1458 0.9690
-3.8520 6.5995 -2.1632 0.9687
-5.7072 5.5805 -2.2597 0.9674
-6.6128 4.4787 -2.2610 0.9673
-7.2616 3.2120 -2.2478 0.9675
-7.6402 1.8503 -2.2254 0.9678
-7.6871 -0.2360 -2.1772 0.9685
-7.5682 -0.9135 -2.1580 0.9688
-7.3862 -1.5708 -2.1377 0.9691
-7.1447 -2.2021 -2.1165 0.9694
-6.8478 -2.8021 -2.0946 0.9697
-5.6705 -4.3710 -2.0268 0.9707
-3.6178 -5.8171 -1.9393 0.9719
-1.8881 -6.3714 -1.8812 0.9728
-1.2995 -6.4547 -1.8640 0.9730
-0.7116 -6.4886 -1.8479 0.9732
-0.1282 -6.4739 -1.8331 0.9734
1.5610 -6.1522 -1.7968 0.9740
2.0934 -5.9575 -1.7876 0.9741
2.6058 -5.7219 -1.7799 0.9742
3.0956 -5.4472 -1.7737 0.9743
3.9976 -4.7884 -1.7659 0.9744
4.7813 -3.9972 -1.7643 0.9744
5.1237 -3.5572 -1.7658 0.9744
2.9971 -1.0554 -0.8995 0.9869
3.0608 0.0586 -0.8666 0.9874
2.9989 0.6016 -0.8659 0.9874
2.9533 0.8730 -0.8718 0.9873
3.2333 1.6273 -1.0247 0.9851
3.8119 2.8687 -1.3506 0.9804
5.1372 4.6398 -1.9596 0.9716
-4.8530 5.4195 -2.2376 0.9700
-5.7413 4.4709 -2.2382 0.9700
-6.1090 3.9347 -2.2350 0.9700
-6.4204 3.3652 -2.2296 0.9701
-6.6726 2.7689 -2.2220 0.9702
-6.9913 1.5230 -2.2008 0.9705
-7.0562 0.8870 -2.1874 0.9707
-7.0585 0.2516 -2.1724 0.9709
-6.9994 -0.3770 -2.1560 0.9711
-6.8809 -0.9924 -2.1383 0.9713
-6.1980 -2.7051 -2.0800 0.9721
-5.5063 -3.6898 -2.0387 0.9726
-4.6652 -4.5169 -1.9973 0.9732
-4.2000 -4.8654 -1.9769 0.9735
-3.2026 -5.4253 -1.9378 0.9740
-2.6794 -5.6352 -1.9192 0.9742
-2.1454 -5.7979 -1.9015 0.9745
-1.0612 -5.9829 -1.8689 0.9749
-0.5185 -6.0064 -1.8543 0.9751
0.0198 -5.9849 -1.8408 0.9753
0.5506 -5.9196 -1.8286 0.9754
1.5770 -5.6627 -1.8080 0.9757
2.0669 -5.4742 -1.7998 0.9758
3.8124 -4.3577 -1.7809 0.9761
4.1837 -3.9974 -1.7798 0.9761
4.8340 -3.1931 -1.7819 0.9760
5.1092 -2.7537 -1.7852 0.9760
2.8124 -0.9179 -0.9099 0.9877
2.9070 -0.3996 -0.9025 0.9878
2.8861 0.1220 -0.8885 0.9880
2.8497 0.3774 -0.8842 0.9880
2.8343 0.6371 -0.8935 0.9879
2.9387 0.9431 -0.9493 0.9872
3.5897 2.3458 -1.3190 0.9822
4.6447 4.3941 -1.9666 0.9736
4.2770 4.8404 -1.9867 0.9733
3.8671 5.2568 -2.0072 0.9731
3.4171 5.6388 -2.0280 0.9728
1.8550 6.5363 -2.0898 0.9720
0.6750 6.8882 -2.1288 0.9715
-0.5706 7.0128 -2.1641 0.9710
-2.4552 6.7371 -2.2055 0.9704
-3.6463 6.2471 -2.2248 0.9702
-4.7249 5.5284 -2.2368 0.9700
-6.0192 4.0767 -2.2361 0.9700
-6.8200 2.3134 -2.2151 0.9703
-6.9171 -0.8349 -2.1430 0.9713
-6.5409 -2.0160 -2.1052 0.9718
-6.2746 -2.5675 -2.0853 0.9720
-5.9612 -3.0871 -2.0648 0.9723
-5.6049 -3.5710 -2.0441 0.9726
-5.2100 -4.0160 -2.0233 0.9728
-4.7811 -4.4196 -2.0026 0.9731
-4.3227 -4.7796 -1.9822 0.9734
-3.8394 -5.0946 -1.9621 0.9737
-3.3356 -5.3634 -1.9427 0.9739
-2.8158 -5.5854 -1.9239 0.9742
-1.7449 -5.8882 -1.8889 0.9746
-1.2018 -5.9695 -1.8729 0.9748
-0.6585 -6.0046 -1.8580 0.9750
1.9420 -5.5266 -1.8018 0.9758
2.4181 -5.3097 -1.7945 0.9759
4.4397 -3.7116 -1.7799 0.9761
4.7573 -3.3029 -1.7813 0.9761
5.0414 -2.8695 -1.7842 0.9760
5.2904 -2.4136 -1.7886 0.9760
3.0747 -0.7823 -0.9758 0.9868
2.9338 -0.4726 -0.9140 0.9876
2.8899 -0.2035 -0.8911 0.9879
2.8238 0.5665 -0.8858 0.9880
2.9151 0.8617 -0.9350 0.9874
3.2453 1.6333 -1.1175 0.9849
3.5110 2.1803 -1.2712 0.9829
-4.4479 4.9672 -2.2163 0.9723
-5.2619 4.0976 -2.2169 0.9723
-6.2963 1.9747 -2.1934 0.9726
-6.4793 0.8145 -2.1707 0.9728
-6.1731 -1.4627 -2.1088 0.9736
-5.9668 -1.9912 -2.0909 0.9738
-5.7142 -2.4939 -2.0725 0.9741
-5.0844 -3.4071 -2.0345 0.9745
-3.8872 -4.5031 -1.9774 0.9752
-2.9685 -5.0287 -1.9411 0.9757
-2.4853 -5.2269 -1.9238 0.9759
-1.9913 -5.3814 -1.9074 0.9761
-1.4904 -5.4924 -1.8917 0.9763
-0.9862 -5.5600 -1.8770 0.9765
-0.4822 -5.5848 -1.8633 0.9766
1.4688 -5.2746 -1.8200 0.9772
2.7847 -4.6467 -1.8007 0.9774
3.1819 -4.3703 -1.7970 0.9775
3.5547 -4.0632 -1.7945 0.9775
3.9011 -3.7273 -1.7935 0.9775
4.2192 -3.3647 -1.7938 0.9775
4.7631 -2.5672 -1.7986 0.9775
2.7700 -0.3808 -0.9294 0.9883
2.7330 -0.1290 -0.9095 0.9885
2.7368 0.1157 -0.9105 0.9885
2.7097 0.3589 -0.9086 0.9885
2.8179 0.6334 -0.9601 0.9879
2.9000 0.9307 -1.0124 0.9872
3.0572 1.2924 -1.1033 0.9861
3.3278 1.7724 -1.2533 0.9842
3.9417 3.1116 -1.6693 0.9791
2.7041 5.5217 -2.0437 0.9744
2.2207 5.7946 -2.0628 0.9742
0.0529 6.4192 -2.1338 0.9733
-0.5244 6.4451 -2.1495 0.9731
-2.2540 6.1851 -2.1882 0.9726
-3.3451 5.7311 -2.2058 0.9724
-4.3306 5.0671 -2.2157 0.9723
-4.7698 4.6640 -2.2175 0.9723
-5.5171 3.7366 -2.2150 0.9723
-6.0642 2.6824 -2.2042 0.9724
-6.3622 -0.7679 -2.1302 0.9733
-6.2185 -1.3225 -2.1133 0.9736
-5.7837 -2.3667 -2.0773 0.9740
-5.1744 -3.2967 -2.0394 0.9745
-3.5554 -4.7178 -1.9637 0.9754
-2.6113 -5.1798 -1.9282 0.9758
-1.1166 -5.5466 -1.8807 0.9764
-0.1104 -5.5761 -1.8539 0.9768
0.3855 -5.5284 -1.8421 0.9769
0.8727 -5.4405 -1.8316 0.9770
1.8093 -5.1490 -1.8142 0.9773
4.1398 -3.4609 -1.7936 0.9775
4.4357 -3.0796 -1.7950 0.9775
4.9314 -2.2498 -1.8018 0.9774
2.6214 -0.9231 -0.9238 0.9884
2.8959 -0.7368 -0.9933 0.9875
2.7318 -0.1924 -0.9103 0.9885
2.7204 0.2965 -0.9096 0.9885
2.8800 0.8514 -0.9983 0.9874
4.3828 3.9584 -1.9631 0.9754
-4.1005 4.5792 -2.1981 0.9742
-4.4955 4.1969 -2.1993 0.9742
-4.8508 3.7774 -2.1986 0.9742
-5.4279 2.8450 -2.1915 0.9743
-5.9828 0.7521 -2.1563 0.9747
-5.9910 0.2135 -2.1438 0.9749
-5.8542 -0.8443 -2.1152 0.9752
-5.7126 -1.3536 -2.0994 0.9754
-5.5251 -1.8438 -2.0829 0.9756
-5.0244 -2.7510 -2.0484 0.9760
-3.1977 -4.4537 -1.9607 0.9770
-2.7634 -4.6813 -1.9440 0.9772
-0.9202 -5.1877 -1.8841 0.9779
2.2125 -4.5749 -1.8173 0.9786
2.6053 -4.3474 -1.8125 0.9787
3.9484 -3.1487 -1.8060 0.9788
4.2176 -2.7860 -1.8076 0.9788
4.4567 -2.4020 -1.8105 0.9787
4.6641 -1.9990 -1.8146 0.9787
2.7239 -0.6264 -0.9995 0.9882
2.6533 -0.3647 -0.9577 0.9887
2.5964 0.1098 -0.9293 0.9890
2.8014 0.6297 -1.0268 0.9879
3.0679 1.2970 -1.1911 0.9860
3.5975 2.3509 -1.5368 0.9819
3.9475 3.1162 -1.7985 0.9789
3.3205 4.5137 -2.0038 0.9765
1.5836 5.5799 -2.0742 0.9757
-0.4845 5.9557 -2.1368 0.9749
-1.0208 5.9250 -2.1500 0.9748
-3.0849 5.2853 -2.1885 0.9743
-3.9924 4.6714 -2.1975 0.9742
-5.5929 2.4739 -2.1870 0.9744
-5.8981 1.4284 -2.1702 0.9745
-5.9939 0.3525 -2.1472 0.9748
-5.9637 -0.1831 -2.1337 0.9750
-5.7537 -1.2236 -2.1036 0.9753
-5.5778 -1.7192 -2.0873 0.9755
-5.0979 -2.6400 -2.0530 0.9759
-4.8001 -3.0582 -2.0353 0.9761
-4.1066 -3.7960 -1.9998 0.9765
-2.4321 -4.8242 -1.9320 0.9773
-1.9754 -4.9816 -1.9164 0.9775
-0.5715 -5.2106 -1.8745 0.9780
0.8156 -5.0845 -1.8415 0.9784
1.6920 -4.8151 -1.8251 0.9786
2.5057 -4.4092 -1.8136 0.9787
2.8833 -4.1589 -1.8097 0.9787
3.2386 -3.8792 -1.8071 0.9788
3.5695 -3.5719 -1.8058 0.9788
3.8742 -3.2388 -1.8058 0.9788
4.6136 -2.1048 -1.8134 0.9787
2.7455 -0.6986 -1.0131 0.9880
2.6703 -0.4302 -0.9672 0.9886
2.5981 0.0497 -0.9293 0.9890
2.6431 0.2881 -0.9508 0.9888
2.7626 0.5542 -1.0076 0.9881
2.8522 0.8431 -1.0636 0.9874
3.0039 1.1888 -1.1553 0.9864
3.2668 1.6442 -1.3078 0.9846
3.8276 2.8805 -1.7131 0.9799
-4.1647 3.8881 -2.1834 0.9759
-5.3857 1.6891 -2.1630 0.9761
-2.3016 0.2893 -0.8889 0.9901
-2.2983 0.0819 -0.8813 0.9902
-2.3019 -0.1240 -0.8834 0.9902
-5.3100 -1.2582 -2.0912 0.9769
-4.6783 -2.5615 -2.0439 0.9774
-1.7361 -4.6916 -1.9171 0.9788
-0.8616 -4.8572 -1.8904 0.9791
0.0161 -4.8726 -1.8673 0.9793
1.2881 -4.6257 -1.8401 0.9796
2.4453 -4.0804 -1.8230 0.9798
3.1227 -3.5695 -1.8175 0.9799
3.4273 -3.2746 -1.8165 0.9799
3.7067 -2.9559 -1.8168 0.9799
3.9592 -2.6153 -1.8183 0.9799
4.1832 -2.2546 -1.8211 0.9798
4.3772 -1.8760 -1.8250 0.9798
2.5529 -0.8332 -1.0291 0.9886
2.6457 0.3504 -1.0227 0.9886
2.8522 0.9153 -1.1479 0.9873
3.0788 1.3016 -1.2810 0.9858
3.3421 1.7800 -1.4511 0.9839
3.6379 2.3773 -1.6654 0.9816
3.4316 3.8836 -1.9860 0.9780
3.0964 4.2091 -2.0024 0.9779
2.3361 4.7702 -2.0355 0.9775
1.9160 4.9996 -2.0518 0.9773
0.5340 5.4496 -2.0984 0.9768
0.0455 5.5125 -2.1126 0.9767
-1.4419 5.4192 -2.1490 0.9763
-1.9287 5.2924 -2.1586 0.9762
-4.4126 3.6031 -2.1831 0.9759
-4.7125 3.1917 -2.1811 0.9759
-4.9703 2.7534 -2.1775 0.9760
-5.1835 2.2928 -2.1721 0.9760
-2.3026 0.1354 -0.8839 0.9902
-2.2970 -0.0705 -0.8807 0.9902
-2.3009 -0.2777 -0.8881 0.9901
-5.3475 -1.1372 -2.0951 0.9769
-5.1869 -1.5987 -2.0800 0.9770
-4.7460 -2.4578 -2.0482 0.9774
-3.4698 -3.8366 -1.9824 0.9781
-2.6881 -4.3222 -1.9505 0.9784
-1.8476 -4.6592 -1.9207 0.9788
-1.4137 -4.7707 -1.9068 0.9789
-0.9753 -4.8443 -1.8937 0.9791
-0.5352 -4.8802 -1.8814 0.9792
3.0402 -3.6416 -1.8179 0.9799
3.3509 -3.3532 -1.8167 0.9799
3.8966 -2.7053 -1.8178 0.9799
4.1281 -2.3496 -1.8203 0.9799
4.3300 -1.9755 -1.8239 0.9798
2.5605 -0.4125 -0.9939 0.9890
2.4946 -0.1756 -0.9583 0.9893
2.5141 0.0481 -0.9636 0.9893
3.0144 1.1930 -1.2424 0.9862
3.2736 1.6476 -1.4044 0.9844
3.5333 2.1941 -1.5939 0.9823
-3.5344 3.9471 -2.1684 0.9774
-4.6805 2.4533 -2.1628 0.9774
-4.8688 2.0204 -2.1575 0.9775
-2.0202 0.2540 -0.8333 0.9912
-1.9993 0.0713 -0.8188 0.9914
-2.0059 -0.1080 -0.8222 0.9914
-2.0207 -0.2914 -0.8356 0.9912
-2.0976 -0.4970 -0.8823 0.9907
-4.6020 -2.0085 -2.0551 0.9785
-4.1095 -2.7538 -2.0246 0.9788
-3.8178 -3.0861 -2.0092 0.9790
-3.4998 -3.3885 -1.9937 0.9792
-3.1588 -3.6593 -1.9785 0.9793
-2.0299 -4.2691 -1.9347 0.9798
-1.6290 -4.4023 -1.9211 0.9799
-1.2210 -4.4997 -1.9082 0.9801
-0.3961 -4.5880 -1.8847 0.9803
0.0152 -4.5794 -1.8742 0.9804
0.4219 -4.5365 -1.8647 0.9805
0.8216 -4.4601 -1.8561 0.9806
1.5899 -4.2107 -1.8421 0.9807
1.9538 -4.0400 -1.8367 0.9808
2.9396 -3.3601 -1.8272 0.9809
4.1195 -1.7655 -1.8343 0.9808
2.4936 -0.5735 -1.0472 0.9890
2.4394 -0.1152 -0.9995 0.9895
2.5108 0.1061 -1.0285 0.9892
2.6226 0.3473 -1.0827 0.9886
2.8648 0.9194 -1.2314 0.9871
3.7510 2.9611 -1.9559 0.9796
3.4978 3.3091 -1.9707 0.9794
3.2128 3.6360 -1.9858 0.9792
2.5537 4.2140 -2.0167 0.9789
2.1837 4.4590 -2.0321 0.9788
0.9439 4.9856 -2.0767 0.9783
-0.8825 5.1226 -2.1274 0.9778
-1.3429 5.0473 -2.1376 0.9777
-2.2366 4.7644 -2.1541 0.9775
-2.6607 4.5585 -2.1602 0.9774
-3.0637 4.3119 -2.1649 0.9774
-3.7898 3.7057 -2.1694 0.9774
-4.1053 3.3522 -2.1692 0.9774
-4.3846 2.9696 -2.1674 0.9774
-4.6250 2.5621 -2.1640 0.9774
-4.8243 2.1339 -2.1590 0.9775
-4.9806 1.6895 -2.1525 0.9775
-2.0240 0.3021 -0.8375 0.9912
-2.0198 -0.2438 -0.8327 0.9912
-2.0834 -0.4431 -0.8718 0.9908
-4.6559 -1.9052 -2.0589 0.9785
-4.1802 -2.6633 -2.0286 0.9788
-3.2490 -3.5924 -1.9824 0.9793
-2.8930 -3.8388 -1.9673 0.9794
-2.5196 -4.0513 -1.9526 0.9796
-2.1320 -4.2289 -1.9383 0.9797
-1.7334 -4.3713 -1.9246 0.9799
-1.3270 -4.4780 -1.9115 0.9800
-0.0908 -4.5849 -1.8769 0.9804
0.3174 -4.5508 -1.8671 0.9805
1.1119 -4.3824 -1.8504 0.9806
1.4934 -4.2499 -1.8437 0.9807
2.2133 -3.8946 -1.8334 0.9808
3.6680 -2.5466 -1.8275 0.9809
4.0752 -1.8592 -1.8332 0.9808
2.5265 -0.8897 -1.0963 0.9885
2.5103 -0.6387 -1.0601 0.9889
2.4301 -0.1711 -0.9970 0.9895
2.4867 0.0476 -1.0179 0.9893
2.5901 0.2823 -1.0663 0.9888
2.7305 0.5478 -1.1398 0.9880
2.8149 0.8321 -1.2013 0.9874
3.2806 1.6511 -1.5031 0.9843
3.8110 2.8681 -1.9521 0.9796
-3.3004 3.6857 -2.1562 0.9786
-3.6180 3.3777 -2.1571 0.9786
-3.9042 3.0403 -2.1566 0.9786
-4.1561 2.6769 -2.1545 0.9787
-4.5480 1.8873 -2.1460 0.9787
-1.4939 0.4685 -0.6823 0.9932
-1.4809 0.3226 -0.6605 0.9934
-1.4924 -0.4980 -0.6857 0.9932
-4.0985 -2.2441 -2.0364 0.9798
-3.2856 -3.1811 -1.9931 0.9802
-2.9669 -3.4369 -1.9788 0.9804
-2.2756 -3.8549 -1.9509 0.9807
-1.9091 -4.0151 -1.9376 0.9808
-0.7619 -4.2952 -1.9012 0.9811
1.1426 -4.1031 -1.8562 0.9816
2.4822 -3.4093 -1.8379 0.9818
2.7738 -3.1706 -1.8360 0.9818
3.2926 -2.6258 -1.8354 0.9818
3.5166 -2.3229 -1.8368 0.9818
3.7149 -2.0022 -1.8392 0.9818
3.8863 -1.6656 -1.8427 0.9817
2.5562 -0.8343 -1.1719 0.9883
2.4555 -0.5647 -1.0981 0.9891
2.3869 -0.3281 -1.0500 0.9895
2.4229 -0.1144 -1.0571 0.9895
2.5957 0.3438 -1.1411 0.9886
2.7375 0.6153 -1.2228 0.9878
2.8777 0.9235 -1.3171 0.9869
3.7339 2.4401 -1.9440 0.9807
3.2861 3.1088 -1.9714 0.9805
3.0169 3.4143 -1.9857 0.9803
2.3957 3.9533 -2.0146 0.9800
2.0476 4.1812 -2.0290 0.9799
1.6778 4.3779 -2.0433 0.9798
0.8839 4.6686 -2.0708 0.9795
0.4663 4.7585 -2.0838 0.9794
0.0397 4.8093 -2.0960 0.9792
-0.3921 4.8199 -2.1075 0.9791
-0.8251 4.7894 -2.1180 0.9790
-1.2552 4.7175 -2.1275 0.9789
-2.0894 4.4508 -2.1429 0.9788
-3.8334 3.1301 -2.1569 0.9786
-4.0944 2.7731 -2.1552 0.9787
-4.5061 1.9932 -2.1474 0.9787
-1.4885 0.3605 -0.6675 0.9933
-1.4737 0.2200 -0.6494 0.9935
-1.4423 -0.0443 -0.6289 0.9937
-1.4789 -0.3145 -0.6589 0.9934
-1.4940 -0.4605 -0.6813 0.9932
-4.1567 -2.1526 -2.0401 0.9798
-3.6552 -2.8175 -2.0113 0.9801
-3.0512 -3.3737 -1.9824 0.9803
-1.6308 -4.1125 -1.9281 0.9809
-0.8622 -4.2830 -1.9041 0.9811
-0.4736 -4.3180 -1.8931 0.9812
0.2991 -4.2890 -1.8737 0.9814
0.6779 -4.2262 -1.8654 0.9815
1.0485 -4.1323 -1.8580 0.9816
3.2308 -2.7009 -1.8352 0.9818
3.6662 -2.0867 -1.8385 0.9818
3.8447 -1.7540 -1.8417 0.9817
2.5282 -0.8903 -1.1681 0.9884
2.4137 -0.1700 -1.0545 0.9895
2.4647 0.0472 -1.0743 0.9893
2.5636 0.2794 -1.1239 0.9888
2.7142 0.5445 -1.2065 0.9880
2.8272 0.8357 -1.2849 0.9872
3.0362 1.2016 -1.4231 0.9859
3.5824 2.6959 -1.9540 0.9806
-3.8934 2.5077 -2.1437 0.9798
-1.2491 0.5184 -0.6260 0.9941
-1.2676 0.2761 -0.6005 0.9943
-1.2658 0.0451 -0.5863 0.9944
-1.2687 -0.0683 -0.5881 0.9944
-1.2694 -0.3008 -0.6039 0.9943
-1.2666 -0.4227 -0.6181 0.9941
-1.2474 -0.5444 -0.6300 0.9940
-3.6248 -2.4290 -2.0197 0.9810
-3.3705 -2.7245 -2.0061 0.9811
-3.0926 -2.9942 -1.9925 0.9812
-2.4768 -3.4496 -1.9657 0.9815
-1.4456 -3.9066 -1.9281 0.9818
-0.7191 -4.0539 -1.9058 0.9820
-0.3522 -4.0800 -1.8956 0.9821
0.0135 -4.0749 -1.8862 0.9822
0.3757 -4.0390 -1.8777 0.9823
0.7319 -3.9730 -1.8700 0.9824
1.4174 -3.7539 -1.8574 0.9825
2.0530 -3.4257 -1.8487 0.9826
3.3253 -2.1966 -1.8447 0.9826
3.6743 -1.5747 -1.8504 0.9825
2.5579 -0.8348 -1.2455 0.9882
2.3783 -0.3270 -1.1113 0.9895
2.4063 -0.1136 -1.1151 0.9894
2.4639 0.1042 -1.1415 0.9892
2.8909 0.9278 -1.4054 0.9867
3.1132 1.3161 -1.5646 0.9852
3.6875 1.9640 -1.9339 0.9818
2.8403 3.2144 -1.9855 0.9813
1.9253 3.9314 -2.0263 0.9809
1.2108 4.2662 -2.0528 0.9806
0.4377 4.4670 -2.0776 0.9804
0.0372 4.5130 -2.0891 0.9803
-0.7738 4.4914 -2.1096 0.9801
-1.5728 4.3158 -2.1262 0.9800
-1.9580 4.1709 -2.1328 0.9799
-3.5908 2.9321 -2.1459 0.9798
-1.2509 0.5533 -0.6331 0.9940
-1.2747 0.1903 -0.5966 0.9943
-1.2649 -0.0388 -0.5858 0.9944
-1.2751 -0.1539 -0.5945 0.9944
-1.2670 -0.2695 -0.5996 0.9943
-1.2508 -0.5118 -0.6256 0.9941
-2.8728 -3.1765 -1.9825 0.9813
-1.8900 -3.7490 -1.9434 0.9817
-0.8137 -4.0420 -1.9085 0.9820
-0.0808 -4.0792 -1.8886 0.9822
0.2825 -4.0512 -1.8798 0.9823
0.6405 -3.9929 -1.8719 0.9823
1.3313 -3.7886 -1.8588 0.9825
2.2727 -3.2782 -1.8464 0.9826
3.4666 -1.9731 -1.8464 0.9826
2.5299 -0.8909 -1.2415 0.9882
2.3730 -0.3823 -1.1126 0.9895
2.4466 0.0468 -1.1327 0.9893
2.5883 0.2821 -1.2052 0.9886
2.6979 0.5412 -1.2737 0.9879
3.0476 1.2061 -1.5171 0.9857
3.2950 1.6583 -1.7075 0.9839
3.3758 2.5405 -1.9557 0.9815
-2.9041 3.2431 -2.1354 0.9808
-3.1833 2.9719 -2.1362 0.9808
-3.4352 2.6751 -2.1357 0.9808
-3.6573 2.3556 -2.1339 0.9808
-1.0961 0.5745 -0.6070 0.9945
-1.1096 0.4604 -0.5893 0.9947
-1.1397 0.0406 -0.5594 0.9949
-1.1418 -0.0615 -0.5609 0.9949
-1.1437 -0.1650 -0.5668 0.9949
-1.1327 -0.2684 -0.5710 0.9948
-1.1034 -0.4816 -0.5905 0.9947
-3.4170 -2.2897 -2.0176 0.9818
-2.9175 -2.8247 -1.9920 0.9821
-2.3384 -3.2569 -1.9667 0.9823
-1.7005 -3.5765 -1.9426 0.9825
-0.3332 -3.8597 -1.9003 0.9829
0.0128 -3.8559 -1.8914 0.9830
0.3556 -3.8229 -1.8833 0.9830
1.3423 -3.5551 -1.8640 0.9832
1.9447 -3.2451 -1.8557 0.9833
2.4850 -2.8405 -1.8513 0.9833
2.9499 -2.3525 -1.8508 0.9833
3.1503 -2.0810 -1.8520 0.9833
3.4804 -1.4916 -1.8574 0.9833
2.4525 -0.5640 -1.2344 0.9889
2.3697 -0.3258 -1.1733 0.9894
2.4454 0.1034 -1.2006 0.9892
2.5652 0.3397 -1.2693 0.9885
3.4846 1.8559 -1.9366 0.9826
3.3248 2.1727 -1.9483 0.9825
3.1368 2.4762 -1.9603 0.9824
2.1248 3.5062 -2.0110 0.9819
1.4856 3.8766 -2.0364 0.9817
1.1403 4.0179 -2.0487 0.9816
0.4120 4.2040 -2.0720 0.9814
0.0350 4.2460 -2.0828 0.9813
-0.7276 4.2232 -2.1021 0.9811
-1.1062 4.1576 -2.1104 0.9810
-1.4782 4.0561 -2.1176 0.9809
-2.8278 3.3087 -2.1350 0.9808
-3.3729 2.7541 -2.1360 0.9808
-3.6029 2.4402 -2.1345 0.9808
-1.1147 0.6175 -0.6251 0.9943
-1.1329 0.2744 -0.5718 0.9948
-1.1423 0.0672 -0.5613 0.9949
-1.1301 -0.3483 -0.5801 0.9947
-1.1112 -0.4547 -0.5889 0.9947
-1.0926 -0.5658 -0.6036 0.9945
-3.2424 -2.4993 -2.0081 0.9819
-1.7855 -3.5417 -1.9456 0.9825
-1.4534 -3.6652 -1.9340 0.9826
-1.1139 -3.7588 -1.9230 0.9827
-0.0764 -3.8598 -1.8937 0.9829
0.2674 -3.8342 -1.8853 0.9830
0.6063 -3.7799 -1.8778 0.9831
0.9382 -3.6975 -1.8712 0.9831
1.2607 -3.5878 -1.8654 0.9832
1.5720 -3.4518 -1.8605 0.9832
1.8701 -3.2907 -1.8566 0.9833
2.8945 -2.4198 -1.8506 0.9833
3.1007 -2.1527 -1.8516 0.9833
3.2841 -1.8692 -1.8536 0.9833
2.5316 -0.8915 -1.3166 0.9881
2.3641 -0.3809 -1.1746 0.9894
2.3854 -0.1680 -1.1730 0.9894
2.4631 0.0471 -1.2084 0.9891
2.5329 0.2761 -1.2498 0.9887
2.6758 0.5368 -1.3387 0.9879
2.8530 0.8434 -1.4593 0.9868
3.3689 2.0920 -1.9452 0.9825
2.9797 2.6912 -1.9695 0.9823
-2.9973 2.7983 -2.1273 0.9817
-0.9962 0.4134 -0.5595 0.9952
-1.0158 0.3186 -0.5523 0.9952
-1.0264 0.2236 -0.5450 0.9953
-1.0370 0.1304 -0.5422 0.9953
-1.0358 -0.1494 -0.5429 0.9953
-3.0036 -2.4279 -2.0036 0.9827
-2.7580 -2.6702 -1.9915 0.9829
-2.4933 -2.8883 -1.9795 0.9830
-1.6097 -3.3855 -1.9447 0.9832
-0.9710 -3.5785 -1.9236 0.9834
0.3371 -3.6246 -1.8885 0.9837
0.6571 -3.5669 -1.8816 0.9838
1.8452 -3.0791 -1.8623 0.9840
2.1099 -2.8980 -1.8597 0.9840
2.3582 -2.6956 -1.8580 0.9840
2.5885 -2.4732 -1.8573 0.9840
2.7994 -2.2324 -1.8575 0.9840
2.9895 -1.9748 -1.8587 0.9840
2.5615 -0.8360 -1.3978 0.9879
2.3829 -0.1125 -1.2376 0.9893
2.4474 0.1035 -1.2708 0.9890
3.4240 1.4475 -1.9285 0.9834
3.1467 2.0564 -1.9501 0.9832
2.5339 2.8677 -1.9853 0.9829
2.2815 3.1013 -1.9974 0.9828
2.0075 3.3127 -2.0095 0.9827
1.7138 3.4996 -2.0215 0.9826
1.0763 3.7922 -2.0450 0.9824
0.3886 3.9653 -2.0670 0.9822
-0.3262 4.0089 -2.0866 0.9820
-0.6857 3.9802 -2.0952 0.9820
-1.0423 3.9175 -2.1030 0.9819
-1.3925 3.8211 -2.1098 0.9818
-1.7329 3.6915 -2.1156 0.9818
-2.0602 3.5298 -2.1203 0.9818
-2.6626 3.1155 -2.1261 0.9817
-3.1759 2.5932 -2.1271 0.9817
-1.0217 0.2474 -0.5453 0.9953
-1.0354 0.1545 -0.5431 0.9953
-1.0363 0.0609 -0.5386 0.9953
-1.0164 -0.3133 -0.5518 0.9952
-0.9636 -0.4990 -0.5629 0.9951
-2.2862 -3.0336 -1.9706 0.9830
-1.9942 -3.2066 -1.9590 0.9831
-0.7290 -3.6212 -1.9163 0.9835
-0.4007 -3.6540 -1.9070 0.9836
0.5750 -3.5844 -1.8833 0.9838
1.1959 -3.4034 -1.8714 0.9839
1.4914 -3.2749 -1.8668 0.9839
2.7469 -2.2964 -1.8574 0.9840
3.1163 -1.7737 -1.8602 0.9840
2.3768 -0.1674 -1.2361 0.9893
2.5350 0.2763 -1.3229 0.9886
2.8666 0.8474 -1.5507 0.9866
3.0752 1.2171 -1.7158 0.9852
3.3340 1.6780 -1.9363 0.9833
3.1887 1.9801 -1.9472 0.9832
3.0166 2.2701 -1.9586 0.9831
2.8185 2.5456 -1.9702 0.9830
-2.5802 2.8814 -2.1184 0.9825
-0.8685 0.5594 -0.5658 0.9953
-0.8833 0.4630 -0.5462 0.9955
-0.9054 0.3757 -0.5369 0.9955
-0.9357 0.2038 -0.5245 0.9956
-0.9453 -0.1363 -0.5231 0.9957
-0.9319 -0.2208 -0.5246 0.9956
-0.8777 -0.4806 -0.5481 0.9954
-2.6117 -2.5287 -1.9911 0.9836
-2.3619 -2.7360 -1.9797 0.9837
-1.2270 -3.3158 -1.9364 0.9840
-0.9212 -3.3949 -1.9266 0.9841
-0.6114 -3.4469 -1.9173 0.9842
-0.2997 -3.4719 -1.9087 0.9842
0.0115 -3.4701 -1.9006 0.9843
0.6241 -3.3877 -1.8867 0.9844
0.9213 -3.3082 -1.8808 0.9845
1.4878 -3.0763 -1.8716 0.9845
1.7534 -2.9259 -1.8683 0.9846
2.0051 -2.7540 -1.8658 0.9846
2.2412 -2.5618 -1.8642 0.9846
2.4601 -2.3505 -1.8636 0.9846
3.1378 -1.3448 -1.8698 0.9846
1.8886 -0.2596 -1.0441 0.9913
1.8836 -0.0889 -1.0328 0.9914
1.8887 0.2501 -1.0435 0.9913
1.8865 0.4240 -1.0590 0.9912
3.1285 1.6663 -1.9414 0.9840
2.6179 2.4767 -1.9738 0.9837
1.0178 3.5861 -2.0417 0.9831
0.3672 3.7476 -2.0624 0.9830
0.0312 3.7828 -2.0720 0.9829
-0.3081 3.7867 -2.0809 0.9828
-0.6476 3.7587 -2.0890 0.9828
-0.9841 3.6988 -2.0963 0.9827
-1.6356 3.4843 -2.1082 0.9826
-1.9443 3.3312 -2.1126 0.9826
-2.2376 3.1492 -2.1159 0.9825
-2.5125 2.9398 -2.1180 0.9825
-2.7663 2.7049 -2.1191 0.9825
-2.9967 2.4469 -2.1189 0.9825
-0.8748 0.5925 -0.5787 0.9952
-0.9006 0.3983 -0.5393 0.9955
-0.9173 0.3112 -0.5305 0.9956
-0.9449 0.1410 -0.5233 0.9957
-0.9444 -0.0290 -0.5175 0.9957
-0.9215 -0.2840 -0.5282 0.9956
-0.9063 -0.3709 -0.5363 0.9955
-0.8848 -0.4582 -0.5457 0.9955
-2.9001 -2.2354 -2.0055 0.9834
-2.6734 -2.4713 -1.9940 0.9835
-2.1662 -2.8744 -1.9713 0.9837
-1.8901 -3.0392 -1.9602 0.9838
-1.3050 -3.2910 -1.9391 0.9840
-1.0007 -3.3770 -1.9291 0.9841
-0.3803 -3.4680 -1.9108 0.9842
0.2407 -3.4517 -1.8951 0.9843
0.5461 -3.4041 -1.8883 0.9844
0.8452 -3.3311 -1.8823 0.9844
1.1361 -3.2333 -1.8770 0.9845
1.4170 -3.1116 -1.8726 0.9845
2.1817 -2.6133 -1.8646 0.9846
2.6105 -2.1824 -1.8636 0.9846
2.7964 -1.9414 -1.8645 0.9846
1.8856 -0.4798 -1.0656 0.9912
1.8871 -0.3040 -1.0469 0.9913
1.8870 -0.1329 -1.0361 0.9914
1.8774 0.0359 -1.0284 0.9915
1.8854 0.3782 -1.0532 0.9913
3.2745 1.2959 -1.9288 0.9841
2.8591 2.1517 -1.9599 0.9838
-2.4392 2.7239 -2.1110 0.9833
-2.6736 2.4960 -2.1117 0.9832
-2.8852 2.2468 -2.1113 0.9833
-0.7994 0.5149 -0.5490 0.9956
-0.8643 0.2711 -0.5230 0.9958
-0.8818 0.1108 -0.5131 0.9959
-0.8814 -0.0475 -0.5096 0.9959
-0.8811 -0.1271 -0.5140 0.9959
-0.8730 -0.2069 -0.5180 0.9959
-0.8476 -0.3699 -0.5339 0.9957
-0.8242 -0.4513 -0.5425 0.9957
-2.2408 -2.5958 -1.9798 0.9843
-1.7246 -2.9215 -1.9587 0.9845
-1.4493 -3.0480 -1.9486 0.9845
-0.8752 -3.2253 -1.9294 0.9847
-0.5810 -3.2755 -1.9206 0.9848
-0.2849 -3.3000 -1.9123 0.9848
1.4155 -2.9268 -1.8770 0.9851
1.6684 -2.7840 -1.8738 0.9851
2.9855 -1.2795 -1.8753 0.9851
1.7159 -0.5600 -1.0421 0.9917
1.7326 -0.3984 -1.0264 0.9918
1.7351 0.0733 -1.0026 0.9920
1.7327 0.3895 -1.0253 0.9918
1.8426 0.7790 -1.1550 0.9908
2.9711 1.5824 -1.9435 0.9846
2.6536 2.0948 -1.9519 0.9845
2.4841 2.3501 -1.9743 0.9843
2.2766 2.5765 -1.9851 0.9842
1.5370 3.1384 -2.0176 0.9840
1.2571 3.2803 -2.0282 0.9839
0.6600 3.4863 -2.0486 0.9837
-0.6126 3.5560 -2.0833 0.9835
-0.9309 3.4986 -2.0902 0.9834
-1.2432 3.4113 -2.0962 0.9834
-2.1154 2.9772 -2.1086 0.9833
-2.6151 2.5570 -2.1116 0.9832
-2.8328 2.3131 -2.1115 0.9832
-0.7968 0.5397 -0.5556 0.9956
-0.8227 0.4557 -0.5430 0.9957
-0.8618 0.2923 -0.5254 0.9958
-0.8802 -0.0270 -0.5084 0.9959
-0.8819 -0.1065 -0.5129 0.9959
-0.8648 -0.2665 -0.5224 0.9958
-0.8061 -0.6214 -0.5877 0.9953
-2.5354 -2.3437 -1.9935 0.9842
-1.7941 -2.8848 -1.9614 0.9844
0.2289 -3.2819 -1.8994 0.9849
0.5193 -3.2373 -1.8929 0.9850
0.8039 -3.1683 -1.8872 0.9850
1.8474 -2.6647 -1.8720 0.9851
2.0761 -2.4868 -1.8703 0.9851
2.8179 -1.6039 -1.8720 0.9851
2.9538 -1.3476 -1.8745 0.9851
1.7310 -0.4404 -1.0312 0.9918
1.7387 -0.1224 -1.0063 0.9920
1.7307 0.0331 -0.9994 0.9920
1.7337 0.3478 -1.0209 0.9919
1.7240 0.5096 -1.0380 0.9917
1.7568 0.6953 -1.0909 0.9913
3.0029 1.5114 -1.9410 0.9846
2.8705 1.7825 -1.9508 0.9845
2.5342 2.2888 -1.9715 0.9844
