ply
format ascii 1.0
element vertex 1402
property float32 x
property float32 y
property float32 z
property float32 I
end_header
-5.2787 -5.3915 1.3305 0.9698
-2.4019 -5.4009 1.0422 0.9763
-1.8471 -5.4036 1.0069 0.9771
-1.3247 -5.4066 0.9815 0.9776
-0.8242 -5.4099 0.9649 0.9780
-0.3366 -5.4135 0.9564 0.9782
0.6323 -5.4218 0.9625 0.9781
1.1299 -5.4291 0.9778 0.9777
1.6479 -5.4371 1.0018 0.9772
8.9316 -17.4763 3.4607 0.9234
11.9239 13.8978 3.2289 0.9283
8.1987 13.9634 2.8552 0.9363
7.6344 16.1399 3.1482 0.9300
-15.9036 -10.2172 3.3331 0.9261
-6.9415 -5.3888 1.5495 0.9649
-5.7937 -5.3890 1.3952 0.9684
-4.8503 -5.3928 1.2789 0.9710
-3.3409 -5.3971 1.1192 0.9745
-0.5913 -5.4115 0.9599 0.9781
-0.1069 -5.4153 0.9550 0.9782
0.3764 -5.4194 0.9579 0.9782
0.8669 -5.4252 0.9687 0.9779
-5.2668 -5.3793 1.1533 0.9700
-4.4058 -5.3849 1.0659 0.9722
-1.8447 -5.3968 0.8737 0.9772
-0.8232 -5.4033 0.8373 0.9781
-0.3362 -5.4070 0.8299 0.9783
11.9245 13.8985 2.8054 0.9286
-6.9228 -5.3743 1.3426 0.9652
-5.7800 -5.3763 1.2093 0.9686
-4.0391 -5.3868 1.0314 0.9731
-2.7066 -5.3923 0.9243 0.9759
-2.1306 -5.3952 0.8886 0.9768
-1.5934 -5.3983 0.8623 0.9775
-1.0833 -5.4015 0.8440 0.9780
-0.1068 -5.4088 0.8288 0.9783
-5.2550 -5.3673 0.9782 0.9702
-2.9941 -5.3836 0.8022 0.9755
-2.3956 -5.3868 0.7677 0.9765
-1.8424 -5.3900 0.7418 0.9773
-1.3214 -5.3933 0.7231 0.9779
-0.8222 -5.3968 0.7109 0.9782
0.1460 -5.4045 0.7040 0.9784
1.6445 -5.4259 0.7383 0.9774
11.9251 13.8992 2.3848 0.9288
7.6312 16.1330 2.3240 0.9305
-6.9044 -5.3600 1.1382 0.9654
-5.7664 -5.3637 1.0255 0.9687
-4.8301 -5.3704 0.9406 0.9713
-4.0315 -5.3767 0.8751 0.9733
-1.5914 -5.3916 0.7320 0.9776
-0.5899 -5.3986 0.7072 0.9783
-0.1067 -5.4024 0.7036 0.9784
0.3756 -5.4075 0.7059 0.9784
0.8651 -5.4144 0.7140 0.9781
-6.2606 -5.3473 0.8841 0.9674
-3.6470 -5.3694 0.6970 0.9742
-1.3198 -5.3868 0.5956 0.9779
-0.8212 -5.3904 0.5855 0.9783
-0.3354 -5.3941 0.5803 0.9785
0.6304 -5.4058 0.5844 0.9783
9.9483 13.9346 1.8385 0.9334
8.1298 13.8460 1.7242 0.9374
-4.0235 -5.3660 0.7202 0.9734
-2.6995 -5.3780 0.6462 0.9761
-2.1252 -5.3815 0.6213 0.9770
-1.5895 -5.3850 0.6029 0.9777
-0.1065 -5.3960 0.5795 0.9785
0.3752 -5.4022 0.5815 0.9785
1.3688 -5.4163 0.5999 0.9778
5.9800 -17.0882 1.9441 0.9298
9.7101 -17.1650 2.1177 0.9237
-7.4962 -5.3266 0.7785 0.9638
-4.3788 -5.3518 0.5854 0.9726
-3.6401 -5.3592 0.5484 0.9743
-2.9843 -5.3661 0.5198 0.9757
-0.8202 -5.3840 0.4610 0.9784
-0.3350 -5.3878 0.4570 0.9786
0.6298 -5.4005 0.4603 0.9784
1.1254 -5.4075 0.4676 0.9781
8.7530 -17.1269 1.6282 0.9257
9.9488 13.9352 1.4494 0.9336
8.2002 13.9659 1.3710 0.9371
7.6280 16.1262 1.5101 0.9309
-6.8681 -5.3318 0.7360 0.9657
-3.3195 -5.3625 0.5339 0.9750
-2.6950 -5.3692 0.5086 0.9762
-2.1225 -5.3747 0.4892 0.9771
-1.5875 -5.3784 0.4747 0.9777
-1.0794 -5.3821 0.4647 0.9782
-0.5885 -5.3858 0.4586 0.9785
0.3749 -5.3970 0.4580 0.9785
1.3675 -5.4109 0.4725 0.9778
5.9793 -17.0863 1.5324 0.9299
9.7089 -17.1628 1.6692 0.9239
-2.9790 -5.3564 0.3801 0.9757
-1.3166 -5.3738 0.3431 0.9781
8.7519 -17.1249 1.1926 0.9258
10.6263 -16.8909 1.2374 0.9231
9.9492 13.9359 1.0618 0.9337
-16.1869 10.7714 1.2057 0.9250
-6.8494 -5.3173 0.5377 0.9658
-3.3134 -5.3526 0.3904 0.9751
-2.1193 -5.3665 0.3578 0.9771
-1.5856 -5.3718 0.3473 0.9778
-0.5878 -5.3795 0.3356 0.9785
-0.1063 -5.3853 0.3340 0.9786
0.8626 -5.3985 0.3390 0.9783
1.3661 -5.4056 0.3457 0.9779
5.9786 -17.0843 1.1224 0.9300
9.7077 -17.1607 1.2226 0.9240
-7.4531 -5.2959 0.3605 0.9641
-6.2154 -5.3087 0.3223 0.9678
-5.2090 -5.3203 0.2936 0.9706
-4.3611 -5.3302 0.2716 0.9728
-2.9736 -5.3468 0.2412 0.9758
-2.3811 -5.3541 0.2311 0.9768
0.1454 -5.3835 0.2124 0.9787
0.6286 -5.3901 0.2140 0.9785
1.1232 -5.3969 0.2174 0.9782
1.6378 -5.4040 0.2227 0.9776
9.9497 13.9365 0.6752 0.9337
-16.1880 10.7721 0.7667 0.9251
-4.7894 -5.3252 0.2824 0.9717
-3.9999 -5.3345 0.2629 0.9737
-3.3073 -5.3428 0.2478 0.9752
-1.0768 -5.3693 0.2159 0.9783
-0.1062 -5.3801 0.2122 0.9787
0.8618 -5.3932 0.2154 0.9784
1.3647 -5.4002 0.2196 0.9779
5.9779 -17.0824 0.7136 0.9301
9.7065 -17.1587 0.7773 0.9241
-6.2006 -5.2960 0.1377 0.9679
-5.1977 -5.3087 0.1255 0.9707
-3.6195 -5.3289 0.1088 0.9746
-2.9683 -5.3373 0.1032 0.9759
-1.8295 -5.3522 0.0955 0.9776
-0.3340 -5.3719 0.0909 0.9787
0.1453 -5.3784 0.0909 0.9787
0.6280 -5.3849 0.0916 0.9785
1.1221 -5.3916 0.0930 0.9782
10.6254 -16.8894 0.3371 0.9233
14.2938 13.9324 0.3372 0.9233
11.9281 13.9026 0.3094 0.9293
9.9501 13.9371 0.2893 0.9338
8.2012 13.9677 0.2736 0.9373
-4.7794 -5.3140 0.1207 0.9718
-3.9921 -5.3241 0.1124 0.9737
-3.3013 -5.3330 0.1059 0.9752
-1.0754 -5.3621 0.0924 0.9784
-0.1061 -5.3750 0.0908 0.9787
0.3738 -5.3814 0.0911 0.9787
0.8609 -5.3880 0.0922 0.9784
9.7054 -17.1566 0.3330 0.9242
-7.4317 -5.2808 -0.0513 0.9642
-6.2009 -5.2963 -0.0459 0.9679
-5.1981 -5.3091 -0.0418 0.9707
-4.3530 -5.3203 -0.0387 0.9729
-1.8300 -5.3537 -0.0319 0.9776
-0.8176 -5.3668 -0.0306 0.9785
1.6362 -5.3986 -0.0318 0.9777
8.7488 -17.1187 -0.1082 0.9260
10.6249 -16.8886 -0.1123 0.9233
14.2920 13.9308 -0.1124 0.9233
11.9286 13.9033 -0.1031 0.9293
8.2016 13.9683 -0.0912 0.9373
7.6216 16.1127 -0.1003 0.9312
-6.8128 -5.2889 -0.0486 0.9661
-5.7001 -5.3019 -0.0438 0.9693
-3.3020 -5.3342 -0.0353 0.9752
-2.6816 -5.3424 -0.0337 0.9764
-1.5812 -5.3570 -0.0314 0.9779
-1.0757 -5.3637 -0.0308 0.9784
-0.1061 -5.3762 -0.0303 0.9787
0.3739 -5.3826 -0.0304 0.9786
9.7042 -17.1545 -0.1110 0.9242
-7.4382 -5.2854 -0.2569 0.9641
-6.2057 -5.3004 -0.2298 0.9679
-4.3548 -5.3225 -0.1936 0.9729
-3.6218 -5.3323 -0.1815 0.9745
-2.3786 -5.3485 -0.1648 0.9768
-1.3139 -5.3625 -0.1555 0.9781
-0.3342 -5.3747 -0.1516 0.9787
0.1453 -5.3811 -0.1516 0.9787
1.1225 -5.3936 -0.1551 0.9782
8.7478 -17.1167 -0.5413 0.9260
14.2903 13.9291 -0.5619 0.9233
11.9292 13.9039 -0.5159 0.9293
9.9510 13.9384 -0.4822 0.9338
-5.7038 -5.3055 -0.2193 0.9693
-3.9946 -5.3274 -0.1875 0.9737
-2.1135 -5.3520 -0.1620 0.9772
-1.5818 -5.3590 -0.1573 0.9779
-1.0761 -5.3656 -0.1541 0.9783
-0.5869 -5.3714 -0.1521 0.9786
-0.1062 -5.3777 -0.1515 0.9787
1.3636 -5.3959 -0.1567 0.9780
9.7030 -17.1524 -0.5549 0.9242
-7.4448 -5.2900 -0.4632 0.9641
-6.2105 -5.3044 -0.4142 0.9678
-5.2031 -5.3143 -0.3772 0.9707
-3.6230 -5.3340 -0.3270 0.9745
-1.3143 -5.3644 -0.2801 0.9781
1.6361 -5.3982 -0.2861 0.9777
8.7467 -17.1146 -0.9747 0.9259
10.4647 -16.6340 -0.9966 0.9243
14.2885 13.9274 -1.0119 0.9232
-6.8241 -5.2977 -0.4381 0.9660
-5.7080 -5.3094 -0.3953 0.9693
-1.5824 -5.3609 -0.2835 0.9779
-1.0765 -5.3675 -0.2776 0.9783
-0.5871 -5.3729 -0.2741 0.9786
-0.1062 -5.3792 -0.2729 0.9787
0.3741 -5.3856 -0.2738 0.9786
0.8614 -5.3909 -0.2769 0.9784
1.3636 -5.3956 -0.2822 0.9780
5.9752 -17.0746 -0.9174 0.9301
-7.4513 -5.2947 -0.6702 0.9640
-6.2163 -5.3094 -0.5994 0.9677
-5.2068 -5.3180 -0.5457 0.9706
-4.3578 -5.3261 -0.5046 0.9728
-3.6233 -5.3345 -0.4728 0.9745
-1.8320 -5.3597 -0.4153 0.9775
0.1454 -5.3839 -0.3949 0.9786
0.6284 -5.3885 -0.3978 0.9785
1.1224 -5.3931 -0.4039 0.9781
1.6360 -5.3980 -0.4136 0.9776
8.7169 -17.0562 -1.4045 0.9261
10.3697 -16.4829 -1.4278 0.9249
11.9304 13.9053 -1.3434 0.9292
9.9520 13.9397 -1.2558 0.9336
8.2026 13.9701 -1.1878 0.9371
6.8202 14.4186 -1.1695 0.9380
-6.9404 -5.3880 -0.6442 0.9654
-5.7122 -5.3133 -0.5720 0.9692
-4.7865 -5.3220 -0.5248 0.9717
-3.3052 -5.3394 -0.4604 0.9751
-2.1151 -5.3560 -0.4222 0.9772
-1.0769 -5.3695 -0.4015 0.9783
-0.1062 -5.3808 -0.3946 0.9786
1.3635 -5.3954 -0.4080 0.9779
9.6666 -17.0880 -1.4395 0.9243
-6.9269 -3.2577 -0.7349 0.9697
-6.6360 -3.8765 -0.7378 0.9696
-5.2113 -5.3226 -0.7151 0.9705
-4.3606 -5.3296 -0.6611 0.9727
-3.6246 -5.3364 -0.6193 0.9744
-2.9725 -5.3447 -0.5871 0.9757
-2.3809 -5.3535 -0.5625 0.9767
-1.3153 -5.3684 -0.5306 0.9780
-0.3344 -5.3792 -0.5174 0.9786
0.1454 -5.3837 -0.5171 0.9786
1.1224 -5.3929 -0.5288 0.9781
1.6359 -5.3978 -0.5415 0.9776
8.7158 -17.0542 -1.8387 0.9259
10.3698 -16.4830 -1.8696 0.9247
18.0706 7.9883 -1.8968 0.9237
17.2349 9.5349 -1.8910 0.9239
12.7420 8.6132 -1.4766 0.9401
15.1694 12.3551 -1.8783 0.9244
13.7837 13.4353 -1.8479 0.9256
6.6075 17.9486 -1.8362 0.9260
4.9654 18.3951 -1.8292 0.9263
1.6144 18.8445 -1.8158 0.9268
-6.5586 17.4243 -1.7874 0.9279
-8.0626 16.7297 -1.7829 0.9281
-9.4978 15.9102 -1.7789 0.9282
-10.8544 14.9727 -1.7754 0.9284
-12.1233 13.9242 -1.7725 0.9285
-15.3217 10.1957 -1.7669 0.9287
-6.6602 -3.4839 -0.7216 0.9702
-5.7179 -5.3186 -0.7497 0.9691
-4.7898 -5.3256 -0.6877 0.9716
-3.9987 -5.3329 -0.6399 0.9736
-3.3054 -5.3397 -0.6029 0.9751
-2.6849 -5.3491 -0.5746 0.9762
-2.1157 -5.3574 -0.5530 0.9771
-1.0772 -5.3714 -0.5260 0.9782
-0.1062 -5.3813 -0.5167 0.9786
1.3635 -5.3952 -0.5343 0.9779
9.6654 -17.0859 -1.8846 0.9241
-15.1727 5.7497 -1.9274 0.9367
-16.1819 1.5411 -1.9309 0.9366
-16.2731 0.0954 -1.9330 0.9366
-16.2392 -1.3548 -1.9357 0.9365
-15.7962 -4.2261 -1.9424 0.9363
-7.4646 -5.3041 -1.0877 0.9638
-4.3642 -5.3339 -0.8186 0.9726
-0.9211 -6.0462 -0.7265 0.9757
-0.3344 -5.3789 -0.6402 0.9785
0.1454 -5.3835 -0.6397 0.9785
0.6283 -5.3881 -0.6444 0.9784
1.6359 -5.3976 -0.6700 0.9775
5.9534 -14.7607 -1.8906 0.9379
8.5090 -13.5253 -1.8981 0.9377
10.8041 -11.8387 -1.9038 0.9375
12.2947 -11.2706 -1.9812 0.9350
14.7034 -9.2960 -2.0664 0.9323
15.4766 -7.9531 -2.0669 0.9323
16.1228 -6.5445 -2.0669 0.9323
17.3435 -0.5071 -2.0610 0.9325
17.2957 1.0366 -2.0582 0.9326
16.3160 5.5365 -2.0467 0.9330
15.7225 6.9502 -2.0420 0.9331
13.8595 7.6676 -1.8815 0.9382
12.6928 8.5799 -1.8199 0.9402
12.2147 9.9486 -1.8713 0.9385
11.2484 10.9641 -1.8659 0.9387
10.1977 11.8858 -1.8603 0.9389
9.0720 12.7071 -1.8546 0.9390
7.8809 13.4222 -1.8489 0.9392
6.6347 14.0264 -1.8431 0.9394
5.3438 14.5158 -1.8374 0.9396
-5.3313 14.1638 -1.7977 0.9409
-6.5570 13.6056 -1.7940 0.9410
-7.7274 12.9446 -1.7908 0.9411
-9.8701 11.3364 -1.7855 0.9412
-14.2542 7.7513 -1.9274 0.9367
-15.4045 5.1028 -1.9276 0.9367
-16.0843 2.2944 -1.9299 0.9367
-16.2726 -0.5941 -1.9342 0.9365
-15.6179 -4.8957 -1.9442 0.9362
-6.5847 -4.2303 -0.9297 0.9690
-6.8800 -5.3411 -1.0346 0.9655
-4.0016 -5.3368 -0.7923 0.9735
-1.5838 -5.3658 -0.6646 0.9777
-0.8429 -7.7144 -0.9218 0.9692
-0.1062 -5.3811 -0.6393 0.9786
1.3634 -5.3950 -0.6610 0.9778
7.8602 -13.8949 -1.8963 0.9377
9.0813 -13.1635 -1.8996 0.9376
13.2576 -11.1580 -2.0584 0.9326
15.8000 -7.2910 -2.0670 0.9323
16.3837 -5.8554 -2.0667 0.9323
-12.7899 4.8467 -1.9379 0.9462
-13.1742 3.6906 -1.9385 0.9462
-13.4571 2.5050 -1.9395 0.9462
-13.6367 1.2987 -1.9409 0.9462
-13.5421 -2.3570 -1.9476 0.9460
-12.9521 -4.7354 -1.9540 0.9458
-6.5650 -3.0875 -1.0279 0.9711
-6.5993 -4.6892 -1.1471 0.9678
-5.2187 -5.3302 -1.0569 0.9703
-4.3674 -5.3379 -0.9772 0.9725
-2.9748 -5.3489 -0.8672 0.9756
-1.8330 -5.3625 -0.8030 0.9774
-0.3344 -5.3787 -0.7636 0.9785
0.1454 -5.3833 -0.7630 0.9785
0.6283 -5.3878 -0.7686 0.9783
1.1223 -5.3925 -0.7804 0.9780
4.9700 -12.3227 -1.8827 0.9477
6.0573 -11.8523 -1.8859 0.9476
7.0989 -11.2839 -1.8889 0.9476
8.5466 -11.2274 -1.9993 0.9446
10.6755 -9.7863 -2.0520 0.9432
12.2555 -7.7483 -2.0544 0.9431
13.4379 -5.4547 -2.0549 0.9431
14.4622 -0.4229 -2.0500 0.9432
14.4257 0.8646 -2.0476 0.9433
14.2720 2.1417 -2.0448 0.9434
14.0029 3.3978 -2.0416 0.9434
13.1307 5.8045 -2.0342 0.9437
12.5362 6.9354 -2.0299 0.9438
11.3415 7.6665 -1.9397 0.9462
10.2144 8.3194 -1.8666 0.9482
9.4108 9.1729 -1.8621 0.9483
8.5360 9.9490 -1.8574 0.9484
7.5974 10.6417 -1.8526 0.9485
4.4819 12.1748 -1.8382 0.9489
1.0990 12.8284 -1.8243 0.9493
-1.1866 12.7603 -1.8158 0.9495
-6.5078 10.9016 -1.7989 0.9500
-8.3163 9.5516 -1.7944 0.9501
-12.0157 6.5340 -1.9379 0.9462
-12.5487 5.4387 -1.9378 0.9462
-13.3215 3.1302 -1.9389 0.9462
-13.5555 1.9337 -1.9401 0.9462
-6.9801 -2.8926 -1.0706 0.9699
-6.5079 -3.4042 -1.0406 0.9708
-6.5051 -4.1791 -1.0955 0.9692
-6.8796 -5.3408 -1.2340 0.9654
-5.7253 -5.3255 -1.1079 0.9689
-3.3096 -5.3464 -0.8909 0.9749
-2.6862 -5.3515 -0.8484 0.9761
0.8612 -5.3900 -0.7734 0.9782
1.3634 -5.3948 -0.7884 0.9778
4.3845 -12.5291 -1.8808 0.9478
5.4920 -12.1115 -1.8843 0.9477
9.2130 -11.0949 -2.0434 0.9434
11.0843 -9.3289 -2.0527 0.9432
11.8775 -8.3107 -2.0540 0.9431
13.1688 -6.0768 -2.0550 0.9431
13.6556 -4.8805 -2.0547 0.9431
-11.6859 -2.0340 -1.9541 0.9531
-11.4738 -3.0697 -1.9567 0.9530
-11.1718 -4.0845 -1.9596 0.9529
-6.5259 -3.0691 -1.1880 0.9712
-2.3827 -5.3576 -0.9660 0.9765
-1.3286 -5.4228 -0.9198 0.9776
-0.8269 -5.4278 -0.9045 0.9780
0.1454 -5.3831 -0.8871 0.9784
1.1222 -5.3923 -0.9074 0.9779
1.6358 -5.3971 -0.9291 0.9774
6.5868 -10.4699 -2.0377 0.9511
7.5010 -9.8538 -2.0401 0.9510
9.1451 -8.3833 -2.0438 0.9510
9.8607 -7.5409 -2.0450 0.9509
11.0478 -5.6773 -2.0463 0.9509
11.8767 -3.6285 -2.0458 0.9509
12.1474 -2.5563 -2.0450 0.9509
12.2321 1.8356 -2.0377 0.9511
11.6798 3.9633 -2.0319 0.9512
11.2623 4.9786 -2.0285 0.9513
9.4206 7.6729 -2.0016 0.9519
6.5294 9.1457 -1.8512 0.9555
5.6771 9.6687 -1.8471 0.9556
3.8561 10.4747 -1.8388 0.9558
1.9299 10.9440 -1.8307 0.9559
0.9465 11.0487 -1.8268 0.9560
-0.0402 11.0663 -1.8231 0.9561
-1.9933 10.8423 -1.8161 0.9563
-2.9449 10.6033 -1.8129 0.9564
-5.6158 9.4074 -1.8049 0.9566
-8.1811 7.8593 -1.8689 0.9551
-9.8350 6.5446 -1.9461 0.9532
-10.8361 4.6964 -1.9456 0.9533
-11.2126 3.7142 -1.9459 0.9532
-11.5025 2.7028 -1.9465 0.9532
-11.7036 1.6695 -1.9476 0.9532
-11.7607 -1.4848 -1.9528 0.9531
-11.5964 -2.5284 -1.9553 0.9530
-6.8267 -2.8290 -1.2174 0.9705
-5.7267 -5.3267 -1.2884 0.9688
-4.7986 -5.3355 -1.1822 0.9713
-4.0061 -5.3428 -1.1001 0.9733
-3.3114 -5.3493 -1.0364 0.9748
-2.6880 -5.3551 -0.9871 0.9760
-2.1166 -5.3598 -0.9493 0.9769
-1.5840 -5.3666 -0.9218 0.9776
-1.0880 -5.4252 -0.9115 0.9778
-0.5933 -5.4301 -0.8999 0.9781
-0.1062 -5.3807 -0.8866 0.9784
0.8612 -5.3898 -0.8992 0.9781
1.3633 -5.3946 -0.9166 0.9777
3.9149 -11.1870 -1.9525 0.9531
6.0856 -10.7578 -2.0361 0.9511
7.0282 -10.1875 -2.0389 0.9511
7.9153 -9.5321 -2.0411 0.9510
10.1733 -7.1182 -2.0455 0.9509
10.7696 -6.1868 -2.0461 0.9509
11.2786 -5.2046 -2.0463 0.9509
-10.0003 2.8015 -1.9520 0.9586
-10.3756 -0.8656 -1.9570 0.9585
-10.0800 -2.6968 -1.9613 0.9584
-9.8129 -3.5876 -1.9638 0.9584
-6.4456 -3.7653 -1.4031 0.9701
-6.4266 -4.5666 -1.4819 0.9684
-5.2198 -5.3314 -1.4024 0.9701
-4.3688 -5.3396 -1.2968 0.9723
-2.9771 -5.3530 -1.1513 0.9754
-1.3286 -5.4226 -1.0494 0.9775
-0.8269 -5.4276 -1.0319 0.9779
-0.3612 -5.8094 -1.0940 0.9766
0.1454 -5.3829 -1.0121 0.9783
0.6283 -5.3874 -1.0195 0.9782
1.1222 -5.3921 -1.0352 0.9778
1.6357 -5.3969 -1.0600 0.9773
4.0344 -10.0028 -2.0273 0.9571
4.9148 -9.6167 -2.0299 0.9570
6.5558 -8.6122 -2.0344 0.9569
7.3024 -8.0016 -2.0362 0.9569
8.6156 -6.5887 -2.0387 0.9568
9.1709 -5.7981 -2.0394 0.9568
9.6521 -4.9600 -2.0397 0.9568
10.6136 -2.2335 -2.0386 0.9568
10.8280 -0.3166 -2.0361 0.9569
10.8038 0.6475 -2.0343 0.9569
10.4949 2.5465 -2.0299 0.9570
9.4091 5.2054 -2.0211 0.9572
8.8939 6.0120 -2.0178 0.9572
8.3091 6.7676 -2.0143 0.9573
6.6195 7.7153 -1.9108 0.9595
3.3805 9.1829 -1.8393 0.9610
2.5451 9.4288 -1.8357 0.9610
1.6928 9.5995 -1.8322 0.9611
0.8305 9.6939 -1.8287 0.9612
-0.8977 9.6534 -1.8223 0.9613
-1.7501 9.5196 -1.8193 0.9614
-3.3996 9.0319 -1.8139 0.9615
-4.1843 8.6823 -1.8116 0.9615
-4.9345 8.2659 -1.8095 0.9616
-7.4963 7.2014 -1.9538 0.9586
-8.1028 6.5023 -1.9528 0.9586
-9.5263 4.1288 -1.9515 0.9586
-10.3840 0.5467 -1.9545 0.9586
-10.3345 -1.3047 -1.9579 0.9585
-9.9628 -3.1230 -1.9625 0.9584
-6.4503 -4.1439 -1.4410 0.9693
-6.8787 -5.3401 -1.6368 0.9652
-4.7986 -5.3354 -1.3488 0.9712
-4.0064 -5.3431 -1.2553 0.9732
-1.6559 -5.6101 -1.0995 0.9765
-1.0880 -5.4250 -1.0400 0.9777
-0.5933 -5.4299 -1.0267 0.9780
-0.1062 -5.3805 -1.0115 0.9783
0.3741 -5.3850 -1.0146 0.9783
6.9175 -8.3305 -2.0353 0.9569
7.6373 -7.6880 -2.0369 0.9569
9.4091 -5.4052 -2.0396 0.9568
10.2182 -3.6519 -2.0396 0.9568
-8.6543 3.2795 -1.9563 0.9629
-8.9135 2.4970 -1.9567 0.9629
-9.2454 -0.7713 -1.9611 0.9628
-6.4808 -3.0479 -1.5139 0.9711
-6.4274 -4.5671 -1.6667 0.9683
-6.2592 -5.3461 -1.7400 0.9669
-5.9461 -7.2674 -1.9848 0.9623
-2.9769 -5.3528 -1.2947 0.9753
-1.3285 -5.4223 -1.1801 0.9774
0.6282 -5.3872 -1.1465 0.9781
1.1221 -5.3919 -1.1641 0.9777
5.8166 -7.6412 -2.0299 0.9615
6.4784 -7.0988 -2.0315 0.9615
8.5613 -4.3995 -2.0346 0.9614
9.4147 -1.9812 -2.0337 0.9614
9.4879 1.4238 -2.0280 0.9615
9.3139 2.2600 -2.0259 0.9616
8.3543 4.6219 -2.0182 0.9617
7.8984 5.3390 -2.0152 0.9618
7.3805 6.0113 -2.0121 0.9618
6.8054 6.6334 -2.0088 0.9619
4.5429 7.7371 -1.8965 0.9640
3.7278 7.8809 -1.8428 0.9650
3.0066 8.1671 -1.8396 0.9650
-1.5584 8.4767 -1.8218 0.9654
-2.3033 8.2931 -1.8193 0.9654
-3.0282 8.0450 -1.8170 0.9655
-3.7710 7.8247 -1.8360 0.9651
-4.6663 7.8168 -1.9243 0.9635
-5.4390 7.5027 -1.9588 0.9628
-6.0872 6.9915 -1.9595 0.9628
-7.2219 5.7954 -1.9573 0.9629
-7.7063 5.1281 -1.9566 0.9629
-8.1304 4.4212 -1.9563 0.9629
-8.4912 3.6801 -1.9562 0.9629
-8.7860 2.9104 -1.9564 0.9629
-9.0125 2.1177 -1.9569 0.9629
-9.1690 1.3079 -1.9578 0.9628
-9.2542 0.4872 -1.9589 0.9628
-9.2674 -0.3383 -1.9603 0.9628
-9.0772 -1.9792 -1.9638 0.9627
-6.6629 -2.7611 -1.5246 0.9709
-6.8783 -5.3397 -1.8406 0.9650
-6.2736 -6.9755 -1.9831 0.9624
-4.0062 -5.3428 -1.4116 0.9731
-3.3115 -5.3496 -1.3299 0.9746
-2.6882 -5.3556 -1.2667 0.9758
-2.1171 -5.3611 -1.2184 0.9767
-1.6897 -5.7247 -1.2617 0.9759
-0.5933 -5.4297 -1.1546 0.9779
0.8611 -5.3894 -1.1537 0.9779
1.3632 -5.3941 -1.1761 0.9775
3.1601 -9.0302 -2.0223 0.9616
3.9558 -8.7238 -2.0248 0.9616
4.7215 -8.3465 -2.0270 0.9616
6.1373 -7.3909 -2.0307 0.9615
7.8843 -5.5166 -2.0340 0.9614
8.7400 -4.0331 -2.0347 0.9614
-7.7987 2.9553 -1.9601 0.9663
-8.0322 2.2501 -1.9604 0.9663
-8.2031 1.5270 -1.9610 0.9663
-8.3101 0.7914 -1.9619 0.9663
-8.3524 0.0489 -1.9630 0.9663
-7.8723 -2.8781 -1.9699 0.9661
-6.5313 -3.0716 -1.6963 0.9708
-6.4484 -3.7669 -1.7552 0.9698
-6.4282 -4.5677 -1.8533 0.9681
-6.4060 -5.4715 -1.9800 0.9660
-5.3506 -6.5395 -1.9858 0.9659
-4.1195 -7.4072 -1.9920 0.9658
-2.3830 -5.3583 -1.3782 0.9762
-1.8334 -5.3636 -1.3322 0.9770
-1.3285 -5.4221 -1.3120 0.9773
-0.8268 -5.4271 -1.2902 0.9777
0.1454 -5.3824 -1.2655 0.9781
0.6282 -5.3870 -1.2746 0.9780
1.1221 -5.3916 -1.2943 0.9776
1.6355 -5.3964 -1.3253 0.9771
5.2222 -6.8603 -2.0263 0.9652
8.0054 -3.2495 -2.0305 0.9651
8.2616 -2.5240 -2.0303 0.9651
8.6238 -0.2521 -2.0277 0.9652
8.6061 0.5158 -2.0263 0.9652
8.5191 1.2784 -2.0246 0.9652
8.1415 2.7627 -2.0206 0.9653
7.8544 3.4721 -2.0183 0.9653
7.5050 4.1520 -2.0158 0.9654
6.6322 5.4018 -2.0103 0.9655
4.3028 7.3282 -1.9972 0.9657
3.6183 7.6494 -1.9888 0.9658
2.8511 7.7447 -1.9396 0.9667
2.0949 7.7609 -1.8893 0.9675
1.3709 7.7738 -1.8552 0.9681
0.6670 7.7858 -1.8365 0.9684
-0.0283 7.7947 -1.8319 0.9685
-2.9340 7.7948 -1.9574 0.9664
-4.2877 7.1826 -1.9660 0.9662
-5.4846 6.2993 -1.9630 0.9663
-6.9443 4.6210 -1.9604 0.9663
-7.3267 3.9842 -1.9601 0.9663
-7.6519 3.3164 -1.9600 0.9663
-8.2620 1.1786 -1.9614 0.9663
-8.2957 -1.0473 -1.9652 0.9662
-7.9937 -2.5058 -1.9688 0.9662
-7.0732 -4.5441 -1.9759 0.9660
-6.6498 -5.1624 -1.9785 0.9660
-5.6458 -6.2774 -1.9843 0.9659
-4.4575 -7.2007 -1.9904 0.9658
-2.6881 -5.3553 -1.4083 0.9757
-2.1170 -5.3608 -1.3546 0.9766
-1.0879 -5.4245 -1.3003 0.9775
-0.1062 -5.3800 -1.2647 0.9781
0.8611 -5.3892 -1.2826 0.9778
1.3631 -5.3939 -1.3075 0.9774
2.8382 -8.1104 -2.0195 0.9653
3.5525 -7.8343 -2.0217 0.9653
4.2396 -7.4946 -2.0237 0.9652
4.8939 -7.0939 -2.0255 0.9652
5.5099 -6.6353 -2.0270 0.9652
6.6061 -5.5599 -2.0293 0.9651
-7.4576 1.3882 -1.9641 0.9691
-7.5927 0.0445 -1.9659 0.9691
-7.1539 -2.6155 -1.9722 0.9690
-6.5320 -3.0720 -1.8690 0.9706
-6.5913 -3.8504 -1.9765 0.9690
-6.2301 -4.4269 -1.9788 0.9689
-5.3606 -5.4751 -1.9839 0.9688
-3.1311 -7.0406 -1.9951 0.9687
-1.3284 -5.4219 -1.4453 0.9772
-0.8268 -5.4269 -1.4213 0.9776
-0.3377 -5.4318 -1.4091 0.9778
0.1454 -5.3822 -1.3941 0.9780
0.6282 -5.3868 -1.4042 0.9778
2.2586 -7.4521 -2.0161 0.9683
2.9157 -7.2291 -2.0182 0.9683
3.5507 -6.9475 -2.0202 0.9683
4.1582 -6.6097 -2.0219 0.9682
6.2169 -4.7543 -2.0264 0.9682
6.6169 -4.1834 -2.0269 0.9682
7.4868 -2.2873 -2.0269 0.9682
7.7687 -0.9235 -2.0256 0.9682
7.8160 -0.2285 -2.0246 0.9682
7.8005 0.4675 -2.0233 0.9682
7.5821 1.8398 -2.0201 0.9683
7.1218 3.1482 -2.0161 0.9683
6.8057 3.7652 -2.0138 0.9684
5.5487 5.4084 -2.0062 0.9685
3.9069 6.6539 -1.9978 0.9686
3.2947 6.9652 -1.9950 0.9687
-1.3783 7.4968 -1.9736 0.9690
-2.0402 7.3460 -1.9740 0.9690
-3.8972 6.5284 -1.9686 0.9691
-4.4593 6.1512 -1.9671 0.9691
-4.9857 5.7264 -1.9659 0.9691
-5.4726 5.2573 -1.9649 0.9691
-5.9163 4.7476 -1.9641 0.9691
-7.5801 0.3991 -1.9653 0.9691
-7.5404 -0.9520 -1.9678 0.9691
-7.2646 -2.2772 -1.9712 0.9690
-7.0402 -2.9175 -1.9731 0.9690
-6.7600 -3.5361 -1.9753 0.9690
-6.4260 -4.1283 -1.9776 0.9689
-5.6066 -5.2150 -1.9826 0.9689
-5.1273 -5.7008 -1.9852 0.9688
-4.6060 -6.1429 -1.9879 0.9688
-2.8322 -7.1717 -1.9964 0.9686
-2.1859 -7.4058 -1.9993 0.9686
-1.0878 -5.4243 -1.4324 0.9774
-0.5932 -5.4293 -1.4141 0.9777
2.5733 -7.3535 -2.0172 0.9683
3.2206 -7.1024 -2.0192 0.9683
4.4360 -6.4300 -2.0226 0.9682
4.9939 -6.0139 -2.0240 0.9682
5.5123 -5.5489 -2.0251 0.9682
6.4135 -4.4875 -2.0267 0.9682
6.7886 -3.8998 -2.0271 0.9682
7.3724 -2.6348 -2.0271 0.9682
-6.4936 2.4607 -1.9659 0.9715
-6.8297 1.2714 -1.9667 0.9715
-6.8587 -1.1938 -1.9708 0.9715
-6.7305 -1.8007 -1.9724 0.9715
-6.5493 -2.3945 -1.9741 0.9714
-6.0332 -3.5244 -1.9780 0.9714
-4.9051 -5.0099 -1.9849 0.9713
-4.4454 -5.4332 -1.9873 0.9712
-3.9494 -5.8146 -1.9899 0.9712
-3.4208 -6.1509 -1.9924 0.9712
-2.8637 -6.4392 -1.9950 0.9711
-0.3377 -5.4316 -1.5406 0.9776
1.4483 -6.9589 -2.0122 0.9709
2.0638 -6.8094 -2.0143 0.9709
2.6640 -6.6051 -2.0162 0.9708
3.2439 -6.3473 -2.0179 0.9708
3.7987 -6.0382 -2.0195 0.9708
4.8148 -5.2758 -2.0220 0.9707
5.2675 -4.8287 -2.0230 0.9707
5.6783 -4.3424 -2.0237 0.9707
6.0435 -3.8209 -2.0241 0.9707
6.3602 -3.2684 -2.0244 0.9707
6.8380 -2.0891 -2.0241 0.9707
6.9270 1.6808 -2.0179 0.9708
6.7442 2.2885 -2.0162 0.9708
5.4987 4.4786 -2.0076 0.9709
4.1053 5.7503 -2.0002 0.9711
3.5728 6.0849 -1.9976 0.9711
3.0133 6.3703 -1.9950 0.9711
2.4313 6.6045 -1.9924 0.9712
1.8317 6.7859 -1.9898 0.9712
1.2191 6.9131 -1.9872 0.9712
0.5984 6.9855 -1.9848 0.9713
-0.0254 7.0026 -1.9824 0.9713
-0.6476 6.9645 -1.9801 0.9713
-1.2633 6.8717 -1.9779 0.9714
-2.4564 6.5261 -1.9740 0.9714
-4.0833 5.6325 -1.9695 0.9715
-4.5656 5.2438 -1.9683 0.9715
-5.0116 4.8145 -1.9674 0.9715
-5.4182 4.3479 -1.9666 0.9715
-5.7820 3.8476 -1.9661 0.9715
-6.3714 2.7614 -1.9658 0.9715
-6.5923 2.1837 -1.9660 0.9715
-6.9415 0.3655 -1.9678 0.9715
-6.9044 -0.8717 -1.9701 0.9715
-6.8044 -1.4836 -1.9715 0.9715
-6.6509 -2.0849 -1.9732 0.9714
-6.4449 -2.6708 -1.9750 0.9714
-5.5282 -4.2917 -1.9812 0.9713
-5.1305 -4.7722 -1.9836 0.9713
-4.6913 -5.2161 -1.9860 0.9713
-3.7019 -5.9802 -1.9911 0.9712
-0.5932 -5.4290 -1.5461 0.9776
0.4917 -7.0789 -2.0088 0.9709
1.1209 -7.0150 -2.0111 0.9709
2.3513 -6.7191 -2.0152 0.9708
4.5617 -5.4935 -2.0214 0.9708
5.0350 -5.0685 -2.0225 0.9707
5.4682 -4.6022 -2.0233 0.9707
6.2003 -3.5618 -2.0243 0.9707
6.4930 -2.9962 -2.0244 0.9707
-5.9836 2.2675 -1.9681 0.9736
-6.2931 1.1715 -1.9689 0.9736
-6.3745 0.6071 -1.9695 0.9736
-5.8178 -2.7361 -1.9775 0.9735
-5.5566 -3.2459 -1.9793 0.9734
-4.9034 -4.1881 -1.9834 0.9734
-4.0927 -5.0021 -1.9879 0.9733
-3.6357 -5.3527 -1.9902 0.9733
-3.1487 -5.6617 -1.9926 0.9733
-1.3283 -5.4214 -1.7168 0.9769
-0.8267 -5.4265 -1.6883 0.9773
-0.4044 -6.5043 -2.0044 0.9731
0.1761 -6.5217 -2.0067 0.9731
0.7565 -6.4871 -2.0088 0.9730
1.3320 -6.4005 -2.0108 0.9730
1.8980 -6.2625 -2.0127 0.9730
3.4929 -5.5520 -2.0175 0.9729
3.9754 -5.2224 -2.0188 0.9729
4.4267 -4.8506 -2.0198 0.9729
6.0911 -2.4725 -2.0220 0.9729
6.2863 -1.9205 -2.0217 0.9729
6.4308 -1.3533 -2.0213 0.9729
6.5515 0.3927 -2.0187 0.9729
6.4866 0.9734 -2.0175 0.9729
6.3697 1.5456 -2.0160 0.9729
5.7203 3.1647 -2.0108 0.9730
5.4106 3.6574 -2.0087 0.9730
4.6666 4.5486 -2.0044 0.9731
3.7777 5.2914 -1.9997 0.9732
2.7734 5.8631 -1.9949 0.9732
2.2380 6.0793 -1.9925 0.9733
1.6862 6.2469 -1.9902 0.9733
0.5510 6.4319 -1.9856 0.9733
-1.1635 6.3289 -1.9793 0.9734
-3.2874 5.5069 -1.9727 0.9735
-3.7620 5.1894 -1.9714 0.9735
-4.2066 4.8314 -1.9704 0.9735
-4.6177 4.4361 -1.9695 0.9736
-5.3278 3.5453 -1.9684 0.9736
-5.6214 3.0568 -1.9681 0.9736
-5.8709 2.5445 -1.9681 0.9736
-6.0745 2.0122 -1.9682 0.9736
-6.2306 1.4640 -1.9686 0.9736
-6.3380 0.9041 -1.9692 0.9736
-6.3958 0.3367 -1.9699 0.9736
-6.3610 -0.8031 -1.9720 0.9735
-6.2685 -1.3668 -1.9734 0.9735
-5.9365 -2.4601 -1.9765 0.9735
-4.7242 -4.3942 -1.9845 0.9734
-3.8794 -5.1738 -1.9890 0.9733
-3.4077 -5.5049 -1.9914 0.9733
-2.9079 -5.7933 -1.9938 0.9732
-2.3838 -6.0363 -1.9962 0.9732
1.0310 -6.4523 -2.0098 0.9730
2.7058 -5.9672 -2.0153 0.9730
3.7259 -5.4008 -2.0181 0.9729
4.1941 -5.0508 -2.0193 0.9729
4.6290 -4.6598 -2.0202 0.9729
5.3851 -3.7680 -2.0216 0.9729
6.1901 -2.2123 -2.0219 0.9729
-5.5422 2.1002 -1.9701 0.9753
-5.8287 1.0850 -1.9708 0.9753
-5.9040 0.5623 -1.9714 0.9753
-5.9330 0.0348 -1.9722 0.9753
-5.5863 -2.0424 -1.9771 0.9752
-5.3868 -2.5334 -1.9787 0.9752
-4.1804 -4.2698 -1.9863 0.9751
-3.7880 -4.6297 -1.9884 0.9751
-2.9138 -5.2393 -1.9928 0.9750
-2.4388 -5.4838 -1.9950 0.9750
-0.8267 -5.4262 -1.8245 0.9771
-0.3740 -6.0163 -2.0037 0.9749
0.1629 -6.0319 -2.0058 0.9749
0.6996 -5.9994 -2.0077 0.9749
2.2652 -5.6162 -2.0130 0.9748
3.6752 -4.8280 -2.0169 0.9747
5.1357 -3.2469 -2.0197 0.9747
5.6304 -2.2855 -2.0199 0.9747
5.8108 -1.7753 -2.0197 0.9747
5.8892 1.4290 -2.0144 0.9748
5.2899 2.9266 -2.0096 0.9748
5.0039 3.3825 -2.0077 0.9749
4.6785 3.8105 -2.0057 0.9749
3.4949 4.8953 -1.9993 0.9750
3.0421 5.1811 -1.9971 0.9750
2.5662 5.4252 -1.9949 0.9750
2.0710 5.6257 -1.9927 0.9750
1.0388 5.8908 -1.9883 0.9751
0.5101 5.9535 -1.9862 0.9751
-0.0217 5.9692 -1.9842 0.9752
-1.0773 5.8596 -1.9804 0.9752
-1.5929 5.7355 -1.9787 0.9752
-2.5803 5.3540 -1.9756 0.9753
-3.0444 5.0998 -1.9743 0.9753
-3.4841 4.8059 -1.9732 0.9753
-4.2769 4.1086 -1.9714 0.9753
-4.9347 3.2838 -1.9703 0.9753
-5.2067 2.8313 -1.9701 0.9753
-5.9236 0.3119 -1.9718 0.9753
-5.9305 -0.2165 -1.9726 0.9753
-5.8050 -1.2657 -1.9749 0.9753
-5.6733 -1.7784 -1.9763 0.9752
-5.4969 -2.2779 -1.9779 0.9752
-5.2768 -2.7603 -1.9795 0.9752
-5.0149 -3.2218 -1.9813 0.9752
-4.7128 -3.6587 -1.9832 0.9752
-3.9979 -4.4452 -1.9873 0.9751
-3.5904 -4.7884 -1.9894 0.9751
-2.6908 -5.3607 -1.9938 0.9750
-2.2056 -5.5851 -1.9960 0.9750
-1.0877 -5.4236 -1.8387 0.9770
0.4183 -6.0224 -2.0067 0.9749
0.9534 -5.9670 -2.0086 0.9749
1.9994 -5.7135 -2.0121 0.9748
3.4446 -4.9930 -2.0164 0.9748
4.2792 -4.3076 -2.0183 0.9747
4.6471 -3.9111 -2.0190 0.9747
5.5176 -2.5461 -2.0199 0.9747
-5.3101 1.4875 -1.9720 0.9768
-5.4225 1.0094 -1.9724 0.9768
-5.5193 0.0323 -1.9738 0.9768
-5.5028 -0.4591 -1.9747 0.9768
-5.4431 -0.9474 -1.9758 0.9768
-5.3405 -1.4288 -1.9770 0.9768
-4.7844 -2.7948 -1.9815 0.9767
-4.5206 -3.2122 -1.9832 0.9767
-4.2208 -3.6050 -1.9850 0.9767
-3.8870 -3.9700 -1.9869 0.9767
-3.1280 -4.6053 -1.9909 0.9766
-2.7086 -4.8703 -1.9929 0.9766
-2.2669 -5.0973 -1.9950 0.9766
-1.3303 -5.4296 -1.9991 0.9765
-0.8266 -5.4260 -1.9628 0.9770
-0.3476 -5.5905 -2.0031 0.9765
0.6500 -5.5740 -2.0068 0.9764
1.6304 -5.3795 -2.0102 0.9764
2.1042 -5.2170 -2.0117 0.9764
2.9994 -4.7676 -2.0143 0.9764
3.4135 -4.4843 -2.0154 0.9763
5.0194 -2.5794 -2.0181 0.9763
5.2290 -2.1225 -2.0181 0.9763
5.3966 -1.6487 -2.0179 0.9763
5.5208 -1.1618 -2.0175 0.9763
5.6007 -0.6658 -2.0170 0.9763
5.6357 -0.1648 -2.0162 0.9763
5.6255 0.3372 -2.0153 0.9763
5.5702 0.8359 -2.0142 0.9764
5.4704 1.3274 -2.0130 0.9764
5.3269 1.8076 -2.0116 0.9764
4.9145 2.7189 -2.0085 0.9764
4.6491 3.1427 -2.0068 0.9764
4.3471 3.5406 -2.0049 0.9765
3.6436 4.2468 -2.0010 0.9765
3.2480 4.5495 -1.9990 0.9765
2.8275 4.8155 -1.9970 0.9766
1.9252 5.2296 -1.9928 0.9766
0.4742 5.5356 -1.9868 0.9767
-0.0202 5.5506 -1.9849 0.9767
-0.5135 5.5217 -1.9831 0.9767
-1.4815 5.3343 -1.9798 0.9768
-2.8319 4.7439 -1.9757 0.9768
-3.2410 4.4706 -1.9747 0.9768
-4.5909 3.0550 -1.9720 0.9768
-5.0590 2.1926 -1.9717 0.9768
-5.2344 1.7339 -1.9719 0.9768
-5.3688 1.2615 -1.9722 0.9768
-5.5106 0.2901 -1.9733 0.9768
-5.3997 -1.1773 -1.9763 0.9768
-4.6636 -2.9961 -1.9823 0.9767
-4.3825 -3.4022 -1.9840 0.9767
-3.7171 -4.1330 -1.9878 0.9767
-2.9317 -4.7359 -1.9918 0.9766
-1.0998 -5.4837 -2.0000 0.9765
-0.6081 -5.5653 -2.0020 0.9765
0.3887 -5.5956 -2.0059 0.9765
0.8858 -5.5438 -2.0076 0.9764
1.3767 -5.4476 -2.0093 0.9764
1.8574 -5.3076 -2.0109 0.9764
2.3239 -5.1250 -2.0123 0.9764
2.7725 -4.9011 -2.0137 0.9764
3.1994 -4.6376 -2.0148 0.9763
3.9743 -4.0007 -2.0166 0.9763
5.1241 -2.3646 -2.0181 0.9763
-4.8152 1.8247 -1.9733 0.9782
-5.0639 0.9426 -1.9739 0.9782
-2.3042 -0.1922 -0.8861 0.9901
-4.9866 -1.3341 -1.9782 0.9781
-4.8512 -1.7736 -1.9794 0.9781
-4.6775 -2.1998 -1.9808 0.9781
-3.2871 -4.0175 -1.9892 0.9780
-2.9193 -4.2981 -1.9911 0.9780
-2.1154 -4.7566 -1.9949 0.9779
-1.2412 -5.0660 -1.9988 0.9779
-0.7863 -5.1612 -2.0007 0.9779
1.5207 -5.0174 -2.0091 0.9778
1.9624 -4.8656 -2.0105 0.9778
2.3891 -4.6747 -2.0118 0.9778
2.7971 -4.4461 -2.0130 0.9778
3.5441 -3.8835 -2.0148 0.9777
4.4473 -2.8117 -2.0163 0.9777
4.8757 -1.9791 -2.0165 0.9777
5.0320 -1.5373 -2.0163 0.9777
5.1479 -1.0833 -2.0160 0.9777
5.2225 -0.6208 -2.0155 0.9777
5.2553 -0.1536 -2.0148 0.9777
5.1945 0.7795 -2.0129 0.9778
4.9681 1.6858 -2.0105 0.9778
3.7419 3.6473 -2.0025 0.9779
3.3994 3.9621 -2.0006 0.9779
3.0305 4.2449 -1.9987 0.9779
2.2259 4.7057 -1.9949 0.9779
1.7966 4.8804 -1.9930 0.9780
0.9015 5.1118 -1.9892 0.9780
-0.0188 5.1813 -1.9856 0.9780
-1.3832 4.9803 -1.9808 0.9781
-2.6443 4.4296 -1.9770 0.9781
-3.3844 3.8872 -1.9751 0.9782
-3.7155 3.5694 -1.9744 0.9782
-4.7245 2.0476 -1.9733 0.9782
-5.0137 1.1781 -1.9737 0.9782
-5.0999 0.7275 -1.9741 0.9782
-2.3017 0.1212 -0.8833 0.9902
-2.2985 -0.0839 -0.8814 0.9902
-4.9271 -1.5445 -1.9787 0.9781
-4.7733 -1.9781 -1.9801 0.9781
-4.5818 -2.3967 -1.9815 0.9781
-4.3538 -2.7970 -1.9831 0.9781
-3.7955 -3.5304 -1.9865 0.9780
-3.1154 -4.1549 -1.9901 0.9780
-2.3341 -4.6502 -1.9939 0.9780
-1.4758 -4.9999 -1.9978 0.9779
0.8262 -5.1710 -2.0068 0.9778
1.7323 -4.9502 -2.0098 0.9778
3.3581 -4.0440 -2.0144 0.9777
4.3108 -3.0162 -2.0162 0.9777
4.7779 -2.2048 -2.0165 0.9777
-4.5117 1.7097 -1.9747 0.9794
-1.9916 0.0117 -0.8151 0.9914
-2.0141 -0.1680 -0.8272 0.9913
-2.0511 -0.3570 -0.8521 0.9910
-4.5446 -1.6615 -1.9804 0.9793
-4.1839 -2.4441 -1.9831 0.9793
-3.6902 -3.1518 -1.9862 0.9792
-2.7338 -4.0249 -1.9913 0.9792
-2.3670 -4.2560 -1.9931 0.9792
-1.5780 -4.6165 -1.9967 0.9791
-0.7361 -4.8316 -2.0003 0.9791
-0.3035 -4.8822 -2.0020 0.9791
0.9990 -4.8004 -2.0068 0.9790
1.4232 -4.6958 -2.0082 0.9790
1.8365 -4.5535 -2.0095 0.9790
2.2357 -4.3747 -2.0107 0.9790
2.9787 -3.9130 -2.0127 0.9790
3.3163 -3.6339 -2.0135 0.9790
4.5621 -1.8518 -2.0151 0.9789
4.8169 -1.0137 -2.0146 0.9789
4.8868 -0.5809 -2.0141 0.9790
4.9089 0.2942 -2.0127 0.9790
4.8610 0.7295 -2.0118 0.9790
4.7742 1.1585 -2.0107 0.9790
4.4877 1.9838 -2.0082 0.9790
4.0591 2.7438 -2.0052 0.9790
3.7958 3.0916 -2.0036 0.9791
3.5028 3.4142 -2.0020 0.9791
2.8372 3.9741 -1.9985 0.9791
2.4702 4.2070 -1.9967 0.9791
1.2679 4.6973 -1.9913 0.9792
-0.8761 4.7655 -1.9831 0.9793
-1.2957 4.6653 -1.9817 0.9793
-1.7045 4.5285 -1.9804 0.9793
-2.0994 4.3563 -1.9792 0.9793
-2.4774 4.1499 -1.9781 0.9793
-2.8354 3.9112 -1.9772 0.9793
-3.1709 3.6420 -1.9764 0.9793
-3.7640 3.0205 -1.9752 0.9794
-4.0171 2.6731 -1.9748 0.9794
-2.0965 0.4926 -0.8814 0.9907
-2.0207 0.2883 -0.8354 0.9912
-2.0055 0.1056 -0.8219 0.9914
-1.9996 -0.0730 -0.8189 0.9914
-2.0867 -0.4550 -0.8741 0.9908
-4.4715 -1.8530 -1.9810 0.9793
-3.8318 -2.9747 -1.9854 0.9793
-3.5548 -3.3065 -1.9870 0.9792
-3.2493 -3.6128 -1.9887 0.9792
-2.9175 -3.8909 -1.9904 0.9792
-2.1856 -4.3542 -1.9940 0.9792
-1.3817 -4.6811 -1.9976 0.9791
-0.5311 -4.8605 -2.0011 0.9791
-0.0966 -4.8926 -2.0028 0.9791
0.3394 -4.8858 -2.0044 0.9791
1.6212 -4.6328 -2.0088 0.9790
2.0283 -4.4730 -2.0101 0.9790
2.4196 -4.2772 -2.0112 0.9790
3.1423 -3.7842 -2.0131 0.9790
3.7657 -3.1693 -2.0144 0.9790
4.0335 -2.8223 -2.0148 0.9789
4.6363 -1.6570 -2.0151 0.9789
-1.5229 0.5771 -0.7098 0.9929
-1.4714 -0.2561 -0.6509 0.9935
-1.4870 -0.5436 -0.6900 0.9931
-4.1164 -1.9359 -1.9825 0.9803
-3.1917 -3.2599 -1.9883 0.9803
-2.5676 -3.7802 -1.9915 0.9803
-1.4818 -4.3350 -1.9966 0.9802
-1.0911 -4.4534 -1.9983 0.9802
-0.2850 -4.5838 -2.0016 0.9802
2.4568 -3.9052 -2.0107 0.9801
3.1126 -3.4106 -2.0123 0.9801
3.4047 -3.1211 -2.0129 0.9800
3.6697 -2.8064 -2.0134 0.9800
4.1100 -2.1120 -2.0139 0.9800
4.4189 -1.3500 -2.0137 0.9800
4.5208 -0.9514 -2.0134 0.9800
4.4813 1.0874 -2.0097 0.9801
4.0276 2.2282 -2.0060 0.9801
3.5637 2.9025 -2.0031 0.9801
2.9881 3.4827 -1.9999 0.9802
1.9572 4.1377 -1.9949 0.9802
1.5800 4.2918 -1.9932 0.9802
0.3894 4.5454 -1.9882 0.9803
-0.0165 4.5585 -1.9867 0.9803
-0.8230 4.4768 -1.9838 0.9803
-1.2173 4.3829 -1.9824 0.9803
-1.9725 4.0929 -1.9801 0.9804
-2.9795 3.4221 -1.9775 0.9804
-3.2711 3.1424 -1.9768 0.9804
-1.4737 0.2102 -0.6488 0.9935
-1.4535 0.0765 -0.6343 0.9937
-1.4455 -0.0528 -0.6304 0.9937
-1.4810 -0.3229 -0.6606 0.9934
-1.4939 -0.4683 -0.6823 0.9932
-4.2010 -1.7409 -1.9818 0.9804
-4.0320 -2.1091 -1.9831 0.9803
-3.8310 -2.4612 -1.9845 0.9803
-3.5995 -2.7943 -1.9859 0.9803
-2.7402 -3.6545 -1.9907 0.9803
-2.4062 -3.8870 -1.9923 0.9803
-2.0525 -4.0892 -1.9940 0.9802
-1.6820 -4.2592 -1.9957 0.9802
-1.2974 -4.3957 -1.9974 0.9802
0.3186 -4.5868 -2.0038 0.9801
0.7260 -4.5436 -2.0053 0.9801
1.1282 -4.4641 -2.0067 0.9801
1.5218 -4.3488 -2.0080 0.9801
1.9039 -4.1986 -2.0092 0.9801
2.6205 -3.7985 -2.0112 0.9801
2.9493 -3.5517 -2.0120 0.9801
3.2547 -3.2763 -2.0127 0.9801
3.5342 -2.9745 -2.0132 0.9800
3.7856 -2.6487 -2.0136 0.9800
4.0067 -2.3017 -2.0138 0.9800
4.3512 -1.5551 -2.0138 0.9800
-1.2584 0.4769 -0.6229 0.9941
-1.2597 0.0074 -0.5831 0.9945
-1.2727 -0.2215 -0.5980 0.9943
-3.4971 -2.4849 -1.9858 0.9813
-3.2644 -2.7882 -1.9872 0.9813
-2.7226 -3.3276 -1.9902 0.9812
-2.4176 -3.5594 -1.9917 0.9812
-0.6506 -4.2707 -1.9996 0.9811
-0.2683 -4.3149 -2.0012 0.9811
0.1168 -4.3248 -2.0026 0.9811
0.5015 -4.3003 -2.0040 0.9811
0.8827 -4.2415 -2.0054 0.9811
2.3121 -3.6751 -2.0098 0.9810
3.2039 -2.9370 -2.0119 0.9810
3.4532 -2.6409 -2.0123 0.9810
3.8675 -1.9874 -2.0127 0.9810
4.1582 -1.2704 -2.0126 0.9810
4.3433 -0.1270 -2.0113 0.9810
4.3358 0.2599 -2.0106 0.9810
4.2937 0.6443 -2.0098 0.9810
4.2174 1.0233 -2.0088 0.9811
3.9648 1.7527 -2.0066 0.9811
3.5868 2.4245 -2.0040 0.9811
3.3545 2.7321 -2.0026 0.9811
2.1838 3.7193 -1.9964 0.9812
1.8428 3.8958 -1.9948 0.9812
1.1213 4.1541 -1.9917 0.9812
0.7467 4.2341 -1.9901 0.9812
-0.0156 4.2929 -1.9871 0.9813
-0.3972 4.2715 -1.9857 0.9813
-1.1465 4.1281 -1.9832 0.9813
-1.5084 4.0074 -1.9820 0.9813
-1.8580 3.8552 -1.9809 0.9813
-2.5096 3.4618 -1.9792 0.9813
-3.0814 2.9602 -1.9779 0.9813
-3.5559 2.3663 -1.9771 0.9813
-1.2456 0.5399 -0.6284 0.9940
-1.2669 0.4197 -0.6178 0.9941
-1.2685 0.0668 -0.5880 0.9944
-1.2660 -0.0462 -0.5864 0.9944
-1.2677 -0.2764 -0.6006 0.9943
-1.2493 -0.5177 -0.6260 0.9941
-3.7975 -1.9865 -1.9838 0.9813
-3.6081 -2.3180 -1.9851 0.9813
-3.1445 -2.9249 -1.9879 0.9812
-2.2656 -3.6600 -1.9925 0.9812
-1.5836 -4.0100 -1.9957 0.9812
-0.8491 -4.2339 -1.9988 0.9811
-0.4694 -4.2959 -2.0004 0.9811
-0.0854 -4.3239 -2.0019 0.9811
0.6833 -4.2766 -2.0047 0.9811
1.7918 -3.9514 -2.0083 0.9811
2.4661 -3.5746 -2.0102 0.9810
3.0627 -3.0831 -2.0116 0.9810
3.9482 -1.8219 -2.0127 0.9810
4.0945 -1.4633 -2.0127 0.9810
-1.1185 0.4239 -0.5867 0.9947
-1.1323 0.3172 -0.5768 0.9948
-1.1400 0.2122 -0.5688 0.9948
-1.1328 -0.3031 -0.5752 0.9948
-1.1213 -0.4100 -0.5856 0.9947
-3.4942 -2.0412 -1.9850 0.9821
-2.8367 -2.8973 -1.9890 0.9821
-2.5695 -3.1405 -1.9904 0.9821
-2.2816 -3.3592 -1.9919 0.9821
-1.6526 -3.7159 -1.9949 0.9820
-0.2531 -4.0710 -2.0008 0.9820
0.1102 -4.0802 -2.0022 0.9820
0.8327 -4.0013 -2.0048 0.9820
1.1861 -3.9136 -2.0059 0.9819
1.5305 -3.7946 -2.0070 0.9819
1.8629 -3.6452 -2.0080 0.9819
2.4816 -3.2600 -2.0097 0.9819
3.2570 -2.4908 -2.0113 0.9819
3.4662 -2.1914 -2.0116 0.9819
3.9219 -1.1982 -2.0116 0.9819
4.0124 -0.8444 -2.0113 0.9819
4.0708 -0.4839 -2.0109 0.9819
4.0897 0.2451 -2.0097 0.9819
4.0501 0.6078 -2.0089 0.9819
3.8746 1.3148 -2.0070 0.9819
3.7402 1.6534 -2.0059 0.9819
3.5761 1.9784 -2.0047 0.9820
3.1647 2.5776 -2.0021 0.9820
2.9208 2.8470 -2.0007 0.9820
2.0607 3.5096 -1.9963 0.9820
1.4039 3.8135 -1.9933 0.9821
1.0582 3.9203 -1.9918 0.9821
0.7047 3.9960 -1.9904 0.9821
-0.3749 4.0318 -1.9862 0.9821
-2.9092 2.7947 -1.9788 0.9822
-1.1043 0.4786 -0.5904 0.9947
-1.1438 0.1632 -0.5667 0.9949
-1.1417 0.0601 -0.5608 0.9949
-1.1443 -0.1445 -0.5657 0.9949
-1.1098 -0.4599 -0.5893 0.9947
-1.0954 -0.5730 -0.6064 0.9945
-2.9679 -2.7606 -1.9883 0.9821
-2.4351 -3.2476 -1.9911 0.9821
-2.1381 -3.4540 -1.9926 0.9821
-1.8237 -3.6332 -1.9941 0.9821
-1.4943 -3.7839 -1.9956 0.9820
-1.1526 -3.9048 -1.9971 0.9820
-0.8012 -3.9948 -1.9986 0.9820
-0.4429 -4.0532 -2.0000 0.9820
-0.0805 -4.0794 -2.0015 0.9820
1.6902 -3.7273 -2.0075 0.9819
2.0160 -3.5638 -2.0085 0.9819
2.3261 -3.3717 -2.0093 0.9819
2.8888 -2.9080 -2.0106 0.9819
3.1368 -2.6400 -2.0111 0.9819
3.7238 -1.7184 -2.0117 0.9819
-1.0311 0.1919 -0.5441 0.9953
-1.0375 -0.0866 -0.5401 0.9953
-1.0327 -0.1797 -0.5438 0.9953
-1.0197 -0.2728 -0.5476 0.9953
-1.0075 -0.3684 -0.5565 0.9952
-0.9800 -0.4609 -0.5618 0.9951
-0.9569 -0.5590 -0.5749 0.9950
-3.1218 -2.2182 -1.9867 0.9829
-2.9139 -2.4888 -1.9880 0.9829
-2.6826 -2.7400 -1.9893 0.9829
-2.4299 -2.9698 -1.9907 0.9829
-2.1575 -3.1764 -1.9920 0.9828
-1.8676 -3.3582 -1.9934 0.9828
-1.5626 -3.5135 -1.9949 0.9828
-0.2393 -3.8486 -2.0005 0.9828
0.7872 -3.7823 -2.0042 0.9827
1.1212 -3.6993 -2.0053 0.9827
2.3455 -3.0812 -2.0089 0.9827
2.8560 -2.6181 -2.0100 0.9827
3.4474 -1.7716 -2.0108 0.9827
3.5913 -1.4578 -2.0108 0.9827
3.8718 -0.1132 -2.0095 0.9827
3.8280 0.5744 -2.0081 0.9827
3.6623 1.2427 -2.0063 0.9827
3.3804 1.8702 -2.0042 0.9827
3.1987 2.1622 -2.0030 0.9828
2.7613 2.6915 -2.0004 0.9828
2.2374 3.1340 -1.9977 0.9828
1.6442 3.4760 -1.9948 0.9828
0.6664 3.7788 -1.9906 0.9829
-0.0139 3.8319 -1.9879 0.9829
-0.3546 3.8131 -1.9867 0.9829
-0.6920 3.7642 -1.9855 0.9829
-1.6590 3.4424 -1.9824 0.9829
-1.9579 3.2797 -1.9816 0.9829
-2.2411 3.0914 -1.9808 0.9829
-2.5064 2.8788 -1.9802 0.9829
-2.9756 2.3878 -1.9793 0.9830
-0.9539 0.5187 -0.5633 0.9951
-0.9912 0.4296 -0.5604 0.9951
-1.0134 0.3357 -0.5538 0.9952
-1.0344 -0.0378 -0.5370 0.9953
-1.0264 -0.2238 -0.5450 0.9953
-1.0158 -0.3184 -0.5523 0.9952
-0.9964 -0.4129 -0.5595 0.9952
-3.2210 -2.0693 -1.9861 0.9829
-3.0260 -2.3491 -1.9873 0.9829
-2.3027 -3.0710 -1.9913 0.9829
-2.0218 -3.2660 -1.9927 0.9828
-1.7244 -3.4354 -1.9941 0.9828
-1.4129 -3.5777 -1.9955 0.9828
-1.0897 -3.6919 -1.9970 0.9828
-0.7574 -3.7769 -1.9984 0.9828
-0.4187 -3.8319 -1.9997 0.9828
0.2675 -3.8505 -2.0024 0.9828
0.6094 -3.8138 -2.0036 0.9827
1.2771 -3.6494 -2.0058 0.9827
1.9055 -3.3685 -2.0077 0.9827
2.7303 -2.7484 -2.0098 0.9827
2.9646 -2.4951 -2.0102 0.9827
3.1754 -2.2218 -2.0105 0.9827
3.3608 -1.9306 -2.0107 0.9827
3.5193 -1.6240 -2.0108 0.9827
-0.9243 0.2589 -0.5257 0.9956
-0.9474 0.0902 -0.5212 0.9957
-0.9473 -0.0790 -0.5206 0.9957
-0.9252 -0.2475 -0.5245 0.9956
-2.7605 -2.3578 -1.9883 0.9836
-2.5413 -2.5956 -1.9896 0.9836
-2.3018 -2.8133 -1.9909 0.9836
-2.0437 -3.0089 -1.9922 0.9835
-1.4800 -3.3280 -1.9949 0.9835
-1.1789 -3.4488 -1.9962 0.9835
0.0987 -3.6528 -2.0014 0.9835
0.4235 -3.6317 -2.0026 0.9835
0.7454 -3.5816 -2.0037 0.9835
1.3698 -3.3963 -2.0057 0.9834
1.6673 -3.2624 -2.0066 0.9834
2.2208 -2.9174 -2.0081 0.9834
2.4723 -2.7090 -2.0087 0.9834
2.7041 -2.4789 -2.0092 0.9834
3.2639 -1.6773 -2.0099 0.9834
3.4002 -1.3802 -2.0099 0.9834
1.8860 -0.3969 -1.0556 0.9912
1.8890 -0.2246 -1.0419 0.9914
1.8799 -0.0550 -1.0300 0.9915
1.8880 0.2833 -1.0457 0.9913
1.8862 0.4577 -1.0631 0.9912
1.8702 0.6346 -1.0817 0.9910
3.3477 1.4799 -2.0047 0.9834
3.2011 1.7710 -2.0037 0.9835
3.0291 2.0476 -2.0025 0.9835
2.3764 2.7697 -1.9988 0.9835
2.1191 2.9682 -1.9975 0.9835
1.2574 3.4156 -1.9935 0.9835
0.9479 3.5116 -1.9921 0.9835
0.3101 3.6193 -1.9895 0.9836
-0.3359 3.6125 -1.9871 0.9836
-0.6556 3.5663 -1.9860 0.9836
-0.9698 3.4919 -1.9849 0.9836
-1.2760 3.3901 -1.9840 0.9836
-1.8551 3.1076 -1.9823 0.9836
-2.1235 2.9292 -1.9816 0.9836
-2.8196 2.2627 -1.9801 0.9836
-0.8727 0.5807 -0.5741 0.9952
-0.9185 0.3043 -0.5299 0.9956
-0.9455 0.1349 -0.5231 0.9957
-0.9462 0.0498 -0.5189 0.9957
-0.9465 -0.1195 -0.5225 0.9957
-0.8682 -0.5578 -0.5652 0.9953
-2.6590 -2.4732 -1.9889 0.9836
-2.4299 -2.7017 -1.9902 0.9836
-2.1813 -2.9091 -1.9915 0.9836
-1.6333 -3.2540 -1.9942 0.9835
-1.3382 -3.3887 -1.9955 0.9835
-1.0321 -3.4967 -1.9968 0.9835
0.2533 -3.6464 -2.0020 0.9835
0.5771 -3.6115 -2.0031 0.9835
0.8966 -3.5478 -2.0042 0.9834
1.2093 -3.4557 -2.0052 0.9834
1.5127 -3.3359 -2.0062 0.9834
1.8043 -3.1895 -2.0070 0.9834
2.0817 -3.0174 -2.0078 0.9834
2.3426 -2.8211 -2.0084 0.9834
2.5850 -2.6022 -2.0089 0.9834
2.8069 -2.3624 -2.0094 0.9834
3.1819 -1.8279 -2.0099 0.9834
3.3321 -1.5376 -2.0099 0.9834
-0.8568 0.3247 -0.5290 0.9958
-0.8784 0.1635 -0.5159 0.9959
-0.8822 0.0840 -0.5117 0.9959
-0.8687 -0.2324 -0.5192 0.9959
-0.8586 -0.3139 -0.5278 0.9958
-0.8152 -0.4762 -0.5451 0.9956
-0.8003 -0.5687 -0.5668 0.9955
-2.6191 -2.2370 -1.9887 0.9842
-2.1838 -2.6691 -1.9911 0.9842
-1.9389 -2.8546 -1.9923 0.9842
-1.1183 -3.2716 -1.9961 0.9842
-0.8233 -3.3602 -1.9974 0.9841
0.0936 -3.4646 -2.0010 0.9841
0.4017 -3.4445 -2.0022 0.9841
1.0069 -3.3222 -2.0042 0.9841
1.5812 -3.0939 -2.0060 0.9841
2.1060 -2.7666 -2.0074 0.9841
2.3444 -2.5690 -2.0080 0.9841
2.5643 -2.3507 -2.0084 0.9841
3.0951 -1.5905 -2.0091 0.9841
1.7217 -0.5260 -1.0394 0.9917
1.7327 -0.3646 -1.0223 0.9919
1.7419 -0.2071 -1.0127 0.9919
1.7328 -0.0507 -1.0008 0.9920
1.7375 0.1041 -1.0050 0.9920
1.7407 0.2612 -1.0163 0.9919
1.7319 0.4202 -1.0290 0.9918
1.7119 0.5809 -1.0437 0.9917
2.8730 1.9421 -2.0021 0.9841
2.2541 2.6272 -1.9986 0.9841
2.0101 2.8156 -1.9974 0.9841
1.7505 2.9814 -1.9961 0.9842
1.4774 3.1233 -1.9948 0.9842
0.8993 3.3315 -1.9923 0.9842
0.2942 3.4339 -1.9898 0.9842
-0.0125 3.4444 -1.9886 0.9842
-0.6221 3.3839 -1.9864 0.9842
-0.9203 3.3134 -1.9854 0.9842
-1.2108 3.2169 -1.9845 0.9842
-1.4916 3.0951 -1.9836 0.9843
-2.0151 2.7797 -1.9822 0.9843
-2.2538 2.5886 -1.9817 0.9843
-2.4746 2.3773 -1.9812 0.9843
-2.6758 2.1473 -1.9808 0.9843
-0.7954 0.5293 -0.5516 0.9956
-0.8251 0.4487 -0.5423 0.9957
-0.8481 0.3676 -0.5337 0.9957
-0.8626 0.2857 -0.5246 0.9958
-0.8733 0.2052 -0.5179 0.9959
-0.8806 -0.0321 -0.5087 0.9959
-0.8753 -0.1908 -0.5172 0.9959
-2.5228 -2.3466 -1.9892 0.9842
-2.3054 -2.5633 -1.9904 0.9842
-1.5495 -3.0870 -1.9942 0.9842
-1.2695 -3.2146 -1.9955 0.9842
0.5473 -3.4253 -2.0027 0.9841
1.7111 -3.0247 -2.0064 0.9841
2.4514 -2.4677 -2.0082 0.9841
2.8509 -1.9948 -2.0089 0.9841
1.7056 -0.6096 -1.0458 0.9917
