ply
format ascii 1.0
element vertex 1246
property float32 x
property float32 y
property float32 z
property float32 I
end_header
1.2905 -5.4026 0.9794 0.9777
1.8186 -5.4170 1.0075 0.9771
2.3828 -5.4328 1.0460 0.9762
2.9972 -5.4505 1.0968 0.9751
13.0816 13.7419 3.3454 0.9258
-3.5634 -5.2827 1.1236 0.9745
-2.9199 -5.2942 1.0661 0.9757
-1.7941 -5.3220 0.9903 0.9774
-1.2815 -5.3356 0.9676 0.9780
-0.7882 -5.3492 0.9534 0.9783
1.1589 -5.3990 0.9737 0.9778
3.4965 -5.4652 1.1440 0.9740
11.4895 13.7971 3.1659 0.9297
2.3797 -5.4257 0.9076 0.9763
4.4523 -5.4875 1.0826 0.9718
-3.5565 -5.2724 0.9743 0.9746
-2.9145 -5.2845 0.9245 0.9759
-2.3320 -5.2989 0.8869 0.9768
-1.7911 -5.3130 0.8589 0.9776
-0.7869 -5.3405 0.8270 0.9784
2.2304 -5.4216 0.8981 0.9766
3.4915 -5.4574 0.9925 0.9741
5.1129 -5.5102 1.1515 0.9700
1.8141 -5.4034 0.7422 0.9773
2.3766 -5.4187 0.7705 0.9764
2.9890 -5.4357 0.8078 0.9753
4.4467 -5.4805 0.9190 0.9719
13.0824 13.7428 2.4708 0.9263
11.2555 14.1675 2.3563 0.9296
-12.7242 -13.0619 2.3746 0.9291
-4.2668 -5.2455 0.8805 0.9731
-3.5496 -5.2622 0.8266 0.9747
-2.9092 -5.2748 0.7844 0.9760
-2.3280 -5.2898 0.7526 0.9770
-0.7856 -5.3320 0.7018 0.9785
-0.3043 -5.3459 0.6973 0.9786
0.1747 -5.3602 0.6984 0.9786
1.1561 -5.3860 0.7173 0.9780
1.6754 -5.3997 0.7362 0.9775
2.8256 -5.4311 0.7972 0.9756
3.4866 -5.4497 0.8425 0.9742
13.6790 13.7221 2.5231 0.9248
11.4902 13.7979 2.3382 0.9301
1.8118 -5.3967 0.6113 0.9774
3.6652 -5.4482 0.7051 0.9739
11.2601 14.1733 1.9438 0.9298
-4.2577 -5.2342 0.7245 0.9732
-3.5428 -5.2521 0.6803 0.9748
-2.9040 -5.2654 0.6457 0.9761
-2.3240 -5.2807 0.6195 0.9771
-1.7851 -5.2953 0.6001 0.9778
0.1744 -5.3516 0.5750 0.9787
0.6580 -5.3663 0.5806 0.9785
1.6734 -5.3931 0.6064 0.9775
2.2247 -5.4077 0.6279 0.9768
2.8218 -5.4239 0.6565 0.9757
3.4819 -5.4423 0.6938 0.9743
11.4905 13.7983 1.9282 0.9303
1.2843 -5.3765 0.4679 0.9781
1.8096 -5.3901 0.4813 0.9774
2.3706 -5.4048 0.4996 0.9766
13.0832 13.7436 1.6063 0.9267
-2.8988 -5.2560 0.5081 0.9762
-1.7822 -5.2866 0.4723 0.9779
-1.2732 -5.3010 0.4615 0.9784
-0.3033 -5.3290 0.4518 0.9788
0.6569 -5.3578 0.4569 0.9786
2.2219 -5.4009 0.4944 0.9768
2.8181 -5.4167 0.5169 0.9758
1.2823 -5.3684 0.3423 0.9781
1.8074 -5.3835 0.3521 0.9775
3.6567 -5.4355 0.4062 0.9741
-4.2395 -5.2120 0.4166 0.9734
-3.5287 -5.2311 0.3913 0.9750
-2.8937 -5.2468 0.3716 0.9763
-1.7793 -5.2780 0.3454 0.9779
-0.3028 -5.3207 0.3305 0.9789
0.1738 -5.3348 0.3310 0.9788
1.1514 -5.3644 0.3402 0.9783
1.6693 -5.3800 0.3493 0.9777
4.2200 -5.4533 0.4276 0.9727
5.0855 -5.4807 0.4636 0.9705
2.3645 -5.3911 0.2321 0.9767
13.0840 13.7445 0.7483 0.9268
11.2738 14.1905 0.7146 0.9300
-4.2306 -5.2010 0.2644 0.9735
-3.5217 -5.2207 0.2483 0.9751
-2.8886 -5.2376 0.2359 0.9763
-1.7764 -5.2694 0.2193 0.9780
-0.7807 -5.2983 0.2112 0.9788
0.1736 -5.3265 0.2101 0.9789
0.6548 -5.3409 0.2122 0.9787
1.1496 -5.3558 0.2160 0.9783
2.2164 -5.3874 0.2297 0.9769
4.2148 -5.4466 0.2716 0.9728
1.2783 -5.3517 0.0929 0.9782
2.3618 -5.3848 0.0993 0.9768
2.9713 -5.4033 0.1042 0.9756
4.4198 -5.4474 0.1185 0.9723
13.0844 13.7449 0.3206 0.9269
11.2784 14.1963 0.3063 0.9300
-4.2217 -5.1900 0.1130 0.9736
-2.8836 -5.2284 0.1009 0.9764
-2.3083 -5.2452 0.0968 0.9773
-1.2671 -5.2757 0.0916 0.9785
-0.7794 -5.2900 0.0903 0.9788
-0.3019 -5.3041 0.0897 0.9790
1.6642 -5.3635 0.0949 0.9778
2.2134 -5.3803 0.0983 0.9770
2.8086 -5.3984 0.1028 0.9759
3.4666 -5.4184 0.1087 0.9746
11.4919 13.8000 0.3033 0.9307
1.2788 -5.3537 -0.0310 0.9782
1.8028 -5.3698 -0.0319 0.9776
2.3627 -5.3870 -0.0331 0.9767
3.6502 -5.4259 -0.0368 0.9742
4.4215 -5.4496 -0.0395 0.9723
11.2829 14.2020 -0.1021 0.9300
-4.2185 -5.1861 -0.0376 0.9736
-3.5129 -5.2077 -0.0354 0.9752
-2.8825 -5.2265 -0.0336 0.9764
-1.7733 -5.2603 -0.0313 0.9780
-0.7795 -5.2907 -0.0301 0.9788
0.1733 -5.3199 -0.0300 0.9789
1.6649 -5.3656 -0.0316 0.9778
2.2143 -5.3824 -0.0328 0.9770
3.4678 -5.4204 -0.0362 0.9746
4.2121 -5.4431 -0.0387 0.9728
5.0732 -5.4674 -0.0420 0.9706
2.3637 -5.3892 -0.1657 0.9767
12.9726 13.6275 -0.5298 0.9275
-12.5054 11.0086 -0.4691 0.9355
-4.2213 -5.1896 -0.1884 0.9736
-3.5151 -5.2110 -0.1770 0.9752
-2.8842 -5.2296 -0.1682 0.9764
-2.3085 -5.2455 -0.1614 0.9773
-1.2676 -5.2778 -0.1528 0.9785
-0.7798 -5.2927 -0.1506 0.9788
0.1734 -5.3218 -0.1499 0.9789
0.6543 -5.3366 -0.1514 0.9787
1.1487 -5.3518 -0.1541 0.9783
2.2152 -5.3846 -0.1639 0.9770
11.4639 13.7663 -0.5044 0.9308
1.2798 -5.3578 -0.2794 0.9782
1.8042 -5.3740 -0.2875 0.9776
2.9743 -5.4089 -0.3130 0.9756
4.4217 -5.4498 -0.3559 0.9723
11.2920 14.2135 -0.9206 0.9299
-4.2242 -5.1931 -0.3395 0.9735
-2.8859 -5.2326 -0.3031 0.9764
-1.2678 -5.2786 -0.2753 0.9785
-0.7801 -5.2942 -0.2714 0.9788
-0.3022 -5.3093 -0.2697 0.9789
0.1735 -5.3238 -0.2701 0.9789
0.6546 -5.3386 -0.2728 0.9787
1.1492 -5.3538 -0.2777 0.9783
1.6661 -5.3697 -0.2851 0.9777
2.2161 -5.3867 -0.2954 0.9769
2.8114 -5.4039 -0.3089 0.9759
4.2130 -5.4443 -0.3491 0.9728
13.6824 13.7256 -0.9829 0.9253
11.4929 13.8012 -0.9108 0.9306
2.9754 -5.4108 -0.4528 0.9755
3.6525 -5.4293 -0.4798 0.9741
13.0861 13.7466 -1.3916 0.9267
11.2966 14.2192 -1.3316 0.9298
-3.9350 17.3560 -1.3049 0.9311
-4.2270 -5.1966 -0.4912 0.9735
-3.5195 -5.2176 -0.4615 0.9751
-2.8876 -5.2357 -0.4384 0.9763
-2.3111 -5.2515 -0.4207 0.9773
-1.7753 -5.2662 -0.4075 0.9780
-1.2682 -5.2802 -0.3982 0.9785
-0.7801 -5.2947 -0.3924 0.9788
0.1735 -5.3253 -0.3907 0.9789
0.6548 -5.3406 -0.3945 0.9787
1.1496 -5.3559 -0.4016 0.9783
1.6668 -5.3718 -0.4124 0.9777
13.6829 13.7260 -1.4211 0.9252
11.4932 13.8016 -1.3169 0.9305
1.8056 -5.3782 -0.5447 0.9775
2.8707 -6.5452 -0.6862 0.9717
2.9756 -5.4112 -0.5929 0.9755
3.6524 -5.4291 -0.6282 0.9740
13.4969 -11.6083 -1.7091 0.9310
15.5682 -11.1350 -1.8376 0.9260
17.1369 -8.1100 -1.8202 0.9266
17.7215 -6.5209 -1.8129 0.9269
18.1738 -4.8961 -1.8070 0.9272
18.4924 -3.2453 -1.8025 0.9273
18.0682 5.0673 -1.8016 0.9274
13.2758 11.6574 -1.6962 0.9315
12.2542 12.8727 -1.7063 0.9311
9.9039 15.0533 -1.7299 0.9302
7.1817 16.8423 -1.7578 0.9291
5.6981 17.5686 -1.7732 0.9285
4.1438 18.1717 -1.7894 0.9278
-5.6198 17.4012 -1.7556 0.9292
-4.2299 -5.2001 -0.6435 0.9734
-3.5218 -5.2209 -0.6046 0.9750
-2.8893 -5.2388 -0.5744 0.9762
-1.7763 -5.2691 -0.5338 0.9779
-0.3023 -5.3105 -0.5107 0.9789
0.6549 -5.3415 -0.5166 0.9786
1.1499 -5.3573 -0.5260 0.9782
3.4703 -5.4243 -0.6182 0.9745
13.2482 -11.9361 -1.7120 0.9309
15.2856 -11.4742 -1.8349 0.9261
16.2167 -10.0429 -1.8313 0.9262
17.5835 -6.9340 -1.8146 0.9269
18.6420 -2.0086 -1.8001 0.9274
18.7261 -0.3353 -1.7981 0.9275
18.6755 1.3381 -1.7975 0.9275
18.1717 4.6476 -1.8007 0.9274
13.5216 11.3324 -1.6938 0.9316
12.5275 12.5670 -1.7036 0.9312
11.4282 13.7234 -1.7145 0.9308
2.3901 -5.4494 -0.7068 0.9763
2.9755 -5.4110 -0.7335 0.9754
3.6523 -5.4290 -0.7772 0.9740
4.4213 -5.4493 -0.8336 0.9721
11.0318 -11.3528 -1.8804 0.9382
11.9779 -10.3018 -1.8767 0.9383
13.4911 -7.9310 -1.8590 0.9389
14.9624 -4.0309 -1.8407 0.9395
15.2314 -2.6730 -1.8369 0.9396
15.3877 -1.3002 -1.8344 0.9397
15.3608 1.4570 -1.8328 0.9397
14.8833 4.1741 -1.8361 0.9396
13.9646 6.7851 -1.8442 0.9394
12.4719 7.5052 -1.7291 0.9431
10.8989 9.5703 -1.7229 0.9432
10.0495 10.5567 -1.7313 0.9430
7.0139 13.0711 -1.7621 0.9420
5.8577 13.7374 -1.7740 0.9416
4.6402 14.3068 -1.7866 0.9412
3.3687 14.7729 -1.7999 0.9408
-2.0818 15.4986 -1.8576 0.9390
-4.8840 15.1226 -1.8877 0.9380
-6.2644 14.7420 -1.9027 0.9375
-7.6145 14.2331 -1.9174 0.9370
-10.1728 12.8375 -1.9457 0.9362
-11.3552 11.9582 -1.9589 0.9357
-12.3060 10.8330 -1.9475 0.9361
-14.5741 10.6798 -2.1463 0.9298
-16.4027 7.9950 -2.1675 0.9291
-18.1111 3.3939 -2.1888 0.9285
-18.4175 -1.5331 -2.1953 0.9283
-17.2813 -6.3344 -2.1863 0.9285
-16.5985 -7.8299 -2.1800 0.9287
-15.7759 -9.2476 -2.1722 0.9290
-12.2763 -12.6022 -2.0898 0.9316
-4.2327 -5.2036 -0.7968 0.9733
-2.3141 -5.2582 -0.6824 0.9771
-1.7773 -5.2720 -0.6609 0.9778
-1.2696 -5.2858 -0.6457 0.9783
-0.7808 -5.2993 -0.6363 0.9787
1.1500 -5.3580 -0.6509 0.9782
2.3129 -5.6221 -0.7221 0.9758
3.4703 -5.4242 -0.7649 0.9744
4.2127 -5.4438 -0.8177 0.9727
5.0724 -5.4666 -0.8858 0.9704
11.7536 -10.5896 -1.8792 0.9383
13.9464 -6.9978 -1.8535 0.9391
14.4656 -5.7045 -1.8471 0.9393
14.8749 -4.3773 -1.8419 0.9395
15.3896 1.1027 -1.8328 0.9397
14.9698 3.8287 -1.8354 0.9397
14.5931 5.1591 -1.8386 0.9396
14.1071 6.4570 -1.8429 0.9394
13.0966 7.4757 -1.7913 0.9411
11.8407 8.2424 -1.7137 0.9435
11.1035 9.3058 -1.7209 0.9433
1.2809 -5.3626 -0.7812 0.9780
3.0811 -5.6031 -0.9060 0.9745
9.3653 -9.6379 -1.9041 0.9472
10.8335 -7.7485 -1.8872 0.9476
11.4388 -6.7245 -1.8801 0.9478
12.3769 -4.5542 -1.8686 0.9481
12.7052 -3.4229 -1.8644 0.9482
12.9376 -2.2705 -1.8611 0.9483
13.0732 -1.1046 -1.8589 0.9484
13.0519 1.2380 -1.8576 0.9484
12.6428 3.5457 -1.8605 0.9483
11.8545 5.7599 -1.8674 0.9481
10.3324 7.5517 -1.8133 0.9496
6.8489 10.4100 -1.7656 0.9509
3.9103 12.0564 -1.7959 0.9501
2.8355 12.4347 -1.8071 0.9498
1.7247 12.7198 -1.8188 0.9495
-5.2256 12.2975 -1.8932 0.9475
-6.3437 11.8577 -1.9054 0.9471
-7.4234 11.3138 -1.9173 0.9468
-13.5649 6.6118 -2.1382 0.9409
-14.6118 4.1176 -2.1510 0.9405
-15.1974 -1.2650 -2.1608 0.9403
-14.7062 -3.9422 -2.1573 0.9403
-13.7132 -6.4688 -2.1483 0.9406
-12.2632 -8.7480 -2.1344 0.9410
-3.9429 -3.3826 -0.7361 0.9792
-3.4508 -3.5424 -0.7007 0.9802
-3.2958 -4.0518 -0.7400 0.9791
-2.9119 -5.2797 -0.8543 0.9759
-2.3157 -5.2619 -0.8146 0.9770
-1.2704 -5.2893 -0.7708 0.9783
-0.7812 -5.3022 -0.7594 0.9786
-0.3026 -5.3155 -0.7544 0.9787
1.6678 -5.3752 -0.7974 0.9775
2.8414 -5.4615 -0.8723 0.9754
4.2125 -5.4437 -0.9753 0.9726
9.9491 -8.9638 -1.8974 0.9473
11.2914 -6.9927 -1.8818 0.9478
11.8301 -5.9359 -1.8754 0.9479
12.2770 -4.8414 -1.8699 0.9481
12.6298 -3.7166 -1.8654 0.9482
13.0476 -1.4058 -1.8594 0.9484
13.1108 -0.2347 -1.8580 0.9484
13.0765 0.9369 -1.8576 0.9484
12.7171 3.2525 -1.8599 0.9484
11.9768 5.4820 -1.8663 0.9482
11.4683 6.5463 -1.8710 0.9480
10.8142 7.5279 -1.8669 0.9482
8.7042 8.7316 -1.7469 0.9514
1.9135 -5.6996 -0.9905 0.9759
2.3900 -5.4492 -0.9802 0.9762
3.1429 -5.7154 -1.0745 0.9739
8.7853 -7.5559 -1.9089 0.9541
10.3715 -4.9083 -1.8903 0.9545
11.0306 -2.9717 -1.8820 0.9547
11.2349 -1.9717 -1.8791 0.9548
11.3544 -0.9594 -1.8772 0.9549
11.3884 0.0585 -1.8761 0.9549
11.2004 2.0844 -1.8768 0.9549
10.9794 3.0792 -1.8785 0.9548
10.6753 4.0531 -1.8811 0.9548
9.8248 5.9123 -1.8890 0.9546
8.6347 7.5821 -1.8930 0.9545
4.2699 10.0137 -1.7934 0.9568
3.3759 10.4087 -1.8027 0.9566
2.4459 10.7261 -1.8124 0.9564
1.4864 10.9623 -1.8225 0.9561
0.5042 11.1142 -1.8328 0.9559
-1.4984 11.1551 -1.8542 0.9554
-4.4783 10.5387 -1.8864 0.9546
-7.2258 9.1185 -1.9166 0.9539
-9.5125 8.3739 -2.0878 0.9499
-10.2952 7.5443 -2.1026 0.9496
-10.9684 6.6191 -2.1104 0.9494
-11.5533 5.6313 -2.1173 0.9492
-12.0436 4.5898 -2.1233 0.9491
-12.4339 3.5039 -2.1281 0.9490
-12.7198 2.3836 -2.1319 0.9489
-12.8978 1.2396 -2.1346 0.9488
-12.9660 0.0828 -2.1361 0.9488
-12.9235 -1.0757 -2.1364 0.9488
-12.7705 -2.2247 -2.1355 0.9488
-12.5087 -3.3532 -2.1334 0.9489
-12.1410 -4.4503 -2.1302 0.9489
-11.6713 -5.5056 -2.1259 0.9490
-11.1047 -6.5095 -2.1205 0.9492
-10.4474 -7.4527 -2.1141 0.9493
-3.6851 -3.1614 -0.7999 0.9805
-3.2446 -3.9889 -0.8471 0.9794
-2.3172 -5.2653 -0.9477 0.9769
-1.2712 -5.2928 -0.8967 0.9782
1.1504 -5.3596 -0.9030 0.9780
1.6679 -5.3755 -0.9272 0.9774
2.8413 -5.4613 -1.0142 0.9754
3.4701 -5.4239 -1.0607 0.9742
5.0721 -5.4663 -1.2285 0.9702
8.6176 -7.7641 -1.9109 0.9541
9.2416 -6.9372 -1.9037 0.9542
10.2628 -5.1495 -1.8916 0.9545
10.9643 -3.2265 -1.8828 0.9547
11.3878 -0.2039 -1.8763 0.9549
11.0444 2.8247 -1.8780 0.9548
10.3968 4.7587 -1.8836 0.9547
9.9520 5.6807 -1.8878 0.9546
7.6132 7.6372 -1.7765 0.9572
6.8632 8.2417 -1.7669 0.9575
1.8514 -5.5145 -1.0934 0.9766
3.6520 -5.4285 -1.2298 0.9737
4.4210 -5.4489 -1.3189 0.9718
7.7424 -6.6590 -1.9195 0.9593
8.2793 -5.9217 -1.9133 0.9594
9.1510 -4.3307 -1.9029 0.9596
9.7375 -2.6233 -1.8955 0.9598
9.9197 -1.7408 -1.8930 0.9598
10.0571 0.0516 -1.8904 0.9599
10.0117 0.9496 -1.8903 0.9599
9.8906 1.8407 -1.8910 0.9599
9.6944 2.7188 -1.8925 0.9598
9.0820 4.4128 -1.8979 0.9597
8.6693 5.2169 -1.9018 0.9597
8.1886 5.9849 -1.9064 0.9596
7.0232 7.3777 -1.9146 0.9594
6.0930 7.6694 -1.8411 0.9609
4.5076 8.4004 -1.7919 0.9619
2.1485 9.4218 -1.8164 0.9614
0.4423 9.7494 -1.8344 0.9611
-1.3125 9.7713 -1.8531 0.9607
-2.1910 9.6640 -1.8626 0.9605
-3.0608 9.4773 -1.8720 0.9603
-3.9143 9.2115 -1.8812 0.9601
-4.7442 8.8677 -1.8903 0.9599
-5.5429 8.4477 -1.8991 0.9597
-7.5727 7.9749 -2.0671 0.9562
-10.8106 3.0464 -2.1111 0.9553
-11.0565 2.0719 -2.1144 0.9552
-11.2095 1.0773 -2.1167 0.9552
-11.2678 0.0719 -2.1179 0.9552
-11.2306 -0.9348 -2.1182 0.9552
-11.0982 -1.9334 -2.1174 0.9552
-10.8721 -2.9145 -2.1157 0.9552
-10.1489 -4.7875 -2.1092 0.9554
-9.0912 -6.4853 -2.0990 0.9556
-3.2174 -3.3028 -0.8667 0.9814
-3.1909 -3.9228 -0.9505 0.9796
-3.5496 -5.2622 -1.1931 0.9745
-2.9117 -5.2795 -1.1333 0.9758
-2.3183 -5.2679 -1.0818 0.9768
-1.7807 -5.2823 -1.0478 0.9776
-0.7823 -5.3092 -1.0087 0.9784
1.1510 -5.3623 -1.0309 0.9779
2.8413 -5.4612 -1.1571 0.9753
3.4700 -5.4237 -1.2102 0.9741
4.2123 -5.4434 -1.2937 0.9724
6.9777 -7.5199 -1.9282 0.9591
9.0543 -4.5431 -1.9041 0.9596
9.4028 -3.7080 -1.8998 0.9597
10.0564 -0.1801 -1.8905 0.9599
9.7521 2.4942 -1.8920 0.9599
9.1770 4.2004 -1.8970 0.9598
8.3188 5.7908 -1.9051 0.9596
7.7894 6.5283 -1.9103 0.9595
7.1947 7.2174 -1.9155 0.9594
6.3750 7.6554 -1.8725 0.9603
3.6519 -5.4284 -1.3829 0.9736
5.7845 -7.1295 -1.9407 0.9632
6.3761 -6.5617 -1.9340 0.9633
6.9146 -5.9470 -1.9278 0.9634
8.1801 -3.8712 -1.9130 0.9637
8.8722 -1.5570 -1.9041 0.9638
8.9964 0.0462 -1.9017 0.9639
8.4284 3.2000 -1.9057 0.9638
8.1208 3.9457 -1.9085 0.9638
7.7500 4.6637 -1.9120 0.9637
6.2834 6.6006 -1.9263 0.9634
4.1444 7.7237 -1.8528 0.9648
3.3486 7.8532 -1.8046 0.9657
2.6446 8.1538 -1.8119 0.9656
1.9138 8.3927 -1.8196 0.9654
0.3936 8.6750 -1.8356 0.9651
-5.2264 7.9655 -2.0138 0.9618
-6.0405 7.6227 -2.0559 0.9610
-6.7265 7.0837 -2.0649 0.9608
-7.3575 6.4769 -2.0720 0.9607
-8.4431 5.0952 -2.0845 0.9605
-8.8867 4.3316 -2.0897 0.9604
-9.2579 3.5281 -2.0942 0.9603
-9.9530 0.0635 -2.1039 0.9601
-9.9200 -0.8257 -2.1041 0.9601
-9.3256 -3.4183 -2.0995 0.9602
-8.9691 -4.2309 -2.0962 0.9603
-3.1716 -3.2557 -0.9608 0.9816
-3.1371 -3.8567 -1.0509 0.9799
-3.5495 -5.2620 -1.3417 0.9744
-2.3188 -5.2690 -1.2169 0.9767
-0.7824 -5.3103 -1.1346 0.9783
-0.3030 -5.3234 -1.1271 0.9784
0.1739 -5.3363 -1.1286 0.9784
1.1509 -5.3622 -1.1593 0.9778
3.4699 -5.4236 -1.3610 0.9740
6.2287 -6.7126 -1.9357 0.9633
6.7812 -6.1096 -1.9294 0.9634
8.4067 -3.3152 -1.9102 0.9637
8.6549 -2.5469 -1.9070 0.9638
8.9502 -0.9644 -1.9028 0.9639
8.9729 0.6429 -1.9015 0.9639
8.8817 1.4421 -1.9020 0.9639
2.3898 -5.4488 -1.3983 0.9758
5.7532 -5.9206 -1.9402 0.9666
6.2410 -5.3677 -1.9346 0.9667
7.3887 -3.4967 -1.9212 0.9670
7.6583 -2.8180 -1.9178 0.9670
7.8682 -2.1197 -1.9151 0.9671
8.1051 -0.6848 -1.9117 0.9671
8.1307 0.0418 -1.9109 0.9671
7.9956 1.4880 -1.9114 0.9671
7.8358 2.1976 -1.9127 0.9671
7.0006 4.2128 -1.9202 0.9670
6.6094 4.8306 -1.9240 0.9669
5.6717 5.9580 -1.9333 0.9668
5.1313 6.4588 -1.9387 0.9667
1.0594 7.8130 -1.8530 0.9681
0.3555 7.8357 -1.8435 0.9683
-0.3467 7.8572 -1.8484 0.9682
-1.0574 7.8718 -1.8667 0.9679
-1.7881 7.8867 -1.9006 0.9673
-2.5512 7.8995 -1.9510 0.9665
-4.0820 7.6301 -2.0337 0.9651
-8.7403 1.6379 -2.0899 0.9641
-8.8593 0.8515 -2.0917 0.9641
-8.9042 0.0568 -2.0927 0.9641
-8.7706 -1.5279 -2.0923 0.9641
-8.5934 -2.3036 -2.0910 0.9641
-8.3447 -3.0587 -2.0888 0.9641
-8.0270 -3.7865 -2.0859 0.9642
-7.6434 -4.4804 -2.0823 0.9643
-3.4084 -2.9241 -1.0555 0.9817
-3.1315 -3.2146 -1.0547 0.9817
-3.5494 -5.2619 -1.4917 0.9743
-2.9116 -5.2792 -1.4169 0.9755
-2.3192 -5.2699 -1.3532 0.9766
-1.7814 -5.2842 -1.3106 0.9773
-0.7825 -5.3107 -1.2616 0.9782
0.1739 -5.3362 -1.2548 0.9783
1.6680 -5.3758 -1.3229 0.9771
2.2400 -5.4447 -1.3837 0.9761
4.4818 -7.0052 -1.9545 0.9664
5.6196 -6.0563 -1.9417 0.9666
6.1201 -5.5140 -1.9360 0.9667
7.3099 -3.6678 -1.9221 0.9670
7.5945 -2.9949 -1.9186 0.9670
7.8199 -2.3012 -1.9158 0.9671
7.9849 -1.5917 -1.9136 0.9671
8.0885 -0.8715 -1.9120 0.9671
8.1300 -0.1456 -1.9111 0.9671
7.8828 2.0161 -1.9123 0.9671
7.6782 2.7145 -1.9140 0.9671
7.4142 3.3936 -1.9164 0.9671
7.0926 4.0485 -1.9194 0.9670
6.7153 4.6746 -1.9230 0.9669
5.8035 5.8218 -1.9320 0.9668
5.2748 6.3342 -1.9373 0.9667
1.8366 -5.4707 -1.4941 0.9764
2.3898 -5.4486 -1.5405 0.9757
3.6534 -6.6437 -1.9631 0.9692
5.2361 -5.3885 -1.9454 0.9694
6.0808 -4.3492 -1.9357 0.9696
6.4312 -3.7807 -1.9316 0.9696
6.7307 -3.1853 -1.9280 0.9697
6.9772 -2.5674 -1.9250 0.9697
7.1694 -1.9315 -1.9225 0.9698
7.3865 -0.6241 -1.9193 0.9698
7.4100 0.0380 -1.9186 0.9698
7.1408 2.0026 -1.9202 0.9698
6.6846 3.2479 -1.9243 0.9698
6.3774 3.8377 -1.9271 0.9697
6.0199 4.3998 -1.9306 0.9697
5.6144 4.9300 -1.9346 0.9696
4.6705 5.8788 -1.9440 0.9695
3.5706 6.6542 -1.9552 0.9693
2.9714 6.9684 -1.9614 0.9692
1.0264 7.5700 -1.9779 0.9689
-0.3390 7.6828 -1.9911 0.9687
-1.0280 7.6532 -1.9993 0.9686
-3.0597 7.2004 -2.0257 0.9682
-3.7034 6.9224 -2.0327 0.9681
-4.3213 6.5860 -2.0395 0.9680
-7.1942 3.5066 -2.0722 0.9675
-7.7277 2.1777 -2.0788 0.9674
-7.9001 1.4804 -2.0811 0.9673
-8.0069 0.7695 -2.0827 0.9673
-8.0471 0.0514 -2.0836 0.9673
-7.7669 -2.0820 -2.0820 0.9673
-7.5429 -2.7648 -2.0801 0.9674
-3.9614 -2.8259 -1.2599 0.9801
-3.0960 -3.1782 -1.1488 0.9818
-3.0741 -3.7792 -1.2613 0.9801
-3.1679 -7.1983 -2.0363 0.9680
-1.7813 -5.2841 -1.4438 0.9772
-0.7825 -5.3106 -1.3899 0.9781
0.1739 -5.3360 -1.3823 0.9782
0.6558 -5.3488 -1.3953 0.9780
1.1509 -5.3619 -1.4199 0.9776
1.8786 -6.0543 -1.6413 0.9741
2.2399 -5.4446 -1.5243 0.9760
2.8410 -5.4608 -1.5938 0.9749
4.0763 -6.3714 -1.9584 0.9692
4.6149 -5.9635 -1.9524 0.9693
5.1142 -5.5116 -1.9468 0.9694
5.5711 -5.0194 -1.9416 0.9695
6.9189 -2.7284 -1.9257 0.9697
7.1252 -2.0968 -1.9231 0.9698
7.2763 -1.4505 -1.9210 0.9698
7.3712 -0.7942 -1.9196 0.9698
7.4094 -0.1327 -1.9187 0.9698
7.3907 0.5295 -1.9185 0.9698
7.3153 1.1877 -1.9189 0.9698
7.1837 1.8373 -1.9199 0.9698
6.9966 2.4735 -1.9214 0.9698
6.1167 4.2579 -1.9296 0.9697
5.7233 4.7967 -1.9335 0.9696
4.8014 5.7657 -1.9427 0.9695
1.6289 -6.8194 -1.9848 0.9713
3.3463 -6.0854 -1.9660 0.9715
5.2092 -4.4802 -1.9451 0.9718
5.5763 -3.9884 -1.9408 0.9719
5.8987 -3.4676 -1.9371 0.9720
6.8003 0.0349 -1.9251 0.9721
6.7697 0.6421 -1.9251 0.9721
6.6870 1.2445 -1.9255 0.9721
6.5527 1.8377 -1.9266 0.9721
6.3676 2.4176 -1.9282 0.9721
5.8504 3.5206 -1.9330 0.9720
5.5217 4.0357 -1.9361 0.9720
5.1489 4.5212 -1.9398 0.9719
4.7346 4.9736 -1.9439 0.9719
4.2815 5.3892 -1.9485 0.9718
3.7927 5.7647 -1.9535 0.9717
2.7219 6.3833 -1.9645 0.9716
1.5524 6.8077 -1.9767 0.9714
0.3186 7.0213 -1.9897 0.9712
-1.5699 6.9242 -2.0099 0.9709
-2.1893 6.7788 -2.0166 0.9708
-3.3821 6.3218 -2.0297 0.9706
-3.9452 6.0128 -2.0359 0.9705
-4.4795 5.6529 -2.0418 0.9705
-5.8623 4.2959 -2.0575 0.9702
-6.2357 3.7631 -2.0618 0.9702
-6.5590 3.1970 -2.0656 0.9701
-6.8291 2.6026 -2.0689 0.9701
-7.0434 1.9848 -2.0716 0.9700
-7.1998 1.3492 -2.0737 0.9700
-7.3085 -0.6084 -2.0761 0.9700
-7.2232 -1.2584 -2.0756 0.9700
-6.6144 -3.1202 -2.0704 0.9701
-6.3002 -3.6931 -2.0674 0.9701
-3.0583 -3.7598 -1.3720 0.9801
-3.0374 -4.5028 -1.5376 0.9777
-2.9115 -5.2789 -1.7066 0.9752
-1.0367 -7.0363 -2.0134 0.9709
0.2301 -7.0608 -1.9999 0.9711
1.4727 -6.8609 -1.9865 0.9712
2.0727 -6.6800 -1.9800 0.9713
4.2290 -5.4649 -1.9562 0.9717
5.1076 -4.6018 -1.9462 0.9718
6.1079 -3.0647 -1.9346 0.9720
6.7643 -0.7288 -1.9260 0.9721
6.7996 -0.1217 -1.9252 0.9721
6.7826 0.4860 -1.9250 0.9721
6.7133 1.0900 -1.9254 0.9721
6.5922 1.6860 -1.9263 0.9721
6.4201 2.2697 -1.9277 0.9721
6.1981 2.8370 -1.9297 0.9721
5.9277 3.3836 -1.9322 0.9720
5.2490 4.3992 -1.9388 0.9719
2.0487 -6.1023 -1.9799 0.9734
2.3896 -5.4484 -1.8299 0.9754
3.0838 -5.6080 -1.9685 0.9736
3.5627 -5.2959 -1.9632 0.9736
4.0112 -4.9438 -1.9582 0.9737
5.1441 -3.6792 -1.9452 0.9739
5.4423 -3.1993 -1.9417 0.9739
5.6973 -2.6962 -1.9387 0.9740
6.0714 -1.6357 -1.9340 0.9740
6.1881 -1.0860 -1.9324 0.9741
6.2568 -0.5287 -1.9313 0.9741
6.2489 0.5927 -1.9306 0.9741
6.1724 1.1487 -1.9311 0.9741
6.0482 1.6962 -1.9321 0.9741
5.8770 2.2313 -1.9335 0.9740
5.6600 2.7501 -1.9355 0.9740
5.3986 3.2487 -1.9380 0.9740
5.0946 3.7235 -1.9409 0.9739
4.7500 4.1709 -1.9443 0.9739
4.3670 4.5875 -1.9481 0.9738
3.0158 5.6203 -1.9618 0.9737
2.5085 5.8829 -1.9671 0.9736
1.4300 6.2710 -1.9783 0.9734
0.2933 6.4644 -1.9904 0.9733
-2.0135 6.2345 -2.0151 0.9730
-3.1089 5.8111 -2.0271 0.9728
-3.6256 5.5258 -2.0328 0.9727
-4.1157 5.1937 -2.0382 0.9726
-4.9983 4.4000 -2.0482 0.9725
-5.7247 3.4547 -2.0566 0.9724
-6.4637 1.8215 -2.0655 0.9723
-6.6066 1.2380 -2.0674 0.9723
-6.6951 0.6435 -2.0688 0.9722
-6.7283 0.0430 -2.0695 0.9722
-6.4948 -1.7410 -2.0682 0.9723
-6.3084 -2.3123 -2.0666 0.9723
-6.0703 -2.8635 -2.0644 0.9723
-5.7826 -3.3897 -2.0617 0.9723
-3.2451 -2.7840 -1.3151 0.9823
-3.0402 -3.7375 -1.4819 0.9800
-2.9114 -5.2788 -1.8542 0.9751
-2.6586 -6.0411 -2.0301 0.9728
-0.9536 -6.4721 -2.0122 0.9730
-0.3706 -6.5113 -2.0060 0.9731
0.2117 -6.4981 -1.9997 0.9732
0.7888 -6.4332 -1.9935 0.9732
1.3560 -6.3176 -1.9874 0.9733
1.9090 -6.1526 -1.9814 0.9734
2.2398 -5.4443 -1.8107 0.9757
2.9559 -5.6817 -1.9699 0.9736
3.4421 -5.3802 -1.9645 0.9736
4.3226 -4.6585 -1.9547 0.9738
5.6358 -2.8279 -1.9394 0.9740
6.0336 -1.7755 -1.9345 0.9740
6.2437 -0.6727 -1.9315 0.9741
6.2765 -0.1124 -1.9308 0.9741
6.2608 0.4486 -1.9306 0.9741
6.0847 1.5562 -1.9318 0.9741
5.9255 2.0949 -1.9331 0.9740
4.8425 4.0585 -1.9434 0.9739
4.0595 4.8748 -1.9512 0.9738
3.3009 -4.9067 -1.9657 0.9754
3.7171 -4.5814 -1.9611 0.9754
4.1023 -4.2217 -1.9567 0.9755
4.4538 -3.8306 -1.9527 0.9755
4.7692 -3.4111 -1.9491 0.9756
5.4789 -2.0160 -1.9406 0.9757
5.7399 -1.0073 -1.9371 0.9757
5.8039 -0.4904 -1.9361 0.9757
5.8228 0.0299 -1.9356 0.9758
5.7257 1.0656 -1.9359 0.9757
5.4511 2.0696 -1.9382 0.9757
5.2495 2.5506 -1.9400 0.9757
5.0066 3.0128 -1.9423 0.9757
4.7241 3.4528 -1.9450 0.9756
4.0484 4.2527 -1.9517 0.9756
3.6597 4.6065 -1.9556 0.9755
1.3242 5.8069 -1.9798 0.9752
0.8025 5.9183 -1.9853 0.9751
-0.8019 5.9702 -2.0024 0.9749
-1.3358 5.8916 -2.0081 0.9749
-2.3759 5.5913 -2.0194 0.9747
-2.8735 5.3712 -2.0249 0.9746
-3.3504 5.1064 -2.0301 0.9746
-4.2257 4.4501 -2.0399 0.9745
-5.2855 3.1896 -2.0520 0.9743
-6.0973 1.1426 -2.0621 0.9742
-6.1786 0.5938 -2.0633 0.9742
-6.1882 -0.5151 -2.0641 0.9742
-6.1163 -1.0655 -2.0637 0.9742
-5.9939 -1.6068 -2.0628 0.9742
-5.8223 -2.1341 -2.0613 0.9742
-5.6029 -2.6430 -2.0593 0.9742
-3.6853 -2.6289 -1.5048 0.9811
-3.0340 -4.4978 -1.8034 0.9774
-2.9533 -5.3549 -2.0328 0.9746
-2.4571 -5.5831 -2.0276 0.9746
-1.9435 -5.7650 -2.0223 0.9747
-1.4169 -5.8993 -2.0167 0.9748
0.1959 -6.0123 -1.9996 0.9750
2.7380 -5.2628 -1.9720 0.9753
3.6127 -4.6686 -1.9622 0.9754
4.3666 -3.9342 -1.9537 0.9755
4.9787 -3.0833 -1.9466 0.9756
5.2263 -2.6224 -1.9437 0.9757
5.8223 -0.1042 -1.9357 0.9758
5.7482 0.9333 -1.9358 0.9758
5.6442 1.4435 -1.9365 0.9757
5.0730 2.8957 -1.9417 0.9757
4.4899 3.7630 -1.9473 0.9756
4.1432 4.1563 -1.9508 0.9756
1.2912 -5.4057 -1.9875 0.9767
2.6579 -4.8334 -1.9725 0.9768
3.4596 -4.2640 -1.9636 0.9769
3.8187 -3.9299 -1.9596 0.9770
5.1030 -1.8777 -1.9445 0.9772
5.2454 -1.4131 -1.9427 0.9772
5.3468 -0.9383 -1.9413 0.9772
5.4066 -0.4568 -1.9403 0.9772
5.4244 0.0279 -1.9398 0.9772
5.4000 0.5122 -1.9398 0.9772
5.2261 1.4657 -1.9410 0.9772
4.6629 2.8060 -1.9461 0.9771
3.4068 4.2882 -1.9586 0.9770
3.0164 4.5847 -1.9625 0.9770
2.6005 4.8462 -1.9668 0.9769
2.1622 5.0708 -1.9713 0.9769
1.2316 5.4011 -1.9810 0.9767
0.2524 5.5629 -1.9914 0.9766
-0.2461 5.5780 -1.9967 0.9766
-1.2412 5.4744 -2.0074 0.9764
-2.2068 5.1933 -2.0179 0.9763
-2.6685 4.9879 -2.0229 0.9763
-3.1108 4.7411 -2.0278 0.9762
-3.5299 4.4545 -2.0325 0.9761
-3.9221 4.1304 -2.0369 0.9761
-4.2839 3.7711 -2.0410 0.9760
-4.9036 2.9592 -2.0481 0.9760
-5.1558 2.5131 -2.0511 0.9759
-5.3663 2.0451 -2.0537 0.9759
-5.6548 1.0597 -2.0574 0.9759
-5.7580 0.0367 -2.0592 0.9758
-5.7387 -0.4777 -2.0593 0.9758
-5.3998 -1.9793 -2.0567 0.9759
-5.1968 -2.4514 -2.0548 0.9759
-4.9515 -2.9025 -2.0525 0.9759
-3.7228 -2.6556 -1.6353 0.9808
-3.1769 -2.7255 -1.4969 0.9824
-3.0510 -3.1320 -1.5636 0.9816
-3.0323 -4.4953 -1.9391 0.9772
-2.2815 -5.1842 -2.0255 0.9762
-0.8194 -5.5610 -2.0101 0.9764
0.6786 -5.5348 -1.9941 0.9766
1.1672 -5.4377 -1.9888 0.9767
2.1051 -5.1169 -1.9786 0.9768
3.3623 -4.3450 -1.9647 0.9769
3.7291 -4.0189 -1.9606 0.9770
4.3683 -3.2790 -1.9533 0.9771
4.6362 -2.8712 -1.9501 0.9771
5.2126 -1.5339 -1.9431 0.9772
5.3246 -1.0614 -1.9416 0.9772
5.3952 -0.5813 -1.9405 0.9772
5.4103 0.3876 -1.9397 0.9772
5.3548 0.8694 -1.9400 0.9772
4.9417 2.2619 -1.9435 0.9772
4.4707 3.1121 -1.9480 0.9771
3.5030 4.2065 -1.9576 0.9770
1.2054 -5.0462 -1.9882 0.9780
2.0740 -4.7286 -1.9787 0.9781
2.8693 -4.2651 -1.9699 0.9782
4.7705 -1.7554 -1.9480 0.9785
4.9039 -1.3211 -1.9463 0.9785
4.9989 -0.8773 -1.9450 0.9785
5.0717 0.0260 -1.9436 0.9785
4.9869 0.9281 -1.9439 0.9785
4.8861 1.3703 -1.9447 0.9785
4.5709 2.2209 -1.9475 0.9785
4.1121 3.0054 -1.9519 0.9784
3.8327 3.3654 -1.9546 0.9784
1.5920 4.9086 -1.9775 0.9781
1.1500 5.0429 -1.9821 0.9781
-0.2297 5.2054 -1.9968 0.9779
-0.6954 5.1770 -2.0017 0.9779
-1.6133 4.9953 -2.0117 0.9778
-2.4880 4.6506 -2.0212 0.9777
-3.2902 4.1520 -2.0301 0.9776
-3.6552 3.8493 -2.0342 0.9775
-4.2971 3.1489 -2.0415 0.9774
-4.5682 2.7568 -2.0447 0.9774
-4.8026 2.3409 -2.0474 0.9774
-4.9983 1.9048 -2.0498 0.9773
-5.0291 -1.8434 -2.0526 0.9773
-4.8402 -2.2833 -2.0509 0.9773
-3.0472 -3.1280 -1.6735 0.9815
-2.5558 -4.6341 -2.0281 0.9776
-1.6830 -4.9924 -2.0190 0.9777
-1.2275 -5.1106 -2.0142 0.9777
-0.7643 -5.1872 -2.0093 0.9778
-0.2972 -5.2218 -2.0043 0.9778
0.1699 -5.2145 -1.9993 0.9779
0.6334 -5.1656 -1.9944 0.9780
1.5347 -4.9462 -1.9846 0.9781
1.9656 -4.7780 -1.9799 0.9781
2.3790 -4.5728 -1.9753 0.9782
3.4842 -3.7550 -1.9630 0.9783
3.7987 -3.4225 -1.9594 0.9783
4.3333 -2.6836 -1.9532 0.9784
4.5496 -2.2828 -1.9507 0.9784
4.7300 -1.8653 -1.9485 0.9785
4.9781 -0.9924 -1.9453 0.9785
5.0711 -0.0908 -1.9437 0.9785
4.4168 2.5212 -1.9489 0.9785
3.6051 3.6165 -1.9569 0.9784
3.2733 3.9307 -1.9602 0.9783
2.3260 -4.2299 -1.9757 0.9794
3.0294 -3.7338 -1.9679 0.9794
3.3447 -3.4420 -1.9643 0.9795
3.6327 -3.1243 -1.9610 0.9795
3.8913 -2.7832 -1.9580 0.9795
4.4739 -1.6462 -1.9511 0.9796
4.5992 -1.2391 -1.9495 0.9796
4.7570 0.0244 -1.9469 0.9796
4.7357 0.4492 -1.9469 0.9797
4.6775 0.8705 -1.9472 0.9796
4.2868 2.0829 -1.9506 0.9796
2.2766 4.2427 -1.9706 0.9794
1.4916 4.5990 -1.9788 0.9793
1.0773 4.7242 -1.9831 0.9793
0.6525 4.8124 -1.9876 0.9792
0.2206 4.8626 -1.9922 0.9792
-1.0838 4.7804 -2.0062 0.9790
-1.5099 4.6752 -2.0108 0.9790
-1.9258 4.5319 -2.0153 0.9789
-2.3279 4.3513 -2.0197 0.9789
-2.7129 4.1347 -2.0240 0.9789
-4.0179 2.9443 -2.0387 0.9787
-4.2709 2.5774 -2.0416 0.9787
-4.4898 2.1884 -2.0442 0.9786
-4.8170 1.3574 -2.0482 0.9786
-2.0141 -0.1676 -0.8272 0.9913
-4.8386 -1.2971 -2.0502 0.9786
-4.7007 -1.7230 -2.0490 0.9786
-4.5244 -2.1343 -2.0474 0.9786
-4.3115 -2.5273 -2.0454 0.9786
-3.8224 -2.7267 -1.9216 0.9799
-3.0796 -3.1614 -1.8063 0.9811
-3.1356 -3.8548 -2.0337 0.9788
-2.3908 -4.3349 -2.0261 0.9788
-1.9900 -4.5218 -2.0219 0.9789
-1.5748 -4.6714 -2.0176 0.9789
-0.7154 -4.8552 -2.0086 0.9790
-0.2782 -4.8883 -2.0039 0.9791
0.1591 -4.8823 -1.9992 0.9791
1.0204 -4.7539 -1.9900 0.9792
1.4376 -4.6332 -1.9854 0.9793
2.2292 -4.2847 -1.9768 0.9793
2.9440 -3.8044 -1.9688 0.9794
4.0632 -2.5163 -1.9560 0.9796
4.4358 -1.7493 -1.9515 0.9796
4.5703 -1.3449 -1.9498 0.9796
4.7312 -0.5098 -1.9476 0.9796
4.7447 0.3400 -1.9469 0.9797
4.6106 1.1792 -1.9477 0.9796
4.4892 1.5871 -1.9488 0.9796
4.3327 1.9831 -1.9502 0.9796
4.1420 2.3643 -1.9520 0.9796
3.9186 2.7278 -1.9541 0.9796
1.0605 -4.4397 -1.9893 0.9803
1.4497 -4.3180 -1.9851 0.9803
2.1858 -3.9750 -1.9770 0.9804
2.5273 -3.7567 -1.9732 0.9804
3.6587 -2.6168 -1.9604 0.9806
4.0561 -1.9196 -1.9557 0.9806
4.3255 -1.1653 -1.9523 0.9806
4.4097 -0.7739 -1.9512 0.9807
4.4593 -0.3768 -1.9504 0.9807
4.3994 0.8187 -1.9502 0.9807
4.3102 1.2088 -1.9509 0.9807
4.1873 1.5898 -1.9520 0.9806
4.0315 1.9588 -1.9534 0.9806
3.8439 2.3132 -1.9552 0.9806
3.3789 2.9670 -1.9597 0.9806
3.1047 3.2614 -1.9625 0.9805
2.8053 3.5311 -1.9655 0.9805
2.1397 3.9876 -1.9723 0.9804
1.7784 4.1707 -1.9760 0.9804
1.4016 4.3214 -1.9799 0.9804
1.0121 4.4385 -1.9840 0.9803
-0.2020 4.5775 -1.9969 0.9802
-1.0176 4.4881 -2.0056 0.9801
-2.1847 4.0836 -2.0184 0.9800
-2.5457 3.8798 -2.0223 0.9800
-2.8874 3.6437 -2.0262 0.9799
-3.2070 3.3773 -2.0297 0.9799
-3.5015 3.0824 -2.0331 0.9799
-4.2104 2.0522 -2.0413 0.9798
-1.5288 0.5826 -0.7130 0.9929
-1.4687 0.2752 -0.6512 0.9935
-1.4651 -0.1219 -0.6407 0.9936
-1.4928 -0.4002 -0.6736 0.9933
-3.8110 -2.7186 -2.0402 0.9798
-3.1488 -2.7014 -1.8081 0.9821
-3.2578 -3.3442 -2.0347 0.9798
-2.9414 -3.6161 -2.0315 0.9799
-2.6023 -3.8578 -2.0280 0.9799
-2.2432 -4.0674 -2.0243 0.9799
-1.4780 -4.3843 -2.0164 0.9800
-0.2612 -4.5898 -2.0035 0.9801
0.5570 -4.5431 -1.9948 0.9802
0.9585 -4.4654 -1.9904 0.9803
1.3506 -4.3527 -1.9862 0.9803
1.7303 -4.2058 -1.9820 0.9804
2.0947 -4.0263 -1.9780 0.9804
2.4412 -3.8157 -1.9742 0.9804
2.7672 -3.5759 -1.9705 0.9805
3.3480 -3.0164 -1.9640 0.9805
3.5987 -2.7014 -1.9611 0.9806
3.8206 -2.3661 -1.9585 0.9806
4.1716 -1.6451 -1.9543 0.9806
4.2983 -1.2649 -1.9527 0.9806
4.2221 1.4927 -1.9517 0.9806
3.8952 2.2234 -1.9547 0.9806
3.6849 2.5651 -1.9567 0.9806
3.4452 2.8874 -1.9591 0.9806
3.1778 3.1879 -1.9617 0.9806
2.8848 3.4641 -1.9647 0.9805
0.9987 -4.1811 -1.9898 0.9812
1.3654 -4.0670 -1.9858 0.9813
1.7198 -3.9212 -1.9820 0.9813
2.0593 -3.7448 -1.9782 0.9813
2.3812 -3.5395 -1.9746 0.9814
2.6832 -3.3071 -1.9713 0.9814
3.2188 -2.7684 -1.9652 0.9815
3.6506 -2.1461 -1.9602 0.9815
4.0780 -1.0986 -1.9549 0.9816
4.2185 0.0217 -1.9527 0.9816
4.1479 0.7719 -1.9530 0.9816
3.9477 1.4988 -1.9546 0.9816
3.8007 1.8467 -1.9560 0.9815
3.6237 2.1806 -1.9576 0.9815
3.4179 2.4981 -1.9596 0.9815
3.1848 2.7966 -1.9619 0.9815
2.9262 3.0739 -1.9645 0.9815
2.3397 3.5562 -1.9704 0.9814
1.3203 4.0708 -1.9810 0.9813
0.5773 4.2575 -1.9888 0.9812
0.1951 4.3008 -1.9928 0.9812
-0.1901 4.3099 -1.9969 0.9812
-0.5755 4.2845 -2.0011 0.9811
-1.3340 4.1306 -2.0093 0.9810
-2.3951 3.6503 -2.0209 0.9809
-3.5441 2.5971 -2.0338 0.9808
-3.9591 1.9298 -2.0387 0.9808
-1.2580 0.4794 -0.6231 0.9941
-1.2711 0.2382 -0.5986 0.9943
-1.2740 0.1224 -0.5924 0.9944
-1.2728 -0.1059 -0.5912 0.9944
-1.2611 -0.4622 -0.6217 0.9941
-1.2670 -0.5977 -0.6485 0.9938
-3.8016 -2.2285 -2.0398 0.9808
-3.5837 -2.5565 -2.0377 0.9808
-3.2367 -2.7768 -1.9740 0.9814
-2.4479 -3.6290 -2.0262 0.9809
-1.7570 -3.9925 -2.0191 0.9810
-1.0148 -4.2251 -2.0113 0.9810
-0.6321 -4.2902 -2.0073 0.9811
-0.2459 -4.3206 -2.0032 0.9811
0.5245 -4.2778 -1.9949 0.9812
0.9026 -4.2052 -1.9909 0.9812
1.2720 -4.0995 -1.9868 0.9813
1.9734 -3.7931 -1.9792 0.9813
2.8932 -3.1180 -1.9689 0.9814
3.3919 -2.5462 -1.9632 0.9815
3.6013 -2.2303 -1.9608 0.9815
3.7819 -1.8976 -1.9586 0.9815
3.9326 -1.5508 -1.9568 0.9815
4.0523 -1.1925 -1.9553 0.9816
4.1401 -0.8253 -1.9541 0.9816
4.0885 1.0457 -1.9534 0.9816
3.8415 1.7583 -1.9556 0.9816
3.6721 2.0961 -1.9572 0.9815
3.4736 2.4180 -1.9591 0.9815
3.2474 2.7216 -1.9613 0.9815
0.9427 -3.9464 -1.9903 0.9821
3.0402 -2.6148 -1.9670 0.9823
3.2575 -2.3299 -1.9645 0.9823
3.4486 -2.0273 -1.9623 0.9823
3.7473 -1.3789 -1.9586 0.9824
3.8528 -1.0380 -1.9573 0.9824
3.9725 -0.3357 -1.9556 0.9824
3.9858 0.0205 -1.9552 0.9824
3.5908 1.7447 -1.9583 0.9824
3.2288 2.3598 -1.9617 0.9823
3.0084 2.6417 -1.9639 0.9823
2.2096 3.3584 -1.9719 0.9822
1.5820 3.7100 -1.9784 0.9822
1.2465 3.8433 -1.9819 0.9822
0.1842 4.0590 -1.9931 0.9821
-0.5430 4.0427 -2.0009 0.9820
-0.9037 3.9858 -2.0048 0.9820
-1.2584 3.8966 -2.0086 0.9819
-1.9388 3.6240 -2.0160 0.9819
-2.2586 3.4423 -2.0196 0.9818
-2.5613 3.2322 -2.0229 0.9818
-2.8442 2.9953 -2.0261 0.9818
-3.3410 2.4483 -2.0318 0.9817
-3.5506 2.1427 -2.0342 0.9817
-1.0862 0.5294 -0.5927 0.9946
-1.1322 0.3191 -0.5770 0.9948
-1.1349 0.0072 -0.5567 0.9950
-1.1328 -0.3037 -0.5753 0.9948
-3.5832 -2.1004 -2.0374 0.9817
-3.3780 -2.4097 -2.0354 0.9817
-2.8885 -2.9651 -2.0305 0.9817
-2.3082 -3.4217 -2.0246 0.9818
-1.3118 -3.8912 -2.0143 0.9819
-0.2320 -4.0766 -2.0029 0.9820
0.1327 -4.0731 -1.9990 0.9820
0.4950 -4.0371 -1.9951 0.9820
1.2007 -3.8697 -1.9875 0.9821
1.8632 -3.5812 -1.9802 0.9822
2.7324 -2.9447 -1.9705 0.9823
3.2039 -2.4050 -1.9651 0.9823
3.4019 -2.1068 -1.9628 0.9823
3.5728 -1.7927 -1.9608 0.9823
3.7153 -1.4651 -1.9590 0.9824
3.8285 -1.1266 -1.9576 0.9824
3.9854 -0.0714 -1.9552 0.9824
3.9756 0.2848 -1.9551 0.9824
3.6294 1.6612 -1.9579 0.9824
3.0676 2.5709 -1.9633 0.9823
2.5678 3.0835 -1.9683 0.9823
1.8393 -3.3449 -1.9803 0.9829
2.8770 -2.4745 -1.9687 0.9830
3.0828 -2.2050 -1.9663 0.9831
3.2639 -1.9187 -1.9642 0.9831
3.4190 -1.6180 -1.9623 0.9831
3.6470 -0.9825 -1.9595 0.9831
3.7183 -0.6525 -1.9585 0.9831
3.7605 -0.3177 -1.9578 0.9831
3.7731 0.0194 -1.9574 0.9831
3.7099 0.6904 -1.9577 0.9831
3.6345 1.0193 -1.9583 0.9831
3.0559 2.2335 -1.9636 0.9831
2.0907 3.1777 -1.9733 0.9830
1.4966 3.5098 -1.9795 0.9830
0.8512 3.7328 -1.9862 0.9829
0.5153 3.8006 -1.9897 0.9829
0.1742 3.8384 -1.9933 0.9828
-0.1697 3.8457 -1.9970 0.9828
-0.5134 3.8222 -2.0007 0.9828
-0.8543 3.7680 -2.0044 0.9827
-1.1895 3.6833 -2.0080 0.9827
-3.1561 2.3128 -2.0299 0.9825
-0.9632 0.5813 -0.5836 0.9949
-0.9744 0.4749 -0.5623 0.9951
-1.0377 0.0997 -0.5408 0.9953
-1.0304 0.0066 -0.5346 0.9954
-1.0375 -0.0864 -0.5401 0.9953
-1.0327 -0.1799 -0.5438 0.9953
-1.0197 -0.2733 -0.5477 0.9953
-1.0074 -0.3692 -0.5566 0.9952
-0.9796 -0.4621 -0.5619 0.9951
-3.1907 -2.2761 -2.0333 0.9825
-2.9715 -2.5493 -2.0311 0.9825
-2.1808 -3.2330 -2.0231 0.9826
-1.8805 -3.4096 -2.0200 0.9826
-1.5659 -3.5582 -2.0168 0.9826
-1.2398 -3.6776 -2.0134 0.9827
-0.5637 -3.8260 -2.0063 0.9827
-0.2194 -3.8540 -2.0026 0.9828
2.0547 -3.2116 -1.9779 0.9830
2.3297 -3.0106 -1.9748 0.9830
2.5855 -2.7864 -1.9720 0.9830
2.8202 -2.5409 -1.9693 0.9830
3.2197 -1.9939 -1.9647 0.9831
3.3816 -1.6968 -1.9628 0.9831
3.6240 -1.0664 -1.9598 0.9831
3.7524 -0.4043 -1.9579 0.9831
3.6567 0.9352 -1.9581 0.9831
3.5601 1.2586 -1.9589 0.9831
2.6774 2.6858 -1.9674 0.9831
2.4299 2.9179 -1.9699 0.9830
1.1550 -3.4404 -1.9877 0.9836
1.4553 -3.3180 -1.9844 0.9836
1.7430 -3.1697 -1.9812 0.9836
2.0160 -2.9968 -1.9782 0.9837
2.5100 -2.5830 -1.9726 0.9837
2.7272 -2.3456 -1.9702 0.9837
2.9224 -2.0902 -1.9679 0.9837
3.0943 -1.8190 -1.9659 0.9838
3.2415 -1.5340 -1.9641 0.9838
1.8854 -0.3309 -1.0484 0.9913
1.8883 -0.1596 -1.0379 0.9914
1.8734 0.0096 -1.0261 0.9915
1.8839 0.3506 -1.0495 0.9913
1.8828 0.5280 -1.0710 0.9911
3.2225 1.5658 -1.9623 0.9838
3.0720 1.8487 -1.9637 0.9838
2.4794 2.6046 -1.9696 0.9837
2.2396 2.8191 -1.9720 0.9837
1.7071 3.1813 -1.9774 0.9837
1.4183 3.3261 -1.9804 0.9836
1.1173 3.4449 -1.9835 0.9836
0.8065 3.5367 -1.9868 0.9836
0.4882 3.6007 -1.9902 0.9836
-0.8090 3.5684 -2.0040 0.9835
-1.1264 3.4879 -2.0075 0.9834
-1.4358 3.3790 -2.0108 0.9834
-2.0205 3.0794 -2.0173 0.9833
-2.5435 2.6786 -2.0231 0.9833
-2.9869 2.1888 -2.0282 0.9833
-0.9406 0.1763 -0.5241 0.9956
-0.9474 0.0911 -0.5213 0.9957
-0.8948 -0.4221 -0.5419 0.9955
-0.8679 -0.5087 -0.5510 0.9954
-2.8121 -2.4125 -2.0293 0.9832
-2.5825 -2.6510 -2.0270 0.9833
-2.3325 -2.8675 -2.0245 0.9833
-2.0643 -3.0602 -2.0218 0.9833
-0.8567 -3.5670 -2.0092 0.9834
-0.5338 -3.6231 -2.0058 0.9834
0.4434 -3.6161 -1.9954 0.9835
1.0759 -3.4676 -1.9885 0.9836
1.3790 -3.3520 -1.9852 0.9836
1.6702 -3.2103 -1.9820 0.9836
2.4506 -2.6411 -1.9733 0.9837
2.6733 -2.4085 -1.9708 0.9837
3.0523 -1.8903 -1.9664 0.9838
3.3342 -1.3148 -1.9630 0.9838
1.8853 -0.3758 -1.0529 0.9913
1.8892 -0.2036 -1.0407 0.9914
1.8770 -0.0336 -1.0282 0.9915
1.8870 0.3064 -1.0470 0.9913
3.1132 1.7771 -1.9633 0.9838
2.9445 2.0497 -1.9650 0.9838
2.7523 2.3067 -1.9668 0.9838
2.5380 2.5460 -1.9690 0.9837
0.8014 -3.3548 -1.9914 0.9842
1.0960 -3.2646 -1.9882 0.9842
1.3810 -3.1487 -1.9851 0.9842
1.9135 -2.8443 -1.9792 0.9843
2.3826 -2.4520 -1.9739 0.9843
2.5890 -2.2267 -1.9716 0.9844
2.9378 -1.7270 -1.9675 0.9844
1.7292 -0.4659 -1.0340 0.9918
1.7380 -0.3050 -1.0188 0.9919
1.7273 0.0089 -0.9973 0.9921
1.7410 0.1651 -1.0097 0.9920
1.7080 0.6485 -1.0548 0.9916
2.9168 1.7553 -1.9654 0.9844
2.7507 2.0104 -1.9671 0.9844
2.3538 2.4726 -1.9710 0.9844
2.1260 2.6761 -1.9733 0.9843
1.8809 2.8589 -1.9758 0.9843
1.0603 3.2692 -1.9843 0.9843
0.7653 3.3560 -1.9874 0.9842
-0.1525 3.4557 -1.9971 0.9842
-0.7674 3.3846 -2.0037 0.9841
-1.0683 3.3079 -2.0070 0.9841
-1.3617 3.2044 -2.0102 0.9840
-1.9158 2.9199 -2.0163 0.9840
-2.1720 2.7410 -2.0191 0.9840
-2.6317 2.3167 -2.0243 0.9839
-0.8023 0.5879 -0.5742 0.9954
-0.8103 0.4890 -0.5464 0.9956
-0.8377 0.4083 -0.5380 0.9957
-0.8565 0.3264 -0.5292 0.9958
-0.8665 0.2442 -0.5198 0.9959
-0.8783 0.1646 -0.5159 0.9959
-0.8783 0.0056 -0.5071 0.9960
-0.8794 -0.1532 -0.5153 0.9959
-0.8409 -0.3967 -0.5368 0.9957
-2.6656 -2.2868 -2.0277 0.9839
-2.4480 -2.5130 -2.0255 0.9839
-2.2112 -2.7184 -2.0231 0.9839
-1.9571 -2.9013 -2.0205 0.9840
-1.6878 -3.0603 -2.0178 0.9840
-1.4057 -3.1942 -2.0148 0.9840
-1.1131 -3.3019 -2.0118 0.9840
-0.8125 -3.3828 -2.0086 0.9841
-0.5063 -3.4363 -2.0054 0.9841
0.4206 -3.4306 -1.9955 0.9842
0.7242 -3.3738 -1.9922 0.9842
1.0209 -3.2903 -1.9890 0.9842
1.5851 -3.0467 -1.9828 0.9843
1.8481 -2.8887 -1.9799 0.9843
2.0958 -2.7083 -1.9771 0.9843
2.3262 -2.5070 -1.9746 0.9843
2.7288 -2.0484 -1.9700 0.9844
2.8979 -1.7947 -1.9680 0.9844
3.0440 -1.5273 -1.9662 0.9844
1.7340 -0.3457 -1.0208 0.9919
1.7417 -0.1877 -1.0114 0.9919
1.7304 -0.0310 -0.9992 0.9920
1.7070 0.6035 -1.0453 0.9917
2.4095 2.4171 -1.9704 0.9844
2.1865 2.6256 -1.9727 0.9843
