ply
format ascii 1.0
element vertex 1328
property float32 x
property float32 y
property float32 z
property float32 I
end_header
8.0773 -16.5631 3.2493 0.9279
9.0155 -14.9436 3.0774 0.9316
13.8974 -11.0450 3.1301 0.9304
15.4547 -10.1791 3.2631 0.9276
16.5379 -8.8917 3.3108 0.9266
17.3181 -7.4081 3.3213 0.9263
0.2749 18.7317 3.3033 0.9267
-3.8649 14.9707 2.7263 0.9391
-4.9887 14.0246 2.6247 0.9413
-5.9932 13.0384 2.5303 0.9434
-7.0511 12.3160 2.5024 0.9440
-7.8926 11.3150 2.4326 0.9455
-8.9158 10.6245 2.4456 0.9452
-10.7554 8.9568 2.4680 0.9447
-12.5763 7.1373 2.5498 0.9430
-14.6789 5.1592 2.7435 0.9388
-17.2993 2.7877 3.0897 0.9313
4.4602 -19.0690 3.4531 0.9235
9.8208 -14.7892 3.1303 0.9304
12.9954 -11.3356 3.0407 0.9324
7.9069 -16.2137 2.7635 0.9296
12.4431 -11.8416 2.6314 0.9329
13.7496 -10.9274 2.6906 0.9314
16.1841 -8.7015 2.8149 0.9283
-3.8639 14.9670 2.3680 0.9394
-7.0494 12.3132 2.1736 0.9442
-9.7044 9.6679 2.0985 0.9461
-11.5478 7.9905 2.1513 0.9448
-12.5733 7.1356 2.2147 0.9432
-16.1116 4.0947 2.5467 0.9349
-17.2944 2.7869 2.6836 0.9316
8.4085 -15.4989 2.7012 0.9311
9.6939 -14.5980 2.6845 0.9315
11.9917 -12.5061 2.6543 0.9323
12.9983 -11.3381 2.6424 0.9326
18.4398 -6.9589 3.0193 0.9233
9.0195 -14.9504 2.2737 0.9320
13.8189 -10.9825 2.2986 0.9313
16.2678 -8.7465 2.4052 0.9282
17.3266 -7.4117 2.4540 0.9268
-1.3066 17.5217 2.2880 0.9316
-2.6562 16.0970 2.1245 0.9363
-3.8629 14.9632 2.0124 0.9396
-5.0301 14.1412 1.9545 0.9413
-5.9904 13.0323 1.8678 0.9438
-11.5451 7.9887 1.8282 0.9449
-12.5200 7.1054 1.8746 0.9436
-13.5541 6.1685 1.9392 0.9417
9.7431 -14.6722 2.2935 0.9314
12.0528 -12.5698 2.2677 0.9322
13.0012 -11.3406 2.2466 0.9328
14.3850 -10.4483 2.3152 0.9308
-9.9407 -17.1056 2.1245 0.9235
9.0215 -14.9537 1.8753 0.9322
12.4486 -11.8469 1.8453 0.9332
16.2705 -8.7480 1.9837 0.9284
17.3307 -7.4135 2.0241 0.9270
0.2746 18.7147 2.0098 0.9275
-3.8620 14.9595 1.6590 0.9397
-6.8664 11.9934 1.4840 0.9459
-7.8873 11.3074 1.4804 0.9460
-8.7968 10.4827 1.4695 0.9464
-10.6118 8.8372 1.4829 0.9460
-14.4167 5.0671 1.6409 0.9404
-17.2847 2.7853 1.8800 0.9320
-9.1054 -17.3590 2.1049 0.9242
4.4635 -19.0834 2.1045 0.9242
6.0210 -18.2377 2.0624 0.9256
12.0546 -12.5717 1.8703 0.9323
13.0040 -11.3431 1.8530 0.9329
5.2927 -18.7210 1.6469 0.9249
7.9495 -16.3010 1.5353 0.9298
9.0236 -14.9570 1.4787 0.9323
12.4513 -11.8495 1.4551 0.9333
13.8230 -10.9858 1.4947 0.9316
16.2731 -8.7494 1.5641 0.9285
17.3349 -7.4153 1.5961 0.9271
-1.2750 17.0974 1.4514 0.9335
-5.9877 13.0264 1.2136 0.9441
-6.9032 12.0577 1.1762 0.9458
-8.8795 10.5813 1.1693 0.9461
-9.6980 9.6615 1.1588 0.9465
-10.6521 8.8708 1.1735 0.9459
-12.5646 7.1307 1.2230 0.9437
-13.4875 6.1382 1.2544 0.9422
-14.5543 5.1154 1.3059 0.9399
-15.8944 4.0395 1.3883 0.9363
-9.0712 -17.2938 1.6531 0.9246
4.4647 -19.0882 1.6595 0.9243
6.0245 -18.2484 1.6268 0.9258
13.0069 -11.3456 1.4611 0.9331
16.6858 -8.0595 1.5687 0.9283
-9.6958 -16.6843 1.1966 0.9256
5.2935 -18.7241 1.2066 0.9250
7.9508 -16.3036 1.1248 0.9299
9.0256 -14.9603 1.0835 0.9324
13.8250 -10.9874 1.0951 0.9317
16.2758 -8.7508 1.1459 0.9286
0.2745 18.7035 1.1599 0.9278
-2.6535 16.0807 1.0107 0.9368
-3.8601 14.9521 0.9576 0.9400
-4.9827 14.0079 0.9220 0.9422
-5.9863 13.0234 0.8888 0.9442
-7.8838 11.3025 0.8545 0.9463
-9.6959 9.6594 0.8487 0.9466
-10.6498 8.8689 0.8594 0.9460
-11.5374 7.9833 0.8700 0.9453
-13.4937 6.1411 0.9193 0.9423
-16.0946 4.0904 1.0298 0.9356
12.0583 -12.5756 1.0804 0.9326
13.0097 -11.3481 1.0705 0.9332
16.6777 -8.0556 1.1485 0.9285
-9.6730 -16.6451 0.7591 0.9258
5.2944 -18.7271 0.7674 0.9251
9.0275 -14.9637 0.6891 0.9324
16.2784 -8.7522 0.7288 0.9287
17.3432 -7.4188 0.7438 0.9273
0.2744 18.6980 0.7374 0.9279
-1.2938 17.3496 0.6860 0.9327
-3.8591 14.9485 0.6088 0.9401
-4.9816 14.0046 0.5861 0.9422
-5.9849 13.0204 0.5650 0.9442
-7.8821 11.3000 0.5433 0.9463
-8.9041 10.6105 0.5462 0.9461
-11.5348 7.9815 0.5531 0.9454
-12.5588 7.1274 0.5694 0.9438
-13.4999 6.1439 0.5848 0.9424
-14.5471 5.1129 0.6080 0.9401
-17.2702 2.7830 0.6898 0.9324
4.4669 -19.0976 0.7734 0.9245
6.0316 -18.2698 0.7586 0.9259
9.7489 -14.6809 0.6949 0.9319
12.0601 -12.5775 0.6871 0.9326
18.3164 -6.9124 0.7720 0.9246
5.2953 -18.7302 0.3288 0.9251
12.4594 -11.8572 0.2905 0.9335
16.2811 -8.7536 0.3122 0.9287
17.3473 -7.4206 0.3187 0.9273
-2.6517 16.0699 0.2751 0.9369
-8.9021 10.6082 0.2339 0.9461
-11.5322 7.9797 0.2369 0.9454
-12.6395 7.1732 0.2455 0.9435
-13.5061 6.1467 0.2507 0.9424
-17.2654 2.7822 0.2954 0.9324
4.4680 -19.1024 0.3314 0.9245
6.0351 -18.2806 0.3252 0.9259
12.0620 -12.5794 0.2944 0.9327
16.6615 -8.0478 0.3126 0.9286
5.2961 -18.7332 -0.1096 0.9251
7.9545 -16.3113 -0.1022 0.9300
9.0315 -14.9703 -0.0984 0.9325
12.4621 -11.8598 -0.0969 0.9335
13.8311 -10.9922 -0.0995 0.9318
16.2837 -8.7551 -0.1041 0.9287
17.3514 -7.4224 -0.1063 0.9273
0.2742 18.6869 -0.1052 0.9280
-1.3044 17.4927 -0.0988 0.9322
-7.0022 12.2306 -0.0793 0.9452
-8.9002 10.6059 -0.0780 0.9461
-9.6896 9.6531 -0.0770 0.9468
-12.6468 7.1773 -0.0818 0.9435
-13.5123 6.1495 -0.0836 0.9423
-14.5400 5.1104 -0.0868 0.9402
-17.2607 2.7815 -0.0984 0.9325
4.4691 -19.1071 -0.1105 0.9245
9.7517 -14.6852 -0.0992 0.9319
16.6648 -8.0494 -0.1042 0.9286
18.3223 -6.9146 -0.1103 0.9247
-9.6632 -16.6282 -0.5415 0.9259
7.9558 -16.3138 -0.5111 0.9299
9.0335 -14.9736 -0.4924 0.9324
12.4648 -11.8623 -0.4845 0.9335
13.8331 -10.9938 -0.4975 0.9317
17.3556 -7.4241 -0.5315 0.9272
9.1108 2.9047 -0.2693 0.9625
8.9384 3.7554 -0.2730 0.9619
0.2742 18.6814 -0.5261 0.9280
-2.6499 16.0592 -0.4583 0.9369
-3.8563 14.9375 -0.4344 0.9401
-5.0058 14.0729 -0.4206 0.9420
-7.0006 12.2279 -0.3967 0.9452
-7.8770 11.2926 -0.3877 0.9464
-9.6875 9.6511 -0.3850 0.9468
-12.6541 7.1815 -0.4097 0.9434
-16.0266 4.0731 -0.4656 0.9360
-9.0346 -17.2240 -0.5477 0.9251
4.3878 -18.7594 -0.5425 0.9258
6.0422 -18.3020 -0.5427 0.9258
8.4236 -15.5267 -0.4974 0.9318
9.7532 -14.6873 -0.4964 0.9319
13.0211 -11.3580 -0.4865 0.9332
16.6687 -8.0512 -0.5212 0.9286
-9.6703 -16.6403 -0.9761 0.9258
-8.3848 -17.9347 -1.0040 0.9238
5.2799 -18.6759 -0.9843 0.9252
9.0355 -14.9769 -0.8871 0.9323
12.4675 -11.8649 -0.8728 0.9334
16.9097 -7.2334 -0.9327 0.9290
-1.2785 17.1452 -0.8719 0.9335
-6.9990 12.2252 -0.7144 0.9451
-7.8752 11.2901 -0.6981 0.9464
-8.8964 10.6013 -0.7019 0.9461
-9.6854 9.6490 -0.6933 0.9467
-10.6975 8.9086 -0.7060 0.9458
-11.5246 7.9744 -0.7107 0.9454
-12.4604 7.0716 -0.7266 0.9442
-13.4207 6.1078 -0.7478 0.9427
-15.6744 3.9836 -0.8202 0.9373
-17.0882 2.7537 -0.8778 0.9330
-19.3456 1.3694 -0.9836 0.9253
-9.0361 -17.2268 -0.9865 0.9250
4.3895 -18.7669 -0.9774 0.9257
5.9970 -18.1650 -0.9701 0.9262
8.4254 -15.5301 -0.8960 0.9317
9.7546 -14.6895 -0.8943 0.9318
12.0675 -12.5851 -0.8842 0.9325
13.0239 -11.3605 -0.8765 0.9331
18.3282 -6.9168 -0.9935 0.9245
5.2808 -18.6790 -1.4233 0.9251
7.9324 -16.2659 -1.3269 0.9300
9.0375 -14.9802 -1.2828 0.9322
12.4703 -11.8675 -1.2622 0.9333
16.2387 -8.7309 -1.3518 0.9287
8.7127 2.7778 -0.6705 0.9640
8.1875 3.4398 -0.6512 0.9650
-1.2868 17.2564 -1.2688 0.9330
-2.6394 15.9951 -1.1887 0.9370
-6.9975 12.2224 -1.0327 0.9451
-8.7091 10.3782 -0.9934 0.9471
-11.4597 7.9295 -1.0218 0.9456
-12.4502 7.0657 -1.0496 0.9442
-13.5107 6.1488 -1.0884 0.9422
-15.8655 4.0322 -1.2003 0.9365
-19.3457 1.3694 -1.4220 0.9252
12.0303 -12.5463 -1.2745 0.9327
14.3586 -10.4291 -1.3012 0.9313
18.2708 -6.8952 -1.4319 0.9247
-18.1221 -4.4811 -1.7922 0.9277
-13.5974 -13.3721 -1.8309 0.9262
-10.8546 -15.3489 -1.8048 0.9272
-9.3891 -16.1565 -1.7940 0.9277
-6.3157 -17.3981 -1.7770 0.9283
-1.3708 -16.9070 -1.6285 0.9341
0.1391 -16.9488 -1.6272 0.9342
1.6470 -16.8716 -1.6275 0.9341
3.1452 -16.6758 -1.6292 0.9341
4.6257 -16.3619 -1.6324 0.9340
7.5024 -15.3842 -1.6432 0.9335
8.8826 -14.7234 -1.6508 0.9332
12.4730 -11.8701 -1.6531 0.9331
14.8717 -9.7951 -1.7096 0.9309
15.8277 -8.5099 -1.7252 0.9303
18.0563 -4.1516 -1.7787 0.9283
18.9247 -0.9051 -1.8189 0.9267
7.9918 1.7832 -0.7861 0.9676
-1.2865 17.2517 -1.6608 0.9328
-2.6438 16.0222 -1.5590 0.9368
-3.8534 14.9265 -1.4800 0.9399
-4.9546 13.9289 -1.4193 0.9423
-7.8718 11.2852 -1.3210 0.9462
-8.7796 10.4622 -1.3112 0.9466
-9.6812 9.6448 -1.3120 0.9466
-12.4914 7.0891 -1.3789 0.9439
-15.8614 4.0311 -1.5712 0.9364
-17.2415 2.7784 -1.6766 0.9322
-19.2083 -0.3543 -1.8444 0.9257
-18.8805 -2.0384 -1.8232 0.9265
-18.4134 -3.6685 -1.8025 0.9273
-17.8151 -5.2341 -1.7826 0.9281
-15.4677 -11.5690 -1.8544 0.9253
-14.2538 -12.7892 -1.8385 0.9259
-12.9562 -13.8964 -1.8240 0.9265
-11.5846 -14.8868 -1.8110 0.9270
-7.1201 -17.1274 -1.7807 0.9282
-5.5458 -17.6237 -1.7738 0.9284
-0.6365 -16.9423 -1.6277 0.9341
0.8734 -16.9261 -1.6272 0.9342
6.7771 -15.6793 -1.6399 0.9337
8.1795 -15.0769 -1.6467 0.9334
9.5366 -14.3612 -1.6550 0.9331
10.8400 -13.5346 -1.6648 0.9327
12.0321 -12.5483 -1.6690 0.9325
13.0296 -11.3655 -1.6599 0.9329
14.3445 -10.4188 -1.7021 0.9312
16.2569 -7.8523 -1.7333 0.9300
17.0599 -6.4382 -1.7506 0.9293
-15.0620 -3.7244 -1.8430 0.9394
-14.7269 -6.5876 -1.9164 0.9371
-13.1148 -8.9499 -1.8860 0.9380
-12.1772 -10.0082 -1.8723 0.9385
-11.1625 -10.9775 -1.8597 0.9389
-8.9337 -12.6326 -1.8379 0.9396
-7.7357 -13.3113 -1.8288 0.9399
-5.2123 -14.3584 -1.8145 0.9403
-1.2266 -15.1281 -1.8029 0.9407
0.1242 -15.1398 -1.7985 0.9408
1.3970 -14.3102 -1.7079 0.9437
9.4497 -10.7513 -1.7003 0.9440
9.1878 -8.7437 -1.5066 0.9502
11.3431 -9.0149 -1.7211 0.9433
12.1846 -8.0252 -1.7331 0.9429
8.1251 3.4136 -1.0469 0.9651
10.1652 5.3809 -1.3662 0.9547
13.1288 12.3333 -2.1397 0.9300
10.8868 14.6706 -2.1701 0.9291
9.5962 15.6760 -2.1833 0.9286
6.2172 15.9772 -2.0365 0.9333
1.7912 17.1980 -2.0539 0.9327
-1.2861 17.2469 -2.0544 0.9327
-3.8525 14.9228 -1.8307 0.9398
-5.9754 12.9997 -1.6995 0.9440
-6.9414 12.1244 -1.6595 0.9453
-8.7777 10.4599 -1.6220 0.9465
-9.6790 9.6427 -1.6229 0.9465
-11.5168 7.9691 -1.6636 0.9451
-13.5189 6.1525 -1.7643 0.9419
-14.6316 5.1426 -1.8423 0.9394
-15.4717 3.9321 -1.8962 0.9377
-15.6135 2.5160 -1.8786 0.9383
-15.6273 1.1062 -1.8609 0.9388
-15.5165 -0.2862 -1.8435 0.9394
-15.2856 -1.6503 -1.8263 0.9399
-15.6527 -4.5988 -1.9379 0.9364
-13.5637 -8.3735 -1.8935 0.9378
-10.6433 -11.4156 -1.8540 0.9391
-8.3570 -12.9755 -1.8333 0.9397
-5.8739 -14.1297 -1.8177 0.9402
-0.5696 -15.1609 -1.8022 0.9407
0.7675 -14.8734 -1.7691 0.9418
1.9649 -13.8767 -1.6648 0.9451
3.1959 -13.6638 -1.6669 0.9450
4.4079 -13.3517 -1.6702 0.9449
6.7464 -12.4353 -1.6805 0.9446
11.7620 -8.5431 -1.7268 0.9431
13.2862 -6.4174 -1.7527 0.9423
-12.9608 -4.4614 -1.9422 0.9461
-12.4223 -5.5567 -1.9282 0.9465
-11.7967 -6.5944 -1.9149 0.9469
-9.4594 -9.3027 -1.8798 0.9478
-8.5490 -10.0546 -1.8700 0.9481
-6.5721 -11.3091 -1.8533 0.9485
-4.4335 -12.2131 -1.8410 0.9489
-1.0443 -12.8801 -1.8310 0.9491
0.1060 -12.9149 -1.8300 0.9492
1.2549 -12.8555 -1.8301 0.9492
1.2576 -3.2948 -0.4997 0.9859
1.7063 -2.8284 -0.4680 0.9867
8.8438 -8.4163 -1.7298 0.9519
10.3114 -6.7915 -1.7494 0.9513
12.5848 -4.1022 -1.8755 0.9479
13.3649 -3.0730 -1.9431 0.9461
14.0479 0.5808 -1.9921 0.9448
14.0510 1.8431 -2.0079 0.9444
7.6626 1.7097 -1.1124 0.9688
7.2071 2.2978 -1.0718 0.9699
12.3477 8.0186 -2.0861 0.9423
10.8759 10.2170 -2.1143 0.9415
7.9218 12.9409 -2.1499 0.9405
6.7686 13.6545 -2.1594 0.9403
5.5475 14.2561 -2.1675 0.9401
-1.0590 14.2016 -2.0178 0.9441
-2.3170 14.0413 -2.0164 0.9441
-3.5521 13.7594 -2.0135 0.9442
-6.7696 11.8243 -1.9305 0.9464
-10.5862 8.8159 -1.9520 0.9459
-12.6600 4.4496 -1.9014 0.9472
-13.0765 0.9256 -1.8574 0.9484
-13.0038 -0.2398 -1.8428 0.9488
-12.1285 -6.0691 -1.9216 0.9467
-11.4626 -7.0764 -1.9087 0.9470
-9.9036 -8.8859 -1.8853 0.9477
-7.0974 -11.0197 -1.8572 0.9484
-4.9949 -12.0154 -1.8437 0.9488
-1.6332 -12.8256 -1.8319 0.9491
-0.4850 -12.9088 -1.8303 0.9492
0.6655 -12.8977 -1.8299 0.9492
1.8114 -12.7926 -1.8307 0.9491
1.1490 -3.4803 -0.5193 0.9853
1.8666 -2.8109 -0.4781 0.9865
2.2720 -2.8368 -0.5150 0.9854
9.2239 -8.0458 -1.7343 0.9518
9.9593 -7.2338 -1.7441 0.9515
10.6280 -6.3574 -1.7547 0.9512
11.2242 -5.4215 -1.7661 0.9509
-11.5588 -2.8582 -1.9615 0.9529
-11.1863 -3.8505 -1.9489 0.9532
-10.7321 -4.8007 -1.9368 0.9535
-10.2011 -5.7024 -1.9253 0.9537
-9.5985 -6.5503 -1.9144 0.9540
-8.2003 -8.0645 -1.8947 0.9544
-7.4163 -8.7224 -1.8861 0.9546
-6.5835 -9.3093 -1.8784 0.9548
-5.7081 -9.8223 -1.8715 0.9550
-4.7962 -10.2588 -1.8656 0.9551
-1.9039 -11.0906 -1.8538 0.9554
-0.9084 -11.2044 -1.8519 0.9555
1.0917 -11.1837 -1.8512 0.9555
1.1274 -2.9537 -0.5208 0.9873
10.2528 -5.5125 -1.9177 0.9539
10.7647 -4.6048 -1.9288 0.9536
11.5526 -2.6563 -1.9528 0.9531
12.0819 0.4995 -1.9921 0.9522
7.8400 3.2939 -1.4009 0.9661
11.0493 5.8489 -2.0595 0.9506
9.9572 7.8089 -2.0846 0.9500
9.2743 8.7124 -2.0963 0.9497
8.5062 9.5525 -2.1072 0.9495
7.6587 10.3204 -2.1172 0.9492
5.7538 11.6073 -2.1342 0.9488
4.7131 12.1119 -2.1410 0.9487
3.6260 12.5158 -2.1466 0.9485
2.3778 12.1742 -2.0435 0.9510
1.2509 12.0101 -1.9892 0.9522
0.1773 12.0825 -1.9907 0.9522
-0.8987 12.0511 -1.9908 0.9522
-1.9663 11.9163 -1.9896 0.9522
-5.9489 10.3909 -1.9725 0.9526
-7.6369 9.1005 -1.9571 0.9530
-9.0406 7.5287 -1.9381 0.9534
-10.5226 4.7889 -1.9046 0.9542
-11.0608 2.8111 -1.8801 0.9548
-11.1918 1.8035 -1.8675 0.9551
-11.2316 0.7950 -1.8549 0.9554
-11.2499 -0.2075 -1.8536 0.9554
-11.9426 -1.2894 -1.9789 0.9525
-10.9752 -4.3184 -1.9430 0.9533
-9.9166 -6.1220 -1.9199 0.9539
-9.2811 -6.9417 -1.9093 0.9541
-8.5821 -7.7002 -1.8995 0.9543
-7.8254 -8.3932 -1.8904 0.9545
-7.0168 -9.0170 -1.8822 0.9547
-6.1625 -9.5683 -1.8749 0.9549
-5.2686 -10.0443 -1.8685 0.9551
-3.3866 -10.7619 -1.8586 0.9553
-2.4109 -11.0001 -1.8552 0.9554
-1.4206 -11.1563 -1.8527 0.9554
-0.4219 -11.2299 -1.8513 0.9555
0.5790 -11.2207 -1.8509 0.9555
2.5622 -10.9543 -1.8533 0.9554
1.2155 -2.8121 -0.5047 0.9877
1.6956 -2.5534 -0.5049 0.9877
1.9549 -2.4409 -0.5152 0.9874
8.6323 -7.5297 -1.8871 0.9546
9.3215 -6.7705 -1.8979 0.9544
9.9547 -5.9546 -1.9109 0.9541
10.5112 -5.0771 -1.9230 0.9538
-8.9778 -5.0186 -1.9332 0.9590
-8.4532 -5.7687 -1.9236 0.9592
-7.8692 -6.4675 -1.9146 0.9594
-7.2307 -7.1109 -1.9062 0.9596
-6.5429 -7.6952 -1.8985 0.9597
-5.0404 -8.6734 -1.8856 0.9600
-1.6831 -9.8043 -1.8698 0.9603
-0.8032 -9.9061 -1.8681 0.9604
0.9653 -9.8882 -1.8674 0.9604
0.8825 -3.1217 -0.6098 0.9869
1.2847 -2.6343 -0.5509 0.9881
1.4742 -2.4435 -0.5364 0.9885
1.9918 -2.2661 -0.5671 0.9878
2.4221 -2.3050 -0.6285 0.9865
8.5188 -5.6108 -1.9173 0.9593
9.0276 -4.8537 -1.9265 0.9591
9.4717 -4.0517 -1.9364 0.9589
10.3763 -1.4294 -1.9688 0.9583
10.5236 -0.5033 -1.9803 0.9580
10.5708 1.3866 -2.0039 0.9575
7.1853 2.2909 -1.4175 0.9698
9.6436 5.1048 -2.0509 0.9566
9.2007 5.9749 -2.0620 0.9563
8.6770 6.8049 -2.0727 0.9561
7.4023 8.3128 -2.0922 0.9557
6.6606 8.9755 -2.1008 0.9555
4.9987 10.0841 -2.1155 0.9552
4.0929 10.5181 -2.1214 0.9551
3.1478 10.8651 -2.1262 0.9550
0.1538 10.4833 -1.9707 0.9582
-0.7797 10.4560 -1.9708 0.9582
-4.3557 9.4759 -1.9602 0.9584
-5.1678 9.0265 -1.9550 0.9586
-6.6409 7.9136 -1.9418 0.9588
-7.2892 7.2618 -1.9340 0.9590
-7.8715 6.5552 -1.9254 0.9592
-8.3834 5.8009 -1.9162 0.9594
-8.8213 5.0063 -1.9065 0.9596
-9.6679 2.4571 -1.8750 0.9602
-9.7907 1.5777 -1.8640 0.9604
-10.2209 0.7235 -1.9259 0.9592
-10.6047 -0.1956 -1.9936 0.9577
-10.4872 -1.1322 -1.9826 0.9580
-9.6485 -3.7964 -1.9489 0.9587
-7.5651 -6.7877 -1.9104 0.9595
-6.9019 -7.4028 -1.9024 0.9596
-4.6532 -8.8712 -1.8829 0.9600
-2.9929 -9.5108 -1.8741 0.9602
0.7631 -3.2624 -0.6298 0.9865
0.9886 -2.9946 -0.5928 0.9872
1.3787 -2.5413 -0.5434 0.9883
8.2339 -5.9806 -1.9128 0.9594
9.2520 -4.4689 -1.9312 0.9590
-8.7595 -3.0152 -1.9582 0.9628
-8.4152 -3.7643 -1.9487 0.9630
-7.5453 -5.1491 -1.9309 0.9633
-6.4603 -6.3533 -1.9153 0.9636
-5.8483 -6.8783 -1.9084 0.9638
-3.7909 -8.1085 -1.8920 0.9641
-3.0479 -8.3960 -1.8881 0.9641
1.2661 -2.5963 -0.6106 0.9883
1.4383 -2.3840 -0.5885 0.9887
2.2233 -2.1159 -0.6488 0.9875
7.6065 -5.0099 -1.9253 0.9634
8.4484 -3.6139 -1.9423 0.9631
9.0425 -2.0791 -1.9613 0.9628
8.7232 1.9464 -1.8893 0.9641
8.8715 3.7272 -2.0340 0.9614
8.5470 4.5244 -2.0442 0.9612
7.6811 6.0239 -2.0634 0.9609
6.5456 7.3507 -2.0805 0.9606
5.8869 7.9330 -2.0882 0.9604
5.1746 8.4530 -2.0950 0.9603
4.4145 8.9056 -2.1010 0.9602
3.6133 9.2858 -2.1062 0.9601
1.9168 9.8138 -2.1136 0.9599
0.1465 9.9856 -2.1110 0.9600
-0.7015 9.4078 -1.9941 0.9622
-1.5054 9.1227 -1.9544 0.9629
-3.8451 8.3652 -1.9461 0.9631
-5.2401 7.5123 -1.9361 0.9632
-6.4449 6.4207 -1.9230 0.9635
-7.8124 4.4337 -1.8988 0.9639
-8.1373 3.7033 -1.8898 0.9641
-8.3930 2.9499 -1.8805 0.9643
-9.4601 0.6696 -2.0047 0.9620
-9.4322 -0.1740 -1.9941 0.9622
-8.9112 -2.6181 -1.9633 0.9627
-8.6000 -3.3838 -1.9535 0.9629
-7.7905 -4.8094 -1.9353 0.9633
-7.2999 -5.4599 -1.9269 0.9634
-6.7575 -6.0631 -1.9191 0.9636
-6.1679 -6.6155 -1.9119 0.9637
-5.5357 -7.1137 -1.9053 0.9638
-4.1629 -7.9364 -1.8944 0.9640
-2.6788 -8.5128 -1.8864 0.9642
-1.9078 -8.7046 -1.8837 0.9642
-1.1245 -8.8306 -1.8817 0.9643
-0.1910 -5.0847 -1.0756 0.9794
0.5923 -4.1831 -0.8930 0.9829
0.9733 -2.9482 -0.6563 0.9874
2.0330 -2.1202 -0.6209 0.9881
2.4158 -2.1072 -0.6776 0.9870
7.8325 -4.6852 -1.9292 0.9634
8.2547 -3.9872 -1.9378 0.9632
-8.1390 -2.0126 -1.9705 0.9661
-7.8917 -2.7165 -1.9615 0.9663
-7.5852 -3.3930 -1.9529 0.9664
-7.2225 -4.0374 -1.9447 0.9666
-6.8071 -4.6453 -1.9369 0.9667
-6.3426 -5.2129 -1.9295 0.9668
-5.8329 -5.7363 -1.9227 0.9669
-2.7557 -7.5911 -1.8980 0.9674
-2.0661 -7.7944 -1.8951 0.9674
-1.3627 -7.9383 -1.8930 0.9674
-0.6504 -8.0222 -1.8916 0.9675
0.8551 -3.0245 -0.7387 0.9872
1.7715 -2.0156 -0.6307 0.9890
2.0744 -1.9741 -0.6730 0.9883
2.4565 -1.9523 -0.7374 0.9872
3.3336 -1.7923 -0.8895 0.9846
7.6175 -3.2585 -1.9472 0.9665
8.1453 -1.8728 -1.9643 0.9662
8.3177 -1.1458 -1.9733 0.9661
8.4259 -0.4030 -1.9826 0.9659
8.3511 1.8634 -2.0110 0.9655
7.6669 4.0584 -2.0388 0.9650
7.3066 4.7449 -2.0475 0.9648
6.4003 6.0125 -2.0639 0.9646
5.8608 6.5817 -2.0712 0.9644
5.2690 7.1003 -2.0780 0.9643
3.9486 7.9657 -2.0895 0.9641
3.2312 8.3036 -2.0941 0.9641
2.4838 8.5735 -2.0978 0.9640
1.7134 8.7725 -2.1007 0.9639
0.9268 8.8985 -2.1027 0.9639
0.1313 8.9500 -2.1037 0.9639
-1.4393 8.7225 -2.0777 0.9643
-2.1041 8.1504 -1.9783 0.9660
-3.4383 7.4801 -1.9348 0.9667
-4.0816 7.1293 -1.9307 0.9668
-4.6882 6.7210 -1.9259 0.9669
-5.7702 5.7485 -1.9143 0.9671
-6.6491 4.6008 -1.9003 0.9673
-7.3753 3.3565 -1.9044 0.9673
-8.3251 2.1158 -2.0188 0.9653
-8.5029 0.6019 -2.0034 0.9656
-8.4823 -0.1564 -1.9939 0.9657
-7.7498 -3.0493 -1.9573 0.9664
-6.5871 -4.9267 -1.9332 0.9668
-5.5699 -5.9740 -1.9196 0.9670
-5.0006 -6.4261 -1.9137 0.9671
-4.3967 -6.8266 -1.9084 0.9672
-3.7626 -7.1732 -1.9037 0.9673
-2.4222 -7.6974 -1.8965 0.9674
-1.7253 -7.8719 -1.8940 0.9674
-1.0170 -7.9867 -1.8922 0.9675
0.2013 -3.9002 -0.9179 0.9841
0.9583 -2.9028 -0.7185 0.9875
1.3326 -2.4563 -0.6568 0.9886
1.4967 -2.2539 -0.6359 0.9889
1.9085 -1.9904 -0.6481 0.9887
2.7360 -1.9873 -0.7947 0.9862
3.1371 -1.8765 -0.8591 0.9851
7.7675 -2.9314 -1.9512 0.9665
-7.3952 -1.8286 -1.9724 0.9690
-6.8975 -3.0854 -1.9564 0.9693
-6.5703 -3.6728 -1.9489 0.9694
-4.2774 -6.0483 -1.9181 0.9699
-3.7133 -6.3898 -1.9135 0.9699
-2.5123 -6.9206 -1.9063 0.9700
0.0325 -3.9662 -1.0269 0.9837
1.0458 -2.7399 -0.7593 0.9880
1.3988 -2.3186 -0.7011 0.9889
1.5625 -2.1342 -0.6848 0.9891
1.9577 -1.8630 -0.6997 0.9889
2.2827 -1.8142 -0.7550 0.9880
2.9032 -1.5609 -0.8535 0.9865
6.9288 -2.9639 -1.9512 0.9693
7.1930 -2.3447 -1.9588 0.9692
7.4030 -1.7022 -1.9668 0.9691
7.6516 -0.3659 -1.9834 0.9688
7.6610 1.0049 -2.0006 0.9686
7.4247 2.3672 -2.0177 0.9683
7.2145 3.0311 -2.0261 0.9682
5.7903 5.4395 -2.0570 0.9677
5.3004 5.9524 -2.0636 0.9676
4.7637 6.4194 -2.0697 0.9675
3.5680 7.1979 -2.0801 0.9674
2.9191 7.5017 -2.0842 0.9673
2.2436 7.7442 -2.0876 0.9672
1.5475 7.9229 -2.0901 0.9672
0.8370 8.0359 -2.0919 0.9672
-1.3156 7.9726 -2.0922 0.9672
-2.0156 7.8075 -2.0878 0.9672
-3.7921 6.6236 -1.9761 0.9690
-4.3025 6.1681 -1.9472 0.9694
-4.7980 5.7176 -1.9326 0.9696
-5.7797 4.8132 -1.9474 0.9694
-7.1425 3.2506 -2.0318 0.9681
-7.6676 1.2356 -2.0109 0.9684
-7.7140 0.5460 -2.0023 0.9686
-7.6226 -0.8230 -1.9851 0.9688
-7.4872 -1.4917 -1.9767 0.9689
-7.2942 -2.1430 -1.9684 0.9691
-5.9954 -4.4842 -1.9385 0.9695
-5.5540 -4.9833 -1.9320 0.9696
-5.0728 -5.4409 -1.9261 0.9697
-4.0064 -6.2206 -1.9158 0.9699
-3.4294 -6.5379 -1.9115 0.9700
-2.2084 -7.0179 -1.9049 0.9701
-1.5732 -7.1779 -1.9026 0.9701
-0.9274 -7.2832 -1.9010 0.9701
-0.1565 -4.1667 -1.0796 0.9829
0.4826 -3.4081 -0.8912 0.9859
0.9437 -2.8584 -0.7794 0.9876
1.1377 -2.6322 -0.7425 0.9882
1.3139 -2.4218 -0.7134 0.9887
1.4764 -2.2233 -0.6910 0.9890
3.0375 -1.4671 -0.8734 0.9862
-6.3181 -2.8262 -1.9594 0.9716
-6.0202 -3.3653 -1.9525 0.9717
-5.6778 -3.8747 -1.9460 0.9718
-4.4135 -5.1908 -1.9289 0.9721
-3.4076 -5.8638 -1.9199 0.9722
-2.8669 -6.1322 -1.9163 0.9723
-2.3062 -6.3529 -1.9133 0.9723
-1.7295 -6.5246 -1.9109 0.9723
0.0321 -3.9115 -1.1074 0.9839
0.6017 -3.1905 -0.9191 0.9866
0.8292 -2.9328 -0.8628 0.9874
1.3796 -2.2867 -0.7560 0.9890
2.1338 -1.6958 -0.7716 0.9887
2.4305 -1.6008 -0.8239 0.9880
2.6564 -1.4282 -0.8538 0.9875
6.5880 -2.1475 -1.9616 0.9716
6.7781 -1.5585 -1.9689 0.9715
6.9162 -0.9527 -1.9764 0.9714
7.0007 -0.3348 -1.9841 0.9713
7.0303 0.2907 -1.9919 0.9712
7.0041 0.9187 -1.9998 0.9711
6.9217 1.5444 -2.0077 0.9709
6.7831 2.1626 -2.0155 0.9708
6.5887 2.7682 -2.0231 0.9707
6.3396 3.3558 -2.0306 0.9706
6.0372 3.9206 -2.0378 0.9705
5.2811 4.9611 -2.0512 0.9703
4.8329 5.4273 -2.0573 0.9702
2.6593 6.8340 -2.0760 0.9700
0.7622 7.3182 -2.0830 0.9699
0.1080 7.3600 -2.0838 0.9699
-1.8381 7.1201 -2.0817 0.9699
-2.4619 6.9210 -2.0795 0.9699
-3.0634 6.6646 -2.0765 0.9700
-3.6335 6.3466 -2.0703 0.9701
-5.5624 4.6322 -2.0492 0.9704
-5.9405 4.1105 -2.0451 0.9704
-6.2649 3.5555 -2.0393 0.9705
-6.5334 2.9734 -2.0321 0.9706
-6.7474 2.3715 -2.0247 0.9707
-7.0071 1.1292 -2.0092 0.9709
-6.4528 -2.5390 -1.9631 0.9716
-6.1789 -3.0920 -1.9560 0.9717
-5.8591 -3.6171 -1.9493 0.9718
-5.4959 -4.1107 -1.9429 0.9719
-5.0927 -4.5694 -1.9370 0.9720
-4.1793 -5.3706 -1.9265 0.9721
-3.6763 -5.7080 -1.9220 0.9722
-2.0274 -6.4426 -1.9120 0.9723
-1.4444 -6.5901 -1.9099 0.9723
0.1934 -3.7473 -1.0623 0.9845
0.4746 -3.3519 -0.9584 0.9860
0.7166 -3.0636 -0.8907 0.9870
1.1211 -2.5939 -0.8000 0.9883
1.4641 -2.2049 -0.7493 0.9891
1.7696 -1.8455 -0.7238 0.9894
2.2944 -1.6665 -0.8028 0.9883
2.7644 -1.3353 -0.8691 0.9873
6.4709 -2.4420 -1.9580 0.9717
-6.2348 -1.5417 -1.9754 0.9735
-5.8226 -2.6046 -1.9619 0.9737
-5.2354 -3.5728 -1.9495 0.9738
-4.4937 -4.4193 -1.9386 0.9740
-3.6218 -5.1214 -1.9293 0.9741
-2.6467 -5.6611 -1.9221 0.9742
-2.1293 -5.8655 -1.9193 0.9742
-1.5970 -6.0247 -1.9171 0.9743
-0.3651 -4.5035 -1.3897 0.9813
0.5925 -3.1414 -0.9832 0.9867
0.8165 -2.8883 -0.9232 0.9875
1.0150 -2.6591 -0.8754 0.9882
1.1953 -2.4511 -0.8388 0.9887
1.5426 -2.1070 -0.8032 0.9891
1.8207 -1.7327 -0.7731 0.9895
2.2559 -1.4858 -0.8308 0.9888
5.8514 -2.5030 -1.9575 0.9737
6.0709 -1.9789 -1.9640 0.9736
6.2442 -1.4357 -1.9707 0.9735
6.3695 -0.8774 -1.9776 0.9735
6.4453 -0.3082 -1.9847 0.9734
6.4444 0.8453 -1.9991 0.9732
6.3666 1.4206 -2.0064 0.9731
5.8258 3.0839 -2.0275 0.9728
5.5464 3.6018 -2.0341 0.9727
5.2200 4.0938 -2.0404 0.9726
4.8491 4.5553 -2.0464 0.9725
4.4365 4.9822 -2.0519 0.9725
3.9854 5.3705 -2.0570 0.9724
1.8744 6.4698 -2.0718 0.9722
1.2925 6.6177 -2.0739 0.9722
-1.0987 6.6581 -2.0756 0.9722
-1.6857 6.5298 -2.0743 0.9722
-2.2579 6.3477 -2.0723 0.9722
-2.8102 6.1138 -2.0696 0.9722
-3.3378 5.8301 -2.0663 0.9723
-5.4585 3.7770 -2.0416 0.9726
-6.2020 2.1798 -2.0220 0.9729
-6.3493 1.6137 -2.0150 0.9730
-6.4448 1.0385 -2.0078 0.9731
-6.4797 -0.1195 -1.9934 0.9732
-6.3102 -1.2572 -1.9790 0.9734
-5.4018 -3.3348 -1.9526 0.9738
-3.8567 -4.9560 -1.9315 0.9741
-2.9053 -5.5388 -1.9238 0.9742
-2.3970 -5.7661 -1.9207 0.9742
-1.3338 -6.0854 -1.9162 0.9743
0.1919 -3.7198 -1.1456 0.9845
0.4670 -3.2981 -1.0245 0.9862
0.7053 -3.0155 -0.9525 0.9871
0.9156 -2.7735 -0.8984 0.9879
1.1048 -2.5562 -0.8565 0.9884
1.4547 -2.1906 -0.8088 0.9891
2.3514 -1.4065 -0.8428 0.9886
2.5552 -1.2342 -0.8728 0.9882
5.9638 -2.2507 -1.9606 0.9737
-5.1422 -2.8745 -1.9582 0.9755
-4.5259 -3.7197 -1.9473 0.9756
-4.1664 -4.0974 -1.9424 0.9757
-2.4554 -5.2519 -1.9271 0.9759
-0.3523 -4.3448 -1.4490 0.9818
0.3337 -3.4183 -1.1417 0.9856
0.8042 -2.8444 -0.9826 0.9876
0.9999 -2.6196 -0.9321 0.9883
1.1816 -2.4230 -0.8961 0.9887
1.3609 -2.2558 -0.8757 0.9890
1.8027 -1.7155 -0.8272 0.9896
1.9497 -1.5495 -0.8278 0.9896
2.1422 -1.4110 -0.8527 0.9892
5.7824 -1.3295 -1.9722 0.9753
5.9655 -0.2853 -1.9852 0.9751
5.9872 0.2475 -1.9919 0.9751
5.9614 0.7820 -1.9986 0.9750
5.8879 1.3137 -2.0053 0.9749
5.5982 2.3520 -2.0184 0.9747
5.1240 3.3275 -2.0309 0.9746
4.8213 3.7811 -2.0367 0.9745
3.2296 5.2757 -2.0562 0.9743
2.2507 5.7839 -2.0630 0.9742
1.7292 5.9686 -2.0656 0.9741
0.6448 6.1905 -2.0689 0.9741
0.0914 6.2254 -2.0696 0.9741
-0.4630 6.2091 -2.0697 0.9741
-1.5550 6.0234 -2.0679 0.9741
-2.0830 5.8559 -2.0660 0.9741
-2.5928 5.6407 -2.0636 0.9742
-3.0799 5.3796 -2.0606 0.9742
-3.9699 4.7307 -2.0529 0.9743
-5.0413 3.4883 -2.0378 0.9745
-5.5475 2.5247 -2.0260 0.9746
-5.9954 -0.1106 -1.9932 0.9750
-5.9418 -0.6415 -1.9866 0.9751
-5.8417 -1.1638 -1.9800 0.9752
-5.6963 -1.6736 -1.9735 0.9753
-5.5073 -2.1669 -1.9673 0.9754
-5.0057 -3.0902 -1.9554 0.9755
-4.6977 -3.5136 -1.9500 0.9756
-3.9803 -4.2691 -1.9402 0.9757
-3.5767 -4.5962 -1.9359 0.9757
-3.1472 -4.8865 -1.9321 0.9758
-2.6952 -5.1382 -1.9287 0.9758
-0.1531 -4.0755 -1.3557 0.9830
0.6943 -2.9683 -1.0133 0.9872
0.9021 -2.7325 -0.9565 0.9879
1.0888 -2.5190 -0.9122 0.9885
1.4452 -2.1764 -0.8684 0.9890
1.7334 -1.8077 -0.8325 0.9895
2.0461 -1.4861 -0.8406 0.9894
5.5248 -2.0850 -1.9629 0.9754
-5.2136 -1.7946 -1.9718 0.9768
-4.5163 -3.0821 -1.9553 0.9770
-4.2135 -3.4630 -1.9504 0.9771
-3.1289 -4.4243 -1.9378 0.9772
-2.7180 -4.6771 -1.9345 0.9773
-2.2876 -4.8930 -1.9316 0.9773
-1.3808 -5.2091 -1.9272 0.9774
-0.9111 -5.3073 -1.9257 0.9774
-0.3521 -4.3427 -1.5581 0.9817
0.3347 -3.4282 -1.2318 0.9855
0.8003 -2.8306 -1.0519 0.9876
1.1736 -2.4066 -0.9575 0.9887
1.3520 -2.2409 -0.9359 0.9889
1.5226 -2.0798 -0.9218 0.9891
1.6495 -1.8767 -0.8935 0.9894
1.7847 -1.6984 -0.8810 0.9896
2.0622 -1.3582 -0.8830 0.9896
2.2171 -1.1920 -0.9002 0.9894
5.0449 -2.1581 -1.9622 0.9770
5.2318 -1.7054 -1.9678 0.9769
5.3786 -1.2367 -1.9736 0.9768
5.5652 0.2301 -1.9919 0.9766
5.3564 1.7078 -2.0105 0.9764
4.9983 2.6458 -2.0224 0.9763
4.7563 3.0887 -2.0281 0.9762
4.4744 3.5090 -2.0335 0.9761
3.4122 4.5981 -2.0476 0.9760
2.9951 4.8928 -2.0515 0.9759
2.5521 5.1485 -2.0549 0.9759
2.0868 5.3627 -2.0578 0.9759
1.6031 5.5335 -2.0602 0.9758
1.1053 5.6592 -2.0620 0.9758
0.5977 5.7386 -2.0633 0.9758
-1.4415 5.5839 -2.0623 0.9758
-2.4039 5.2298 -2.0583 0.9758
-2.8559 4.9884 -2.0555 0.9759
-3.6822 4.3879 -2.0484 0.9760
-4.0496 4.0344 -2.0442 0.9760
-4.3826 3.6497 -2.0395 0.9761
-4.6784 3.2372 -2.0345 0.9761
-5.1503 2.3439 -2.0236 0.9762
-5.4521 1.3856 -2.0117 0.9764
-5.5241 -0.5964 -1.9869 0.9767
-5.4323 -1.0823 -1.9808 0.9767
-5.2983 -1.5566 -1.9748 0.9768
-4.6589 -2.8761 -1.9580 0.9770
-3.7066 -3.9755 -1.9437 0.9772
-3.3312 -4.2808 -1.9397 0.9772
-2.9316 -4.5518 -1.9361 0.9773
-1.6184 -5.1430 -1.9281 0.9774
-0.1530 -4.0736 -1.4578 0.9828
0.1872 -3.6273 -1.2989 0.9847
0.8946 -2.7098 -1.0205 0.9880
1.2615 -2.3253 -0.9460 0.9888
1.4358 -2.1621 -0.9281 0.9890
2.1375 -1.2786 -0.8907 0.9895
2.2933 -1.1077 -0.9107 0.9892
-4.6872 -2.0967 -1.9677 0.9782
-4.4703 -2.4989 -1.9626 0.9783
-3.6258 -3.5658 -1.9488 0.9785
-3.2875 -3.8665 -1.9449 0.9785
-2.9250 -4.1361 -1.9413 0.9785
-2.5412 -4.3729 -1.9382 0.9786
-2.1390 -4.5752 -1.9355 0.9786
-1.7213 -4.7418 -1.9332 0.9786
-0.8521 -4.9636 -1.9300 0.9787
0.0314 -3.8226 -1.4650 0.9838
0.3356 -3.4383 -1.3239 0.9853
0.9893 -2.5919 -1.0632 0.9882
1.5126 -2.0662 -0.9813 0.9891
1.7668 -1.6814 -0.9347 0.9896
1.9051 -1.5141 -0.9326 0.9896
2.0353 -1.3405 -0.9339 0.9896
4.7124 -2.0158 -1.9642 0.9783
4.8860 -1.5927 -1.9694 0.9782
5.1194 -0.7052 -1.9804 0.9781
5.1933 0.2147 -1.9919 0.9780
5.1686 0.6780 -1.9977 0.9779
5.1025 1.1385 -2.0035 0.9779
4.9952 1.5926 -2.0092 0.9778
4.8473 2.0365 -2.0148 0.9777
4.6594 2.4665 -2.0203 0.9777
4.4330 2.8788 -2.0256 0.9776
3.8710 3.6365 -2.0353 0.9775
3.1782 4.2828 -2.0438 0.9774
2.3765 4.7942 -2.0506 0.9773
1.4926 5.1519 -2.0555 0.9773
0.5564 5.3422 -2.0583 0.9773
-0.8745 5.2999 -2.0585 0.9773
-2.6593 4.6450 -2.0511 0.9773
-3.0575 4.3834 -2.0481 0.9774
-4.0831 3.4003 -2.0363 0.9775
-4.3595 3.0165 -2.0316 0.9775
-4.8010 2.1849 -2.0214 0.9777
-5.0843 1.2922 -2.0104 0.9778
-5.1644 0.8322 -2.0046 0.9778
-2.2934 -0.0423 -0.8790 0.9902
-5.0711 -1.0103 -1.9815 0.9781
-4.9470 -1.4534 -1.9759 0.9782
-4.7848 -1.8827 -1.9705 0.9782
-4.3525 -2.6870 -1.9602 0.9783
-4.0861 -3.0562 -1.9554 0.9784
-3.7893 -3.3999 -1.9510 0.9784
-3.4644 -3.7158 -1.9469 0.9785
-3.1140 -4.0016 -1.9431 0.9785
-1.9375 -4.6608 -1.9343 0.9786
-0.1530 -4.0717 -1.5615 0.9827
0.8959 -2.7138 -1.0952 0.9878
1.2530 -2.3096 -1.0069 0.9888
1.5616 -1.9497 -0.9573 0.9894
1.7010 -1.7739 -0.9418 0.9895
1.8337 -1.5995 -0.9325 0.9896
2.0913 -1.2510 -0.9339 0.9896
4.8015 -1.8120 -1.9667 0.9783
-4.5612 -1.5700 -1.9743 0.9794
-4.1896 -2.3420 -1.9644 0.9795
-3.6913 -3.0338 -1.9555 0.9796
-3.3997 -3.3433 -1.9515 0.9796
-3.0828 -3.6257 -1.9478 0.9796
-2.0064 -4.2917 -1.9389 0.9797
-1.6148 -4.4482 -1.9368 0.9798
-0.7994 -4.6568 -1.9338 0.9798
0.0314 -3.8210 -1.5639 0.9836
0.5877 -3.1158 -1.2977 0.9864
1.1576 -2.3737 -1.0809 0.9887
1.3339 -2.2110 -1.0568 0.9889
1.5026 -2.0524 -1.0411 0.9891
2.0207 -1.3309 -0.9903 0.9896
4.7050 -1.0818 -1.9759 0.9794
4.8480 -0.2318 -1.9864 0.9792
4.7759 1.0656 -2.0027 0.9791
4.6746 1.4904 -2.0081 0.9790
4.1463 2.6926 -2.0234 0.9789
3.8992 3.0580 -2.0281 0.9788
2.2210 4.4805 -2.0467 0.9786
1.8157 4.6662 -2.0492 0.9786
0.5199 4.9915 -2.0539 0.9785
0.0737 5.0193 -2.0545 0.9785
-1.6800 4.7230 -2.0516 0.9786
-2.0916 4.5504 -2.0497 0.9786
-2.8578 4.0969 -2.0444 0.9786
-3.5267 3.5134 -2.0374 0.9787
-4.0767 2.8209 -2.0290 0.9788
-4.3017 2.4413 -2.0244 0.9788
-4.4911 2.0439 -2.0195 0.9789
-4.6434 1.6320 -2.0144 0.9790
-2.0372 0.3283 -0.8445 0.9911
-2.0745 -0.4133 -0.8657 0.9909
-4.6344 -1.3616 -1.9769 0.9793
-4.4832 -1.7640 -1.9718 0.9794
-4.2977 -2.1506 -1.9669 0.9794
-4.0795 -2.5184 -1.9622 0.9795
-3.5527 -3.1876 -1.9535 0.9796
-3.2485 -3.4842 -1.9497 0.9796
-2.9203 -3.7527 -1.9461 0.9797
-2.2021 -4.1981 -1.9402 0.9797
-1.4198 -4.5120 -1.9359 0.9798
-1.0119 -4.6168 -1.9344 0.9798
-0.5967 -4.6859 -1.9333 0.9798
-0.1529 -4.0698 -1.6669 0.9826
0.1883 -3.6502 -1.4959 0.9843
0.8973 -2.7179 -1.1714 0.9877
1.0694 -2.4741 -1.1031 0.9884
1.8163 -1.5843 -0.9864 0.9896
2.1985 -1.0619 -0.9993 0.9895
4.4994 -1.6980 -1.9683 0.9794
-4.1275 -1.8463 -1.9706 0.9805
-2.8990 -3.4095 -1.9504 0.9807
-2.5799 -3.6481 -1.9473 0.9807
-2.2418 -3.8576 -1.9445 0.9807
-1.5190 -4.1844 -1.9401 0.9808
-1.1396 -4.2993 -1.9384 0.9808
-0.7521 -4.3809 -1.9372 0.9808
0.3377 -3.4593 -1.5148 0.9849
0.5887 -3.1211 -1.3842 0.9862
0.8040 -2.8438 -1.2880 0.9872
0.9901 -2.5940 -1.2100 0.9880
1.4925 -2.0386 -1.1011 0.9890
1.6041 -1.8250 -1.0589 0.9895
1.8698 -1.4860 -1.0409 0.9896
2.0061 -1.3213 -1.0469 0.9896
2.5127 -1.0749 -1.1911 0.9881
4.3022 -1.4024 -1.9720 0.9804
4.5046 -0.6205 -1.9817 0.9804
4.5432 0.5959 -1.9969 0.9802
3.8900 2.5262 -2.0214 0.9800
3.3948 3.1892 -2.0300 0.9799
3.1035 3.4852 -2.0338 0.9798
2.0823 4.2006 -2.0433 0.9798
1.7022 4.3743 -2.0456 0.9797
1.3074 4.5126 -2.0476 0.9797
-1.1754 4.5529 -2.0493 0.9797
-1.5748 4.4272 -2.0479 0.9797
-1.9608 4.2657 -2.0461 0.9797
-2.6794 3.8412 -2.0411 0.9798
-3.8241 2.6461 -2.0267 0.9799
-4.0357 2.2903 -2.0223 0.9800
-1.4730 0.2374 -0.6502 0.9935
-1.4609 0.1034 -0.6383 0.9936
-1.4350 -0.0265 -0.6255 0.9938
-1.4708 -0.1588 -0.6447 0.9936
-1.4729 -0.2934 -0.6545 0.9935
-3.8345 -2.3672 -1.9639 0.9805
-3.6009 -2.6933 -1.9597 0.9806
-3.3402 -2.9970 -1.9558 0.9806
-2.7463 -3.5291 -1.9489 0.9807
-2.4176 -3.7537 -1.9459 0.9807
-2.0712 -3.9487 -1.9433 0.9807
-1.3356 -4.2444 -1.9392 0.9808
-0.5614 -4.4084 -1.9368 0.9808
0.4646 -3.2814 -1.4444 0.9856
0.6973 -2.9813 -1.3344 0.9867
0.8980 -2.7201 -1.2484 0.9876
1.2359 -2.2780 -1.1295 0.9888
1.5388 -1.9214 -1.0728 0.9893
1.6667 -1.7382 -1.0495 0.9895
2.1988 -1.0620 -1.0642 0.9894
4.2284 -1.5957 -1.9697 0.9805
-1.2701 -0.3141 -0.6056 0.9942
-1.2651 -0.4355 -0.6193 0.9941
-3.7103 -2.0740 -1.9675 0.9814
-3.2706 -2.6881 -1.9596 0.9815
-3.0130 -2.9630 -1.9561 0.9815
-2.4322 -3.4392 -1.9498 0.9816
-2.1136 -3.6371 -1.9472 0.9816
-1.4323 -3.9457 -1.9430 0.9817
-0.3386 -4.1765 -1.9396 0.9817
0.0315 -3.8440 -1.7794 0.9832
1.1484 -2.3549 -1.2128 0.9885
1.8522 -1.4720 -1.0951 0.9896
2.1069 -1.1328 -1.1073 0.9895
2.4155 -1.0333 -1.2161 0.9885
4.0529 -1.3211 -1.9732 0.9814
4.1639 -0.9574 -1.9777 0.9813
4.2878 -0.2051 -1.9870 0.9813
4.2994 0.1777 -1.9918 0.9812
4.2768 0.5610 -1.9966 0.9812
4.1293 1.3165 -2.0062 0.9811
4.0050 1.6826 -2.0108 0.9810
3.8480 2.0369 -2.0153 0.9810
2.9184 3.2773 -2.0313 0.9808
2.2982 3.7543 -2.0376 0.9808
1.2289 4.2418 -2.0442 0.9807
0.4580 4.3975 -2.0465 0.9807
0.0649 4.4219 -2.0470 0.9807
-0.3289 4.4102 -2.0471 0.9807
-0.7199 4.3626 -2.0467 0.9807
-1.1048 4.2794 -2.0458 0.9807
-1.4803 4.1615 -2.0445 0.9807
-1.8432 4.0099 -2.0428 0.9807
-2.1904 3.8259 -2.0407 0.9808
-2.5190 3.6114 -2.0381 0.9808
-3.1099 3.0983 -2.0320 0.9808
-3.7963 2.1545 -2.0205 0.9809
-1.2581 0.5726 -0.6398 0.9939
-1.2739 0.2053 -0.5973 0.9943
-1.2713 0.0900 -0.5899 0.9944
-1.2747 -0.1376 -0.5935 0.9944
-1.2693 -0.2529 -0.5991 0.9943
-1.2550 -0.4938 -0.6243 0.9941
-3.8054 -1.9043 -1.9697 0.9814
-3.6132 -2.2306 -1.9655 0.9815
-3.3935 -2.5382 -1.9616 0.9815
-3.1482 -2.8247 -1.9579 0.9815
-2.8793 -3.0882 -1.9544 0.9816
-2.5889 -3.3269 -1.9513 0.9816
-1.9529 -3.7231 -1.9460 0.9816
0.6985 -2.9863 -1.4196 0.9866
0.8984 -2.7213 -1.3265 0.9874
1.6496 -1.7204 -1.1033 0.9895
1.9210 -1.3953 -1.0990 0.9896
2.2182 -1.0714 -1.1403 0.9892
-1.1330 -0.2802 -0.5725 0.9948
-1.1000 -0.4920 -0.5911 0.9946
-3.0892 -2.5389 -1.9614 0.9823
-2.2979 -3.2493 -1.9521 0.9824
-1.9971 -3.4365 -1.9496 0.9824
-1.3535 -3.7285 -1.9457 0.9825
-1.0156 -3.8313 -1.9442 0.9825
0.0325 -3.9591 -1.9421 0.9825
0.8058 -2.8501 -1.4528 0.9869
0.9909 -2.5961 -1.3631 0.9877
1.4721 -2.0108 -1.2224 0.9890
1.5731 -1.7898 -1.1688 0.9894
1.8345 -1.4580 -1.1495 0.9896
4.0045 -0.5516 -1.9828 0.9822
4.0468 -0.1935 -1.9873 0.9821
4.0571 0.1677 -1.9918 0.9821
3.8950 1.2418 -2.0054 0.9820
3.6287 1.9209 -2.0140 0.9819
3.0098 2.8274 -2.0256 0.9818
2.7508 3.0892 -2.0290 0.9817
2.4631 3.3192 -2.0275 0.9818
1.8447 3.7214 -2.0374 0.9817
1.5078 3.8747 -2.0395 0.9816
1.1579 3.9969 -2.0412 0.9816
0.7982 4.0866 -2.0425 0.9816
0.4315 4.1433 -2.0434 0.9816
-0.3099 4.1552 -2.0439 0.9816
-0.6783 4.1104 -2.0435 0.9816
-1.3948 3.9211 -2.0415 0.9816
-2.9314 2.9203 -2.0297 0.9817
-3.5795 2.0314 -2.0189 0.9818
-1.0975 0.4995 -0.5915 0.9946
-1.1371 -0.0210 -0.5578 0.9949
-1.1443 -0.1235 -0.5646 0.9949
-1.1381 -0.2267 -0.5692 0.9948
-1.1314 -0.3324 -0.5784 0.9948
-1.1152 -0.4388 -0.5878 0.9947
-1.0882 -0.5446 -0.5969 0.9946
-3.4121 -2.1065 -1.9670 0.9823
-2.9737 -2.6681 -1.9597 0.9824
-2.7200 -2.9173 -1.9565 0.9824
-2.1535 -3.3437 -1.9509 0.9824
-0.8483 -3.8705 -1.9437 0.9825
-0.5003 -3.9288 -1.9428 0.9825
0.2040 -3.9540 -1.9421 0.9825
0.6997 -2.9914 -1.5070 0.9864
0.8988 -2.7225 -1.4063 0.9873
1.0707 -2.4771 -1.3237 0.9880
1.3878 -2.0899 -1.2306 0.9889
1.6325 -1.7026 -1.1571 0.9895
1.9075 -1.3855 -1.1565 0.9896
2.0299 -1.2142 -1.1603 0.9895
2.2023 -1.0638 -1.1997 0.9892
3.7615 -1.4195 -1.9721 0.9822
-1.0114 -0.3481 -0.5549 0.9952
-2.1751 -3.0756 -1.9543 0.9832
-1.8905 -3.2531 -1.9519 0.9832
-1.2814 -3.5298 -1.9481 0.9832
-0.9615 -3.6273 -1.9468 0.9832
-0.3030 -3.7370 -1.9451 0.9832
0.0308 -3.7486 -1.9448 0.9832
0.3642 -3.7311 -1.9448 0.9832
0.5918 -3.1375 -1.6564 0.9857
0.8061 -2.8514 -1.5372 0.9867
0.9914 -2.5973 -1.4422 0.9876
1.1494 -2.3568 -1.3603 0.9883
1.2971 -2.1501 -1.3027 0.9887
1.4609 -1.9955 -1.2830 0.9889
1.5565 -1.7708 -1.2231 0.9894
1.7511 -1.6664 -1.2540 0.9892
1.8168 -1.4439 -1.2039 0.9896
1.9618 -1.2921 -1.2187 0.9895
2.0953 -1.1266 -1.2341 0.9893
3.7873 -0.5217 -1.9833 0.9829
3.8268 -0.1830 -1.9875 0.9829
3.8150 0.5004 -1.9961 0.9828
3.7634 0.8397 -2.0004 0.9828
3.6815 1.1738 -2.0046 0.9827
3.5698 1.4998 -2.0087 0.9827
3.4290 1.8151 -2.0128 0.9827
3.2601 2.1171 -2.0166 0.9826
2.8432 2.6709 -2.0238 0.9826
2.5984 2.9180 -2.0270 0.9825
2.3318 3.1422 -2.0299 0.9825
1.7421 3.5143 -2.0348 0.9825
1.0934 3.7741 -2.0384 0.9824
-0.6404 3.8810 -2.0406 0.9824
-1.3170 3.7025 -2.0387 0.9824
-1.9492 3.4047 -2.0353 0.9825
-2.5159 2.9981 -2.0305 0.9825
-2.9986 2.4972 -2.0244 0.9826
-3.2036 2.2167 -2.0210 0.9826
-0.9848 0.4482 -0.5613 0.9951
-1.0102 0.3550 -0.5555 0.9952
-1.0342 0.1667 -0.5435 0.9953
-1.0370 0.0734 -0.5393 0.9953
-1.0322 -0.0190 -0.5356 0.9954
-1.0376 -0.1120 -0.5414 0.9953
-1.0294 -0.2051 -0.5445 0.9953
-0.9674 -0.5972 -0.5898 0.9949
-2.8142 -2.5250 -1.9615 0.9831
-2.5743 -2.7611 -1.9584 0.9831
-2.3150 -2.9749 -1.9556 0.9832
-1.7468 -3.3302 -1.9509 0.9832
-1.4421 -3.4690 -1.9490 0.9832
-0.8032 -3.6645 -1.9462 0.9832
-0.1407 -3.7463 -1.9449 0.9832
0.1932 -3.7437 -1.9447 0.9832
0.5256 -3.7121 -1.9450 0.9832
1.2196 -2.2480 -1.3268 0.9885
1.3780 -2.0752 -1.2923 0.9888
1.7467 -1.5236 -1.2025 0.9896
1.8939 -1.3756 -1.2143 0.9895
2.1948 -1.0601 -1.2645 0.9891
3.5585 -1.3429 -1.9732 0.9830
-0.9297 -0.2299 -0.5245 0.9956
-0.9165 -0.3155 -0.5309 0.9956
-0.8996 -0.4024 -0.5398 0.9955
-0.8758 -0.5976 -0.5807 0.9952
-2.7711 -2.2775 -1.9645 0.9838
-2.0623 -2.9161 -1.9562 0.9838
-1.7925 -3.0845 -1.9540 0.9839
-1.5094 -3.2286 -1.9520 0.9839
-1.2151 -3.3473 -1.9504 0.9839
-0.9118 -3.4398 -1.9491 0.9839
-0.2873 -3.5441 -1.9475 0.9839
0.0292 -3.5550 -1.9472 0.9839
0.3454 -3.5384 -1.9472 0.9839
0.9918 -2.5984 -1.5233 0.9874
1.1498 -2.3578 -1.4368 0.9881
1.5583 -1.7730 -1.2928 0.9893
1.6626 -1.5823 -1.2571 0.9896
1.9468 -1.2822 -1.2768 0.9894
2.0890 -1.1232 -1.2990 0.9892
2.3370 -0.9997 -1.3922 0.9885
1.8865 -0.4338 -1.0602 0.9912
1.8886 -0.2602 -1.0442 0.9913
1.8837 -0.0901 -1.0329 0.9914
1.8888 0.2477 -1.0433 0.9913
1.8746 0.5977 -1.0776 0.9911
3.3797 1.4199 -2.0078 0.9834
3.0859 2.0040 -2.0153 0.9834
2.9003 2.2746 -2.0188 0.9833
2.6908 2.5277 -2.0220 0.9833
1.9354 3.1617 -2.0303 0.9832
1.6482 3.3249 -2.0325 0.9832
1.3470 3.4615 -2.0344 0.9832
1.0344 3.5703 -2.0359 0.9832
0.7129 3.6503 -2.0371 0.9832
0.0546 3.7211 -2.0383 0.9832
-0.6058 3.6713 -2.0380 0.9832
-1.2459 3.5026 -2.0362 0.9832
-1.8442 3.2212 -2.0329 0.9832
-2.6201 2.6103 -2.0257 0.9833
-2.8378 2.3633 -2.0227 0.9833
-0.8727 0.4953 -0.5496 0.9954
-0.8981 0.4087 -0.5405 0.9955
-0.9282 0.2359 -0.5245 0.9956
-0.9438 0.1521 -0.5236 0.9956
-0.9472 -0.1023 -0.5218 0.9957
-0.9231 -0.2712 -0.5269 0.9956
-0.8887 -0.4447 -0.5443 0.9955
-0.8629 -0.5327 -0.5554 0.9954
-2.8747 -2.1501 -1.9662 0.9838
-2.6677 -2.3936 -1.9630 0.9838
-1.9328 -3.0010 -1.9551 0.9839
-1.3675 -3.2896 -1.9512 0.9839
-1.0685 -3.3956 -1.9497 0.9839
-0.4492 -3.5277 -1.9478 0.9839
0.1832 -3.5504 -1.9472 0.9839
0.7011 -2.9975 -1.6861 0.9861
1.2201 -2.2489 -1.4013 0.9884
1.3681 -2.0603 -1.3546 0.9888
1.4927 -1.8637 -1.3078 0.9892
1.5995 -1.6681 -1.2657 0.9895
1.7596 -1.5349 -1.2789 0.9894
3.3722 -1.2726 -1.9741 0.9837
-0.8215 -0.4592 -0.5433 0.9957
-0.7974 -0.5442 -0.5573 0.9956
-2.6306 -2.1620 -1.9659 0.9844
-2.4242 -2.3841 -1.9630 0.9844
-1.4334 -3.0659 -1.9540 0.9845
-0.8659 -3.2668 -1.9512 0.9845
0.0277 -3.3764 -1.9494 0.9845
0.3281 -3.3606 -1.9495 0.9845
2.3403 -1.0011 -1.4696 0.9883
1.7160 -0.5594 -1.0421 0.9917
1.7359 -0.0830 -1.0034 0.9920
1.7417 0.2285 -1.0142 0.9919
3.0778 1.6292 -2.0106 0.9840
2.7495 2.1563 -2.0174 0.9840
2.5506 2.3961 -2.0205 0.9840
2.0911 2.8179 -2.0260 0.9839
1.8342 2.9963 -2.0283 0.9839
1.5619 3.1509 -2.0304 0.9839
1.2764 3.2802 -2.0321 0.9839
0.6756 3.4588 -2.0347 0.9839
0.3652 3.5065 -2.0354 0.9838
-1.1806 3.3190 -2.0338 0.9839
-1.4703 3.1986 -2.0325 0.9839
-2.0103 2.8820 -2.0288 0.9839
-2.4834 2.4741 -2.0239 0.9839
-0.7984 0.5525 -0.5606 0.9955
-0.8603 0.3024 -0.5265 0.9958
-0.8707 0.2213 -0.5187 0.9959
-0.8802 0.1418 -0.5148 0.9959
-0.8819 0.0624 -0.5105 0.9959
-0.8794 -0.0162 -0.5078 0.9959
-0.8822 -0.0952 -0.5123 0.9959
-0.8546 -0.3363 -0.5303 0.9958
-0.8034 -0.6009 -0.5793 0.9954
-1.5729 -2.9986 -1.9549 0.9845
-0.7234 -3.3004 -1.9507 0.9845
-0.1268 -3.3743 -1.9495 0.9845
0.4734 -3.3435 -1.9496 0.9845
0.7693 -3.2890 -1.9501 0.9845
1.2206 -2.2498 -1.4778 0.9882
1.3582 -2.0453 -1.4175 0.9887
1.7213 -1.5014 -1.3187 0.9895
1.8662 -1.3555 -1.3317 0.9894
2.0038 -1.1986 -1.3481 0.9893
2.1826 -1.0542 -1.3994 0.9889
