ply
format ascii 1.0
element vertex 1068
property float32 x
property float32 y
property float32 z
property float32 I
end_header
-11.7423 13.6093 3.1695 0.9296
16.4898 -7.7199 3.2105 0.9287
10.2961 15.5927 3.2947 0.9269
-2.3397 18.0449 3.2084 0.9288
-4.3701 13.7815 2.5493 0.9430
-5.8234 13.9233 2.6611 0.9405
-7.1970 13.6504 2.7210 0.9392
-8.9330 13.8065 2.8996 0.9354
-12.7182 13.5865 3.2815 0.9272
-11.7427 13.6098 2.7537 0.9298
-13.9858 13.5573 2.9840 0.9242
-5.1292 -17.0564 2.7285 0.9305
-2.3432 18.0722 2.7917 0.9289
-7.1972 13.6508 2.3641 0.9395
-8.9332 13.8069 2.5193 0.9356
-10.7902 13.8077 2.6845 0.9315
-11.7431 13.6102 2.3409 0.9301
-13.9863 13.5578 2.5366 0.9244
-8.9198 -17.5490 2.5635 0.9237
-5.1291 -17.0559 2.3193 0.9307
2.2390 -14.4990 1.9105 0.9425
-3.0599 13.8128 1.8423 0.9445
-5.7509 13.7501 1.9408 0.9417
-8.8496 13.6778 2.1214 0.9364
-11.7435 13.6107 1.9304 0.9302
2.2367 -14.4843 1.5738 0.9427
-2.1664 16.7084 1.8092 0.9345
-3.0600 13.8132 1.5192 0.9447
-4.3705 13.7826 1.5526 0.9435
-5.7511 13.7505 1.6005 0.9418
-7.1997 13.6554 1.6577 0.9398
-10.5395 13.4869 1.8380 0.9335
-12.7195 13.5879 1.9986 0.9279
-11.7439 13.6111 1.5218 0.9304
-13.9873 13.5588 1.6491 0.9248
-9.0174 -17.7410 1.6847 0.9232
-2.3537 18.1535 1.5496 0.9292
-3.0722 13.8682 1.2024 0.9446
-11.7442 13.6115 1.1148 0.9305
-9.0215 -17.7491 1.2346 0.9233
2.2343 -14.4690 0.9079 0.9430
-2.3572 18.1806 1.1368 0.9292
-4.3707 13.7833 0.8967 0.9437
-5.8241 13.9252 0.9360 0.9413
-7.1817 13.6213 0.9549 0.9402
-8.8855 13.7331 1.0143 0.9365
-12.7204 13.5888 1.1542 0.9281
-11.7446 13.6120 0.7089 0.9306
-5.1285 -17.0541 0.7022 0.9312
-3.0892 13.9450 0.5632 0.9444
-8.8857 13.7335 0.6450 0.9366
-13.9887 13.5602 0.3291 0.9250
-9.0298 -17.7653 0.3366 0.9234
-3.0893 13.9454 0.2413 0.9445
-4.3709 13.7841 0.2443 0.9438
-5.8244 13.9259 0.2550 0.9414
-7.1821 13.6220 0.2601 0.9403
-10.7922 13.8103 0.2961 0.9323
-12.7212 13.5897 0.3144 0.9282
-9.0339 -17.7735 -0.1123 0.9233
-5.1283 -17.0533 -0.1003 0.9312
2.2318 -14.4526 -0.0823 0.9432
-7.1823 13.6224 -0.0867 0.9403
-12.7216 13.5901 -0.1048 0.9282
-11.7457 13.6133 -0.5063 0.9306
-13.9072 13.4812 -0.5454 0.9254
-5.1281 -17.0528 -0.5014 0.9312
2.2312 -14.4487 -0.4117 0.9432
-2.3713 18.2889 -0.5193 0.9289
-5.8247 13.9266 -0.4251 0.9414
-7.2149 13.6843 -0.4356 0.9400
-8.9407 13.8185 -0.4634 0.9363
-10.7676 13.7788 -0.4924 0.9324
-9.0423 -17.7899 -1.0121 0.9232
-3.0235 13.6484 -0.7089 0.9455
-4.3184 13.6183 -0.7245 0.9444
-5.6881 13.5998 -0.7476 0.9427
-8.7939 13.5916 -0.8210 0.9372
-10.6232 13.5940 -0.8749 0.9332
-13.9907 13.5621 -1.4287 0.9248
-19.6726 2.9004 -1.4580 0.9233
2.2300 -14.4409 -1.0714 0.9431
-4.3714 13.7855 -1.0604 0.9436
-5.7523 13.7534 -1.0931 0.9420
-7.2200 13.6940 -1.1351 0.9398
-10.6587 13.6394 -1.2692 0.9329
-11.7469 13.6146 -1.7263 0.9303
-13.0131 12.6145 -1.7400 0.9298
-16.6660 7.3146 -1.7473 0.9295
-18.8299 4.5172 -1.8591 0.9251
-19.3291 1.1090 -1.8587 0.9251
-19.3651 -0.6151 -1.8601 0.9251
-19.2580 -2.3381 -1.8624 0.9250
-19.0077 -4.0490 -1.8658 0.9249
-18.0817 -7.3907 -1.8753 0.9245
-16.6026 -10.5518 -1.8886 0.9240
-15.0827 -11.5905 -1.8262 0.9264
-13.4842 -12.4186 -1.7599 0.9290
-12.3877 -13.6365 -1.7687 0.9286
-11.1851 -14.7627 -1.7782 0.9283
-9.8831 -15.7878 -1.7882 0.9279
-7.0131 -17.4984 -1.8098 0.9270
-3.8503 -18.7009 -1.8330 0.9261
-2.1858 -19.0933 -1.8450 0.9257
1.2482 -19.4311 -1.8693 0.9247
2.2103 -14.3133 -1.3904 0.9435
-2.3820 18.3713 -1.7785 0.9283
-3.0607 13.8163 -1.3586 0.9447
-4.3715 13.7858 -1.3885 0.9435
-5.7524 13.7537 -1.4313 0.9419
-7.2226 13.6989 -1.4868 0.9397
-8.8522 13.6818 -1.5645 0.9366
-10.6590 13.6398 -1.6619 0.9328
-12.4113 13.2586 -1.7436 0.9296
-13.4915 12.0575 -1.7371 0.9299
-15.3227 9.4197 -1.7268 0.9303
-16.0639 8.0015 -1.7229 0.9304
-18.5964 5.4281 -1.8598 0.9251
-18.9931 3.7500 -1.8586 0.9252
-19.3632 0.3253 -1.8592 0.9251
-19.3342 -1.3996 -1.8610 0.9251
-19.1618 -3.1185 -1.8638 0.9250
-17.7931 -8.1287 -1.8780 0.9244
-17.0593 -9.7131 -1.8846 0.9241
-14.0351 -11.7195 -1.7554 0.9292
-9.7030 11.2458 -1.7643 0.9419
-10.6310 10.3053 -1.7587 0.9421
-11.4732 9.2927 -1.7538 0.9423
-13.4009 7.3670 -1.8165 0.9403
-14.5481 6.3851 -1.8872 0.9380
-15.4199 3.6992 -1.8836 0.9381
-15.6832 2.3123 -1.8831 0.9381
-15.8291 0.9082 -1.8834 0.9381
-15.7652 -1.9140 -1.8864 0.9380
-15.5552 -3.3136 -1.8892 0.9379
-15.2276 -4.6929 -1.8928 0.9378
-14.7837 -6.0427 -1.8971 0.9377
-14.2258 -7.3535 -1.9022 0.9375
-12.7804 -9.8213 -1.9146 0.9371
-11.9008 -10.9603 -1.9218 0.9369
-6.8929 -13.5611 -1.8070 0.9406
-5.6875 -14.1908 -1.8160 0.9403
-3.1150 -15.1294 -1.8349 0.9397
3.8693 -15.6568 -1.9158 0.9371
7.0740 -15.8233 -2.0589 0.9326
8.4917 -15.1998 -2.0682 0.9323
9.8518 -14.4454 -2.0770 0.9320
12.3481 -12.5654 -2.0927 0.9315
14.4660 -10.2400 -2.1053 0.9311
15.3559 -8.9339 -2.1103 0.9309
16.7522 -6.0920 -2.1174 0.9307
17.2442 -4.5822 -2.1195 0.9306
17.7395 1.7179 -2.1171 0.9307
15.8861 7.7290 -2.0985 0.9313
14.1671 10.3498 -2.0841 0.9318
12.0093 12.5919 -2.0669 0.9323
10.7925 13.5484 -2.0576 0.9326
9.4991 14.3857 -2.0477 0.9329
8.1413 15.0984 -2.0376 0.9332
5.2824 16.1346 -2.0167 0.9339
0.7591 15.4170 -1.8335 0.9397
-0.6121 15.3434 -1.8240 0.9400
-1.9644 15.1508 -1.8148 0.9403
-3.0607 13.8166 -1.6810 0.9446
-4.3716 13.7862 -1.7180 0.9434
-5.7526 13.7541 -1.7709 0.9417
-6.7640 8.6556 -1.3049 0.9567
-10.1354 10.8274 -1.7617 0.9420
-11.0250 9.8532 -1.7564 0.9422
-11.8265 8.8102 -1.7518 0.9423
-12.5351 7.7060 -1.7479 0.9425
-14.2100 7.0781 -1.8858 0.9381
-15.2274 4.4447 -1.8843 0.9381
-15.5541 3.0710 -1.8833 0.9381
-15.8563 0.2664 -1.8838 0.9381
-15.6843 -2.5526 -1.8876 0.9380
-15.0399 -5.3111 -1.8947 0.9378
-13.9351 -7.9343 -1.9048 0.9374
-12.3928 -10.3482 -1.9178 0.9370
-8.9786 8.7035 -1.7718 0.9507
-9.6941 7.8517 -1.7676 0.9509
-11.0162 7.4033 -1.8806 0.9478
-11.7906 6.4818 -1.9064 0.9471
-12.7226 4.2800 -1.9019 0.9472
-13.3913 0.7684 -1.9005 0.9473
-13.4133 -0.4260 -1.9015 0.9472
-13.3339 -1.6188 -1.9031 0.9472
-12.8725 -3.9671 -1.9085 0.9470
-12.0164 -6.2114 -1.9166 0.9468
-11.4459 -7.2744 -1.9216 0.9467
-10.0364 -9.2432 -1.9333 0.9464
-9.2059 -10.1340 -1.9399 0.9462
-8.2983 -10.9526 -1.9470 0.9460
-4.7793 -11.9247 -1.8203 0.9494
-2.6132 -12.6924 -1.8361 0.9490
-1.4804 -12.9315 -1.8442 0.9488
-0.3257 -13.0698 -1.8524 0.9486
0.8418 -13.1046 -1.8606 0.9483
2.0634 -13.3623 -1.9157 0.9468
3.4402 -13.9205 -2.0317 0.9437
4.6841 -13.6154 -2.0401 0.9435
5.8999 -13.1970 -2.0482 0.9433
7.0770 -12.6675 -2.0560 0.9431
8.2047 -12.0303 -2.0632 0.9429
9.2725 -11.2897 -2.0700 0.9427
10.2706 -10.4513 -2.0762 0.9425
11.1894 -9.5218 -2.0818 0.9424
12.0200 -8.5086 -2.0866 0.9422
12.7543 -7.4203 -2.0907 0.9421
13.9061 -5.0570 -2.0966 0.9420
14.5993 -2.5160 -2.0991 0.9419
14.7648 -1.2074 -2.0990 0.9419
14.8072 0.1107 -2.0981 0.9419
14.7261 1.4261 -2.0963 0.9420
11.7917 8.6145 -2.0691 0.9427
10.9424 9.5973 -2.0623 0.9429
10.0096 10.4951 -2.0549 0.9431
7.9296 12.0088 -2.0390 0.9435
6.8017 12.6141 -2.0306 0.9437
5.6286 13.1129 -2.0219 0.9440
4.4206 13.5026 -2.0131 0.9442
1.7928 12.8840 -1.8431 0.9488
-1.6509 12.7328 -1.8192 0.9495
-3.8494 12.1392 -1.8044 0.9499
-4.8951 11.7038 -1.7975 0.9500
-6.8433 10.5768 -1.7849 0.9504
-8.5578 9.1420 -1.7743 0.9507
-10.0023 7.4512 -1.7672 0.9509
-11.4619 7.0463 -1.9064 0.9471
-12.0355 5.9949 -1.9051 0.9471
-12.8813 3.7599 -1.9013 0.9472
-13.1588 2.5981 -1.9004 0.9473
-13.3367 1.4172 -1.9003 0.9473
-13.3897 -0.9693 -1.9021 0.9472
-13.2643 -2.1587 -1.9041 0.9472
-12.2880 -5.6137 -1.9142 0.9469
-11.7684 -6.7006 -1.9188 0.9468
-9.0518 7.3314 -1.9189 0.9539
-9.6790 6.5046 -1.9211 0.9538
-10.2041 5.6096 -1.9183 0.9539
-10.6502 4.6743 -1.9160 0.9539
-11.0142 3.7053 -1.9144 0.9540
-11.6125 -0.3688 -1.9140 0.9540
-11.3842 -2.4251 -1.9175 0.9539
-11.1388 -3.4328 -1.9202 0.9538
-9.8952 -6.2889 -1.9315 0.9536
-8.6696 -7.9844 -1.9416 0.9533
-7.9484 -8.7497 -1.9474 0.9532
-7.1612 -9.4518 -1.9535 0.9531
-3.4139 -11.3525 -1.9529 0.9531
-2.3484 -11.4061 -1.9184 0.9539
0.7812 -12.1618 -2.0077 0.9518
1.8705 -12.1126 -2.0191 0.9515
4.0159 -11.6732 -2.0337 0.9512
6.0608 -10.8485 -2.0472 0.9509
7.0229 -10.2975 -2.0534 0.9507
7.9333 -9.6591 -2.0591 0.9506
10.2720 -7.2712 -2.0733 0.9503
11.4326 -5.3523 -2.0796 0.9501
11.8755 -4.3186 -2.0817 0.9501
12.4654 -2.1482 -2.0838 0.9500
12.6068 -1.0309 -2.0838 0.9500
12.5761 1.2179 -2.0815 0.9501
12.1312 3.4185 -2.0763 0.9502
10.7326 6.4608 -2.0637 0.9505
10.0892 7.3707 -2.0584 0.9506
8.5729 8.9887 -2.0463 0.9509
7.7142 9.6841 -2.0396 0.9510
6.7990 10.2966 -2.0327 0.9512
5.8354 10.8220 -2.0255 0.9514
3.7972 11.5984 -2.0105 0.9517
-0.4426 11.0946 -1.8292 0.9560
-1.4224 10.9707 -1.8224 0.9561
-2.3841 10.7621 -1.8159 0.9563
-3.3204 10.4711 -1.8096 0.9564
-6.6828 8.5517 -1.7879 0.9570
-9.3606 6.9732 -1.9229 0.9538
-9.9275 6.1029 -1.9198 0.9539
-10.4170 5.1888 -1.9172 0.9539
-11.3930 2.2494 -1.9131 0.9540
-11.6135 0.1951 -1.9135 0.9540
-11.2833 -2.8859 -1.9186 0.9539
-10.9986 -3.8840 -1.9216 0.9538
-10.6288 -4.8557 -1.9250 0.9537
-9.6430 -6.6919 -1.9336 0.9535
-9.0331 -7.5427 -1.9387 0.9534
-6.4756 7.5052 -1.8632 0.9605
-7.9913 6.4726 -1.9329 0.9590
-8.9860 4.9400 -1.9274 0.9591
-9.3801 4.1169 -1.9254 0.9592
-9.7018 3.2637 -1.9240 0.9592
-9.9489 2.3867 -1.9231 0.9592
-10.1664 -1.2343 -1.9249 0.9592
-9.8079 -3.0227 -1.9291 0.9591
-9.5143 -3.8889 -1.9319 0.9590
-7.6236 -7.0211 -1.9480 0.9587
-6.9870 -7.6913 -1.9531 0.9586
-6.2925 -8.3053 -1.9585 0.9585
-4.7497 -9.3445 -1.9703 0.9582
-3.0381 -10.1028 -1.9829 0.9580
-1.2079 -10.5510 -1.9961 0.9577
-0.2655 -10.6521 -2.0028 0.9576
0.6853 -10.6688 -2.0095 0.9574
1.6369 -10.6002 -2.0160 0.9573
2.5815 -10.4459 -2.0225 0.9572
3.5113 -10.2064 -2.0288 0.9570
5.2948 -9.4775 -2.0405 0.9568
6.9255 -8.4321 -2.0510 0.9566
8.3452 -7.1015 -2.0596 0.9564
8.9594 -6.3421 -2.0632 0.9563
9.5019 -5.5281 -2.0663 0.9562
9.9678 -4.6665 -2.0687 0.9562
10.6528 -2.8307 -2.0718 0.9561
10.8655 -1.8725 -2.0724 0.9561
10.9635 1.0617 -2.0703 0.9562
10.8155 2.0308 -2.0684 0.9562
10.5790 2.9811 -2.0659 0.9563
10.2564 3.9044 -2.0628 0.9563
9.3666 5.6385 -2.0549 0.9565
8.8080 6.4348 -2.0503 0.9566
8.1805 7.1749 -2.0452 0.9567
7.4898 7.8531 -2.0398 0.9568
5.9450 9.0033 -2.0279 0.9570
5.1047 9.4670 -2.0216 0.9572
4.2288 9.8518 -2.0151 0.9573
2.4004 10.3765 -2.0019 0.9576
1.4594 10.4878 -1.9903 0.9578
0.4837 9.8233 -1.8486 0.9608
-1.2484 9.6283 -1.8249 0.9613
-3.7124 8.8760 -1.8084 0.9616
-4.4748 8.4873 -1.8034 0.9617
-5.1986 8.0349 -1.7988 0.9618
-5.8876 7.5341 -1.7972 0.9618
-7.0039 7.4821 -1.9264 0.9591
-7.6751 6.8593 -1.9348 0.9590
-8.2408 6.1390 -1.9315 0.9590
-8.7416 5.3739 -1.9287 0.9591
-9.8235 2.8674 -1.9235 0.9592
-10.0362 1.9816 -1.9228 0.9592
-10.2102 -0.7391 -1.9241 0.9592
-10.1120 -1.6457 -1.9257 0.9592
-9.6837 -3.4196 -1.9303 0.9591
-9.3560 -4.2742 -1.9334 0.9590
-8.9552 -5.0989 -1.9370 0.9589
-7.9447 -6.6339 -1.9454 0.9587
-6.5991 6.3970 -1.9427 0.9631
-7.6053 5.1110 -1.9369 0.9632
-8.3731 3.6749 -1.9329 0.9633
-8.8820 2.1308 -1.9308 0.9633
-9.0348 1.3321 -1.9304 0.9634
-9.1183 0.5232 -1.9306 0.9633
-9.1318 -0.2901 -1.9313 0.9633
-9.0752 -1.1018 -1.9324 0.9633
-8.7532 -2.6976 -1.9361 0.9632
-8.4898 -3.4701 -1.9387 0.9632
-7.7662 -4.9358 -1.9451 0.9631
-6.7966 -6.2594 -1.9531 0.9629
-6.2273 -6.8550 -1.9576 0.9628
-4.9391 -7.8899 -1.9676 0.9627
-4.2292 -8.3206 -1.9730 0.9626
-3.4821 -8.6882 -1.9785 0.9625
-2.7033 -8.9894 -1.9842 0.9623
-1.8986 -9.2212 -1.9901 0.9622
-0.2360 -9.4677 -2.0019 0.9620
1.4538 -9.4147 -2.0137 0.9618
4.6962 -8.4061 -2.0354 0.9614
5.4381 -7.9737 -2.0401 0.9613
6.7930 -6.9126 -2.0486 0.9612
7.3940 -6.2920 -2.0522 0.9611
8.4158 -4.8962 -2.0581 0.9610
9.1670 -3.3337 -2.0619 0.9609
9.7293 -0.7956 -2.0635 0.9609
9.7081 0.9402 -2.0617 0.9609
9.0858 3.4588 -2.0550 0.9610
7.2538 6.3622 -2.0395 0.9613
6.6434 6.9657 -2.0347 0.9614
5.9824 7.5100 -2.0296 0.9615
4.5324 8.4056 -2.0186 0.9617
2.9542 9.0235 -2.0070 0.9619
2.1336 9.2233 -2.0011 0.9620
1.3009 9.3487 -1.9952 0.9621
-0.3660 9.1753 -1.9410 0.9632
-3.3079 7.9089 -1.8121 0.9656
-4.0565 7.6938 -1.8385 0.9651
-5.6664 7.2510 -1.9452 0.9631
-6.2870 6.7162 -1.9446 0.9631
-6.8476 6.1198 -1.9413 0.9631
-7.8017 4.7961 -1.9358 0.9633
-8.7699 2.5598 -1.9311 0.9633
-9.1331 0.1535 -1.9308 0.9633
-9.0263 -1.4690 -1.9331 0.9633
-8.6417 -3.0517 -1.9372 0.9632
-8.3479 -3.8137 -1.9400 0.9632
-7.9887 -4.5486 -1.9432 0.9631
-7.5665 -5.2509 -1.9468 0.9630
-7.0839 -5.9152 -1.9508 0.9630
-5.9509 5.7686 -1.9478 0.9665
-7.2355 3.9777 -1.9405 0.9666
-7.8146 2.6289 -1.9377 0.9667
-8.0144 1.9226 -1.9370 0.9667
-8.2276 0.4721 -1.9369 0.9667
-8.0733 -1.7198 -1.9400 0.9667
-7.8960 -2.4334 -1.9419 0.9666
-7.6574 -3.1299 -1.9442 0.9666
-7.0025 -4.4504 -1.9500 0.9665
-5.6113 -6.1770 -1.9613 0.9663
-4.4483 -7.1059 -1.9703 0.9661
0.5473 -8.5199 -2.0065 0.9655
1.3063 -8.4595 -2.0117 0.9654
2.0589 -8.3310 -2.0169 0.9654
3.5194 -7.8723 -2.0267 0.9652
5.5077 -6.7058 -2.0395 0.9650
6.0931 -6.2003 -2.0431 0.9649
6.6309 -5.6427 -2.0463 0.9649
7.1164 -5.0375 -2.0491 0.9648
8.2170 -2.9882 -2.0549 0.9647
8.7469 0.0654 -2.0558 0.9647
7.8278 3.8084 -2.0459 0.9649
7.4460 4.4823 -2.0426 0.9649
7.0052 5.1177 -2.0389 0.9650
5.3711 6.7427 -2.0260 0.9652
4.7388 7.1766 -2.0212 0.9653
3.3751 7.8630 -2.0110 0.9655
1.9183 8.2928 -2.0005 0.9656
-0.3366 8.4375 -1.9846 0.9659
-1.0820 8.3450 -1.9777 0.9660
-1.8128 8.1831 -1.9698 0.9661
-2.5260 7.9658 -1.9640 0.9662
-3.2184 7.6950 -1.9603 0.9663
-3.8868 7.3720 -1.9587 0.9663
-5.1166 6.5475 -1.9529 0.9664
-5.6688 6.0559 -1.9495 0.9665
-7.0378 4.3265 -1.9416 0.9666
-7.3877 3.6799 -1.9397 0.9667
-7.6801 3.0059 -1.9383 0.9667
-7.9130 2.3097 -1.9374 0.9667
-8.0849 1.5963 -1.9368 0.9667
-8.1944 0.8708 -1.9367 0.9667
-8.2409 0.1385 -1.9371 0.9667
-8.2240 -0.5954 -1.9379 0.9667
-7.7950 -2.7527 -1.9429 0.9666
-7.2038 -4.1017 -1.9483 0.9665
-6.8218 -4.7341 -1.9515 0.9665
-4.9326 5.7168 -1.9550 0.9693
-5.4134 5.2476 -1.9521 0.9693
-6.2422 4.1950 -1.9473 0.9694
-7.1121 2.3926 -1.9429 0.9695
-7.4200 1.0940 -1.9419 0.9695
-7.4884 0.4297 -1.9421 0.9695
-7.4990 -0.2382 -1.9426 0.9695
-7.4517 -0.9047 -1.9436 0.9695
-7.1849 -2.2143 -1.9466 0.9694
-5.9937 -4.6060 -1.9572 0.9692
-5.1014 -5.6156 -1.9643 0.9691
-4.5909 -6.0594 -1.9683 0.9691
-3.4596 -6.8065 -1.9769 0.9689
-2.8470 -7.1036 -1.9815 0.9689
-1.5506 -7.5314 -1.9909 0.9687
-0.8767 -7.6580 -1.9958 0.9687
-0.1925 -7.7244 -2.0006 0.9686
1.1848 -7.6728 -2.0102 0.9684
1.8670 -7.5544 -2.0148 0.9684
3.8197 -6.8371 -2.0278 0.9682
4.4212 -6.4826 -2.0317 0.9681
6.4434 -4.5611 -2.0440 0.9679
6.8308 -3.9741 -2.0462 0.9679
7.8045 -1.3450 -2.0505 0.9678
7.8931 -0.6454 -2.0505 0.9678
7.9174 0.0592 -2.0500 0.9678
7.8771 0.7629 -2.0491 0.9678
7.3767 2.8082 -2.0437 0.9679
6.7439 4.0597 -2.0381 0.9680
6.3458 4.6359 -2.0348 0.9680
4.8684 6.1116 -2.0231 0.9682
4.2962 6.5063 -2.0187 0.9683
2.4091 7.3585 -2.0048 0.9685
1.7408 7.5255 -1.9999 0.9686
1.0620 7.6320 -1.9951 0.9687
0.3780 7.6776 -1.9903 0.9687
-0.9837 7.5870 -1.9808 0.9689
-1.6509 7.4523 -1.9763 0.9690
-4.1125 6.3561 -1.9601 0.9692
-4.6534 5.9548 -1.9567 0.9693
-7.2019 2.1022 -1.9425 0.9695
-7.5004 0.1260 -1.9423 0.9695
-6.5531 -3.7312 -1.9525 0.9693
-4.5190 5.2376 -1.9583 0.9717
-4.9602 4.8082 -1.9557 0.9717
-5.7208 3.8446 -1.9512 0.9718
-6.0348 3.3176 -1.9495 0.9718
-6.3016 2.7657 -1.9482 0.9718
-6.5193 2.1931 -1.9472 0.9718
-6.8017 1.0028 -1.9463 0.9718
-6.8740 -0.2183 -1.9470 0.9718
-6.8304 -0.8293 -1.9478 0.9718
-6.5849 -2.0294 -1.9507 0.9718
-6.3846 -2.6096 -1.9526 0.9717
-6.1343 -3.1709 -1.9549 0.9717
-5.8357 -3.7089 -1.9575 0.9717
-5.4907 -4.2194 -1.9603 0.9716
-5.1019 -4.6987 -1.9635 0.9716
-3.7007 -5.9116 -1.9744 0.9714
-2.6054 -6.5007 -1.9826 0.9713
3.4886 -6.2445 -2.0249 0.9707
5.8808 -4.1628 -2.0397 0.9705
6.2338 -3.6267 -2.0417 0.9705
6.5367 -3.0602 -2.0433 0.9704
7.2019 -0.5889 -2.0456 0.9704
7.2242 0.0540 -2.0452 0.9704
7.0930 1.3319 -2.0431 0.9704
6.9408 1.9559 -2.0414 0.9705
6.7327 2.5630 -2.0394 0.9705
5.7939 4.2328 -2.0313 0.9706
4.9355 5.1749 -2.0244 0.9707
4.4473 5.5829 -2.0206 0.9708
3.9253 5.9446 -2.0167 0.9708
3.3740 6.2573 -2.0125 0.9709
1.5918 6.8813 -1.9995 0.9711
-0.2797 7.0108 -1.9863 0.9713
-3.2396 6.1445 -1.9664 0.9715
-4.2630 5.4551 -1.9599 0.9716
-5.1479 4.6008 -1.9545 0.9717
-5.8693 3.6082 -1.9504 0.9718
-6.7930 -1.1055 -1.9483 0.9718
-6.6725 -1.7066 -1.9497 0.9718
-5.8107 2.5503 -1.9518 0.9738
-6.0117 2.0224 -1.9509 0.9738
-6.1660 1.4792 -1.9503 0.9738
-6.2724 0.9248 -1.9501 0.9738
-6.3301 0.3632 -1.9502 0.9738
-6.3389 -0.2013 -1.9507 0.9738
-6.0714 -1.8711 -1.9541 0.9738
-5.0606 -3.8889 -1.9630 0.9736
-3.8727 -5.1115 -1.9725 0.9735
-2.9164 -5.7378 -1.9797 0.9734
-1.3057 -6.3419 -1.9915 0.9733
-0.7380 -6.4460 -1.9956 0.9732
0.4176 -6.5011 -2.0037 0.9731
1.5691 -6.3492 -2.0116 0.9730
2.1316 -6.1961 -2.0154 0.9730
2.6791 -5.9927 -2.0190 0.9729
3.2070 -5.7404 -2.0225 0.9729
4.6293 -4.7108 -2.0315 0.9727
5.0360 -4.2855 -2.0339 0.9727
5.4029 -3.8246 -2.0360 0.9727
5.7268 -3.3318 -2.0379 0.9727
6.2343 -2.2672 -2.0404 0.9726
6.4136 -1.7042 -2.0411 0.9726
6.5409 -1.1272 -2.0415 0.9726
6.6151 -0.5409 -2.0415 0.9726
6.6357 0.0496 -2.0411 0.9726
6.6025 0.6394 -2.0403 0.9726
6.5158 1.2235 -2.0391 0.9726
6.1857 2.3548 -2.0358 0.9727
5.9453 2.8925 -2.0336 0.9727
4.5372 4.7573 -2.0220 0.9729
3.6097 5.4666 -2.0149 0.9730
3.1032 5.7551 -2.0111 0.9730
2.0264 6.1894 -2.0032 0.9731
1.4648 6.3323 -1.9991 0.9732
-0.8290 6.3937 -1.9830 0.9734
-1.9414 6.1224 -1.9755 0.9735
-2.4739 5.9148 -1.9720 0.9735
-2.9851 5.6618 -1.9687 0.9736
-3.9291 5.0279 -1.9627 0.9736
-4.3549 4.6522 -1.9600 0.9737
-4.7458 4.2413 -1.9577 0.9737
-5.4116 3.3268 -1.9539 0.9738
-5.6820 2.8302 -1.9525 0.9738
-6.0877 1.7770 -1.9506 0.9738
-6.2203 1.2281 -1.9502 0.9738
-6.3047 0.6700 -1.9501 0.9738
-6.3402 0.1065 -1.9504 0.9738
-6.3266 -0.4580 -1.9510 0.9738
-6.2638 -1.0194 -1.9520 0.9738
-5.7867 -2.6436 -1.9568 0.9737
-3.8591 4.4727 -1.9637 0.9754
-4.2367 4.1069 -1.9614 0.9754
-4.5804 3.7099 -1.9593 0.9755
-5.3854 2.3636 -1.9550 0.9755
-5.8136 0.8571 -1.9534 0.9755
-5.8671 0.3366 -1.9535 0.9755
-5.8375 -0.7087 -1.9547 0.9755
-5.6265 -1.7340 -1.9571 0.9755
-5.2398 -2.7085 -1.9607 0.9754
-4.6882 -3.6027 -1.9654 0.9754
-4.3551 -4.0109 -1.9681 0.9754
-2.7001 -5.3123 -1.9808 0.9752
-1.7224 -5.7274 -1.9881 0.9751
-0.6828 -5.9644 -1.9955 0.9750
-0.1499 -6.0128 -1.9993 0.9750
0.9213 -5.9663 -2.0067 0.9749
1.4510 -5.8712 -2.0103 0.9748
3.4297 -5.0289 -2.0234 0.9747
3.8687 -4.7103 -2.0262 0.9746
4.2777 -4.3530 -2.0287 0.9746
4.6531 -3.9596 -2.0309 0.9746
4.9917 -3.5335 -2.0329 0.9746
5.5470 -2.5969 -2.0359 0.9745
5.9243 -1.5742 -2.0376 0.9745
6.1104 -0.4997 -2.0379 0.9745
5.7149 2.1755 -2.0327 0.9746
5.4933 2.6726 -2.0306 0.9746
4.9210 3.5951 -2.0258 0.9746
3.7802 4.7455 -2.0168 0.9747
2.8697 5.3220 -2.0099 0.9748
2.3806 5.5462 -2.0062 0.9749
1.8744 5.7253 -2.0025 0.9749
0.8272 5.9445 -1.9950 0.9750
-0.7674 5.9188 -1.9839 0.9752
-1.7977 5.6692 -1.9769 0.9752
-2.2910 5.4777 -1.9737 0.9753
-2.7649 5.2440 -1.9706 0.9753
-4.3974 3.9300 -1.9604 0.9754
-5.0151 3.0831 -1.9569 0.9755
-5.2659 2.6230 -1.9555 0.9755
-5.4755 2.1431 -1.9545 0.9755
-5.7654 1.1383 -1.9534 0.9755
-5.8636 -0.4245 -1.9542 0.9755
-5.8053 -0.9448 -1.9551 0.9755
-5.3621 -2.4497 -1.9596 0.9755
-5.1284 -2.9200 -1.9617 0.9754
-3.5911 4.1621 -1.9658 0.9769
-4.2630 3.4528 -1.9618 0.9770
-4.5494 3.0574 -1.9601 0.9770
-4.8000 2.6387 -1.9588 0.9770
-5.0129 2.2001 -1.9577 0.9770
-5.3199 1.2762 -1.9564 0.9770
-5.4690 -0.1737 -1.9567 0.9770
-5.4338 -0.6597 -1.9574 0.9770
-5.3563 -1.1410 -1.9584 0.9770
-5.2369 -1.6140 -1.9597 0.9770
-5.0766 -2.0750 -1.9612 0.9770
-4.6378 -2.9475 -1.9651 0.9769
-4.0520 -3.7318 -1.9699 0.9769
-2.9358 -4.6898 -1.9786 0.9768
-2.0651 -5.1527 -1.9851 0.9767
-0.6347 -5.5439 -1.9955 0.9766
0.3590 -5.5881 -2.0025 0.9765
0.8560 -5.5435 -2.0059 0.9765
1.8308 -5.3215 -2.0125 0.9764
2.3004 -5.1456 -2.0156 0.9763
3.9715 -4.0414 -2.0263 0.9762
4.9108 -2.8570 -2.0317 0.9762
5.1486 -2.4104 -2.0330 0.9761
5.4984 -1.4611 -2.0345 0.9761
5.6074 -0.9664 -2.0348 0.9761
5.6607 0.5482 -2.0338 0.9761
5.5868 1.0490 -2.0328 0.9761
5.4679 1.5408 -2.0315 0.9762
4.8537 2.9218 -2.0259 0.9762
4.5692 3.3381 -2.0236 0.9762
4.2487 3.7265 -2.0210 0.9763
3.5111 4.4077 -2.0152 0.9763
3.1003 4.6952 -2.0121 0.9764
2.2120 5.1532 -2.0054 0.9765
1.7419 5.3204 -2.0020 0.9765
0.7689 5.5255 -1.9950 0.9766
0.2739 5.5622 -1.9915 0.9766
-0.2216 5.5549 -1.9881 0.9767
-0.7136 5.5038 -1.9847 0.9767
-1.1983 5.4095 -1.9814 0.9767
-1.6721 5.2730 -1.9782 0.9768
-2.5722 4.8786 -1.9723 0.9768
-2.9919 4.6242 -1.9696 0.9769
-4.0925 3.6575 -1.9628 0.9770
-4.6679 2.8696 -1.9595 0.9770
-4.9016 2.4415 -1.9583 0.9770
-5.0969 1.9949 -1.9573 0.9770
-5.2524 1.5331 -1.9567 0.9770
-5.4397 0.5780 -1.9562 0.9770
-5.4702 0.0919 -1.9565 0.9770
-5.4037 -0.8796 -1.9578 0.9770
-5.3071 -1.3574 -1.9590 0.9770
-4.7726 -2.7174 -1.9640 0.9769
-4.5169 -3.1346 -1.9661 0.9769
-4.2254 -3.5282 -1.9685 0.9769
-3.3543 3.8877 -1.9677 0.9782
-3.6831 3.5703 -1.9657 0.9783
-3.9825 3.2256 -1.9640 0.9783
-4.2503 2.8564 -1.9624 0.9783
-4.4846 2.4654 -1.9612 0.9783
-4.6837 2.0556 -1.9601 0.9783
-5.0567 0.7455 -1.9588 0.9783
-2.3024 0.1321 -0.8838 0.9902
-5.0044 -1.0660 -1.9608 0.9783
-4.7427 -1.9385 -1.9634 0.9783
-3.7844 -3.4853 -1.9716 0.9782
-2.7411 -4.3787 -1.9797 0.9781
-1.9277 -4.8099 -1.9858 0.9780
-1.4947 -4.9702 -1.9889 0.9780
-0.5922 -5.1732 -1.9954 0.9779
-0.1300 -5.2139 -1.9987 0.9779
1.2573 -5.0875 -2.0083 0.9778
2.5670 -4.5948 -2.0170 0.9777
2.9693 -4.3538 -2.0195 0.9777
3.7021 -3.7673 -2.0241 0.9776
4.0264 -3.4264 -2.0261 0.9776
4.3189 -3.0572 -2.0278 0.9776
4.7984 -2.2464 -2.0304 0.9776
5.1241 -1.3616 -2.0318 0.9775
5.2257 -0.9006 -2.0321 0.9775
5.2755 0.5109 -2.0311 0.9776
5.2068 0.9777 -2.0302 0.9776
5.0962 1.4361 -2.0290 0.9776
4.9447 1.8823 -2.0275 0.9776
4.5246 2.7237 -2.0238 0.9776
4.2597 3.1120 -2.0216 0.9777
3.9613 3.4744 -2.0192 0.9777
2.8914 4.3789 -2.0109 0.9778
2.4867 4.6117 -2.0078 0.9778
2.0634 4.8071 -2.0047 0.9778
1.6251 4.9636 -2.0015 0.9779
0.2556 5.1911 -1.9917 0.9780
-0.6661 5.1377 -1.9853 0.9781
-1.1188 5.0502 -1.9823 0.9781
-1.5612 4.9233 -1.9793 0.9781
-1.9901 4.7581 -1.9764 0.9781
-2.4021 4.5560 -1.9738 0.9782
-3.5074 3.7468 -1.9668 0.9783
-4.1083 3.0605 -1.9632 0.9783
-4.5796 2.2811 -1.9607 0.9783
-4.9076 1.4325 -1.9592 0.9783
-5.0147 0.9901 -1.9588 0.9783
-2.2928 0.0385 -0.8788 0.9902
-2.3038 -0.1668 -0.8852 0.9902
-4.9584 -1.2682 -1.9613 0.9783
-4.8292 -1.7053 -1.9626 0.9783
-4.6620 -2.1298 -1.9642 0.9783
-3.7326 3.0232 -1.9659 0.9795
-4.3904 1.9269 -1.9623 0.9795
-2.0991 0.5036 -0.8835 0.9907
-2.0071 0.1152 -0.8228 0.9913
-1.9979 -0.0635 -0.8181 0.9914
-2.0199 -0.2452 -0.8328 0.9912
-4.5860 -1.4133 -1.9640 0.9795
-4.4452 -1.8169 -1.9654 0.9795
-4.2694 -2.2069 -1.9670 0.9794
-3.8182 -2.9342 -1.9708 0.9794
-3.5461 -3.2658 -1.9730 0.9794
-2.9185 -3.8521 -1.9780 0.9793
-2.1959 -4.3202 -1.9834 0.9793
-1.8055 -4.5050 -1.9863 0.9792
-0.9817 -4.7679 -1.9923 0.9792
0.7474 -4.8403 -2.0045 0.9791
1.1767 -4.7615 -2.0074 0.9790
3.1328 -3.8144 -2.0202 0.9789
4.0396 -2.8595 -2.0256 0.9788
4.2808 -2.4905 -2.0270 0.9788
4.4878 -2.1010 -2.0281 0.9788
4.6587 -1.6942 -2.0289 0.9788
4.7923 -1.2734 -2.0294 0.9788
4.8872 -0.8422 -2.0297 0.9788
4.8698 0.9144 -2.0279 0.9788
4.6250 1.7607 -2.0254 0.9788
4.2326 2.5479 -2.0220 0.9789
3.3983 3.5631 -2.0152 0.9789
2.7060 4.0980 -2.0099 0.9790
1.9314 4.4996 -2.0041 0.9791
1.1002 4.7563 -1.9980 0.9791
0.6718 4.8279 -1.9950 0.9792
0.2393 4.8611 -1.9919 0.9792
-0.1937 4.8557 -1.9889 0.9792
-0.6239 4.8120 -1.9859 0.9792
-1.4625 4.6121 -1.9803 0.9793
-1.8644 4.4578 -1.9776 0.9793
-2.2507 4.2688 -1.9751 0.9794
-2.6183 4.0468 -1.9727 0.9794
-3.2870 3.5114 -1.9685 0.9794
-3.5831 3.2022 -1.9668 0.9794
-3.8506 2.8685 -1.9652 0.9795
-4.4640 1.7472 -1.9620 0.9795
-2.0733 0.4094 -0.8649 0.9909
-1.9946 0.0335 -0.8165 0.9914
-2.0389 -0.3318 -0.8455 0.9911
-4.6477 -1.1887 -1.9634 0.9795
-4.3695 -1.9962 -1.9661 0.9795
-3.9539 -2.7438 -1.9697 0.9794
-3.6981 -3.0879 -1.9718 0.9794
-3.5084 2.8416 -1.9676 0.9805
-3.7447 2.5165 -1.9663 0.9805
-3.9514 2.1722 -1.9651 0.9805
-4.1271 1.8113 -1.9643 0.9805
-1.4879 0.3569 -0.6669 0.9933
-1.4429 -0.0458 -0.6292 0.9937
-1.4725 -0.1788 -0.6465 0.9935
-1.4790 -0.3151 -0.6590 0.9934
-1.4940 -0.4604 -0.6813 0.9932
-4.0128 -2.0742 -1.9687 0.9805
-3.8157 -2.4250 -1.9704 0.9805
-3.5883 -2.7575 -1.9723 0.9804
-3.3323 -3.0690 -1.9743 0.9804
-2.4125 -3.8538 -1.9815 0.9804
-2.0629 -4.0585 -1.9841 0.9803
-0.9220 -4.4779 -1.9925 0.9802
0.2943 -4.5821 -2.0011 0.9802
0.7017 -4.5441 -2.0039 0.9801
1.8841 -4.2143 -2.0118 0.9801
2.2541 -4.0348 -2.0143 0.9800
2.6070 -3.8226 -2.0165 0.9800
2.9398 -3.5793 -2.0186 0.9800
3.2496 -3.3067 -2.0205 0.9800
3.5338 -3.0071 -2.0222 0.9800
4.3705 -1.5894 -2.0268 0.9799
4.6286 0.4482 -2.0267 0.9799
4.5686 0.8578 -2.0259 0.9799
4.3393 1.6519 -2.0235 0.9799
3.9715 2.3908 -2.0203 0.9800
3.1893 3.3440 -2.0139 0.9800
2.8757 3.6101 -2.0115 0.9801
2.1849 4.0519 -2.0063 0.9801
1.4283 4.3628 -2.0007 0.9802
0.6309 4.5338 -1.9950 0.9802
-0.1819 4.5608 -1.9893 0.9803
-0.5861 4.5202 -1.9865 0.9803
-1.7518 4.1885 -1.9786 0.9804
-2.1149 4.0112 -1.9763 0.9804
-2.4605 3.8029 -1.9740 0.9804
-3.0893 3.3002 -1.9701 0.9805
-3.8425 2.3622 -1.9657 0.9805
-1.4340 0.0241 -0.6251 0.9938
-1.4615 -0.1058 -0.6386 0.9936
-3.9270 -2.2359 -1.9694 0.9805
-3.7159 -2.5787 -1.9712 0.9805
-3.4753 -2.9019 -1.9732 0.9804
-3.0569 2.9632 -1.9707 0.9814
-1.2489 0.5481 -0.6313 0.9940
-1.2748 0.1879 -0.5964 0.9943
-1.2693 0.0728 -0.5885 0.9944
-1.2651 -0.0402 -0.5859 0.9944
-1.2752 -0.1548 -0.5946 0.9944
-1.2670 -0.2699 -0.5996 0.9943
-1.2693 -0.3912 -0.6148 0.9942
-1.2509 -0.5113 -0.6255 0.9941
-2.8728 -3.1624 -1.9776 0.9813
-2.5830 -3.4093 -1.9799 0.9813
-2.2723 -3.6298 -1.9823 0.9813
-1.2380 -4.1169 -1.9899 0.9812
-0.8681 -4.2163 -1.9926 0.9812
-0.4903 -4.2826 -1.9953 0.9812
0.2771 -4.3134 -2.0007 0.9811
0.6605 -4.2773 -2.0033 0.9811
1.4115 -4.1029 -2.0084 0.9811
3.5654 -2.5238 -2.0220 0.9809
4.3124 -0.7432 -2.0256 0.9809
4.3539 0.4216 -2.0248 0.9809
4.2067 1.1854 -2.0230 0.9809
4.0821 1.5540 -2.0218 0.9809
3.9249 1.9096 -2.0204 0.9809
3.7365 2.2493 -2.0188 0.9810
3.2726 2.8703 -2.0150 0.9810
3.0011 3.1467 -2.0128 0.9810
2.7062 3.3973 -2.0105 0.9810
1.7068 3.9763 -2.0030 0.9811
1.3446 4.1070 -2.0003 0.9811
0.9726 4.2046 -1.9977 0.9812
0.2116 4.2988 -1.9922 0.9812
-0.1713 4.2948 -1.9896 0.9812
-0.5519 4.2569 -1.9870 0.9813
-0.9272 4.1856 -1.9844 0.9813
-1.6502 3.9454 -1.9796 0.9813
-1.2555 0.4914 -0.6241 0.9941
-1.2703 0.3708 -0.6125 0.9942
-1.2696 0.2507 -0.5990 0.9943
-1.2746 0.1354 -0.5933 0.9944
-1.2622 0.0212 -0.5843 0.9945
-1.2738 -0.2073 -0.5974 0.9943
-1.2704 -0.3249 -0.6070 0.9942
-1.2636 -0.4462 -0.6203 0.9941
-3.7001 -2.1067 -1.9709 0.9814
-2.6284 3.0462 -1.9736 0.9822
-3.1218 2.5285 -1.9706 0.9823
-1.1026 0.4839 -0.5907 0.9946
-1.1265 0.3790 -0.5830 0.9947
-1.1328 0.2718 -0.5714 0.9948
-1.1391 -0.0362 -0.5591 0.9949
-1.1358 -0.2420 -0.5696 0.9948
-3.3948 -2.1575 -1.9731 0.9822
-3.1921 -2.4530 -1.9747 0.9822
-2.9641 -2.7298 -1.9766 0.9822
-2.1450 -3.4265 -1.9830 0.9822
-0.4627 -4.0413 -1.9953 0.9820
-0.1015 -4.0716 -1.9978 0.9820
0.2614 -4.0696 -2.0004 0.9820
1.3315 -3.8703 -2.0077 0.9819
2.0006 -3.5809 -2.0121 0.9819
2.8830 -2.9337 -2.0176 0.9818
3.1349 -2.6677 -2.0191 0.9818
3.3619 -2.3798 -2.0205 0.9818
3.8761 -1.4096 -2.0231 0.9818
4.0659 -0.7007 -2.0238 0.9818
4.1252 0.0308 -2.0235 0.9818
4.0520 0.7608 -2.0224 0.9818
3.9665 1.1177 -2.0214 0.9818
3.7011 1.8007 -2.0189 0.9818
3.0865 2.7071 -2.0138 0.9819
2.2549 3.4149 -2.0073 0.9819
1.6103 3.7514 -2.0025 0.9820
1.2686 3.8749 -2.0000 0.9820
0.9178 3.9674 -1.9975 0.9820
0.5605 4.0281 -1.9949 0.9820
0.1997 4.0569 -1.9924 0.9821
-0.1617 4.0534 -1.9899 0.9821
-0.8752 3.9509 -1.9850 0.9821
-2.1887 3.3827 -1.9763 0.9822
-3.4195 2.1021 -1.9689 0.9823
-1.0876 0.5418 -0.5960 0.9946
-1.1156 0.4367 -0.5877 0.9947
-1.1384 0.2248 -0.5692 0.9948
-1.1443 0.1216 -0.5645 0.9949
-1.1368 0.0191 -0.5577 0.9949
-1.1330 -0.2898 -0.5736 0.9948
-1.1237 -0.3968 -0.5846 0.9947
-1.0969 -0.5011 -0.5915 0.9946
-3.3058 -2.2941 -1.9738 0.9822
-2.4866 2.8820 -1.9747 0.9830
-3.1530 2.1189 -1.9708 0.9830
-0.9515 0.5231 -0.5633 0.9951
-1.0127 0.3407 -0.5543 0.9952
-1.0356 0.1527 -0.5430 0.9953
-1.0372 -0.1259 -0.5420 0.9953
-1.0164 -0.3133 -0.5518 0.9952
-0.9978 -0.4078 -0.5592 0.9952
-0.9639 -0.4983 -0.5629 0.9951
-0.9726 -0.6181 -0.5978 0.9948
-3.0199 -2.3207 -1.9758 0.9830
-2.8040 -2.5824 -1.9776 0.9830
-2.5656 -2.8243 -1.9795 0.9830
-2.3066 -3.0444 -1.9815 0.9829
-2.0288 -3.2410 -1.9836 0.9829
-0.7747 -3.7625 -1.9928 0.9828
-0.4375 -3.8211 -1.9953 0.9828
-0.0960 -3.8495 -1.9977 0.9828
0.2471 -3.8474 -2.0001 0.9828
0.5891 -3.8147 -2.0024 0.9828
1.2585 -3.6582 -2.0069 0.9827
1.8907 -3.3843 -2.0111 0.9827
2.4649 -3.0012 -2.0148 0.9827
2.9621 -2.5207 -2.0178 0.9826
3.1766 -2.2486 -2.0190 0.9826
3.3657 -1.9582 -2.0201 0.9826
3.5281 -1.6517 -2.0209 0.9826
3.6622 -1.3318 -2.0216 0.9826
3.7669 -1.0010 -2.0220 0.9826
3.8850 -0.3177 -2.0222 0.9826
3.8974 0.0291 -2.0220 0.9826
3.8785 0.3756 -2.0215 0.9826
3.7477 1.0561 -2.0200 0.9826
3.6370 1.3845 -2.0189 0.9826
3.4972 1.7015 -2.0176 0.9826
3.3296 2.0044 -2.0162 0.9826
3.1356 2.2907 -2.0145 0.9827
2.9168 2.5583 -2.0128 0.9827
2.6752 2.8049 -2.0108 0.9827
1.8338 3.4008 -2.0044 0.9827
1.1994 3.6634 -1.9997 0.9828
0.5300 3.8087 -1.9949 0.9828
0.1889 3.8361 -1.9925 0.9828
-0.1529 3.8331 -1.9901 0.9829
-1.1556 3.6442 -1.9833 0.9829
-1.7793 3.3748 -1.9792 0.9830
-2.6004 2.7779 -1.9740 0.9830
-2.8352 2.5338 -1.9726 0.9830
-0.9667 0.5943 -0.5887 0.9949
-0.9707 0.4835 -0.5626 0.9951
-1.0181 0.2972 -0.5502 0.9952
-1.0376 0.1103 -0.5413 0.9953
-1.0320 0.0173 -0.5354 0.9954
-1.0341 -0.1683 -0.5435 0.9953
-1.0201 -0.2609 -0.5463 0.9953
-1.0099 -0.3566 -0.5556 0.9952
-0.9843 -0.4497 -0.5614 0.9951
-2.3566 2.7313 -1.9758 0.9837
-2.7995 2.2674 -1.9731 0.9837
-0.8772 0.4822 -0.5482 0.9954
-0.9012 0.3955 -0.5390 0.9955
-0.9177 0.3087 -0.5303 0.9956
-0.9445 -0.0300 -0.5176 0.9957
-0.9366 -0.1995 -0.5245 0.9956
-0.8850 -0.4575 -0.5457 0.9955
-0.8668 -0.5509 -0.5625 0.9953
-2.8619 -2.1992 -1.9768 0.9837
-2.6571 -2.4471 -1.9785 0.9837
-0.7338 -3.5640 -1.9929 0.9835
-0.4143 -3.6193 -1.9952 0.9835
0.2340 -3.6437 -1.9998 0.9835
0.8779 -3.5524 -2.0042 0.9834
1.1917 -3.4639 -2.0063 0.9834
2.0698 -3.0350 -2.0120 0.9834
2.3335 -2.8412 -2.0137 0.9834
2.5789 -2.6243 -2.0152 0.9834
3.1859 -1.8535 -2.0187 0.9833
1.8846 -0.5008 -1.0680 0.9911
1.8858 -0.3250 -1.0481 0.9913
1.8890 0.1829 -1.0394 0.9914
1.8841 0.3538 -1.0500 0.9913
3.4427 1.3106 -2.0176 0.9833
3.3105 1.6106 -2.0164 0.9833
2.9684 2.1686 -2.0135 0.9834
2.7615 2.4220 -2.0118 0.9834
2.5328 2.6557 -2.0100 0.9834
2.0182 3.0564 -2.0060 0.9834
1.7365 3.2204 -2.0039 0.9835
0.8218 3.5527 -1.9972 0.9835
-0.1449 3.6312 -1.9904 0.9836
-0.4668 3.5999 -1.9882 0.9836
-0.7843 3.5402 -1.9860 0.9836
-1.0949 3.4528 -1.9839 0.9836
-1.6860 3.1979 -1.9800 0.9836
-1.9621 3.0325 -1.9782 0.9837
-2.4644 2.6327 -1.9751 0.9837
-2.6870 2.4014 -1.9738 0.9837
-0.8623 0.5301 -0.5544 0.9954
-0.8892 0.4429 -0.5441 0.9955
-0.9233 0.2695 -0.5268 0.9956
-0.9472 0.1007 -0.5217 0.9957
-0.9430 0.0158 -0.5165 0.9957
-0.9437 -0.1536 -0.5236 0.9956
-0.9278 -0.2373 -0.5245 0.9956
-0.8978 -0.4102 -0.5406 0.9955
-0.8723 -0.4966 -0.5497 0.9954
-0.8777 -0.6091 -0.5852 0.9951
-2.7715 -2.3142 -1.9776 0.9837
-2.2366 2.5923 -1.9767 0.9843
-0.7962 0.5351 -0.5538 0.9956
-0.8471 0.3718 -0.5341 0.9957
-0.8815 0.0506 -0.5098 0.9959
-0.8819 -0.1071 -0.5129 0.9959
-0.8758 -0.1866 -0.5170 0.9959
-0.8523 -0.3484 -0.5316 0.9958
-0.8018 -0.5096 -0.5485 0.9956
-2.5217 -2.3225 -1.9793 0.9843
-1.8240 -2.9138 -1.9847 0.9842
-1.5592 -3.0676 -1.9867 0.9842
-1.2815 -3.1974 -1.9888 0.9842
-0.9931 -3.3022 -1.9909 0.9842
-0.3931 -3.4334 -1.9952 0.9842
-0.0862 -3.4585 -1.9974 0.9841
0.2220 -3.4562 -1.9995 0.9841
0.5291 -3.4263 -2.0016 0.9841
0.8326 -3.3692 -2.0037 0.9841
1.6975 -3.0384 -2.0094 0.9841
2.2126 -2.6940 -2.0127 0.9840
2.4452 -2.4882 -2.0142 0.9840
2.6585 -2.2623 -2.0154 0.9840
3.1659 -1.4822 -2.0183 0.9840
1.7033 -0.6194 -1.0464 0.9917
1.7298 -0.4597 -1.0334 0.9918
1.7400 -0.1423 -1.0079 0.9920
1.7279 0.0129 -0.9977 0.9921
1.7412 0.1686 -1.0100 0.9920
2.8147 2.0563 -2.0125 0.9840
1.3673 3.1854 -2.0014 0.9841
0.4762 3.4223 -1.9949 0.9842
0.1697 3.4474 -1.9927 0.9842
-0.4429 3.4156 -1.9885 0.9842
-1.6001 3.0348 -1.9808 0.9843
-1.8621 2.8780 -1.9791 0.9843
-2.1090 2.6988 -1.9775 0.9843
-0.8032 0.5984 -0.5783 0.9954
-0.8073 0.4963 -0.5471 0.9956
-0.8822 0.0937 -0.5122 0.9959
-0.8801 -0.1432 -0.5148 0.9959
-0.8705 -0.2226 -0.5188 0.9959
-0.8601 -0.3037 -0.5267 0.9958
-0.8438 -0.3855 -0.5356 0.9957
-0.8189 -0.4663 -0.5441 0.9957
-0.7986 -0.5542 -0.5612 0.9955
