ply
format ascii 1.0
element vertex 1423
property float32 x
property float32 y
property float32 z
property float32 I
end_header
17.2176 -9.1571 3.4386 0.9238
14.6460 -6.1819 2.8031 0.9375
15.7014 -5.0297 2.9072 0.9352
15.8270 10.4591 3.3450 0.9258
10.9866 10.4999 2.6797 0.9401
8.9901 10.2781 2.4078 0.9460
7.4899 10.2887 2.2440 0.9496
6.0110 10.0312 2.0620 0.9536
3.8758 10.2637 1.9345 0.9564
1.9181 10.4063 1.8658 0.9579
0.9727 10.4430 1.8494 0.9583
0.0364 10.4508 1.8428 0.9584
-6.8036 11.5352 2.3614 0.9471
-1.2649 -6.4044 1.1511 0.9738
15.8088 -3.9703 2.8741 0.9359
13.8540 10.4862 3.0637 0.9319
11.3370 10.2958 2.7003 0.9397
9.4600 10.2757 2.4628 0.9448
5.2192 10.1262 2.0087 0.9548
4.1661 10.2366 1.9488 0.9561
3.1610 10.3240 1.9038 0.9571
2.1900 10.3908 1.8724 0.9578
1.2409 10.4387 1.8536 0.9582
0.3023 10.4485 1.8431 0.9584
-2.0263 13.4195 2.3930 0.9464
-3.2130 13.1715 2.3906 0.9464
-2.8197 6.3473 1.2247 0.9722
-6.6516 11.9628 2.4135 0.9459
14.8365 -7.8907 2.5743 0.9343
16.0628 -5.1454 2.5839 0.9340
15.8085 10.4469 2.9028 0.9262
12.9481 10.3291 2.5374 0.9352
10.7721 10.2950 2.2827 0.9415
8.7547 10.0090 2.0371 0.9476
7.4199 10.1925 1.9314 0.9503
6.1974 10.3422 1.8471 0.9524
5.0326 10.4061 1.7708 0.9543
2.9029 10.4211 1.6572 0.9572
1.9308 10.4753 1.6318 0.9578
0.9793 10.5141 1.6177 0.9582
0.0367 10.5379 1.6144 0.9583
-3.7928 13.9920 2.2209 0.9430
-5.0010 13.5277 2.2094 0.9433
-5.8145 12.2393 2.0758 0.9466
-1.2624 -6.3919 0.9981 0.9740
15.6453 -7.0779 2.6306 0.9329
16.4189 10.2598 2.9660 0.9246
7.7870 10.1440 1.9591 0.9496
4.2373 10.4115 1.7220 0.9555
3.1901 10.4190 1.6693 0.9569
2.2048 10.4614 1.6378 0.9577
-0.6385 10.5461 1.6186 0.9581
-3.6658 15.0275 2.3696 0.9393
-2.8159 6.3387 1.0626 0.9723
16.4481 -6.9425 2.3249 0.9305
15.4696 10.2229 2.4146 0.9279
10.6212 10.1507 1.9132 0.9425
9.0625 10.3609 1.7925 0.9460
7.5576 10.3818 1.6722 0.9495
5.0867 10.5178 1.5214 0.9540
3.9747 10.5257 1.4651 0.9556
2.9342 10.5335 1.4239 0.9569
1.9429 10.5412 1.3958 0.9577
0.9794 10.5152 1.3752 0.9583
-3.7851 13.9637 1.8840 0.9433
-6.0606 12.7574 1.8392 0.9446
-7.4164 12.5740 1.9010 0.9428
-1.2597 -6.3777 0.8466 0.9741
11.1018 10.0822 1.9529 0.9413
9.4875 10.3055 1.8241 0.9451
7.9675 10.3791 1.7039 0.9486
6.6066 10.4145 1.6060 0.9515
4.2829 10.5235 1.4795 0.9552
3.2244 10.5313 1.4342 0.9565
2.2212 10.5390 1.4025 0.9575
1.2496 10.5116 1.3785 0.9582
-2.8124 6.3308 0.9021 0.9724
-6.6110 11.8898 1.7715 0.9466
15.1364 10.0028 1.9482 0.9296
10.8318 10.3520 1.6089 0.9415
9.1686 10.4822 1.4954 0.9455
7.6382 10.4924 1.3936 0.9491
6.2721 10.4668 1.3103 0.9521
5.0830 10.5103 1.2537 0.9541
2.9322 10.5265 1.1734 0.9570
1.0002 10.7388 1.1581 0.9575
0.0374 10.7469 1.1540 0.9577
15.8856 9.9266 2.0115 0.9274
6.6369 10.4624 1.3305 0.9514
5.4142 10.5044 1.2690 0.9536
3.2223 10.5242 1.1819 0.9567
2.2379 10.6184 1.1653 0.9573
0.3109 10.7445 1.1543 0.9577
-0.6436 10.6298 1.1435 0.9581
-2.8090 6.3230 0.7430 0.9725
15.6021 10.3105 1.5831 0.9277
13.0953 10.4465 1.4181 0.9350
9.1609 10.4734 1.1779 0.9457
6.4378 10.7434 1.0602 0.9510
1.9858 10.7739 0.9274 0.9570
0.9998 10.7336 0.9126 0.9576
0.0375 10.7901 0.9134 0.9576
-1.2526 -6.3423 0.5473 0.9744
16.4907 10.3047 1.6461 0.9249
9.6390 10.4700 1.2047 0.9445
5.5408 10.7501 1.0238 0.9526
4.3069 10.5826 0.9672 0.9552
3.2955 10.7634 0.9529 0.9558
0.3121 10.7878 0.9136 0.9576
-0.6432 10.6230 0.9009 0.9582
13.3309 10.6344 1.0575 0.9339
9.2172 10.5378 0.8682 0.9454
6.4331 10.7355 0.7761 0.9511
5.1966 10.7451 0.7401 0.9533
4.0406 10.7002 0.7093 0.9552
1.9845 10.7669 0.6789 0.9571
16.6018 10.3741 1.2140 0.9245
9.8597 10.7098 0.9027 0.9433
8.2209 10.7092 0.8372 0.9473
5.5369 10.7424 0.7494 0.9527
3.2933 10.7563 0.6976 0.9559
1.2747 10.7227 0.6696 0.9576
-0.6427 10.6162 0.6595 0.9583
13.3175 10.6237 0.6717 0.9341
9.2095 10.5290 0.5516 0.9455
5.1929 10.7375 0.4703 0.9534
4.0379 10.6930 0.4507 0.9553
2.9949 10.7516 0.4401 0.9563
1.9833 10.7600 0.4314 0.9571
0.0375 10.7764 0.4249 0.9578
8.1859 10.6636 0.5301 0.9476
6.8033 10.7246 0.5008 0.9504
5.5329 10.7348 0.4762 0.9528
3.2912 10.7492 0.4433 0.9560
-2.7987 6.2998 0.2718 0.9728
13.3041 10.6130 0.2874 0.9342
9.2248 10.5465 0.2367 0.9455
7.7954 10.7084 0.2237 0.9484
5.1893 10.7300 0.2013 0.9534
4.0351 10.6858 0.1929 0.9553
2.9929 10.7446 0.1884 0.9564
1.0024 10.7614 0.1826 0.9577
-1.2517 -6.3374 0.1091 0.9745
9.8429 10.6915 0.2455 0.9435
6.7982 10.7166 0.2144 0.9505
5.5290 10.7272 0.2039 0.9529
4.3088 10.5873 0.1931 0.9553
2.2658 10.7507 0.1856 0.9570
0.3115 10.7673 0.1820 0.9578
-2.7959 6.2937 0.1163 0.9728
13.2908 10.6024 -0.0958 0.9343
5.1856 10.7225 -0.0671 0.9535
4.0324 10.6786 -0.0643 0.9554
1.9807 10.7462 -0.0615 0.9572
0.0374 10.7628 -0.0606 0.9579
11.6886 10.6151 -0.0889 0.9388
9.8345 10.6824 -0.0817 0.9436
6.7932 10.7086 -0.0714 0.9505
4.3059 10.5801 -0.0643 0.9553
3.2868 10.7350 -0.0632 0.9561
2.2643 10.7438 -0.0618 0.9570
1.2782 10.7522 -0.0610 0.9576
0.3113 10.7605 -0.0606 0.9579
11.1553 10.6612 -0.4345 0.9401
6.4142 10.7040 -0.3514 0.9513
5.1820 10.7150 -0.3351 0.9535
4.0297 10.6714 -0.3212 0.9554
0.9966 10.6995 -0.3026 0.9579
0.0373 10.7060 -0.3015 0.9581
-5.5501 15.0128 -0.4507 0.9380
-1.2506 -6.3322 -0.1817 0.9745
14.0250 10.6157 -0.4953 0.9320
9.8261 10.6733 -0.4085 0.9436
4.3030 10.5729 -0.3214 0.9553
3.2846 10.7279 -0.3159 0.9561
1.2717 10.6972 -0.3033 0.9578
0.3097 10.7036 -0.3015 0.9581
10.5447 -14.3110 -0.9015 0.9313
7.7772 10.6834 -0.6702 0.9485
4.0270 10.6642 -0.5781 0.9554
0.9960 10.6928 -0.5446 0.9579
-1.3084 15.1912 -0.7733 0.9408
11.8502 -14.0986 -0.9340 0.9289
7.9435 -6.5967 -0.5236 0.9595
11.6508 10.5808 -0.7982 0.9389
9.8177 10.6642 -0.7351 0.9436
2.2513 10.6818 -0.5536 0.9572
0.3095 10.6969 -0.5427 0.9580
-0.6423 10.6090 -0.5390 0.9583
0.1746 -18.8928 -1.3853 0.9270
1.8708 -18.9041 -1.3929 0.9266
3.5990 -18.9139 -1.4117 0.9257
5.3886 -18.9222 -1.4426 0.9241
10.4721 -14.2124 -1.2944 0.9316
13.2508 10.5706 -1.2427 0.9343
9.1941 10.5113 -1.0239 0.9455
7.7712 10.6751 -0.9682 0.9484
5.1748 10.7000 -0.8715 0.9534
4.0243 10.6570 -0.8352 0.9553
2.9851 10.7164 -0.8157 0.9564
1.9769 10.7255 -0.7997 0.9572
0.9998 10.7341 -0.7905 0.9577
-1.3111 15.2227 -1.1203 0.9406
-5.4344 14.6999 -1.1491 0.9391
-13.3082 -14.8298 -1.4610 0.9232
-11.8160 -15.8049 -1.4469 0.9239
-8.7067 -17.4337 -1.4288 0.9248
-7.0951 -18.0894 -1.4247 0.9250
-0.3061 -18.8892 -1.3852 0.9270
4.8711 -18.9200 -1.4325 0.9246
7.9392 -6.5931 -0.7567 0.9595
13.9509 10.5595 -1.2829 0.9322
11.7117 10.6361 -1.1600 0.9385
6.7780 10.6847 -0.9278 0.9505
5.5134 10.6968 -0.8824 0.9529
1.2758 10.7317 -0.7924 0.9576
-0.6419 10.6023 -0.7788 0.9583
-2.2668 15.0117 -1.1132 0.9409
-2.7868 6.2732 -0.5033 0.9728
-1.2810 -15.9484 -1.5361 0.9377
3.0587 -16.0744 -1.5709 0.9364
4.5316 -15.9129 -1.5885 0.9357
6.0111 -15.6449 -1.6090 0.9349
7.4925 -15.2672 -1.6327 0.9339
8.9705 -14.7761 -1.6595 0.9329
10.4393 -14.1678 -1.6895 0.9317
11.8920 -13.4387 -1.7228 0.9304
8.5018 -8.0319 -1.1229 0.9541
10.1706 -8.0179 -1.2434 0.9493
16.0706 -10.4875 -1.8423 0.9258
17.1781 -7.2507 -1.7901 0.9278
18.3199 -5.8685 -1.8468 0.9256
10.8666 10.3852 -1.4431 0.9414
9.1864 10.5026 -1.3396 0.9455
7.7651 10.6668 -1.2667 0.9484
6.4001 10.6805 -1.1954 0.9512
5.1711 10.6925 -1.1403 0.9534
0.9992 10.7273 -1.0343 0.9576
-1.3138 15.2543 -1.4699 0.9403
-19.5850 2.8386 -1.8999 0.9236
-19.2693 1.0520 -1.8527 0.9254
-18.8291 -0.6566 -1.8088 0.9271
-18.2756 -2.2826 -1.7682 0.9287
-17.6192 -3.8227 -1.7309 0.9301
-16.8695 -5.2747 -1.6969 0.9314
-16.0353 -6.6372 -1.6661 0.9326
-10.8488 -12.0892 -1.5594 0.9368
-8.4076 -13.6340 -1.5378 0.9377
-5.8106 -14.8143 -1.5277 0.9381
-0.2602 -16.0594 -1.5420 0.9375
1.1828 -16.1304 -1.5528 0.9371
4.1115 -15.9696 -1.5832 0.9359
5.5896 -15.7323 -1.6029 0.9351
7.0709 -15.3861 -1.6257 0.9342
10.0225 -14.3531 -1.6807 0.9321
11.4805 -13.6588 -1.7130 0.9308
17.0064 -9.6076 -1.8752 0.9245
16.9344 -7.6611 -1.7844 0.9280
17.4720 -6.0912 -1.7764 0.9283
9.1106 9.8961 -1.2914 0.9474
6.7729 10.6768 -1.2139 0.9505
5.5094 10.6892 -1.1545 0.9528
4.2942 10.5513 -1.0937 0.9553
3.2781 10.7067 -1.0750 0.9560
2.2585 10.7160 -1.0514 0.9569
-2.2653 15.0021 -1.4566 0.9409
0.1256 -13.5908 -1.6145 0.9467
2.5769 -13.5424 -1.6375 0.9460
5.0449 -13.1303 -1.6709 0.9449
7.4909 -12.3389 -1.7146 0.9435
9.8685 -11.1520 -1.7689 0.9418
8.5123 -8.0418 -1.3910 0.9539
7.0005 -5.5188 -1.0589 0.9647
12.2242 -7.9774 -1.7339 0.9429
10.2032 -5.4265 -1.3727 0.9545
16.7300 -3.7518 -2.0366 0.9333
17.3870 -2.2946 -2.0832 0.9318
17.9260 -0.7500 -2.1312 0.9303
18.3336 0.8730 -2.1802 0.9287
16.0062 10.5775 -2.2790 0.9256
12.9773 10.3524 -1.9719 0.9353
7.5788 10.4109 -1.5296 0.9495
5.0475 10.4368 -1.3771 0.9544
2.9673 10.6526 -1.3136 0.9564
0.9985 10.7204 -1.2789 0.9576
-1.3166 15.2862 -1.8225 0.9401
-8.1204 17.0933 -2.2479 0.9266
-11.4830 16.0069 -2.3400 0.9237
-12.5963 14.6049 -2.2910 0.9253
-13.5496 13.1310 -2.2413 0.9268
-15.9829 5.3450 -2.0019 0.9344
-14.0350 -4.3884 -1.7468 0.9425
-11.8648 -7.6256 -1.6754 0.9448
-11.0131 -8.5585 -1.6568 0.9454
-10.1067 -9.4159 -1.6408 0.9459
-9.1504 -10.1966 -1.6274 0.9463
-4.9166 -12.5350 -1.5994 0.9472
-0.2199 -13.5691 -1.6120 0.9468
0.9983 -13.6143 -1.6215 0.9465
2.0322 -7.8935 -0.9682 0.9677
4.6940 -13.2118 -1.6655 0.9451
3.6307 -7.9003 -1.0328 0.9656
11.8049 -8.1394 -1.7033 0.9439
14.5927 -5.0874 -1.8357 0.9396
18.2318 0.4036 -2.1662 0.9292
18.6882 3.8063 -2.2655 0.9261
18.1151 5.4122 -2.2458 0.9267
13.6670 10.3447 -2.0361 0.9333
11.4183 10.3696 -1.8322 0.9398
3.2607 10.6498 -1.3230 0.9561
2.2570 10.7091 -1.3000 0.9569
1.2741 10.7180 -1.2821 0.9575
-0.6411 10.5888 -1.2601 0.9582
-2.2638 14.9924 -1.8011 0.9408
-4.6575 19.0932 -2.3345 0.9239
-0.9374 -11.6699 -1.6588 0.9538
0.1087 -11.7554 -1.6657 0.9536
2.2715 -7.9764 -1.1751 0.9670
4.3431 -11.3038 -1.7158 0.9523
5.3914 -10.9860 -1.7339 0.9518
6.4254 -10.5838 -1.7543 0.9512
7.4393 -10.0964 -1.7769 0.9506
8.4269 -9.5229 -1.8017 0.9499
6.8814 -5.4249 -1.2416 0.9652
10.3524 -6.7559 -1.7515 0.9513
10.2066 -5.4283 -1.6380 0.9544
13.9770 -3.1345 -2.0296 0.9438
14.4714 -1.9098 -2.0682 0.9427
14.8626 -0.6219 -2.1077 0.9417
15.2974 2.1086 -2.1880 0.9395
15.2104 4.9692 -2.2672 0.9374
13.8114 5.9236 -2.1293 0.9411
13.4367 7.2459 -2.1630 0.9402
12.2693 9.7876 -2.2238 0.9386
10.8468 10.3663 -2.1259 0.9412
9.1277 10.4355 -1.9644 0.9455
6.2422 10.4170 -1.7207 0.9521
3.9411 10.4367 -1.5807 0.9559
0.9747 10.4646 -1.4891 0.9584
-1.3792 16.0134 -2.2773 0.9371
-2.7765 15.6745 -2.2555 0.9377
-4.1179 15.1911 -2.2301 0.9384
-5.2529 14.2090 -2.1464 0.9406
-6.5732 13.8365 -2.1705 0.9400
-7.6630 12.9922 -2.1372 0.9409
-10.3116 11.9559 -2.2370 0.9382
-12.4068 8.3236 -2.1169 0.9414
-13.4864 3.2052 -1.9641 0.9455
-12.8517 -1.6051 -1.8351 0.9490
-12.0067 -3.7542 -1.7824 0.9504
-11.4728 -4.7487 -1.7593 0.9511
-10.8723 -5.6857 -1.7384 0.9516
-10.2104 -6.5624 -1.7197 0.9521
-9.4922 -7.3765 -1.7033 0.9526
-7.9061 -8.8100 -1.6772 0.9533
-7.0472 -9.4262 -1.6676 0.9536
-6.1502 -9.9733 -1.6602 0.9538
-5.2191 -10.4503 -1.6551 0.9539
-1.2466 -6.3114 -0.9115 0.9743
-0.7009 -6.6130 -0.9422 0.9735
0.8629 -11.7687 -1.6720 0.9534
1.9224 -11.7195 -1.6827 0.9532
4.0429 -11.3789 -1.7110 0.9524
3.6331 -7.9056 -1.2328 0.9655
7.1531 -10.2438 -1.7703 0.9508
8.1488 -9.6949 -1.7944 0.9501
8.4523 -8.4023 -1.6887 0.9530
7.8056 -6.4822 -1.4376 0.9598
10.8958 -6.1555 -1.7731 0.9507
13.2062 -4.6041 -1.9816 0.9451
13.8187 -3.4705 -2.0188 0.9441
14.3407 -2.2652 -2.0571 0.9430
14.7623 -0.9945 -2.0964 0.9420
15.0738 0.3337 -2.1363 0.9409
15.2658 1.7097 -2.1765 0.9398
15.2570 4.5582 -2.2562 0.9377
13.8928 5.5444 -2.1194 0.9414
9.6018 6.0000 -1.6043 0.9553
12.4693 9.4381 -2.2158 0.9388
9.1276 9.9145 -1.9094 0.9470
7.9822 10.3983 -1.8574 0.9484
1.2437 10.4622 -1.4928 0.9583
-2.3010 15.2385 -2.1836 0.9396
-4.8979 14.3621 -2.1500 0.9405
-2.7799 6.2577 -0.9702 0.9727
0.0957 -10.3488 -1.7049 0.9589
1.0241 -10.3486 -1.7131 0.9587
1.9555 -10.2769 -1.7234 0.9585
2.8856 -10.1329 -1.7356 0.9582
6.0258 -8.1781 -1.6735 0.9597
6.8138 -7.7000 -1.6938 0.9592
7.5711 -7.1527 -1.7158 0.9587
6.8819 -5.4253 -1.4436 0.9651
11.5172 -3.6893 -1.9923 0.9522
11.9911 -2.6891 -2.0245 0.9514
12.8833 0.6135 -2.1248 0.9491
12.9800 1.7892 -2.1585 0.9483
12.5436 5.3799 -2.2485 0.9462
11.2810 6.0834 -2.1114 0.9494
9.5764 9.1521 -2.1822 0.9477
7.5669 10.3945 -2.1181 0.9492
5.0403 10.4220 -1.9072 0.9542
3.9384 10.4296 -1.8366 0.9558
2.9081 10.4398 -1.7853 0.9570
1.9260 10.4492 -1.7504 0.9578
0.0340 9.7665 -1.6089 0.9612
-4.5106 12.2011 -2.1429 0.9486
-10.0631 8.1429 -2.1325 0.9489
-11.5113 3.8496 -1.9996 0.9520
-11.6235 2.7625 -1.9682 0.9527
-11.5709 0.6317 -1.9090 0.9541
-10.4821 -3.2775 -1.8093 0.9565
-8.9539 -5.7548 -1.7535 0.9578
-8.3339 -6.4764 -1.7387 0.9581
-7.6659 -7.1420 -1.7260 0.9584
-6.2031 -8.2972 -1.7066 0.9589
-5.4164 -8.7835 -1.7000 0.9590
-2.8822 -9.8598 -1.6923 0.9592
0.7593 -10.3559 -1.7106 0.9588
3.5476 -9.9849 -1.7456 0.9580
3.6357 -7.9113 -1.4343 0.9653
5.3672 -9.3702 -1.7789 0.9572
7.7826 -6.4631 -1.6666 0.9598
8.7818 -6.0550 -1.7573 0.9577
9.4254 -5.3248 -1.7834 0.9571
10.7983 -4.8851 -1.9525 0.9531
11.3681 -3.9632 -1.9833 0.9524
11.8644 -2.9797 -2.0152 0.9516
12.2795 -1.9396 -2.0480 0.9509
12.9635 1.4518 -2.1490 0.9485
12.9815 2.6440 -2.1825 0.9477
9.5505 5.9679 -1.8553 0.9554
9.7803 8.8820 -2.1765 0.9479
7.9758 10.3899 -2.1578 0.9483
6.6007 10.4052 -2.0300 0.9513
0.3028 10.4638 -1.7245 0.9585
-0.6372 10.5253 -1.7371 0.9582
-3.1249 12.8104 -2.1723 0.9479
-2.7776 6.2525 -1.1271 0.9726
0.0854 -9.2355 -1.7360 0.9631
0.9135 -9.2305 -1.7435 0.9630
3.8942 -7.9351 -1.6614 0.9647
5.3441 -7.2528 -1.6933 0.9640
6.8837 -5.4267 -1.6476 0.9650
7.9123 -5.1635 -1.7759 0.9623
9.1065 -4.8432 -1.9387 0.9589
9.6320 -4.0655 -1.9651 0.9583
10.0951 -3.2338 -1.9925 0.9578
10.4897 -2.3524 -2.0206 0.9572
10.8094 -1.4265 -2.0494 0.9566
11.0482 -0.4623 -2.0785 0.9560
11.2006 0.5333 -2.1077 0.9554
11.0913 3.6235 -2.1932 0.9536
10.1304 5.4630 -2.1633 0.9542
8.7991 7.0193 -2.1157 0.9552
8.2056 7.8421 -2.1334 0.9549
7.5265 8.6048 -2.1488 0.9545
5.0367 10.4145 -2.1744 0.9540
2.9061 10.4328 -2.0356 0.9569
0.9734 10.4511 -1.9729 0.9582
0.0338 9.7240 -1.8277 0.9612
-0.9824 11.4065 -2.1519 0.9545
-1.9832 11.1960 -2.1372 0.9548
-2.9508 10.8857 -2.1199 0.9551
-3.8749 10.4816 -2.1005 0.9555
-4.7463 9.9908 -2.0790 0.9560
-6.2999 8.7818 -2.0314 0.9570
-7.5464 8.7497 -2.1718 0.9541
-8.1887 7.9357 -2.1433 0.9546
-9.8821 4.3200 -2.0272 0.9571
-10.0854 3.3728 -1.9989 0.9576
-9.8814 -1.2342 -1.8718 0.9603
-9.6197 -2.0871 -1.8502 0.9607
-6.8322 -6.3652 -1.7551 0.9627
-5.5352 -7.4038 -1.7375 0.9631
-3.3662 -6.7402 -1.4161 0.9698
-3.1079 -7.9237 -1.5998 0.9660
-2.3874 -8.1673 -1.5994 0.9660
1.5071 -9.1872 -1.7499 0.9628
2.0374 -7.9137 -1.5360 0.9673
1.9217 -5.4089 -1.0789 0.9769
3.6249 -7.8878 -1.6317 0.9653
4.4217 -7.7195 -1.6721 0.9644
5.1428 -7.3650 -1.6884 0.9641
5.8408 -6.9490 -1.7062 0.9637
6.5105 -6.4720 -1.7255 0.9633
7.1469 -5.9352 -1.7462 0.9629
7.7444 -5.3397 -1.7681 0.9624
8.8379 -4.9929 -1.9079 0.9595
9.9700 -3.4758 -1.9846 0.9579
10.9888 -0.7403 -2.0701 0.9562
11.2537 1.2604 -2.1285 0.9550
11.1400 3.3282 -2.1853 0.9538
10.9324 4.3630 -2.2125 0.9532
9.4281 5.8914 -2.0897 0.9558
8.9516 6.7755 -2.1102 0.9553
8.3835 7.6136 -2.1286 0.9550
7.7282 8.3945 -2.1447 0.9546
6.1807 9.7431 -2.1687 0.9541
5.3047 10.2920 -2.1763 0.9540
4.2621 10.4726 -2.1252 0.9550
2.2003 10.4397 -2.0054 0.9575
1.2421 10.4486 -1.9778 0.9581
0.3026 10.4570 -1.9663 0.9583
-0.6368 10.5185 -1.9807 0.9580
-2.6794 10.9839 -2.1251 0.9550
-3.6169 10.6058 -2.1062 0.9554
-2.7571 6.2064 -1.2765 0.9727
0.0714 -7.7272 -1.6334 0.9689
0.5374 -5.4302 -1.1534 0.9779
2.1471 -7.5394 -1.6570 0.9685
4.7967 -6.5100 -1.7093 0.9675
5.9959 -5.6645 -1.7436 0.9668
6.5480 -5.1620 -1.7625 0.9665
7.6145 -4.9691 -1.9220 0.9635
8.1224 -4.3198 -1.9446 0.9631
8.5784 -3.6208 -1.9682 0.9626
8.9773 -2.8757 -1.9926 0.9622
9.8970 0.4713 -2.0944 0.9603
9.9347 1.3694 -2.1199 0.9598
7.6972 6.1403 -2.0813 0.9605
7.1705 6.8529 -2.0966 0.9603
6.5711 7.5125 -2.1098 0.9600
5.9043 8.1107 -2.1206 0.9598
1.8314 9.9360 -2.1357 0.9595
0.9347 10.0356 -2.1305 0.9596
0.0349 10.0422 -2.1227 0.9598
-0.8576 9.9568 -2.1125 0.9600
-1.7326 9.7815 -2.0998 0.9602
-2.5806 9.5202 -2.0850 0.9605
-2.9295 6.1666 -1.4431 0.9725
-4.8782 8.2707 -2.0297 0.9615
-7.2214 6.9983 -2.1256 0.9597
-7.7240 6.2501 -2.1003 0.9602
-8.1503 5.4679 -2.0746 0.9607
-8.4994 4.6600 -2.0489 0.9611
-8.7709 3.8343 -2.0234 0.9616
-9.0844 2.1590 -1.9738 0.9625
-9.1295 1.3232 -1.9500 0.9630
-8.8466 -1.1049 -1.8845 0.9642
-8.6227 -1.8708 -1.8651 0.9646
-8.0004 -3.3115 -1.8303 0.9652
-6.6836 -5.1939 -1.7892 0.9660
-4.3631 -7.0754 -1.7571 0.9666
-3.3324 -6.6726 -1.5766 0.9700
-2.8055 -7.1527 -1.6241 0.9691
-1.7157 -5.8694 -1.2926 0.9753
-0.6243 -5.8898 -1.2520 0.9761
-0.1251 -7.7193 -1.6319 0.9689
0.3910 -5.3325 -1.1302 0.9784
1.2599 -7.6807 -1.6452 0.9687
1.9512 -7.5787 -1.6542 0.9685
1.9219 -5.4094 -1.2135 0.9768
3.3122 -7.2073 -1.6766 0.9681
3.9739 -6.9377 -1.6900 0.9678
4.6175 -6.6126 -1.7048 0.9676
6.3945 -5.3103 -1.7570 0.9666
8.4542 -3.8247 -1.9614 0.9628
8.8699 -3.0923 -1.9856 0.9623
9.2245 -2.3167 -2.0104 0.9619
9.9325 1.1124 -2.1126 0.9600
9.9101 2.0184 -2.1378 0.9595
9.6044 3.8330 -2.1859 0.9586
9.3183 4.7230 -2.2083 0.9582
8.7459 5.4651 -2.1800 0.9587
7.3281 6.6550 -2.0925 0.9603
2.9615 9.6726 -2.1383 0.9595
1.1908 10.0167 -2.1322 0.9596
-0.6048 9.9903 -2.1156 0.9599
-3.1657 9.2829 -2.0732 0.9607
0.6950 -7.0231 -1.6587 0.9714
1.3250 -6.9633 -1.6659 0.9713
1.5473 -5.4332 -1.3277 0.9771
3.1790 -6.4778 -1.6959 0.9708
5.4238 -5.1240 -1.7536 0.9698
6.3135 -4.9772 -1.8895 0.9675
6.8734 -4.4855 -1.9289 0.9668
7.7254 -3.2608 -1.9708 0.9661
8.0746 -2.5866 -1.9927 0.9658
8.3665 -1.8763 -2.0152 0.9654
8.5968 -1.1345 -2.0380 0.9650
8.7613 -0.3666 -2.0609 0.9646
8.8563 0.4217 -2.0838 0.9642
8.6961 2.8410 -2.1501 0.9631
8.4880 3.6405 -2.1706 0.9628
6.8897 5.4961 -2.0713 0.9644
5.8247 6.6592 -2.0793 0.9643
5.2306 7.1851 -2.0887 0.9641
4.5842 7.6500 -2.0960 0.9640
3.8922 8.0480 -2.1010 0.9639
3.1621 8.3739 -2.1037 0.9639
2.4022 8.6239 -2.1040 0.9639
1.6211 8.7951 -2.1019 0.9639
-3.0141 8.1531 -2.0429 0.9649
-2.9144 6.1347 -1.5962 0.9725
-4.9363 6.8811 -1.9903 0.9658
-5.9292 6.8746 -2.1336 0.9634
-6.4520 6.2526 -2.1116 0.9638
-6.9098 5.5913 -2.0890 0.9641
-7.6231 4.1796 -2.0432 0.9649
-7.8767 3.4434 -2.0204 0.9653
-8.1788 1.9438 -1.9757 0.9660
-8.2293 1.1927 -1.9543 0.9664
-8.1379 -0.2838 -1.9138 0.9671
-8.0007 -0.9993 -1.8950 0.9674
-7.8059 -1.6936 -1.8773 0.9677
-7.5564 -2.3627 -1.8607 0.9680
-7.2554 -3.0031 -1.8455 0.9682
-6.0739 -4.7201 -1.8079 0.9689
-5.0870 -5.6687 -1.7901 0.9692
-4.5437 -6.0776 -1.7834 0.9693
-3.1292 -6.2657 -1.6460 0.9716
-1.7169 -5.8735 -1.4382 0.9752
-1.1621 -5.8836 -1.4095 0.9757
-0.1139 -7.0257 -1.6514 0.9715
0.3913 -5.3366 -1.2576 0.9783
1.1459 -6.9855 -1.6637 0.9713
3.0072 -6.5436 -1.6925 0.9708
5.2774 -5.2462 -1.7489 0.9699
6.0012 -4.9837 -1.8333 0.9685
6.7371 -4.6452 -1.9233 0.9669
7.2000 -4.0676 -1.9435 0.9666
7.6161 -3.4455 -1.9646 0.9662
8.8799 0.9945 -2.1000 0.9640
8.8488 1.8023 -2.1224 0.9636
8.7410 2.6115 -2.1441 0.9632
8.2911 4.2024 -2.1846 0.9625
7.2415 5.4811 -2.1345 0.9634
5.4053 7.0414 -2.0863 0.9642
-0.5360 8.8527 -2.0844 0.9642
-1.3175 8.7254 -2.0739 0.9644
-0.4740 -5.9007 -1.5327 0.9758
0.6369 -6.4361 -1.6746 0.9736
1.7869 -6.2748 -1.6892 0.9734
2.0609 -5.3640 -1.4878 0.9765
5.2627 -4.9718 -1.8745 0.9705
5.8139 -4.5833 -1.9168 0.9699
6.6612 -3.5427 -1.9535 0.9693
7.0199 -2.9630 -1.9728 0.9690
7.3298 -2.3480 -1.9928 0.9687
7.7874 -1.0277 -2.0338 0.9681
8.0175 1.1051 -2.0955 0.9671
7.9617 1.8338 -2.1154 0.9668
7.6421 3.2776 -2.1530 0.9662
7.3777 3.9785 -2.1703 0.9660
7.0445 4.6553 -2.1862 0.9657
5.7579 5.5028 -2.0622 0.9676
5.2248 5.9734 -2.0548 0.9677
4.6897 6.4422 -2.0632 0.9676
4.1087 6.8565 -2.0696 0.9675
3.4876 7.2114 -2.0741 0.9674
2.8331 7.5025 -2.0764 0.9674
2.1522 7.7263 -2.0767 0.9674
1.4525 7.8805 -2.0748 0.9674
0.7418 7.9635 -2.0708 0.9675
0.0278 7.9747 -2.0648 0.9676
-0.6817 7.9148 -2.0569 0.9677
-1.3790 7.7851 -2.0471 0.9679
-4.7988 6.6893 -2.1316 0.9666
-7.3163 2.4467 -1.9974 0.9686
-7.4835 1.0846 -1.9578 0.9692
-7.4776 0.4082 -1.9390 0.9695
-7.4143 -0.2585 -1.9209 0.9698
-6.9016 -2.1580 -1.8723 0.9706
-6.6313 -2.7448 -1.8582 0.9708
-5.9582 -3.8294 -1.8338 0.9712
-5.5612 -4.3217 -1.8236 0.9713
-5.1279 -4.7774 -1.8146 0.9715
-4.6615 -5.1945 -1.8071 0.9716
-2.8695 -5.7457 -1.6629 0.9738
-1.7004 -5.8169 -1.5691 0.9753
-1.1615 -5.8809 -1.5521 0.9755
-0.1044 -6.4409 -1.6679 0.9737
0.3916 -5.3409 -1.3866 0.9781
1.0498 -6.4000 -1.6792 0.9736
2.7512 -5.9865 -1.7058 0.9731
3.2963 -5.7548 -1.7171 0.9730
3.8245 -5.4770 -1.7296 0.9728
5.0068 -4.9772 -1.8279 0.9713
6.9226 -3.1318 -1.9673 0.9691
7.2467 -2.5264 -1.9871 0.9688
7.7363 -1.2220 -2.0279 0.9682
7.8943 -0.5318 -2.0486 0.9678
7.9901 0.1769 -2.0693 0.9675
7.9846 1.6263 -2.1098 0.9669
7.8795 2.3541 -2.1292 0.9666
6.7596 5.1164 -2.1950 0.9656
6.0456 5.4904 -2.1145 0.9668
4.2784 6.7444 -2.0680 0.9675
3.6681 7.1167 -2.0730 0.9675
2.3483 7.6696 -2.0768 0.9674
-0.4807 7.9390 -2.0593 0.9677
-1.1822 7.8290 -2.0500 0.9678
-1.8663 7.6507 -2.0390 0.9680
-2.5261 7.4073 -2.0264 0.9682
-0.4694 -5.8437 -1.6596 0.9759
1.6465 -5.7816 -1.7018 0.9753
5.3350 -4.2058 -1.9232 0.9722
6.7041 -2.1475 -1.9929 0.9712
6.9332 -1.5548 -2.0115 0.9709
7.2965 0.3474 -2.0679 0.9701
7.3010 1.0064 -2.0864 0.9698
7.2441 1.6685 -2.1044 0.9696
6.9421 2.9774 -2.1384 0.9691
6.3903 4.2229 -2.1684 0.9687
6.0238 4.8053 -2.1814 0.9685
5.5854 5.3380 -2.1872 0.9684
3.7185 6.2053 -2.0479 0.9704
0.6713 7.2068 -2.0490 0.9704
-1.8644 6.8780 -2.0174 0.9708
-2.8729 6.0474 -1.8953 0.9726
-4.3731 6.0959 -2.1238 0.9693
-4.8644 5.6401 -2.1085 0.9695
-6.8549 0.9935 -1.9609 0.9716
-6.8551 0.3742 -1.9435 0.9719
-6.5453 -1.4201 -1.8961 0.9725
-6.1004 -2.5250 -1.8691 0.9729
-5.8134 -3.0401 -1.8572 0.9731
-5.4869 -3.5265 -1.8465 0.9732
-5.1236 -3.9816 -1.8369 0.9734
-4.2978 -4.7892 -1.8217 0.9736
-3.1977 -5.1856 -1.7247 0.9750
-2.6472 -5.3006 -1.6773 0.9757
-1.1474 -5.8092 -1.6763 0.9757
0.3919 -5.3451 -1.5172 0.9780
0.9678 -5.8997 -1.6925 0.9755
1.4969 -5.8140 -1.6996 0.9754
1.9225 -5.4109 -1.6256 0.9764
2.5330 -5.5117 -1.7172 0.9751
3.5173 -5.0370 -1.7392 0.9748
4.7679 -4.7397 -1.9032 0.9724
5.2139 -4.3299 -1.9186 0.9722
6.3386 -2.8676 -1.9695 0.9715
6.8731 -1.7261 -2.0062 0.9710
7.2842 0.1613 -2.0626 0.9702
7.3059 0.8182 -2.0812 0.9699
7.2666 1.4800 -2.0994 0.9696
7.1650 2.1406 -2.1169 0.9694
7.0004 2.7938 -2.1338 0.9692
5.7183 5.1931 -2.1867 0.9684
5.0584 5.4945 -2.1143 0.9694
3.8724 6.1044 -2.0465 0.9704
2.1245 6.9389 -2.0544 0.9703
0.8549 7.1916 -2.0502 0.9703
0.2090 7.2220 -2.0454 0.9704
-1.0708 7.0918 -2.0304 0.9706
-1.6914 6.9339 -2.0205 0.9708
-2.2907 6.7172 -2.0091 0.9709
-0.4404 -5.4825 -1.6917 0.9772
0.0509 -5.5114 -1.6953 0.9772
1.0367 -5.4480 -1.7058 0.9771
2.0064 -5.2220 -1.7207 0.9769
3.6404 -4.9407 -1.8876 0.9746
4.0945 -4.6271 -1.9004 0.9745
4.9241 -3.8819 -1.9286 0.9741
5.6253 -2.9918 -1.9597 0.9737
6.1706 -1.9766 -1.9929 0.9732
6.3767 -1.4300 -2.0101 0.9730
6.6417 -0.2779 -2.0446 0.9726
6.6950 0.9228 -2.0787 0.9721
6.5240 2.1314 -2.1110 0.9717
6.3528 2.7247 -2.1261 0.9715
5.1137 4.8872 -2.1757 0.9708
4.6643 5.3325 -2.1791 0.9708
4.0062 5.5033 -2.0937 0.9719
3.3922 5.6608 -2.0298 0.9728
2.8783 5.9516 -2.0334 0.9727
1.7758 6.3752 -2.0355 0.9727
-0.5634 6.5415 -2.0195 0.9729
-1.7031 6.2827 -2.0022 0.9731
-2.7816 5.8553 -1.9939 0.9732
-4.0074 5.5861 -2.1146 0.9716
-4.8622 4.7119 -2.0825 0.9721
-5.2209 4.2247 -2.0657 0.9723
-5.7909 3.1750 -2.0313 0.9727
-5.9997 2.6228 -2.0140 0.9730
-6.2627 1.4884 -1.9799 0.9734
-6.3175 0.9156 -1.9634 0.9736
-6.3221 0.3452 -1.9474 0.9739
-6.1856 -0.7726 -1.9174 0.9742
-5.6428 -2.3356 -1.8784 0.9748
-4.7454 -3.6878 -1.8485 0.9752
-3.9830 -4.4384 -1.8343 0.9754
-3.5605 -4.7624 -1.8289 0.9754
-3.1141 -5.0499 -1.8248 0.9755
-2.0043 -5.1100 -1.6883 0.9773
-1.0639 -5.3868 -1.6889 0.9773
-0.5795 -5.4669 -1.6909 0.9773
-0.0892 -5.5073 -1.6941 0.9772
3.9677 -4.7205 -1.8967 0.9745
5.1911 -3.5793 -1.9394 0.9740
5.5344 -3.1266 -1.9551 0.9737
5.8396 -2.6418 -1.9714 0.9735
6.1035 -2.1278 -1.9881 0.9733
6.4947 -1.0259 -2.0224 0.9729
6.6165 -0.4457 -2.0397 0.9726
6.6600 1.3565 -2.0905 0.9720
6.1953 3.1401 -2.1363 0.9714
5.9272 3.7038 -2.1497 0.9712
5.6045 4.2421 -2.1620 0.9710
4.7981 5.2117 -2.1789 0.9708
0.7798 6.5598 -2.0319 0.9727
0.1906 6.5890 -2.0275 0.9728
-0.3972 6.5602 -2.0215 0.9729
-1.5448 6.3329 -2.0050 0.9731
-2.0932 6.1379 -1.9947 0.9732
-0.4106 -5.1124 -1.7049 0.9786
0.5067 -5.1200 -1.7102 0.9785
0.9648 -5.0704 -1.7157 0.9785
1.9072 -4.9638 -1.7676 0.9778
2.4327 -4.9571 -1.8355 0.9770
3.3820 -4.5899 -1.8951 0.9763
4.9064 -3.2019 -1.9475 0.9756
5.4806 -2.3133 -1.9774 0.9752
5.8968 -1.3224 -2.0088 0.9748
6.0389 -0.7970 -2.0248 0.9747
6.1799 0.2943 -2.0566 0.9743
6.0103 1.9636 -2.1018 0.9737
5.3724 3.5503 -2.1405 0.9732
5.0595 4.0361 -2.1514 0.9731
4.6997 4.4915 -2.1609 0.9730
3.2948 5.4983 -2.1307 0.9733
2.6699 5.5207 -2.0384 0.9745
2.1462 5.6835 -2.0194 0.9747
1.6304 5.8529 -2.0196 0.9747
0.0210 6.0495 -2.0109 0.9748
-1.0482 5.9178 -1.9977 0.9750
-2.1020 5.6860 -2.0151 0.9748
-2.7419 5.7716 -2.1240 0.9734
-4.1077 4.7627 -2.0906 0.9738
-4.8180 3.8986 -2.0602 0.9742
-5.1074 3.4265 -2.0444 0.9744
-5.6964 1.9050 -1.9966 0.9750
-5.7980 1.3780 -1.9810 0.9752
-5.4492 -1.7038 -1.8978 0.9762
-5.2440 -2.1706 -1.8866 0.9764
-4.4150 -3.4310 -1.8586 0.9767
-4.0752 -3.7966 -1.8514 0.9768
-3.7076 -4.1316 -1.8453 0.9769
-1.9361 -4.9363 -1.7626 0.9779
-1.4463 -4.9476 -1.7134 0.9785
-0.0831 -5.1280 -1.7048 0.9786
0.3759 -5.1272 -1.7089 0.9786
1.7641 -4.9653 -1.7516 0.9780
2.2791 -4.9593 -1.8142 0.9773
3.2585 -4.6665 -1.8919 0.9763
4.0881 -4.0639 -1.9161 0.9760
4.8132 -3.3187 -1.9434 0.9757
5.4080 -2.4466 -1.9730 0.9753
5.6488 -1.9693 -1.9885 0.9751
5.8481 -1.4687 -2.0043 0.9749
6.0032 -0.9482 -2.0202 0.9747
6.1719 0.1366 -2.0521 0.9743
6.1818 0.6923 -2.0677 0.9741
6.1403 1.2506 -2.0830 0.9739
6.0466 1.8065 -2.0977 0.9737
5.9004 2.3548 -2.1118 0.9736
5.7021 2.8901 -2.1250 0.9734
5.4526 3.4072 -2.1372 0.9733
4.4153 4.7960 -2.1669 0.9729
3.4832 5.4909 -2.1615 0.9730
2.2897 5.6261 -2.0191 0.9747
0.7160 6.0234 -2.0163 0.9748
-1.4200 5.8212 -1.9918 0.9751
-1.9313 5.6632 -1.9889 0.9751
-3.0997 5.5749 -2.1203 0.9735
-0.3973 -4.9458 -1.7743 0.9791
0.0458 -4.9497 -1.7701 0.9792
0.4900 -4.9515 -1.7794 0.9791
1.4093 -4.9488 -1.8401 0.9784
1.8790 -4.8903 -1.8734 0.9780
2.3185 -4.7244 -1.8820 0.9779
2.7448 -4.5212 -1.8914 0.9778
3.1546 -4.2814 -1.9018 0.9777
3.5449 -4.0060 -1.9129 0.9775
3.9126 -3.6964 -1.9248 0.9774
4.2547 -3.3541 -1.9374 0.9772
4.5681 -2.9811 -1.9507 0.9771
4.8499 -2.5794 -1.9644 0.9769
5.4783 -1.2286 -2.0077 0.9764
5.7242 0.7890 -2.0664 0.9758
4.9680 3.2831 -2.1295 0.9750
4.3429 4.1505 -2.1482 0.9748
3.9688 4.5374 -2.1558 0.9747
3.5580 4.8876 -2.1619 0.9746
3.1103 5.1905 -2.1639 0.9746
1.0200 5.5337 -2.0122 0.9764
0.5192 5.5742 -2.0020 0.9765
-1.5136 5.5838 -2.0689 0.9757
-2.0606 5.5740 -2.1252 0.9751
-2.5440 5.3551 -2.1201 0.9751
-2.9966 5.0806 -2.1093 0.9753
-3.4177 4.7642 -2.0968 0.9754
-4.1560 4.0276 -2.0696 0.9757
-4.4679 3.6154 -2.0553 0.9759
-5.3918 1.2814 -1.9819 0.9767
-5.4553 0.2978 -1.9538 0.9771
-5.4228 -0.1891 -1.9404 0.9772
-5.2349 -1.1358 -1.9156 0.9775
-5.0824 -1.5891 -1.9043 0.9776
-4.8930 -2.0253 -1.8937 0.9778
-2.7105 -4.3955 -1.8467 0.9783
-1.8816 -4.7973 -1.8428 0.9783
-0.9752 -4.9375 -1.7998 0.9788
-0.5241 -4.9443 -1.7780 0.9791
0.3630 -4.9512 -1.7753 0.9791
1.2743 -4.9497 -1.8278 0.9785
3.0398 -4.3533 -1.8987 0.9777
4.7731 -2.6965 -1.9604 0.9770
5.0305 -2.2758 -1.9745 0.9768
5.4339 -1.3647 -2.0035 0.9765
5.6726 -0.3821 -2.0332 0.9761
5.7251 0.1267 -2.0479 0.9760
5.6896 1.1588 -2.0764 0.9756
5.5999 1.6730 -2.0900 0.9755
5.4618 2.1797 -2.1030 0.9753
5.0428 3.1511 -2.1265 0.9751
4.4421 4.0342 -2.1459 0.9748
4.0792 4.4309 -2.1537 0.9747
3.2418 5.1103 -2.1642 0.9746
2.7711 5.3764 -2.1630 0.9746
2.2400 5.5039 -2.1250 0.9751
1.1656 5.5306 -2.0212 0.9763
0.1617 5.5882 -1.9992 0.9765
-2.8711 5.1636 -2.1128 0.9752
0.4786 -4.8367 -1.8626 0.9794
0.9111 -4.7879 -1.8678 0.9793
2.5702 -4.2335 -1.8979 0.9790
3.9778 -3.1359 -1.9411 0.9785
4.2690 -2.7859 -1.9535 0.9784
4.5302 -2.4094 -1.9663 0.9783
4.9530 -1.5866 -1.9931 0.9780
5.3287 0.7345 -2.0614 0.9772
5.2748 1.2149 -2.0743 0.9771
4.8455 2.6130 -2.1096 0.9767
4.6150 3.0498 -2.1198 0.9766
3.6836 4.2113 -2.1441 0.9763
3.3016 4.5354 -2.1498 0.9763
2.8894 4.8218 -2.1542 0.9762
1.5071 5.4104 -2.1523 0.9762
-0.9702 5.4770 -2.1316 0.9765
-2.3650 4.9782 -2.1121 0.9767
-2.7856 4.7228 -2.1012 0.9768
-3.1783 4.4305 -2.0895 0.9769
-3.5402 4.1047 -2.0772 0.9770
-3.8684 3.7489 -2.0644 0.9772
-4.9402 1.6521 -1.9962 0.9779
-5.0334 1.1963 -1.9826 0.9781
-5.0858 0.7371 -1.9693 0.9782
-2.2981 -0.0801 -0.8812 0.9902
-2.3015 -0.2874 -0.8888 0.9901
-4.8979 -1.0626 -1.9206 0.9788
-4.3727 -2.2867 -1.8910 0.9791
-4.1331 -2.6564 -1.8828 0.9792
-3.8643 -3.0030 -1.8755 0.9793
-3.5686 -3.3247 -1.8691 0.9793
-2.9051 -3.8858 -1.8592 0.9794
-2.5419 -4.1221 -1.8558 0.9795
-2.1610 -4.3270 -1.8535 0.9795
-1.7648 -4.4994 -1.8522 0.9795
-0.0785 -4.8461 -1.8574 0.9795
0.7883 -4.8055 -1.8662 0.9794
4.1890 -2.8883 -1.9499 0.9784
4.6974 -2.1251 -1.9758 0.9782
4.9015 -1.7088 -1.9892 0.9780
5.0691 -1.2731 -2.0029 0.9779
5.2865 -0.3561 -2.0305 0.9776
5.3328 0.1181 -2.0441 0.9774
5.2947 1.0784 -2.0707 0.9771
4.6849 2.9275 -2.1170 0.9766
3.4136 4.4468 -2.1483 0.9763
2.5781 5.0019 -2.1564 0.9762
1.6449 5.3723 -2.1531 0.9762
0.6550 5.5102 -2.1265 0.9765
-0.3340 5.5162 -2.1178 0.9766
-1.3160 5.3948 -2.1280 0.9765
-1.7882 5.2435 -2.1230 0.9765
-2.6685 4.7993 -2.1044 0.9768
-0.3645 -4.5384 -1.8635 0.9805
0.0422 -4.5602 -1.8664 0.9805
0.8565 -4.5012 -1.8753 0.9804
1.2589 -4.4204 -1.8811 0.9803
2.0403 -4.1574 -1.8954 0.9802
2.4139 -3.9762 -1.9038 0.9801
3.1133 -3.5182 -1.9228 0.9799
3.7308 -2.9412 -1.9444 0.9797
4.6377 -1.4856 -1.9931 0.9792
4.7825 -1.0725 -2.0060 0.9790
4.9897 0.2376 -2.0445 0.9786
4.9787 0.6863 -2.0569 0.9785
4.9263 1.1346 -2.0690 0.9784
4.8323 1.5787 -2.0806 0.9783
4.6967 2.0144 -2.0916 0.9782
4.5202 2.4376 -2.1019 0.9780
4.3038 2.8442 -2.1113 0.9780
4.0491 3.2300 -2.1199 0.9779
2.6916 4.4918 -2.1432 0.9776
0.0182 5.2219 -2.1372 0.9777
-0.9069 5.1201 -2.1282 0.9778
-1.3563 5.0035 -2.1217 0.9778
-1.7905 4.8433 -2.1134 0.9779
-2.5993 4.4069 -2.0940 0.9781
-2.9669 4.1358 -2.0832 0.9782
-3.6140 3.5023 -2.0597 0.9785
-4.1284 2.7697 -2.0347 0.9787
-4.3317 2.3750 -2.0218 0.9789
-4.4975 1.9661 -2.0089 0.9790
-4.6253 1.5468 -1.9961 0.9791
-2.0207 0.2929 -0.8357 0.9912
-2.0062 0.1095 -0.8223 0.9914
-1.9990 -0.0697 -0.8186 0.9914
-4.3025 -1.7809 -1.9058 0.9801
-3.3547 -3.1254 -1.8765 0.9804
-3.0540 -3.4032 -1.8714 0.9804
-2.7319 -3.6541 -1.8673 0.9805
-2.3906 -3.8767 -1.8641 0.9805
-1.6599 -4.2321 -1.8606 0.9805
-0.8811 -4.4610 -1.8611 0.9805
-0.4797 -4.5261 -1.8628 0.9805
0.3340 -4.5548 -1.8692 0.9805
0.7411 -4.5180 -1.8738 0.9804
1.1449 -4.4469 -1.8794 0.9803
1.5426 -4.3418 -1.8858 0.9803
3.0183 -3.5909 -1.9199 0.9799
3.3447 -3.3249 -1.9302 0.9798
4.1793 -2.3611 -1.9646 0.9795
4.4008 -1.9909 -1.9769 0.9793
4.5901 -1.6002 -1.9895 0.9792
4.9853 0.1104 -2.0409 0.9787
4.9860 0.5584 -2.0534 0.9785
4.8633 1.4530 -2.0773 0.9783
4.7395 1.8915 -2.0885 0.9782
4.3694 2.7304 -2.1087 0.9780
3.8443 3.4912 -2.1254 0.9778
3.5285 3.8327 -2.1321 0.9777
2.8037 4.4197 -2.1422 0.9776
2.4015 4.6592 -2.1453 0.9776
1.9776 4.8592 -2.1471 0.9776
1.5363 5.0176 -2.1477 0.9776
1.0811 5.1295 -2.1455 0.9776
0.6179 5.1975 -2.1422 0.9776
0.1511 5.2226 -2.1384 0.9777
-0.3151 5.2049 -2.1341 0.9777
-1.2298 5.0415 -2.1239 0.9778
-0.3437 -4.2791 -1.8709 0.9814
0.4242 -4.2870 -1.8775 0.9814
0.8073 -4.2424 -1.8821 0.9813
1.5586 -4.0566 -1.8939 0.9812
1.9218 -3.9160 -1.9011 0.9811
2.2731 -3.7443 -1.9090 0.9811
2.6101 -3.5423 -1.9176 0.9810
2.9301 -3.3112 -1.9269 0.9809
3.2305 -3.0520 -1.9368 0.9808
4.1883 -1.7678 -1.9812 0.9804
4.4895 -1.0068 -2.0052 0.9801
4.5890 -0.6056 -2.0173 0.9800
4.6524 -0.1947 -2.0294 0.9799
4.6785 0.2228 -2.0413 0.9798
4.6157 1.0631 -2.0642 0.9795
4.3975 1.8861 -2.0853 0.9793
4.2309 2.2816 -2.0949 0.9792
4.0273 2.6614 -2.1038 0.9792
3.5146 3.3589 -2.1188 0.9790
2.1339 4.4123 -2.1360 0.9788
1.7326 4.5881 -2.1374 0.9788
1.3161 4.7248 -2.1375 0.9788
0.4541 4.8758 -2.1341 0.9789
-0.4186 4.8602 -2.1260 0.9789
-0.8485 4.7904 -2.1202 0.9790
-1.2687 4.6804 -2.1134 0.9791
-2.4335 4.1259 -2.0876 0.9793
-2.7786 3.8733 -2.0775 0.9794
-3.6459 2.9502 -2.0440 0.9797
-3.8721 2.5978 -2.0321 0.9799
-4.2216 1.8455 -2.0080 0.9801
-1.4873 0.3535 -0.6663 0.9934
-1.4737 0.2136 -0.6490 0.9935
-1.4446 -0.0504 -0.6300 0.9937
-1.4728 -0.1840 -0.6469 0.9935
-1.4939 -0.4671 -0.6822 0.9932
-3.4224 -2.6596 -1.8890 0.9813
-2.8787 -3.2079 -1.8785 0.9814
-2.5754 -3.4448 -1.8745 0.9814
-2.2539 -3.6551 -1.8715 0.9814
-1.5652 -3.9906 -1.8682 0.9815
-1.2025 -4.1139 -1.8679 0.9815
-0.8308 -4.2064 -1.8686 0.9815
-0.4523 -4.2675 -1.8703 0.9814
-0.0696 -4.2967 -1.8728 0.9814
1.4535 -4.0909 -1.8921 0.9812
1.8195 -3.9592 -1.8990 0.9812
2.1745 -3.7963 -1.9067 0.9811
2.8409 -3.3799 -1.9242 0.9809
3.1471 -3.1285 -1.9340 0.9808
3.4321 -2.8502 -1.9443 0.9807
3.6932 -2.5465 -1.9551 0.9806
4.4548 -1.1188 -2.0018 0.9802
4.6381 -0.3124 -2.0260 0.9799
4.6749 0.1035 -2.0379 0.9798
4.6738 0.5234 -2.0497 0.9797
4.6341 0.9438 -2.0611 0.9796
4.5554 1.3610 -2.0721 0.9795
4.4380 1.7711 -2.0825 0.9794
3.5957 3.2655 -2.1169 0.9790
2.9738 3.8739 -2.1284 0.9789
2.6211 4.1318 -2.1325 0.9789
2.2448 4.3553 -2.1354 0.9788
1.0112 4.7978 -2.1369 0.9788
0.5783 4.8644 -2.1349 0.9789
0.1415 4.8893 -2.1317 0.9789
-0.2950 4.8725 -2.1274 0.9789
-0.7270 4.8144 -2.1220 0.9790
-1.1503 4.7157 -2.1155 0.9790
-1.5612 4.5780 -2.1080 0.9791
-1.9559 4.4027 -2.0996 0.9792
-2.3308 4.1920 -2.0904 0.9793
-0.3248 -4.0434 -1.8777 0.9823
0.7626 -4.0075 -1.8883 0.9822
1.4718 -3.8306 -1.8995 0.9821
1.8143 -3.6970 -1.9063 0.9820
2.4630 -3.3427 -1.9219 0.9819
2.7641 -3.1236 -1.9307 0.9818
3.5465 -2.3144 -1.9603 0.9815
3.7594 -1.9994 -1.9710 0.9814
4.1007 -1.3136 -1.9932 0.9812
4.2256 -0.9476 -2.0045 0.9811
4.3758 -0.1831 -2.0273 0.9809
4.3988 0.2095 -2.0384 0.9808
4.2511 1.3889 -2.0701 0.9805
3.2970 3.1509 -2.1110 0.9801
2.6970 3.7049 -2.1212 0.9800
2.3594 3.9374 -2.1247 0.9800
1.6244 4.3017 -2.1284 0.9799
1.2339 4.4298 -2.1286 0.9799
0.8331 4.5201 -2.1275 0.9799
-1.1904 4.3913 -2.1060 0.9801
-2.2849 3.8740 -2.0819 0.9804
-3.6416 2.4431 -2.0298 0.9809
-3.8237 2.0965 -2.0185 0.9810
-1.2665 0.4235 -0.6181 0.9941
-1.2695 0.3017 -0.6040 0.9943
-1.2749 0.1848 -0.5963 0.9943
-1.2688 0.0693 -0.5882 0.9944
-1.2752 -0.1593 -0.5949 0.9944
-1.2494 -0.5172 -0.6259 0.9941
-3.6525 -1.9101 -1.9079 0.9820
-3.2322 -2.5118 -1.8948 0.9821
-2.7196 -3.0305 -1.8848 0.9822
-1.8110 -3.6262 -1.8762 0.9823
-1.4791 -3.7711 -1.8751 0.9823
-0.7851 -3.9750 -1.8755 0.9823
-0.0658 -4.0598 -1.8795 0.9823
0.6599 -4.0227 -1.8869 0.9822
1.0191 -3.9582 -1.8919 0.9821
1.7179 -3.7381 -1.9043 0.9820
3.4812 -2.4003 -1.9573 0.9815
4.1933 -1.0531 -2.0013 0.9811
4.2949 -0.6784 -2.0127 0.9810
4.3545 0.8869 -2.0570 0.9806
4.2792 1.2785 -2.0673 0.9805
4.1676 1.6632 -2.0771 0.9804
3.8377 2.3981 -2.0947 0.9803
3.6215 2.7412 -2.1024 0.9802
3.3733 3.0635 -2.1092 0.9801
3.0949 3.3617 -2.1151 0.9801
2.7888 3.6330 -2.1200 0.9800
1.7331 4.2585 -2.1282 0.9799
1.3463 4.3971 -2.1286 0.9799
0.5422 4.5610 -2.1261 0.9800
-0.2767 4.5697 -2.1191 0.9800
-0.6819 4.5159 -2.1140 0.9801
-1.0792 4.4242 -2.1079 0.9801
-2.1883 3.9357 -2.0845 0.9803
-0.3075 -3.8281 -1.8838 0.9830
0.3794 -3.8338 -1.8898 0.9830
1.3926 -3.6244 -1.9046 0.9829
1.7163 -3.4974 -1.9110 0.9828
2.0292 -3.3425 -1.9181 0.9827
2.3289 -3.1607 -1.9258 0.9827
2.6130 -2.9529 -1.9342 0.9826
2.8794 -2.7202 -1.9430 0.9825
3.5499 -1.8880 -1.9722 0.9822
3.7237 -1.5717 -1.9826 0.9822
3.9862 -0.8939 -2.0039 0.9820
4.0718 -0.5374 -2.0147 0.9819
4.1253 -0.1726 -2.0253 0.9818
4.1457 0.1974 -2.0359 0.9817
4.1323 0.5696 -2.0462 0.9816
3.8871 1.6672 -2.0747 0.9813
3.1009 2.9636 -2.1040 0.9811
2.8310 3.2366 -2.1093 0.9810
2.5359 3.4836 -2.1136 0.9810
2.2183 3.7018 -2.1169 0.9810
1.8809 3.8892 -2.1191 0.9809
0.7832 4.2493 -2.1195 0.9809
-0.3692 4.2864 -2.1104 0.9810
-0.7486 4.2262 -2.1053 0.9811
-1.1197 4.1308 -2.0994 0.9811
-2.7406 3.1777 -2.0584 0.9815
-3.2302 2.6138 -2.0383 0.9817
-3.4329 2.3031 -2.0278 0.9818
-1.1113 0.6093 -0.6217 0.9944
-1.1032 0.4823 -0.5906 0.9947
-1.1268 0.3768 -0.5828 0.9947
-1.1328 0.2692 -0.5711 0.9948
-1.1437 0.1658 -0.5669 0.9949
-1.1419 0.0623 -0.5610 0.9949
-1.1443 -0.1429 -0.5656 0.9949
-2.5743 -2.8686 -1.8906 0.9830
-2.3036 -3.0812 -1.8871 0.9830
-2.0163 -3.2698 -1.8843 0.9830
-1.4005 -3.5706 -1.8814 0.9831
-0.7433 -3.7636 -1.8818 0.9831
-0.4047 -3.8179 -1.8833 0.9830
-0.0623 -3.8435 -1.8856 0.9830
0.6246 -3.8075 -1.8927 0.9830
0.9644 -3.7459 -1.8974 0.9829
1.2987 -3.6554 -1.9029 0.9829
1.6252 -3.5364 -1.9091 0.9828
2.8055 -2.7889 -1.9404 0.9825
3.2884 -2.2674 -1.9593 0.9824
3.6770 -1.6635 -1.9796 0.9822
3.8311 -1.3356 -1.9902 0.9821
4.0507 -0.6398 -2.0116 0.9819
4.1134 -0.2771 -2.0223 0.9818
4.1018 0.8354 -2.0533 0.9815
4.0297 1.2039 -2.0630 0.9814
3.7837 1.9178 -2.0808 0.9813
3.4070 2.5788 -2.0960 0.9811
3.1728 2.8814 -2.1024 0.9811
2.9105 3.1615 -2.1079 0.9810
2.3108 3.6427 -2.1160 0.9810
1.2656 4.1336 -2.1205 0.9809
0.8913 4.2288 -2.1199 0.9809
0.5097 4.2880 -2.1182 0.9809
-0.2602 4.2970 -2.1116 0.9810
-0.6413 4.2470 -2.1068 0.9810
-1.0151 4.1615 -2.1012 0.9811
-1.3783 4.0416 -2.0946 0.9812
-1.7275 3.8886 -2.0872 0.9812
0.3598 -3.6353 -1.8951 0.9837
1.0051 -3.5294 -1.9038 0.9836
1.6265 -3.3144 -1.9153 0.9835
1.9227 -3.1670 -1.9221 0.9834
2.4747 -2.7966 -1.9373 0.9833
2.7263 -2.5756 -1.9457 0.9832
3.1701 -2.0688 -1.9638 0.9831
3.3585 -1.7862 -1.9734 0.9830
3.8479 -0.5078 -2.0135 0.9827
3.8972 -0.1631 -2.0236 0.9826
3.9154 0.1864 -2.0335 0.9825
3.7775 1.2341 -2.0616 0.9823
2.9232 2.7937 -2.0977 0.9819
2.6684 3.0507 -2.1026 0.9819
2.3900 3.2831 -2.1067 0.9819
2.0904 3.4884 -2.1098 0.9818
1.4389 3.8105 -2.1130 0.9818
1.0930 3.9239 -2.1131 0.9818
0.7380 4.0041 -2.1123 0.9818
0.3773 4.0504 -2.1104 0.9818
0.0141 4.0624 -2.1075 0.9819
-0.3480 4.0400 -2.1037 0.9819
-0.7057 3.9839 -2.0989 0.9819
-1.3949 3.7732 -2.0869 0.9820
-2.5868 2.9993 -2.0547 0.9823
-3.0505 2.4684 -2.0358 0.9825
-0.9901 0.4328 -0.5606 0.9951
-1.0130 0.3388 -0.5541 0.9952
-1.0226 0.2430 -0.5453 0.9953
-1.0358 0.1501 -0.5429 0.9953
-1.0361 0.0566 -0.5383 0.9953
-1.0370 -0.1295 -0.5422 0.9953
-1.0159 -0.3177 -0.5522 0.9952
-0.9965 -0.4125 -0.5595 0.9952
-0.9617 -0.5029 -0.5630 0.9951
-3.0981 -1.9912 -1.9106 0.9835
-2.8995 -2.2532 -1.9050 0.9836
-2.1844 -2.9219 -1.8926 0.9837
-1.9122 -3.1009 -1.8900 0.9837
-1.6262 -3.2562 -1.8882 0.9837
-1.3283 -3.3865 -1.8872 0.9837
-0.7050 -3.5695 -1.8876 0.9837
-0.3838 -3.6209 -1.8890 0.9837
0.2670 -3.6414 -1.8941 0.9837
1.5402 -3.3515 -1.9135 0.9835
1.8396 -3.2116 -1.9201 0.9835
2.3999 -2.8553 -1.9350 0.9833
2.6566 -2.6409 -1.9433 0.9833
2.8947 -2.4039 -1.9520 0.9832
3.1122 -2.1459 -1.9612 0.9831
3.3073 -1.8684 -1.9706 0.9830
3.4781 -1.5735 -1.9804 0.9829
3.6228 -1.2630 -1.9904 0.9829
3.8863 -0.2618 -2.0207 0.9826
3.9134 0.0866 -2.0307 0.9825
3.8721 0.7886 -2.0500 0.9824
3.8030 1.1362 -2.0591 0.9823
3.5692 1.8090 -2.0759 0.9821
3.4056 2.1281 -2.0833 0.9821
3.2125 2.4315 -2.0901 0.9820
2.7434 2.9800 -2.1013 0.9819
1.8646 3.6177 -2.1114 0.9818
1.1926 3.8950 -2.1132 0.9818
0.4803 4.0407 -2.1110 0.9818
-0.6045 4.0033 -2.1004 0.9819
-0.9570 3.9233 -2.0950 0.9820
-1.2996 3.8109 -2.0888 0.9820
-1.9430 3.4945 -2.0743 0.9821
-0.2770 -3.4483 -1.8947 0.9843
1.5438 -3.1459 -1.9193 0.9841
2.0932 -2.8408 -1.9327 0.9840
2.3476 -2.6529 -1.9402 0.9840
2.5856 -2.4427 -1.9482 0.9839
3.1828 -1.6928 -1.9745 0.9837
1.8865 -0.4231 -1.0589 0.9912
1.8887 -0.2493 -1.0434 0.9913
1.8836 0.0897 -1.0328 0.9914
3.1688 2.0941 -2.0803 0.9828
2.9780 2.3757 -2.0865 0.9828
2.7612 2.6389 -2.0919 0.9827
2.5202 2.8813 -2.0966 0.9827
1.0320 3.7050 -2.1065 0.9826
0.0133 3.8363 -2.1011 0.9827
-0.3286 3.8156 -2.0975 0.9827
-0.9973 3.6792 -2.0878 0.9828
-1.6257 3.4221 -2.0751 0.9829
-1.9179 3.2518 -2.0677 0.9829
-2.1922 3.0558 -2.0598 0.9830
-0.8775 0.4811 -0.5481 0.9954
-0.9015 0.3941 -0.5389 0.9955
-0.9318 0.2215 -0.5246 0.9956
-0.9453 0.1370 -0.5231 0.9957
-0.9463 0.0517 -0.5190 0.9957
-0.9466 -0.1182 -0.5225 0.9957
-0.9358 -0.2030 -0.5245 0.9956
-0.9055 -0.3748 -0.5368 0.9955
-0.8683 -0.5580 -0.5653 0.9953
-2.7528 -2.1393 -1.9095 0.9842
-2.5446 -2.3707 -1.9048 0.9843
-2.0746 -2.7750 -1.8977 0.9843
-1.5446 -3.0928 -1.8935 0.9844
-1.2617 -3.2168 -1.8925 0.9844
-0.3645 -3.4392 -1.8942 0.9844
0.2536 -3.4582 -1.8991 0.9843
0.8681 -3.3719 -1.9070 0.9842
1.4620 -3.1813 -1.9176 0.9842
2.0181 -2.8901 -1.9307 0.9841
2.5196 -2.5047 -1.9459 0.9839
3.1346 -1.7709 -1.9718 0.9837
3.2956 -1.4909 -1.9811 0.9836
1.8866 -0.1271 -1.0357 0.9914
1.8781 0.0416 -1.0289 0.9915
1.8892 0.2116 -1.0412 0.9914
1.8798 0.5616 -1.0745 0.9911
3.3733 1.7098 -2.0714 0.9829
3.0351 2.2973 -2.0848 0.9828
1.7607 3.4160 -2.1048 0.9826
1.4496 3.5618 -2.1062 0.9826
0.4536 3.8155 -2.1045 0.9826
-0.5710 3.7812 -2.0944 0.9827
-1.2279 3.6006 -2.0836 0.9828
-1.5396 3.4657 -2.0770 0.9829
-1.8365 3.3029 -2.0699 0.9829
-0.2634 -3.2796 -1.8996 0.9849
1.4674 -2.9900 -1.9230 0.9847
1.7340 -2.8561 -1.9291 0.9847
1.9888 -2.6992 -1.9357 0.9846
2.2301 -2.5201 -1.9429 0.9846
2.4557 -2.3200 -1.9505 0.9845
2.6639 -2.1001 -1.9585 0.9845
2.8529 -1.8618 -1.9668 0.9844
1.7177 -0.5502 -1.0413 0.9917
1.7327 -0.3886 -1.0252 0.9918
1.7350 -0.0726 -1.0026 0.9920
1.7359 0.0827 -1.0034 0.9920
1.7415 0.2400 -1.0149 0.9919
1.7326 0.3990 -1.0265 0.9918
1.7158 0.5606 -1.0422 0.9917
2.8184 2.2483 -2.0815 0.9835
2.3845 2.7261 -2.0911 0.9834
2.1352 2.9331 -2.0946 0.9834
1.2851 3.4032 -2.1003 0.9833
0.0126 3.6292 -2.0953 0.9834
-0.6307 3.5606 -2.0877 0.9834
-1.2475 3.3744 -2.0771 0.9835
-1.8160 3.0789 -2.0638 0.9836
-2.3172 2.6867 -2.0484 0.9837
-0.7960 0.5341 -0.5534 0.9956
-0.8241 0.4518 -0.5426 0.9957
-0.8474 0.3705 -0.5340 0.9957
-0.8623 0.2884 -0.5249 0.9958
-0.8729 0.2075 -0.5180 0.9959
-0.8805 -0.0307 -0.5086 0.9959
-0.8818 -0.1101 -0.5131 0.9959
-0.8754 -0.1899 -0.5172 0.9959
-0.8644 -0.2703 -0.5229 0.9958
-0.8514 -0.3524 -0.5320 0.9958
-2.4195 -2.2541 -1.9092 0.9848
-1.7274 -2.8011 -1.9000 0.9849
-0.9220 -3.1542 -1.8973 0.9849
-0.6369 -3.2248 -1.8978 0.9849
1.9176 -2.7462 -1.9338 0.9846
2.3932 -2.3790 -1.9483 0.9845
2.6065 -2.1646 -1.9562 0.9845
2.8011 -1.9314 -1.9644 0.9844
2.9753 -1.6809 -1.9730 0.9843
3.1273 -1.4148 -1.9817 0.9843
1.7088 -0.5957 -1.0448 0.9917
1.7313 -0.4348 -1.0306 0.9918
1.7383 -0.1171 -1.0059 0.9920
1.7418 0.1951 -1.0119 0.9919
1.7233 0.5149 -1.0384 0.9917
3.0462 1.9035 -2.0739 0.9835
1.9453 3.0666 -2.0967 0.9834
1.6655 3.2313 -2.0988 0.9833
1.3712 3.3691 -2.1001 0.9833
1.0651 3.4787 -2.1004 0.9833
0.7501 3.5590 -2.0999 0.9833
0.4291 3.6092 -2.0985 0.9834
0.1050 3.6291 -2.0962 0.9834
-0.5402 3.5777 -2.0890 0.9834
-0.8555 3.5072 -2.0843 0.9835
-1.1622 3.4078 -2.0788 0.9835
