ply
format ascii 1.0
element vertex 1573
property float32 x
property float32 y
property float32 z
property float32 I
end_header
15.2643 8.8647 3.1125 0.9308
7.4398 9.0628 2.0675 0.9535
6.3226 9.2805 1.9801 0.9554
4.3256 9.7016 1.8730 0.9578
3.3831 9.8742 1.8404 0.9585
-0.2823 10.3758 1.8302 0.9587
-1.5693 13.4067 2.3801 0.9466
-3.8493 12.6603 2.3333 0.9477
14.5281 -6.1045 2.7786 0.9380
5.6463 9.4312 1.9382 0.9563
4.6567 9.6369 1.8872 0.9575
3.7043 9.8173 1.8502 0.9583
2.7768 9.9759 1.8259 0.9588
1.8632 10.1151 1.8136 0.9591
0.9532 10.2370 1.8129 0.9591
0.0364 10.3429 1.8237 0.9589
-0.9419 10.9504 1.9380 0.9563
-3.1236 6.5822 1.2847 0.9708
12.2839 8.6858 2.3047 0.9409
8.8542 9.0097 1.9352 0.9502
4.3812 9.8264 1.6482 0.9574
3.4079 9.9466 1.6107 0.9583
2.4764 10.0862 1.5910 0.9588
-0.2840 10.4393 1.5998 0.9586
-1.8713 15.9869 2.4658 0.9369
-4.0600 13.3534 2.1381 0.9451
-6.4688 12.6157 2.1719 0.9442
-2.9574 -6.3683 1.0757 0.9720
13.0064 -10.2146 2.5335 0.9353
15.8060 8.5412 2.7523 0.9299
11.1235 8.8865 2.1811 0.9440
8.0446 9.2076 1.8731 0.9517
3.7377 9.9058 1.6219 0.9581
0.9587 10.2963 1.5841 0.9590
-2.3174 13.0978 2.0377 0.9476
-3.5684 13.1780 2.0915 0.9463
-4.7719 12.9215 2.1102 0.9458
-3.1210 6.5767 1.1152 0.9710
-7.5637 12.8384 2.2827 0.9415
-3.1272 -6.2257 1.0673 0.9722
17.2806 8.0684 2.4835 0.9260
12.1288 8.5761 1.9344 0.9418
10.5528 8.9752 1.8040 0.9457
7.7225 9.4071 1.5849 0.9521
6.5690 9.6422 1.5193 0.9540
4.4285 9.9324 1.4161 0.9571
2.4974 10.1716 1.3639 0.9586
1.5699 10.2871 1.3551 0.9589
0.6471 10.4024 1.3572 0.9588
-0.2862 10.5193 1.3703 0.9584
-2.8267 13.5381 1.8010 0.9457
-4.4891 14.7648 2.0096 0.9396
-5.4075 13.3643 1.8774 0.9435
-6.2848 12.2568 1.7937 0.9460
-2.9471 -6.3460 0.9111 0.9722
17.2982 -9.1624 2.5491 0.9241
15.4827 8.3665 2.2917 0.9315
9.5920 9.1788 1.7288 0.9479
8.1710 9.3523 1.6172 0.9511
1.8876 10.2475 1.3569 0.9588
0.9649 10.3626 1.3553 0.9589
-4.9169 13.3141 1.8482 0.9444
-3.1184 6.5713 0.9472 0.9711
-3.1210 -6.2134 0.9055 0.9723
16.8812 7.8819 2.0006 0.9278
14.5394 8.4437 1.8054 0.9346
12.4689 8.8166 1.6398 0.9404
10.7089 9.1079 1.5096 0.9450
7.8050 9.5076 1.3209 0.9517
6.5568 9.6243 1.2505 0.9542
4.4248 9.9241 1.1668 0.9572
3.4419 10.0458 1.1403 0.9582
2.4954 10.1634 1.1238 0.9588
1.5698 10.2861 1.1173 0.9590
0.6484 10.4238 1.1215 0.9589
-0.2859 10.5108 1.1291 0.9586
-5.9343 14.6665 1.6989 0.9383
-7.3494 14.3330 1.7296 0.9373
11.2492 8.9869 1.5461 0.9437
9.6937 9.2761 1.4407 0.9475
8.2581 9.4520 1.3478 0.9508
5.8369 9.7497 1.2202 0.9553
3.7750 10.0046 1.1482 0.9579
2.8179 10.1233 1.1284 0.9586
1.8861 10.2393 1.1180 0.9590
0.0369 10.4805 1.1254 0.9587
-3.1158 6.5658 0.7804 0.9712
-3.1096 -6.1908 0.7439 0.9725
17.5299 8.1848 1.6377 0.9253
14.8626 8.6314 1.4549 0.9333
5.5902 10.0238 0.9716 0.9550
4.4525 9.9864 0.9256 0.9571
0.6614 10.6327 0.9018 0.9581
-0.2878 10.5770 0.8957 0.9584
-2.9198 -6.2872 0.5868 0.9726
15.6532 8.4586 1.5062 0.9311
11.3053 9.0318 1.2249 0.9436
8.3655 9.5749 1.0763 0.9502
7.1495 9.8312 1.0290 0.9524
5.9727 9.9765 0.9843 0.9544
3.8616 10.2341 0.9260 0.9570
1.9206 10.4267 0.8975 0.9583
0.0377 10.7107 0.9067 0.9579
-3.1003 -6.1723 0.5847 0.9727
17.6354 8.2341 1.2069 0.9250
14.8431 8.6201 1.0644 0.9335
10.9361 9.3011 0.8902 0.9441
6.7268 9.8738 0.7409 0.9532
4.4488 9.9781 0.6775 0.9572
2.5506 10.3885 0.6633 0.9580
0.6609 10.6242 0.6601 0.9582
-2.9098 -6.2657 0.4284 0.9727
15.7463 8.5089 1.1099 0.9308
7.1430 9.8223 0.7531 0.9525
5.9675 9.9679 0.7204 0.9545
4.8816 10.1025 0.6958 0.9560
3.8584 10.2257 0.6777 0.9571
2.8803 10.3474 0.6660 0.9579
1.9279 10.4661 0.6599 0.9582
0.0377 10.7021 0.6636 0.9580
15.1817 8.8168 0.6923 0.9321
10.9265 9.2930 0.5656 0.9442
7.9334 9.6640 0.4930 0.9512
4.4483 9.9768 0.4307 0.9572
3.5152 10.2597 0.4276 0.9575
16.1047 8.7026 0.7218 0.9293
11.5923 9.2610 0.5851 0.9423
9.8506 9.4263 0.5376 0.9469
2.8780 10.3391 0.4232 0.9579
1.9264 10.4578 0.4193 0.9583
0.0376 10.6936 0.4217 0.9581
-3.1097 6.5530 0.2860 0.9714
-3.0945 -6.1607 0.2718 0.9728
7.9636 9.7008 0.2120 0.9510
6.7148 9.8563 0.2015 0.9534
5.5758 9.9981 0.1934 0.9552
4.4527 9.9868 0.1847 0.9572
2.5466 10.3719 0.1804 0.9582
0.6598 10.6074 0.1795 0.9584
8.4253 9.6433 0.2163 0.9501
7.1301 9.8045 0.2048 0.9527
1.9248 10.4495 0.1795 0.9584
0.9839 10.5669 0.1793 0.9584
0.0376 10.6851 0.1805 0.9582
-3.1079 6.5491 0.1225 0.9714
15.1421 8.7938 -0.0986 0.9324
12.7810 9.0373 -0.0881 0.9393
7.9562 9.6917 -0.0706 0.9511
5.5711 9.9896 -0.0644 0.9553
4.4491 9.9786 -0.0615 0.9572
2.5446 10.3637 -0.0601 0.9582
-0.2876 10.5699 -0.0595 0.9586
-3.2851 6.4067 -0.0405 0.9716
17.2064 9.2979 -0.1101 0.9247
13.5793 8.9891 -0.0917 0.9369
11.5109 9.1960 -0.0830 0.9428
9.8772 9.4517 -0.0770 0.9468
8.4172 9.6341 -0.0720 0.9501
7.1237 9.7957 -0.0682 0.9527
3.8490 10.2008 -0.0614 0.9573
2.8734 10.3226 -0.0603 0.9580
0.0376 10.6766 -0.0601 0.9582
-3.1060 6.5452 -0.0408 0.9714
-3.1013 -6.1743 -0.0389 0.9727
10.9431 9.3071 -0.4045 0.9441
9.2114 9.3732 -0.3700 0.9488
7.9487 9.6827 -0.3527 0.9511
6.7029 9.8388 -0.3352 0.9535
4.4454 9.9703 -0.3074 0.9573
2.5310 10.3083 -0.2989 0.9584
0.6588 10.5906 -0.2988 0.9584
13.5628 8.9782 -0.4580 0.9370
9.8672 9.4421 -0.3846 0.9468
7.1173 9.7869 -0.3407 0.9527
4.8654 10.0689 -0.3149 0.9562
3.8459 10.1925 -0.3068 0.9573
2.8580 10.2674 -0.3001 0.9582
-3.1042 6.5413 -0.2039 0.9714
-3.0957 -6.1630 -0.1942 0.9728
15.1028 8.7709 -0.8857 0.9324
12.8130 9.0599 -0.7958 0.9391
10.8798 9.2533 -0.7243 0.9444
9.2022 9.3639 -0.6658 0.9488
7.9413 9.6737 -0.6347 0.9511
6.6970 9.8301 -0.6032 0.9535
5.5616 9.9727 -0.5791 0.9553
2.5289 10.3001 -0.5379 0.9584
1.5898 10.4174 -0.5344 0.9587
-2.8793 -6.2000 -0.3467 0.9730
17.1597 9.2727 -0.9892 0.9249
5.9418 9.9249 -0.5866 0.9547
4.8613 10.0605 -0.5667 0.9562
3.8428 10.1843 -0.5520 0.9573
0.0374 10.6093 -0.5380 0.9584
15.0831 8.7595 -1.2789 0.9324
10.8682 9.2434 -1.0461 0.9444
7.9339 9.6646 -0.9168 0.9511
6.6910 9.8214 -0.8714 0.9535
5.5569 9.9642 -0.8365 0.9553
4.4381 9.9539 -0.7991 0.9572
2.5269 10.2919 -0.7770 0.9584
1.5958 10.4569 -0.7756 0.9585
-3.2872 6.4107 -0.5282 0.9715
-15.0182 -12.3806 -1.4271 0.9249
-10.7518 -15.2724 -1.3695 0.9278
-2.8754 -6.1916 -0.5005 0.9730
-6.2124 -17.2627 -1.3452 0.9291
-1.4279 -18.3924 -1.3526 0.9287
0.2199 -18.5766 -1.3622 0.9282
3.5951 -18.6448 -1.3923 0.9267
7.5488 -15.2962 -1.2507 0.9339
13.4612 8.9109 -1.1837 0.9373
11.5286 9.2101 -1.0819 0.9425
9.0686 8.6779 -0.9203 0.9509
8.3932 9.6066 -0.9353 0.9501
5.9367 9.9164 -0.8474 0.9547
4.8573 10.0521 -0.8186 0.9562
3.8215 10.1279 -0.7937 0.9575
2.8665 10.2980 -0.7838 0.9580
1.9188 10.4165 -0.7766 0.9584
0.0373 10.6008 -0.7773 0.9584
-1.2987 15.0989 -1.1112 0.9410
-14.1112 -13.0941 -1.4115 0.9257
-12.6998 -14.0929 -1.3910 0.9267
-9.7809 -15.7824 -1.3614 0.9282
-3.6008 -17.9924 -1.3454 0.9290
12.4815 8.8255 -1.4676 0.9404
10.9080 9.2772 -1.3748 0.9441
9.1840 9.3453 -1.2579 0.9487
7.9265 9.6556 -1.1993 0.9510
6.6851 9.8126 -1.1399 0.9534
2.5365 10.3308 -1.0213 0.9582
1.5946 10.4486 -1.0147 0.9584
-19.4825 2.2398 -1.8827 0.9242
-19.0250 0.4784 -1.8271 0.9264
-18.4584 -1.1863 -1.7758 0.9284
-17.7947 -2.7531 -1.7287 0.9302
-17.0446 -4.2221 -1.6858 0.9319
-16.2177 -5.5938 -1.6470 0.9334
-15.3223 -6.8695 -1.6121 0.9348
-14.3660 -8.0506 -1.5810 0.9360
-13.3551 -9.1388 -1.5536 0.9370
-12.2952 -10.1358 -1.5298 0.9380
-11.1912 -11.0434 -1.5094 0.9388
-8.8673 -12.5955 -1.4788 0.9400
-5.1395 -14.2813 -1.4572 0.9408
-3.8426 -14.6736 -1.4562 0.9409
-2.5222 -14.9806 -1.4584 0.9408
-1.1802 -15.2014 -1.4638 0.9406
2.9563 -15.3321 -1.4991 0.9392
4.3649 -15.1909 -1.5174 0.9385
8.6432 -14.1684 -1.5934 0.9355
12.9176 -12.1569 -1.7030 0.9312
8.3853 -6.5855 -1.0236 0.9581
14.5492 -9.4581 -1.6660 0.9326
15.2616 -8.0837 -1.6580 0.9330
13.1948 8.7346 -1.5192 0.9384
11.4615 9.1565 -1.4084 0.9428
7.0981 9.7604 -1.1586 0.9527
4.8532 10.0437 -1.0709 0.9562
1.9172 10.4082 -1.0161 0.9584
0.9800 10.5253 -1.0148 0.9584
-19.1953 1.0734 -1.8457 0.9257
-17.3117 -3.7279 -1.7001 0.9313
-15.6375 -6.4415 -1.6237 0.9343
-14.7014 -7.6549 -1.5913 0.9356
-13.7086 -8.7749 -1.5626 0.9367
-12.6649 -9.8031 -1.5376 0.9377
-11.5756 -10.7413 -1.5161 0.9385
-10.4451 -11.5909 -1.4979 0.9392
-9.2770 -12.3533 -1.4832 0.9398
-8.0749 -13.0296 -1.4717 0.9403
-3.0922 -6.1561 -0.6614 0.9727
-2.6107 -6.6099 -0.6823 0.9718
16.9186 -3.2261 -2.0459 0.9330
18.2012 -0.1780 -2.1621 0.9293
18.6577 1.4872 -2.2233 0.9274
18.3954 3.1361 -2.2166 0.9276
17.6379 6.3884 -2.2283 0.9272
17.4394 8.1425 -2.2862 0.9254
14.6889 8.5305 -2.0177 0.9339
9.1309 9.2913 -1.5474 0.9489
6.6476 9.7576 -1.4025 0.9536
5.5474 9.9471 -1.3529 0.9552
0.6567 10.5571 -1.2565 0.9583
-4.6429 15.2707 -1.8959 0.9377
-14.3105 13.0591 -2.3013 0.9249
-15.5168 9.7513 -2.1769 0.9288
-16.0861 6.4703 -2.0596 0.9325
-16.1556 4.8757 -2.0046 0.9343
-16.0953 3.3261 -1.9523 0.9359
-15.2375 -0.9793 -1.8137 0.9403
-14.1959 -3.5164 -1.7372 0.9428
-13.5594 -4.6769 -1.7038 0.9439
-12.8554 -5.7635 -1.6735 0.9448
-12.0906 -6.7754 -1.6463 0.9457
-11.2708 -7.7125 -1.6223 0.9465
-10.4012 -8.5744 -1.6012 0.9471
-8.5317 -10.0733 -1.5681 0.9482
-2.8628 -6.1646 -0.8074 0.9730
-3.2750 -12.5058 -1.5356 0.9493
-2.1491 -12.7645 -1.5376 0.9492
0.1545 -13.0481 -1.5500 0.9488
6.0795 -12.3188 -1.6318 0.9462
8.4411 -11.4065 -1.6856 0.9444
8.1091 -9.1271 -1.4503 0.9520
11.9862 -7.7919 -1.6982 0.9440
12.9396 -6.8538 -1.7393 0.9427
14.9243 -6.2710 -1.9229 0.9369
15.8295 -5.0438 -1.9735 0.9353
16.6553 -3.7095 -2.0269 0.9336
17.6301 4.0808 -2.1496 0.9297
13.1788 8.7240 -1.8774 0.9383
9.0699 8.6792 -1.4912 0.9507
8.1796 9.3621 -1.4767 0.9512
7.0582 9.7056 -1.4255 0.9528
4.8492 10.0353 -1.3239 0.9561
2.8619 10.2814 -1.2677 0.9579
1.9157 10.4000 -1.2562 0.9583
0.9792 10.5169 -1.2547 0.9583
0.0344 9.7623 -1.1596 0.9614
-1.2966 15.0744 -1.7972 0.9409
-3.0968 6.5257 -0.8580 0.9713
-14.7805 11.9795 -2.2600 0.9262
-15.7702 8.6659 -2.1375 0.9301
-16.0304 7.0273 -2.0791 0.9319
-16.1469 5.4195 -2.0232 0.9337
-16.1301 3.8535 -1.9699 0.9354
-15.7376 0.8800 -1.8723 0.9385
-15.3820 -0.5149 -1.8282 0.9399
-14.9325 -1.8427 -1.7872 0.9412
-13.7862 -4.2861 -1.7149 0.9435
-8.8645 -9.8369 -1.5729 0.9481
-4.9201 -6.5516 -0.9733 0.9675
-6.8712 -11.0873 -1.5494 0.9488
-3.6574 -12.3990 -1.5356 0.9493
14.1237 -2.6932 -2.0372 0.9436
14.6388 -1.4555 -2.0844 0.9423
15.0531 -0.1473 -2.1330 0.9410
15.3556 1.2240 -2.1826 0.9397
14.3007 5.1797 -2.1551 0.9404
14.0706 6.5696 -2.2003 0.9392
12.4521 8.8047 -2.1608 0.9402
9.1217 9.2820 -1.8439 0.9488
7.7250 9.4101 -1.7250 0.9520
5.4119 9.7041 -1.5743 0.9561
4.4058 9.8816 -1.5330 0.9572
3.4101 9.9531 -1.4907 0.9584
-1.9648 16.7858 -2.3946 0.9340
-3.4125 16.3434 -2.3656 0.9348
-4.4723 14.7095 -2.1784 0.9398
-10.0499 13.1532 -2.3454 0.9353
-10.9458 11.9452 -2.2956 0.9366
-11.7051 10.6815 -2.2452 0.9380
-13.4140 5.3955 -2.0486 0.9433
-13.5388 2.7978 -1.9588 0.9457
-10.4298 -5.8447 -1.6940 0.9528
-8.2269 -8.1182 -1.6376 0.9544
-5.6675 -9.8054 -1.6047 0.9553
-3.8131 -10.5957 -1.5956 0.9555
0.1343 -11.3469 -1.6079 0.9552
1.6034 -8.3155 -1.1999 0.9664
3.2043 -11.1516 -1.6440 0.9542
4.2302 -10.9348 -1.6612 0.9537
5.2508 -10.6396 -1.6811 0.9532
6.7839 -6.3844 -1.3199 0.9631
10.1828 -6.6195 -1.7209 0.9521
11.8098 -6.2554 -1.8936 0.9474
12.5838 -5.2875 -1.9340 0.9463
13.2923 -4.2354 -1.9767 0.9452
13.9253 -3.1015 -2.0214 0.9440
14.4724 -1.8895 -2.0680 0.9427
14.9227 -0.6047 -2.1161 0.9414
14.1660 6.0915 -2.1849 0.9396
8.9590 4.8412 -1.4429 0.9597
11.2193 8.9630 -2.0346 0.9436
8.1717 9.3531 -1.7598 0.9511
3.7398 9.9115 -1.5010 0.9581
1.8690 10.1464 -1.4618 0.9592
0.9554 10.2606 -1.4601 0.9592
-2.9218 16.5136 -2.3761 0.9345
-4.2378 15.6502 -2.2973 0.9366
-5.4548 14.7707 -2.2310 0.9384
-10.6530 12.3679 -2.3128 0.9362
-12.1292 9.8306 -2.2122 0.9389
-12.6643 8.5123 -2.1621 0.9402
-13.3464 5.8507 -2.0648 0.9428
-13.5485 3.2367 -1.9737 0.9453
-13.4862 1.9718 -1.9312 0.9464
-13.0707 -0.4375 -1.8530 0.9485
-11.2696 -4.6422 -1.7269 0.9520
-9.2645 -7.1711 -1.6600 0.9538
-8.4996 -7.8870 -1.6429 0.9542
-7.6939 -8.5379 -1.6285 0.9546
-4.8928 -6.5152 -1.1545 0.9676
-5.9757 -9.6423 -1.6073 0.9552
-3.0939 -6.1595 -0.9766 0.9725
-3.1845 -10.7956 -1.5948 0.9555
12.1103 -2.3093 -2.0310 0.9512
12.8214 -0.1254 -2.1123 0.9493
13.0340 1.0389 -2.1540 0.9484
13.1406 2.2403 -2.1960 0.9474
13.1174 3.4640 -2.2350 0.9465
10.9559 7.7468 -2.2105 0.9471
10.3632 8.8139 -2.2412 0.9463
9.1125 9.2726 -2.1417 0.9487
7.7176 9.4012 -2.0038 0.9519
6.5099 9.5554 -1.9047 0.9542
3.4073 9.9449 -1.7318 0.9583
2.4707 10.0627 -1.7070 0.9589
1.5532 10.1776 -1.6961 0.9591
0.6402 10.2915 -1.6987 0.9591
-0.2642 9.7099 -1.6002 0.9614
-1.6217 13.8544 -2.2980 0.9450
-6.9690 11.0389 -2.1506 0.9485
-9.2187 10.0605 -2.2479 0.9462
-9.8925 9.0274 -2.2063 0.9472
-10.9084 6.8552 -2.1224 0.9491
-11.4926 4.6227 -2.0407 0.9510
-11.6310 3.5102 -2.0014 0.9519
-11.6728 2.4122 -1.9636 0.9528
-11.6231 1.3362 -1.9274 0.9537
-11.4872 0.2889 -1.8930 0.9545
-11.2705 -0.7243 -1.8605 0.9552
-10.6166 -2.6298 -1.8018 0.9566
-8.5721 -5.8658 -1.7111 0.9588
-7.2571 -7.1612 -1.6796 0.9595
-2.8475 -6.1316 -1.1137 0.9730
-2.5231 -9.6346 -1.6407 0.9604
-0.7735 -9.9634 -1.6463 0.9603
0.1188 -10.0308 -1.6526 0.9601
1.6051 -8.3242 -1.3966 0.9662
2.8252 -9.8324 -1.6853 0.9594
3.4548 -8.9305 -1.5775 0.9619
4.2822 -8.6770 -1.5940 0.9615
3.7090 -6.0800 -1.1733 0.9715
5.8989 -7.9712 -1.6336 0.9606
6.7933 -6.3932 -1.5368 0.9629
8.1571 -6.4062 -1.7087 0.9588
9.5357 -6.1989 -1.8737 0.9549
10.2291 -5.4181 -1.9069 0.9542
11.9534 -2.6623 -2.0175 0.9516
12.3827 -1.6166 -2.0572 0.9506
12.7252 -0.5157 -2.0981 0.9497
12.9725 0.6338 -2.1396 0.9487
13.1164 1.8235 -2.1816 0.9477
11.8737 5.1058 -2.1292 0.9490
10.5805 8.4527 -2.2309 0.9466
9.0204 8.6318 -2.0568 0.9506
8.1638 9.3441 -2.0441 0.9509
6.9117 9.5042 -1.9360 0.9535
5.7765 9.6488 -1.8526 0.9554
3.7368 9.9034 -1.7437 0.9580
2.7899 10.0226 -1.7139 0.9587
1.8675 10.1383 -1.6983 0.9591
0.9546 10.2523 -1.6963 0.9591
0.0341 9.6743 -1.5937 0.9615
-1.1990 13.9399 -2.3049 0.9449
-2.4148 13.6481 -2.2833 0.9454
-3.5821 13.2289 -2.2578 0.9460
-4.6871 12.6919 -2.2289 0.9466
-6.6643 11.3117 -2.1628 0.9482
-8.9616 10.4041 -2.2621 0.9459
-9.6732 9.3879 -2.2206 0.9468
-10.2744 8.3273 -2.1787 0.9478
-11.1466 6.1251 -2.0953 0.9497
-11.6690 2.7877 -1.9764 0.9525
-11.6502 1.7034 -1.9397 0.9534
-11.5433 0.6455 -1.9046 0.9542
-9.3550 -4.8711 -1.7375 0.9581
-4.8656 -6.4790 -1.3348 0.9677
-3.0897 -6.1510 -1.1340 0.9725
-2.5586 -6.4779 -1.1474 0.9722
10.5895 -2.0193 -2.0263 0.9571
10.9125 -1.0850 -2.0612 0.9563
11.1552 -0.1091 -2.0968 0.9556
11.0957 4.0189 -2.2181 0.9531
10.1208 4.7254 -2.0994 0.9556
9.7957 5.6888 -2.1292 0.9549
8.8454 7.5230 -2.1826 0.9538
4.3984 9.8650 -2.0302 0.9570
3.4045 9.9367 -1.9743 0.9582
2.4687 10.0545 -1.9460 0.9587
0.6396 10.2831 -1.9366 0.9589
-2.4038 11.5127 -2.2106 0.9533
-3.3869 11.1396 -2.1884 0.9537
-3.3020 6.4398 -1.3603 0.9710
-8.5574 7.8092 -2.1775 0.9539
-9.4849 5.9606 -2.1056 0.9554
-10.0433 4.0397 -2.0347 0.9569
-10.2497 2.1181 -1.9672 0.9583
-10.2290 1.1760 -1.9353 0.9590
-10.1311 0.2548 -1.9048 0.9596
-9.7206 -1.5039 -1.8488 0.9608
-9.4168 -2.3326 -1.8235 0.9613
-9.0533 -3.1227 -1.8000 0.9618
-8.6343 -3.8710 -1.7785 0.9622
-8.1641 -4.5751 -1.7591 0.9626
-6.4867 -6.4010 -1.7129 0.9636
-4.8076 -6.8290 -1.5698 0.9666
-2.9930 -5.1781 -1.1242 0.9760
-1.4047 -5.3638 -1.0422 0.9777
-0.6426 -8.2768 -1.5604 0.9668
0.0986 -8.3294 -1.5657 0.9667
1.6772 -5.8371 -1.1415 0.9756
3.8182 -7.7367 -1.6216 0.9655
5.2455 -7.0883 -1.6575 0.9647
7.7653 -6.0985 -1.8559 0.9606
9.0137 -4.7743 -1.9172 0.9593
9.5561 -4.0153 -1.9483 0.9587
11.0812 -0.4490 -2.0845 0.9559
11.3634 1.5798 -2.1564 0.9544
10.2094 4.3901 -2.0889 0.9558
9.5278 6.3071 -2.1477 0.9546
9.0369 7.2195 -2.1741 0.9540
8.4485 8.0846 -2.1979 0.9535
7.7669 8.8897 -2.2188 0.9531
6.9053 9.4954 -2.2068 0.9533
4.7228 9.7737 -2.0403 0.9568
3.7337 9.8951 -1.9879 0.9579
1.8660 10.1301 -1.9361 0.9589
0.0339 9.6304 -1.8102 0.9616
-1.0192 11.8489 -2.2354 0.9527
-4.0039 10.8418 -2.1724 0.9540
-3.0535 6.4344 -1.3387 0.9714
-5.7175 9.7047 -2.1171 0.9552
-6.4663 9.0246 -2.0868 0.9558
-8.3604 8.1138 -2.1898 0.9537
-8.9028 7.2157 -2.1540 0.9544
-9.7082 5.3347 -2.0821 0.9559
-9.9730 4.3719 -2.0467 0.9566
-10.1487 3.4063 -2.0121 0.9574
-10.2382 2.4459 -1.9785 0.9581
-10.2450 1.4979 -1.9461 0.9587
-10.1732 0.5689 -1.9152 0.9594
-9.8104 -1.2106 -1.8580 0.9606
-9.5282 -2.0518 -1.8320 0.9611
-7.8298 -5.0119 -1.7474 0.9629
-7.2838 -5.6379 -1.7313 0.9632
-6.6971 -6.2144 -1.7172 0.9635
-5.6328 -6.2507 -1.5816 0.9663
-4.7985 -6.3897 -1.5020 0.9680
-2.2964 -5.8140 -1.1750 0.9749
-2.1972 -7.4487 -1.4597 0.9689
9.3991 -1.7923 -2.0226 0.9616
9.6671 -0.9612 -2.0535 0.9611
10.0166 1.7077 -2.1478 0.9593
9.9662 2.6318 -2.1789 0.9587
9.8264 3.5591 -2.2092 0.9582
9.1511 4.2727 -2.1348 0.9596
8.5620 4.9724 -2.0929 0.9603
6.5288 7.9530 -2.1750 0.9588
5.0686 9.0886 -2.1997 0.9583
2.4666 10.0463 -2.1867 0.9586
1.5507 10.1611 -2.1727 0.9588
0.6391 10.2748 -2.1761 0.9588
-2.0910 10.0145 -2.1625 0.9590
-2.9500 9.7026 -2.1436 0.9594
-3.2858 6.4082 -1.5222 0.9710
-5.2370 8.2955 -2.0737 0.9607
-6.3468 8.3065 -2.2097 0.9582
-6.9878 7.6258 -2.1864 0.9586
-7.5323 6.8736 -2.1555 0.9592
-7.9973 6.0845 -2.1241 0.9597
-8.9102 3.5839 -2.0301 0.9615
-9.0566 2.7333 -1.9997 0.9621
-9.1252 1.0491 -1.9416 0.9631
-8.7136 -1.3482 -1.8638 0.9646
-8.1377 -2.8069 -1.8196 0.9654
-6.3963 -5.2729 -1.7522 0.9667
-4.9049 -5.7912 -1.6042 0.9694
-4.3477 -6.1757 -1.5965 0.9696
-1.2447 -7.3931 -1.5847 0.9698
-0.5814 -7.4892 -1.5878 0.9698
0.0892 -7.5344 -1.5927 0.9697
0.7641 -7.5280 -1.5994 0.9695
1.4402 -7.4693 -1.6079 0.9694
2.1142 -7.3577 -1.6182 0.9692
2.7826 -7.1929 -1.6302 0.9690
3.4420 -6.9745 -1.6440 0.9687
4.7184 -6.3761 -1.6767 0.9681
5.3275 -5.9962 -1.6955 0.9677
6.2923 -5.9217 -1.8265 0.9653
6.9713 -5.4749 -1.8737 0.9644
7.5315 -4.8960 -1.8988 0.9639
8.0492 -4.2634 -1.9254 0.9634
8.5188 -3.5795 -1.9532 0.9629
9.2912 -2.0694 -2.0121 0.9618
9.5828 -1.2511 -2.0428 0.9613
9.9491 0.4861 -2.1056 0.9601
10.0138 1.3922 -2.1371 0.9595
8.6748 4.6876 -2.0843 0.9605
8.3188 5.5068 -2.1088 0.9600
7.8779 6.2936 -2.1314 0.9596
6.7529 7.7292 -2.1695 0.9589
6.0782 8.3580 -2.1845 0.9586
5.3372 8.9151 -2.1964 0.9584
3.6912 9.7825 -2.2101 0.9582
2.7853 10.0062 -2.1955 0.9584
0.9530 10.2357 -2.1730 0.9588
0.0337 9.5703 -2.0230 0.9616
-5.0010 8.4885 -2.0825 0.9605
-5.6661 7.9079 -2.0564 0.9610
-7.3539 7.1370 -2.1662 0.9590
-8.2586 5.5510 -2.1034 0.9601
-8.5903 4.7204 -2.0719 0.9607
-8.8419 3.8761 -2.0407 0.9613
-9.0149 3.0258 -2.0100 0.9619
-9.1114 2.1767 -1.9802 0.9624
-9.1340 1.3355 -1.9513 0.9630
-9.0856 0.5081 -1.9235 0.9635
-8.9697 -0.3002 -1.8971 0.9640
-8.7897 -1.0847 -1.8721 0.9644
-7.9024 -3.2552 -1.8066 0.9657
-7.5033 -3.9069 -1.7882 0.9660
-7.0589 -4.5184 -1.7716 0.9663
-6.0480 -5.6120 -1.7440 0.9668
-4.5423 -6.0485 -1.5989 0.9695
-2.3043 -5.8342 -1.3259 0.9747
-2.1194 -7.1849 -1.5834 0.9698
8.4412 -1.6096 -2.0196 0.9653
8.8297 -0.0864 -2.0753 0.9644
8.9393 1.5240 -2.1312 0.9634
8.8805 2.3451 -2.1587 0.9630
8.7427 3.1666 -2.1854 0.9625
8.5171 3.9767 -2.2092 0.9621
7.6815 4.4610 -2.0877 0.9642
7.2449 5.1228 -2.0854 0.9642
6.3268 6.4380 -2.1214 0.9636
5.7668 7.0248 -2.1360 0.9633
5.1461 7.5536 -2.1481 0.9631
4.4711 8.0172 -2.1574 0.9630
3.7493 8.4091 -2.1639 0.9629
0.5704 9.1698 -2.1593 0.9630
-1.0582 9.0405 -2.1392 0.9633
-1.8482 8.8516 -2.1252 0.9635
-2.6101 8.5847 -2.1088 0.9638
-3.3358 8.2444 -2.0902 0.9641
-5.6502 7.3949 -2.1872 0.9625
-6.7196 6.1320 -2.1380 0.9633
-7.1456 5.4365 -2.1102 0.9638
-7.5011 4.7140 -2.0821 0.9643
-7.7854 3.9718 -2.0541 0.9647
-7.9990 3.2174 -2.0263 0.9652
-8.1430 2.4575 -1.9990 0.9657
-7.8887 -1.2205 -1.8761 0.9677
-7.6619 -1.8979 -1.8552 0.9681
-7.3838 -2.5468 -1.8357 0.9684
-6.6867 -3.7472 -1.8015 0.9690
-6.2743 -4.2935 -1.7868 0.9692
-4.9508 -4.8853 -1.6347 0.9718
-3.9647 -5.6317 -1.6187 0.9721
-2.9978 -5.1866 -1.4079 0.9757
-2.1108 -5.8654 -1.4651 0.9747
-1.1358 -6.7463 -1.6078 0.9723
-0.5305 -6.8328 -1.6107 0.9722
0.0814 -6.8722 -1.6152 0.9722
0.6967 -6.8638 -1.6214 0.9720
3.1306 -6.3435 -1.6625 0.9714
5.1361 -5.7809 -1.8174 0.9687
5.7744 -5.4344 -1.8636 0.9679
6.8063 -4.4246 -1.9079 0.9672
7.2644 -3.8478 -1.9320 0.9668
8.0404 -2.5620 -1.9833 0.9659
8.5974 -1.1224 -2.0377 0.9650
8.8979 0.4347 -2.0937 0.9641
8.9416 1.2431 -2.1217 0.9636
8.9095 2.0623 -2.1493 0.9631
5.3660 7.3787 -2.1443 0.9632
4.7089 7.8656 -2.1545 0.9630
4.0023 8.2827 -2.1620 0.9629
3.2542 8.6245 -2.1665 0.9628
0.8527 9.1577 -2.1616 0.9629
0.0323 9.1647 -2.1539 0.9630
-2.3517 8.6850 -2.1147 0.9637
-3.0908 8.3693 -2.0968 0.9640
-3.0181 6.3599 -1.6545 0.9715
-4.4394 7.5352 -2.0554 0.9647
-5.2570 7.3369 -2.1213 0.9636
-7.0070 5.6792 -2.1198 0.9636
-7.3868 4.9650 -2.0918 0.9641
-7.6956 4.2288 -2.0637 0.9646
-7.9335 3.4778 -2.0358 0.9650
-8.2003 1.9590 -1.9815 0.9660
-8.2326 1.2037 -1.9554 0.9664
-8.2006 0.4586 -1.9303 0.9668
-7.7459 -1.6680 -1.8622 0.9680
-7.1751 -2.9556 -1.8238 0.9686
-5.9828 -4.6309 -1.7781 0.9694
-4.6391 -5.1480 -1.6287 0.9719
-3.4832 -5.6205 -1.5540 0.9732
-2.8725 -5.7188 -1.5041 0.9740
-2.3063 -5.8392 -1.4755 0.9745
-1.9341 -6.5568 -1.6066 0.9723
-1.3420 -6.7057 -1.6072 0.9723
7.9846 -0.0781 -2.0675 0.9675
8.0570 0.6422 -2.0927 0.9672
5.1583 6.2836 -2.1049 0.9670
4.6004 6.7526 -2.1156 0.9668
3.3491 7.5115 -2.1294 0.9666
2.6695 7.7913 -2.1324 0.9665
1.9641 7.9996 -2.1328 0.9665
1.2413 8.1339 -2.1304 0.9666
0.5096 8.1929 -2.1254 0.9667
-0.2224 8.1764 -2.1178 0.9668
-1.6541 7.9220 -2.0954 0.9671
-2.9906 7.3912 -2.0644 0.9676
-4.1786 6.6189 -2.0267 0.9682
-5.0910 6.6630 -2.1711 0.9659
-6.7810 4.2614 -2.0736 0.9674
-7.0471 3.5952 -2.0484 0.9678
-7.4855 0.8606 -1.9509 0.9693
-7.3492 -0.4723 -1.9068 0.9700
-7.1998 -1.1139 -1.8863 0.9703
-6.9997 -1.7339 -1.8671 0.9706
-6.1241 -3.4318 -1.8176 0.9714
-5.7503 -3.9349 -1.8041 0.9716
-5.3406 -4.4026 -1.7921 0.9718
-4.1087 -4.8511 -1.6460 0.9741
-2.0915 -5.8116 -1.5992 0.9748
-1.4082 -5.3774 -1.4393 0.9773
-1.0436 -6.1982 -1.6274 0.9744
-0.4873 -6.2768 -1.6301 0.9743
1.2046 -6.2473 -1.6473 0.9741
1.7664 -6.1476 -1.6561 0.9739
3.4098 -5.5896 -1.6953 0.9733
4.1912 -5.6636 -1.8243 0.9713
4.7622 -5.3600 -1.8564 0.9708
5.7548 -4.5196 -1.8946 0.9702
6.2028 -4.0322 -1.9155 0.9699
6.9806 -2.9331 -1.9605 0.9692
7.3018 -2.3266 -1.9842 0.9688
8.0394 0.3928 -2.0840 0.9673
7.9201 2.5964 -2.1580 0.9661
7.7392 3.3279 -2.1812 0.9658
7.4839 4.0441 -2.2025 0.9655
5.8239 5.5730 -2.0871 0.9672
5.3383 6.1100 -2.1007 0.9670
4.2082 7.0292 -2.1212 0.9667
2.9065 7.7030 -2.1317 0.9666
2.2091 7.9362 -2.1330 0.9665
-0.6988 8.1250 -2.1115 0.9669
-1.4130 7.9862 -2.0999 0.9670
-3.9868 6.7671 -2.0336 0.9681
-4.8912 6.8264 -2.1743 0.9659
-5.4354 6.3104 -2.1564 0.9662
-5.9097 5.7354 -2.1322 0.9665
-6.9628 3.8261 -2.0570 0.9677
-7.3485 2.4665 -2.0070 0.9685
-7.4476 1.7792 -1.9826 0.9689
-7.4860 1.0945 -1.9589 0.9692
-7.2570 -0.8955 -1.8932 0.9702
-6.5645 -2.7041 -1.8382 0.9711
-4.2578 -4.7249 -1.6468 0.9741
-3.8027 -5.0637 -1.6396 0.9742
-3.3243 -5.3641 -1.6340 0.9743
-2.8255 -5.6251 -1.6298 0.9743
-2.2852 -5.7856 -1.6106 0.9746
6.9923 -1.3333 -2.0151 0.9708
7.2797 -0.0712 -2.0609 0.9702
7.2703 1.9199 -2.1287 0.9692
6.9480 3.2441 -2.1708 0.9686
6.6902 3.8853 -2.1902 0.9683
6.3501 4.4901 -2.2017 0.9682
5.5540 4.7237 -2.0641 0.9701
5.1201 5.2101 -2.0680 0.9701
4.6608 5.6775 -2.0795 0.9699
2.4090 7.0310 -2.1040 0.9696
1.1203 7.3408 -2.1022 0.9696
0.4600 7.3957 -2.0977 0.9697
-0.2009 7.3834 -2.0910 0.9698
-0.8550 7.3046 -2.0820 0.9699
-2.1147 6.9553 -2.0580 0.9702
-2.7072 6.6908 -2.0433 0.9704
-3.2249 6.2892 -2.0008 0.9710
-4.0875 6.4747 -2.1676 0.9687
-5.0928 5.5578 -2.1340 0.9691
-5.8739 4.4690 -2.0894 0.9698
-6.8355 1.4126 -1.9760 0.9714
-6.2135 -2.1432 -1.8607 0.9730
-5.9483 -2.6668 -1.8454 0.9733
-5.6436 -3.1626 -1.8314 0.9735
-4.5206 -4.4609 -1.7979 0.9739
-2.9147 -5.0427 -1.6489 0.9761
-2.4483 -5.2719 -1.6455 0.9761
1.6301 -5.6731 -1.6710 0.9758
2.7119 -5.4951 -1.7348 0.9748
3.8906 -5.2574 -1.8515 0.9732
4.3812 -4.9312 -1.8674 0.9730
5.2857 -4.1512 -1.9027 0.9724
6.0626 -3.2112 -1.9422 0.9719
6.3935 -2.6864 -1.9632 0.9716
6.6809 -2.1288 -1.9850 0.9713
7.1107 -0.9283 -2.0301 0.9706
7.2461 -0.2936 -2.0530 0.9703
7.3245 0.3579 -2.0760 0.9700
7.3431 1.0209 -2.0988 0.9696
7.1930 2.3580 -2.1429 0.9690
7.0218 3.0194 -2.1638 0.9687
5.8519 4.6751 -2.1204 0.9693
5.2665 5.0396 -2.0635 0.9702
0.0260 7.3952 -2.0935 0.9697
-1.2770 7.2176 -2.0750 0.9700
-1.9044 7.0328 -2.0627 0.9702
-2.5068 6.7881 -2.0485 0.9704
-2.9722 6.2632 -1.9626 0.9716
-4.4483 6.2082 -2.1621 0.9687
-4.9368 5.7315 -2.1415 0.9690
-5.3731 5.2146 -2.1196 0.9694
-6.0816 4.0877 -2.0744 0.9700
-6.3509 3.4899 -2.0514 0.9703
-6.5627 2.8769 -2.0285 0.9707
-6.7171 2.2545 -2.0058 0.9710
-6.8569 1.0026 -1.9618 0.9716
-6.7805 -0.2270 -1.9206 0.9722
-6.6659 -0.8226 -1.9014 0.9725
-6.0441 -2.4897 -1.8505 0.9732
-5.4236 -3.4717 -1.8230 0.9736
-5.0597 -3.9164 -1.8113 0.9738
-4.6637 -4.3276 -1.8011 0.9739
-4.2150 -4.6773 -1.7824 0.9742
-2.1335 -5.4016 -1.6441 0.9761
6.7210 1.1458 -2.0970 0.9719
6.1096 3.5481 -2.1731 0.9709
5.8120 4.1095 -2.1894 0.9707
5.4416 4.6281 -2.1972 0.9705
4.7362 4.8194 -2.0783 0.9721
3.7834 5.5534 -2.0668 0.9723
3.2834 5.8874 -2.0734 0.9722
2.1923 6.3985 -2.0804 0.9721
1.6130 6.5694 -2.0806 0.9721
0.4188 6.7323 -2.0747 0.9722
-0.7788 6.6538 -2.0605 0.9724
-1.9283 6.3421 -2.0389 0.9726
-3.0926 6.0313 -2.0848 0.9720
-4.2271 5.5323 -2.1415 0.9713
-5.0481 4.6067 -2.1020 0.9718
-5.6721 3.5645 -2.0605 0.9724
-5.9065 3.0133 -2.0395 0.9726
-6.2180 1.8766 -1.9977 0.9732
-6.3226 0.7269 -1.9575 0.9737
-6.3000 0.1584 -1.9384 0.9740
-6.1127 -0.9457 -1.9025 0.9744
-5.9519 -1.4743 -1.8860 0.9747
-5.2281 -2.9298 -1.8433 0.9752
-2.2747 -4.8981 -1.6611 0.9777
-0.4180 -5.3846 -1.6612 0.9777
0.5483 -5.4013 -1.6699 0.9775
1.5384 -5.3540 -1.7134 0.9770
2.0935 -5.4115 -1.7847 0.9760
3.1299 -5.1307 -1.8486 0.9752
3.6013 -4.8665 -1.8621 0.9750
4.0528 -4.5616 -1.8768 0.9748
4.8827 -3.8346 -1.9096 0.9744
6.3667 -1.4180 -2.0062 0.9731
6.6535 -0.2696 -2.0481 0.9725
6.7192 0.3283 -2.0692 0.9722
6.7302 0.9357 -2.0900 0.9720
6.6846 1.5473 -2.1104 0.9717
6.5811 2.1574 -2.1302 0.9714
4.9929 4.7778 -2.1256 0.9715
3.9470 5.4274 -2.0641 0.9723
-1.1636 6.5765 -2.0542 0.9724
-1.7361 6.4116 -2.0431 0.9726
-2.2868 6.1922 -2.0303 0.9728
-2.8213 5.9451 -2.0241 0.9728
-3.5656 6.0520 -2.1605 0.9710
-4.5171 5.2442 -2.1289 0.9714
-4.9205 4.7754 -2.1090 0.9717
-5.8318 3.2046 -2.0467 0.9725
-6.0318 2.6442 -2.0257 0.9728
-6.2748 1.4990 -1.9843 0.9734
-6.3190 0.9239 -1.9643 0.9736
-6.3133 0.3530 -1.9449 0.9739
-6.1579 -0.7599 -1.9084 0.9744
-6.0121 -1.2946 -1.8916 0.9746
-5.8236 -1.8105 -1.8758 0.9748
-4.3257 -4.0139 -1.8150 0.9756
-3.9326 -4.3640 -1.8069 0.9757
-2.4459 -4.8695 -1.6761 0.9775
-1.9811 -5.0158 -1.6587 0.9777
-1.5250 -5.1698 -1.6579 0.9777
5.9454 -1.1337 -2.0119 0.9748
6.0807 -0.6046 -2.0312 0.9746
6.1687 -0.0603 -2.0506 0.9743
6.1949 1.0561 -2.0889 0.9739
5.8402 2.7268 -2.1425 0.9732
5.6155 3.2612 -2.1586 0.9730
5.3387 3.7749 -2.1734 0.9728
5.0116 4.2623 -2.1869 0.9726
4.0220 4.8994 -2.1071 0.9736
3.0098 5.3969 -2.0541 0.9743
2.5214 5.6551 -2.0582 0.9742
1.4781 6.0203 -2.0606 0.9742
0.9344 6.1230 -2.0589 0.9742
-0.1677 6.1640 -2.0497 0.9743
-2.9612 5.7750 -2.1573 0.9730
-3.8898 5.0909 -2.1297 0.9734
-4.2924 4.6843 -2.1119 0.9736
-5.2353 3.2901 -2.0553 0.9743
-5.7526 1.7361 -1.9974 0.9750
-5.8290 1.2046 -1.9785 0.9752
-5.8583 0.6735 -1.9602 0.9754
-5.7800 -0.3715 -1.9253 0.9759
-5.6755 -0.8781 -1.9090 0.9761
-5.5297 -1.3697 -1.8936 0.9763
-4.5751 -3.1307 -1.8428 0.9769
-3.9068 -3.8552 -1.8245 0.9771
-2.2641 -4.8752 -1.7868 0.9776
-1.7782 -4.9412 -1.7456 0.9781
-0.8521 -5.0610 -1.7060 0.9786
2.4592 -4.9831 -1.8472 0.9768
3.3488 -4.5252 -1.8713 0.9765
4.1622 -3.9170 -1.8999 0.9762
4.8736 -3.1682 -1.9322 0.9758
5.1830 -2.7453 -1.9496 0.9756
5.8883 -1.3115 -2.0053 0.9749
6.0394 -0.7885 -2.0246 0.9747
6.1439 -0.2490 -2.0440 0.9744
6.1998 0.3029 -2.0633 0.9742
6.2051 0.8627 -2.0824 0.9739
6.0585 1.9861 -2.1193 0.9735
5.9053 2.5393 -2.1367 0.9733
4.7619 4.5568 -2.1908 0.9726
4.2489 4.8631 -2.1466 0.9731
2.6923 5.5718 -2.0570 0.9743
2.1876 5.7978 -2.0598 0.9742
1.1225 6.0938 -2.0597 0.9742
-0.5272 6.1297 -2.0451 0.9744
-1.5934 5.8845 -2.0265 0.9746
-2.1142 5.7249 -2.0286 0.9746
-2.7855 5.8697 -2.1597 0.9730
-4.1586 4.8280 -2.1181 0.9735
-4.5334 4.3997 -2.0999 0.9737
-5.1484 3.4604 -2.0620 0.9742
-5.3855 2.9594 -2.0426 0.9744
-5.5745 2.4437 -2.0232 0.9747
-5.7153 1.9183 -2.0040 0.9749
-5.8535 0.8558 -1.9664 0.9754
-5.8524 0.3273 -1.9484 0.9756
-5.8061 -0.1943 -1.9311 0.9758
-5.7162 -0.7054 -1.9145 0.9760
-5.4125 -1.6827 -1.8841 0.9764
-5.2028 -2.1431 -1.8704 0.9766
-4.6783 -2.9946 -1.8464 0.9769
-4.3683 -3.3812 -1.8362 0.9770
-4.0295 -3.7391 -1.8273 0.9771
-3.6645 -4.0665 -1.8196 0.9772
-3.2757 -4.3619 -1.8133 0.9773
-2.4368 -4.8513 -1.8046 0.9774
-1.9429 -4.9190 -1.7580 0.9780
-1.4696 -4.9820 -1.7266 0.9783
5.6446 -0.5612 -2.0285 0.9762
5.7224 -0.0560 -2.0465 0.9760
5.7390 0.9784 -2.0819 0.9756
5.5622 2.0146 -2.1155 0.9752
5.4002 2.5214 -2.1313 0.9750
5.1894 3.0138 -2.1460 0.9748
4.6267 3.9350 -2.1720 0.9745
2.8183 5.0535 -2.0692 0.9757
2.3244 5.2133 -2.0412 0.9760
1.8519 5.4051 -2.0432 0.9760
1.3625 5.5494 -2.0434 0.9760
0.3539 5.6895 -2.0385 0.9761
-0.1546 5.6842 -2.0335 0.9761
-0.6589 5.6291 -2.0267 0.9762
-1.1579 5.5455 -2.0259 0.9762
-1.7079 5.6173 -2.0996 0.9754
-2.2625 5.5916 -2.1571 0.9747
-2.7425 5.3486 -2.1495 0.9748
-3.5983 4.7094 -2.1195 0.9751
-3.9732 4.3360 -2.1031 0.9753
-5.2275 2.1026 -2.0149 0.9763
-5.3465 1.6136 -1.9971 0.9766
-5.4397 0.1368 -1.9459 0.9771
-5.1582 -1.2777 -1.9003 0.9777
-4.2755 -2.9257 -1.8526 0.9782
-3.9776 -3.2790 -1.8434 0.9783
-2.1388 -4.6055 -1.8159 0.9787
-0.8425 -5.0042 -1.8147 0.9787
-0.3933 -5.0656 -1.8170 0.9786
0.9696 -5.0284 -1.8313 0.9785
1.8636 -4.8172 -1.8471 0.9783
2.2978 -4.6560 -1.8568 0.9782
2.7197 -4.4583 -1.8676 0.9781
3.1263 -4.2246 -1.8794 0.9779
4.2244 -3.3177 -1.9209 0.9774
4.5399 -2.9513 -1.9364 0.9773
5.2935 -1.6867 -1.9868 0.9767
5.7008 -0.2310 -2.0403 0.9761
5.7497 0.7994 -2.0759 0.9756
5.7026 1.3200 -2.0932 0.9754
5.6066 1.8380 -2.1099 0.9752
4.7365 3.7839 -2.1679 0.9746
4.4032 4.2135 -2.1794 0.9744
4.0221 4.6035 -2.1861 0.9744
3.5889 4.9351 -2.1821 0.9744
3.0083 5.0249 -2.0943 0.9754
1.5324 5.5053 -2.0436 0.9760
1.0347 5.6174 -2.0426 0.9760
0.5288 5.6797 -2.0399 0.9761
0.0200 5.6917 -2.0354 0.9761
-0.9849 5.5663 -2.0215 0.9763
-1.5137 5.5899 -2.0710 0.9757
-2.0918 5.6642 -2.1593 0.9747
-3.0377 5.1561 -2.1401 0.9749
-3.4608 4.8301 -2.1249 0.9751
-3.8486 4.4681 -2.1088 0.9753
-4.1981 4.0743 -2.0920 0.9755
-4.5072 3.6530 -2.0747 0.9757
-5.4004 1.2902 -1.9856 0.9767
-5.4462 0.7963 -1.9683 0.9769
-5.4486 0.3047 -1.9515 0.9771
-5.4089 -0.1810 -1.9353 0.9773
-4.8572 -2.0008 -1.8786 0.9779
-4.6301 -2.4109 -1.8668 0.9781
-4.3714 -2.7981 -1.8561 0.9782
-4.0831 -3.1605 -1.8465 0.9783
-3.4273 -3.8033 -1.8309 0.9785
-2.6812 -4.3264 -1.8202 0.9786
-1.8641 -4.7196 -1.8146 0.9787
-1.4350 -4.8648 -1.8138 0.9787
5.2612 -0.5231 -2.0261 0.9776
5.3305 -0.0521 -2.0429 0.9774
5.2772 1.3936 -2.0916 0.9769
5.1693 1.8723 -2.1069 0.9767
4.8180 2.7980 -2.1351 0.9764
4.2918 3.6502 -2.1591 0.9762
2.7747 4.9753 -2.1831 0.9759
2.2753 5.1031 -2.1412 0.9763
0.8088 5.2999 -2.0545 0.9773
0.3332 5.3569 -2.0568 0.9773
-0.6395 5.4632 -2.1079 0.9767
-1.1513 5.5140 -2.1586 0.9762
-1.6374 5.3856 -2.1571 0.9762
-2.5459 4.9651 -2.1383 0.9764
-3.6941 4.0314 -2.0954 0.9768
-4.0086 3.6581 -2.0797 0.9770
-4.2853 3.2603 -2.0635 0.9772
-4.5225 2.8421 -2.0469 0.9774
-4.8746 1.9607 -2.0135 0.9777
-4.9886 1.5055 -1.9969 0.9779
-5.0611 1.0459 -1.9805 0.9781
-2.3018 0.2646 -0.8879 0.9901
-2.3032 -0.1480 -0.8844 0.9902
-4.8285 -1.1961 -1.9063 0.9789
-4.4811 -2.0090 -1.8819 0.9792
-4.0086 -2.7431 -1.8614 0.9794
-3.1012 -3.6615 -1.8388 0.9797
-2.7544 -3.9124 -1.8336 0.9797
-1.6127 -4.4814 -1.8252 0.9798
-1.2063 -4.6064 -1.8248 0.9798
-0.3692 -4.7552 -1.8278 0.9798
0.0566 -4.7778 -1.8311 0.9797
0.4837 -4.7655 -1.8356 0.9797
0.9097 -4.7180 -1.8413 0.9796
3.2909 -3.7040 -1.8988 0.9790
3.6329 -3.4189 -1.9118 0.9789
3.9517 -3.1035 -1.9256 0.9787
4.9408 -1.5743 -1.9872 0.9780
5.1036 -1.1367 -2.0037 0.9779
5.2278 -0.6825 -2.0204 0.9777
5.3529 0.2615 -2.0538 0.9773
5.3037 1.2276 -2.0862 0.9769
5.0739 2.1818 -2.1166 0.9766
4.6641 3.0875 -2.1435 0.9763
3.7343 4.2742 -2.1750 0.9760
3.3473 4.6028 -2.1810 0.9759
2.9256 4.8868 -2.1827 0.9759
2.4533 5.0772 -2.1609 0.9761
1.9433 5.1503 -2.1095 0.9767
0.0190 5.3927 -2.0666 0.9772
-0.9725 5.4965 -2.1391 0.9764
-1.9465 5.2709 -2.1532 0.9762
-2.8208 4.7880 -2.1296 0.9765
-3.2154 4.4875 -2.1156 0.9766
-3.5775 4.1534 -2.1007 0.9768
-3.9046 3.7895 -2.0852 0.9770
-4.1945 3.3996 -2.0691 0.9771
-4.4454 2.9880 -2.0526 0.9773
-4.6561 2.5586 -2.0360 0.9775
-4.9541 1.6628 -2.0026 0.9779
-5.0408 1.2042 -1.9861 0.9780
-5.0865 0.7437 -1.9700 0.9782
-2.3013 -0.2840 -0.8886 0.9901
-3.8291 -2.9639 -1.8556 0.9795
-3.5343 -3.2796 -1.8477 0.9796
-3.2158 -3.5686 -1.8409 0.9796
-2.5167 -4.0609 -1.8308 0.9797
-2.1406 -4.2616 -1.8276 0.9798
-0.9347 -4.6703 -1.8252 0.9798
4.9211 -0.4893 -2.0240 0.9789
4.9833 -0.0487 -2.0396 0.9787
4.9865 0.8501 -2.0703 0.9784
4.9257 1.3008 -2.0851 0.9782
4.4909 2.6081 -2.1255 0.9778
4.2637 3.0148 -2.1372 0.9777
2.9875 4.3851 -2.1716 0.9773
0.8010 5.2484 -2.1729 0.9773
0.3292 5.2920 -2.1701 0.9773
-0.1440 5.2916 -2.1665 0.9774
-0.6142 5.2472 -2.1622 0.9774
-1.9611 4.8467 -2.1399 0.9777
-2.7600 4.3718 -2.1160 0.9779
-3.7431 3.4158 -2.0740 0.9783
-4.2273 2.6566 -2.0434 0.9787
-4.4135 2.2516 -2.0278 0.9788
-4.6705 1.4095 -1.9967 0.9791
-2.0193 0.2321 -0.8319 0.9913
-1.9966 0.0502 -0.8174 0.9914
-2.1031 -0.5210 -0.8868 0.9907
-4.2108 -1.8878 -1.8886 0.9803
-3.7693 -2.5793 -1.8693 0.9805
-3.2244 -3.1818 -1.8540 0.9806
-2.9182 -3.4454 -1.8479 0.9807
-2.2488 -3.8906 -1.8392 0.9808
-1.5182 -4.2187 -1.8350 0.9808
-1.1356 -4.3365 -1.8347 0.9808
-0.7446 -4.4225 -1.8355 0.9808
-0.3475 -4.4761 -1.8375 0.9808
0.8560 -4.4392 -1.8503 0.9806
2.7515 -3.7181 -1.8931 0.9802
3.9812 -2.5881 -1.9434 0.9797
4.2270 -2.2389 -1.9577 0.9795
4.8907 -0.6385 -2.0186 0.9789
4.9663 -0.2013 -2.0343 0.9787
5.0024 0.2444 -2.0498 0.9786
4.9977 0.6948 -2.0651 0.9784
4.9514 1.1461 -2.0801 0.9783
4.7323 2.0349 -2.1083 0.9780
4.5598 2.4640 -2.1212 0.9778
3.8025 3.6387 -2.1540 0.9775
3.4764 3.9790 -2.1625 0.9774
3.1178 4.2872 -2.1696 0.9773
2.7299 4.5599 -2.1751 0.9773
1.8772 4.9751 -2.1763 0.9773
1.4253 5.1206 -2.1754 0.9773
0.4918 5.2820 -2.1711 0.9773
0.0187 5.2967 -2.1678 0.9774
-0.4531 5.2674 -2.1638 0.9774
-0.9191 5.1945 -2.1590 0.9775
-1.3752 5.0786 -2.1534 0.9775
-2.2338 4.7073 -2.1325 0.9777
-2.6298 4.4638 -2.1204 0.9779
-3.6454 3.5378 -2.0791 0.9783
-2.0986 0.5014 -0.8831 0.9907
-2.0200 -0.2493 -0.8330 0.9912
-2.0851 -0.4490 -0.8729 0.9908
-4.0783 -2.1236 -1.8819 0.9803
-3.6012 -2.7875 -1.8638 0.9805
-3.3248 -3.0851 -1.8563 0.9806
-3.0258 -3.3577 -1.8499 0.9807
-2.7064 -3.6039 -1.8446 0.9807
-2.3687 -3.8222 -1.8404 0.9808
-2.0150 -4.0116 -1.8373 0.9808
-1.2683 -4.2996 -1.8347 0.9808
-0.8799 -4.3966 -1.8351 0.9808
4.6732 -0.0457 -2.0368 0.9798
4.6918 0.3740 -2.0512 0.9797
4.6128 1.2181 -2.0793 0.9794
4.5144 1.6351 -2.0925 0.9793
3.9865 2.8188 -2.1278 0.9789
3.7364 3.1778 -2.1377 0.9788
3.4520 3.5126 -2.1464 0.9787
3.1357 3.8197 -2.1538 0.9787
2.4191 4.3377 -2.1646 0.9786
2.0255 4.5430 -2.1678 0.9785
1.6135 4.7093 -2.1695 0.9785
0.7501 4.9148 -2.1668 0.9785
0.3083 4.9561 -2.1641 0.9786
-0.1348 4.9562 -2.1608 0.9786
-0.5750 4.9121 -2.1554 0.9787
-1.4283 4.6978 -2.1399 0.9788
-1.8334 4.5313 -2.1303 0.9789
-2.2192 4.3279 -2.1197 0.9790
-2.5822 4.0902 -2.1081 0.9791
-2.9195 3.8210 -2.0957 0.9792
-3.2283 3.5231 -2.0826 0.9794
-3.5065 3.1999 -2.0689 0.9795
-3.9638 2.4910 -2.0403 0.9798
-4.1404 2.1123 -2.0257 0.9799
-4.2811 1.7220 -2.0110 0.9801
-1.4939 0.4508 -0.6801 0.9932
-1.4763 0.3051 -0.6570 0.9934
-1.4734 -0.2280 -0.6498 0.9935
-1.4897 -0.3690 -0.6689 0.9933
-3.9670 -1.7785 -1.8947 0.9812
-3.7734 -2.1146 -1.8851 0.9813
-3.0410 -3.0008 -1.8619 0.9815
-2.1218 -3.6710 -1.8479 0.9817
-1.7835 -3.8404 -1.8454 0.9817
-1.4327 -3.9811 -1.8439 0.9817
-1.0717 -4.0923 -1.8436 0.9817
-0.7026 -4.1733 -1.8444 0.9817
1.9089 -3.8681 -1.8799 0.9814
2.5919 -3.5024 -1.8989 0.9812
3.2103 -3.0212 -1.9213 0.9809
3.4891 -2.7402 -1.9335 0.9808
3.7445 -2.4342 -1.9464 0.9807
3.9739 -2.1049 -1.9598 0.9806
4.1752 -1.7543 -1.9737 0.9804
4.3462 -1.3848 -1.9880 0.9803
4.5893 -0.5992 -2.0171 0.9800
4.6581 -0.1888 -2.0317 0.9799
4.6897 0.2291 -2.0463 0.9797
4.5527 1.4925 -2.0880 0.9793
4.4285 1.9043 -2.1009 0.9792
4.2654 2.3049 -2.1130 0.9791
4.0643 2.6904 -2.1242 0.9790
3.5535 3.4004 -2.1435 0.9788
2.1632 4.4767 -2.1669 0.9785
1.7570 4.6566 -2.1691 0.9785
0.4606 4.9466 -2.1651 0.9786
0.0175 4.9608 -2.1620 0.9786
-0.8599 4.8598 -2.1509 0.9787
-1.6961 4.5928 -2.1338 0.9789
-2.0889 4.4019 -2.1235 0.9790
-2.4601 4.1757 -2.1122 0.9791
-2.8066 3.9170 -2.1000 0.9792
-3.6715 2.9757 -2.0596 0.9796
-4.0837 2.2440 -2.0307 0.9799
-4.2368 1.8573 -2.0161 0.9800
-1.4921 0.5008 -0.6859 0.9932
-1.4737 0.2155 -0.6491 0.9935
-1.4439 -0.0483 -0.6296 0.9937
-1.4727 -0.1817 -0.6467 0.9935
-1.4799 -0.3187 -0.6598 0.9934
-1.4940 -0.4645 -0.6818 0.9932
-4.0272 -1.6589 -1.8982 0.9812
-3.8430 -2.0011 -1.8883 0.9813
-3.6318 -2.3247 -1.8793 0.9814
-3.3953 -2.6281 -1.8712 0.9814
-2.8541 -3.1671 -1.8581 0.9816
-2.2349 -3.6063 -1.8490 0.9817
-1.1968 -4.0574 -1.8436 0.9817
-0.8303 -4.1489 -1.8440 0.9817
4.2584 -0.8120 -2.0066 0.9811
4.3943 -0.0430 -2.0342 0.9808
4.4100 0.3515 -2.0478 0.9807
4.2381 1.5350 -2.0865 0.9803
4.1074 1.9178 -2.0983 0.9802
3.7387 2.6435 -2.1195 0.9800
3.5031 2.9794 -2.1287 0.9799
2.9385 3.5795 -2.1437 0.9798
0.7031 4.6072 -2.1573 0.9797
0.2890 4.6458 -2.1546 0.9797
-0.1263 4.6443 -2.1506 0.9797
-0.5388 4.6030 -2.1452 0.9798
-1.3390 4.4041 -2.1307 0.9799
-1.7193 4.2492 -2.1218 0.9800
-2.4231 3.8382 -2.1010 0.9802
-3.5264 2.6830 -2.0511 0.9807
-3.7269 2.3421 -2.0375 0.9808
-3.8946 1.9869 -2.0238 0.9809
-1.2527 0.5039 -0.6250 0.9941
-1.2680 0.2620 -0.5993 0.9943
-1.2750 0.1466 -0.5941 0.9944
-1.2639 0.0318 -0.5852 0.9944
-1.2704 -0.0816 -0.5893 0.9944
-3.5640 -1.9972 -1.8911 0.9822
-3.1265 -2.5774 -1.8755 0.9823
-2.8742 -2.8363 -1.8691 0.9824
-2.3122 -3.2844 -1.8593 0.9825
-2.0063 -3.4711 -1.8558 0.9825
-1.3548 -3.7648 -1.8521 0.9825
-1.0134 -3.8700 -1.8518 0.9825
-0.3101 -3.9939 -1.8543 0.9825
0.0475 -4.0118 -1.8571 0.9825
0.7632 -3.9579 -1.8658 0.9824
1.1167 -3.8862 -1.8717 0.9823
1.4642 -3.7848 -1.8785 0.9823
2.4471 -3.3068 -1.9042 0.9820
3.0290 -2.8506 -1.9253 0.9818
3.7452 -1.9837 -1.9618 0.9815
3.9333 -1.6527 -1.9749 0.9814
4.2746 1.4013 -2.0823 0.9804
4.1565 1.7873 -2.0943 0.9803
3.8120 2.5234 -2.1161 0.9801
3.5878 2.8663 -2.1256 0.9800
3.3310 3.1875 -2.1341 0.9799
3.0439 3.4839 -2.1415 0.9798
2.7288 3.7523 -2.1476 0.9798
2.3885 3.9897 -2.1524 0.9797
1.2506 4.4926 -2.1586 0.9797
0.4318 4.6370 -2.1557 0.9797
0.0164 4.6493 -2.1521 0.9797
-1.2047 4.4491 -2.1336 0.9799
-2.3082 3.9179 -2.1049 0.9802
-2.9346 3.4070 -2.0814 0.9804
-3.8407 2.1105 -2.0285 0.9809
-1.2486 0.5473 -0.6310 0.9940
-1.2663 0.4250 -0.6183 0.9941
-1.2690 0.0710 -0.5883 0.9944
-1.2654 -0.0424 -0.5861 0.9944
-1.2691 -0.3945 -0.6152 0.9942
-1.2500 -0.5149 -0.6258 0.9941
-3.6295 -1.8899 -1.8942 0.9821
-3.2083 -2.4833 -1.8780 0.9823
-2.9633 -2.7497 -1.8712 0.9823
-2.6979 -2.9938 -1.8655 0.9824
-1.4701 -3.7221 -1.8524 0.9825
-1.1318 -3.8370 -1.8517 0.9825
-0.7852 -3.9235 -1.8521 0.9825
4.1420 -0.0405 -2.0318 0.9817
4.1342 0.7048 -2.0572 0.9815
3.9888 1.4448 -2.0810 0.9813
3.8645 1.8044 -2.0921 0.9812
3.7064 2.1525 -2.1024 0.9811
3.2931 2.8008 -2.1206 0.9809
3.0410 3.0944 -2.1281 0.9809
2.7612 3.3636 -2.1346 0.9808
2.1289 3.8174 -2.1440 0.9807
1.4196 4.1433 -2.1483 0.9807
1.0444 4.2537 -2.1485 0.9807
0.6604 4.3275 -2.1473 0.9807
0.2715 4.3641 -2.1448 0.9807
-0.8875 4.2503 -2.1298 0.9808
-1.2587 4.1399 -2.1225 0.9809
-1.6166 3.9953 -2.1141 0.9810
-1.0908 0.5565 -0.6007 0.9946
-1.1369 0.2349 -0.5695 0.9948
-1.1381 0.0286 -0.5585 0.9949
-1.1427 -0.0734 -0.5617 0.9949
-1.1431 -0.1769 -0.5674 0.9949
-2.7218 -2.6859 -1.8757 0.9831
-2.1902 -3.1111 -1.8663 0.9832
-1.2836 -3.5669 -1.8595 0.9833
-0.9602 -3.6666 -1.8592 0.9833
-0.6295 -3.7391 -1.8599 0.9832
0.0450 -3.8004 -1.8643 0.9832
0.3846 -3.7886 -1.8680 0.9832
1.0574 -3.6799 -1.8781 0.9831
1.3862 -3.5832 -1.8846 0.9830
2.0173 -3.3068 -1.9001 0.9829
2.8638 -2.6952 -1.9290 0.9826
3.5373 -1.8736 -1.9635 0.9823
3.7136 -1.5604 -1.9759 0.9822
3.9826 -0.8870 -2.0014 0.9820
4.1452 0.5763 -2.0529 0.9815
4.1018 0.9494 -2.0652 0.9814
4.0237 1.3191 -2.0771 0.9813
3.9111 1.6818 -2.0883 0.9812
3.5848 2.3730 -2.1088 0.9810
3.3730 2.6947 -2.1177 0.9809
3.1309 2.9960 -2.1257 0.9809
2.8604 3.2739 -2.1325 0.9808
2.5638 3.5255 -2.1383 0.9808
2.2439 3.7480 -2.1428 0.9807
1.1746 4.2198 -2.1486 0.9807
0.7932 4.3063 -2.1479 0.9807
0.4056 4.3558 -2.1459 0.9807
-0.7573 4.2801 -2.1321 0.9808
-1.1324 4.1818 -2.1252 0.9809
-1.4952 4.0488 -2.1171 0.9810
-1.8426 3.8827 -2.1081 0.9810
-2.1713 3.6855 -2.0983 0.9811
-3.2500 2.6341 -2.0520 0.9815
-3.4506 2.3193 -2.0394 0.9816
-1.1028 0.4834 -0.5906 0.9946
-1.1266 0.3781 -0.5829 0.9947
-1.1436 0.1672 -0.5669 0.9949
-1.1443 -0.1412 -0.5655 0.9949
-1.1354 -0.2445 -0.5697 0.9948
-1.1104 -0.4574 -0.5891 0.9947
-1.0939 -0.5696 -0.6049 0.9945
-3.2475 -2.0787 -1.8914 0.9830
-2.5551 -2.8354 -1.8722 0.9831
-2.2864 -3.0446 -1.8677 0.9832
-1.7033 -3.3911 -1.8615 0.9832
-1.3928 -3.5264 -1.8598 0.9832
-1.0724 -3.6354 -1.8592 0.9833
-0.7439 -3.7173 -1.8596 0.9833
3.7968 -0.7240 -2.0052 0.9827
3.9233 0.3127 -2.0418 0.9824
3.8487 1.0163 -2.0651 0.9822
3.6442 1.7015 -2.0864 0.9820
3.3133 2.3428 -2.1051 0.9819
2.8648 2.9151 -2.1203 0.9818
2.6008 3.1681 -2.1264 0.9817
2.0047 3.5947 -2.1353 0.9816
1.6781 3.7638 -2.1379 0.9816
1.3366 3.9011 -2.1393 0.9816
0.9833 4.0050 -2.1394 0.9816
0.6219 4.0747 -2.1383 0.9816
-0.1118 4.1090 -2.1325 0.9816
-0.4768 4.0737 -2.1278 0.9817
-1.1860 3.9007 -2.1151 0.9818
-1.5235 3.7653 -2.1072 0.9819
-2.4326 3.1838 -2.0786 0.9821
-2.9280 2.6720 -2.0564 0.9823
-3.1367 2.3865 -2.0447 0.9824
-0.9706 0.6100 -0.5947 0.9948
-0.9664 0.4930 -0.5628 0.9951
-1.0171 0.3070 -0.5512 0.9952
-1.0374 0.1193 -0.5417 0.9953
-1.0331 0.0260 -0.5361 0.9954
-1.0367 -0.0666 -0.5389 0.9953
-1.0349 -0.1601 -0.5433 0.9953
-1.0205 -0.2528 -0.5454 0.9953
-1.0113 -0.3488 -0.5550 0.9952
-0.9496 -0.5321 -0.5647 0.9951
-3.0133 -2.0620 -1.8942 0.9837
-2.8075 -2.3144 -1.8876 0.9837
-2.3382 -2.7607 -1.8769 0.9838
-2.0782 -2.9519 -1.8728 0.9839
-1.5163 -3.2650 -1.8676 0.9839
-1.2182 -3.3850 -1.8663 0.9839
-0.5974 -3.5484 -1.8667 0.9839
0.6857 -3.5560 -1.8788 0.9838
2.4615 -2.7705 -1.9226 0.9834
2.9453 -2.3131 -1.9429 0.9833
3.1576 -2.0526 -1.9538 0.9832
3.3474 -1.7730 -1.9651 0.9831
3.5130 -1.4761 -1.9768 0.9830
3.9012 -0.1581 -2.0255 0.9826
3.9131 0.5440 -2.0496 0.9824
3.6885 1.5861 -2.0829 0.9821
3.5492 1.9179 -2.0929 0.9820
3.3789 2.2367 -2.1022 0.9819
3.1785 2.5393 -2.1105 0.9818
2.1130 3.5295 -2.1341 0.9816
1.4555 3.8576 -2.1389 0.9816
1.1059 3.9731 -2.1395 0.9816
0.7469 4.0547 -2.1389 0.9816
0.0145 4.1131 -2.1338 0.9816
-0.7133 4.0317 -2.1241 0.9817
-1.7368 3.6598 -2.1015 0.9819
-2.3377 3.2627 -2.0822 0.9821
-2.6060 3.0255 -2.0716 0.9822
-2.8501 2.7660 -2.0604 0.9823
-3.0680 2.4866 -2.0488 0.9824
-3.2585 2.1902 -2.0368 0.9825
-0.9516 0.5229 -0.5633 0.9951
-0.9898 0.4339 -0.5607 0.9951
-1.0128 0.3399 -0.5542 0.9952
-1.0357 0.1514 -0.5430 0.9953
-1.0341 -0.0346 -0.5368 0.9953
-1.0371 -0.1280 -0.5421 0.9953
-1.0268 -0.2211 -0.5449 0.9953
-1.0161 -0.3159 -0.5520 0.9952
-0.9970 -0.4107 -0.5594 0.9952
-0.9738 -0.6233 -0.5998 0.9948
-2.8806 -2.2297 -1.8898 0.9837
-2.4240 -2.6899 -1.8785 0.9838
-1.6164 -3.2180 -1.8682 0.9839
-1.0177 -3.4500 -1.8660 0.9839
-0.7060 -3.5277 -1.8664 0.9839
1.8879 0.1505 -1.0373 0.9914
1.8848 0.4977 -1.0677 0.9911
3.5561 1.2880 -2.0715 0.9829
3.1290 2.2125 -2.0989 0.9827
2.9298 2.4918 -2.1065 0.9826
2.1831 3.2044 -2.1237 0.9825
1.8918 3.3921 -2.1273 0.9824
1.2611 3.6808 -2.1311 0.9824
0.9278 3.7789 -2.1312 0.9824
0.5868 3.8448 -2.1302 0.9824
-0.1055 3.8778 -2.1246 0.9825
-1.1197 3.6828 -2.1083 0.9826
-1.7433 3.3998 -2.0926 0.9827
-2.2990 3.0089 -2.0740 0.9829
-2.7688 2.5267 -2.0530 0.9831
-2.9670 2.2574 -2.0419 0.9831
-0.8653 0.5438 -0.5597 0.9953
-0.8866 0.4523 -0.5451 0.9955
-0.9376 0.1938 -0.5244 0.9956
-0.9470 0.1089 -0.5221 0.9957
-0.9439 0.0237 -0.5171 0.9957
-0.9296 -0.2303 -0.5245 0.9956
-0.8745 -0.4901 -0.5491 0.9954
-0.8761 -0.5995 -0.5814 0.9952
-2.6667 -2.1984 -1.8929 0.9844
-1.9747 -2.8050 -1.8788 0.9845
-1.7139 -2.9653 -1.8759 0.9845
-1.1577 -3.2171 -1.8726 0.9845
-0.8660 -3.3071 -1.8724 0.9845
0.0406 -3.4268 -1.8770 0.9845
1.2486 -3.2275 -1.8954 0.9843
1.5369 -3.1141 -1.9020 0.9843
2.0826 -2.8142 -1.9175 0.9842
2.3359 -2.6291 -1.9262 0.9841
2.5735 -2.4220 -1.9356 0.9840
3.1730 -1.6807 -1.9666 0.9838
1.8746 -0.5973 -1.0776 0.9911
1.8823 -0.0763 -1.0318 0.9914
1.8886 0.2626 -1.0443 0.9913
1.8865 0.4367 -1.0605 0.9912
1.8719 0.6136 -1.0789 0.9911
3.3530 1.8119 -2.0874 0.9828
3.1912 2.1125 -2.0961 0.9827
2.7848 2.6648 -2.1110 0.9826
2.5433 2.9109 -2.1171 0.9825
1.9940 3.3307 -2.1262 0.9825
1.6912 3.5000 -2.1290 0.9824
1.0435 3.7488 -2.1313 0.9824
-0.3320 3.8599 -2.1219 0.9825
-1.6403 3.4566 -2.0955 0.9827
-1.9340 3.2827 -2.0868 0.9828
-2.2091 3.0831 -2.0774 0.9829
-2.6948 2.6153 -2.0567 0.9830
-2.9018 2.3519 -2.0458 0.9831
-0.8739 0.5874 -0.5767 0.9952
-0.9013 0.3951 -0.5390 0.9955
-0.9178 0.3081 -0.5303 0.9956
-0.9315 0.2225 -0.5246 0.9956
-0.9452 0.1382 -0.5232 0.9957
-0.9467 -0.1168 -0.5224 0.9957
-0.9212 -0.2864 -0.5284 0.9956
-0.8677 -0.5554 -0.5643 0.9953
-2.0613 -2.7448 -1.8801 0.9845
-1.5361 -3.0582 -1.8744 0.9845
-0.6710 -3.3527 -1.8727 0.9845
1.7039 0.6171 -1.0463 0.9917
3.1233 1.8139 -2.0853 0.9835
2.7713 2.3570 -2.1004 0.9833
2.5577 2.6026 -2.1067 0.9833
2.0641 3.0297 -2.1166 0.9832
0.2280 3.6659 -2.1206 0.9832
-1.3611 3.3638 -2.0951 0.9834
-1.6496 3.2170 -2.0873 0.9834
-2.1764 2.8485 -2.0697 0.9836
-0.8050 0.6124 -0.5840 0.9953
-0.8652 0.2611 -0.5218 0.9958
-0.8765 0.1811 -0.5167 0.9959
-0.8821 0.1014 -0.5126 0.9959
-0.8806 -0.1362 -0.5145 0.9959
-0.8716 -0.2159 -0.5184 0.9959
-0.8611 -0.2970 -0.5259 0.9958
-0.8454 -0.3790 -0.5349 0.9957
-0.8211 -0.4602 -0.5434 0.9957
-0.7976 -0.5458 -0.5580 0.9955
-2.5363 -2.0909 -1.8978 0.9849
-2.3332 -2.3024 -1.8925 0.9850
-2.1135 -2.4954 -1.8881 0.9850
-1.8789 -2.6688 -1.8844 0.9850
-1.6309 -2.8216 -1.8816 0.9851
-0.2521 -3.2470 -1.8803 0.9851
0.0386 -3.2606 -1.8826 0.9851
0.6197 -3.2140 -1.8898 0.9850
1.4614 -2.9612 -1.9065 0.9849
1.7261 -2.8294 -1.9135 0.9848
1.9795 -2.6749 -1.9212 0.9847
2.4450 -2.3010 -1.9385 0.9846
2.8430 -1.8481 -1.9577 0.9845
1.8342 -0.7707 -1.1487 0.9909
1.7182 -0.5475 -1.0411 0.9917
1.7327 -0.3859 -1.0249 0.9918
1.7417 -0.2274 -1.0141 0.9919
1.7348 -0.0703 -1.0024 0.9920
1.7361 0.0848 -1.0035 0.9920
1.7414 0.2421 -1.0151 0.9919
1.7325 0.4010 -1.0267 0.9918
1.7155 0.5624 -1.0423 0.9917
3.2993 1.4187 -2.0735 0.9835
2.8391 2.2682 -2.0980 0.9834
2.6338 2.5203 -2.1047 0.9833
2.1547 2.9629 -2.1152 0.9832
0.6662 3.6166 -2.1231 0.9832
0.0129 3.6697 -2.1187 0.9832
-0.9526 3.5180 -2.1042 0.9833
-2.0911 2.9185 -2.0729 0.9836
-0.7962 0.5352 -0.5539 0.9956
-0.8728 0.2085 -0.5181 0.9959
-0.8756 -0.1885 -0.5171 0.9959
-0.8646 -0.2688 -0.5227 0.9958
-0.8518 -0.3509 -0.5318 0.9958
-0.8304 -0.4324 -0.5406 0.9957
-2.6021 -2.0141 -1.8998 0.9849
-2.4050 -2.2317 -1.8943 0.9850
-1.9612 -2.6115 -1.8856 0.9850
-1.7176 -2.7714 -1.8825 0.9851
-0.9204 -3.1202 -1.8782 0.9851
-0.6385 -3.1904 -1.8785 0.9851
