ply
format ascii 1.0
element vertex 1183
property float32 x
property float32 y
property float32 z
property float32 I
end_header
14.2160 -8.8556 2.9532 0.9342
14.3991 -5.7332 2.7328 0.9390
12.8735 10.6296 2.9437 0.9344
10.5417 10.4142 2.6129 0.9416
8.9386 10.5610 2.4396 0.9454
6.3162 10.9248 2.2251 0.9500
3.9621 10.9901 2.0599 0.9537
1.8810 11.1032 1.9857 0.9553
0.8790 11.1423 1.9708 0.9556
-0.0512 4.9335 0.8700 0.9802
-1.3368 4.6903 0.8600 0.9804
-1.7418 4.5345 0.8565 0.9805
-2.1956 4.4784 0.8795 0.9799
-9.9619 11.2868 2.6545 0.9407
-12.0236 11.3953 2.9210 0.9349
-5.1617 -6.9826 1.5311 0.9653
15.0854 -6.0064 2.4874 0.9364
10.8296 10.6986 2.3321 0.9403
7.6831 10.9160 2.0450 0.9474
4.0050 11.1091 1.8091 0.9533
-0.1103 10.6380 1.6298 0.9579
-0.4855 4.8648 0.7490 0.9804
-1.3637 4.7848 0.7622 0.9801
-2.0064 5.2234 0.8572 0.9776
-2.4518 5.0009 0.8532 0.9777
-11.6320 11.0242 2.4551 0.9372
-13.9377 11.0304 2.7229 0.9306
-5.1479 -6.9639 1.3267 0.9656
16.1311 -6.4228 2.2610 0.9324
13.0082 10.7409 2.1968 0.9342
11.0294 10.8960 2.0189 0.9394
9.2796 10.9639 1.8705 0.9437
7.7175 10.9649 1.7461 0.9473
2.7442 10.4451 1.4063 0.9574
1.7718 10.4584 1.3813 0.9581
0.8268 10.4801 1.3690 0.9585
-0.1090 10.5105 1.3688 0.9585
-1.1428 11.4519 1.4987 0.9546
-0.9400 4.9259 0.6530 0.9800
-1.3672 4.7969 0.6495 0.9801
-2.3310 4.7545 0.6895 0.9789
-3.4275 4.6613 0.7534 0.9769
-10.0401 11.3754 1.9758 0.9406
-5.1397 -6.9528 1.1259 0.9657
12.4647 10.2921 1.7358 0.9370
10.4205 10.2944 1.5729 0.9428
9.3415 11.0370 1.5527 0.9435
7.9202 11.2528 1.4776 0.9461
6.5282 11.2914 1.4006 0.9489
5.2417 11.2770 1.3354 0.9512
4.0320 11.1841 1.2766 0.9533
1.7562 10.3661 1.1290 0.9586
-0.6118 6.1307 0.6616 0.9755
-1.7359 6.0907 0.6801 0.9748
-3.4993 4.7590 0.6343 0.9765
15.1068 -7.6361 1.4329 0.9343
12.2001 10.0737 1.3393 0.9385
10.2566 10.1325 1.2205 0.9438
7.9210 11.2540 1.1650 0.9463
5.2422 11.2781 1.0528 0.9513
2.7077 10.3063 0.9021 0.9581
1.7502 10.3308 0.8870 0.9588
0.8170 10.3562 0.8794 0.9592
-0.1077 10.3830 0.8790 0.9592
-3.2956 11.5630 1.0178 0.9529
-5.6137 11.4500 1.0795 0.9501
-3.5619 4.8441 0.5090 0.9762
-10.3764 11.7564 1.3274 0.9390
-12.2958 11.6532 1.4341 0.9343
-14.1558 11.2030 1.5282 0.9301
-15.1531 9.9362 1.5339 0.9298
-5.1303 -6.9401 0.7306 0.9659
12.1695 10.0484 0.9786 0.9387
6.5295 11.2937 0.8089 0.9491
5.2427 11.2792 0.7713 0.9514
4.0585 11.2576 0.7421 0.9532
2.7039 10.2919 0.6599 0.9583
0.8160 10.3438 0.6434 0.9593
-0.1075 10.3692 0.6430 0.9593
-2.2010 11.5340 0.7281 0.9540
-2.9616 6.0406 0.4172 0.9734
-3.6080 5.9522 0.4317 0.9725
-10.3777 11.7579 0.9725 0.9391
-15.5535 10.1988 1.1533 0.9282
-5.1276 -6.9365 0.5349 0.9660
9.3666 11.0666 0.5717 0.9436
7.9227 11.2564 0.5428 0.9464
6.5301 11.2948 0.5144 0.9491
5.2432 11.2803 0.4905 0.9514
3.1016 11.8055 0.4813 0.9523
2.0540 12.1242 0.4849 0.9520
0.9588 12.1543 0.4807 0.9524
-0.1190 11.4779 0.4526 0.9551
-1.1482 11.5061 0.4560 0.9548
-1.7426 6.1141 0.2507 0.9749
-2.3350 6.0787 0.2568 0.9743
-3.6083 5.9527 0.2744 0.9725
-8.6111 11.7108 0.5732 0.9435
-10.3789 11.7593 0.6185 0.9391
-14.3461 11.3536 0.7214 0.9294
-5.1319 -6.9423 0.3404 0.9660
-4.8904 -7.3036 0.1485 0.9654
7.9235 11.2576 0.2325 0.9464
5.2437 11.2814 0.2101 0.9514
4.0626 11.2688 0.2023 0.9532
0.9629 12.2053 0.2068 0.9522
-0.1190 11.4789 0.1939 0.9551
-1.1483 11.5072 0.1953 0.9548
-1.7428 6.1146 0.1074 0.9749
-2.3351 6.0791 0.1100 0.9743
-3.6086 5.9532 0.1176 0.9725
-10.3802 11.7607 0.2650 0.9392
-12.4655 11.8141 0.2901 0.9336
-14.3433 11.3514 0.3090 0.9294
-16.6827 10.9392 0.3370 0.9233
-5.1422 -6.9562 0.1461 0.9660
-4.8656 -7.2666 -0.0492 0.9656
12.0475 11.9017 -0.0953 0.9345
9.3687 11.0691 -0.0816 0.9436
7.8898 11.2097 -0.0772 0.9466
6.5314 11.2971 -0.0735 0.9491
5.2442 11.2824 -0.0701 0.9515
-0.1190 11.4799 -0.0646 0.9551
-1.7429 6.1151 -0.0358 0.9749
-2.9623 6.0421 -0.0379 0.9734
-10.3814 11.7621 -0.0883 0.9392
-14.3405 11.3492 -0.1030 0.9295
-16.6855 10.9410 -0.1123 0.9233
-4.8684 -7.2708 -0.2464 0.9656
12.0490 11.9032 -0.4769 0.9345
9.3697 11.0703 -0.4084 0.9436
7.8906 11.2109 -0.3860 0.9466
6.5321 11.2982 -0.3675 0.9491
0.9630 12.2074 -0.3448 0.9522
-0.1190 11.4809 -0.3233 0.9551
-1.1431 11.4551 -0.3242 0.9550
-1.7430 6.1155 -0.1791 0.9749
-3.6092 5.9541 -0.1960 0.9725
-12.4688 11.8172 -0.4837 0.9336
-14.3377 11.3470 -0.5149 0.9294
-16.6883 10.9428 -0.5619 0.9232
-15.5805 -11.2268 -0.9739 0.9260
-4.8589 -7.2567 -0.4429 0.9656
12.0454 11.8997 -0.8587 0.9344
7.9260 11.2612 -0.6984 0.9463
5.2453 11.2846 -0.6311 0.9514
4.0687 11.2858 -0.6084 0.9531
3.1039 11.8145 -0.6195 0.9523
-1.1432 11.4561 -0.5839 0.9549
-2.2020 11.5392 -0.5958 0.9540
-1.7432 6.1160 -0.3225 0.9749
-3.6095 5.9546 -0.3531 0.9725
-8.6149 11.7161 -0.7375 0.9434
-12.4704 11.8187 -0.8713 0.9335
-14.3348 11.3447 -0.9271 0.9294
-16.6911 10.9447 -1.0123 0.9232
-4.8377 -7.2250 -0.6375 0.9657
6.2207 -15.1325 -1.1996 0.9365
7.4319 -14.3062 -1.1821 0.9374
9.1510 -14.3332 -1.2469 0.9341
9.3305 11.0239 -1.0590 0.9437
7.7541 11.0170 -0.9878 0.9474
3.1045 11.8167 -0.8958 0.9522
-0.1191 11.4829 -0.8420 0.9550
-1.1433 11.4571 -0.8442 0.9549
-2.3359 6.0810 -0.4776 0.9742
-2.9630 6.0435 -0.4935 0.9734
-3.6098 5.9551 -0.5106 0.9725
-10.1589 11.5100 -1.1256 0.9403
-12.2002 11.5626 -1.2325 0.9348
-14.1363 11.1876 -1.3218 0.9302
-15.6446 -10.2017 -1.3694 0.9278
-5.1972 -7.0306 -0.6411 0.9655
-11.8635 -8.5485 -1.4038 0.9429
6.0706 -14.7674 -1.5329 0.9379
12.1601 -9.1716 -1.4623 0.9406
19.3377 -2.1678 -1.8681 0.9248
19.3835 -0.4370 -1.8614 0.9250
19.2861 1.2855 -1.8557 0.9253
19.0474 2.9889 -1.8510 0.9254
16.1772 7.2812 -1.7032 0.9312
15.4634 8.6908 -1.7030 0.9312
13.2706 10.9576 -1.6522 0.9332
7.7550 11.0181 -1.2935 0.9473
6.3917 11.0554 -1.2260 0.9500
0.9593 12.1607 -1.1711 0.9522
-2.1544 11.2898 -1.1034 0.9549
-1.7434 6.1169 -0.6106 0.9748
-2.3361 6.0815 -0.6254 0.9742
-12.2018 11.5642 -1.6140 0.9347
-14.7126 -11.5831 -1.7977 0.9275
-5.2007 -7.0353 -0.8399 0.9655
1.5123 -19.8117 -1.9076 0.9233
-14.6064 6.9611 -1.9220 0.9369
-15.2414 5.6612 -1.9313 0.9366
-17.4733 3.1337 -2.1087 0.9310
-17.8507 -1.6078 -2.1290 0.9303
-15.0796 -7.2139 -1.9857 0.9349
-10.1759 -6.0350 -1.4053 0.9535
-11.9372 -8.6016 -1.7477 0.9425
-9.9301 -8.5957 -1.5601 0.9485
-12.4773 -12.9138 -2.1330 0.9302
-6.9764 -8.6427 -1.3194 0.9562
-8.5520 -15.6201 -2.1153 0.9308
-5.6036 -16.7558 -2.0987 0.9313
-4.0720 -17.1101 -2.0892 0.9316
-2.5211 -17.3197 -2.0790 0.9319
-0.9650 -17.3848 -2.0683 0.9323
0.5825 -17.3073 -2.0570 0.9326
2.1082 -17.0899 -2.0454 0.9330
3.5995 -16.7370 -2.0336 0.9334
7.7520 -14.9223 -1.9975 0.9345
8.9951 -14.0890 -1.9856 0.9349
10.1531 -13.1550 -1.9739 0.9353
11.2184 -12.1294 -1.9626 0.9356
12.1020 -9.1277 -1.8006 0.9408
12.8002 -7.9736 -1.7914 0.9411
15.3698 -4.5836 -1.9052 0.9374
15.6571 -3.1858 -1.8979 0.9377
15.8725 -0.3578 -1.8859 0.9380
13.7568 4.7711 -1.7296 0.9430
13.2699 5.9727 -1.7286 0.9431
12.6846 7.1291 -1.7284 0.9431
11.2349 9.2766 -1.7307 0.9430
10.3794 10.2538 -1.7331 0.9429
9.3326 11.0265 -1.7160 0.9435
5.1549 11.0902 -1.4527 0.9519
2.0553 12.1317 -1.4616 0.9516
0.9594 12.1618 -1.4491 0.9520
-2.9635 6.0445 -0.7997 0.9732
-3.6104 5.9562 -0.8273 0.9723
-8.4300 11.4646 -1.6904 0.9443
-12.5180 9.9068 -1.8963 0.9377
-14.2288 7.6131 -1.9169 0.9371
-15.8040 5.1165 -1.9732 0.9353
-17.6226 2.3920 -2.1125 0.9309
-17.8820 -0.7744 -2.1261 0.9304
-17.7859 -2.3682 -2.1314 0.9303
-17.5385 -3.9490 -2.1355 0.9301
-16.6555 -5.3455 -2.0778 0.9320
-14.1432 -11.1348 -2.1382 0.9301
-13.0775 -12.3312 -2.1351 0.9302
-5.2241 -7.0671 -1.0439 0.9652
-9.2861 -15.2321 -2.1191 0.9307
-4.8755 -16.9430 -2.0943 0.9314
-3.3329 -17.2282 -2.0844 0.9318
-0.2241 -17.3654 -2.0629 0.9324
1.3145 -17.2207 -2.0515 0.9328
2.8253 -16.9380 -2.0398 0.9332
-13.5805 5.0443 -2.0527 0.9432
-14.5174 2.6036 -2.0898 0.9422
-12.4965 -5.9782 -1.9628 0.9456
-10.2700 -6.0907 -1.6918 0.9529
-10.3463 -10.7083 -2.1098 0.9416
-6.9749 -8.6409 -1.5734 0.9561
-4.8272 -7.2093 -1.2293 0.9656
-2.0996 -14.4240 -2.0653 0.9428
3.0087 -13.9899 -2.0275 0.9438
2.7653 -8.9102 -1.3219 0.9630
6.4986 -12.5095 -1.9974 0.9446
9.5103 -8.6021 -1.8170 0.9495
10.1917 -7.6869 -1.8087 0.9497
10.7884 -6.7204 -1.8009 0.9499
12.6302 -5.0289 -1.9262 0.9466
12.9817 -3.8714 -1.9194 0.9467
13.2321 -2.6923 -1.9133 0.9469
13.3725 0.8913 -1.8989 0.9473
12.9629 3.2375 -1.8931 0.9475
12.5676 4.3587 -1.8847 0.9477
11.2391 5.0587 -1.7463 0.9514
10.1672 6.9725 -1.7468 0.9514
6.0445 4.9909 -1.1107 0.9688
8.7875 8.6811 -1.7502 0.9513
7.9929 9.4436 -1.7530 0.9512
6.2195 10.7575 -1.7606 0.9510
5.1554 11.0913 -1.7330 0.9518
2.0555 12.1328 -1.7436 0.9515
-0.1165 11.2357 -1.5921 0.9556
-2.1548 11.2919 -1.6288 0.9546
-1.7437 6.1179 -0.9014 0.9746
-2.3364 6.0825 -0.9232 0.9740
-2.9637 6.0450 -0.9539 0.9732
-3.6107 5.9567 -0.9870 0.9723
-7.7777 10.5775 -1.8603 0.9483
-11.1929 7.3394 -1.8965 0.9474
-11.8537 6.3423 -1.9048 0.9471
-14.3555 3.2706 -2.0861 0.9423
-14.7502 -1.9640 -2.1084 0.9417
-14.5403 -3.2739 -2.1118 0.9416
-14.2076 -4.5599 -2.1142 0.9415
-12.2315 -6.5045 -1.9629 0.9456
-10.8740 -8.5610 -1.9609 0.9456
-10.8422 -10.2235 -2.1115 0.9416
-5.2616 -7.1178 -1.2541 0.9649
-5.3125 -13.7258 -2.0854 0.9423
-4.0554 -14.0931 -2.0779 0.9425
-2.7745 -14.3417 -2.0697 0.9427
1.0972 -14.3734 -2.0425 0.9434
2.3604 -14.1508 -2.0327 0.9437
-12.1228 3.3101 -2.0702 0.9503
-12.5868 1.1151 -2.0817 0.9501
-12.6379 -1.1383 -2.0904 0.9499
-12.5059 -2.2618 -2.0936 0.9498
-12.2694 -3.3695 -2.0961 0.9497
-9.5820 -6.9045 -1.9456 0.9532
-6.9944 -6.0545 -1.5240 0.9632
-8.1896 -8.4760 -1.9416 0.9533
-4.8243 -7.2049 -1.4284 0.9655
-3.9838 -11.9123 -2.0693 0.9504
-2.0753 -8.7203 -1.4767 0.9643
2.5821 -12.0066 -2.0232 0.9514
5.5891 -10.7588 -1.9973 0.9520
6.4962 -10.1749 -1.9887 0.9522
8.7946 -6.6332 -1.8147 0.9563
10.9170 -4.3467 -1.9358 0.9535
11.4477 -2.3293 -1.9245 0.9537
11.6251 -0.2621 -1.9156 0.9540
11.5809 0.7719 -1.9121 0.9540
11.4490 1.7966 -1.9092 0.9541
8.8100 6.0418 -1.7599 0.9576
6.0244 4.9744 -1.2870 0.9688
7.6124 7.5203 -1.7628 0.9575
6.9226 8.1791 -1.7653 0.9575
6.1781 8.7777 -1.7683 0.9574
3.6663 10.1696 -1.7809 0.9571
1.8169 10.7243 -1.7919 0.9569
-0.1136 10.9542 -1.8047 0.9566
-1.0920 10.9427 -1.8116 0.9564
-2.3366 6.0829 -1.0735 0.9739
-6.6816 9.0867 -1.8581 0.9553
-7.4956 8.4924 -1.8660 0.9551
-8.2561 7.8247 -1.8739 0.9549
-10.1488 5.4301 -1.8962 0.9544
-11.9361 3.8643 -2.0668 0.9504
-12.2701 2.7955 -2.0732 0.9503
-12.5047 1.6973 -2.0789 0.9501
-12.6370 0.5794 -2.0840 0.9500
-12.4059 -2.7933 -2.0949 0.9498
-12.1200 -3.8899 -2.0970 0.9497
-7.7477 -6.0996 -1.6244 0.9608
-5.3942 -6.0805 -1.3391 0.9676
-4.5410 -11.7325 -2.0725 0.9503
-1.2682 -12.3903 -2.0518 0.9508
-0.1142 -8.8468 -1.4575 0.9648
2.0251 -12.1403 -2.0276 0.9513
-9.8252 4.6825 -2.0458 0.9567
-10.8195 1.9404 -2.0661 0.9562
-11.0389 -0.0081 -2.0749 0.9561
-11.0128 -0.9919 -2.0784 0.9560
-10.6879 -2.9352 -2.0833 0.9559
-10.3913 -3.8771 -2.0847 0.9559
-8.3462 -6.0140 -1.9336 0.9590
-6.9932 -6.0534 -1.7385 0.9631
-7.1352 -7.3848 -1.9301 0.9591
-5.4507 -6.7527 -1.6311 0.9653
-4.4934 -6.7108 -1.5180 0.9677
-3.7919 -8.6810 -1.7806 0.9622
-2.0750 -8.7190 -1.6846 0.9642
-1.5695 -10.7822 -2.0480 0.9566
-0.4867 -8.7674 -1.6505 0.9649
0.3641 -10.8176 -2.0344 0.9569
1.3205 -10.7044 -2.0273 0.9571
3.7617 -9.1508 -1.8596 0.9605
4.5437 -8.7466 -1.8526 0.9607
5.9771 -7.7443 -1.8387 0.9610
7.9043 -5.9617 -1.8609 0.9605
8.8276 -5.4990 -1.9548 0.9586
9.8801 -2.9465 -1.9379 0.9589
10.1986 -1.1433 -1.9289 0.9591
10.0892 1.5832 -1.9196 0.9593
9.6323 3.3406 -1.9163 0.9594
6.0043 4.9578 -1.4636 0.9688
6.7087 6.6275 -1.7725 0.9623
6.0998 7.2069 -1.7747 0.9623
5.4426 7.7328 -1.7774 0.9622
4.0013 8.6085 -1.7843 0.9621
3.2271 8.9514 -1.7885 0.9620
0.7547 9.5665 -1.8037 0.9617
-1.8170 9.5220 -1.8221 0.9613
-2.9642 6.0460 -1.2656 0.9730
-3.6273 5.9841 -1.3153 0.9719
-5.8508 7.9569 -1.8564 0.9606
-10.0458 4.2733 -2.0519 0.9565
-10.4164 3.3723 -2.0579 0.9564
-10.9044 1.4801 -2.0684 0.9562
-11.0164 0.5051 -2.0728 0.9561
-10.8076 -2.4335 -2.0823 0.9559
-10.2191 -4.3164 -2.0851 0.9559
-9.7960 -5.2094 -2.0854 0.9558
-8.6190 -5.6204 -1.9341 0.9590
-8.0804 -6.3616 -1.9330 0.9590
-7.4756 -7.0490 -1.9313 0.9590
-5.3936 -6.0798 -1.5276 0.9675
-4.9670 -6.7192 -1.5706 0.9666
-3.7333 -6.1238 -1.3481 0.9712
-4.8682 -9.8661 -2.0679 0.9562
-2.0728 -10.7147 -2.0513 0.9566
-1.1078 -10.8227 -2.0449 0.9567
-0.1399 -10.8423 -2.0381 0.9568
-8.7250 4.1582 -2.0430 0.9613
-9.3719 2.5590 -2.0536 0.9611
-9.6433 -1.7441 -2.0715 0.9607
-9.4584 -2.5975 -2.0733 0.9607
-8.8560 -4.2366 -2.0752 0.9607
-6.8783 -5.9540 -1.9230 0.9635
-4.4930 -6.7101 -1.7070 0.9675
-4.2803 -7.8178 -1.8840 0.9642
-3.6142 -8.2740 -1.9085 0.9638
-2.0679 -8.6891 -1.8880 0.9641
-1.2909 -8.8682 -1.8943 0.9640
1.8613 -8.6546 -1.8712 0.9645
2.6153 -8.4267 -1.8651 0.9646
3.3435 -8.1333 -1.8588 0.9647
4.0309 -7.7593 -1.8483 0.9649
4.7004 -7.3622 -1.8464 0.9649
5.8920 -6.3705 -1.8342 0.9651
6.5546 -5.9287 -1.8682 0.9645
8.2499 -4.1701 -1.9540 0.9629
8.9936 -1.8299 -1.9400 0.9632
9.1030 -1.0205 -1.9362 0.9632
9.1420 -0.2061 -1.9329 0.9633
8.6035 2.9839 -1.9249 0.9635
8.3011 3.7363 -1.9242 0.9635
7.9094 4.4453 -1.9178 0.9636
6.9364 4.7569 -1.7779 0.9662
5.9914 5.9189 -1.7802 0.9662
4.8592 6.9039 -1.7846 0.9661
4.2325 7.3207 -1.7875 0.9660
1.4250 8.4111 -1.8033 0.9657
0.6727 8.5275 -1.8081 0.9656
-0.8544 8.5620 -1.8188 0.9654
-1.6545 5.8048 -1.2759 0.9756
-3.3211 5.4789 -1.3543 0.9741
-5.1989 7.0704 -1.8551 0.9648
-6.4119 6.0769 -1.8673 0.9645
-8.9055 3.7883 -2.0457 0.9612
-9.2310 2.9885 -2.0510 0.9611
-9.4827 2.1605 -2.0558 0.9610
-9.7547 0.4472 -2.0641 0.9609
-9.7717 -0.4232 -2.0675 0.9608
-9.5649 -2.1536 -2.0724 0.9607
-9.3424 -2.9984 -2.0740 0.9607
-9.0426 -3.8195 -2.0749 0.9607
-8.6681 -4.6096 -2.0752 0.9607
-7.1506 -5.6296 -1.9237 0.9635
-4.9759 -6.7312 -1.7694 0.9664
-3.7329 -6.1232 -1.5159 0.9711
-3.9997 -8.1058 -1.9106 0.9637
-3.2555 -8.4113 -1.9065 0.9638
-2.4882 -8.6469 -1.9020 0.9639
-1.7046 -8.8111 -1.8970 0.9640
-7.8291 3.7312 -2.0383 0.9650
-8.7598 -0.0064 -2.0588 0.9646
-8.6407 -1.5627 -2.0637 0.9646
-7.9338 -3.7954 -2.0670 0.9645
-7.1332 -5.1399 -2.0663 0.9645
-5.6588 -5.8567 -1.9140 0.9671
-3.8951 -7.1142 -1.9062 0.9672
-3.2407 -7.4190 -1.9027 0.9673
-1.1584 -7.9579 -1.8900 0.9675
-0.4445 -8.0087 -1.8851 0.9676
1.9721 -6.3544 -1.5637 0.9730
3.0060 -7.3125 -1.8582 0.9680
3.6337 -6.9948 -1.8525 0.9681
4.7872 -6.2026 -1.8414 0.9683
6.2282 -5.6334 -1.9737 0.9661
6.6863 -5.0430 -1.9683 0.9662
7.0897 -4.4164 -1.9631 0.9663
7.4360 -3.7587 -1.9582 0.9663
7.7229 -3.0750 -1.9536 0.9664
8.1121 -1.6506 -1.9456 0.9666
8.2489 -0.1860 -1.9392 0.9667
8.2220 0.5480 -1.9366 0.9667
8.1319 1.2760 -1.9346 0.9667
7.9795 1.9929 -1.9330 0.9668
7.7662 2.6935 -1.9319 0.9668
7.1632 4.0259 -1.9312 0.9668
5.8573 4.8363 -1.7852 0.9693
5.4076 5.3422 -1.7865 0.9692
4.3847 6.2298 -1.7904 0.9692
2.5967 7.2028 -1.7995 0.9690
1.2845 7.5820 -1.8073 0.9689
-1.4567 7.6339 -1.8265 0.9686
-1.5904 5.5799 -1.3636 0.9764
-3.6279 5.9851 -1.6449 0.9717
-8.2798 2.6806 -2.0454 0.9649
-8.5035 1.9374 -2.0497 0.9648
-8.6587 1.1753 -2.0537 0.9647
-8.7437 0.4009 -2.0571 0.9647
-8.6995 -1.1583 -2.0626 0.9646
-7.7654 -4.1295 -2.0671 0.9645
-4.8327 -6.5375 -1.9107 0.9671
-3.5859 -7.2673 -1.9046 0.9672
-2.9194 -7.5429 -1.9009 0.9673
-2.2319 -7.7561 -1.8968 0.9674
-1.5294 -7.9055 -1.8924 0.9675
-0.0813 -6.3015 -1.4811 0.9744
0.6081 -7.9655 -1.8775 0.9677
-7.3816 2.7418 -2.0388 0.9680
-7.6115 2.0783 -2.0429 0.9679
-7.8866 0.6987 -2.0500 0.9678
-7.9287 -0.0058 -2.0529 0.9678
-7.9062 -0.7121 -2.0554 0.9677
-7.8191 -1.4141 -2.0573 0.9677
-7.4537 -2.7810 -2.0598 0.9677
-7.1783 -3.4340 -2.0603 0.9677
-6.8442 -4.0590 -2.0603 0.9677
-5.4289 -5.6188 -2.0229 0.9682
-4.0911 -6.1099 -1.9039 0.9701
-3.5261 -6.4404 -1.9011 0.9701
-2.0643 -6.1727 -1.6852 0.9735
-1.6905 -7.1035 -1.8906 0.9703
-1.0495 -7.2099 -1.8864 0.9703
0.2439 -7.2470 -1.8774 0.9705
2.1324 -6.8708 -1.8627 0.9707
2.7278 -6.6357 -1.8576 0.9708
3.8465 -6.0247 -1.8507 0.9709
5.1950 -5.6168 -1.9810 0.9689
6.4455 -4.0151 -1.9662 0.9691
6.7618 -3.4179 -1.9617 0.9692
7.4733 -0.8378 -1.9471 0.9694
7.5076 -0.1693 -1.9444 0.9694
7.4840 0.4988 -1.9420 0.9695
7.2646 1.8143 -1.9387 0.9695
6.8225 3.0708 -1.9372 0.9696
5.5484 4.5813 -1.8630 0.9707
4.4746 5.2868 -1.7933 0.9718
3.4752 6.0108 -1.7977 0.9717
2.9310 6.3058 -1.8004 0.9717
2.3624 6.5529 -1.8035 0.9716
1.7733 6.7499 -1.8070 0.9716
0.5512 6.9872 -1.8147 0.9715
-0.0728 7.0250 -1.8190 0.9714
-0.6993 7.0079 -1.8235 0.9713
-1.3235 6.9357 -1.8282 0.9712
-2.5454 6.6266 -1.8380 0.9711
-3.1335 6.3913 -1.8430 0.9710
-4.2400 5.7662 -1.8531 0.9709
-4.7491 5.3807 -1.8582 0.9708
-5.2229 4.9499 -1.8631 0.9707
-6.1020 4.8292 -2.0148 0.9684
-6.5472 4.2932 -2.0271 0.9682
-6.9197 3.7024 -2.0320 0.9681
-7.8390 1.0640 -2.0483 0.9678
-7.9261 -0.3432 -2.0541 0.9678
-7.0259 -3.7363 -2.0604 0.9677
-6.6647 -4.3460 -2.0601 0.9677
-5.7829 -5.4529 -2.0580 0.9677
-5.0053 -5.6420 -1.9528 0.9693
-3.7170 -6.0971 -1.8489 0.9709
-3.2465 -6.5794 -1.8996 0.9701
-2.6436 -6.8302 -1.8963 0.9702
-0.7411 -7.2401 -1.8844 0.9704
-0.0937 -7.2599 -1.8799 0.9704
-6.4768 3.0868 -2.0311 0.9706
-6.9478 1.8971 -2.0389 0.9705
-7.1009 1.2735 -2.0423 0.9705
-7.1967 0.6376 -2.0453 0.9704
-7.2343 -0.0053 -2.0480 0.9704
-6.7988 -2.5367 -2.0543 0.9703
-6.5475 -3.1323 -2.0547 0.9703
-5.0361 -5.2123 -2.0518 0.9703
-3.7992 -5.6740 -1.9331 0.9720
-3.2178 -5.8771 -1.8968 0.9725
-2.6780 -6.1308 -1.8939 0.9726
-1.5434 -6.4854 -1.8872 0.9727
-0.9583 -6.5838 -1.8835 0.9727
1.9493 -6.2811 -1.8618 0.9730
3.0374 -5.8469 -1.8652 0.9730
3.7315 -5.8447 -1.9631 0.9716
4.2888 -5.5568 -1.9871 0.9712
5.1808 -4.6861 -1.9776 0.9714
5.9028 -3.6770 -1.9687 0.9715
6.1937 -3.1307 -1.9647 0.9716
6.6256 -1.9759 -1.9573 0.9717
6.7641 -1.3763 -1.9541 0.9717
6.8496 -0.7679 -1.9512 0.9718
6.8819 -0.1552 -1.9487 0.9718
6.7870 1.0650 -1.9449 0.9718
6.6607 1.6635 -1.9435 0.9719
6.4833 2.2485 -1.9426 0.9719
6.2559 2.8157 -1.9421 0.9719
5.2822 4.3616 -1.9392 0.9719
4.1022 4.8468 -1.7976 0.9739
3.6584 5.1979 -1.7994 0.9739
3.1853 5.5095 -1.8016 0.9739
1.6247 6.1842 -1.8101 0.9738
1.0701 6.3162 -1.8136 0.9737
0.5048 6.3994 -1.8172 0.9737
-0.0667 6.4327 -1.8212 0.9736
-1.2114 6.3482 -1.8296 0.9735
-1.7757 6.2303 -1.8340 0.9734
-2.3288 6.0626 -1.8385 0.9734
-2.8661 5.8459 -1.8431 0.9733
-5.1018 4.8352 -1.9899 0.9712
-5.5934 4.4267 -2.0194 0.9708
-6.3193 3.3811 -2.0289 0.9706
-6.6086 2.8112 -2.0331 0.9706
-6.8456 2.2163 -2.0370 0.9705
-7.2220 0.3311 -2.0466 0.9704
-7.2315 -0.3132 -2.0491 0.9704
-6.9081 -2.2171 -2.0539 0.9703
-6.6857 -2.8239 -2.0546 0.9703
-6.4085 -3.4080 -2.0548 0.9703
-6.0791 -3.9642 -2.0545 0.9703
-5.2753 -4.9742 -2.0526 0.9703
-4.8079 -5.4195 -2.0509 0.9703
-4.1797 -5.6542 -1.9905 0.9712
-3.4903 -5.7251 -1.8982 0.9725
-2.4129 -6.2343 -1.8925 0.9726
-1.8454 -6.4129 -1.8891 0.9726
-0.6768 -6.6120 -1.8816 0.9727
-0.0856 -6.6315 -1.8775 0.9728
0.5036 -6.5977 -1.8732 0.9729
-6.1932 2.3004 -2.0320 0.9727
-6.6448 -0.0049 -2.0438 0.9726
-6.2433 -2.3294 -2.0496 0.9725
-6.0124 -2.8763 -2.0500 0.9725
-5.7326 -3.3998 -2.0500 0.9725
-4.1773 -5.1750 -2.0456 0.9726
-3.6964 -5.5205 -2.0435 0.9726
-3.1093 -5.6791 -1.9914 0.9733
-2.4932 -5.7078 -1.9158 0.9743
-1.9464 -5.8202 -1.8876 0.9746
-0.8809 -6.0516 -1.8809 0.9747
-0.3383 -6.0940 -1.8773 0.9748
0.2049 -6.0874 -1.8734 0.9748
1.2750 -5.9287 -1.8652 0.9749
1.8052 -5.8166 -1.8732 0.9748
2.3919 -5.8186 -1.9350 0.9740
2.9932 -5.7618 -1.9971 0.9732
5.1263 -3.8664 -1.9749 0.9735
5.4390 -3.3881 -1.9709 0.9735
5.7079 -2.8852 -1.9672 0.9736
6.1078 -1.8215 -1.9604 0.9737
6.2362 -1.2689 -1.9574 0.9737
6.3158 -0.7080 -1.9548 0.9738
6.3463 -0.1431 -1.9525 0.9738
6.1436 1.5344 -1.9477 0.9738
5.7704 2.5972 -1.9464 0.9739
5.2194 3.5794 -1.9466 0.9739
4.8820 4.0310 -1.9473 0.9739
4.4951 4.4407 -1.9435 0.9739
1.9957 5.5356 -1.8099 0.9757
1.4976 5.7004 -1.8128 0.9756
0.4652 5.8969 -1.8194 0.9755
-1.1157 5.8467 -1.8308 0.9754
-2.1440 5.5814 -1.8390 0.9753
-3.1136 5.1367 -1.8475 0.9752
-4.2504 4.8157 -1.9756 0.9735
-6.4572 1.4711 -2.0370 0.9727
-6.5721 0.8921 -2.0400 0.9726
-6.6420 -0.2876 -2.0448 0.9726
-6.5960 -0.8783 -2.0467 0.9725
-6.3437 -2.0360 -2.0492 0.9725
-6.1393 -2.5932 -2.0499 0.9725
-5.8848 -3.1294 -2.0500 0.9725
-5.5823 -3.6402 -2.0498 0.9725
-4.4156 -4.9773 -2.0465 0.9725
-3.9515 -5.3455 -2.0446 0.9726
-2.2170 -5.7281 -1.8892 0.9746
-0.6221 -6.0779 -1.8792 0.9748
0.4631 -6.0670 -1.8715 0.9749
0.9989 -5.9886 -1.8674 0.9749
-5.5020 2.6221 -2.0260 0.9746
-5.7231 2.1258 -2.0294 0.9746
-5.8987 1.6106 -2.0325 0.9746
-6.0271 1.0809 -2.0354 0.9745
-6.1377 -0.0045 -2.0402 0.9745
-5.7656 -2.1512 -2.0456 0.9744
-5.5523 -2.6562 -2.0459 0.9744
-5.2939 -3.1396 -2.0459 0.9744
-4.9925 -3.5974 -2.0455 0.9744
-4.6507 -4.0257 -2.0447 0.9744
-3.8582 -4.7798 -2.0419 0.9744
-2.9438 -5.3768 -2.0376 0.9745
-1.9081 -5.7056 -1.9998 0.9750
-1.3629 -5.7266 -1.9567 0.9755
-0.8361 -5.7441 -1.9295 0.9758
0.1942 -5.7701 -1.9191 0.9760
1.2443 -5.7856 -1.9672 0.9754
3.6551 -4.7359 -1.9886 0.9751
4.4185 -3.9966 -1.9804 0.9752
5.2875 -2.6727 -1.9694 0.9753
5.6593 -1.6877 -1.9631 0.9754
5.8533 -0.6562 -1.9579 0.9755
5.8820 -0.1326 -1.9557 0.9755
5.8650 0.3909 -1.9539 0.9755
5.8025 0.9105 -1.9524 0.9755
5.5438 1.9227 -1.9505 0.9756
5.3495 2.4078 -1.9500 0.9756
4.8386 3.3183 -1.9503 0.9756
4.5257 3.7369 -1.9509 0.9756
3.7863 4.4735 -1.9481 0.9756
2.7222 4.7084 -1.8079 0.9773
2.2952 4.9379 -1.8100 0.9773
0.4309 5.4620 -1.8213 0.9772
-0.5461 5.4725 -1.8281 0.9771
-1.0329 5.4130 -1.8318 0.9770
-4.7568 3.7646 -2.0164 0.9748
-5.0827 3.3328 -2.0204 0.9747
-5.6131 2.3877 -2.0276 0.9746
-5.8127 1.8819 -2.0309 0.9746
-6.0714 0.8241 -2.0367 0.9745
-6.0920 -0.8112 -2.0429 0.9744
-5.8584 -1.8803 -2.0452 0.9744
-5.4344 -2.8899 -2.0460 0.9744
-4.0782 -4.5970 -2.0427 0.9744
-3.1928 -5.2371 -2.0388 0.9745
-1.6449 -5.7161 -1.9772 0.9752
-0.5887 -5.7513 -1.9218 0.9759
-0.0744 -5.7644 -1.9163 0.9760
0.4408 -5.7748 -1.9252 0.9759
0.9646 -5.7826 -1.9487 0.9756
-5.3136 1.9737 -2.0270 0.9762
-5.4761 1.4952 -2.0300 0.9762
-5.5947 1.0034 -2.0326 0.9761
-5.6685 0.5022 -2.0350 0.9761
-5.6784 -0.5115 -2.0389 0.9761
-5.6143 -1.0154 -2.0403 0.9761
-5.1521 -2.4647 -2.0424 0.9760
-4.9123 -2.9133 -2.0424 0.9760
-3.9640 -4.1027 -2.0401 0.9761
-2.7324 -4.9907 -2.0347 0.9761
-1.8000 -5.3823 -2.0295 0.9762
-0.8150 -5.5991 -2.0234 0.9763
0.1897 -5.6354 -2.0164 0.9763
2.1275 -5.1753 -2.0010 0.9765
2.9992 -4.6976 -1.9931 0.9766
4.6866 -2.9194 -1.9745 0.9768
4.9196 -2.4867 -1.9713 0.9769
5.1134 -2.0360 -1.9682 0.9769
5.3786 -1.0944 -1.9628 0.9770
5.4483 -0.6108 -1.9606 0.9770
5.4754 -0.1234 -1.9586 0.9770
5.3023 1.3243 -1.9544 0.9771
5.1615 1.7901 -1.9537 0.9771
4.9808 2.2418 -1.9533 0.9771
3.5340 4.1754 -1.9562 0.9770
1.7210 4.7738 -1.8147 0.9787
1.2912 4.9148 -1.8172 0.9786
-1.8448 4.8026 -1.8398 0.9784
-2.3431 4.7792 -1.9034 0.9776
-3.3142 4.5072 -2.0006 0.9765
-4.0822 3.8689 -2.0113 0.9764
-4.9858 2.6677 -2.0221 0.9763
-5.6356 0.7650 -2.0338 0.9761
-5.6876 0.2608 -2.0361 0.9761
-5.4363 -1.7448 -2.0417 0.9760
-4.7836 -3.1194 -2.0422 0.9760
-4.4858 -3.5316 -2.0417 0.9760
-4.1519 -3.9150 -2.0407 0.9760
-3.3874 -4.5823 -2.0378 0.9761
-2.9634 -4.8608 -2.0358 0.9761
-2.5163 -5.0995 -2.0336 0.9761
-1.5684 -5.4503 -2.0282 0.9762
-1.0756 -5.5598 -2.0251 0.9762
-0.5757 -5.6243 -2.0218 0.9763
-0.0728 -5.6434 -2.0183 0.9763
-5.1044 1.3938 -2.0277 0.9776
-5.2146 0.9352 -2.0302 0.9776
-2.3041 0.2041 -0.8864 0.9901
-5.2315 -0.9461 -2.0373 0.9775
-4.9850 -1.8599 -2.0390 0.9775
-4.3166 -3.1104 -2.0389 0.9775
-3.6937 -3.8229 -2.0371 0.9775
-3.3367 -4.1336 -2.0358 0.9775
-2.9532 -4.4105 -2.0341 0.9775
-2.5466 -4.6512 -2.0321 0.9775
-2.1203 -4.8540 -2.0298 0.9776
-1.2231 -5.1395 -2.0246 0.9776
-0.7598 -5.2203 -2.0216 0.9777
-0.2919 -5.2589 -2.0184 0.9777
0.1769 -5.2554 -2.0151 0.9777
0.6427 -5.2098 -2.0116 0.9778
1.1017 -5.1229 -2.0081 0.9778
1.5504 -4.9954 -2.0044 0.9778
1.9850 -4.8288 -2.0007 0.9779
2.4023 -4.6244 -1.9970 0.9779
2.7991 -4.3842 -1.9933 0.9780
3.8368 -3.4704 -1.9826 0.9781
4.5948 -2.3225 -1.9730 0.9782
4.7763 -1.9017 -1.9701 0.9782
4.9200 -1.4672 -1.9675 0.9782
5.0249 -1.0224 -1.9651 0.9783
5.0904 -0.5706 -1.9629 0.9783
4.6547 2.0950 -1.9561 0.9784
4.4497 2.5008 -1.9560 0.9784
4.2101 2.8872 -1.9563 0.9784
3.3025 3.9019 -1.9590 0.9783
2.9444 4.1834 -1.9604 0.9783
2.5578 4.4241 -1.9584 0.9783
1.6852 4.6743 -1.9041 0.9789
1.2332 4.6941 -1.8599 0.9794
0.3744 4.7458 -1.8243 0.9798
-0.0494 4.7679 -1.8272 0.9798
-0.4743 4.7525 -1.8303 0.9797
-0.9066 4.7509 -1.8535 0.9795
-1.3553 4.7551 -1.8948 0.9790
-1.8272 4.7568 -1.9528 0.9784
-2.2857 4.6620 -1.9897 0.9780
-3.0964 4.2110 -2.0030 0.9779
-3.4651 3.9260 -2.0067 0.9778
-3.8075 3.6086 -2.0103 0.9778
-4.1207 3.2612 -2.0138 0.9777
-4.6487 2.4873 -2.0204 0.9777
-4.8589 2.0669 -2.0235 0.9776
-5.1622 1.1761 -2.0289 0.9776
-2.3138 0.3141 -0.8948 0.9900
-5.1878 -1.1681 -2.0378 0.9775
-5.0654 -1.6257 -2.0387 0.9775
-2.3452 -4.7529 -2.0311 0.9776
-0.5368 -5.2440 -2.0201 0.9777
-0.0679 -5.2625 -2.0168 0.9777
-4.6340 1.7212 -2.0232 0.9789
-2.0566 0.3688 -0.8552 0.9910
-2.0155 -0.1815 -0.8282 0.9913
-2.0582 -0.3722 -0.8560 0.9910
-4.4887 -2.1474 -2.0365 0.9787
-4.2798 -2.5382 -2.0365 0.9787
-4.0363 -2.9084 -2.0362 0.9787
-2.7619 -4.1248 -2.0317 0.9788
-1.5695 -4.6931 -2.0253 0.9788
-1.1443 -4.8080 -2.0228 0.9789
-0.7109 -4.8841 -2.0200 0.9789
0.1655 -4.9179 -2.0139 0.9790
0.6015 -4.8758 -2.0107 0.9790
1.0312 -4.7950 -2.0073 0.9790
2.2494 -4.3299 -1.9970 0.9791
2.6212 -4.1055 -1.9935 0.9792
2.9709 -3.8494 -1.9901 0.9792
3.2961 -3.5637 -1.9867 0.9792
3.8630 -2.9136 -1.9803 0.9793
4.1007 -2.5544 -1.9773 0.9793
4.3055 -2.1763 -1.9745 0.9794
4.4760 -1.7822 -1.9718 0.9794
4.6110 -1.3751 -1.9693 0.9794
4.7097 -0.9583 -1.9671 0.9794
4.7958 -0.1081 -1.9633 0.9795
4.5223 1.5684 -1.9590 0.9795
4.3640 1.9642 -1.9587 0.9795
4.1718 2.3447 -1.9586 0.9795
3.0960 3.6579 -1.9613 0.9795
2.7602 3.9216 -1.9627 0.9795
2.4023 4.1552 -1.9644 0.9795
0.3711 4.7036 -1.9310 0.9798
-0.0489 4.7148 -1.9297 0.9798
-0.9025 4.7295 -1.9706 0.9794
-1.7420 4.5350 -1.9883 0.9792
-2.1454 4.3758 -1.9946 0.9792
-3.2435 3.6749 -2.0061 0.9790
-3.5636 3.3774 -2.0094 0.9790
-4.1190 2.7009 -2.0159 0.9789
-4.7059 1.5235 -2.0244 0.9788
-2.0206 0.2743 -0.8346 0.9912
-2.0031 0.0918 -0.8207 0.9914
-2.0206 -0.2690 -0.8343 0.9912
-2.0910 -0.4708 -0.8772 0.9908
-4.7365 -1.5202 -2.0359 0.9787
-4.5835 -1.9360 -2.0364 0.9787
-4.3934 -2.3364 -2.0366 0.9787
-4.1677 -2.7178 -2.0364 0.9787
-3.9084 -3.0771 -2.0359 0.9787
-3.2980 -3.7176 -2.0339 0.9788
-2.9521 -3.9935 -2.0325 0.9788
-2.5829 -4.2367 -2.0308 0.9788
-0.9381 -4.8492 -2.0215 0.9789
-0.5022 -4.9065 -2.0186 0.9789
-0.0636 -4.9243 -2.0156 0.9789
0.3742 -4.9027 -2.0124 0.9790
-1.5027 0.5581 -0.6986 0.9930
-1.4704 0.2637 -0.6511 0.9935
-1.4670 -0.1321 -0.6419 0.9936
-1.5072 -0.5623 -0.7011 0.9930
-4.0143 -2.3807 -2.0340 0.9798
-3.2400 -3.3534 -2.0322 0.9799
-2.9271 -3.6262 -2.0310 0.9799
-2.2345 -4.0812 -2.0278 0.9799
-1.8606 -4.2596 -2.0258 0.9799
-1.4726 -4.4035 -2.0236 0.9799
-1.0737 -4.5117 -2.0212 0.9800
-0.2563 -4.6182 -2.0158 0.9800
0.1554 -4.6160 -2.0129 0.9800
2.7906 -3.6157 -1.9905 0.9803
3.0963 -3.3477 -1.9874 0.9803
3.6296 -2.7376 -1.9813 0.9804
3.8533 -2.4003 -1.9785 0.9804
4.0460 -2.0452 -1.9758 0.9804
4.2066 -1.6749 -1.9733 0.9804
4.3339 -1.2925 -1.9710 0.9805
4.4269 -0.9007 -1.9689 0.9805
4.5083 -0.1016 -1.9653 0.9805
4.4963 0.2997 -1.9639 0.9805
4.4492 0.6982 -1.9628 0.9805
3.9223 2.2044 -1.9609 0.9806
3.2033 3.1645 -1.9624 0.9805
1.9035 4.0952 -1.9681 0.9805
1.5327 4.2515 -1.9696 0.9805
1.1486 4.3719 -1.9700 0.9805
-0.4509 4.5183 -1.9789 0.9804
-0.8529 4.4694 -1.9830 0.9803
-1.2501 4.3861 -1.9877 0.9803
-1.6394 4.2679 -1.9925 0.9802
-2.0159 4.1118 -1.9958 0.9802
-3.0451 3.4501 -2.0055 0.9801
-3.6196 2.8646 -2.0117 0.9801
-3.8659 2.5349 -2.0147 0.9800
-1.4934 0.4835 -0.6841 0.9932
-1.4735 0.2000 -0.6481 0.9935
-1.4503 0.0665 -0.6327 0.9937
-1.4491 -0.0628 -0.6321 0.9937
-1.4734 -0.1962 -0.6478 0.9935
-1.4936 -0.4794 -0.6836 0.9932
-4.2992 -1.8159 -2.0340 0.9798
-3.9092 -2.5492 -2.0339 0.9798
-3.6660 -2.8862 -2.0335 0.9798
-2.7693 -3.7462 -2.0303 0.9799
-2.4231 -3.9746 -2.0287 0.9799
-2.0579 -4.1706 -2.0269 0.9799
-0.8803 -4.5505 -2.0199 0.9800
-0.0597 -4.6218 -2.0144 0.9800
0.3513 -4.6019 -2.0114 0.9801
-1.2601 0.4680 -0.6222 0.9941
-1.2707 0.3470 -0.6097 0.9942
-1.2584 -0.0009 -0.5825 0.9945
-1.2735 -0.1147 -0.5919 0.9944
-1.2719 -0.2300 -0.5983 0.9943
-1.2707 -0.3490 -0.6099 0.9942
-1.2597 -0.4700 -0.6224 0.9941
-3.7755 -2.2391 -2.0318 0.9808
-3.0474 -3.1540 -2.0301 0.9809
-2.7532 -3.4108 -2.0290 0.9809
-2.1019 -3.8390 -2.0259 0.9809
-1.7504 -4.0071 -2.0241 0.9809
-1.3854 -4.1427 -2.0220 0.9809
-1.0102 -4.2448 -2.0197 0.9810
0.1462 -4.3440 -2.0119 0.9810
0.5314 -4.3077 -2.0091 0.9811
1.6428 -3.9963 -2.0000 0.9811
1.9888 -3.8284 -1.9970 0.9812
2.9160 -3.1528 -1.9879 0.9812
3.4189 -2.5786 -1.9822 0.9813
3.9634 -1.5781 -1.9747 0.9814
4.0835 -1.2178 -1.9725 0.9814
4.1715 -0.8488 -1.9705 0.9814
4.0073 1.3898 -1.9633 0.9815
3.8671 1.7406 -1.9630 0.9815
3.6968 2.0777 -1.9629 0.9815
3.0190 2.9825 -1.9644 0.9815
2.1281 3.6809 -1.9681 0.9814
0.3361 4.2608 -1.9784 0.9813
-0.0444 4.2791 -1.9808 0.9813
-0.4256 4.2649 -1.9840 0.9813
-0.8046 4.2162 -1.9868 0.9813
-1.1782 4.1340 -1.9898 0.9812
-1.8981 3.8715 -1.9958 0.9812
-2.5621 3.4844 -2.0020 0.9811
-3.4065 2.6959 -2.0109 0.9810
-3.6379 2.3854 -2.0137 0.9810
-1.2460 0.5300 -0.6268 0.9940
-1.2678 0.4104 -0.6168 0.9941
-1.2687 0.2890 -0.6023 0.9943
-1.2675 0.0581 -0.5873 0.9944
-1.2671 -0.0549 -0.5871 0.9944
-3.6766 -2.3975 -2.0317 0.9808
-3.4480 -2.7145 -2.0313 0.9808
-2.9098 -3.2799 -2.0296 0.9809
-1.9359 -3.9233 -2.0251 0.9809
-1.5776 -4.0760 -2.0231 0.9809
-0.0561 -4.3493 -2.0134 0.9810
0.3306 -4.3310 -2.0106 0.9810
-1.0901 0.5195 -0.5923 0.9946
-1.1201 0.4160 -0.5861 0.9947
-1.1326 0.3093 -0.5759 0.9948
-1.1408 0.2046 -0.5685 0.9948
-1.1441 0.1014 -0.5634 0.9949
-1.1338 -0.0008 -0.5561 0.9950
-1.1197 -0.4178 -0.5862 0.9947
-1.0895 -0.5212 -0.5924 0.9946
-3.3568 -2.4188 -2.0295 0.9817
-3.1274 -2.7072 -2.0290 0.9817
-2.8730 -2.9735 -2.0282 0.9817
-2.2978 -3.4316 -2.0258 0.9818
-1.9818 -3.6197 -2.0243 0.9818
-1.6505 -3.7784 -2.0225 0.9818
-0.9527 -4.0030 -2.0184 0.9818
-0.5920 -4.0673 -2.0161 0.9819
0.1379 -4.0975 -2.0111 0.9819
0.5013 -4.0635 -2.0084 0.9819
0.8597 -3.9973 -2.0056 0.9819
1.2102 -3.8994 -2.0027 0.9820
1.5501 -3.7708 -1.9999 0.9820
1.8768 -3.6127 -1.9970 0.9820
2.1876 -3.4264 -1.9941 0.9821
2.4802 -3.2136 -1.9912 0.9821
2.7524 -2.9759 -1.9884 0.9821
3.9393 -0.8015 -1.9719 0.9822
4.0126 -0.0905 -1.9688 0.9823
4.0022 0.2668 -1.9675 0.9823
3.9605 0.6215 -1.9665 0.9823
3.8879 0.9710 -1.9657 0.9823
3.6527 1.6441 -1.9649 0.9823
3.3037 2.2657 -1.9650 0.9823
3.0898 2.5512 -1.9655 0.9823
1.6939 3.6443 -1.9713 0.9823
1.3642 3.7840 -1.9731 0.9822
0.6733 3.9743 -1.9773 0.9822
-0.0419 4.0405 -1.9821 0.9822
-0.7594 3.9797 -1.9874 0.9821
-1.4569 3.7928 -1.9930 0.9821
-1.7912 3.6534 -1.9959 0.9820
-2.1122 3.4846 -1.9988 0.9820
-2.7042 3.0638 -2.0045 0.9820
-1.1030 0.5902 -0.6136 0.9944
-1.1283 0.3653 -0.5817 0.9947
-1.1440 0.1553 -0.5663 0.9949
-1.1410 0.0523 -0.5603 0.9949
-1.1407 -0.0494 -0.5600 0.9949
-1.1335 -0.2552 -0.5699 0.9948
-1.1010 -0.5855 -0.6117 0.9945
-1.8253 -3.6993 -2.0235 0.9818
-1.4876 -3.8435 -2.0216 0.9818
-1.1386 -3.9566 -2.0196 0.9818
-0.7811 -4.0378 -2.0173 0.9818
-0.4183 -4.0864 -2.0150 0.9819
0.3119 -4.0853 -2.0098 0.9819
-1.0320 0.1851 -0.5439 0.9953
-1.0376 0.0919 -0.5404 0.9953
-1.0295 -0.0008 -0.5341 0.9954
-1.0318 -0.1866 -0.5439 0.9953
-1.0193 -0.2799 -0.5484 0.9952
-0.9774 -0.4676 -0.5621 0.9951
-3.1711 -2.2850 -2.0277 0.9825
-2.4523 -3.0380 -2.0254 0.9826
-2.1709 -3.2422 -2.0242 0.9826
-1.8725 -3.4200 -2.0228 0.9826
-1.5595 -3.5701 -2.0211 0.9826
-1.2345 -3.6914 -2.0193 0.9826
-0.9003 -3.7828 -2.0172 0.9826
-0.5595 -3.8437 -2.0151 0.9826
0.1303 -3.8728 -2.0103 0.9827
0.8126 -3.7786 -2.0051 0.9827
1.1441 -3.6864 -2.0024 0.9828
1.4656 -3.5651 -1.9997 0.9828
1.7745 -3.4159 -1.9970 0.9828
2.0686 -3.2400 -1.9942 0.9828
2.6031 -2.8145 -1.9889 0.9829
2.8395 -2.5684 -1.9863 0.9829
3.0529 -2.3026 -1.9838 0.9829
3.2418 -2.0194 -1.9814 0.9829
3.5406 -1.4097 -1.9770 0.9830
3.7872 0.2524 -1.9691 0.9830
3.6793 0.9189 -1.9674 0.9831
3.5820 1.2423 -1.9669 0.9831
3.1265 2.1441 -1.9667 0.9831
2.9240 2.4143 -1.9672 0.9831
2.4517 2.8966 -1.9687 0.9830
1.2907 3.5802 -1.9744 0.9830
0.9680 3.6844 -1.9763 0.9830
0.3002 3.8059 -1.9805 0.9829
-1.0517 3.6900 -1.9905 0.9829
-1.3777 3.5866 -1.9932 0.9828
-1.6937 3.4545 -1.9959 0.9828
-1.9971 3.2946 -1.9987 0.9828
-2.2854 3.1081 -2.0014 0.9828
-2.5564 2.8964 -2.0041 0.9827
-1.0145 0.3284 -0.5532 0.9952
-1.0364 0.1407 -0.5426 0.9953
-1.0351 -0.0448 -0.5375 0.9953
-1.0251 -0.2308 -0.5451 0.9953
-1.0149 -0.3257 -0.5529 0.9952
-0.9943 -0.4200 -0.5599 0.9951
-0.9584 -0.5097 -0.5631 0.9951
-3.2743 -2.1352 -2.0279 0.9825
-3.0708 -2.4176 -2.0275 0.9825
-1.7247 -3.4952 -2.0220 0.9826
-1.4056 -3.6317 -2.0202 0.9826
-0.7382 -3.8157 -2.0162 0.9826
-0.0500 -3.8772 -2.0116 0.9827
0.6364 -3.8150 -2.0065 0.9827
-0.9119 0.3387 -0.5328 0.9956
-0.9248 0.2525 -0.5251 0.9956
-0.9474 0.0839 -0.5209 0.9957
-0.9409 -0.0007 -0.5153 0.9957
-0.9247 -0.2539 -0.5252 0.9956
-0.8935 -0.4274 -0.5425 0.9955
-2.0548 -3.0687 -2.0227 0.9833
-1.7724 -3.2372 -2.0214 0.9833
-1.4762 -3.3794 -2.0198 0.9833
-1.1686 -3.4944 -2.0181 0.9833
-0.8522 -3.5811 -2.0161 0.9834
-0.5297 -3.6390 -2.0141 0.9834
-0.2036 -3.6677 -2.0119 0.9834
0.1234 -3.6670 -2.0096 0.9834
0.7696 -3.5783 -2.0047 0.9834
1.3881 -3.3766 -1.9995 0.9835
1.6808 -3.2355 -1.9969 0.9835
2.2219 -2.8789 -1.9918 0.9836
3.0719 -1.9136 -1.9822 0.9836
3.2264 -1.6309 -1.9801 0.9836
3.3553 -1.3360 -1.9780 0.9837
1.8799 -0.5606 -1.0744 0.9911
1.8892 -0.2118 -1.0412 0.9914
1.8782 -0.0423 -1.0290 0.9915
1.8996 0.6588 -1.1012 0.9909
3.1326 1.7606 -1.9681 0.9837
2.9638 2.0325 -1.9683 0.9837
2.7717 2.2886 -1.9687 0.9837
2.5579 2.5270 -1.9693 0.9837
2.3239 2.7457 -1.9702 0.9837
1.8025 3.1178 -1.9725 0.9837
0.9174 3.4917 -1.9773 0.9837
0.6036 3.5630 -1.9793 0.9837
0.2845 3.6064 -1.9814 0.9836
-0.9963 3.4957 -1.9909 0.9836
-2.8758 2.2759 -2.0087 0.9834
-0.9036 0.3844 -0.5378 0.9955
-0.9338 0.2127 -0.5245 0.9956
-0.9460 0.1284 -0.5229 0.9957
-0.9457 0.0434 -0.5185 0.9957
-0.9041 -0.3819 -0.5376 0.9955
-2.9062 -2.2880 -2.0259 0.9833
-2.6903 -2.5368 -2.0253 0.9833
-1.6325 -3.3085 -2.0206 0.9833
-1.3306 -3.4378 -2.0190 0.9833
-0.6988 -3.6123 -2.0152 0.9834
-0.3742 -3.6563 -2.0130 0.9834
0.2791 -3.6564 -2.0084 0.9834
0.6026 -3.6126 -2.0060 0.9834
-0.8399 0.4003 -0.5372 0.9957
-0.8679 0.2370 -0.5194 0.9959
-0.8790 0.1576 -0.5156 0.9959
-0.8822 -0.0795 -0.5114 0.9959
-0.8676 -0.2383 -0.5195 0.9959
-0.8576 -0.3200 -0.5285 0.9958
-0.8130 -0.4821 -0.5457 0.9956
-0.8012 -0.5773 -0.5702 0.9954
-2.4352 -2.5204 -2.0234 0.9839
-1.9480 -2.9092 -2.0214 0.9840
-1.1080 -3.3131 -2.0170 0.9840
-0.5023 -3.4506 -2.0132 0.9840
-0.1931 -3.4780 -2.0111 0.9840
0.1170 -3.4776 -2.0089 0.9841
0.4255 -3.4494 -2.0066 0.9841
1.0277 -3.3115 -2.0018 0.9841
1.3167 -3.2030 -1.9994 0.9841
2.3400 -2.5300 -1.9897 0.9842
2.5528 -2.3090 -1.9873 0.9842
2.9152 -1.8160 -1.9829 0.9843
3.0621 -1.5478 -1.9809 0.9843
1.7643 -0.7025 -1.0964 0.9913
1.7234 -0.5140 -1.0383 0.9917
1.7418 -0.1953 -1.0119 0.9919
1.7314 -0.0390 -0.9999 0.9920
1.7382 0.1159 -1.0058 0.9920
1.7402 0.2731 -1.0170 0.9919
1.7314 0.4324 -1.0303 0.9918
1.7094 0.5928 -1.0446 0.9917
3.1109 1.4002 -1.9696 0.9844
2.9739 1.6714 -1.9696 0.9844
2.6313 2.1727 -1.9701 0.9844
2.4283 2.3989 -1.9707 0.9844
1.9664 2.7939 -1.9725 0.9843
1.4419 3.1022 -1.9751 0.9843
0.8707 3.3141 -1.9783 0.9843
0.5729 3.3816 -1.9802 0.9843
-0.0356 3.4367 -1.9843 0.9843
-0.3417 3.4237 -1.9865 0.9842
-0.6457 3.3836 -1.9888 0.9842
-0.9453 3.3167 -1.9912 0.9842
-1.2382 3.2234 -1.9936 0.9842
-0.8495 0.3614 -0.5330 0.9957
-0.8634 0.2795 -0.5239 0.9958
-0.8742 0.1992 -0.5176 0.9959
-0.8809 -0.0381 -0.5091 0.9959
-0.8745 -0.1969 -0.5175 0.9959
-0.8637 -0.2772 -0.5237 0.9958
-0.8500 -0.3590 -0.5327 0.9957
-0.7972 -0.5199 -0.5495 0.9956
-2.7549 -2.1689 -2.0243 0.9839
-2.3253 -2.6211 -2.0230 0.9839
-2.0819 -2.8163 -2.0220 0.9840
-1.5477 -3.1367 -2.0194 0.9840
