ply
format ascii 1.0
element vertex 1449
property float32 x
property float32 y
property float32 z
property float32 I
end_header
8.8052 10.8922 2.4697 0.9447
7.2932 10.8725 2.3085 0.9482
5.0768 9.2518 1.8608 0.9580
4.0864 9.3281 1.7957 0.9595
3.1771 9.4633 1.7602 0.9603
1.3859 9.4285 1.6804 0.9620
0.5366 9.4107 1.6621 0.9624
-3.8054 9.3118 1.7737 0.9600
-4.7095 9.1142 1.8090 0.9592
-5.7335 9.0259 1.8855 0.9575
-8.2369 8.9508 2.1449 0.9518
-13.4238 8.4153 2.7936 0.9377
-16.6763 8.4915 3.2997 0.9268
-5.7992 -8.1567 1.7647 0.9602
-5.6587 -9.6785 1.9769 0.9555
14.0450 10.8690 3.1315 0.9304
9.7169 10.7660 2.5572 0.9428
8.1907 10.8814 2.4015 0.9462
6.7960 10.9303 2.2695 0.9491
3.7461 9.4258 1.7885 0.9596
0.2064 9.2283 1.6276 0.9632
-0.6262 9.3855 1.6586 0.9625
-3.2315 9.3256 1.7403 0.9607
-4.1828 9.3026 1.7985 0.9594
-6.1671 9.0044 1.9244 0.9566
-7.3678 8.9361 2.0422 0.9540
-12.2835 8.6649 2.6506 0.9408
-14.2779 8.2770 2.9100 0.9352
10.5795 10.9362 2.3310 0.9403
8.9127 11.0252 2.1718 0.9442
7.3468 10.9524 2.0204 0.9480
6.0207 10.9719 1.9173 0.9506
2.2630 9.4549 1.4893 0.9614
0.5371 9.4190 1.4453 0.9625
-1.9955 9.3630 1.4666 0.9620
-2.8795 9.3425 1.4977 0.9612
-4.7141 9.1231 1.5732 0.9593
-5.8574 9.2209 1.6735 0.9568
-7.0958 9.2397 1.7847 0.9540
-8.4258 9.1560 1.9062 0.9509
-13.8699 8.6950 2.5078 0.9359
-7.6125 -8.9100 1.7953 0.9537
8.2904 11.0139 2.1118 0.9457
6.8051 10.9451 1.9744 0.9492
3.7696 9.4849 1.5636 0.9595
1.9184 9.4479 1.4769 0.9617
-1.4707 9.3749 1.4537 0.9623
-2.3349 9.3552 1.4771 0.9617
-4.1868 9.3115 1.5640 0.9595
-5.2132 9.2866 1.6315 0.9578
-8.8236 8.9465 1.9250 0.9504
-12.5445 8.8491 2.3518 0.9398
-14.9361 8.6586 2.6448 0.9325
-17.5879 8.2025 2.9730 0.9245
7.5514 11.2574 1.7652 0.9468
6.1351 11.1805 1.6607 0.9499
3.1666 9.4319 1.2956 0.9607
2.2844 9.5446 1.2780 0.9612
1.4506 9.8687 1.2989 0.9606
-1.1419 9.3905 1.2319 0.9626
-1.9973 9.3713 1.2477 0.9621
-2.8810 9.3475 1.2737 0.9613
-4.7187 9.1320 1.3385 0.9594
-8.4804 9.2154 1.6308 0.9507
-11.9326 9.0513 1.9503 0.9414
14.2340 11.0153 2.3438 0.9300
11.9658 11.0935 2.1248 0.9363
8.3557 11.1006 1.8093 0.9455
6.9927 11.2468 1.7246 0.9480
4.7107 9.3366 1.3618 0.9587
0.2068 9.2444 1.2041 0.9634
-0.6273 9.4019 1.2270 0.9627
-1.4719 9.3832 1.2368 0.9624
-4.1686 9.2710 1.3237 0.9598
-6.3478 9.2683 1.4629 0.9557
-7.6158 9.2370 1.5590 0.9529
-9.0741 9.2005 1.6828 0.9492
10.9686 11.3384 1.6940 0.9385
9.1378 11.3036 1.5608 0.9432
6.1413 11.1917 1.3708 0.9499
1.4763 10.0436 1.0901 0.9600
0.5380 9.4354 1.0148 0.9627
-1.1429 9.3987 1.0167 0.9626
-3.8161 9.3379 1.0832 0.9602
-4.7367 9.1668 1.1080 0.9593
-7.6421 9.9511 1.3473 0.9508
-8.7689 9.5289 1.3906 0.9492
-17.2002 8.7583 2.0726 0.9253
-5.8035 -8.1628 1.0755 0.9605
14.3733 11.1231 1.9516 0.9295
12.2012 11.3117 1.7866 0.9353
10.2208 11.3243 1.6381 0.9405
8.3649 11.1128 1.4936 0.9456
6.9999 11.2584 1.4236 0.9481
4.7181 9.3512 1.1247 0.9587
3.0486 10.2417 1.1475 0.9579
2.0755 10.2215 1.1200 0.9589
1.0562 9.4465 1.0207 0.9625
0.2075 9.2788 0.9966 0.9634
-3.2404 9.3513 1.0627 0.9610
-4.1947 9.3291 1.0984 0.9597
-5.2235 9.3049 1.1458 0.9580
-6.8625 10.0197 1.3041 0.9523
-8.1935 9.9377 1.3831 0.9495
-9.0369 9.1627 1.3819 0.9495
-15.6085 9.0484 1.9373 0.9300
10.9821 11.3524 1.3371 0.9386
3.4417 10.2513 0.9154 0.9575
0.5385 9.4436 0.8007 0.9627
-1.1439 9.4069 0.8022 0.9627
-3.8196 9.3466 0.8547 0.9603
-5.8752 9.2490 0.9276 0.9570
-7.6880 10.0107 1.0685 0.9506
-8.8097 9.5733 1.1013 0.9491
-9.9549 9.0519 1.1390 0.9474
-12.0635 9.1506 1.2818 0.9410
-14.4251 9.0430 1.4412 0.9339
12.2720 11.3774 1.4166 0.9350
1.0555 9.4404 0.8041 0.9626
-1.4745 9.3996 0.8054 0.9625
-2.3411 9.3802 0.8184 0.9619
-6.8696 10.0301 1.0291 0.9524
-8.2429 9.9976 1.0969 0.9493
-10.8262 9.1807 1.2016 0.9446
-12.9417 9.1292 1.3407 0.9384
10.9955 11.3663 0.9807 0.9386
7.5754 11.2931 0.8433 0.9470
6.1535 11.2140 0.7932 0.9500
4.1522 9.4784 0.6417 0.9594
3.4395 10.2448 0.6701 0.9576
0.5389 9.4518 0.5871 0.9628
-2.8899 9.3763 0.6084 0.9614
-3.8232 9.3552 0.6267 0.9603
-4.7458 9.1844 0.6411 0.9594
-5.8811 9.2583 0.6801 0.9570
-7.6962 10.0215 0.7835 0.9506
-8.8168 9.5809 0.8074 0.9492
-12.0802 9.1633 0.9402 0.9410
-14.5245 9.1054 1.0630 0.9336
14.7854 11.4420 1.1593 0.9278
10.2451 11.3511 0.9482 0.9406
8.4034 11.1640 0.8665 0.9455
4.7380 9.3907 0.6522 0.9587
3.9430 9.9212 0.6620 0.9581
3.0541 10.2603 0.6638 0.9580
2.0792 10.2396 0.6479 0.9590
1.0538 9.4252 0.5881 0.9627
0.2079 9.2948 0.5765 0.9634
-1.4758 9.4077 0.5905 0.9626
-2.3432 9.3885 0.6000 0.9620
-4.2026 9.3466 0.6355 0.9598
-5.2337 9.3231 0.6630 0.9581
-8.2520 10.0085 0.8044 0.9493
-12.9605 9.1425 0.9835 0.9384
13.2128 11.4257 0.6888 0.9325
7.5833 11.3050 0.5368 0.9470
6.1597 11.2251 0.5049 0.9500
4.1782 9.5378 0.4106 0.9592
3.4373 10.2384 0.4258 0.9577
2.4549 10.2567 0.4159 0.9587
1.4817 10.0808 0.4018 0.9600
-0.3025 9.4416 0.3725 0.9629
-1.1398 9.3734 0.3723 0.9629
-2.0044 9.4043 0.3792 0.9622
-3.8267 9.3638 0.3989 0.9603
-4.7504 9.1932 0.4080 0.9594
-7.6667 9.9830 0.4963 0.9509
-9.9798 9.0746 0.5319 0.9474
-12.0315 9.1263 0.5955 0.9413
-14.5472 9.1196 0.6770 0.9336
-17.7639 9.0453 0.7860 0.9233
14.8068 11.4586 0.7383 0.9278
10.2572 11.3646 0.6036 0.9406
4.7426 9.3998 0.4151 0.9587
3.9452 9.9266 0.4212 0.9581
3.0569 10.2696 0.4225 0.9580
0.2081 9.3029 0.3669 0.9634
-0.6295 9.4345 0.3728 0.9629
-1.4693 9.3661 0.3738 0.9628
-2.3453 9.3968 0.3819 0.9620
-5.2388 9.3322 0.4220 0.9581
-8.2206 9.9704 0.5095 0.9496
-12.9792 9.1557 0.6263 0.9384
-15.6861 9.0933 0.7149 0.9300
13.2260 11.4372 0.2953 0.9324
11.0224 11.3941 0.2678 0.9385
9.1791 11.3547 0.2466 0.9433
7.5913 11.3169 0.2302 0.9469
6.1935 11.2869 0.2175 0.9498
4.1822 9.5469 0.1761 0.9592
2.4571 10.2658 0.1783 0.9587
1.4836 10.0931 0.1723 0.9600
0.5399 9.4681 0.1602 0.9628
-0.3027 9.4498 0.1597 0.9629
-5.8930 9.2769 0.1856 0.9570
-14.5700 9.1339 0.2905 0.9335
-5.8817 -8.2728 0.1715 0.9602
14.8282 11.4751 0.3167 0.9277
5.4892 5.0891 0.1264 0.9705
10.2693 11.3780 0.2589 0.9405
8.4218 11.1885 0.2366 0.9455
6.9984 11.2559 0.2239 0.9484
4.7473 9.4090 0.1780 0.9587
3.9473 9.9320 0.1805 0.9581
2.0829 10.2577 0.1768 0.9590
0.2083 9.3109 0.1573 0.9634
-0.6300 9.4426 0.1599 0.9628
-2.3473 9.4051 0.1637 0.9620
-3.2521 9.3852 0.1678 0.9610
-4.2104 9.3641 0.1734 0.9598
-5.2439 9.3413 0.1810 0.9580
-8.2296 9.9814 0.2185 0.9496
-9.1280 9.2552 0.2196 0.9493
-12.9980 9.1690 0.2687 0.9383
-15.7120 9.1084 0.3068 0.9299
7.5652 11.2779 -0.0765 0.9471
6.1997 11.2981 -0.0726 0.9498
1.4854 10.1055 -0.0575 0.9600
-0.3030 9.4579 -0.0533 0.9629
-3.8337 9.3811 -0.0571 0.9603
-4.7595 9.2108 -0.0584 0.9594
-5.8989 9.2862 -0.0620 0.9569
-8.8379 9.6038 -0.0735 0.9491
-10.0047 9.0972 -0.0761 0.9473
3.9495 9.9375 -0.0602 0.9581
3.0624 10.2881 -0.0604 0.9580
1.0552 9.4375 -0.0535 0.9627
0.2084 9.3189 -0.0525 0.9634
-0.6305 9.4508 -0.0533 0.9628
-1.4718 9.3824 -0.0535 0.9627
-2.3494 9.4133 -0.0546 0.9619
-5.2491 9.3504 -0.0604 0.9580
-9.1388 9.2661 -0.0733 0.9493
-13.0168 9.1822 -0.0897 0.9383
13.2187 11.4308 -0.4921 0.9325
11.0494 11.4220 -0.4475 0.9384
9.1998 11.3803 -0.4121 0.9431
3.4432 10.2557 -0.3046 0.9576
2.4614 10.2841 -0.2978 0.9586
1.4872 10.1180 -0.2880 0.9599
-2.9002 9.4098 -0.2773 0.9614
-3.8373 9.3897 -0.2856 0.9602
-4.7640 9.2197 -0.2922 0.9593
-6.3145 9.9406 -0.3316 0.9540
-7.7291 10.0643 -0.3573 0.9505
-8.8449 9.6115 -0.3678 0.9491
-10.0172 9.1086 -0.3812 0.9473
-12.1472 9.2142 -0.4293 0.9408
-14.6108 9.1595 -0.4856 0.9333
-17.3887 8.8543 -0.5495 0.9249
5.4821 5.0825 -0.2105 0.9705
10.2936 11.4049 -0.4326 0.9404
7.0433 11.3281 -0.3756 0.9480
4.7565 9.4273 -0.2973 0.9586
3.0652 10.2974 -0.3025 0.9579
2.0865 10.2758 -0.2952 0.9589
1.0561 9.4456 -0.2676 0.9627
-0.6311 9.4589 -0.2669 0.9628
-1.4731 9.3905 -0.2677 0.9627
-2.3515 9.4217 -0.2734 0.9619
-3.2580 9.4022 -0.2802 0.9610
-4.2183 9.3816 -0.2896 0.9597
-5.2542 9.3595 -0.3022 0.9580
-8.2738 10.0350 -0.3662 0.9493
-9.1497 9.2771 -0.3669 0.9492
-10.8541 9.2043 -0.4008 0.9446
-14.4024 8.3492 -0.4688 0.9356
4.1941 9.5741 -0.5301 0.9590
1.4890 10.1304 -0.5193 0.9598
-3.8408 9.3984 -0.5149 0.9602
-4.7686 9.2285 -0.5268 0.9592
-6.2417 9.8259 -0.5904 0.9544
-8.8180 9.5823 -0.6604 0.9492
-11.8424 8.9829 -0.7538 0.9422
-14.2516 8.9342 -0.8530 0.9349
-17.4205 8.8705 -0.9914 0.9247
-5.7000 -8.0172 -0.4989 0.9614
14.5590 11.2668 -0.9336 0.9289
10.0748 11.1625 -0.7626 0.9416
8.4112 11.1743 -0.7093 0.9455
7.0189 11.2889 -0.6741 0.9482
3.0680 10.3068 -0.5454 0.9578
-1.4822 9.4487 -0.4850 0.9624
-4.2222 9.3904 -0.5222 0.9596
-5.2593 9.3687 -0.5449 0.9579
-6.9121 10.0921 -0.6203 0.9522
-8.2767 10.0385 -0.6598 0.9492
-12.7094 8.9654 -0.7888 0.9396
13.0043 11.2454 -1.2606 0.9334
6.0788 11.0779 -0.9265 0.9506
2.4538 10.2520 -0.7729 0.9586
1.4796 10.0664 -0.7460 0.9600
0.5320 9.3303 -0.6852 0.9632
-0.2967 9.2603 -0.6793 0.9635
-1.1204 9.2138 -0.6806 0.9635
-2.8286 9.1775 -0.7041 0.9622
-3.7427 9.1584 -0.7254 0.9611
-4.7476 9.1878 -0.7583 0.9594
-7.7077 10.0365 -0.9279 0.9505
-8.8251 9.5900 -0.9556 0.9491
-11.8590 8.9955 -1.0914 0.9420
-14.2741 8.9483 -1.2353 0.9347
-17.6047 7.0723 -1.3911 0.9267
-18.7195 5.6476 -1.4337 0.9246
-5.6685 -7.9730 -0.7173 0.9615
-6.6149 -18.0599 -1.4102 0.9258
14.5802 11.2832 -1.3518 0.9287
10.0868 11.1758 -1.1038 0.9414
6.8995 11.0969 -0.9581 0.9489
4.7402 9.3950 -0.7716 0.9587
3.9366 9.9051 -0.7815 0.9582
2.0800 10.2436 -0.7664 0.9589
-3.1776 9.1702 -0.7116 0.9618
-4.1145 9.1507 -0.7356 0.9606
-5.1253 9.1299 -0.7677 0.9589
-8.9289 9.0533 -0.9323 0.9503
-10.6362 9.0195 -1.0225 0.9456
-14.3795 8.3359 -1.2187 0.9355
-16.9031 7.8831 -1.3675 0.9279
12.3196 10.6533 -1.5636 0.9366
4.8702 5.0343 -0.6725 0.9722
7.4604 11.1217 -1.2857 0.9476
6.0849 11.0890 -1.2143 0.9504
2.4560 10.2612 -1.0130 0.9585
1.4815 10.0789 -0.9780 0.9599
-1.1214 9.2218 -0.8919 0.9634
-1.9617 9.2040 -0.9035 0.9629
-3.7462 9.1669 -0.9507 0.9610
-4.7522 9.1967 -0.9938 0.9593
-7.7161 10.0473 -1.2162 0.9504
-8.8322 9.5977 -1.2522 0.9489
-11.5350 8.7498 -1.3900 0.9435
-12.4886 7.8291 -1.4151 0.9425
-14.2692 5.7323 -1.4763 0.9401
-17.1501 3.5485 -1.6814 0.9320
-19.6155 -3.0028 -1.9051 0.9234
-11.6081 -9.4989 -1.4400 0.9415
-6.5322 -17.8341 -1.8234 0.9265
16.8533 6.9603 -1.7506 0.9293
15.6342 8.1520 -1.6927 0.9316
14.3821 9.2108 -1.6396 0.9337
5.4791 5.0797 -0.7173 0.9704
4.8281 5.3494 -0.6918 0.9715
8.4298 11.1990 -1.3457 0.9452
6.9067 11.1085 -1.2558 0.9488
4.7449 9.4043 -1.0113 0.9586
3.9388 9.9106 -1.0239 0.9581
0.2080 9.3009 -0.8932 0.9633
-0.6160 9.2327 -0.8884 0.9635
-1.4456 9.2149 -0.8955 0.9632
-2.2954 9.1970 -0.9100 0.9626
-3.1805 9.1785 -0.9326 0.9617
-4.1183 9.1593 -0.9641 0.9604
-8.9396 9.0641 -1.2222 0.9501
-10.6502 9.0313 -1.3406 0.9454
-11.9103 8.4017 -1.3993 0.9431
-12.8487 7.4485 -1.4258 0.9421
-14.5930 5.2839 -1.4900 0.9395
-15.3874 4.0673 -1.5280 0.9380
-18.8063 -0.1605 -1.8056 0.9272
8.1607 10.0949 -1.5419 0.9491
7.0941 10.5757 -1.5127 0.9500
3.4559 10.2936 -1.2898 0.9572
1.4833 10.0915 -1.2116 0.9597
0.5283 9.2658 -1.1024 0.9633
-0.2963 9.2477 -1.0991 0.9634
-1.1224 9.2299 -1.1045 0.9632
-1.9634 9.2122 -1.1189 0.9628
-2.8337 9.1941 -1.1428 0.9620
-4.7568 9.2056 -1.2309 0.9591
-8.9641 8.1511 -1.4392 0.9524
-10.5622 6.6214 -1.4808 0.9510
-11.9881 4.8159 -1.5346 0.9493
-14.2928 2.9573 -1.7337 0.9429
-15.3187 0.3994 -1.8203 0.9401
-15.9893 -2.4476 -1.9214 0.9369
-16.1664 -3.9714 -1.9774 0.9351
-16.2236 -5.5546 -2.0370 0.9333
-10.0213 -6.8092 -1.4392 0.9524
-15.0177 -12.2889 -2.3050 0.9248
-6.5519 -17.8878 -2.2629 0.9261
14.5666 -6.3170 -1.8860 0.9380
18.1362 0.6482 -2.1557 0.9295
17.4602 2.1888 -2.0903 0.9316
4.7496 9.4136 -1.2525 0.9584
3.0613 10.2844 -1.2746 0.9577
-5.1354 9.1479 -1.2462 0.9586
-7.5739 9.1861 -1.4142 0.9532
-9.2866 7.8750 -1.4464 0.9521
-10.0904 7.1179 -1.4668 0.9515
-10.8540 6.2922 -1.4903 0.9507
-11.5729 5.3972 -1.5168 0.9499
-12.2419 4.4326 -1.5466 0.9489
-13.9102 3.6769 -1.7091 0.9437
-14.5166 2.4834 -1.7494 0.9424
-15.0395 1.2126 -1.7923 0.9410
-15.8267 -1.5482 -1.8890 0.9380
8.7737 7.5870 -1.6435 0.9542
6.1239 9.1294 -1.5576 0.9566
5.2095 9.4936 -1.5344 0.9572
4.0990 9.3568 -1.4474 0.9596
3.3599 10.0077 -1.4958 0.9582
2.4320 10.1611 -1.4804 0.9587
1.4852 10.1042 -1.4470 0.9596
-0.2965 9.2559 -1.3121 0.9633
-2.8363 9.2025 -1.3644 0.9618
-4.6914 9.0792 -1.4480 0.9596
-6.2970 8.1995 -1.4649 0.9591
-7.0591 7.6709 -1.4771 0.9588
-8.4862 6.4371 -1.5092 0.9579
-9.7595 4.9695 -1.5518 0.9567
-10.3583 4.1612 -1.5817 0.9559
-12.2401 2.5326 -1.7710 0.9508
-12.6700 1.4641 -1.8072 0.9498
-13.4833 -2.0640 -1.9327 0.9464
-12.2156 -6.7982 -1.9808 0.9451
-10.0200 -6.8083 -1.7164 0.9522
-7.9706 -9.3291 -1.7386 0.9516
-8.8160 -15.0787 -2.4749 0.9319
-7.5999 -16.1398 -2.5277 0.9305
-6.2558 -17.0795 -2.5772 0.9292
1.8141 -19.2809 -2.7440 0.9247
3.5356 -19.1257 -2.7558 0.9244
5.2280 -18.7601 -2.7594 0.9243
6.8624 -18.1895 -2.7546 0.9245
8.4116 -17.4247 -2.7415 0.9248
12.3186 -14.1393 -2.6571 0.9270
13.3178 -12.7883 -2.6161 0.9281
14.1483 -11.3511 -2.5701 0.9293
9.5689 -6.3676 -1.6286 0.9546
15.7727 -5.2305 -2.3545 0.9351
15.7805 -3.7153 -2.2971 0.9366
14.5237 1.8207 -2.0740 0.9426
13.9477 3.0267 -2.0222 0.9440
13.2906 4.1502 -1.9728 0.9453
10.1012 6.4692 -1.6996 0.9527
9.2874 7.1872 -1.6639 0.9537
4.8251 5.3460 -1.0204 0.9713
6.6771 8.8705 -1.5731 0.9561
5.7696 9.2796 -1.5482 0.9568
4.7543 9.4230 -1.4955 0.9583
3.9268 9.8803 -1.5064 0.9580
2.9991 10.0754 -1.4895 0.9584
2.0716 10.2025 -1.4751 0.9588
1.0382 9.2854 -1.3238 0.9630
0.2084 9.3172 -1.3205 0.9630
-2.2995 9.2135 -1.3455 0.9624
-3.1864 9.1954 -1.3789 0.9614
-4.1262 9.1767 -1.4256 0.9602
-8.0650 6.8391 -1.4983 0.9582
-8.7467 6.1701 -1.5166 0.9577
-9.3886 5.4427 -1.5376 0.9571
-11.3619 4.1140 -1.7121 0.9524
-12.4157 2.1240 -1.7847 0.9504
-12.8174 1.0334 -1.8220 0.9494
-13.1418 -0.1121 -1.8621 0.9483
-13.5293 -2.5528 -1.9508 0.9459
-13.5768 -3.8377 -1.9991 0.9446
7.6611 6.6249 -1.6685 0.9598
4.8626 5.0265 -1.1521 0.9720
6.1636 7.6245 -1.6151 0.9610
5.3830 8.0249 -1.5919 0.9616
2.9677 8.8394 -1.5361 0.9629
2.1507 8.9857 -1.5221 0.9632
0.5187 9.0969 -1.5011 0.9637
-0.2904 9.0640 -1.4940 0.9639
-1.0912 8.9733 -1.4891 0.9640
-3.4177 8.3631 -1.4883 0.9640
-4.8794 7.6813 -1.4991 0.9638
-6.8827 6.2584 -1.5325 0.9630
-8.0556 5.0500 -1.5663 0.9622
-8.5827 4.3703 -1.5867 0.9617
-9.7955 3.9351 -1.7391 0.9581
-11.4734 -5.1079 -2.0690 0.9504
-9.9942 -6.7908 -1.9905 0.9522
-5.5523 -7.8095 -1.5785 0.9619
-7.3346 -12.5450 -2.3939 0.9428
-6.3002 -13.3797 -2.4363 0.9418
-3.3576 -9.1669 -1.6083 0.9612
-2.6595 -15.2069 -2.5432 0.9393
-1.3112 -15.5447 -2.5699 0.9387
5.6029 -14.8510 -2.6149 0.9377
8.0611 -13.4867 -2.5884 0.9383
6.4680 -8.9138 -1.8143 0.9563
10.9747 -10.5384 -2.5065 0.9402
11.8068 -6.4221 -2.2142 0.9470
13.0462 -5.6577 -2.3426 0.9440
13.2304 -4.3874 -2.2963 0.9451
13.2892 -3.1287 -2.2491 0.9462
13.0591 -0.6962 -2.1544 0.9484
11.9719 2.5980 -2.0181 0.9516
11.4475 3.5747 -1.9757 0.9525
10.8331 4.4740 -1.9308 0.9536
9.4279 4.9159 -1.7516 0.9578
5.3851 4.9926 -1.2097 0.9707
5.8622 7.7880 -1.6058 0.9613
4.2751 8.4731 -1.5635 0.9623
3.4655 8.7196 -1.5458 0.9627
1.8328 9.0261 -1.5173 0.9634
-0.6028 9.0356 -1.4918 0.9640
-2.1847 8.7532 -1.4862 0.9641
-2.9551 8.5279 -1.4868 0.9641
-3.7084 8.2475 -1.4897 0.9640
-4.4419 7.9126 -1.4949 0.9639
-5.1530 7.5238 -1.5023 0.9637
-5.8387 7.0816 -1.5120 0.9635
-6.4962 6.5866 -1.5240 0.9632
-7.1221 6.0395 -1.5383 0.9629
-10.0038 3.6222 -1.7527 0.9578
-11.1583 0.8996 -1.8442 0.9556
-11.6712 -2.2022 -1.9566 0.9530
-11.5793 -4.4176 -2.0417 0.9510
5.4853 6.7854 -1.6400 0.9651
4.0950 7.4625 -1.6000 0.9659
1.1951 8.1308 -1.5447 0.9671
-0.9795 8.0549 -1.5252 0.9675
-1.6888 7.9238 -1.5228 0.9676
-3.0681 7.5075 -1.5244 0.9675
-4.3770 6.8904 -1.5343 0.9673
-4.9982 6.5084 -1.5424 0.9672
-5.5935 6.0783 -1.5526 0.9669
-6.1599 5.6012 -1.5649 0.9667
-6.6941 5.0778 -1.5793 0.9664
-7.1930 4.5093 -1.5957 0.9660
-8.7382 3.5104 -1.7700 0.9624
-10.1571 -0.6399 -1.9129 0.9594
-10.2408 -1.5677 -1.9473 0.9587
-10.0090 -4.4560 -2.0593 0.9564
-6.8088 -6.6657 -1.7910 0.9620
-5.5334 -7.7829 -1.7949 0.9619
-5.3743 -11.4134 -2.3712 0.9500
-3.3548 -12.5043 -2.4334 0.9487
-2.2541 -12.8889 -2.4594 0.9481
-1.1096 -13.1542 -2.4812 0.9477
1.2515 -13.3014 -2.5112 0.9471
2.4358 -13.1766 -2.5187 0.9469
3.6003 -12.9195 -2.5209 0.9469
4.3633 -9.0386 -1.8865 0.9600
4.4719 -7.4818 -1.6383 0.9651
4.6737 -6.4411 -1.4958 0.9681
7.9596 -9.1360 -2.2775 0.9519
8.6456 -8.3019 -2.2529 0.9524
9.5649 -6.3649 -2.1595 0.9543
11.1921 -4.8536 -2.2930 0.9516
11.3822 -3.7745 -2.2540 0.9524
11.3326 -0.6041 -2.1331 0.9549
10.8404 1.3589 -2.0535 0.9565
10.4767 2.2735 -2.0150 0.9573
10.0442 3.1365 -1.9778 0.9581
9.5500 3.9441 -1.9421 0.9588
7.7613 4.9706 -1.7324 0.9632
5.2203 6.9353 -1.6316 0.9653
3.8180 7.5672 -1.5931 0.9661
3.0987 7.7968 -1.5770 0.9664
2.3723 7.9697 -1.5629 0.9667
1.6420 8.0866 -1.5510 0.9670
0.9111 8.1483 -1.5411 0.9672
0.1824 8.1556 -1.5333 0.9673
-0.5410 8.1093 -1.5276 0.9675
-1.9614 7.8589 -1.5225 0.9676
-3.3287 7.4031 -1.5257 0.9675
-3.9857 7.1000 -1.5304 0.9674
-4.6214 6.7476 -1.5372 0.9673
-5.8173 5.8984 -1.5572 0.9668
-8.4528 3.9421 -1.7531 0.9628
-9.6067 1.6435 -1.8319 0.9611
-9.8710 0.7958 -1.8614 0.9605
-10.1986 -0.9977 -1.9261 0.9592
-10.2526 -1.9346 -1.9611 0.9584
-10.1184 -3.8602 -2.0356 0.9569
6.0967 5.2721 -1.7037 0.9676
4.8750 5.0394 -1.4821 0.9717
4.3244 6.4467 -1.6409 0.9688
3.6949 6.7334 -1.6235 0.9691
3.0524 6.9679 -1.6080 0.9694
1.0820 7.3613 -1.5727 0.9700
0.4214 7.3908 -1.5648 0.9702
-2.7812 6.8054 -1.5540 0.9704
-3.3828 6.5466 -1.5576 0.9703
-4.5258 5.8932 -1.5707 0.9701
-5.0617 5.5004 -1.5801 0.9699
-5.5700 5.0648 -1.5913 0.9697
-7.4675 3.8024 -1.7713 0.9663
-7.8677 3.1607 -1.7923 0.9659
-8.9488 0.2333 -1.8922 0.9641
-9.1295 -1.3976 -1.9523 0.9629
-9.1167 -2.2396 -1.9844 0.9623
-9.0304 -3.0918 -2.0176 0.9617
-8.8676 -3.9478 -2.0518 0.9611
-6.7759 -6.6336 -2.0044 0.9620
-6.2069 -7.2648 -2.0198 0.9617
-5.2033 -7.3186 -1.8981 0.9640
-5.0762 -8.6822 -2.1259 0.9597
-3.3542 -9.1575 -2.0615 0.9609
-1.7741 -6.6126 -1.4472 0.9724
-0.9606 -11.3880 -2.4157 0.9544
0.0555 -11.4975 -2.4304 0.9541
1.0817 -11.4968 -2.4409 0.9539
4.4612 -7.4639 -1.8381 0.9651
4.6700 -6.4360 -1.6808 0.9680
6.9004 -7.9202 -2.2204 0.9580
7.5059 -7.2075 -2.1996 0.9583
7.9233 -6.3568 -2.1472 0.9593
8.7845 -5.8456 -2.2304 0.9578
9.5071 -5.1712 -2.2877 0.9567
9.9766 -3.3084 -2.2218 0.9579
9.9994 -0.5331 -2.1167 0.9599
9.8406 0.3517 -2.0814 0.9605
9.6072 1.2044 -2.0467 0.9612
9.3048 2.0192 -2.0126 0.9618
8.9391 2.7914 -1.9795 0.9624
8.0388 4.1916 -1.9164 0.9636
5.3528 4.9626 -1.5429 0.9706
5.3019 5.8744 -1.6727 0.9682
4.7012 6.2456 -1.6524 0.9685
4.0814 6.5644 -1.6339 0.9689
3.4464 6.8308 -1.6173 0.9692
2.7999 7.0450 -1.6025 0.9695
0.1653 7.3889 -1.5622 0.9702
-1.1391 7.2612 -1.5536 0.9704
-3.6117 6.4336 -1.5596 0.9703
-4.1859 6.1118 -1.5659 0.9702
-5.2627 5.3360 -1.5842 0.9698
-5.7595 4.8841 -1.5963 0.9696
-6.2246 4.3909 -1.6102 0.9693
-7.1812 4.1630 -1.7546 0.9666
-8.0098 2.9002 -1.8007 0.9658
-8.3410 2.2048 -1.8237 0.9653
-8.6197 1.4746 -1.8485 0.9649
5.5249 4.7776 -1.7166 0.9704
5.0171 5.1862 -1.6959 0.9708
4.4849 5.5480 -1.6767 0.9711
3.9324 5.8623 -1.6590 0.9714
2.7808 6.3477 -1.6287 0.9719
1.5899 6.6426 -1.6053 0.9723
0.9876 6.7192 -1.5961 0.9725
0.3848 6.7492 -1.5888 0.9726
-0.2157 6.7330 -1.5832 0.9727
-1.3991 6.5643 -1.5774 0.9728
-6.3876 4.0043 -1.7718 0.9695
-7.1488 2.8719 -1.8106 0.9688
-7.4588 2.2503 -1.8310 0.9685
-7.7212 1.5976 -1.8531 0.9681
-7.9327 0.9167 -1.8768 0.9677
-8.0898 0.2109 -1.9019 0.9673
-8.2282 -1.2596 -1.9563 0.9664
-8.2033 -2.0152 -1.9853 0.9659
-8.1120 -2.7774 -2.0152 0.9654
-7.9521 -3.5402 -2.0458 0.9649
-7.7217 -4.2972 -2.0769 0.9643
-7.4196 -5.0414 -2.1082 0.9638
-7.0454 -5.7653 -2.1396 0.9633
-5.0995 -7.1726 -2.0684 0.9645
-3.8404 -8.1557 -2.1187 0.9636
-1.7737 -6.6111 -1.6087 0.9723
0.8824 -9.3778 -2.2137 0.9620
1.7161 -9.2833 -2.2187 0.9620
2.5360 -9.1002 -2.2202 0.9619
3.3316 -8.8307 -2.2182 0.9620
4.4515 -7.4477 -2.0392 0.9650
4.6663 -6.4308 -1.8674 0.9679
6.6243 -6.3609 -2.1584 0.9630
7.3333 -5.8834 -2.2096 0.9621
8.4256 -4.5829 -2.2542 0.9614
8.6894 -3.7683 -2.2260 0.9618
8.9709 -2.1120 -2.1660 0.9628
8.9378 -0.4765 -2.1036 0.9639
8.6176 1.0803 -2.0412 0.9649
8.3606 1.8143 -2.0107 0.9655
7.6772 3.1706 -1.9521 0.9664
5.8950 4.5620 -1.7519 0.9698
0.1509 6.7483 -1.5864 0.9726
-0.4480 6.7143 -1.5815 0.9727
-1.0408 6.6349 -1.5784 0.9728
-2.1978 6.3426 -1.5776 0.9728
-4.8007 4.8675 -1.6068 0.9723
-5.2503 4.4523 -1.6179 0.9721
-6.0266 4.2512 -1.7333 0.9702
-6.9373 3.2353 -1.7990 0.9690
-7.2748 2.6341 -1.8184 0.9687
-7.5667 2.0001 -1.8394 0.9684
-7.8097 1.3360 -1.8621 0.9680
-8.2118 -0.8033 -1.9392 0.9667
-8.2262 -1.5522 -1.9675 0.9662
-8.1758 -2.3110 -1.9968 0.9657
5.2483 4.5385 -1.7965 0.9717
4.1049 5.0778 -1.6906 0.9734
3.0834 5.6190 -1.6595 0.9739
2.5513 5.8239 -1.6463 0.9741
-0.7461 6.1360 -1.6004 0.9748
-1.2870 6.0383 -1.5985 0.9748
-1.8182 5.8993 -1.5983 0.9748
-2.3374 5.7197 -1.5998 0.9748
-3.3295 5.2414 -1.6077 0.9747
-3.7972 4.9445 -1.6142 0.9746
-4.2428 4.6105 -1.6223 0.9744
-5.4596 4.1413 -1.7743 0.9721
-5.8681 3.6787 -1.7932 0.9718
-6.2255 3.1700 -1.8088 0.9715
-6.5444 2.6291 -1.8261 0.9713
-6.8217 2.0581 -1.8449 0.9710
-7.4560 -0.4697 -1.9343 0.9696
-7.3559 -2.5185 -2.0131 0.9684
-7.2007 -3.2057 -2.0408 0.9680
-6.3522 -5.1980 -2.1252 0.9667
-5.9417 -5.8169 -2.1529 0.9662
-4.5787 -6.4401 -2.0459 0.9679
-3.4396 -7.3046 -2.0905 0.9672
-2.8032 -7.6532 -2.1103 0.9669
-0.7001 -8.2994 -2.1565 0.9662
0.7866 -8.3600 -2.1741 0.9659
1.5295 -8.2737 -2.1785 0.9658
2.2600 -8.1099 -2.1798 0.9658
2.4649 -6.5334 -1.8080 0.9716
4.6625 -6.4256 -2.0555 0.9677
5.4328 -6.2358 -2.1414 0.9664
6.1550 -5.9103 -2.2094 0.9654
7.2371 -4.8159 -2.2508 0.9647
7.8034 -3.3841 -2.2023 0.9655
7.9770 -2.6453 -2.1760 0.9659
7.8050 0.9784 -2.0367 0.9680
7.3072 2.2818 -1.9821 0.9689
5.7364 4.4392 -1.8781 0.9705
3.9117 5.1967 -1.6841 0.9735
3.4023 5.4722 -1.6684 0.9737
2.8779 5.7039 -1.6542 0.9739
2.3416 5.8917 -1.6415 0.9741
1.7965 6.0354 -1.6304 0.9743
1.2458 6.1354 -1.6210 0.9745
-0.9574 6.1029 -1.5995 0.9748
-1.4948 5.9892 -1.5983 0.9748
-2.5355 5.6390 -1.6008 0.9748
-3.9732 4.8190 -1.6171 0.9745
-5.0470 4.2799 -1.7134 0.9730
-5.6242 3.9674 -1.7821 0.9720
-6.0114 3.4849 -1.7991 0.9717
-7.4727 -0.7310 -1.9441 0.9695
-7.4760 -1.4106 -1.9698 0.9691
-7.4201 -2.0974 -1.9965 0.9686
-7.3030 -2.7862 -2.0238 0.9682
5.0127 4.3347 -1.8760 0.9728
4.3705 4.5179 -1.7795 0.9742
2.8440 5.1828 -1.6736 0.9757
2.3547 5.3751 -1.6613 0.9759
1.8555 5.5266 -1.6504 0.9761
0.8389 5.7072 -1.6330 0.9763
0.3271 5.7366 -1.6266 0.9764
-0.1834 5.7259 -1.6218 0.9765
-1.6819 5.4570 -1.6165 0.9765
-2.1620 5.2904 -1.6179 0.9765
-2.6283 5.0865 -1.6208 0.9765
-3.0785 4.8462 -1.6253 0.9764
-3.9717 4.3159 -1.6604 0.9759
-4.6476 4.2261 -1.7783 0.9742
-6.0287 2.4219 -1.8393 0.9734
-6.4877 1.3424 -1.8755 0.9728
-6.6518 0.7687 -1.8956 0.9725
-6.7689 0.1765 -1.9169 0.9722
-6.8366 -0.4307 -1.9392 0.9719
-6.8526 -1.0490 -1.9625 0.9716
-6.7221 -2.3015 -2.0114 0.9709
-4.9624 -5.8082 -2.1627 0.9687
-3.6516 -6.2456 -2.0481 0.9704
-2.5332 -6.9160 -2.0851 0.9698
-1.7729 -6.6081 -1.9369 0.9720
-1.2869 -7.3584 -2.1147 0.9694
-0.6313 -7.4842 -2.1263 0.9693
0.0364 -7.5429 -2.1354 0.9691
0.7088 -7.5328 -2.1419 0.9690
2.0359 -7.3056 -2.1470 0.9690
3.1028 -6.4275 -2.0205 0.9708
3.8677 -6.4710 -2.1342 0.9691
7.3763 -1.0564 -2.1095 0.9695
7.2665 0.2597 -2.0584 0.9702
6.9307 1.5040 -2.0077 0.9709
6.6864 2.0880 -1.9830 0.9713
6.3960 2.6415 -1.9590 0.9716
6.0634 3.1616 -1.9358 0.9720
5.6924 3.6456 -1.9136 0.9723
4.8339 4.4815 -1.8660 0.9730
4.0781 4.5184 -1.7231 0.9750
3.1369 5.0453 -1.6818 0.9756
2.6551 5.2624 -1.6686 0.9758
1.6593 5.5745 -1.6465 0.9761
1.1512 5.6693 -1.6377 0.9762
0.6399 5.7234 -1.6304 0.9763
-0.8855 5.6450 -1.6176 0.9765
-1.8700 5.3967 -1.6169 0.9765
-2.8054 4.9974 -1.6224 0.9765
-5.1974 3.6663 -1.8006 0.9739
-5.5442 3.2140 -1.8142 0.9737
-5.8563 2.7312 -1.8293 0.9735
-6.3653 1.6825 -1.8639 0.9730
-6.5569 1.1217 -1.8832 0.9727
-6.7030 0.5404 -1.9037 0.9724
-6.8491 -0.6700 -1.9482 0.9718
-6.7855 -1.9180 -1.9962 0.9711
-6.6707 -2.5449 -2.0212 0.9708
4.2183 4.3606 -1.8661 0.9749
3.6366 4.4986 -1.7792 0.9761
3.0765 4.5863 -1.6986 0.9772
1.7219 5.1289 -1.6641 0.9776
1.2527 5.2338 -1.6553 0.9777
0.7791 5.3005 -1.6478 0.9778
0.3039 5.3294 -1.6419 0.9779
-0.1704 5.3205 -1.6373 0.9780
-0.6414 5.2743 -1.6342 0.9780
-1.5632 5.0718 -1.6324 0.9780
-2.4424 4.7266 -1.6364 0.9780
-2.8615 4.5047 -1.6415 0.9779
-3.9271 4.2675 -1.7838 0.9760
-4.3248 3.9325 -1.7979 0.9758
-4.6885 3.5564 -1.8100 0.9757
-5.3185 2.7082 -1.8357 0.9753
-5.9994 1.2413 -1.8844 0.9747
-6.1462 0.7102 -1.9030 0.9744
-6.2491 0.1629 -1.9227 0.9742
-6.2742 -1.5413 -1.9872 0.9733
-6.1825 -2.1167 -2.0100 0.9730
-5.8424 -3.2514 -2.0565 0.9724
-5.5933 -3.8005 -2.0800 0.9721
-5.2919 -4.3304 -2.1032 0.9718
-4.9391 -4.8354 -2.1260 0.9715
-2.3080 -6.3013 -2.0641 0.9723
-1.7510 -6.5263 -2.0783 0.9721
0.6442 -6.8467 -2.1152 0.9716
1.8500 -6.6387 -2.1197 0.9716
2.4311 -6.4438 -2.1183 0.9716
2.9886 -6.1910 -2.1145 0.9716
3.5766 -5.9839 -2.1442 0.9712
4.3113 -5.9415 -2.2579 0.9697
4.8108 -5.5218 -2.2526 0.9698
5.2503 -5.0416 -2.2389 0.9700
5.6378 -4.5232 -2.2232 0.9702
5.9702 -3.9728 -2.2057 0.9704
6.2453 -3.3970 -2.1867 0.9707
6.4617 -2.8023 -2.1663 0.9710
6.6191 -2.1950 -2.1449 0.9712
6.7174 -1.5815 -2.1226 0.9715
6.7578 -0.9678 -2.0997 0.9718
6.7415 -0.3594 -2.0765 0.9721
6.5477 0.8208 -2.0297 0.9728
5.8949 2.4346 -1.9617 0.9737
5.5936 2.9166 -1.9403 0.9739
4.0463 4.4831 -1.8575 0.9750
3.3865 4.4989 -1.7320 0.9767
2.9072 4.6758 -1.6935 0.9772
2.0055 5.0461 -1.6702 0.9775
1.5402 5.1742 -1.6605 0.9777
1.0689 5.2643 -1.6522 0.9778
0.5944 5.3162 -1.6453 0.9779
0.1192 5.3304 -1.6399 0.9779
-0.3541 5.3069 -1.6359 0.9780
-2.1793 4.8469 -1.6346 0.9780
-2.6067 4.6435 -1.6379 0.9780
-4.0843 4.1412 -1.7890 0.9760
-5.1396 2.9795 -1.8273 0.9754
-5.4256 2.5303 -1.8414 0.9753
-6.0616 1.0370 -1.8915 0.9746
-6.1328 -2.3397 -2.0189 0.9729
4.3149 3.7313 -1.8962 0.9762
3.9310 4.0635 -1.8793 0.9765
3.0051 4.4800 -1.7932 0.9775
1.6049 4.7802 -1.6761 0.9790
1.1679 4.8796 -1.6678 0.9791
0.7266 4.9434 -1.6609 0.9792
0.2835 4.9715 -1.6552 0.9792
-0.5985 4.9216 -1.6480 0.9793
-1.0325 4.8444 -1.6465 0.9793
-1.4588 4.7330 -1.6463 0.9793
-1.8750 4.5881 -1.6475 0.9793
-2.2789 4.4102 -1.6501 0.9793
-2.7573 4.3407 -1.7094 0.9786
-3.2808 4.2720 -1.7905 0.9776
-3.6706 3.9887 -1.8018 0.9774
-4.3683 3.3135 -1.8225 0.9772
-4.6745 2.9304 -1.8339 0.9770
-4.9505 2.5208 -1.8466 0.9769
-5.1939 2.0865 -1.8606 0.9767
-5.4025 1.6299 -1.8758 0.9765
-5.7065 0.6594 -1.9095 0.9761
-5.7977 0.1511 -1.9278 0.9758
-5.8459 -0.3683 -1.9471 0.9756
-5.8494 -0.8954 -1.9670 0.9754
-5.5794 -2.4839 -2.0301 0.9746
-5.1588 -3.5053 -2.0732 0.9741
-4.5476 -4.4521 -2.1155 0.9735
-1.0731 -6.1357 -2.0705 0.9741
-0.5259 -6.2350 -2.0799 0.9740
0.5897 -6.2678 -2.0927 0.9738
1.1475 -6.2076 -2.0984 0.9737
3.4722 -5.8093 -2.2497 0.9719
4.4086 -5.0602 -2.2309 0.9721
5.1722 -4.1496 -2.2042 0.9724
5.9406 -2.5762 -2.1524 0.9731
6.2186 -0.3315 -2.0700 0.9741
6.1587 0.2201 -2.0485 0.9744
6.0504 0.7585 -2.0269 0.9746
5.8962 1.2795 -2.0056 0.9749
5.1861 2.7041 -1.9442 0.9756
4.8769 3.1233 -1.9251 0.9759
4.5367 3.5108 -1.9068 0.9761
4.1687 3.8648 -1.8896 0.9763
3.7718 4.1790 -1.8713 0.9765
3.3503 4.4509 -1.8518 0.9768
2.2931 4.5449 -1.6921 0.9788
1.8687 4.7018 -1.6818 0.9789
1.4357 4.8231 -1.6727 0.9790
0.9967 4.9087 -1.6650 0.9791
0.5544 4.9585 -1.6585 0.9792
0.1112 4.9728 -1.6534 0.9793
-0.7680 4.8957 -1.6473 0.9793
-1.1993 4.8052 -1.6463 0.9793
-1.6219 4.6806 -1.6466 0.9793
-2.0347 4.5253 -1.6493 0.9793
-2.4453 4.3560 -1.6605 0.9792
-3.4346 4.1657 -1.7947 0.9775
-3.8168 3.8700 -1.8068 0.9773
-4.1673 3.5339 -1.8162 0.9772
-4.4908 3.1679 -1.8268 0.9771
-5.0491 2.3548 -1.8519 0.9768
-5.4737 1.4469 -1.8820 0.9764
-5.6303 0.9632 -1.8987 0.9762
-5.7469 0.4633 -1.9165 0.9760
-5.8216 -0.0497 -1.9352 0.9758
-5.8527 -0.5725 -1.9547 0.9755
-5.8384 -1.1017 -1.9750 0.9753
-5.7777 -1.6332 -1.9958 0.9750
4.0246 3.4803 -1.9027 0.9777
2.4481 4.4614 -1.8199 0.9786
1.9538 4.4599 -1.7412 0.9795
1.5012 4.4715 -1.6868 0.9802
1.0928 4.5660 -1.6790 0.9803
-0.1489 4.6481 -1.6630 0.9804
-0.9670 4.5368 -1.6588 0.9805
-1.7856 4.3693 -1.6879 0.9801
-2.6963 4.2446 -1.7982 0.9789
-3.4388 3.7368 -1.8160 0.9787
-3.7741 3.4318 -1.8242 0.9786
-4.0851 3.0987 -1.8336 0.9785
-4.6256 2.3553 -1.8563 0.9782
-4.8507 1.9486 -1.8694 0.9780
-5.1999 1.0759 -1.8989 0.9777
-5.3201 0.6148 -1.9152 0.9775
-5.4016 0.1408 -1.9323 0.9773
-5.4428 -0.3429 -1.9503 0.9771
-5.4423 -0.8331 -1.9689 0.9769
-5.1795 -2.3059 -2.0275 0.9762
-4.7818 -3.2491 -2.0674 0.9757
-4.5168 -3.6961 -2.0871 0.9755
-3.8601 -4.5180 -2.1251 0.9751
-3.0484 -5.2140 -2.1598 0.9747
-2.5917 -5.5040 -2.1756 0.9745
-0.5120 -6.0695 -2.1782 0.9745
0.0293 -6.0597 -2.1670 0.9746
0.5689 -6.0463 -2.1718 0.9745
1.6743 -6.0079 -2.2303 0.9739
2.2095 -5.8566 -2.2384 0.9738
2.7171 -5.6284 -2.2350 0.9738
3.1985 -5.3514 -2.2295 0.9739
3.6489 -5.0287 -2.2219 0.9740
4.4393 -4.2628 -2.2009 0.9742
4.7721 -3.8286 -2.1879 0.9743
5.0595 -3.3668 -2.1733 0.9745
5.2996 -2.8826 -2.1574 0.9747
5.6332 -1.8681 -2.1223 0.9751
5.7693 -0.8262 -2.0842 0.9755
5.7647 -0.3073 -2.0644 0.9758
5.7135 0.2042 -2.0445 0.9760
5.6173 0.7042 -2.0245 0.9762
5.4784 1.1888 -2.0047 0.9765
5.2989 1.6547 -1.9852 0.9767
5.0815 2.0986 -1.9661 0.9769
4.5442 2.9102 -1.9297 0.9773
3.8892 3.6057 -1.8966 0.9777
3.5250 3.9056 -1.8814 0.9779
2.7293 4.3898 -1.8485 0.9783
0.5190 4.6415 -1.6702 0.9804
-0.7192 4.5847 -1.6596 0.9805
-1.1231 4.5001 -1.6586 0.9805
-1.5198 4.3858 -1.6599 0.9805
-1.9611 4.3615 -1.7101 0.9799
-2.8466 4.1562 -1.8015 0.9788
-3.2218 3.9076 -1.8111 0.9787
-3.5719 3.6216 -1.8190 0.9786
-3.8980 3.3055 -1.8277 0.9785
-4.1990 2.9621 -1.8376 0.9784
-4.7169 2.1998 -1.8612 0.9781
-5.3565 0.4319 -1.9217 0.9774
-5.4225 -0.0463 -1.9392 0.9772
-5.4476 -0.5329 -1.9574 0.9770
-5.4305 -1.0247 -1.9763 0.9768
-5.3700 -1.5179 -1.9956 0.9766
-5.2654 -2.0088 -2.0153 0.9763
3.7671 3.2576 -1.9085 0.9789
3.4362 3.5521 -1.8939 0.9791
3.0846 3.8157 -1.8803 0.9792
2.7143 4.0464 -1.8672 0.9793
2.3255 4.2380 -1.8525 0.9795
1.4906 4.4399 -1.7948 0.9801
0.6511 4.4294 -1.7157 0.9810
-0.1413 4.4120 -1.6916 0.9813
-0.5351 4.4006 -1.6988 0.9812
-1.3473 4.3714 -1.7530 0.9806
-1.7789 4.3529 -1.8020 0.9801
-2.1646 4.1891 -1.8070 0.9800
-2.8935 3.7677 -1.8205 0.9799
-3.8326 2.9072 -1.8435 0.9796
-4.5454 1.8260 -1.8772 0.9792
-4.8678 1.0072 -1.9049 0.9789
-2.3031 -0.1451 -0.8843 0.9902
-4.8278 -2.1493 -2.0252 0.9776
-4.6601 -2.5934 -2.0438 0.9774
-4.2017 -3.4382 -2.0805 0.9770
-3.9129 -3.8306 -2.0984 0.9768
-2.8289 -4.8385 -2.1479 0.9763
-1.9525 -5.3308 -2.1756 0.9760
-0.4839 -5.7365 -2.2061 0.9756
0.0279 -5.7743 -2.2128 0.9756
1.0533 -5.6978 -2.2205 0.9755
2.5151 -5.2100 -2.2171 0.9755
2.9613 -4.9545 -2.2120 0.9756
3.3792 -4.6570 -2.2050 0.9757
3.7646 -4.3210 -2.1962 0.9757
4.1140 -3.9504 -2.1857 0.9759
4.4243 -3.5496 -2.1737 0.9760
4.9184 -2.6753 -2.1456 0.9763
5.0990 -2.2113 -2.1299 0.9765
5.3667 -0.2861 -2.0595 0.9772
5.1103 1.1090 -2.0039 0.9778
4.7463 1.9602 -1.9679 0.9782
4.5132 2.3533 -1.9505 0.9784
4.2495 2.7216 -1.9338 0.9786
2.9429 3.9097 -1.8753 0.9793
2.5646 4.1247 -1.8613 0.9794
2.1714 4.3036 -1.8472 0.9796
1.7653 4.4417 -1.8317 0.9797
0.9002 4.4333 -1.7336 0.9808
0.4949 4.4266 -1.7069 0.9811
0.0988 4.4181 -1.6935 0.9812
-1.0935 4.3813 -1.7305 0.9808
-2.3113 4.1172 -1.8094 0.9800
-3.0259 3.6701 -1.8228 0.9798
-3.3528 3.3995 -1.8297 0.9798
-3.6578 3.1018 -1.8379 0.9797
-4.4212 2.0619 -1.8695 0.9793
-4.7834 1.2644 -1.8960 0.9790
-4.9147 0.8408 -1.9108 0.9789
-2.3042 0.1858 -0.8859 0.9901
-2.3037 -0.2254 -0.8870 0.9901
3.5368 3.0585 -1.9137 0.9800
2.5524 3.8050 -1.8752 0.9804
1.4320 4.2653 -1.8414 0.9807
0.2512 4.4057 -1.8061 0.9811
-0.1408 4.3962 -1.8002 0.9812
-0.9231 4.3313 -1.8125 0.9810
-1.3053 4.2349 -1.8137 0.9810
-1.6791 4.1088 -1.8166 0.9810
-2.0428 3.9534 -1.8213 0.9810
-3.6059 2.7352 -1.8523 0.9806
-3.8545 2.4163 -1.8619 0.9805
-1.9968 0.0521 -0.8175 0.9914
-2.0088 -0.1266 -0.8238 0.9913
-2.0283 -0.3105 -0.8398 0.9912
-4.5159 -2.0104 -2.0231 0.9789
-3.9233 -3.2104 -2.0748 0.9783
-3.6515 -3.5748 -2.0914 0.9782
-3.0055 -4.2273 -2.1228 0.9778
-2.6358 -4.5082 -2.1373 0.9777
-0.9190 -5.2549 -2.1834 0.9772
-0.4500 -5.3350 -2.1912 0.9771
0.5040 -5.3563 -2.2019 0.9770
1.4465 -5.1905 -2.2053 0.9770
2.3383 -4.8437 -2.2013 0.9770
2.7536 -4.6069 -2.1966 0.9771
3.1428 -4.3312 -2.1902 0.9771
3.8286 -3.6763 -2.1724 0.9773
5.0121 -0.7178 -2.0723 0.9784
5.0144 -0.2673 -2.0552 0.9785
4.9761 0.1779 -2.0379 0.9787
4.7833 1.0380 -2.0033 0.9791
4.6323 1.4465 -1.9862 0.9792
3.4192 3.1699 -1.9083 0.9800
3.1020 3.4369 -1.8949 0.9802
2.4136 3.8820 -1.8709 0.9804
2.0466 4.0563 -1.8595 0.9806
1.2810 4.3035 -1.8377 0.9808
0.8894 4.3802 -1.8293 0.9809
0.4931 4.4105 -1.8164 0.9810
0.0985 4.4022 -1.8022 0.9811
-0.6864 4.3754 -1.8126 0.9810
-2.5231 3.6840 -1.8275 0.9809
-3.1558 3.1998 -1.8393 0.9808
-3.9442 2.2865 -1.8659 0.9805
-4.1562 1.9383 -1.8769 0.9804
-4.3397 1.5713 -1.8890 0.9802
-2.0135 0.1623 -0.8267 0.9913
-1.9924 -0.0170 -0.8155 0.9914
-2.0169 -0.1973 -0.8294 0.9913
-2.0662 -0.3899 -0.8606 0.9910
-4.6914 -1.3261 -1.9953 0.9791
-4.5943 -1.7528 -2.0125 0.9790
3.3296 2.8792 -1.9184 0.9810
3.0398 3.1423 -1.9054 0.9811
2.7310 3.3783 -1.8933 0.9812
2.0661 3.7651 -1.8717 0.9814
1.7147 3.9143 -1.8624 0.9815
0.9853 4.1167 -1.8448 0.9817
0.6132 4.1720 -1.8378 0.9818
-0.5059 4.1601 -1.8264 0.9819
-1.5880 3.8858 -1.8295 0.9819
-2.8675 3.1160 -1.8455 0.9817
-4.0251 1.6170 -1.8905 0.9813
-1.4939 0.4507 -0.6800 0.9932
-1.4764 0.3055 -0.6571 0.9934
-1.4719 0.1701 -0.6457 0.9936
-1.4580 -0.0919 -0.6367 0.9936
-1.4911 -0.5105 -0.6869 0.9931
-4.0852 -2.2735 -2.0375 0.9798
-3.8977 -2.6484 -2.0537 0.9796
-1.6982 -4.6363 -2.1518 0.9787
-0.8581 -4.9064 -2.1708 0.9785
-0.4201 -4.9800 -2.1781 0.9784
0.4703 -4.9982 -2.1879 0.9783
2.5699 -4.2996 -2.1831 0.9784
3.2701 -3.7534 -2.1695 0.9785
3.8483 -3.0875 -2.1502 0.9787
4.2853 -2.3309 -2.1260 0.9789
4.4468 -1.9284 -2.1124 0.9791
4.5692 -1.5152 -2.0980 0.9792
4.6521 -1.0953 -2.0829 0.9794
4.7001 -0.2506 -2.0513 0.9797
4.6667 0.1668 -2.0351 0.9798
4.5964 0.5762 -2.0189 0.9800
3.9788 2.0747 -1.9556 0.9806
3.4962 2.7056 -1.9267 0.9809
2.9219 3.2374 -1.9006 0.9812
2.6064 3.4626 -1.8888 0.9813
2.2752 3.6593 -1.8779 0.9814
1.5755 3.9642 -1.8591 0.9816
1.2110 4.0682 -1.8499 0.9816
0.8410 4.1417 -1.8419 0.9817
-0.2791 4.1840 -1.8275 0.9819
-0.6493 4.1392 -1.8260 0.9819
-1.7222 3.8301 -1.8302 0.9818
-2.0587 3.6673 -1.8329 0.9818
-2.3815 3.4772 -1.8368 0.9818
-2.6885 3.2608 -1.8418 0.9817
-3.4945 2.4651 -1.8637 0.9815
-3.7185 2.1556 -1.8732 0.9814
-3.9170 1.8268 -1.8836 0.9813
-1.4869 0.5384 -0.6892 0.9931
-1.4718 0.2518 -0.6508 0.9935
-1.4286 -0.0122 -0.6227 0.9938
-1.4936 -0.4222 -0.6764 0.9933
-1.5299 -0.5837 -0.7136 0.9929
2.8695 2.9662 -1.9103 0.9820
2.5789 3.1902 -1.8988 0.9821
2.2724 3.3876 -1.8882 0.9822
1.9522 3.5576 -1.8784 0.9823
1.6207 3.6996 -1.8696 0.9824
1.2801 3.8130 -1.8618 0.9824
0.9328 3.8974 -1.8550 0.9825
-0.4795 3.9430 -1.8386 0.9826
-0.8275 3.8823 -1.8374 0.9827
-1.5024 3.6763 -1.8383 0.9826
-1.8252 3.5323 -1.8404 0.9826
-2.1357 3.3621 -1.8437 0.9826
-2.4318 3.1665 -1.8481 0.9826
-3.2146 2.4384 -1.8676 0.9824
-3.4343 2.1529 -1.8762 0.9823
-3.6304 1.8486 -1.8857 0.9822
-1.2528 0.5033 -0.6250 0.9941
-1.2750 0.1473 -0.5941 0.9944
-1.2641 0.0330 -0.5853 0.9944
-1.2700 -0.3120 -0.6053 0.9943
-1.2653 -0.4332 -0.6191 0.9941
-1.2525 -0.5576 -0.6346 0.9940
-3.2103 -3.1428 -2.0796 0.9804
-2.9380 -3.4388 -2.0936 0.9803
-2.6376 -3.7098 -2.1070 0.9801
-2.3112 -3.9530 -2.1196 0.9800
-1.9615 -4.1656 -2.1313 0.9799
-1.5914 -4.3450 -2.1419 0.9798
-1.2043 -4.4889 -2.1513 0.9797
-0.3934 -4.6635 -2.1663 0.9796
0.8552 -4.6264 -2.1778 0.9795
2.0428 -4.2316 -2.1750 0.9795
2.4062 -4.0258 -2.1710 0.9795
3.6067 -2.8936 -2.1404 0.9798
3.8302 -2.5487 -2.1296 0.9799
4.0191 -2.1861 -2.1178 0.9800
4.1722 -1.8094 -2.1050 0.9802
4.3686 -1.0285 -2.0774 0.9804
4.4114 -0.6318 -2.0628 0.9805
4.3884 0.1568 -2.0326 0.9808
4.3244 0.5421 -2.0173 0.9810
3.5363 2.2648 -1.9438 0.9817
3.2982 2.5524 -1.9305 0.9818
3.0382 2.8167 -1.9177 0.9819
1.4892 3.7471 -1.8665 0.9824
1.1458 3.8493 -1.8590 0.9825
0.7964 3.9224 -1.8527 0.9825
0.0890 3.9799 -1.8427 0.9826
-0.6154 3.9230 -1.8381 0.9826
-1.2998 3.7510 -1.8376 0.9827
-1.6292 3.6235 -1.8390 0.9826
-1.9475 3.4692 -1.8416 0.9826
-2.5426 3.0838 -1.8501 0.9825
-3.0695 2.6029 -1.8629 0.9824
-3.5134 2.0367 -1.8798 0.9823
-1.2642 0.5896 -0.6457 0.9939
-1.2620 0.4569 -0.6213 0.9941
-1.2706 0.3359 -0.6083 0.9942
-1.2603 -0.0108 -0.5834 0.9945
-1.2709 -0.2398 -0.5987 0.9943
-1.2706 -0.3591 -0.6112 0.9942
-1.2579 -0.4799 -0.6232 0.9941
2.4401 3.0185 -1.9039 0.9829
2.1507 3.2062 -1.8938 0.9829
1.8482 3.3681 -1.8845 0.9830
1.5347 3.5034 -1.8762 0.9831
1.2125 3.6116 -1.8687 0.9832
0.8837 3.6923 -1.8623 0.9832
0.5505 3.7452 -1.8569 0.9833
-0.1207 3.7677 -1.8491 0.9833
-0.4545 3.7374 -1.8468 0.9834
-0.7843 3.6798 -1.8456 0.9834
-1.1081 3.5953 -1.8454 0.9834
-1.4240 3.4844 -1.8464 0.9834
-2.0239 3.1861 -1.8515 0.9833
-2.3042 3.0004 -1.8557 0.9833
-3.2515 2.0384 -1.8824 0.9830
-1.1308 0.3411 -0.5794 0.9948
-1.1443 0.1322 -0.5650 0.9949
-1.1426 -0.0720 -0.5616 0.9949
-1.1007 -0.4900 -0.5910 0.9946
-1.1163 -0.6212 -0.6266 0.9943
-3.4513 -2.3451 -2.0468 0.9816
-3.0220 -2.9586 -2.0745 0.9813
-1.8438 -3.9156 -2.1230 0.9809
-1.4955 -4.0830 -2.1329 0.9808
-1.1314 -4.2172 -2.1418 0.9807
-0.3694 -4.3793 -2.1558 0.9806
0.8029 -4.3431 -2.1665 0.9805
1.1860 -4.2558 -2.1671 0.9805
1.5589 -4.1320 -2.1663 0.9805
1.9178 -3.9728 -2.1639 0.9805
2.2593 -3.7800 -2.1601 0.9806
2.5800 -3.5557 -2.1549 0.9806
2.8770 -3.3022 -2.1484 0.9807
3.6005 -2.3959 -2.1214 0.9809
3.7793 -2.0557 -2.1103 0.9810
3.9247 -1.7020 -2.0984 0.9811
4.1126 -0.9683 -2.0725 0.9814
4.1366 0.1478 -2.0304 0.9817
4.0779 0.5112 -2.0160 0.9819
3.8674 1.2077 -1.9874 0.9821
3.7184 1.5357 -1.9734 0.9822
3.5426 1.8472 -1.9597 0.9824
3.1179 2.4129 -1.9339 0.9826
2.8732 2.6637 -1.9219 0.9827
2.3293 3.0945 -1.8999 0.9829
1.7275 3.4239 -1.8812 0.9831
1.4104 3.5487 -1.8732 0.9831
1.0854 3.6462 -1.8661 0.9832
0.0844 3.7726 -1.8510 0.9833
-0.9110 3.6501 -1.8454 0.9834
-1.2320 3.5553 -1.8457 0.9834
-1.8457 3.2878 -1.8495 0.9833
-2.1346 3.1167 -1.8530 0.9833
-2.6672 2.7044 -1.8632 0.9832
-3.1274 2.2061 -1.8774 0.9831
-3.3261 1.9282 -1.8859 0.9830
-1.1329 0.2994 -0.5748 0.9948
-1.1417 0.1953 -0.5682 0.9949
-1.1438 0.0922 -0.5629 0.9949
-1.1353 -0.0097 -0.5569 0.9950
-1.1443 -0.1119 -0.5640 0.9949
-1.1396 -0.2150 -0.5689 0.9948
-1.1322 -0.3200 -0.5771 0.9948
2.3129 2.8611 -1.9086 0.9836
2.0391 3.0399 -1.8990 0.9836
1.7528 3.1942 -1.8902 0.9837
1.4558 3.3232 -1.8822 0.9838
1.1504 3.4266 -1.8751 0.9838
0.8386 3.5037 -1.8690 0.9839
-0.4314 3.5480 -1.8542 0.9840
-1.0520 3.4133 -1.8529 0.9840
-1.6422 3.1780 -1.8558 0.9840
-2.1869 2.8477 -1.8627 0.9840
-2.4378 2.6491 -1.8677 0.9839
-2.6720 2.4297 -1.8736 0.9839
-2.8879 2.1906 -1.8804 0.9838
-0.9667 0.4923 -0.5628 0.9951
-0.9996 0.4016 -0.5588 0.9952
-1.0282 0.2127 -0.5447 0.9953
-1.0332 0.0269 -0.5362 0.9954
-1.0366 -0.0653 -0.5388 0.9953
-1.0350 -0.1584 -0.5432 0.9953
-1.0209 -0.2508 -0.5454 0.9953
-0.9878 -0.4398 -0.5609 0.9951
-0.9493 -0.5283 -0.5636 0.9951
-2.8511 -2.7912 -2.0699 0.9822
-2.3390 -3.2899 -2.0941 0.9820
-1.7372 -3.6893 -2.1155 0.9818
-1.4087 -3.8459 -2.1248 0.9817
-1.0655 -3.9714 -2.1331 0.9816
-0.3477 -4.1225 -2.1463 0.9815
0.0200 -4.1461 -2.1509 0.9815
1.4670 -3.8885 -2.1561 0.9814
1.8050 -3.7390 -2.1539 0.9815
2.1266 -3.5579 -2.1503 0.9815
2.4288 -3.3472 -2.1454 0.9815
2.7088 -3.1092 -2.1393 0.9816
2.9642 -2.8464 -2.1320 0.9817
3.5621 -1.9375 -2.1036 0.9819
3.7004 -1.6047 -2.0924 0.9820
3.8065 -1.2623 -2.0805 0.9821
3.9302 -0.2095 -2.0418 0.9824
3.8534 0.4831 -2.0147 0.9827
3.7697 0.8180 -2.0012 0.9828
3.5178 1.4528 -1.9745 0.9830
3.3527 1.7482 -1.9615 0.9831
3.1638 2.0262 -1.9490 0.9832
2.9529 2.2852 -1.9370 0.9833
2.4730 2.7400 -1.9148 0.9835
2.2081 2.9334 -1.9048 0.9836
-0.8649 3.4653 -1.8529 0.9840
-1.1696 3.3753 -1.8532 0.9840
-1.7521 3.1210 -1.8568 0.9840
-2.5309 2.5662 -1.8698 0.9839
-2.7582 2.3390 -1.8761 0.9838
-2.9665 2.0926 -1.8833 0.9838
-1.0082 0.3651 -0.5563 0.9952
-1.0198 0.2696 -0.5472 0.9953
-1.0331 0.1767 -0.5437 0.9953
-1.0307 -0.0088 -0.5347 0.9954
-1.0377 -0.1015 -0.5409 0.9953
-1.0188 -0.2880 -0.5492 0.9952
2.4408 2.5231 -1.9227 0.9841
2.1956 2.7161 -1.9129 0.9842
1.3830 3.1570 -1.8878 0.9844
1.0931 3.2558 -1.8810 0.9845
0.4966 3.3784 -1.8702 0.9845
-0.1089 3.4000 -1.8632 0.9846
-1.0002 3.2451 -1.8599 0.9846
-1.2852 3.1448 -1.8607 0.9846
-0.8650 0.5422 -0.5591 0.9954
-0.8868 0.4515 -0.5450 0.9955
-0.9223 0.2782 -0.5276 0.9956
-0.9376 0.1940 -0.5244 0.9956
-0.9440 0.0246 -0.5172 0.9957
-0.9467 -0.0596 -0.5195 0.9957
-0.9168 -0.3139 -0.5307 0.9956
-0.9000 -0.4007 -0.5396 0.9955
-0.8755 -0.4872 -0.5488 0.9954
-2.9017 -2.3745 -2.0536 0.9830
-2.6951 -2.6385 -2.0657 0.9829
-1.3297 -3.6302 -2.1174 0.9825
-1.0055 -3.7478 -2.1252 0.9825
-0.3280 -3.8890 -2.1376 0.9824
0.3669 -3.8994 -2.1452 0.9823
0.7126 -3.8547 -2.1470 0.9823
2.0059 -3.3560 -2.1414 0.9823
2.2913 -3.1577 -2.1368 0.9824
2.5559 -2.9337 -2.1311 0.9824
2.7974 -2.6862 -2.1242 0.9825
3.2031 -2.1315 -2.1073 0.9826
3.3641 -1.8299 -2.0975 0.9827
3.4958 -1.5160 -2.0869 0.9828
1.8707 -0.6204 -1.0795 0.9911
1.8864 -0.4441 -1.0615 0.9912
1.8846 -0.1005 -1.0337 0.9914
1.8813 0.0672 -1.0311 0.9915
1.8888 0.2368 -1.0426 0.9914
3.0002 1.9214 -1.9513 0.9839
2.8011 2.1677 -1.9399 0.9840
2.0964 2.7851 -1.9092 0.9842
1.5563 3.0846 -1.8923 0.9844
0.0761 3.4041 -1.8649 0.9846
-0.2263 3.3925 -1.8622 0.9846
-0.5264 3.3559 -1.8605 0.9846
-0.8223 3.2946 -1.8598 0.9846
-1.1119 3.2089 -1.8601 0.9846
-1.3936 3.0995 -1.8613 0.9846
-1.9259 2.8120 -1.8667 0.9846
-2.6207 2.2223 -1.8820 0.9845
-0.8800 0.6208 -0.5899 0.9951
-0.8959 0.4178 -0.5414 0.9955
-0.9134 0.3307 -0.5321 0.9956
-0.9473 0.0764 -0.5205 0.9957
-0.9420 -0.0080 -0.5159 0.9957
-0.9474 -0.0927 -0.5213 0.9957
-0.9404 -0.1775 -0.5242 0.9956
-0.9241 -0.2612 -0.5259 0.9956
1.8411 2.7447 -1.9081 0.9849
1.5833 2.8853 -1.9001 0.9849
1.0400 3.0976 -1.8865 0.9850
0.4726 3.2151 -1.8762 0.9851
-0.3904 3.2108 -1.8674 0.9852
-0.6739 3.1617 -1.8664 0.9852
-1.2234 2.9936 -1.8671 0.9852
-1.4860 2.8757 -1.8689 0.9852
-1.9782 2.5759 -1.8752 0.9851
-2.2046 2.3957 -1.8797 0.9851
-0.8047 0.6104 -0.5831 0.9953
-0.8041 0.5041 -0.5479 0.9956
-0.8330 0.4242 -0.5397 0.9957
-0.8652 0.2610 -0.5218 0.9958
-0.8799 0.0229 -0.5082 0.9959
-0.8817 -0.0556 -0.5101 0.9959
-0.8807 -0.1348 -0.5144 0.9959
-0.8614 -0.2949 -0.5257 0.9958
-0.8460 -0.3766 -0.5346 0.9957
-0.8221 -0.4575 -0.5432 0.9957
-0.7970 -0.5416 -0.5564 0.9956
-2.7485 -2.2491 -2.0504 0.9837
-1.5513 -3.2945 -2.1024 0.9833
-0.9506 -3.5433 -2.1181 0.9832
-0.3100 -3.6757 -2.1297 0.9831
0.0179 -3.6959 -2.1338 0.9831
0.3467 -3.6848 -2.1368 0.9831
0.6733 -3.6424 -2.1386 0.9830
0.9946 -3.5690 -2.1391 0.9830
1.3074 -3.4653 -2.1384 0.9830
1.6087 -3.3324 -2.1364 0.9831
2.8500 -2.2865 -2.1095 0.9833
1.7323 -0.4079 -1.0275 0.9918
1.7340 0.0620 -1.0018 0.9920
1.7418 0.2184 -1.0135 0.9919
1.7199 0.5371 -1.0403 0.9917
2.8492 1.8248 -1.9535 0.9845
2.4543 2.2754 -1.9323 0.9847
1.4803 2.9338 -1.8972 0.9849
0.9311 3.1279 -1.8842 0.9850
-0.7827 3.1362 -1.8662 0.9852
-1.0585 3.0546 -1.8665 0.9852
-1.3266 2.9504 -1.8677 0.9852
-1.8330 2.6763 -1.8729 0.9851
-2.0680 2.5082 -1.8768 0.9851
-2.4933 2.1143 -1.8874 0.9850
-0.7998 0.5642 -0.5651 0.9955
-0.8419 0.3927 -0.5364 0.9957
-0.8590 0.3110 -0.5275 0.9958
-0.8692 0.2298 -0.5191 0.9959
-0.8796 0.1505 -0.5152 0.9959
-0.8782 -0.1657 -0.5160 0.9959
-0.8564 -0.3267 -0.5292 0.9958
