ply
format ascii 1.0
element vertex 1344
property float32 x
property float32 y
property float32 z
property float32 I
end_header
2.4513 -6.9015 1.2914 0.9707
12.7743 14.0355 3.3464 0.9258
7.9163 12.6521 2.6316 0.9412
6.3836 12.5842 2.4881 0.9443
1.3195 11.8549 2.1033 0.9527
0.2103 9.9170 1.7490 0.9605
-0.6683 9.7483 1.7229 0.9611
-1.5278 9.5830 1.7111 0.9614
-4.1320 9.0805 1.7591 0.9603
-5.0339 8.8597 1.7968 0.9595
-6.0200 8.6819 1.8629 0.9580
-9.4879 7.9191 2.1791 0.9510
-18.5473 6.4966 3.4652 0.9233
-7.6322 -9.9851 2.2161 0.9502
-6.9793 -11.0588 2.3058 0.9483
13.0180 14.0817 3.3814 0.9251
10.2089 13.2490 2.9492 0.9343
8.0569 12.6570 2.6456 0.9409
6.5105 12.5909 2.4993 0.9441
5.0835 12.4530 2.3717 0.9468
3.7455 12.1978 2.2499 0.9495
2.5450 12.0423 2.1703 0.9512
1.4151 11.8732 2.1084 0.9526
2.4500 -6.8979 1.1214 0.9708
12.2111 13.4166 2.7792 0.9292
10.0255 13.2224 2.5420 0.9351
5.0167 12.5676 2.0730 0.9467
3.6759 12.3115 1.9683 0.9493
2.4448 12.0299 1.8806 0.9515
1.3202 11.8607 1.8282 0.9529
0.2120 9.9967 1.5318 0.9603
-1.5678 9.8338 1.5255 0.9605
-2.4446 9.6649 1.5272 0.9605
-4.2402 9.3182 1.5683 0.9594
-6.1679 8.8942 1.6581 0.9571
-7.1085 8.5085 1.6985 0.9561
-8.2574 8.2535 1.7885 0.9539
-12.8197 7.2758 2.2582 0.9421
-14.6190 6.6439 2.4600 0.9371
-17.7245 6.2084 2.8770 0.9268
2.4052 -6.9424 1.1255 0.9707
10.1932 13.2287 2.5584 0.9347
6.6172 12.7972 2.2070 0.9434
5.1399 12.5911 2.0834 0.9465
1.4158 11.8790 1.8327 0.9527
12.6543 13.9036 2.4482 0.9270
10.2497 13.5180 2.2091 0.9339
6.5207 12.8546 1.8770 0.9435
2.5087 12.3441 1.6403 0.9505
1.3493 12.1219 1.5883 0.9520
0.2121 10.0014 1.3027 0.9605
-3.3321 9.4984 1.3108 0.9602
-4.2422 9.3226 1.3338 0.9595
-5.1925 9.1389 1.3688 0.9585
-7.2949 8.7317 1.4816 0.9551
-8.5016 8.4976 1.5653 0.9527
-12.9878 7.3712 1.9447 0.9415
-15.0633 6.8458 2.1546 0.9354
-17.5177 6.1359 2.4171 0.9279
2.4042 -6.9397 0.9564 0.9708
8.4173 13.2231 2.0412 0.9387
1.4470 12.1407 1.5922 0.9519
2.4475 -6.8908 0.7852 0.9710
12.8039 14.0679 2.0426 0.9263
6.6710 13.1508 1.5835 0.9424
5.1320 12.8564 1.4865 0.9458
2.5099 12.3503 1.3533 0.9506
1.3499 12.1277 1.3103 0.9521
-0.6830 9.9625 1.0723 0.9606
-1.6802 10.5389 1.1460 0.9580
-2.6199 10.3579 1.1473 0.9579
-4.2230 9.2803 1.0949 0.9598
-6.1742 8.9031 1.1634 0.9573
-7.2987 8.7363 1.2224 0.9552
-8.5063 8.5023 1.2915 0.9528
-9.6955 8.0923 1.3561 0.9505
-11.4487 7.9314 1.4956 0.9455
-15.1899 6.9034 1.7917 0.9351
2.4033 -6.9370 0.7883 0.9709
10.5013 13.6285 1.8475 0.9331
3.8737 12.6155 1.4171 0.9483
2.6143 12.3703 1.3577 0.9504
1.4477 12.1465 1.3135 0.9520
12.9208 14.1964 1.6250 0.9258
10.4905 13.8357 1.4698 0.9327
8.3176 13.2935 1.3275 0.9390
5.1128 12.8083 1.1675 0.9461
0.2528 11.9226 1.0095 0.9533
-0.6833 9.9671 0.8457 0.9607
-2.6334 10.4111 0.9091 0.9578
-3.4966 9.9674 0.8942 0.9585
-4.2462 9.3314 0.8679 0.9597
-6.2083 8.9524 0.9222 0.9572
-7.3025 8.7408 0.9642 0.9553
-8.5110 8.5070 1.0187 0.9528
-9.7012 8.0971 1.0697 0.9505
-11.4560 7.9365 1.1798 0.9456
2.4024 -6.9344 0.6212 0.9710
10.7383 13.9361 1.4893 0.9318
2.4449 -6.8837 0.4530 0.9711
12.9224 14.1982 1.1905 0.9259
8.3419 13.3323 0.9752 0.9389
5.1376 12.8704 0.8593 0.9460
2.5124 12.3624 0.7823 0.9507
0.2529 11.9282 0.7398 0.9533
-2.6223 10.3673 0.6631 0.9580
-3.4978 9.9708 0.6552 0.9585
-6.2114 8.9569 0.6759 0.9573
-7.3063 8.7454 0.7067 0.9554
-12.3314 8.5430 0.9302 0.9417
14.2877 8.8720 1.0429 0.9348
10.7457 13.9456 1.0917 0.9319
8.6176 13.5378 0.9951 0.9377
12.9453 14.2233 0.7583 0.9259
6.6825 13.1736 0.5825 0.9426
3.7660 12.6132 0.5190 0.9487
2.5137 12.3685 0.4977 0.9507
1.3518 12.1451 0.4819 0.9523
-0.6839 9.9762 0.3943 0.9608
-1.6903 10.6027 0.4234 0.9579
-2.6358 10.4206 0.4238 0.9579
-6.2145 8.9613 0.4300 0.9573
-7.3101 8.7499 0.4496 0.9554
-9.8873 8.2524 0.5078 0.9498
-12.3393 8.5484 0.5919 0.9417
-13.4927 7.6577 0.6117 0.9398
-15.6911 7.1311 0.6796 0.9333
-18.6991 6.5497 0.7813 0.9238
2.4006 -6.9291 0.2892 0.9711
13.1928 14.2708 0.7663 0.9252
10.7530 13.9552 0.6947 0.9319
6.8261 13.2011 0.5860 0.9422
3.8797 12.6350 0.5212 0.9485
2.6182 12.3886 0.4993 0.9506
1.4498 12.1639 0.4830 0.9521
2.4425 -6.8767 0.1233 0.9712
10.5128 13.8650 0.2939 0.9328
6.6864 13.1811 0.2497 0.9426
5.1431 12.8842 0.2343 0.9460
0.2521 11.8899 0.2009 0.9535
-1.6911 10.6075 0.1814 0.9579
-4.2522 9.3445 0.1734 0.9598
-5.2050 9.1609 0.1780 0.9587
-6.1864 8.9208 0.1834 0.9575
-8.5117 8.5077 0.2033 0.9530
-13.4909 7.6567 0.2620 0.9398
2.3997 -6.9265 0.1238 0.9711
12.8093 -4.5427 0.2296 0.9471
10.7133 13.9036 0.2965 0.9322
8.6283 13.5547 0.2714 0.9377
6.8300 13.2088 0.2512 0.9422
2.6195 12.3947 0.2140 0.9506
1.4444 12.1194 0.2062 0.9523
2.4412 -6.8732 -0.0411 0.9712
12.9649 14.2449 -0.1085 0.9258
6.6902 13.1887 -0.0833 0.9426
3.7698 12.6261 -0.0742 0.9487
2.5053 12.3275 -0.0708 0.9509
-0.6845 9.9853 -0.0564 0.9608
-2.6382 10.4301 -0.0606 0.9579
-3.5013 9.9808 -0.0596 0.9586
-4.2541 9.3488 -0.0578 0.9597
-5.2075 9.1653 -0.0593 0.9587
-6.1895 8.9253 -0.0612 0.9575
-8.5102 8.5062 -0.0677 0.9530
-15.7157 7.1423 -0.0972 0.9333
14.6652 9.1064 -0.0972 0.9333
13.2130 14.2927 -0.1096 0.9251
3.8837 12.6480 -0.0745 0.9485
1.4451 12.1252 -0.0687 0.9523
14.5903 9.2178 -0.4860 0.9333
12.9747 14.2557 -0.5428 0.9258
6.6941 13.1963 -0.4167 0.9425
5.1487 12.8981 -0.3911 0.9459
3.7718 12.6325 -0.3712 0.9486
1.3538 12.1624 -0.3446 0.9522
-0.6848 9.9899 -0.2820 0.9607
-1.6926 10.6171 -0.3027 0.9579
-3.5025 9.9841 -0.2979 0.9585
-4.2561 9.3532 -0.2894 0.9597
-5.2100 9.1697 -0.2970 0.9587
-6.1926 8.9297 -0.3060 0.9574
-7.3215 8.7635 -0.3215 0.9553
-8.5087 8.5047 -0.3387 0.9530
-12.3052 8.5248 -0.4215 0.9419
-13.4875 7.6547 -0.4367 0.9398
-15.7280 7.1479 -0.4865 0.9332
12.8712 -4.5647 -0.3845 0.9468
14.6673 9.1077 -0.4861 0.9332
13.2231 14.3036 -0.5485 0.9250
10.7751 13.9839 -0.4971 0.9318
8.6391 13.5716 -0.4530 0.9377
6.8379 13.2240 -0.4192 0.9422
3.8857 12.6545 -0.3727 0.9484
2.6108 12.3537 -0.3555 0.9507
1.4518 12.1813 -0.3454 0.9521
2.4387 -6.8663 -0.3695 0.9712
14.5853 9.2146 -0.8749 0.9332
12.8720 14.1428 -0.9698 0.9263
8.3315 13.3157 -0.7966 0.9390
6.6692 13.1473 -0.7476 0.9427
5.1514 12.9051 -0.7047 0.9459
1.3544 12.1682 -0.6209 0.9521
-0.6852 9.9945 -0.5081 0.9607
-2.6406 10.4395 -0.5461 0.9578
-5.2125 9.1741 -0.5351 0.9586
-6.2268 8.9791 -0.5542 0.9572
-7.3253 8.7681 -0.5794 0.9553
-9.9105 8.2717 -0.6547 0.9496
-13.4857 7.6538 -0.7864 0.9398
-18.2966 6.4088 -0.9832 0.9253
12.9872 -4.6058 -0.6988 0.9463
14.6694 9.1090 -0.8757 0.9332
10.5518 13.6940 -0.8767 0.9331
5.2781 12.9295 -0.7082 0.9456
2.4375 -6.8628 -0.5340 0.9712
17.7256 -7.9728 -1.4251 0.9250
13.3534 8.4364 -1.1581 0.9386
12.8818 14.1535 -1.4032 0.9261
3.6948 12.3749 -0.9469 0.9495
2.4659 12.1335 -0.9078 0.9516
1.3261 11.9134 -0.8789 0.9531
-2.6295 10.3957 -0.7862 0.9579
-5.2150 9.1785 -0.7740 0.9585
-8.3741 8.3701 -0.8681 0.9536
-9.6811 8.0803 -0.9246 0.9507
-13.4840 7.6528 -1.1368 0.9397
-15.3582 6.9799 -1.2369 0.9346
17.7574 -8.1536 -1.4327 0.9246
6.6993 12.9560 -1.0694 0.9432
5.1679 12.6597 -1.0026 0.9466
1.4221 11.9319 -0.8811 0.9529
2.4363 -6.8593 -0.6988 0.9712
13.9036 -3.4523 -1.3753 0.9441
19.6034 -3.0376 -1.9045 0.9234
14.5118 9.1682 -1.6480 0.9333
12.3141 11.3063 -1.6049 0.9350
11.1241 12.2223 -1.5866 0.9357
8.3419 13.3323 -1.5099 0.9388
6.5621 12.9362 -1.3926 0.9434
5.0467 12.6426 -1.3069 0.9468
1.3267 11.9191 -1.1514 0.9530
-0.6787 9.9005 -0.9527 0.9609
-2.6307 10.4004 -1.0299 0.9578
-6.0769 8.7630 -1.0238 0.9581
-7.1493 8.5574 -1.0705 0.9562
-9.6796 8.0790 -1.2104 0.9506
-12.3288 8.5411 -1.4399 0.9415
-15.3704 6.9854 -1.6209 0.9344
-16.9918 5.9517 -1.7285 0.9302
-17.7650 4.4845 -1.7590 0.9290
-18.4276 2.9288 -1.7913 0.9278
-9.7621 -10.6425 -1.3865 0.9436
2.3951 -6.9135 -0.7024 0.9710
16.0593 -5.6953 -1.6359 0.9338
19.4749 3.8888 -1.9066 0.9233
16.2623 8.1798 -1.7476 0.9295
14.6008 9.0664 -1.6500 0.9333
12.4147 11.2220 -1.6066 0.9350
11.2294 12.1469 -1.5881 0.9357
6.7032 12.9636 -1.4011 0.9430
5.1708 12.6666 -1.3135 0.9465
1.2431 5.8819 -0.5772 0.9761
1.4228 11.9376 -1.1542 0.9528
1.4201 -19.5983 -2.3341 0.9239
4.8651 -18.9247 -2.3211 0.9243
8.2947 -18.0421 -2.3588 0.9231
12.4385 -14.7713 -2.2939 0.9252
13.5433 -13.4320 -2.2658 0.9260
14.4983 -12.0056 -2.2360 0.9270
15.2989 -10.5110 -2.2049 0.9280
16.1926 -2.5091 -1.9464 0.9361
16.8874 -1.0837 -2.0101 0.9341
16.3010 1.8865 -1.9493 0.9360
15.8304 3.2892 -1.9206 0.9369
15.2527 4.6267 -1.8933 0.9378
14.5763 5.8924 -1.8676 0.9386
11.9720 7.5636 -1.6821 0.9446
11.1194 8.5077 -1.6631 0.9452
10.2056 9.3703 -1.6458 0.9457
9.2373 10.1492 -1.6302 0.9462
0.2127 10.0286 -1.1915 0.9604
-1.6878 10.5870 -1.2735 0.9577
-2.6319 10.4052 -1.2749 0.9577
-3.4878 9.9421 -1.2515 0.9584
-7.1530 8.5619 -1.3253 0.9561
-12.4704 7.0775 -1.7033 0.9439
-13.2249 6.0103 -1.7256 0.9432
-14.9744 2.3800 -1.8011 0.9408
-16.6280 1.1320 -1.9797 0.9351
-16.9233 -0.3669 -2.0107 0.9341
-17.0889 -1.9104 -2.0426 0.9331
-16.7346 -6.6893 -2.1408 0.9300
-16.3136 -8.2852 -2.1734 0.9289
-13.9113 -10.5583 -2.0745 0.9321
-8.6238 -7.8564 -1.3857 0.9541
-11.8622 -15.5191 -2.3203 0.9243
1.2689 -19.6275 -2.3363 0.9238
4.7160 -18.9542 -2.3201 0.9243
9.6862 -17.2033 -2.3452 0.9236
12.3359 -14.8827 -2.2962 0.9251
14.4215 -12.1323 -2.2386 0.9269
12.4099 -4.4011 -1.5641 0.9483
13.9227 -3.5722 -1.7074 0.9437
15.8557 -2.5833 -1.9083 0.9373
16.6811 0.2968 -1.9818 0.9350
16.3365 1.7620 -1.9518 0.9360
15.8756 3.1700 -1.9230 0.9369
15.3069 4.5134 -1.8956 0.9377
13.8794 6.9812 -1.8455 0.9393
11.1959 8.4290 -1.6647 0.9451
10.2871 9.2988 -1.6472 0.9457
9.3232 10.0851 -1.6314 0.9462
8.3111 10.7861 -1.6175 0.9466
7.2571 11.4005 -1.6053 0.9470
5.0476 12.3650 -1.5865 0.9476
1.1899 -16.4222 -2.3329 0.9356
4.0769 -15.8584 -2.3200 0.9360
2.4338 -6.8522 -1.0303 0.9711
8.0003 -13.9542 -2.2791 0.9371
11.1108 -11.0195 -2.2172 0.9387
12.4515 -4.3072 -1.8668 0.9482
13.0956 -3.2517 -1.9118 0.9469
14.1881 -2.1985 -2.0343 0.9436
14.1409 -0.9074 -2.0077 0.9444
13.9822 0.3575 -1.9818 0.9451
12.8939 3.9111 -1.9091 0.9470
10.9970 6.9477 -1.8431 0.9488
9.4717 7.2469 -1.6898 0.9530
7.8916 8.6707 -1.6612 0.9537
7.0323 9.2747 -1.6492 0.9541
4.2451 10.6347 -1.6224 0.9548
3.2645 10.9335 -1.6167 0.9549
0.2128 10.0334 -1.4219 0.9603
-0.6798 9.9168 -1.4084 0.9606
-3.4889 9.9455 -1.4934 0.9583
-4.1593 9.1404 -1.4229 0.9602
-7.1568 8.5664 -1.5816 0.9559
-9.1576 7.6433 -1.6901 0.9530
-9.9007 6.8590 -1.7066 0.9525
-11.7491 4.1154 -1.7639 0.9510
-14.1703 -0.3072 -2.0082 0.9443
-13.8664 -5.5428 -2.1159 0.9415
-13.4823 -6.8472 -2.1425 0.9407
-6.9249 -7.5494 -1.4515 0.9595
-7.2161 -9.4406 -1.6836 0.9531
-6.1012 -15.1135 -2.3093 0.9363
-3.3350 -16.0894 -2.3282 0.9358
2.5243 -16.2394 -2.3286 0.9358
2.3939 -6.9099 -1.0362 0.9709
6.6561 -14.7794 -2.2967 0.9366
7.8968 -14.0252 -2.2806 0.9370
9.0470 -13.1547 -2.2621 0.9375
10.0959 -12.1803 -2.2416 0.9381
11.0348 -11.1156 -2.2193 0.9387
12.5571 -8.7717 -2.1703 0.9400
13.1328 -7.5211 -2.1443 0.9407
12.1846 -5.5948 -1.8997 0.9473
12.2777 -4.3542 -1.8458 0.9487
14.0002 0.2491 -1.9840 0.9450
13.3880 2.6733 -1.9344 0.9463
12.9372 3.8147 -1.9111 0.9470
11.0685 6.8730 -1.8461 0.9487
5.2854 10.2217 -1.6305 0.9546
4.3292 10.6051 -1.6230 0.9548
3.3503 10.9107 -1.6172 0.9549
1.2155 5.7513 -0.8329 0.9765
2.2271 -13.6288 -2.2750 0.9456
3.4284 -13.3361 -2.2684 0.9457
7.7196 -11.0397 -2.2192 0.9469
6.3329 -7.5206 -1.6197 0.9609
9.4099 -9.3326 -2.1833 0.9477
10.1140 -8.3751 -2.1633 0.9482
9.9410 -6.8298 -1.9869 0.9523
12.1519 -0.7798 -2.0060 0.9518
11.8304 1.3691 -1.9619 0.9529
11.1574 3.3844 -1.9208 0.9538
10.1737 5.2167 -1.8835 0.9547
9.5789 6.0518 -1.8666 0.9551
6.8826 7.5620 -1.6845 0.9594
4.5492 8.9681 -1.6566 0.9601
3.7134 9.3026 -1.6501 0.9602
1.1008 9.8893 -1.6392 0.9605
-0.6804 9.9250 -1.6389 0.9605
-3.3159 9.4523 -1.6502 0.9602
-5.7907 8.3502 -1.6740 0.9596
-6.5566 7.8480 -1.6847 0.9594
-7.2845 7.2810 -1.6967 0.9591
-7.9689 6.6512 -1.7100 0.9588
-9.1865 5.2137 -1.7401 0.9581
-9.7088 4.4124 -1.7568 0.9577
-10.1664 3.5610 -1.7746 0.9573
-12.0161 0.8180 -1.9841 0.9523
-12.1767 -0.2640 -2.0065 0.9518
-12.2415 -1.3685 -2.0292 0.9513
-12.0690 -3.6098 -2.0753 0.9502
-11.0223 -6.9038 -2.1426 0.9486
-8.6191 -7.8521 -1.9208 0.9538
-7.0069 -7.6388 -1.7076 0.9588
-5.4931 -7.1865 -1.4901 0.9640
-4.9547 -9.6740 -1.7906 0.9569
-3.8530 -9.5445 -1.6956 0.9591
-3.9910 -13.1796 -2.2686 0.9457
-0.3473 -13.8386 -2.2805 0.9454
2.1215 -13.6484 -2.2754 0.9455
2.3934 -6.9083 -1.2044 0.9708
9.8962 -6.9129 -1.9887 0.9522
10.3685 -5.9380 -1.9684 0.9527
10.7434 -4.9331 -1.9475 0.9532
12.1573 -0.8751 -2.0080 0.9518
12.0511 0.2144 -1.9856 0.9523
11.1933 3.3005 -1.9225 0.9538
10.2222 5.1416 -1.8850 0.9547
9.6330 5.9817 -1.8680 0.9551
6.2048 8.0525 -1.6747 0.9596
3.7868 9.2764 -1.6506 0.9602
2.9318 9.5479 -1.6454 0.9603
1.2161 5.7544 -0.9689 0.9764
0.7205 6.0454 -1.0030 0.9756
0.8612 -11.8846 -2.2397 0.9527
1.9188 -11.7419 -2.2363 0.9527
9.0495 -5.0896 -1.9515 0.9586
10.3811 -3.5910 -2.0647 0.9563
10.5574 -2.6214 -2.0446 0.9567
10.6437 -0.6830 -2.0047 0.9575
10.5580 0.2700 -1.9851 0.9579
10.3904 1.2024 -1.9660 0.9583
9.8244 2.9801 -1.9297 0.9591
9.4344 3.8138 -1.9127 0.9594
8.4631 5.3468 -1.8816 0.9601
7.8914 6.0378 -1.8676 0.9604
5.4422 7.1775 -1.6931 0.9640
4.7542 7.5983 -1.6847 0.9642
3.2973 8.2603 -1.6717 0.9644
2.5376 8.4990 -1.6672 0.9645
1.1682 5.7479 -1.1025 0.9764
0.9781 8.7877 -1.6619 0.9647
-0.6047 8.8214 -1.6620 0.9647
-2.1751 8.5994 -1.6672 0.9645
-4.4282 7.7937 -1.6849 0.9642
-5.1335 7.4026 -1.6932 0.9640
-5.8083 6.9523 -1.7028 0.9638
-6.4478 6.4448 -1.7135 0.9636
-8.1076 4.6014 -1.7522 0.9628
-10.3320 1.6421 -1.9664 0.9583
-10.5390 0.7174 -1.9855 0.9579
-10.6651 -0.2312 -2.0051 0.9575
-10.6611 -2.1720 -2.0450 0.9567
-10.5260 -3.1482 -2.0651 0.9563
-9.9822 -5.0696 -2.1044 0.9555
-9.0749 -6.8876 -2.1414 0.9547
-7.9376 -7.2312 -2.0182 0.9572
-5.4892 -7.1815 -1.6990 0.9639
-4.9368 -9.6391 -2.0356 0.9569
-4.4278 -10.9682 -2.2232 0.9530
-3.4397 -11.3593 -2.2308 0.9528
-2.4149 -11.6504 -2.2364 0.9527
-1.0383 -9.0094 -1.7046 0.9638
-0.2991 -11.9186 -2.2409 0.9526
1.8278 -11.7584 -2.2367 0.9527
2.8662 -11.5198 -2.2313 0.9528
3.6449 -8.0934 -1.6684 0.9645
5.7506 -10.2133 -2.2031 0.9534
6.6027 -9.6005 -2.1901 0.9537
7.3863 -8.9112 -2.1755 0.9540
8.0907 -6.8064 -1.9873 0.9579
9.3558 -4.2959 -1.9350 0.9590
10.2840 -3.6471 -2.0509 0.9566
10.6403 -1.7336 -2.0263 0.9571
10.6471 -0.7664 -2.0064 0.9575
10.4081 1.1226 -1.9677 0.9583
10.1688 2.0305 -1.9491 0.9587
9.8550 2.9059 -1.9312 0.9590
9.4708 3.7431 -1.9141 0.9594
9.0210 4.5374 -1.8980 0.9597
7.9430 5.9800 -1.8688 0.9603
4.1008 7.9307 -1.6782 0.9643
3.3624 8.2367 -1.6722 0.9644
2.6041 8.4808 -1.6675 0.9645
1.2167 5.7574 -1.1061 0.9763
0.7555 -10.4266 -2.2097 0.9582
2.5937 -10.0890 -2.2020 0.9583
4.4878 -5.3295 -1.4728 0.9719
7.1780 -5.9439 -1.9699 0.9626
7.6238 -5.2379 -1.9552 0.9629
7.9987 -4.4986 -1.9398 0.9632
8.7751 -3.9469 -2.0339 0.9614
9.3622 -2.3247 -2.0391 0.9613
9.4596 -0.6070 -2.0037 0.9620
9.2543 1.0710 -1.9692 0.9626
9.0447 1.8793 -1.9527 0.9629
8.0283 4.1166 -1.9071 0.9638
7.0673 5.4073 -1.8810 0.9643
6.5053 5.9729 -1.8668 0.9645
5.5476 6.0953 -1.7422 0.9669
4.8833 6.4405 -1.7085 0.9675
3.6265 7.1490 -1.6945 0.9678
1.1688 5.7509 -1.2405 0.9763
0.8793 7.9002 -1.6803 0.9680
0.1685 7.9444 -1.6797 0.9680
-1.9548 7.7284 -1.6851 0.9679
-2.6454 7.5410 -1.6892 0.9679
-3.3204 7.2968 -1.6946 0.9678
-5.2088 6.2347 -1.7173 0.9673
-6.3113 5.2677 -1.7377 0.9669
-7.7143 3.5059 -1.7912 0.9659
-8.6358 3.0249 -1.9342 0.9633
-8.9583 2.2614 -1.9530 0.9629
-9.5050 -1.0626 -2.0217 0.9617
-9.4539 -1.9260 -2.0394 0.9613
-8.8229 -4.4809 -2.0917 0.9604
-4.3750 -8.5421 -2.0287 0.9615
0.9310 -5.9896 -1.2813 0.9755
2.5157 -10.1111 -2.2025 0.9583
2.3386 -6.7503 -1.5101 0.9712
6.6161 -6.6645 -1.9850 0.9623
7.5879 -5.3005 -1.9565 0.9629
8.6561 -3.9746 -2.0134 0.9618
9.4618 -0.6811 -2.0052 0.9620
9.0656 1.8102 -1.9541 0.9629
8.7945 2.5932 -1.9381 0.9632
8.4598 3.3435 -1.9228 0.9635
8.0652 4.0567 -1.9083 0.9638
7.6148 4.7285 -1.8947 0.9640
5.6507 6.1124 -1.7596 0.9665
4.3226 6.7905 -1.7015 0.9676
3.6830 7.1228 -1.6950 0.9677
3.0209 7.4002 -1.6896 0.9678
0.7210 6.0495 -1.2878 0.9754
0.6235 -8.6051 -2.0277 0.9652
0.9706 -5.9397 -1.4145 0.9756
2.1414 -8.3298 -2.0213 0.9653
2.3936 -6.7393 -1.6808 0.9710
2.5870 -5.6271 -1.4556 0.9749
4.2347 -7.3861 -2.0010 0.9656
5.9504 -5.9015 -1.9696 0.9662
6.8182 -4.6844 -1.9442 0.9666
7.4774 -4.2054 -2.0162 0.9654
8.0172 -3.6061 -2.0661 0.9645
8.4019 -2.0862 -2.0346 0.9651
8.4881 -1.3153 -2.0187 0.9653
8.5044 -0.5457 -2.0029 0.9656
8.4526 0.2161 -1.9872 0.9659
7.9093 2.3992 -1.9425 0.9666
5.3476 5.8755 -1.8672 0.9679
3.8688 6.1833 -1.7142 0.9705
2.0690 6.9297 -1.6997 0.9707
0.7980 7.1692 -1.6953 0.9708
0.1529 7.2096 -1.6948 0.9708
-0.4934 7.1967 -1.6954 0.9708
-3.0108 6.6164 -1.7084 0.9706
-3.6035 6.3422 -1.7144 0.9705
-4.1736 6.0183 -1.7213 0.9704
-5.2304 5.2279 -1.7380 0.9701
-6.1500 4.2606 -1.7584 0.9697
-7.4529 3.3871 -1.9240 0.9669
-7.8016 2.7327 -1.9428 0.9666
-8.3598 -2.5004 -2.0507 0.9648
-8.1641 -3.2634 -2.0664 0.9645
-7.5594 -4.7349 -2.0964 0.9640
-7.1530 -5.4289 -2.1105 0.9638
-5.1466 -6.7332 -1.9918 0.9658
-4.5444 -7.2006 -2.0011 0.9656
-3.8972 -7.6093 -2.0093 0.9655
-2.4927 -8.2319 -2.0214 0.9653
-1.7491 -8.4383 -2.0253 0.9652
-0.9878 -8.5711 -2.0277 0.9652
0.5566 -8.6103 -2.0278 0.9652
2.3330 -6.7341 -1.6750 0.9711
6.7856 -4.7401 -1.9454 0.9666
7.3821 -4.2277 -1.9993 0.9656
8.3911 -2.1529 -2.0360 0.9650
8.5058 -0.6123 -2.0042 0.9656
8.4597 0.1505 -1.9885 0.9658
7.6367 3.0182 -1.9299 0.9668
7.2858 3.6647 -1.9167 0.9670
5.9413 5.3705 -1.8822 0.9676
5.3974 5.8385 -1.8687 0.9679
3.3396 6.4585 -1.7088 0.9706
2.1232 6.9146 -1.7000 0.9707
1.2180 5.7633 -1.3844 0.9761
0.7212 6.0515 -1.4323 0.9753
0.5610 -7.7427 -2.0100 0.9684
0.9702 -5.9371 -1.5576 0.9754
1.9274 -7.4973 -2.0043 0.9685
2.3877 -6.7226 -1.8471 0.9710
3.8153 -6.6547 -1.9861 0.9688
4.8967 -5.8151 -1.9683 0.9691
5.3694 -5.3253 -1.9580 0.9692
5.7917 -4.7959 -1.9470 0.9694
6.9788 -3.9250 -2.0731 0.9675
7.2537 -3.2626 -2.0593 0.9677
7.6965 -1.1926 -2.0165 0.9683
7.6754 0.1963 -1.9880 0.9688
7.4132 1.5403 -1.9604 0.9692
6.6080 3.3884 -1.9227 0.9698
6.2414 3.9431 -1.9115 0.9700
5.8311 4.4615 -1.9010 0.9701
4.8941 5.3773 -1.8826 0.9704
4.3614 5.7521 -1.8690 0.9706
3.0052 5.9242 -1.7200 0.9729
1.1700 5.7569 -1.5210 0.9760
-0.4512 6.5812 -1.7080 0.9731
-1.0395 6.5202 -1.7095 0.9731
-2.7515 6.0466 -1.7201 0.9729
-3.8117 5.4965 -1.7319 0.9727
-4.3065 5.1547 -1.7391 0.9726
-5.2073 4.3462 -1.7562 0.9724
-6.4388 3.6543 -1.9169 0.9699
-6.8035 3.0920 -1.9349 0.9696
-7.0989 2.4865 -1.9475 0.9694
-7.5306 1.1969 -1.9743 0.9690
-7.6613 0.5215 -1.9882 0.9688
-7.7321 -0.1676 -2.0024 0.9685
-7.7412 -0.8654 -2.0168 0.9683
-7.5690 -2.2638 -2.0455 0.9679
-7.3864 -2.9526 -2.0596 0.9677
-7.1398 -3.6261 -2.0734 0.9675
-6.0278 -5.4914 -2.1112 0.9669
-5.5409 -6.0406 -2.1223 0.9667
-5.0015 -6.5434 -2.1324 0.9665
-2.8910 -7.1613 -1.9996 0.9686
-2.2436 -7.4092 -2.0044 0.9685
-1.5740 -7.5935 -2.0079 0.9685
-0.8888 -7.7121 -2.0100 0.9684
-0.1563 -6.2301 -1.6136 0.9746
0.5009 -7.7473 -2.0101 0.9684
0.9303 -5.9849 -1.5682 0.9753
2.5514 -5.6652 -1.6087 0.9747
3.7647 -6.6864 -1.9868 0.9688
4.3301 -6.2961 -1.9785 0.9689
5.3304 -5.3694 -1.9590 0.9692
5.7571 -4.8432 -1.9479 0.9694
7.2323 -3.3209 -2.0605 0.9677
7.4494 -2.6419 -2.0465 0.9679
7.6025 -1.9506 -2.0322 0.9681
7.7177 -0.5555 -2.0034 0.9685
7.4294 1.4835 -1.9616 0.9692
7.2179 2.1283 -1.9484 0.9694
6.9530 2.7480 -1.9358 0.9696
6.2749 3.8964 -1.9124 0.9699
4.9376 5.3411 -1.8833 0.9704
2.5046 6.1354 -1.7158 0.9730
1.9412 6.3218 -1.7123 0.9730
1.2186 5.7663 -1.5260 0.9759
0.7231 6.0670 -1.5820 0.9751
0.5094 -7.0299 -1.9953 0.9711
0.9698 -5.9345 -1.7023 0.9753
2.5849 -5.6225 -1.7518 0.9746
3.9801 -5.6920 -1.9662 0.9715
4.4544 -5.2898 -1.9577 0.9717
4.8867 -4.8466 -1.9484 0.9718
6.0509 -4.1572 -2.0783 0.9699
6.8132 -2.3568 -2.0409 0.9705
7.0222 0.1796 -1.9886 0.9712
6.7904 1.4109 -1.9634 0.9716
6.5960 2.0008 -1.9513 0.9718
6.0626 3.1087 -1.9287 0.9721
4.4979 4.9419 -1.8917 0.9726
4.0219 5.3044 -1.8845 0.9727
2.8208 5.5607 -1.7652 0.9744
2.2599 5.6615 -1.7257 0.9750
1.2101 5.9545 -1.7201 0.9751
0.6716 6.0341 -1.7188 0.9751
0.1287 6.0684 -1.7183 0.9751
-1.4921 5.8989 -1.7225 0.9750
-2.0180 5.7524 -1.7258 0.9750
-2.5310 5.5620 -1.7299 0.9749
-3.0275 5.3285 -1.7350 0.9748
-3.5043 5.0532 -1.7408 0.9748
-4.3848 4.3827 -1.7550 0.9746
-5.5525 3.8466 -1.9122 0.9723
-5.9260 3.3633 -1.9290 0.9721
-6.5061 2.2789 -1.9515 0.9717
-6.8937 1.0957 -1.9761 0.9714
-7.0092 0.4772 -1.9888 0.9712
-6.9078 -2.0661 -2.0411 0.9705
-6.5084 -3.3054 -2.0665 0.9701
-6.2224 -3.8974 -2.0785 0.9699
-5.8808 -4.4634 -2.0900 0.9698
-5.4859 -4.9977 -2.1008 0.9696
-5.0403 -5.4949 -2.1109 0.9695
-4.5477 -5.9497 -2.1200 0.9693
-4.0122 -6.3573 -2.1282 0.9692
-3.2316 -6.3098 -2.0069 0.9710
-2.6261 -6.5051 -1.9860 0.9713
-1.4292 -6.8951 -1.9934 0.9712
-0.1769 -7.0486 -1.9960 0.9711
0.4547 -7.0340 -1.9954 0.9711
0.9301 -5.9833 -1.7142 0.9751
2.2969 -6.6298 -1.9863 0.9713
3.4218 -6.0773 -1.9744 0.9714
6.0214 -4.2062 -2.0793 0.9699
6.3369 -3.6291 -2.0673 0.9701
6.5963 -3.0288 -2.0548 0.9703
6.7984 -2.4110 -2.0420 0.9705
7.0282 -1.1451 -2.0159 0.9708
7.0562 -0.5079 -2.0027 0.9710
7.0274 0.1250 -1.9897 0.9712
6.9430 0.7488 -1.9769 0.9714
6.6149 1.9505 -1.9523 0.9717
6.3755 2.5198 -1.9407 0.9719
6.0895 3.0629 -1.9297 0.9721
5.3888 4.0570 -1.9095 0.9723
4.5378 4.9086 -1.8924 0.9726
4.0643 5.2746 -1.8851 0.9727
3.5530 5.5816 -1.8731 0.9729
2.8805 5.5706 -1.7754 0.9743
1.7863 5.8172 -1.7227 0.9750
0.7186 6.0290 -1.7188 0.9751
0.4659 -6.4303 -1.9830 0.9734
0.9693 -5.9318 -1.8487 0.9752
3.1750 -5.5379 -1.9634 0.9736
3.6452 -5.2130 -1.9565 0.9737
5.2135 -4.3171 -2.0820 0.9721
6.2595 -2.1652 -2.0372 0.9727
6.4681 -1.0023 -2.0132 0.9730
6.4650 0.1653 -1.9891 0.9733
6.3862 0.7391 -1.9774 0.9735
6.0817 1.8448 -1.9548 0.9738
5.8599 2.3688 -1.9441 0.9739
4.9456 3.7840 -1.9154 0.9743
4.5672 4.1934 -1.9071 0.9744
3.2533 5.1995 -1.8865 0.9747
1.6105 5.3941 -1.7315 0.9767
1.1198 5.5098 -1.7293 0.9767
-0.3842 5.6051 -1.7281 0.9768
-1.3805 5.4577 -1.7315 0.9767
-1.8668 5.3215 -1.7346 0.9767
-2.3409 5.1444 -1.7384 0.9766
-3.2396 4.6716 -1.7486 0.9765
-3.6578 4.3783 -1.7548 0.9764
-4.1890 4.1870 -1.8217 0.9755
-4.7662 3.9781 -1.9095 0.9744
-5.4687 3.1037 -1.9341 0.9740
-5.9986 2.1012 -1.9550 0.9738
-6.3499 1.0092 -1.9776 0.9735
-6.4529 0.4393 -1.9894 0.9733
-6.5052 -0.1410 -2.0013 0.9731
-6.5055 -0.7272 -2.0134 0.9730
-6.3463 -1.8981 -2.0374 0.9727
-4.1650 -5.4490 -2.1095 0.9717
-3.6733 -5.8204 -2.1170 0.9716
-3.1470 -6.1445 -2.1234 0.9715
-1.8642 -6.1562 -1.9784 0.9734
-1.3074 -6.3075 -1.9813 0.9734
-0.1618 -6.4472 -1.9836 0.9734
2.1018 -6.0667 -1.9748 0.9735
3.1327 -5.5639 -1.9640 0.9736
3.6057 -5.2428 -1.9571 0.9737
4.0551 -4.8926 -1.9546 0.9738
5.5236 -3.8585 -2.0724 0.9722
5.8158 -3.3307 -2.0614 0.9723
6.4634 -1.0531 -2.0142 0.9730
6.4926 -0.4673 -2.0022 0.9731
6.4694 0.1151 -1.9902 0.9733
6.2709 1.2522 -1.9669 0.9736
6.0988 1.7983 -1.9557 0.9737
5.6195 2.8265 -1.9348 0.9740
5.3172 3.3017 -1.9251 0.9741
4.6014 4.1593 -1.9078 0.9744
4.1938 4.5365 -1.9002 0.9745
3.7573 4.8762 -1.8934 0.9746
3.2952 5.1766 -1.8874 0.9746
2.8029 5.4207 -1.8770 0.9748
2.2194 5.4368 -1.8062 0.9757
1.6527 5.3822 -1.7317 0.9767
0.9562 -5.8515 -1.9709 0.9753
1.4743 -5.7347 -1.9682 0.9753
1.9781 -5.5694 -1.9646 0.9754
2.9313 -5.1127 -1.9590 0.9755
3.4874 -4.9873 -2.0229 0.9747
4.4522 -4.4156 -2.0843 0.9739
5.1217 -3.5188 -2.0656 0.9741
5.6104 -2.5235 -2.0449 0.9744
5.7829 -2.0004 -2.0340 0.9745
5.9810 -0.9268 -2.0118 0.9748
5.9836 0.1530 -1.9896 0.9751
5.9132 0.6843 -1.9787 0.9752
5.7969 1.2045 -1.9681 0.9754
5.6360 1.7096 -1.9577 0.9755
5.4327 2.1961 -1.9478 0.9756
5.1889 2.6607 -1.9384 0.9757
4.9072 3.1003 -1.9294 0.9758
4.2401 3.8931 -1.9134 0.9760
3.4538 4.5551 -1.9002 0.9762
2.5715 5.0692 -1.8894 0.9763
1.0603 5.2173 -1.7697 0.9778
-0.8229 5.1615 -1.7374 0.9782
-1.2832 5.0731 -1.7394 0.9782
-2.1753 4.7805 -1.7458 0.9781
-2.6011 4.5780 -1.7502 0.9781
-3.0602 4.4128 -1.7850 0.9776
-3.5899 4.2969 -1.8612 0.9767
-4.7718 3.3058 -1.9296 0.9758
-5.3352 2.4247 -1.9480 0.9756
-5.8795 0.9345 -1.9789 0.9752
-5.9723 0.4066 -1.9898 0.9751
-5.8631 -1.7536 -2.0342 0.9745
-5.7129 -2.2836 -2.0451 0.9744
-5.5138 -2.8003 -2.0556 0.9743
-4.6357 -4.2232 -2.0845 0.9739
-4.2561 -4.6399 -2.0929 0.9738
-3.8376 -5.0206 -2.1006 0.9737
-3.3836 -5.3613 -2.1074 0.9736
-2.3854 -5.9090 -2.1182 0.9735
-1.8216 -6.0157 -2.0893 0.9739
-1.2262 -5.9158 -2.0082 0.9749
0.9108 -5.8593 -1.9711 0.9753
1.9351 -5.5856 -1.9650 0.9754
2.8858 -5.1258 -1.9553 0.9755
4.4193 -4.4517 -2.0851 0.9739
4.7793 -4.0206 -2.0761 0.9740
5.0963 -3.5600 -2.0664 0.9741
5.3682 -3.0743 -2.0563 0.9743
5.5931 -2.5682 -2.0458 0.9744
5.8978 -1.5132 -2.0240 0.9747
6.0062 -0.4323 -2.0017 0.9749
5.9874 0.1065 -1.9906 0.9751
5.8087 1.1599 -1.9690 0.9753
5.4519 2.1548 -1.9487 0.9756
3.4900 4.5293 -1.9007 0.9762
2.6119 5.0512 -1.8902 0.9763
2.1396 5.2413 -1.8818 0.9764
1.1042 5.2250 -1.7752 0.9777
0.4055 -5.5958 -2.0064 0.9764
1.3895 -5.4049 -1.9957 0.9766
1.8839 -5.3042 -2.0129 0.9764
4.1255 -4.0916 -2.0778 0.9756
5.3681 -1.8569 -2.0313 0.9762
5.5563 -0.8610 -2.0107 0.9764
5.4998 0.6365 -1.9799 0.9768
5.0583 2.0448 -1.9511 0.9771
4.5720 2.8885 -1.9340 0.9773
3.9528 3.6293 -1.9190 0.9775
3.5997 3.9550 -1.9124 0.9775
2.3998 4.7309 -1.8970 0.9777
1.5096 5.0560 -1.8870 0.9778
1.0481 5.1570 -1.8819 0.9779
0.5688 5.1101 -1.8387 0.9784
0.1066 5.0270 -1.7981 0.9789
-1.6451 4.6895 -1.7772 0.9791
-2.0921 4.5976 -1.8064 0.9788
-2.5567 4.4998 -1.8508 0.9783
-3.0277 4.3659 -1.8999 0.9777
-4.1355 3.4517 -1.9263 0.9774
-4.7240 2.6811 -1.9424 0.9772
-5.1741 1.8124 -1.9605 0.9770
-5.3417 1.3484 -1.9702 0.9769
-5.5929 -0.1213 -2.0005 0.9765
-5.5883 -0.6247 -2.0109 0.9764
-5.4425 -1.6278 -2.0315 0.9762
-5.1143 -2.5974 -2.0513 0.9759
-4.6099 -3.4988 -2.0696 0.9757
-4.2955 -3.9133 -2.0780 0.9756
-3.1328 -4.9639 -2.0991 0.9754
-2.6827 -5.2380 -2.1045 0.9753
-2.2077 -5.4689 -2.1090 0.9753
-1.7122 -5.6542 -2.1126 0.9752
-1.2005 -5.7919 -2.1152 0.9752
-0.1430 -5.6969 -2.0379 0.9761
0.8565 -5.5099 -1.9940 0.9766
1.3469 -5.4134 -1.9949 0.9766
2.8685 -5.0946 -2.0908 0.9755
4.0949 -4.1249 -2.0785 0.9756
4.7253 -3.3009 -2.0613 0.9758
5.1897 -2.3830 -2.0422 0.9760
5.4766 -1.4051 -2.0219 0.9763
5.5817 -0.4018 -2.0012 0.9765
5.5664 0.0990 -1.9909 0.9766
5.2602 1.5511 -1.9612 0.9770
4.5960 2.8539 -1.9347 0.9773
4.3046 3.2408 -1.9268 0.9774
2.8559 4.4864 -1.9018 0.9777
1.5493 5.0455 -1.8875 0.9778
0.3976 -5.4870 -2.1082 0.9767
0.8866 -5.4256 -2.1068 0.9767
2.7148 -4.7352 -2.0917 0.9769
3.4950 -4.1504 -2.0793 0.9770
4.1490 -3.4356 -2.0643 0.9772
4.4220 -3.0381 -2.0560 0.9773
4.6564 -2.6188 -2.0473 0.9774
4.8505 -2.1817 -2.0382 0.9775
5.0033 -1.7307 -2.0288 0.9776
5.1922 0.1328 -1.9904 0.9780
5.1349 0.5942 -1.9809 0.9781
5.0374 1.0467 -1.9717 0.9782
4.7273 1.9110 -1.9540 0.9784
4.5181 2.3167 -1.9457 0.9785
4.2753 2.7010 -1.9379 0.9786
4.0012 3.0614 -1.9307 0.9787
3.3685 3.7010 -1.9178 0.9788
3.0149 3.9763 -1.9123 0.9789
2.6401 4.2195 -1.9074 0.9789
1.4164 4.7438 -1.8972 0.9790
-0.7720 4.8424 -1.8791 0.9792
-1.2035 4.7581 -1.8808 0.9792
-2.0507 4.5067 -1.8974 0.9790
-3.2087 3.8407 -1.9179 0.9788
-3.8681 3.2285 -1.9308 0.9786
-4.1573 2.8801 -1.9381 0.9786
-4.6424 2.1098 -1.9542 0.9784
-4.9890 1.2594 -1.9718 0.9782
-5.1056 0.8115 -1.9811 0.9781
-2.2944 -0.0497 -0.8795 0.9902
-2.3022 -0.2574 -0.8878 0.9901
-5.0726 -1.5172 -2.0290 0.9776
-4.9391 -1.9743 -2.0384 0.9775
-4.7636 -2.4193 -2.0474 0.9774
-4.5472 -2.8482 -2.0562 0.9773
-4.2912 -3.2569 -2.0645 0.9772
-3.9974 -3.6417 -2.0723 0.9771
-2.9133 -4.6161 -2.0918 0.9769
-2.4943 -4.8701 -2.0969 0.9768
-1.5915 -5.2557 -2.1044 0.9768
-1.1158 -5.3832 -2.1068 0.9767
-0.6298 -5.4653 -2.1083 0.9767
-0.1380 -5.5011 -2.1088 0.9767
0.3549 -5.4902 -2.1083 0.9767
0.8445 -5.4327 -2.1069 0.9767
1.7950 -5.1812 -2.1013 0.9768
2.2472 -4.9898 -2.0972 0.9768
3.8106 -3.8385 -2.0728 0.9771
4.1235 -3.4690 -2.0650 0.9772
4.3998 -3.0735 -2.0567 0.9773
4.6376 -2.6560 -2.0480 0.9774
4.8353 -2.2202 -2.0390 0.9775
4.9917 -1.7703 -2.0297 0.9776
5.1781 -0.8436 -2.0105 0.9778
5.2077 -0.3749 -2.0008 0.9779
5.1952 0.0924 -1.9912 0.9780
5.0474 1.0079 -1.9724 0.9782
4.9143 1.4491 -1.9634 0.9783
3.7255 3.3675 -1.9245 0.9787
3.3980 3.6757 -1.9183 0.9788
3.0465 3.9537 -1.9127 0.9788
2.6734 4.1998 -1.9078 0.9789
1.8740 4.5906 -1.9001 0.9790
1.4534 4.7331 -1.8974 0.9790
1.0218 4.8351 -1.8938 0.9791
0.5838 4.8979 -1.8902 0.9791
0.3709 -5.1193 -2.1007 0.9781
1.7124 -4.8211 -2.0939 0.9781
2.1331 -4.6398 -2.0900 0.9782
2.5342 -4.4202 -2.0853 0.9782
2.9122 -4.1647 -2.0799 0.9783
3.2637 -3.8758 -2.0738 0.9783
3.5860 -3.5565 -2.0671 0.9784
3.8763 -3.2098 -2.0598 0.9785
4.1325 -2.8392 -2.0520 0.9786
4.3527 -2.4481 -2.0439 0.9786
4.7848 -1.1881 -2.0178 0.9789
4.8502 -0.7516 -2.0087 0.9790
4.7203 0.9808 -1.9732 0.9794
4.4322 1.7917 -1.9566 0.9795
4.2371 2.1727 -1.9488 0.9796
3.4706 3.1865 -1.9283 0.9798
3.1618 3.4740 -1.9225 0.9799
1.3304 4.4557 -1.9032 0.9801
0.9252 4.5526 -1.9014 0.9801
0.5136 4.6145 -1.9003 0.9801
0.0983 4.6378 -1.8986 0.9802
-0.7303 4.5806 -1.8984 0.9802
-1.1385 4.5011 -1.9002 0.9801
-1.5394 4.3882 -1.9033 0.9801
-1.9305 4.2424 -1.9076 0.9801
-2.3089 4.0637 -1.9129 0.9800
-3.0119 3.6051 -1.9227 0.9799
-3.3326 3.3310 -1.9284 0.9798
-3.8997 2.7016 -1.9417 0.9797
-4.1415 2.3505 -1.9490 0.9796
-4.5310 1.5871 -1.9649 0.9795
-2.1186 0.5348 -0.8943 0.9906
-1.9958 -0.0433 -0.8170 0.9914
-2.0776 -0.4233 -0.8678 0.9909
-4.7446 -1.4191 -2.0268 0.9788
-4.6183 -1.8461 -2.0356 0.9787
-4.2495 -2.6617 -2.0522 0.9786
-4.0092 -3.0429 -2.0599 0.9785
-3.4253 -3.7342 -2.0739 0.9783
-2.3280 -4.5453 -2.0901 0.9782
-1.9153 -4.7444 -2.0940 0.9781
-1.4850 -4.9040 -2.0971 0.9781
-1.0411 -5.0226 -2.0993 0.9781
-0.5876 -5.0990 -2.1007 0.9781
0.3311 -5.1222 -2.1008 0.9781
0.7879 -5.0688 -2.0995 0.9781
1.6751 -4.8350 -2.0942 0.9781
2.0973 -4.6570 -2.0904 0.9782
2.8804 -4.1882 -2.0804 0.9783
3.2344 -3.9021 -2.0743 0.9783
3.5593 -3.5853 -2.0677 0.9784
4.6688 -1.6558 -2.0274 0.9788
4.7773 -1.2257 -2.0185 0.9789
4.8461 -0.7895 -2.0095 0.9790
4.8163 0.5195 -1.9826 0.9793
4.7295 0.9444 -1.9739 0.9794
4.6062 1.3582 -1.9654 0.9795
4.4476 1.7578 -1.9573 0.9795
4.2553 2.1404 -1.9495 0.9796
3.4962 3.1603 -1.9289 0.9798
2.8600 3.7117 -1.9178 0.9800
2.5102 3.9434 -1.9132 0.9800
1.7600 4.3115 -1.9059 0.9801
0.5495 4.6106 -1.9003 0.9801
0.3472 -4.7921 -2.0940 0.9793
0.7744 -4.7389 -2.0927 0.9793
1.9974 -4.3447 -2.0840 0.9794
2.3734 -4.1396 -2.0796 0.9794
3.0577 -3.6311 -2.0688 0.9795
3.3602 -3.3326 -2.0626 0.9796
3.6331 -3.0085 -2.0558 0.9796
3.8741 -2.6617 -2.0485 0.9797
4.0816 -2.2956 -2.0409 0.9798
4.2541 -1.9135 -2.0329 0.9799
4.4903 -1.1150 -2.0164 0.9800
4.5530 -0.7055 -2.0079 0.9801
4.5784 -0.2938 -1.9995 0.9802
4.5192 0.5230 -1.9827 0.9803
4.4358 0.9217 -1.9745 0.9804
4.1672 1.6846 -1.9589 0.9806
3.9848 2.0433 -1.9516 0.9807
3.2659 2.9986 -1.9323 0.9808
2.9759 3.2697 -1.9268 0.9809
2.3339 3.7301 -1.9177 0.9810
1.9868 3.9166 -1.9140 0.9810
1.6256 4.0723 -1.9109 0.9810
0.8714 4.2877 -1.9068 0.9811
0.4838 4.3461 -1.9058 0.9811
-0.2991 4.3628 -1.9058 0.9811
-1.4515 4.1376 -1.9110 0.9810
-2.1738 3.8259 -1.9177 0.9810
-3.1360 3.1345 -1.9324 0.9808
-3.4146 2.8500 -1.9384 0.9808
-4.0924 1.8599 -1.9591 0.9806
-1.4897 0.5218 -0.6879 0.9931
-1.4732 0.2341 -0.6501 0.9935
-1.4714 -0.1645 -0.6452 0.9936
-1.4938 -0.4468 -0.6795 0.9932
-4.3318 -1.7315 -2.0331 0.9799
-3.9838 -2.4952 -2.0487 0.9797
-3.4987 -3.1874 -2.0627 0.9796
-2.5468 -4.0355 -2.0797 0.9794
-2.1799 -4.2562 -2.0841 0.9794
-1.3902 -4.5911 -2.0906 0.9793
-0.1206 -4.8042 -2.0944 0.9792
0.3100 -4.7948 -2.0940 0.9793
1.5683 -4.5269 -2.0879 0.9793
2.3416 -4.1588 -2.0800 0.9794
3.8545 -2.6926 -2.0492 0.9797
4.2406 -1.9471 -2.0336 0.9798
4.4832 -1.1503 -2.0171 0.9800
4.5490 -0.7411 -2.0087 0.9801
4.5777 -0.3295 -2.0002 0.9802
4.5694 0.0813 -1.9917 0.9803
4.5247 0.4880 -1.9834 0.9803
4.3296 1.2766 -1.9672 0.9805
4.1816 1.6527 -1.9596 0.9806
3.7920 2.3547 -1.9453 0.9807
3.5540 2.6757 -1.9388 0.9808
3.2900 2.9739 -1.9328 0.9808
2.0175 3.9016 -1.9143 0.9810
1.6574 4.0600 -1.9112 0.9810
0.9047 4.2810 -1.9070 0.9811
1.8758 -4.0800 -2.0786 0.9804
2.2291 -3.8880 -2.0745 0.9804
2.5623 -3.6644 -2.0697 0.9805
2.8727 -3.4114 -2.0644 0.9805
3.1575 -3.1316 -2.0585 0.9806
3.4146 -2.8275 -2.0521 0.9806
3.8378 -2.1585 -2.0382 0.9808
4.1303 -1.4287 -2.0230 0.9809
4.2252 -1.0491 -2.0152 0.9810
4.2852 -0.6640 -2.0072 0.9811
3.9277 1.5877 -1.9610 0.9815
3.7566 1.9262 -1.9541 0.9816
2.8075 3.0847 -1.9307 0.9818
1.8751 3.6964 -1.9186 0.9819
1.5343 3.8436 -1.9157 0.9819
0.0875 4.1265 -1.9105 0.9820
-0.2823 4.1185 -1.9108 0.9820
-0.6503 4.0787 -1.9118 0.9820
-1.3700 3.9053 -1.9157 0.9819
-1.7167 3.7727 -1.9186 0.9819
-2.0513 3.6104 -1.9221 0.9819
-2.6744 3.2011 -1.9308 0.9818
-1.2741 0.2025 -0.5971 0.9943
-1.2709 0.0865 -0.5897 0.9944
-1.2632 -0.0274 -0.5848 0.9944
-1.2749 -0.1425 -0.5938 0.9944
-1.2685 -0.2584 -0.5992 0.9943
-1.2699 -0.3798 -0.6135 0.9942
-1.2534 -0.5010 -0.6248 0.9941
-3.7450 -2.3457 -2.0455 0.9807
-3.5316 -2.6804 -2.0523 0.9806
-3.0149 -3.2868 -2.0645 0.9805
-2.7155 -3.5526 -2.0698 0.9805
-2.3920 -3.7902 -2.0746 0.9804
-1.3053 -4.3106 -2.0848 0.9803
-0.5164 -4.4811 -2.0879 0.9803
2.1992 -3.9059 -2.0749 0.9804
2.5343 -3.6850 -2.0702 0.9805
3.6234 -2.5311 -2.0459 0.9807
3.8221 -2.1889 -2.0388 0.9808
4.1205 -1.4613 -2.0237 0.9809
4.2183 -1.0823 -2.0158 0.9810
4.2813 -0.6975 -2.0079 0.9811
4.3094 -0.3102 -1.9999 0.9811
4.0798 1.2030 -1.9689 0.9814
3.9412 1.5577 -1.9616 0.9815
3.1033 2.8051 -1.9363 0.9817
2.8321 3.0635 -1.9311 0.9818
2.2301 3.5034 -1.9224 0.9819
0.4886 4.0992 -1.9109 0.9820
0.3068 -4.2344 -2.0825 0.9813
1.4172 -3.9900 -2.0770 0.9813
2.0988 -3.6608 -2.0699 0.9814
2.9743 -2.9499 -2.0548 0.9815
3.2171 -2.6640 -2.0489 0.9816
3.6172 -2.0344 -2.0357 0.9817
3.9849 -0.9895 -2.0140 0.9819
4.0424 -0.6264 -2.0065 0.9819
3.9457 0.8198 -1.9768 0.9822
3.8427 1.1656 -1.9697 0.9823
3.7100 1.4998 -1.9629 0.9823
2.9120 2.6736 -1.9391 0.9825
2.6542 2.9162 -1.9343 0.9826
2.0827 3.3286 -1.9260 0.9827
1.7733 3.4957 -1.9227 0.9827
1.4511 3.6353 -1.9200 0.9827
1.1186 3.7464 -1.9179 0.9827
0.0828 3.9033 -1.9151 0.9828
-0.2671 3.8957 -1.9154 0.9828
-0.6151 3.8580 -1.9164 0.9827
-0.9588 3.7905 -1.9179 0.9827
-1.2957 3.6936 -1.9201 0.9827
-1.9398 3.4140 -1.9261 0.9827
-2.2421 3.2331 -1.9300 0.9826
-2.5283 3.0263 -1.9343 0.9826
-3.0435 2.5402 -1.9446 0.9825
-3.2684 2.2643 -1.9504 0.9824
-1.0977 0.4989 -0.5914 0.9946
-1.1430 0.0778 -0.5620 0.9949
-1.1376 -0.0247 -0.5581 0.9949
-1.1310 -0.3383 -0.5791 0.9948
-1.1136 -0.4451 -0.5883 0.9947
-1.0902 -0.5537 -0.5998 0.9946
-3.5290 -2.2104 -2.0426 0.9816
-3.0969 -2.8213 -2.0550 0.9815
-2.8395 -3.0955 -2.0605 0.9815
-2.2522 -3.5686 -2.0700 0.9814
-1.9272 -3.7629 -2.0738 0.9813
-1.5851 -3.9264 -2.0770 0.9813
-1.2287 -4.0575 -2.0796 0.9813
-0.8612 -4.1549 -2.0814 0.9813
-0.1065 -4.2450 -2.0829 0.9813
1.0237 -4.1143 -2.0797 0.9813
1.3863 -4.0014 -2.0772 0.9813
2.3865 -3.4700 -2.0658 0.9814
2.6811 -3.2346 -2.0608 0.9815
2.9520 -2.9736 -2.0553 0.9815
3.1971 -2.6896 -2.0494 0.9816
3.6024 -2.0631 -2.0363 0.9817
3.8852 -1.3779 -2.0221 0.9818
4.0387 -0.6580 -2.0072 0.9819
4.0661 -0.2927 -1.9997 0.9820
4.0606 0.0723 -1.9922 0.9821
4.0228 0.4339 -1.9847 0.9821
3.8528 1.1361 -1.9704 0.9823
3.7227 1.4713 -1.9635 0.9823
2.9333 2.6515 -1.9396 0.9825
2.6773 2.8961 -1.9347 0.9826
2.4018 3.1171 -1.9302 0.9826
2.1088 3.3129 -1.9263 0.9827
1.8006 3.4823 -1.9230 0.9827
1.4795 3.6243 -1.9202 0.9827
1.1478 3.7379 -1.9180 0.9827
0.2894 -3.9942 -2.0776 0.9821
1.3370 -3.7643 -2.0724 0.9822
3.0374 -2.5152 -2.0459 0.9824
3.2408 -2.2266 -2.0398 0.9824
3.4165 -1.9215 -2.0335 0.9825
3.6798 -1.2729 -2.0200 0.9826
3.7659 -0.9351 -2.0130 0.9827
3.8210 -0.5921 -2.0059 0.9827
3.8450 -0.2467 -1.9988 0.9828
3.8380 0.0981 -1.9917 0.9828
3.8004 0.4398 -1.9847 0.9829
3.7327 0.7756 -1.9778 0.9830
3.1821 2.0104 -1.9527 0.9832
2.7576 2.5319 -1.9421 0.9833
2.2516 2.9696 -1.9333 0.9833
1.6800 3.3119 -1.9266 0.9834
1.3749 3.4444 -1.9240 0.9834
1.0599 3.5499 -1.9219 0.9834
-0.2531 3.6916 -1.9196 0.9835
-0.5828 3.6558 -1.9205 0.9835
-1.5382 3.3802 -1.9266 0.9834
-2.1238 3.0625 -1.9334 0.9833
-2.6479 2.6466 -1.9422 0.9833
-0.9850 0.4477 -0.5613 0.9951
-1.0104 0.3539 -0.5554 0.9952
-1.0202 0.2575 -0.5459 0.9953
-1.0326 -0.0224 -0.5358 0.9954
-1.0375 -0.1160 -0.5416 0.9953
-1.0287 -0.2096 -0.5446 0.9953
-1.0174 -0.3043 -0.5509 0.9952
-1.0000 -0.3997 -0.5587 0.9952
-0.9700 -0.6076 -0.5938 0.9949
-3.1415 -2.3843 -2.0460 0.9824
-2.6801 -2.9218 -2.0568 0.9823
-2.1252 -3.3674 -2.0658 0.9822
-1.8184 -3.5504 -2.0694 0.9822
-1.4954 -3.7043 -2.0724 0.9822
-1.1591 -3.8277 -2.0748 0.9821
-0.4585 -3.9784 -2.0776 0.9821
-0.1005 -4.0042 -2.0779 0.9821
0.2584 -3.9965 -2.0776 0.9821
1.3078 -3.7750 -2.0726 0.9822
1.6382 -3.6375 -2.0696 0.9822
2.5305 -3.0530 -2.0572 0.9823
2.7867 -2.8071 -2.0520 0.9823
3.2243 -2.2523 -2.0404 0.9824
3.4024 -1.9485 -2.0340 0.9825
3.8442 -0.2767 -1.9994 0.9828
3.8048 0.4104 -1.9853 0.9829
3.7398 0.7468 -1.9784 0.9830
3.1984 1.9861 -1.9532 0.9832
2.7778 2.5109 -1.9425 0.9833
2.5357 2.7429 -1.9379 0.9833
1.9977 3.1383 -1.9300 0.9834
1.0876 3.5418 -1.9221 0.9834
0.7655 3.6221 -1.9206 0.9835
0.2735 -3.7751 -2.0731 0.9829
0.6101 -3.7336 -2.0721 0.9829
1.5751 -3.4261 -2.0653 0.9829
2.4149 -2.8678 -2.0534 0.9830
2.8732 -2.3792 -2.0431 0.9831
3.0661 -2.1065 -2.0374 0.9832
3.2328 -1.8182 -2.0314 0.9832
1.8960 -0.6558 -1.0988 0.9909
1.8862 -0.1210 -1.0352 0.9914
1.8790 0.0480 -1.0295 0.9915
3.3284 1.3455 -1.9663 0.9838
3.1850 1.6332 -1.9604 0.9838
2.8271 2.1631 -1.9497 0.9839
2.6157 2.4016 -1.9449 0.9839
2.3847 2.6202 -1.9405 0.9840
2.1362 2.8174 -1.9365 0.9840
1.3048 3.2687 -1.9276 0.9841
0.3885 3.4903 -1.9235 0.9841
-0.5531 3.4696 -1.9243 0.9841
-0.8622 3.4086 -1.9257 0.9841
-2.0149 2.9056 -1.9366 0.9840
-2.5116 2.5104 -1.9450 0.9839
-0.8727 0.4953 -0.5496 0.9954
-0.8983 0.4082 -0.5404 0.9955
-0.9155 0.3207 -0.5313 0.9956
-0.9286 0.2344 -0.5245 0.9956
-0.9440 0.1500 -0.5235 0.9956
-0.9469 0.0645 -0.5198 0.9957
-0.9225 -0.2759 -0.5274 0.9956
-0.8871 -0.4505 -0.5449 0.9955
-2.7650 -2.5189 -2.0486 0.9831
-1.7190 -3.3563 -2.0653 0.9829
-1.0956 -3.6180 -2.0704 0.9829
-0.4333 -3.7601 -2.0731 0.9829
-0.0950 -3.7845 -2.0734 0.9829
0.9128 -3.6686 -2.0706 0.9829
1.2362 -3.5684 -2.0684 0.9829
1.8473 -3.2808 -2.0622 0.9830
2.6356 -2.6549 -2.0489 0.9831
2.8553 -2.4020 -2.0436 0.9831
3.3612 -1.5433 -2.0257 0.9833
1.9309 -0.6848 -1.1221 0.9907
1.8854 -0.4837 -1.0661 0.9912
1.8770 0.0334 -1.0282 0.9915
1.8805 0.5545 -1.0738 0.9911
3.3396 1.3199 -1.9668 0.9838
3.0329 1.8833 -1.9553 0.9838
2.4055 2.6020 -1.9408 0.9840
2.1584 2.8012 -1.9368 0.9840
1.8955 2.9778 -1.9333 0.9840
1.6188 3.1306 -1.9303 0.9841
1.0321 3.3613 -1.9258 0.9841
0.7265 3.4376 -1.9244 0.9841
0.4156 3.4873 -1.9235 0.9841
0.2590 -3.5741 -2.0689 0.9836
0.5777 -3.5350 -2.0680 0.9836
1.1967 -3.3692 -2.0643 0.9836
1.4916 -3.2443 -2.0616 0.9836
1.7732 -3.0929 -2.0583 0.9837
2.0393 -2.9164 -2.0546 0.9837
2.7223 -2.2543 -2.0406 0.9838
3.1966 -1.4378 -2.0236 0.9839
1.7315 -0.4299 -1.0301 0.9918
1.7403 -0.2697 -1.0168 0.9919
1.7380 -0.1115 -1.0055 0.9920
1.7320 0.0443 -1.0003 0.9920
1.7418 0.2016 -1.0124 0.9919
1.7327 0.3600 -1.0217 0.9919
1.7833 0.7209 -1.1105 0.9912
3.0242 1.5507 -1.9622 0.9844
2.6851 2.0544 -1.9520 0.9845
2.4846 2.2812 -1.9474 0.9845
2.2655 2.4892 -1.9432 0.9846
2.0296 2.6768 -1.9395 0.9846
1.7788 2.8429 -1.9362 0.9846
0.6650 3.2722 -1.9278 0.9847
0.3692 3.3172 -1.9270 0.9847
0.0708 3.3365 -1.9268 0.9847
-0.2283 3.3299 -1.9271 0.9847
-0.5257 3.2975 -1.9279 0.9847
-1.3870 3.0480 -1.9334 0.9847
-2.3857 2.3846 -1.9475 0.9845
-0.7985 0.5532 -0.5608 0.9955
-0.8442 0.3837 -0.5354 0.9957
-0.8605 0.3014 -0.5264 0.9958
-0.8804 0.1399 -0.5147 0.9959
-0.8819 0.0600 -0.5103 0.9959
-0.8796 -0.0191 -0.5080 0.9959
-0.8768 -0.1786 -0.5166 0.9959
-0.8537 -0.3412 -0.5308 0.9958
-0.8333 -0.4232 -0.5396 0.9957
-0.8042 -0.5037 -0.5479 0.9956
-2.6194 -2.3863 -2.0458 0.9838
-2.1612 -2.8274 -2.0547 0.9837
-1.0373 -3.4256 -2.0665 0.9836
-0.7270 -3.5073 -2.0680 0.9836
0.8642 -3.4735 -2.0666 0.9836
1.4665 -3.2562 -2.0618 0.9836
1.7494 -3.1070 -2.0586 0.9837
3.0512 -1.7474 -2.0301 0.9839
3.1861 -1.4630 -2.0241 0.9839
1.7066 -0.6052 -1.0455 0.9917
1.7389 -0.1252 -1.0065 0.9920
1.7304 0.0308 -0.9992 0.9920
1.7339 0.3462 -1.0208 0.9919
1.7552 0.6937 -1.0896 0.9913
3.0369 1.5275 -1.9627 0.9844
2.8802 1.7884 -1.9574 0.9845
2.7016 2.0339 -1.9524 0.9845
1.5382 2.9749 -1.9336 0.9847
0.9809 3.1944 -1.9293 0.9847
