ply
format ascii 1.0
element vertex 1602
property float32 x
property float32 y
property float32 z
property float32 I
end_header
3.0811 11.0695 2.0260 0.9544
2.0297 11.0362 1.9786 0.9554
1.0184 11.0041 1.9486 0.9561
-1.9459 10.9100 1.9541 0.9560
-2.9648 10.8776 1.9880 0.9552
-3.9846 10.7260 2.0176 0.9546
-5.1020 10.6904 2.0887 0.9530
-1.7687 -17.9768 3.1851 0.9293
-0.1500 -17.6996 3.1210 0.9306
1.4531 -17.8745 3.1622 0.9297
3.0789 -17.8600 3.1956 0.9290
6.4897 -17.7840 3.3381 0.9260
8.0418 10.7688 2.3699 0.9469
6.7468 10.9593 2.2692 0.9491
2.1629 11.0404 1.9837 0.9553
1.1474 11.0082 1.9516 0.9560
-4.9531 10.6951 2.0783 0.9533
-3.6346 -18.0001 3.2380 0.9281
-0.3536 -17.6317 3.1096 0.9309
1.2298 -17.6558 3.1207 0.9306
2.8675 -17.8667 3.1907 0.9291
4.5153 -17.7774 3.2342 0.9282
0.0295 10.9732 1.6810 0.9566
-1.9459 10.9104 1.6978 0.9561
-5.1582 10.8082 1.8347 0.9527
-3.3797 -17.7969 2.7751 0.9293
-0.1500 -17.6942 2.7108 0.9309
1.4344 -17.6439 2.7119 0.9309
6.3518 -17.4063 2.8385 0.9278
4.7501 -10.1030 1.7103 0.9558
8.2485 11.0457 2.1119 0.9457
6.7735 11.0026 1.9793 0.9491
3.2211 11.0743 1.7668 0.9544
2.1629 11.0408 1.7235 0.9555
-0.8261 10.9460 1.6816 0.9566
-1.8166 10.9145 1.6950 0.9562
-2.8311 10.8823 1.7226 0.9555
-5.0077 10.8130 1.8255 0.9529
-1.9543 -17.7516 2.7359 0.9303
4.4570 -17.5481 2.7736 0.9294
4.5616 -10.0013 1.6840 0.9565
2.0541 11.1688 1.4788 0.9552
1.0306 11.1364 1.4564 0.9559
-1.9693 11.0412 1.4605 0.9558
-5.1585 10.8087 1.5596 0.9528
-3.3795 -17.7962 2.3588 0.9295
-1.7458 -17.7442 2.3218 0.9306
1.4343 -17.6432 2.3051 0.9311
3.0328 -17.5925 2.3247 0.9305
4.6719 -17.5405 2.3638 0.9294
6.3810 -17.4864 2.4240 0.9277
4.7250 -10.0497 1.4461 0.9562
4.5538 5.0781 0.8882 0.9729
8.2549 11.0543 1.7966 0.9459
5.4840 11.0069 1.6014 0.9516
4.2990 10.9975 1.5376 0.9535
2.1889 11.1731 1.4826 0.9551
1.1612 11.1405 1.4586 0.9558
-0.8360 11.0772 1.4466 0.9562
-1.8383 11.0453 1.4581 0.9558
-2.8651 11.0127 1.4818 0.9551
-5.0079 10.8135 1.5518 0.9531
-3.5948 -17.8030 2.3651 0.9294
1.2294 -17.6497 2.3039 0.9311
4.2187 11.1717 1.2823 0.9531
3.1262 11.2313 1.2519 0.9542
2.0542 11.1693 1.2195 0.9553
-0.9648 11.0735 1.1936 0.9563
-1.9959 11.1908 1.2207 0.9553
-3.0005 11.0088 1.2253 0.9551
-4.1206 11.0923 1.2706 0.9535
-5.2762 11.0555 1.3154 0.9519
-3.3411 -17.5941 1.9230 0.9305
1.4211 -17.4812 1.8833 0.9319
2.9983 -17.3928 1.8952 0.9315
4.7085 -10.0146 1.1883 0.9565
6.8993 11.2069 1.4132 0.9484
4.3689 11.1764 1.2886 0.9529
2.1890 11.1736 1.2226 0.9552
-0.8360 11.0776 1.1929 0.9563
-1.8633 11.1950 1.2187 0.9554
-5.1222 11.0604 1.3089 0.9521
-3.5540 -17.6009 1.9282 0.9303
-1.9363 -17.5880 1.9000 0.9313
-0.3521 -17.5554 1.8855 0.9318
2.7924 -17.3993 1.8923 0.9316
4.5513 -9.9787 1.1777 0.9568
3.1746 11.4054 1.0022 0.9536
2.0542 11.1698 0.9614 0.9554
1.0307 11.1373 0.9468 0.9561
0.0304 11.3056 0.9571 0.9556
-0.9648 11.0739 0.9410 0.9564
-2.0049 11.2410 0.9666 0.9552
-6.6706 11.2587 1.1078 0.9488
-3.3792 -17.7947 1.5333 0.9299
-0.1500 -17.6921 1.4977 0.9314
1.4342 -17.6418 1.4984 0.9314
3.0325 -17.5911 1.5111 0.9308
6.3805 -17.4849 1.5756 0.9280
8.3169 4.3446 0.7943 0.9630
8.4428 11.3059 1.1945 0.9449
6.9308 11.2580 1.1191 0.9483
5.5880 11.2155 1.0607 0.9509
4.3691 11.1769 1.0159 0.9530
3.2667 11.2312 0.9902 0.9541
2.1890 11.1740 0.9639 0.9553
-0.8361 11.0780 0.9405 0.9564
-2.8653 11.0136 0.9634 0.9553
-6.4989 11.2641 1.1009 0.9491
-1.9540 -17.7494 1.5116 0.9308
6.1546 -17.4921 1.5697 0.9283
0.0304 11.3061 0.7011 0.9557
-0.9649 11.0744 0.6893 0.9564
-5.2767 11.0565 0.7597 0.9521
-3.3791 -17.7940 1.1231 0.9300
1.4341 -17.6411 1.0975 0.9315
3.0324 -17.5904 1.1069 0.9310
4.5320 5.0538 0.4209 0.9732
6.9311 11.2586 0.8198 0.9484
5.5883 11.2160 0.7771 0.9510
3.2655 11.2271 0.7250 0.9542
1.1614 11.1419 0.6947 0.9561
0.1614 11.3102 0.7014 0.9557
-2.8654 11.0140 0.7057 0.9554
-5.1227 11.0613 0.7559 0.9523
-1.9540 -17.7487 1.1073 0.9309
-0.3550 -17.6979 1.0977 0.9315
1.2292 -17.6476 1.0970 0.9316
4.4563 -17.5452 1.1225 0.9300
6.1544 -17.4914 1.1498 0.9284
1.0308 11.1382 0.4411 0.9562
0.0304 11.3065 0.4458 0.9557
-3.0009 11.0102 0.4500 0.9553
-5.2769 11.0569 0.4831 0.9521
-6.2005 -10.2037 0.4708 0.9533
-0.1512 -17.8318 0.7032 0.9311
3.0609 -17.7558 0.7105 0.9304
4.7153 -17.7033 0.7224 0.9293
4.5394 5.0621 0.2681 0.9731
8.4437 11.3071 0.5564 0.9451
6.8908 11.1930 0.5183 0.9487
4.3695 11.1779 0.4732 0.9531
3.2643 11.2230 0.4609 0.9543
2.1892 11.1749 0.4490 0.9554
1.1614 11.1423 0.4417 0.9561
0.1614 11.3107 0.4460 0.9557
-0.8362 11.0789 0.4381 0.9565
-2.8655 11.0145 0.4488 0.9555
-6.2084 -9.9552 0.4626 0.9541
-0.3578 -17.8384 0.7035 0.9311
2.8507 -17.7625 0.7094 0.9305
4.4982 -17.7102 0.7205 0.9295
6.2122 -17.6558 0.7380 0.9278
1.0308 11.1386 0.1890 0.9562
-0.9649 11.0753 0.1878 0.9565
-2.0051 11.2423 0.1929 0.9553
-3.0010 11.0106 0.1928 0.9554
-4.1213 11.0941 0.1999 0.9538
-1.7562 -17.8501 0.3030 0.9308
-0.1509 -17.7991 0.3007 0.9313
6.4284 -17.6163 0.3168 0.9277
4.7180 -10.0348 0.1873 0.9566
4.5503 5.0742 0.1151 0.9731
5.5888 11.2170 0.2117 0.9511
4.3697 11.1784 0.2027 0.9531
2.1893 11.1754 0.1924 0.9555
1.1615 11.1428 0.1892 0.9562
0.1614 11.3111 0.1911 0.9558
-0.8362 11.0794 0.1877 0.9565
-1.8718 11.2466 0.1926 0.9554
-5.1231 11.0623 0.2059 0.9524
-0.3571 -17.8057 0.3008 0.9312
1.2385 -17.7810 0.3011 0.9312
4.5684 -10.0161 0.1860 0.9569
4.2196 11.1741 -0.0672 0.9533
1.0309 11.1391 -0.0630 0.9562
-3.0012 11.0111 -0.0643 0.9554
-1.7593 -17.8814 -0.1012 0.9306
-0.1512 -17.8304 -0.1004 0.9312
1.4475 -17.8056 -0.1006 0.9310
3.0607 -17.7544 -0.1014 0.9305
4.7149 -17.7019 -0.1031 0.9293
4.7245 -10.0486 -0.0625 0.9566
8.4446 11.3082 -0.0795 0.9451
6.8914 11.1941 -0.0740 0.9488
5.5890 11.2175 -0.0706 0.9511
4.3699 11.1788 -0.0676 0.9531
2.1894 11.1758 -0.0641 0.9555
1.1615 11.1432 -0.0631 0.9562
0.1585 11.1114 -0.0626 0.9565
-0.8362 11.0798 -0.0626 0.9565
-1.8388 11.0480 -0.0631 0.9562
-2.8658 11.0154 -0.0641 0.9555
-3.9776 11.0991 -0.0664 0.9539
-5.1233 11.0628 -0.0686 0.9524
-6.2648 -10.0456 -0.0667 0.9537
2.8505 -17.7611 -0.1013 0.9306
4.4978 -17.7088 -0.1029 0.9295
6.2117 -17.6544 -0.1054 0.9279
4.5729 -10.0261 -0.0620 0.9569
3.1191 11.2058 -0.3275 0.9545
1.0309 11.1395 -0.3150 0.9562
-2.9416 10.7924 -0.3150 0.9562
-4.1217 11.0950 -0.3333 0.9537
-5.2776 11.0584 -0.3450 0.9522
-1.7592 -17.8807 -0.5059 0.9306
-0.1512 -17.8297 -0.5021 0.9311
4.7147 -17.7012 -0.5158 0.9293
6.4372 -17.6402 -0.5286 0.9276
8.3117 4.3419 -0.2640 0.9632
14.1779 13.2129 -0.5457 0.9254
4.5498 5.0736 -0.1919 0.9731
5.5893 11.2180 -0.3529 0.9511
4.3701 11.1793 -0.3380 0.9531
2.1895 11.1763 -0.3207 0.9554
1.1616 11.1437 -0.3155 0.9562
-2.8088 10.7966 -0.3141 0.9563
-0.3577 -17.8362 -0.5023 0.9311
1.2406 -17.8115 -0.5027 0.9310
2.8504 -17.7604 -0.5065 0.9306
4.4977 -17.7081 -0.5145 0.9295
6.2115 -17.6536 -0.5270 0.9278
4.5848 -10.0521 -0.3111 0.9568
4.2199 11.1750 -0.6058 0.9533
0.0293 10.8871 -0.5521 0.9573
-0.9458 10.8561 -0.5526 0.9573
-1.9307 10.8249 -0.5576 0.9569
-4.1219 11.0955 -0.6003 0.9537
-5.2778 11.0588 -0.6214 0.9521
-1.7592 -17.8800 -0.9111 0.9306
4.7061 -17.6688 -0.9273 0.9294
6.4276 -17.6141 -0.9509 0.9277
4.7514 -10.1058 -0.5663 0.9563
14.3259 11.1319 -0.9201 0.9299
5.5895 11.2185 -0.6356 0.9510
3.1959 10.9876 -0.5803 0.9552
2.1460 10.9543 -0.5661 0.9563
-0.8196 10.8601 -0.5523 0.9573
-3.9779 11.1001 -0.5980 0.9539
-5.1238 11.0637 -0.6183 0.9523
1.2383 -17.7789 -0.9038 0.9311
2.8452 -17.7279 -0.9106 0.9306
4.4894 -17.6756 -0.9249 0.9296
6.2001 -17.6213 -0.9474 0.9279
4.6070 -10.1007 -0.5630 0.9565
4.2201 11.1755 -0.8759 0.9532
3.0572 10.9837 -0.8360 0.9553
2.0139 10.9505 -0.8164 0.9563
0.0293 10.8875 -0.7983 0.9573
-0.9459 10.8566 -0.7990 0.9572
-1.9308 10.8253 -0.8063 0.9569
-4.1220 11.0960 -0.8679 0.9536
-1.7591 -17.8793 -1.3173 0.9305
1.4338 -17.6369 -1.2974 0.9315
3.0317 -17.5862 -1.3085 0.9309
6.3787 -17.4798 -1.3643 0.9281
14.3268 11.1325 -1.3303 0.9298
8.4076 11.2587 -1.0303 0.9452
6.9331 11.2618 -0.9697 0.9483
4.3704 11.1803 -0.8802 0.9530
3.1960 10.9881 -0.8391 0.9551
1.1385 10.9227 -0.8052 0.9569
0.1554 10.8915 -0.7987 0.9573
-1.8024 10.8294 -0.8050 0.9569
-6.2227 -9.9780 -0.8622 0.9539
-1.9691 -17.8860 -1.3194 0.9304
-0.3577 -17.8348 -1.3080 0.9310
1.2289 -17.6435 -1.2968 0.9315
2.8235 -17.5928 -1.3064 0.9310
4.4552 -17.5410 -1.3270 0.9300
6.1528 -17.4870 -1.3592 0.9283
4.6109 -10.1093 -0.8147 0.9564
4.1247 10.9228 -1.1209 0.9542
3.0574 10.9842 -1.0946 0.9552
1.0105 10.9191 -1.0528 0.9569
0.0293 10.8879 -1.0453 0.9572
-2.9419 10.7937 -1.0740 0.9560
-12.0026 13.8498 -1.7595 0.9290
-15.3941 12.3861 -1.8969 0.9237
-16.4159 10.9426 -1.8940 0.9238
-17.3100 9.4195 -1.8920 0.9239
-18.6937 6.1775 -1.8901 0.9239
-19.5092 2.7488 -1.8915 0.9239
-19.6962 0.9931 -1.8933 0.9238
-19.7333 -0.7742 -1.8960 0.9237
-18.9418 -6.0258 -1.9083 0.9232
-11.1914 -15.1689 -1.8097 0.9270
-8.3876 -17.0814 -1.8269 0.9264
-6.8590 -17.8503 -1.8359 0.9260
-5.2602 -18.4833 -1.8449 0.9257
-3.4339 -18.0828 -1.7671 0.9287
4.6700 -17.5334 -1.7420 0.9297
6.3784 -17.4791 -1.7863 0.9280
14.3271 11.1328 -1.7419 0.9297
8.2549 11.0542 -1.3245 0.9461
6.7763 11.0072 -1.2409 0.9494
5.4634 10.9654 -1.1762 0.9520
4.2716 10.9274 -1.1264 0.9539
2.1462 10.9552 -1.0717 0.9561
1.1386 10.9232 -1.0544 0.9568
-1.8025 10.8298 -1.0540 0.9568
-5.0100 10.8181 -1.1446 0.9532
-9.2144 15.9708 -1.7702 0.9286
-10.5743 15.0365 -1.7648 0.9288
-11.8453 13.9923 -1.7600 0.9290
-14.0950 13.9078 -1.9010 0.9235
-15.2531 12.5663 -1.8973 0.9237
-17.2018 9.6204 -1.8922 0.9239
-17.9803 8.0367 -1.8908 0.9239
-19.1203 4.7023 -1.8903 0.9239
-19.4742 2.9741 -1.8913 0.9239
-19.6430 -2.3134 -1.8989 0.9236
-19.3983 -4.0703 -1.9029 0.9234
-19.0037 -5.8041 -1.9076 0.9233
-8.5793 -16.9726 -1.8258 0.9264
-7.0607 -17.7584 -1.8347 0.9261
-1.9655 -17.8532 -1.7244 0.9304
-0.3570 -17.8022 -1.7094 0.9309
1.2289 -17.6428 -1.6979 0.9314
2.8234 -17.5921 -1.7105 0.9309
4.4550 -17.5403 -1.7374 0.9299
6.1526 -17.4863 -1.7797 0.9282
4.6354 -10.1630 -1.0724 0.9561
1.0106 10.9195 -1.3026 0.9568
0.0293 10.8884 -1.2934 0.9571
-1.9309 10.8262 -1.3063 0.9567
-2.9420 10.7941 -1.3290 0.9559
-4.0305 10.8496 -1.3748 0.9544
-5.1609 10.8138 -1.4233 0.9529
-7.6509 12.9132 -1.7829 0.9413
-8.7542 12.1472 -1.7786 0.9415
-9.7848 11.2907 -1.7747 0.9416
-10.7358 10.3507 -1.7714 0.9417
-11.6009 9.3341 -1.7687 0.9418
-14.1292 7.6887 -1.9108 0.9373
-15.9251 2.2438 -1.9104 0.9373
-16.0748 0.8105 -1.9119 0.9372
-16.0032 -2.0728 -1.9168 0.9371
-15.7815 -3.5026 -1.9202 0.9370
-15.4367 -4.9107 -1.9242 0.9368
-14.9707 -6.2870 -1.9288 0.9367
-14.3858 -7.6213 -1.9338 0.9365
-9.0756 -12.3012 -1.8159 0.9403
-7.9687 -13.1134 -1.8227 0.9401
-5.5471 -14.4362 -1.8371 0.9396
-4.2501 -14.9340 -1.8444 0.9394
-1.5325 -15.5758 -1.8591 0.9389
-0.1332 -15.7117 -1.8664 0.9387
2.6894 -15.6006 -1.8805 0.9382
4.0889 -15.3515 -1.8871 0.9380
5.4643 -14.9743 -1.8935 0.9378
4.7937 -10.1958 -1.3383 0.9556
9.3252 -13.0986 -1.9100 0.9373
11.5610 -11.2761 -1.9183 0.9370
12.5449 -10.2138 -1.9216 0.9369
16.0785 -7.0753 -2.0866 0.9317
17.3746 -2.5507 -2.0860 0.9317
17.5183 -0.9850 -2.0842 0.9318
17.3652 2.1471 -2.0785 0.9319
17.0711 3.6853 -2.0745 0.9321
16.6361 5.1864 -2.0699 0.9322
12.5632 9.7622 -1.8899 0.9379
4.5760 5.1028 -0.8142 0.9728
8.2553 11.0548 -1.6389 0.9459
5.4636 10.9659 -1.4553 0.9518
4.2718 10.9279 -1.3937 0.9538
3.1962 10.9890 -1.3594 0.9549
1.1386 10.9236 -1.3046 0.9567
-0.8197 10.8614 -1.2939 0.9571
-1.8025 10.8302 -1.3042 0.9567
-2.8093 10.7983 -1.3254 0.9561
-5.0103 10.8186 -1.4162 0.9531
-8.6156 12.2513 -1.7791 0.9415
-9.6560 11.4062 -1.7752 0.9416
-11.4941 9.4695 -1.7690 0.9418
-13.2943 9.0858 -1.9127 0.9372
-14.0407 7.8525 -1.9109 0.9373
-14.6780 6.5607 -1.9098 0.9373
-15.2021 5.2197 -1.9093 0.9373
-15.6093 3.8388 -1.9094 0.9373
-15.8968 2.4278 -1.9102 0.9373
-16.1047 -0.4452 -1.9137 0.9372
-16.0228 -1.8871 -1.9164 0.9371
-15.8171 -3.3188 -1.9198 0.9370
-15.0376 -6.1114 -1.9281 0.9367
-13.7824 -8.7411 -1.9387 0.9364
-12.0804 -11.1282 -1.9510 0.9360
-6.9458 -13.7408 -1.8289 0.9399
-4.4204 -14.8761 -1.8434 0.9394
-3.0839 -15.2728 -1.8508 0.9392
-1.7118 -15.5491 -1.8582 0.9389
1.0954 -15.7266 -1.8726 0.9385
2.5074 -15.6233 -1.8796 0.9383
3.9091 -15.3910 -1.8863 0.9380
3.9479 -11.2205 -1.4129 0.9532
4.6570 -10.2103 -1.3330 0.9558
7.9308 -13.9317 -1.9042 0.9375
9.1700 -13.2014 -1.9093 0.9373
10.3390 -12.3574 -1.9139 0.9372
4.1250 10.9237 -1.6545 0.9539
2.0142 10.9519 -1.5778 0.9560
-2.9421 10.7946 -1.5853 0.9558
-5.1611 10.8143 -1.6978 0.9527
-6.4476 10.8823 -1.7922 0.9502
-7.3803 10.2407 -1.7885 0.9503
-9.7887 7.8760 -1.7802 0.9505
-10.4433 6.9613 -1.7783 0.9506
-11.9261 6.4898 -1.9238 0.9466
-12.4530 5.3941 -1.9229 0.9466
-13.2138 3.0879 -1.9227 0.9467
-13.5670 0.6841 -1.9247 0.9466
-13.5868 -0.5331 -1.9266 0.9465
-13.3104 -2.9541 -1.9318 0.9464
-13.0154 -4.1405 -1.9352 0.9463
-12.6177 -5.2989 -1.9391 0.9462
-12.1198 -6.4208 -1.9433 0.9461
-10.8358 -8.5210 -1.9532 0.9458
-10.0580 -9.4827 -1.9586 0.9457
-9.1962 -10.3751 -1.9644 0.9455
-7.6262 -10.3365 -1.8200 0.9494
-6.6919 -11.0124 -1.8258 0.9493
-5.6983 -11.6046 -1.8318 0.9491
-4.6525 -12.1080 -1.8379 0.9489
-3.5624 -12.5174 -1.8440 0.9488
-2.4362 -12.8288 -1.8502 0.9486
-1.2828 -13.0385 -1.8563 0.9484
-0.1114 -13.1439 -1.8624 0.9483
3.4144 -12.8194 -1.8797 0.9478
4.6117 -9.8087 -1.5357 0.9572
6.7488 -11.5425 -1.8945 0.9474
8.7341 -10.1970 -1.9024 0.9472
12.7921 -7.0573 -2.0700 0.9427
13.3793 -5.8875 -2.0711 0.9427
13.8555 -4.6678 -2.0716 0.9426
14.2163 -3.4091 -2.0714 0.9426
14.5802 -0.8198 -2.0691 0.9427
14.5805 0.4875 -2.0670 0.9428
14.2192 3.0696 -2.0611 0.9429
13.8619 4.3216 -2.0573 0.9430
13.3916 5.5329 -2.0530 0.9431
11.2061 7.1984 -1.8871 0.9476
10.4884 8.1500 -1.8820 0.9478
4.5999 5.1295 -0.9762 0.9725
-0.8198 10.8619 -1.5434 0.9569
-1.8026 10.8307 -1.5557 0.9566
-7.2631 10.3281 -1.7890 0.9503
-8.1429 9.6189 -1.7857 0.9504
-10.3632 7.0826 -1.7785 0.9506
-12.3903 5.5381 -1.9230 0.9466
-12.8332 4.4063 -1.9225 0.9467
-13.1768 3.2406 -1.9226 0.9467
-13.4186 2.0493 -1.9233 0.9466
-13.5568 0.8410 -1.9245 0.9466
-13.5181 -1.5921 -1.9286 0.9465
-13.3409 -2.7993 -1.9314 0.9464
-12.1897 -6.2782 -1.9428 0.9461
-11.6069 -7.3613 -1.9474 0.9460
-10.9299 -8.3921 -1.9525 0.9459
-10.1633 -9.3622 -1.9579 0.9457
-9.3121 -10.2640 -1.9636 0.9456
-4.7903 -12.0481 -1.8371 0.9490
-3.7054 -12.4700 -1.8432 0.9488
-2.5834 -12.7943 -1.8494 0.9486
0.9159 -13.1492 -1.8676 0.9481
3.9327 -11.1771 -1.6788 0.9533
6.6127 -11.6163 -1.8939 0.9474
8.6134 -10.2950 -1.9019 0.9472
2.9951 10.7605 -1.8401 0.9557
2.0143 10.9523 -1.8345 0.9559
0.0293 10.8893 -1.7939 0.9568
-0.9460 10.8583 -1.7956 0.9568
-1.9311 10.8271 -1.8118 0.9564
-2.8902 10.6040 -1.8106 0.9564
-5.5666 9.3953 -1.7990 0.9567
-6.3735 8.8438 -1.7958 0.9568
-7.8248 7.5441 -1.7906 0.9569
-8.4588 6.8060 -1.7886 0.9569
-9.0258 6.0165 -1.7870 0.9570
-11.4223 2.6693 -1.9324 0.9536
-11.6656 -1.5110 -1.9378 0.9534
-11.2409 -3.5760 -1.9433 0.9533
-10.4614 -5.5422 -1.9503 0.9531
-9.9443 -6.4695 -1.9544 0.9530
-9.3467 -7.3499 -1.9588 0.9529
-8.6724 -8.1764 -1.9635 0.9528
-7.9261 -8.9422 -1.9685 0.9527
-7.0993 -9.6225 -1.9699 0.9527
-5.7627 -9.4832 -1.8281 0.9560
-4.9048 -9.9888 -1.8332 0.9559
-3.0635 -10.7645 -1.8437 0.9556
-1.1022 -11.2021 -1.8543 0.9554
-0.0957 -11.2874 -1.8595 0.9553
2.9283 -10.9943 -1.8743 0.9549
5.7815 -9.8881 -1.8870 0.9546
6.6556 -9.3487 -1.8905 0.9545
7.5317 -8.7931 -1.9073 0.9541
8.8938 -8.6747 -2.0467 0.9509
10.3525 -6.9877 -2.0576 0.9506
10.9441 -6.0378 -2.0591 0.9506
11.4456 -5.0366 -2.0600 0.9506
12.3694 -1.8159 -2.0596 0.9506
12.4747 -0.7014 -2.0583 0.9506
12.4767 0.4172 -2.0565 0.9507
12.1726 2.6278 -2.0515 0.9508
11.8699 3.7006 -2.0483 0.9508
11.4509 4.7311 -2.0411 0.9510
9.6052 6.1701 -1.8807 0.9548
8.9936 6.9884 -1.8763 0.9549
8.3116 7.7459 -1.8717 0.9550
4.6298 5.1628 -1.1424 0.9723
5.0116 10.0587 -1.8513 0.9555
4.0798 10.4368 -1.8460 0.9556
3.1206 10.7290 -1.8407 0.9557
2.1420 10.9339 -1.8355 0.9558
1.1387 10.9245 -1.8094 0.9564
-0.8198 10.8623 -1.7945 0.9568
-1.8027 10.8311 -1.8089 0.9565
-4.5995 9.9316 -1.8031 0.9566
-5.4588 9.4614 -1.7995 0.9567
-6.2721 8.9189 -1.7962 0.9568
-7.0337 8.3087 -1.7934 0.9568
-7.7382 7.6354 -1.7909 0.9569
-8.3806 6.9044 -1.7888 0.9569
-8.9564 6.1212 -1.7871 0.9570
-10.2435 5.7288 -1.9335 0.9535
-10.7102 4.7872 -1.9326 0.9536
-11.3904 2.8013 -1.9324 0.9536
-11.7173 0.7269 -1.9340 0.9535
-11.7446 -0.3247 -1.9355 0.9535
-11.5251 -2.4183 -1.9400 0.9534
-10.9442 -4.4478 -1.9461 0.9532
-10.5222 -5.4194 -1.9498 0.9532
-7.2152 -9.5462 -1.9713 0.9526
-5.8700 -9.4125 -1.8274 0.9560
-4.1216 -10.3663 -1.8378 0.9558
-1.2313 -11.1845 -1.8537 0.9554
1.7978 -11.2016 -1.8690 0.9551
3.7842 -10.7552 -1.8783 0.9548
4.4479 -9.7520 -1.7657 0.9575
5.6652 -9.9518 -1.8865 0.9546
6.5454 -9.4229 -1.8901 0.9546
3.4676 9.1827 -1.8449 0.9608
2.6254 9.4323 -1.8403 0.9609
1.7665 9.6053 -1.8357 0.9610
0.8978 9.7008 -1.8312 0.9611
0.0261 9.7187 -1.8267 0.9612
-0.8416 9.6593 -1.8225 0.9613
-5.6035 7.7753 -1.8014 0.9617
-6.8818 6.6350 -1.7968 0.9618
-7.4405 5.9866 -1.7950 0.9619
-7.9400 5.2927 -1.7936 0.9619
-9.4708 4.1023 -1.9400 0.9589
-10.3157 0.5201 -1.9414 0.9588
-10.3283 -0.4052 -1.9428 0.9588
-9.8834 -3.1441 -1.9494 0.9587
-9.1940 -4.8708 -1.9556 0.9585
-8.7373 -5.6843 -1.9592 0.9585
-8.2100 -6.4561 -1.9631 0.9584
-7.6154 -7.1799 -1.9673 0.9583
-6.9580 -7.8499 -1.9717 0.9582
-6.2421 -8.4606 -1.9762 0.9581
-3.5091 -9.1324 -1.8389 0.9610
-0.9652 -9.8101 -1.8528 0.9607
-0.0838 -9.8813 -1.8574 0.9606
0.8026 -9.8728 -1.8618 0.9605
2.5610 -9.6152 -1.8703 0.9603
3.4182 -9.3671 -1.8742 0.9602
6.2599 -8.7929 -2.0288 0.9570
7.0710 -8.2554 -2.0431 0.9567
7.7912 -7.5992 -2.0457 0.9567
8.4488 -6.8789 -2.0478 0.9566
9.9908 -4.3964 -2.0517 0.9565
10.6155 -2.5456 -2.0519 0.9565
10.7975 -1.5851 -2.0513 0.9566
10.8903 -0.6123 -2.0502 0.9566
10.8065 1.3362 -2.0467 0.9566
10.3687 3.2325 -2.0414 0.9568
10.0107 4.1361 -2.0359 0.9569
8.8626 4.6297 -1.8794 0.9601
5.4482 5.0773 -1.3998 0.9701
4.6454 5.1802 -1.3078 0.9721
5.9188 7.9259 -1.8593 0.9605
2.7353 9.4044 -1.8409 0.9609
1.8782 9.5873 -1.8363 0.9610
1.0103 9.6928 -1.8317 0.9611
0.1387 9.7207 -1.8273 0.9612
-3.2509 9.0713 -1.8112 0.9615
-4.7981 8.3162 -1.8046 0.9617
-5.5142 7.8411 -1.8018 0.9617
-6.8055 6.7151 -1.7971 0.9618
-7.3716 6.0731 -1.7952 0.9619
-7.8789 5.3847 -1.7938 0.9619
-9.0041 5.0357 -1.9391 0.9589
-9.7604 3.3512 -1.9397 0.9589
-10.0216 2.4646 -1.9398 0.9589
-10.2046 1.5585 -1.9403 0.9589
-10.3082 0.6395 -1.9413 0.9588
-10.3312 -0.2856 -1.9426 0.9588
-10.1353 -2.1267 -1.9465 0.9587
-9.9173 -3.0289 -1.9491 0.9587
-9.6208 -3.9099 -1.9520 0.9586
-9.2477 -4.7629 -1.9552 0.9585
-8.8004 -5.5814 -1.9588 0.9585
-7.6959 -7.0893 -1.9667 0.9583
-6.3377 -8.3853 -1.9756 0.9581
-1.9456 -9.6352 -1.8476 0.9608
-1.0783 -9.7951 -1.8522 0.9607
0.6881 -9.8785 -1.8613 0.9605
2.4488 -9.6415 -1.8698 0.9603
3.3087 -9.4036 -1.8737 0.9602
6.9734 -8.3348 -2.0426 0.9567
7.7015 -7.6877 -2.0454 0.9567
3.0829 8.1639 -1.8446 0.9650
0.0233 8.6499 -1.8284 0.9653
-1.5126 8.4807 -1.8209 0.9654
-2.2610 8.2955 -1.8175 0.9655
-2.9888 8.0454 -1.8142 0.9655
-4.9949 6.9308 -1.8058 0.9657
-6.1361 5.9160 -1.8017 0.9658
-6.6349 5.3385 -1.8001 0.9658
-8.0878 4.4011 -1.9463 0.9631
-8.7394 2.8880 -1.9456 0.9631
-8.9634 2.0946 -1.9457 0.9631
-9.1172 1.2846 -1.9462 0.9631
-9.1487 -1.1850 -1.9500 0.9630
-8.8103 -2.8027 -1.9543 0.9629
-8.1930 -4.3404 -1.9598 0.9628
-7.7845 -5.0644 -1.9631 0.9627
-7.3130 -5.7507 -1.9665 0.9627
-6.7819 -6.3940 -1.9702 0.9626
-5.5561 -7.5308 -1.9782 0.9625
-4.1428 -8.4369 -1.9868 0.9623
-2.5499 -8.9600 -1.9692 0.9626
-1.7002 -8.9530 -1.9263 0.9634
-0.8799 -8.9435 -1.8996 0.9639
0.7249 -8.9167 -1.8910 0.9641
3.2307 -8.8534 -1.9921 0.9622
4.0738 -8.6645 -2.0238 0.9616
4.8520 -8.2984 -2.0320 0.9615
5.5832 -7.8424 -2.0349 0.9614
6.2706 -7.3209 -2.0376 0.9614
7.4905 -6.0986 -2.0418 0.9613
8.0121 -5.4080 -2.0433 0.9613
8.4685 -4.6720 -2.0444 0.9612
9.4093 -2.2564 -2.0453 0.9612
9.5709 -1.4051 -2.0448 0.9612
9.6537 -0.5428 -2.0438 0.9612
9.5813 1.1847 -2.0407 0.9613
9.1959 2.8669 -2.0361 0.9614
7.9775 4.1674 -1.9025 0.9639
7.4514 4.7865 -1.8720 0.9644
3.8580 6.2668 -1.5556 0.9704
3.1781 8.1300 -1.8452 0.9649
1.6707 8.5281 -1.8369 0.9651
0.1234 8.6514 -1.8289 0.9652
-1.4147 8.4998 -1.8214 0.9654
-2.8961 8.0813 -1.8146 0.9655
-3.6014 7.7765 -1.8115 0.9656
-4.2761 7.4115 -1.8087 0.9656
-4.9152 6.9893 -1.8062 0.9657
-5.5139 6.5134 -1.8039 0.9657
-6.0680 5.9874 -1.8019 0.9657
-6.5734 5.4155 -1.8003 0.9658
-7.0264 4.8021 -1.7990 0.9658
-8.0295 4.4906 -1.9447 0.9631
-8.4044 3.7565 -1.9459 0.9631
-8.7054 2.9890 -1.9456 0.9631
-8.9383 2.1982 -1.9457 0.9631
-9.1932 0.5703 -1.9470 0.9630
-9.2131 -0.2547 -1.9482 0.9630
-9.0364 -1.8961 -1.9517 0.9630
-8.5750 -3.4849 -1.9566 0.9629
-7.3774 -5.6644 -1.9661 0.9627
-5.6414 -7.4640 -1.9777 0.9625
-4.2390 -8.3860 -1.9862 0.9623
-2.6627 -8.9607 -1.9760 0.9625
-0.1792 -8.9331 -1.8887 0.9641
0.6212 -8.9187 -1.8898 0.9641
1.4286 -8.9015 -1.9057 0.9638
3.1163 -8.8568 -1.9847 0.9623
4.7547 -8.3524 -2.0315 0.9615
2.7723 7.3416 -1.8444 0.9683
2.1001 7.5450 -1.8407 0.9683
0.7189 7.7675 -1.8333 0.9685
0.0209 7.7855 -1.8298 0.9685
-0.6745 7.7416 -1.8263 0.9686
-1.3620 7.6364 -1.8230 0.9686
-2.0363 7.4710 -1.8199 0.9687
-3.3248 6.9666 -1.8142 0.9688
-5.0365 5.8117 -1.8074 0.9689
-5.9812 4.8125 -1.8042 0.9689
-7.8796 2.6039 -1.9504 0.9665
-8.0814 1.8885 -1.9505 0.9665
-8.3030 -0.3258 -1.9529 0.9664
-7.9400 -2.5259 -1.9582 0.9663
-7.6915 -3.2301 -1.9606 0.9663
-7.3816 -3.9106 -1.9633 0.9663
-7.0124 -4.5621 -1.9662 0.9662
-6.5866 -5.1795 -1.9693 0.9662
-5.5773 -6.2923 -1.9761 0.9660
-5.0012 -6.7787 -1.9798 0.9660
-3.7275 -7.5910 -1.9875 0.9658
-3.0394 -7.9099 -1.9915 0.9658
-2.3241 -8.1666 -1.9955 0.9657
-1.5873 -8.3586 -1.9996 0.9656
-0.0724 -8.5359 -2.0062 0.9655
0.6930 -8.5243 -2.0100 0.9655
1.4564 -8.4481 -2.0148 0.9654
2.2106 -8.2997 -2.0186 0.9653
2.9493 -8.0821 -2.0220 0.9653
5.0113 -7.0390 -2.0308 0.9651
6.1990 -6.0463 -2.0352 0.9650
6.7208 -5.4720 -2.0369 0.9650
8.4410 -2.0242 -2.0401 0.9650
8.6609 -0.4870 -2.0387 0.9650
8.6646 0.2897 -2.0375 0.9650
8.5973 1.0630 -2.0359 0.9650
8.2534 2.5731 -2.0318 0.9651
7.9801 3.2971 -2.0293 0.9651
7.6232 3.9823 -2.0214 0.9653
6.6908 4.2980 -1.8690 0.9679
3.8481 6.2506 -1.7251 0.9703
3.5076 7.0400 -1.8486 0.9682
2.8579 7.3109 -1.8449 0.9683
2.1879 7.5221 -1.8411 0.9683
-3.2445 7.0059 -1.8146 0.9688
-4.4294 6.2986 -1.8097 0.9689
-4.9696 5.8703 -1.8077 0.9689
-5.9256 4.8818 -1.8044 0.9689
-6.3345 4.3292 -1.8032 0.9690
-7.2449 4.0518 -1.9509 0.9665
-7.8489 2.6950 -1.9504 0.9665
-8.2057 1.2532 -1.9509 0.9665
-8.2881 0.5142 -1.9516 0.9665
-8.2577 -0.9725 -1.9542 0.9664
-8.1448 -1.7090 -1.9559 0.9664
-7.9676 -2.4334 -1.9579 0.9663
-7.0633 -4.4797 -1.9658 0.9662
-6.1719 -5.6854 -1.9722 0.9661
-5.6485 -6.2259 -1.9757 0.9660
-5.0781 -6.7187 -1.9793 0.9660
-4.4652 -7.1598 -1.9831 0.9659
-3.8141 -7.5454 -1.9870 0.9659
-3.1299 -7.8721 -1.9910 0.9658
-2.4179 -8.1370 -1.9950 0.9657
-0.1711 -8.5327 -2.0058 0.9655
1.3580 -8.4616 -2.0141 0.9654
2.1139 -8.3229 -2.0182 0.9653
2.8549 -8.1140 -2.0216 0.9653
5.5503 -6.6338 -2.0328 0.9651
6.1279 -6.1169 -2.0349 0.9650
1.8615 4.9295 -1.3643 0.9785
1.9064 6.8492 -1.8408 0.9711
-1.2375 6.9382 -1.8248 0.9713
-1.8504 6.7891 -1.8219 0.9713
-3.0222 6.3325 -1.8167 0.9714
-5.0297 4.8493 -1.8090 0.9715
-5.4395 4.3766 -1.8077 0.9716
-7.3505 1.7177 -1.9545 0.9693
-7.4764 1.0534 -1.9549 0.9693
-7.5512 -0.2963 -1.9566 0.9693
-7.3887 -1.6399 -1.9596 0.9692
-7.2193 -2.2966 -1.9615 0.9692
-6.9925 -2.9366 -1.9637 0.9691
-6.7100 -3.5548 -1.9661 0.9691
-5.5490 -5.2316 -1.9746 0.9690
-5.0669 -5.7164 -1.9778 0.9689
-4.5427 -6.1572 -1.9812 0.9689
-2.7592 -7.1808 -1.9918 0.9687
-2.1095 -7.4125 -1.9954 0.9687
-1.4405 -7.5853 -1.9991 0.9686
-0.7574 -7.6977 -2.0027 0.9685
1.3209 -7.6621 -2.0131 0.9684
2.6737 -7.3269 -2.0194 0.9683
3.3232 -7.0683 -2.0223 0.9682
3.9475 -6.7514 -2.0249 0.9682
5.6163 -5.4779 -2.0313 0.9681
6.5117 -4.3952 -2.0341 0.9681
7.1961 -3.1666 -2.0356 0.9680
7.7775 -1.1418 -2.0353 0.9680
7.8455 -0.4411 -2.0346 0.9681
7.7888 0.9630 -2.0320 0.9681
7.6649 1.6547 -2.0303 0.9681
7.4787 2.3316 -2.0283 0.9682
7.2319 2.9880 -2.0260 0.9682
6.9269 3.6185 -2.0235 0.9682
6.4125 4.1192 -1.9733 0.9690
5.6838 4.4166 -1.8637 0.9707
5.0738 4.7285 -1.7957 0.9717
3.8885 5.2071 -1.6826 0.9735
3.1829 6.3882 -1.8480 0.9709
1.3646 6.9659 -1.8379 0.9711
0.1009 7.0723 -1.8313 0.9712
-0.5314 7.0408 -1.8282 0.9712
-1.7720 6.8114 -1.8223 0.9713
-2.9492 6.3681 -1.8171 0.9714
-3.5027 6.0710 -1.8147 0.9715
-4.5187 5.3378 -1.8108 0.9715
-5.3889 4.4397 -1.8078 0.9716
-6.0825 4.1570 -1.9075 0.9700
-7.1391 2.4512 -1.9544 0.9693
-7.3300 1.8027 -1.9544 0.9693
-7.5536 -0.2088 -1.9565 0.9693
-7.5096 -0.8844 -1.9578 0.9692
-7.4063 -1.5540 -1.9594 0.9692
-6.0385 -4.6364 -1.9712 0.9690
-5.6081 -5.1660 -1.9742 0.9690
-4.6127 -6.1029 -1.9807 0.9689
-3.4633 -6.8514 -1.9877 0.9688
-2.8415 -7.1467 -1.9913 0.9687
-2.1947 -7.3858 -1.9950 0.9687
-1.5278 -7.5664 -1.9986 0.9686
-0.8462 -7.6866 -2.0022 0.9686
0.5392 -7.7417 -2.0093 0.9684
2.5882 -7.3559 -2.0190 0.9683
5.5519 -5.5420 -2.0311 0.9681
1.8496 4.8980 -1.4822 0.9785
0.0174 6.4709 -1.8319 0.9735
-1.1327 6.3508 -1.8262 0.9735
-3.2713 5.5213 -1.8168 0.9737
-4.6073 4.4420 -1.8118 0.9737
-5.7481 3.8316 -1.9556 0.9717
-6.0763 3.3065 -1.9584 0.9717
-6.3463 2.7489 -1.9579 0.9717
-6.5661 2.1699 -1.9577 0.9717
-6.9175 -0.2714 -1.9598 0.9716
-6.6121 -2.1034 -1.9643 0.9716
-5.8356 -3.7965 -1.9709 0.9715
-5.0794 -4.7889 -1.9763 0.9714
-4.6374 -5.2319 -1.9792 0.9714
-4.1571 -5.6346 -1.9823 0.9713
-3.6421 -5.9935 -1.9854 0.9713
-3.0963 -6.3057 -1.9887 0.9712
-2.5239 -6.5683 -1.9920 0.9712
-1.9293 -6.7791 -1.9953 0.9711
-0.0600 -7.0831 -2.0052 0.9710
3.6056 -6.1667 -2.0223 0.9707
4.1475 -5.8257 -2.0245 0.9707
4.6565 -5.4365 -2.0264 0.9707
5.1286 -5.0022 -2.0281 0.9707
6.5699 -2.8911 -2.0320 0.9706
6.8030 -2.2919 -2.0322 0.9706
7.1632 -0.4028 -2.0310 0.9706
5.9890 3.8471 -2.0151 0.9708
5.2909 4.1113 -1.8969 0.9725
4.2178 4.7034 -1.7885 0.9741
1.8617 4.7626 -1.4476 0.9790
1.8165 6.2454 -1.8413 0.9733
0.6721 6.4477 -1.8352 0.9734
-0.4863 6.4437 -1.8294 0.9735
-1.0593 6.3647 -1.8266 0.9735
-2.1707 6.0570 -1.8215 0.9736
-3.2076 5.5596 -1.8170 0.9737
-4.1388 4.8891 -1.8134 0.9737
-4.5560 4.4955 -1.8119 0.9737
-4.9366 4.0670 -1.8107 0.9738
-5.7002 3.8957 -1.9546 0.9717
-6.0379 3.3768 -1.9584 0.9717
-6.3142 2.8223 -1.9579 0.9717
-6.8790 -0.8102 -1.9609 0.9716
-6.6352 -2.0265 -1.9640 0.9716
-6.1807 -3.1833 -1.9682 0.9715
-5.8782 -3.7281 -1.9705 0.9715
-5.5283 -4.2447 -1.9731 0.9714
-4.2212 -5.5850 -1.9819 0.9713
-3.1684 -6.2681 -1.9883 0.9712
-2.5992 -6.5372 -1.9916 0.9712
-2.0072 -6.7549 -1.9949 0.9711
-1.3971 -6.9189 -1.9982 0.9711
-0.7737 -7.0278 -2.0016 0.9710
2.3647 -6.7206 -2.0169 0.9708
2.9604 -6.4906 -2.0195 0.9708
4.5928 -5.4894 -2.0262 0.9707
5.0698 -5.0607 -2.0279 0.9707
1.8377 4.8665 -1.6000 0.9785
1.6050 5.7662 -1.8410 0.9753
0.5499 5.9418 -1.8354 0.9753
-0.5164 5.9274 -1.8300 0.9754
-1.0432 5.8493 -1.8275 0.9754
-2.0638 5.5554 -1.8228 0.9755
-2.5496 5.3423 -1.8207 0.9755
-3.0142 5.0873 -1.8188 0.9756
-3.8656 4.4605 -1.8155 0.9756
-6.2072 1.4506 -1.9606 0.9737
-6.3696 0.3212 -1.9616 0.9737
-6.3756 -0.2501 -1.9625 0.9737
-6.0930 -1.9383 -1.9666 0.9736
-5.9006 -2.4780 -1.9684 0.9736
-5.3761 -3.4976 -1.9727 0.9735
-5.0478 -3.9694 -1.9751 0.9735
-4.6784 -4.4108 -1.9777 0.9735
-4.2708 -4.8183 -1.9804 0.9734
-1.2121 -6.3828 -1.9983 0.9732
-0.6371 -6.4756 -2.0014 0.9731
0.5288 -6.5046 -2.0073 0.9731
2.2462 -6.1554 -2.0154 0.9730
2.7913 -5.9368 -2.0178 0.9729
3.3149 -5.6695 -2.0200 0.9729
3.8127 -5.3555 -2.0220 0.9729
4.2804 -4.9973 -2.0238 0.9728
4.7139 -4.5978 -2.0254 0.9728
5.1097 -4.1602 -2.0267 0.9728
5.4642 -3.6882 -2.0277 0.9728
5.7745 -3.1857 -2.0285 0.9728
6.0378 -2.6569 -2.0290 0.9728
6.2520 -2.1063 -2.0292 0.9728
6.5258 -0.9580 -2.0287 0.9728
6.4339 1.3889 -2.0245 0.9728
6.2786 1.9574 -2.0228 0.9729
5.8175 3.0390 -2.0188 0.9729
5.5159 3.5433 -2.0165 0.9729
5.1543 4.0051 -2.0077 0.9731
4.4187 4.1180 -1.8578 0.9750
3.1529 5.1214 -1.8498 0.9751
1.8552 4.7460 -1.5673 0.9789
1.1492 5.8659 -1.8385 0.9753
0.6188 5.9362 -1.8357 0.9753
0.0850 5.9589 -1.8330 0.9754
-0.4479 5.9340 -1.8304 0.9754
-2.9555 5.1225 -1.8190 0.9756
-5.5652 3.1124 -1.9612 0.9737
-5.8200 2.6014 -1.9608 0.9737
-6.0287 2.0700 -1.9606 0.9737
-6.3024 0.9625 -1.9609 0.9737
-6.3777 -0.1763 -1.9624 0.9737
-6.2519 -1.3118 -1.9648 0.9736
-5.6946 -2.9330 -1.9702 0.9735
-5.0925 -3.9101 -1.9748 0.9735
-4.7284 -4.3556 -1.9773 0.9735
-3.4164 -5.4781 -1.9858 0.9733
-2.9169 -5.7705 -1.9887 0.9733
-2.3925 -6.0175 -1.9918 0.9733
-1.8474 -6.2170 -1.9948 0.9732
-1.2857 -6.3671 -1.9979 0.9732
-0.7119 -6.4665 -2.0010 0.9731
-0.1307 -6.5140 -2.0040 0.9731
1.0354 -6.4516 -2.0098 0.9730
1.6107 -6.3417 -2.0125 0.9730
2.7220 -5.9679 -2.0175 0.9729
4.2218 -5.0460 -2.0236 0.9728
4.6600 -4.6516 -2.0252 0.9728
1.4852 5.3358 -1.8411 0.9769
1.0004 5.4395 -1.8385 0.9770
0.5090 5.4995 -1.8359 0.9770
-0.9659 5.4156 -1.8286 0.9771
-1.9111 5.1445 -1.8242 0.9771
-2.7917 4.7118 -1.8205 0.9772
-3.1992 4.4391 -1.8189 0.9772
-3.5807 4.1318 -1.8174 0.9772
-4.0800 3.9336 -1.8839 0.9764
-4.9169 3.2776 -1.9643 0.9754
-5.4195 2.3475 -1.9632 0.9754
-5.8651 -0.7597 -1.9659 0.9754
-5.7774 -1.2823 -1.9672 0.9754
-5.6438 -1.7954 -1.9687 0.9753
-5.4652 -2.2951 -1.9704 0.9753
-5.2429 -2.7776 -1.9722 0.9753
-4.6741 -3.6756 -1.9765 0.9752
-3.9539 -4.4608 -1.9814 0.9752
-3.5436 -4.8030 -1.9840 0.9752
-0.5893 -5.9903 -2.0008 0.9749
1.0267 -5.9558 -2.0089 0.9748
1.5574 -5.8473 -2.0114 0.9748
2.0768 -5.6912 -2.0138 0.9748
3.5242 -4.9503 -2.0199 0.9747
5.0498 -3.4085 -2.0252 0.9746
5.3364 -2.9440 -2.0259 0.9746
5.5796 -2.4553 -2.0263 0.9746
5.7775 -1.9464 -2.0265 0.9746
6.0839 -0.3421 -2.0255 0.9746
5.8034 1.8093 -2.0207 0.9747
5.6134 2.3192 -2.0189 0.9747
4.7774 3.7122 -2.0111 0.9748
3.7242 4.1530 -1.8542 0.9768
3.3333 4.4636 -1.8518 0.9768
2.9165 4.7374 -1.8492 0.9768
2.4775 4.9724 -1.8467 0.9769
1.8487 4.7292 -1.6879 0.9788
1.5471 5.3192 -1.8414 0.9769
-0.4146 5.4934 -1.8312 0.9770
-0.9033 5.4273 -1.8289 0.9771
-1.3836 5.3181 -1.8266 0.9771
-2.3041 4.9752 -1.8225 0.9772
-3.1480 4.4764 -1.8191 0.9772
-3.5330 4.1734 -1.8176 0.9772
-3.9898 3.9368 -1.8632 0.9767
-4.5527 3.7507 -1.9608 0.9754
-4.8789 3.3344 -1.9644 0.9754
-5.3920 2.4101 -1.9632 0.9754
-5.7348 1.4104 -1.9631 0.9754
-5.8389 0.8917 -1.9634 0.9754
-5.9084 -0.1633 -1.9647 0.9754
-5.8731 -0.6917 -1.9657 0.9754
-5.7913 -1.2152 -1.9670 0.9754
-5.2741 -2.7164 -1.9720 0.9753
-4.7156 -3.6207 -1.9762 0.9753
-2.6996 -5.3406 -1.9892 0.9751
-1.7093 -5.7525 -1.9948 0.9750
-0.1208 -6.0253 -2.0032 0.9749
1.4894 -5.8640 -2.0111 0.9748
2.0105 -5.7140 -2.0135 0.9748
2.5165 -5.5173 -2.0157 0.9748
3.9022 -4.6639 -2.0214 0.9747
4.3069 -4.2992 -2.0228 0.9747
0.4732 5.1132 -1.8363 0.9784
0.0138 5.1285 -1.8340 0.9784
-1.3438 4.9303 -1.8274 0.9785
-2.1965 4.6024 -1.8237 0.9786
-2.5971 4.3833 -1.8220 0.9786
-2.9764 4.1300 -1.8205 0.9786
-3.4200 3.9463 -1.8674 0.9781
-4.8283 2.6274 -1.9657 0.9769
-5.0431 2.1844 -1.9654 0.9769
-5.4428 0.7669 -1.9656 0.9769
-5.4910 0.2769 -1.9661 0.9769
-5.4573 -0.7069 -1.9679 0.9769
-5.3754 -1.1930 -1.9691 0.9769
-1.5271 -5.3660 -1.9951 0.9766
-1.0423 -5.4883 -1.9977 0.9765
-0.5477 -5.5669 -2.0004 0.9765
-0.0475 -5.6008 -2.0029 0.9765
0.4544 -5.5896 -2.0055 0.9765
1.9291 -5.2865 -2.0124 0.9764
3.6739 -4.2893 -2.0196 0.9763
4.0456 -3.9459 -2.0210 0.9763
4.3849 -3.5701 -2.0221 0.9763
5.3642 -1.8072 -2.0242 0.9762
5.5042 -1.3199 -2.0241 0.9762
5.5993 -0.8220 -2.0238 0.9762
5.6524 0.1890 -2.0225 0.9763
5.6100 0.6937 -2.0215 0.9763
4.4409 3.4508 -2.0112 0.9764
3.0972 4.1475 -1.8511 0.9783
2.7102 4.4024 -1.8487 0.9783
0.9887 5.0467 -1.8390 0.9784
-0.3855 5.1084 -1.8320 0.9785
-1.2868 4.9463 -1.8277 0.9785
-1.7224 4.8061 -1.8257 0.9785
-2.1433 4.6281 -1.8239 0.9786
-2.5465 4.4136 -1.8222 0.9786
-4.2450 3.4972 -1.9669 0.9769
-5.4334 0.8298 -1.9655 0.9769
-5.4872 0.3404 -1.9660 0.9769
-5.4977 -0.1520 -1.9668 0.9769
-5.2693 -1.6093 -1.9703 0.9769
-5.1082 -2.0760 -1.9718 0.9768
-4.9062 -2.5269 -1.9735 0.9768
-3.7241 -4.1048 -1.9820 0.9767
-3.3460 -4.4270 -1.9844 0.9767
-2.0582 -5.1766 -1.9921 0.9766
-1.5889 -5.3470 -1.9948 0.9766
-1.1055 -5.4750 -1.9974 0.9766
-0.1123 -5.5989 -2.0026 0.9765
0.3896 -5.5935 -2.0051 0.9765
0.8896 -5.5430 -2.0076 0.9764
1.3836 -5.4475 -2.0099 0.9764
2.7892 -4.8996 -2.0161 0.9763
3.2192 -4.6344 -2.0179 0.9763
3.6237 -4.3311 -2.0194 0.9763
3.9994 -3.9922 -2.0208 0.9763
0.8680 4.7195 -1.8389 0.9797
0.0129 4.7871 -1.8345 0.9797
-0.4150 4.7636 -1.8324 0.9797
-0.8386 4.7021 -1.8304 0.9797
-1.6598 4.4681 -1.8266 0.9798
-2.8518 3.9571 -1.8692 0.9793
-3.3573 3.8740 -1.9645 0.9783
-4.0031 3.2209 -1.9690 0.9782
-4.2735 2.8487 -1.9682 0.9782
-4.5100 2.4542 -1.9676 0.9782
-4.8739 1.6106 -1.9671 0.9783
-4.9987 1.1681 -1.9672 0.9783
-5.0839 0.7163 -1.9675 0.9782
-2.2991 -0.0902 -0.8817 0.9902
-2.3038 -0.2984 -0.8902 0.9901
-5.0204 -1.1142 -1.9707 0.9782
-4.3242 -2.8132 -1.9769 0.9781
-4.0591 -3.1920 -1.9789 0.9781
-3.4326 -3.8726 -1.9831 0.9781
-2.6936 -4.4327 -1.9877 0.9780
-0.9725 -5.1210 -1.9975 0.9779
-0.5110 -5.1938 -2.0000 0.9779
-0.0443 -5.2249 -2.0024 0.9779
0.4239 -5.2140 -2.0047 0.9778
0.8897 -5.1610 -2.0070 0.9778
1.3494 -5.0662 -2.0091 0.9778
2.6538 -4.5389 -2.0149 0.9777
3.0518 -4.2866 -2.0165 0.9777
3.7719 -3.6789 -2.0192 0.9777
4.0880 -3.3284 -2.0202 0.9777
4.3712 -2.9505 -2.0210 0.9777
5.2303 0.6467 -2.0196 0.9777
5.1486 1.1115 -2.0185 0.9777
5.0251 1.5666 -2.0171 0.9777
3.4860 3.8873 -2.0009 0.9779
2.1483 4.3117 -1.8460 0.9796
1.3421 4.6141 -1.8415 0.9796
0.9227 4.7099 -1.8392 0.9797
0.4970 4.7678 -1.8370 0.9797
-0.3599 4.7687 -1.8327 0.9797
-0.7843 4.7121 -1.8306 0.9797
-1.6082 4.4876 -1.8268 0.9798
-2.3826 4.1297 -1.8271 0.9798
-3.9657 3.2672 -1.9691 0.9782
-4.4814 2.5063 -1.9677 0.9782
-4.8550 1.6670 -1.9671 0.9783
-5.0751 0.7751 -1.9674 0.9782
-2.3030 0.1429 -0.8842 0.9902
-2.2962 -0.0635 -0.8803 0.9902
-2.3013 -0.2710 -0.8880 0.9901
-5.0326 -1.0560 -1.9706 0.9782
-4.9211 -1.5030 -1.9718 0.9782
-4.5815 -2.3597 -1.9749 0.9782
-3.4767 -3.8321 -1.9828 0.9781
-3.1234 -4.1325 -1.9851 0.9781
-1.9208 -4.8309 -1.9923 0.9780
-1.4826 -4.9896 -1.9947 0.9779
-1.0315 -5.1085 -1.9972 0.9779
-0.5710 -5.1867 -1.9996 0.9779
1.2905 -5.0808 -2.0089 0.9778
1.7417 -4.9500 -2.0109 0.9778
3.0016 -4.3212 -2.0163 0.9777
3.3787 -4.0383 -2.0177 0.9777
1.5911 4.2136 -1.8434 0.9807
0.8128 4.4195 -1.8391 0.9808
0.4136 4.4694 -1.8370 0.9808
-0.3887 4.4618 -1.8330 0.9808
-0.7856 4.4045 -1.8311 0.9808
-1.1753 4.3122 -1.8293 0.9809
-1.5550 4.1859 -1.8276 0.9809
-2.3486 3.9639 -1.8857 0.9803
-3.1523 3.6375 -1.9700 0.9794
-3.7512 3.0182 -1.9705 0.9794
-4.2264 2.2999 -1.9693 0.9794
-4.4145 1.9122 -1.9690 0.9794
-2.0958 0.4898 -0.8809 0.9907
-2.0207 0.2847 -0.8352 0.9912
-2.0204 -0.2617 -0.8338 0.9912
-4.5948 -1.4617 -1.9734 0.9794
-4.2671 -2.2606 -1.9763 0.9793
-3.8026 -2.9902 -1.9798 0.9793
-3.5232 -3.3217 -1.9818 0.9793
-3.2152 -3.6273 -1.9838 0.9793
-2.5227 -4.1514 -1.9882 0.9792
-2.1435 -4.3654 -1.9904 0.9792
-1.3343 -4.6883 -1.9950 0.9792
-0.9105 -4.7944 -1.9973 0.9791
-0.4784 -4.8622 -1.9996 0.9791
-0.0415 -4.8910 -2.0018 0.9791
0.3967 -4.8805 -2.0040 0.9791
0.8327 -4.8305 -2.0062 0.9790
1.2629 -4.7414 -2.0082 0.9790
2.8554 -4.0109 -2.0151 0.9789
3.2050 -3.7418 -2.0164 0.9789
3.5289 -3.4420 -2.0176 0.9789
4.3212 -2.3840 -2.0199 0.9789
4.5180 -1.9881 -2.0202 0.9789
4.6781 -1.5760 -2.0204 0.9789
4.8833 -0.7169 -2.0200 0.9789
4.9267 -0.2770 -2.0196 0.9789
4.8934 0.6050 -2.0180 0.9789
4.8171 1.0399 -2.0169 0.9789
4.5485 1.8793 -2.0142 0.9790
4.3587 2.2769 -2.0126 0.9790
3.5875 3.3433 -2.0070 0.9790
3.2694 3.6458 -2.0042 0.9791
2.9202 3.9105 -1.9975 0.9791
2.4919 4.0476 -1.9454 0.9797
1.6435 4.2044 -1.8476 0.9807
1.2566 4.3205 -1.8415 0.9807
0.8640 4.4105 -1.8394 0.9808
0.4654 4.4650 -1.8373 0.9808
-0.3371 4.4666 -1.8333 0.9808
-0.7346 4.4139 -1.8313 0.9808
-1.1255 4.3261 -1.8295 0.9809
-2.7641 3.9306 -1.9666 0.9794
-3.1093 3.6729 -1.9696 0.9794
-3.7162 3.0616 -1.9707 0.9794
-3.9738 2.7158 -1.9699 0.9794
-4.1996 2.3487 -1.9693 0.9794
-2.1022 0.5170 -0.8860 0.9907
-2.0196 -0.2378 -0.8323 0.9912
-2.0816 -0.4368 -0.8705 0.9908
-4.6111 -1.4083 -1.9733 0.9794
-4.4696 -1.8165 -1.9746 0.9794
-4.2925 -2.2108 -1.9761 0.9793
-4.0809 -2.5882 -1.9778 0.9793
-2.9254 -3.8705 -1.9857 0.9792
-2.5702 -4.1213 -1.9879 0.9792
-1.7986 -4.5237 -1.9924 0.9792
-0.9658 -4.7829 -1.9970 0.9791
-0.5346 -4.8556 -1.9993 0.9791
-0.0981 -4.8895 -2.0016 0.9791
0.3402 -4.8840 -2.0038 0.9791
1.2077 -4.7551 -2.0079 0.9790
2.0397 -4.4720 -2.0117 0.9790
2.4337 -4.2751 -2.0134 0.9790
3.4886 -3.4824 -2.0174 0.9789
1.1329 4.0702 -1.8413 0.9817
0.7634 4.1508 -1.8393 0.9818
-0.7380 4.1378 -1.8318 0.9818
-2.9662 3.4227 -1.9739 0.9804
-3.2588 3.1419 -1.9728 0.9804
-3.5253 2.8365 -1.9720 0.9805
-3.9721 2.1615 -1.9708 0.9805
-1.4928 0.4933 -0.6852 0.9932
-1.4862 0.3473 -0.6652 0.9934
-1.4470 -0.0568 -0.6311 0.9937
-1.4824 -0.3290 -0.6618 0.9934
-3.5726 -2.8094 -1.9807 0.9804
-3.0203 -3.4075 -1.9845 0.9803
-2.7060 -3.6678 -1.9865 0.9803
-2.3695 -3.8993 -1.9885 0.9803
-1.6401 -4.2683 -1.9928 0.9802
-0.4492 -4.5654 -1.9993 0.9802
0.7817 -4.5347 -2.0054 0.9801
1.1854 -4.4507 -2.0073 0.9801
1.5803 -4.3307 -2.0091 0.9801
1.9631 -4.1754 -2.0108 0.9801
2.6798 -3.7642 -2.0138 0.9800
3.3117 -3.2301 -2.0161 0.9800
3.8375 -2.5902 -2.0178 0.9800
4.0549 -2.2371 -2.0183 0.9800
4.3897 -1.4789 -2.0188 0.9800
4.5043 -1.0801 -2.0187 0.9800
4.5823 -0.6727 -2.0185 0.9800
4.4125 1.3756 -2.0143 0.9800
4.2689 1.7638 -2.0130 0.9800
4.0909 2.1371 -2.0115 0.9801
3.8802 2.4925 -2.0099 0.9801
3.6384 2.8272 -2.0081 0.9801
3.3677 3.1385 -2.0063 0.9801
2.7470 3.6785 -2.0008 0.9802
2.3997 3.8980 -1.9949 0.9802
1.5792 4.0399 -1.8904 0.9813
0.8115 4.1422 -1.8396 0.9818
0.4371 4.1937 -1.8376 0.9818
0.0601 4.2116 -1.8357 0.9818
-0.3167 4.1958 -1.8338 0.9818
-0.6901 4.1465 -1.8320 0.9818
-1.0574 4.0643 -1.8303 0.9818
-2.2585 3.9146 -1.9696 0.9805
-2.9266 3.4570 -1.9740 0.9804
-3.4924 2.8773 -1.9721 0.9804
-3.9469 2.2074 -1.9708 0.9805
-4.1278 1.8450 -1.9705 0.9805
-1.4910 0.5119 -0.6870 0.9931
-1.4894 0.3663 -0.6684 0.9933
-1.4736 0.2250 -0.6496 0.9935
-1.4722 -0.1734 -0.6460 0.9936
-1.4777 -0.3101 -0.6580 0.9934
-1.4940 -0.4563 -0.6808 0.9932
-4.2000 -1.7069 -1.9758 0.9804
-4.0333 -2.0773 -1.9772 0.9804
-3.6044 -2.7675 -1.9805 0.9804
-3.3454 -3.0817 -1.9823 0.9803
-2.7480 -3.6357 -1.9862 0.9803
-2.0603 -4.0758 -1.9904 0.9803
-1.6892 -4.2484 -1.9925 0.9802
-1.3037 -4.3873 -1.9947 0.9802
0.3194 -4.5853 -2.0032 0.9801
0.7291 -4.5428 -2.0052 0.9801
1.1337 -4.4636 -2.0071 0.9801
1.9145 -4.1974 -2.0106 0.9801
2.2841 -4.0124 -2.0122 0.9801
3.2738 -3.2680 -2.0160 0.9800
1.5172 4.0178 -1.9880 0.9812
1.1198 4.0231 -1.9330 0.9818
0.7399 4.0229 -1.8934 0.9821
0.0108 4.0151 -1.8585 0.9825
-0.3491 4.0074 -1.8620 0.9824
-1.8360 3.8471 -1.9732 0.9814
-2.1745 3.6701 -1.9746 0.9814
-2.7944 3.2245 -1.9750 0.9814
-3.0702 2.9600 -1.9741 0.9814
-3.3214 2.6724 -1.9733 0.9814
-3.5460 2.3637 -1.9726 0.9814
-1.2670 0.4187 -0.6177 0.9941
-1.2692 0.2966 -0.6033 0.9943
-1.2750 0.1796 -0.5960 0.9943
-1.2752 -0.1652 -0.5952 0.9943
-1.2681 -0.2814 -0.6013 0.9943
-1.2476 -0.5240 -0.6264 0.9941
-3.7768 -2.0009 -1.9784 0.9813
-3.3650 -2.6461 -1.9815 0.9813
-3.1174 -2.9391 -1.9832 0.9813
-2.5484 -3.4541 -1.9869 0.9813
-2.2313 -3.6719 -1.9889 0.9812
-1.8957 -3.8606 -1.9909 0.9812
-1.5443 -4.0189 -1.9929 0.9812
-0.4229 -4.2978 -1.9990 0.9811
-0.0366 -4.3227 -2.0010 0.9811
0.3506 -4.3128 -2.0029 0.9811
1.1157 -4.1889 -2.0066 0.9811
2.5217 -3.5421 -2.0126 0.9810
2.8302 -3.3042 -2.0138 0.9810
3.1160 -3.0392 -2.0148 0.9810
3.6106 -2.4371 -2.0164 0.9810
3.8151 -2.1048 -2.0169 0.9810
4.3113 -0.6329 -2.0170 0.9810
4.3497 -0.2446 -2.0166 0.9810
4.2536 0.9182 -2.0143 0.9810
4.1520 1.2944 -2.0132 0.9810
3.8498 2.0111 -2.0105 0.9810
3.6516 2.3457 -2.0090 0.9811
3.4243 2.6608 -2.0073 0.9811
3.1697 2.9539 -2.0056 0.9811
2.2632 3.6762 -1.9983 0.9812
1.1701 4.0229 -1.9393 0.9817
0.7881 4.0231 -1.8976 0.9821
0.4191 4.0207 -1.8712 0.9823
0.0573 4.0159 -1.8591 0.9825
-0.3025 4.0085 -1.8608 0.9824
-0.6655 3.9986 -1.8763 0.9823
-1.7912 3.8678 -1.9730 0.9814
-2.4560 3.4925 -1.9763 0.9814
-3.2904 2.7108 -1.9734 0.9814
-3.5185 2.4047 -1.9727 0.9814
-1.2745 0.1946 -0.5968 0.9943
-1.2700 0.0788 -0.5890 0.9944
-3.7994 -1.9568 -1.9782 0.9813
-3.1509 -2.9025 -1.9830 0.9813
-2.8811 -3.1757 -1.9848 0.9813
-2.2734 -3.6453 -1.9886 0.9812
-1.2274 -4.1307 -1.9947 0.9812
-0.8538 -4.2283 -1.9967 0.9812
0.3006 -4.3160 -2.0027 0.9811
0.6862 -4.2758 -2.0045 0.9811
1.0670 -4.2010 -2.0063 0.9811
1.4398 -4.0922 -2.0080 0.9811
1.8017 -3.9501 -2.0096 0.9810
2.1494 -3.7758 -2.0111 0.9810
2.4803 -3.5707 -2.0125 0.9810
2.7915 -3.3365 -2.0137 0.9810
3.0804 -3.0749 -2.0147 0.9810
1.0866 3.9039 -1.9878 0.9821
0.7317 3.9789 -1.9845 0.9821
0.3703 4.0014 -1.9712 0.9823
-0.7077 3.9677 -1.9770 0.9822
-1.0596 3.8877 -1.9766 0.9822
-1.4034 3.7777 -1.9768 0.9822
-2.3567 3.2700 -1.9772 0.9822
-2.6384 3.0444 -1.9761 0.9822
-2.8988 2.7949 -1.9752 0.9822
-1.1087 0.6033 -0.6192 0.9944
-1.1274 0.3726 -0.5824 0.9947
-1.1326 0.2647 -0.5705 0.9948
-1.1439 0.1612 -0.5666 0.9949
-1.1415 0.0576 -0.5606 0.9949
-1.1402 -0.0447 -0.5597 0.9949
-1.1341 -0.2517 -0.5699 0.9948
-1.1290 -0.3592 -0.5812 0.9947
-1.1082 -0.4654 -0.5896 0.9947
-1.0997 -0.5826 -0.6105 0.9945
-3.3847 -2.2020 -1.9807 0.9822
-3.1765 -2.4979 -1.9822 0.9822
-2.9427 -2.7744 -1.9838 0.9821
-1.7891 -3.6435 -1.9910 0.9821
-0.3990 -4.0551 -1.9987 0.9820
0.3308 -4.0688 -2.0024 0.9820
1.0525 -3.9515 -2.0059 0.9819
1.7426 -3.7063 -2.0090 0.9819
2.0686 -3.5380 -2.0103 0.9819
2.6692 -3.1163 -2.0127 0.9819
2.9387 -2.8663 -2.0137 0.9819
3.1847 -2.5929 -2.0145 0.9819
3.4050 -2.2983 -2.0151 0.9819
3.5978 -1.9849 -2.0156 0.9819
3.7616 -1.6553 -2.0159 0.9819
3.9965 -0.9584 -2.0160 0.9819
4.1051 0.1373 -2.0148 0.9819
4.0748 0.5038 -2.0140 0.9819
4.0116 0.8660 -2.0131 0.9819
3.9160 1.2209 -2.0121 0.9819
3.6312 1.8969 -2.0096 0.9819
3.4444 2.2126 -2.0081 0.9819
3.2301 2.5100 -2.0066 0.9819
2.7265 3.0403 -2.0032 0.9820
1.1320 3.8920 -1.9882 0.9821
0.7779 3.9709 -1.9849 0.9821
-1.0145 3.8997 -1.9766 0.9822
-1.6941 3.6580 -1.9774 0.9822
-2.0157 3.4937 -1.9785 0.9822
-2.8665 2.8284 -1.9753 0.9822
-3.1068 2.5595 -1.9745 0.9822
-1.1001 0.4917 -0.5911 0.9946
-1.1432 0.1746 -0.5673 0.9949
-1.1426 0.0709 -0.5615 0.9949
-1.1364 -0.2384 -0.5696 0.9948
-1.1304 -0.3452 -0.5798 0.9947
-3.4096 -2.1625 -1.9805 0.9822
-3.2049 -2.4607 -1.9820 0.9822
-2.1456 -3.4405 -1.9889 0.9821
-1.1583 -3.8979 -1.9946 0.9820
-0.8056 -3.9897 -1.9966 0.9820
-0.4458 -4.0497 -1.9985 0.9820
-0.0818 -4.0772 -2.0003 0.9820
0.2836 -4.0719 -2.0022 0.9820
0.6474 -4.0337 -2.0040 0.9820
1.0066 -3.9630 -2.0057 0.9819
2.6328 -3.1468 -2.0126 0.9819
2.9052 -2.9000 -2.0135 0.9819
0.6932 3.7692 -1.9882 0.9829
-0.3316 3.8060 -1.9820 0.9829
-0.6705 3.7593 -1.9810 0.9829
-1.9447 3.2823 -1.9792 0.9830
-3.1676 2.1115 -1.9749 0.9830
-0.9913 0.4294 -0.5604 0.9951
-1.0136 0.3349 -0.5538 0.9952
-1.0361 0.1460 -0.5428 0.9953
-1.0357 0.0522 -0.5380 0.9953
-0.9592 -0.5082 -0.5631 0.9951
-2.7832 -2.6240 -1.9844 0.9829
-2.5393 -2.8649 -1.9860 0.9829
-1.3780 -3.5861 -1.9930 0.9828
-1.0525 -3.6984 -1.9948 0.9828
-0.7181 -3.7812 -1.9967 0.9828
-0.0327 -3.8555 -2.0002 0.9828
0.3127 -3.8463 -2.0020 0.9828
0.6561 -3.8061 -2.0036 0.9827
0.9948 -3.7351 -2.0052 0.9827
1.3260 -3.6338 -2.0067 0.9827
1.6470 -3.5031 -2.0082 0.9827
2.2478 -3.1573 -2.0106 0.9827
2.5226 -2.9451 -2.0117 0.9827
2.7772 -2.7088 -2.0126 0.9827
3.2177 -2.1719 -2.0140 0.9827
3.3999 -1.8757 -2.0144 0.9827
3.5546 -1.5642 -2.0147 0.9827
3.7766 -0.9056 -2.0148 0.9827
3.8421 -0.5640 -2.0146 0.9827
3.8764 -0.2180 -2.0142 0.9827
3.8508 0.4761 -2.0129 0.9827
3.7912 0.8184 -2.0121 0.9827
3.7009 1.1538 -2.0111 0.9827
3.5808 1.4795 -2.0100 0.9827
3.2556 2.0913 -2.0074 0.9827
2.8264 2.6341 -2.0043 0.9827
2.3079 3.0905 -2.0010 0.9828
1.7170 3.4462 -1.9974 0.9828
1.4004 3.5824 -1.9954 0.9828
1.0722 3.6865 -1.9917 0.9828
0.7369 3.7616 -1.9885 0.9829
0.3969 3.8073 -1.9859 0.9829
-0.2875 3.8099 -1.9821 0.9829
-0.6270 3.7670 -1.9811 0.9829
-1.2881 3.5943 -1.9808 0.9829
-1.6044 3.4644 -1.9807 0.9829
-2.7117 2.6757 -1.9763 0.9830
-0.9495 0.5310 -0.5644 0.9951
-0.9873 0.4413 -0.5610 0.9951
-1.0208 0.2511 -0.5454 0.9953
-1.0351 0.1581 -0.5432 0.9953
-1.0366 0.0643 -0.5388 0.9953
-1.0278 -0.2157 -0.5448 0.9953
-0.9984 -0.4058 -0.5591 0.9952
-0.9722 -0.6166 -0.5973 0.9948
-2.5720 -2.8350 -1.9858 0.9829
-2.3100 -3.0563 -1.9875 0.9829
-1.7313 -3.4251 -1.9910 0.9829
-1.0952 -3.6855 -1.9946 0.9828
-0.7617 -3.7722 -1.9964 0.9828
-0.0773 -3.8545 -2.0000 0.9828
1.6062 -3.5216 -2.0080 0.9827
2.2109 -3.1829 -2.0105 0.9827
0.9761 3.5066 -1.9936 0.9835
0.6577 3.5762 -1.9915 0.9836
-0.3147 3.6118 -1.9857 0.9836
-0.6363 3.5675 -1.9848 0.9836
-0.9525 3.4947 -1.9839 0.9836
-1.2605 3.3931 -1.9825 0.9836
-1.8428 3.1102 -1.9800 0.9836
-2.3652 2.7292 -1.9780 0.9837
-0.9022 0.3908 -0.5385 0.9955
-0.9186 0.3036 -0.5299 0.9956
-0.9326 0.2179 -0.5246 0.9956
-0.9456 0.1332 -0.5230 0.9957
-0.9460 0.0477 -0.5188 0.9957
-0.9452 -0.0371 -0.5181 0.9957
-0.9463 -0.1226 -0.5226 0.9957
-0.9349 -0.2075 -0.5245 0.9956
-0.9203 -0.2928 -0.5290 0.9956
-2.8467 -2.2386 -1.9835 0.9836
-2.6369 -2.4861 -1.9849 0.9836
-2.1550 -2.9209 -1.9880 0.9836
-0.0310 -3.6513 -1.9999 0.9835
0.9420 -3.5368 -2.0047 0.9834
1.5595 -3.3168 -2.0074 0.9834
1.8511 -3.1659 -2.0086 0.9834
2.3882 -2.7883 -2.0108 0.9834
2.6293 -2.5645 -2.0116 0.9834
1.8690 -0.6297 -1.0802 0.9910
1.8863 -0.4523 -1.0624 0.9912
1.8851 -0.1060 -1.0341 0.9914
1.8808 0.0629 -1.0307 0.9915
1.8765 0.5850 -1.0766 0.9911
3.3903 1.4008 -2.0091 0.9834
3.0826 1.9802 -2.0067 0.9834
2.8910 2.2465 -2.0053 0.9834
2.1856 2.9268 -2.0006 0.9835
1.9134 3.1080 -1.9990 0.9835
1.6262 3.2640 -1.9973 0.9835
1.3265 3.3934 -1.9956 0.9835
0.6992 3.5690 -1.9919 0.9836
-0.2729 3.6154 -1.9858 0.9836
-0.9121 3.5059 -1.9841 0.9836
-1.2212 3.4078 -1.9827 0.9836
-1.5203 3.2827 -1.9814 0.9836
-2.3336 2.7565 -1.9781 0.9837
-2.5698 2.5356 -1.9773 0.9837
-2.7853 2.2947 -1.9766 0.9837
-0.8759 0.5986 -0.5811 0.9952
-0.8748 0.4893 -0.5490 0.9954
-0.8997 0.4021 -0.5397 0.9955
-0.9300 0.2287 -0.5246 0.9956
-0.9446 0.1443 -0.5234 0.9957
-0.9441 -0.0261 -0.5173 0.9957
-0.9469 -0.1115 -0.5222 0.9957
-0.9371 -0.1966 -0.5244 0.9956
-0.9068 -0.3685 -0.5361 0.9955
-0.8665 -0.5496 -0.5620 0.9953
-2.6653 -2.4552 -1.9847 0.9836
-2.4368 -2.6858 -1.9863 0.9836
-2.1884 -2.8954 -1.9878 0.9836
-1.9222 -3.0821 -1.9895 0.9836
-1.6401 -3.2445 -1.9912 0.9836
-1.3443 -3.3811 -1.9929 0.9835
-0.7214 -3.5728 -1.9963 0.9835
-0.3992 -3.6261 -1.9980 0.9835
-0.0732 -3.6503 -1.9997 0.9835
0.5795 -3.6108 -2.0029 0.9835
0.9009 -3.5471 -2.0045 0.9834
1.5208 -3.3344 -2.0072 0.9834
1.8142 -3.1869 -2.0085 0.9834
2.3556 -2.8155 -2.0106 0.9834
2.5993 -2.5946 -2.0115 0.9834
1.2209 3.2331 -1.9953 0.9842
0.3177 3.4328 -1.9904 0.9842
-1.4785 3.0980 -1.9819 0.9843
-2.0048 2.7818 -1.9797 0.9843
-2.2447 2.5901 -1.9788 0.9843
-0.7955 0.5303 -0.5520 0.9956
-0.8250 0.4490 -0.5423 0.9957
-0.8481 0.3674 -0.5336 0.9957
-0.8734 0.2041 -0.5179 0.9959
-0.8813 0.0444 -0.5094 0.9959
-0.8807 -0.0346 -0.5089 0.9959
-0.8817 -0.1142 -0.5133 0.9959
-0.7977 -0.5189 -0.5494 0.9956
-2.7013 -2.1242 -1.9840 0.9843
-2.2827 -2.5753 -1.9869 0.9842
-1.7899 -2.9455 -1.9899 0.9842
-1.5204 -3.0963 -1.9915 0.9842
-1.2383 -3.2225 -1.9932 0.9842
-0.3389 -3.4441 -1.9980 0.9841
-0.0294 -3.4633 -1.9996 0.9841
0.2808 -3.4548 -2.0012 0.9841
1.1908 -3.2631 -2.0055 0.9841
1.7554 -3.0023 -2.0079 0.9841
2.2646 -2.6440 -2.0099 0.9840
2.4931 -2.4317 -2.0107 0.9840
2.7016 -2.1996 -2.0114 0.9840
2.8884 -1.9496 -2.0119 0.9840
3.1907 -1.4040 -2.0126 0.9840
1.7321 -0.4154 -1.0284 0.9918
1.7371 -0.0977 -1.0045 0.9920
1.7336 0.0580 -1.0014 0.9920
1.7418 0.2154 -1.0133 0.9919
1.7328 0.3741 -1.0235 0.9918
1.7200 0.5362 -1.0402 0.9917
1.8116 0.7485 -1.1317 0.9910
3.0815 1.6098 -2.0073 0.9841
1.8149 2.9480 -1.9987 0.9841
1.5426 3.0961 -1.9971 0.9841
0.9645 3.3160 -1.9939 0.9842
0.6634 3.3863 -1.9922 0.9842
0.0491 3.4448 -1.9890 0.9842
-0.2591 3.4327 -1.9875 0.9842
-1.1589 3.2338 -1.9833 0.9843
-1.9726 2.8050 -1.9799 0.9843
-2.6435 2.1779 -1.9775 0.9843
-0.7975 0.5450 -0.5577 0.9955
-0.8214 0.4594 -0.5434 0.9957
-0.8820 -0.1039 -0.5127 0.9959
-0.8762 -0.1839 -0.5169 0.9959
-0.8650 -0.2642 -0.5222 0.9958
-0.8526 -0.3465 -0.5314 0.9958
-0.8317 -0.4284 -0.5401 0.9957
-0.8058 -0.6187 -0.5865 0.9953
-2.5290 -2.3297 -1.9852 0.9842
-2.3121 -2.5485 -1.9867 0.9842
-2.0764 -2.7472 -1.9882 0.9842
-1.8237 -2.9242 -1.9897 0.9842
-1.5560 -3.0782 -1.9913 0.9842
-0.9840 -3.3116 -1.9946 0.9842
0.2408 -3.4574 -2.0010 0.9841
0.5496 -3.4246 -2.0025 0.9841
1.1528 -3.2764 -2.0053 0.9841
1.4422 -3.1621 -2.0066 0.9841
1.9850 -2.8576 -2.0088 0.9841
2.2337 -2.6698 -2.0098 0.9841
2.4647 -2.4603 -2.0106 0.9840
