ply
format ascii 1.0
element vertex 1394
property float32 x
property float32 y
property float32 z
property float32 I
end_header
5.0978 12.1138 2.3174 0.9480
3.8508 12.0763 2.2350 0.9498
2.6803 12.0411 2.1751 0.9511
-1.6735 11.9103 2.1207 0.9523
-2.7715 11.8772 2.1505 0.9517
-13.3500 13.8457 3.3914 0.9249
5.2051 12.1170 2.3253 0.9478
3.9505 12.0793 2.2409 0.9497
2.7746 12.0439 2.1793 0.9510
9.3518 11.8698 2.3149 0.9407
7.8269 12.0080 2.1958 0.9436
1.5621 12.0075 1.8550 0.9522
0.4758 11.9748 1.8359 0.9527
-0.2440 4.8822 0.7489 0.9804
-2.7715 11.8773 1.8684 0.9518
-5.1114 11.8069 1.9710 0.9493
7.9474 11.9979 2.2047 0.9434
3.9505 12.0793 1.9469 0.9499
2.7746 12.0439 1.8934 0.9512
1.6530 12.0102 1.8572 0.9521
7.9456 12.1902 1.8948 0.9430
6.4516 12.1544 1.7919 0.9460
5.0978 12.1138 1.7115 0.9484
3.8598 12.1045 1.6545 0.9500
-0.2440 4.8815 0.6365 0.9805
-1.6918 12.0407 1.5834 0.9521
-9.6583 12.0044 2.0064 0.9397
8.0696 12.1823 1.9029 0.9428
6.5693 12.1580 1.7996 0.9458
5.2051 12.1170 1.7173 0.9482
3.9505 12.0793 1.6550 0.9500
2.8050 12.1759 1.6271 0.9508
-2.4493 -19.3873 2.0984 0.9244
7.9517 12.1995 1.5637 0.9431
3.8745 12.1506 1.3695 0.9500
0.4811 12.1060 1.3010 0.9524
-0.2440 4.8809 0.5248 0.9805
-1.6918 12.0407 1.3057 0.9523
-2.8019 12.0074 1.3240 0.9516
-5.1674 11.9363 1.3967 0.9490
-4.6201 6.9322 0.8946 0.9670
-13.3081 13.8023 2.0588 0.9258
-2.5958 -19.3917 2.1009 0.9243
8.0836 12.2035 1.5718 0.9428
6.5693 12.1580 1.4839 0.9459
3.9748 12.1537 1.3731 0.9499
-4.2521 -19.4414 1.6847 0.9232
3.8745 12.1506 1.0796 0.9501
-0.2439 4.8802 0.4136 0.9806
-1.6918 12.0407 1.0293 0.9524
-13.3106 13.8049 1.6234 0.9259
8.2552 12.4626 1.2655 0.9418
5.3156 12.3742 1.1401 0.9474
3.9748 12.1537 1.0825 0.9500
1.6711 12.1418 1.0375 0.9520
1.5792 12.1390 0.7591 0.9521
0.4890 12.3064 0.7637 0.9518
-0.2439 4.8796 0.3030 0.9806
-2.8019 12.0074 0.7646 0.9518
-3.9531 11.9728 0.7819 0.9507
-13.3156 13.8101 1.1896 0.9260
4.7001 7.0955 0.5278 0.9665
7.0967 13.1340 0.9257 0.9419
5.6329 13.1128 0.8850 0.9444
2.8514 12.3774 0.7876 0.9504
1.6711 12.1418 0.7600 0.9521
2.7545 12.3745 0.4999 0.9505
0.4890 12.3064 0.4856 0.9519
-0.2439 4.8789 0.1926 0.9806
-4.5779 6.8689 0.3255 0.9675
-13.3304 13.8254 0.7573 0.9260
7.1241 13.1848 0.5909 0.9418
5.6447 13.1404 0.5639 0.9444
3.9835 12.1803 0.5053 0.9500
5.5017 13.0735 0.2396 0.9448
2.7545 12.3745 0.2141 0.9505
0.4622 11.6313 0.1966 0.9545
-5.2315 12.0844 0.2224 0.9487
-13.3568 13.8527 0.3251 0.9259
-2.4629 -18.3987 0.3136 0.9284
3.9835 12.1803 0.2165 0.9500
1.6711 12.1418 0.2070 0.9522
-5.7743 -18.3428 -0.1083 0.9260
-0.6505 -18.0533 -0.1017 0.9303
4.2394 -17.8686 -0.1034 0.9292
4.6050 7.0650 -0.0475 0.9668
6.9775 13.1452 -0.0838 0.9422
3.8830 12.1773 -0.0720 0.9502
1.5792 12.1390 -0.0689 0.9522
0.4562 11.4818 -0.0647 0.9551
-0.2438 4.8776 -0.0275 0.9807
-1.6918 12.0407 -0.0685 0.9525
-9.6774 12.0281 -0.0869 0.9401
-7.7646 -18.2614 -0.1117 0.9237
-2.3971 -17.9072 -0.1017 0.9303
-0.7913 -18.2138 -0.1026 0.9297
0.8347 -18.0402 -0.1017 0.9303
5.8366 -17.8997 -0.1060 0.9275
4.6316 6.9922 -0.0472 0.9670
7.1048 13.1490 -0.0841 0.9420
5.6447 13.1404 -0.0805 0.9444
3.9835 12.1803 -0.0722 0.9500
2.8050 12.1759 -0.0703 0.9512
1.6711 12.1418 -0.0690 0.9522
-7.5211 -18.0587 -0.5508 0.9247
-5.6915 -18.0797 -0.5337 0.9270
-2.2651 -17.9293 -0.5089 0.9302
-0.6482 -17.9907 -0.5069 0.9305
0.9595 -17.8698 -0.5039 0.9309
2.5543 -17.7035 -0.5037 0.9309
4.2022 -17.7117 -0.5126 0.9297
6.7766 -15.4959 -0.4762 0.9346
6.9775 13.1452 -0.4191 0.9422
5.5017 13.0735 -0.3994 0.9448
0.4505 11.3361 -0.3195 0.9556
-9.6774 12.0281 -0.4347 0.9401
-7.7024 -18.1153 -0.5543 0.9243
-5.8501 -18.1144 -0.5360 0.9267
-4.1124 -18.1577 -0.5242 0.9282
-2.4092 -17.9978 -0.5113 0.9299
2.4335 -17.7970 -0.5058 0.9306
4.0626 -17.7057 -0.5115 0.9299
5.8176 -17.8415 -0.5284 0.9277
3.5304 10.7947 -0.3198 0.9556
-7.5269 -18.0728 -0.9929 0.9246
0.9619 -17.9160 -0.9099 0.9307
5.9408 -17.7719 -0.9503 0.9277
4.5942 7.0485 -0.4267 0.9669
0.4680 11.7767 -0.5977 0.9539
-0.2437 4.8763 -0.2476 0.9806
-2.7507 11.7879 -0.6139 0.9527
-3.8808 11.7539 -0.6277 0.9516
-5.0729 11.7181 -0.6476 0.9501
-4.5562 6.8363 -0.4166 0.9676
-9.6774 12.0281 -0.7829 0.9400
-13.4560 13.9557 -0.9832 0.9253
-7.6757 -18.0524 -0.9948 0.9244
-5.8611 -18.1484 -0.9672 0.9265
-4.1055 -18.1271 -0.9426 0.9283
2.4490 -17.9110 -0.9168 0.9302
4.0567 -17.6803 -0.9199 0.9299
5.8100 -17.8183 -0.9505 0.9277
7.7217 -14.3209 -0.8251 0.9369
7.1241 13.1848 -0.7600 0.9417
3.4265 10.4771 -0.5590 0.9568
2.5140 10.9127 -0.5679 0.9561
1.4971 10.8780 -0.5569 0.9570
-5.5449 -17.6142 -1.3540 0.9286
-3.8425 -17.5688 -1.3186 0.9304
-2.2372 -17.7086 -1.3088 0.9309
0.9570 -17.8237 -1.3088 0.9309
2.5489 -17.6664 -1.3088 0.9309
6.9965 13.1810 -1.0942 0.9419
4.4217 10.5070 -0.8358 0.9553
3.3400 10.4745 -0.8061 0.9569
1.3776 10.5888 -0.7829 0.9581
0.4711 11.8557 -0.8700 0.9535
-1.6609 11.8206 -0.8752 0.9533
-4.5446 6.8189 -0.6008 0.9677
-13.0195 13.5030 -1.3753 0.9275
-7.5117 -17.6667 -1.4076 0.9259
-5.6898 -17.6181 -1.3575 0.9284
-3.9798 -17.5725 -1.3211 0.9303
-0.7798 -17.9487 -1.3173 0.9305
2.4181 -17.6848 -1.3088 0.9309
3.9918 -17.3972 -1.3088 0.9309
5.7340 -17.5852 -1.3562 0.9285
7.1241 13.1848 -1.0988 0.9417
3.4265 10.4771 -0.8082 0.9568
-10.4238 -16.1224 -1.8432 0.9258
-8.9384 -16.9909 -1.8432 0.9258
-7.3561 -17.6625 -1.8369 0.9260
-5.5449 -17.6142 -1.7729 0.9285
-2.2141 -17.5254 -1.6959 0.9315
-0.6299 -17.4831 -1.6796 0.9321
0.9364 -17.4413 -1.6769 0.9322
2.5104 -17.3993 -1.6877 0.9318
4.1179 -17.3564 -1.7126 0.9308
5.8972 -17.6416 -1.7858 0.9280
10.7062 -15.9360 -1.8431 0.9258
13.1837 13.9560 -1.8431 0.9258
6.9695 13.1302 -1.4271 0.9420
4.4217 10.5070 -1.0944 0.9552
-1.6609 11.8206 -1.1460 0.9532
-3.8808 11.7539 -1.1883 0.9515
-5.0729 11.7181 -1.2259 0.9500
-4.5299 6.7969 -0.7842 0.9677
-9.3543 11.6266 -1.4326 0.9418
-12.9426 13.4232 -1.7902 0.9278
-12.5213 10.8492 -1.5906 0.9356
-10.5428 -16.0448 -1.8432 0.9258
-9.0639 -16.9243 -1.8432 0.9258
-7.5117 -17.6667 -1.8430 0.9258
-5.6898 -17.6181 -1.7774 0.9283
-3.9798 -17.5725 -1.7298 0.9302
-2.3465 -17.5289 -1.6979 0.9314
3.9833 -17.3600 -1.7100 0.9309
5.7340 -17.5852 -1.7757 0.9284
6.6067 -15.4173 -1.6103 0.9348
10.5880 -16.0148 -1.8431 0.9258
7.0967 13.1340 -1.4332 0.9418
3.4265 10.4771 -1.0583 0.9567
2.4511 10.6398 -1.0482 0.9571
-11.4900 -12.2536 -1.9954 0.9346
-2.4624 -3.8086 -0.5387 0.9819
-1.9209 -3.6513 -0.4901 0.9835
-1.9448 -15.3942 -1.8432 0.9394
2.2158 -15.3575 -1.8431 0.9394
3.5820 -15.0975 -1.8431 0.9394
4.9193 -14.7161 -1.8431 0.9394
6.3922 -14.6169 -1.8950 0.9378
8.0526 -14.6736 -1.9882 0.9348
9.3675 -13.9434 -1.9953 0.9346
10.5782 -13.0487 -1.9953 0.9346
12.7359 -10.9528 -1.9953 0.9346
13.6654 -9.7685 -1.9953 0.9346
15.1884 -7.1747 -1.9953 0.9346
16.7404 -1.3875 -1.9953 0.9346
16.7195 1.6204 -1.9953 0.9346
16.1624 4.5763 -1.9953 0.9346
15.0871 7.3855 -1.9953 0.9346
14.3652 8.7066 -1.9953 0.9346
12.4961 9.1983 -1.8431 0.9394
11.6224 10.2802 -1.8431 0.9394
9.6026 12.1882 -1.8431 0.9394
4.5687 7.0093 -0.9939 0.9669
6.9695 13.1302 -1.7658 0.9419
3.3400 10.4745 -1.3060 0.9567
2.3678 10.6373 -1.2945 0.9571
1.3800 10.6076 -1.2707 0.9578
-1.6011 11.3956 -1.3669 0.9547
-2.5685 11.0069 -1.3426 0.9555
-3.8808 11.7539 -1.4703 0.9514
-6.5541 12.0484 -1.6292 0.9462
-4.5511 6.8287 -0.9748 0.9675
-15.1619 7.2310 -1.9954 0.9346
-15.7485 5.8444 -1.9954 0.9346
-16.7353 1.4494 -1.9954 0.9346
-16.7255 -1.5585 -1.9954 0.9346
-16.1794 -4.5165 -1.9954 0.9346
-15.1145 -7.3297 -1.9954 0.9346
-12.6233 -11.0825 -1.9954 0.9346
-11.5804 -12.1682 -1.9954 0.9346
-1.9628 -3.6650 -0.4939 0.9834
-4.8211 -14.9281 -1.8634 0.9388
-2.0587 -15.3794 -1.8432 0.9394
-0.6735 -15.5020 -1.8432 0.9394
2.1021 -15.3735 -1.8431 0.9394
10.4814 -13.1266 -1.9953 0.9346
11.6146 -12.1354 -1.9953 0.9346
12.6544 -11.0468 -1.9953 0.9346
13.5927 -9.8694 -1.9953 0.9346
15.1349 -7.2869 -1.9953 0.9346
15.7266 -5.9026 -1.9953 0.9346
16.5272 -3.0032 -1.9953 0.9346
16.5298 2.9886 -1.9953 0.9346
16.1958 4.4566 -1.9953 0.9346
11.6982 10.1939 -1.8431 0.9394
9.6925 12.1168 -1.8431 0.9394
4.6226 6.9786 -0.9943 0.9668
4.5147 10.5098 -1.3587 0.9550
3.4265 10.4771 -1.3094 0.9566
2.4511 10.6398 -1.2970 0.9570
-2.0401 -3.1554 -0.5324 0.9849
-1.7341 -3.2963 -0.5277 0.9851
-1.4666 -3.5215 -0.5405 0.9847
-1.2586 -3.9981 -0.5939 0.9832
-3.0089 -13.7574 -1.9954 0.9447
-1.7651 -13.9715 -1.9954 0.9447
2.0110 -13.9382 -1.9953 0.9447
3.2509 -13.7022 -1.9953 0.9447
4.4647 -13.3561 -1.9953 0.9447
9.8122 -10.1015 -1.9953 0.9447
11.4564 -8.1895 -1.9953 0.9447
12.1436 -7.1309 -1.9953 0.9447
13.6019 -3.6476 -1.9953 0.9447
14.0822 0.0980 -1.9953 0.9447
14.0168 1.3585 -1.9953 0.9447
13.8389 2.6080 -1.9953 0.9447
13.5498 3.8366 -1.9953 0.9447
12.6483 6.1917 -1.9953 0.9447
10.4762 7.7114 -1.8431 0.9488
9.7437 8.6184 -1.8431 0.9488
4.5751 7.0191 -1.1871 0.9667
6.0989 11.4900 -1.8431 0.9488
5.0457 11.9899 -1.8431 0.9488
3.8218 11.9854 -1.7824 0.9504
-1.5895 11.3130 -1.6187 0.9549
-2.5685 11.0069 -1.6015 0.9554
-4.5542 6.8333 -1.1635 0.9674
-8.1545 10.1353 -1.8432 0.9488
-11.1930 6.6285 -1.8432 0.9488
-12.7111 6.0621 -1.9954 0.9447
-13.2028 4.8997 -1.9954 0.9447
-13.8650 2.4664 -1.9954 0.9447
-14.0826 -0.0459 -1.9954 0.9447
-14.0219 -1.3066 -1.9954 0.9447
-13.1706 -4.9857 -1.9954 0.9447
-12.0702 -7.2547 -1.9954 0.9447
-11.3722 -8.3063 -1.9954 0.9447
-2.5108 -3.1627 -0.5722 0.9838
-2.0742 -3.1566 -0.5352 0.9849
-1.7563 -3.2795 -0.5271 0.9851
-1.4877 -3.4990 -0.5387 0.9848
-1.2610 -3.9045 -0.5814 0.9836
-0.6112 -14.0693 -1.9954 0.9447
1.9078 -13.9527 -1.9953 0.9447
4.3657 -13.3888 -1.9953 0.9447
6.6835 -12.3955 -1.9953 0.9447
8.7871 -11.0048 -1.9953 0.9447
9.7371 -10.1738 -1.9953 0.9447
12.0905 -7.2206 -1.9953 0.9447
12.6885 -6.1090 -1.9953 0.9447
13.1845 -4.9485 -1.9953 0.9447
13.5746 -3.7481 -1.9953 0.9447
14.0265 1.2547 -1.9953 0.9447
13.5779 3.7362 -1.9953 0.9447
13.1888 4.9369 -1.9953 0.9447
10.5330 7.6337 -1.8431 0.9488
9.0027 9.3898 -1.8431 0.9488
8.1258 10.1582 -1.8431 0.9488
6.1838 11.4446 -1.8431 0.9488
2.4511 10.6398 -1.5470 0.9568
1.4603 10.6100 -1.5175 0.9577
-1.6223 -3.0838 -0.5740 0.9860
-2.5879 -11.8325 -1.9954 0.9521
-1.5181 -12.0167 -1.9954 0.9521
1.7297 -11.9880 -1.9953 0.9521
2.7961 -11.7850 -1.9953 0.9521
3.8400 -11.4874 -1.9953 0.9521
5.8272 -10.6183 -1.9953 0.9521
9.1832 -7.8976 -1.9953 0.9521
9.8535 -7.0437 -1.9953 0.9521
10.9517 -5.1734 -1.9953 0.9521
11.9327 -2.0772 -1.9953 0.9521
12.1118 0.0843 -1.9953 0.9521
11.9026 2.2431 -1.9953 0.9521
9.0104 6.6325 -1.8431 0.9557
8.3804 7.4126 -1.8431 0.9557
7.6831 8.1331 -1.8431 0.9557
4.5825 7.0305 -1.3825 0.9666
5.2456 9.8824 -1.8431 0.9557
3.3990 10.6595 -1.8431 0.9557
0.4204 10.5788 -1.7441 0.9580
-0.2436 4.8730 -0.8038 0.9804
-2.5425 10.8956 -1.8432 0.9557
-4.4449 10.2675 -1.8432 0.9557
-4.1996 7.7202 -1.4478 0.9650
-7.0135 8.7172 -1.8432 0.9557
-11.3555 4.2141 -1.9954 0.9521
-11.6872 3.1805 -1.9954 0.9521
-11.9250 2.1213 -1.9954 0.9521
-12.0670 1.0451 -1.9954 0.9521
-11.6662 -3.2567 -1.9954 0.9521
-10.3814 -6.2396 -1.9954 0.9521
-9.1021 -7.9911 -1.9954 0.9521
-2.3680 -2.9829 -0.6274 0.9847
-2.6754 -11.8130 -1.9954 0.9521
-1.6070 -12.0051 -1.9954 0.9521
0.5598 -12.0992 -1.9954 0.9521
2.7088 -11.8054 -1.9953 0.9521
4.7708 -11.1330 -1.9953 0.9521
5.7484 -10.6612 -1.9953 0.9521
7.5577 -9.4650 -1.9953 0.9521
8.3747 -8.7503 -1.9953 0.9521
9.1245 -7.9653 -1.9953 0.9521
10.3989 -6.2103 -1.9953 0.9521
11.9170 -2.1654 -1.9953 0.9521
12.1121 -0.0053 -1.9953 0.9521
12.0640 1.0791 -1.9953 0.9521
11.9189 2.1549 -1.9953 0.9521
11.3435 4.2461 -1.9953 0.9521
10.9177 5.2447 -1.9953 0.9521
9.6107 5.7281 -1.8431 0.9557
9.0592 6.5656 -1.8431 0.9557
7.7430 8.0760 -1.8431 0.9557
6.9889 8.7369 -1.8431 0.9557
5.3186 9.8433 -1.8431 0.9557
4.4159 10.2799 -1.8431 0.9557
2.4644 10.6975 -1.8085 0.9565
-2.7452 -2.9276 -0.7544 0.9838
-2.2926 -2.9322 -0.6996 0.9850
-1.9070 -2.9495 -0.6602 0.9858
-0.3823 -10.6089 -1.9954 0.9577
0.5692 -10.6005 -1.9954 0.9577
1.5160 -10.5070 -1.9953 0.9577
2.4506 -10.3290 -1.9953 0.9577
5.9200 -8.8118 -1.9953 0.9577
8.0487 -6.9219 -1.9953 0.9577
8.6361 -6.1734 -1.9953 0.9577
9.1542 -5.3754 -1.9953 0.9577
9.5987 -4.5342 -1.9953 0.9577
10.6155 0.0739 -1.9953 0.9577
10.5662 1.0240 -1.9953 0.9577
10.4321 1.9660 -1.9953 0.9577
10.2142 2.8921 -1.9953 0.9577
9.5346 4.6674 -1.9953 0.9577
8.3860 5.0826 -1.8431 0.9609
7.8972 5.8131 -1.8431 0.9609
6.7338 7.1283 -1.8431 0.9609
5.2905 6.7150 -1.6068 0.9658
4.1645 7.8456 -1.6695 0.9645
2.1306 9.5718 -1.8431 0.9609
1.2651 9.7241 -1.8431 0.9609
0.3894 9.7983 -1.8432 0.9609
-0.2435 4.8724 -0.9170 0.9803
-3.0744 9.3116 -1.8432 0.9609
-3.8958 8.9990 -1.8432 0.9609
-5.1167 6.3596 -1.5342 0.9673
-7.4111 6.4214 -1.8432 0.9609
-7.9563 5.7321 -1.8432 0.9609
-9.5618 4.5602 -1.9912 0.9578
-10.2433 2.7876 -1.9954 0.9577
-10.6158 -0.0346 -1.9954 0.9577
-10.4394 -1.9274 -1.9954 0.9577
-10.2249 -2.8543 -1.9954 0.9577
-3.4145 -2.9978 -0.8540 0.9817
-2.7858 -2.9272 -0.7595 0.9837
-2.3265 -2.9305 -0.7033 0.9849
-1.9373 -2.9483 -0.6631 0.9857
-1.5860 -2.9613 -0.6314 0.9864
-1.2944 -3.0442 -0.6218 0.9866
-1.4085 -10.5219 -1.9954 0.9577
-0.4608 -10.6058 -1.9954 0.9577
0.4907 -10.6044 -1.9954 0.9577
1.4382 -10.5179 -1.9954 0.9577
2.3741 -10.3469 -1.9953 0.9577
5.0382 -9.3440 -1.9953 0.9577
5.8546 -8.8554 -1.9953 0.9577
6.6239 -8.2956 -1.9953 0.9577
7.9973 -6.9813 -1.9953 0.9577
8.5902 -6.2372 -1.9953 0.9577
9.1141 -5.4430 -1.9953 0.9577
9.5649 -4.6051 -1.9953 0.9577
10.6157 -0.0047 -1.9953 0.9577
10.5735 0.9458 -1.9953 0.9577
10.4464 1.8887 -1.9953 0.9577
9.9420 3.7215 -1.9953 0.9577
9.5689 4.5967 -1.9953 0.9577
8.4233 5.0204 -1.8431 0.9609
5.3737 6.7177 -1.6169 0.9656
4.1755 7.7276 -1.6510 0.9649
3.8704 9.0099 -1.8431 0.9609
3.0481 9.3202 -1.8431 0.9609
2.2014 9.5557 -1.8431 0.9609
-1.8785 -2.9055 -0.7313 0.9860
-1.2303 -2.9540 -0.6764 0.9870
-0.9987 -3.1725 -0.7030 0.9865
-1.1832 -9.3652 -1.9954 0.9621
-0.3399 -9.4335 -1.9954 0.9621
2.9927 -8.9527 -1.9953 0.9621
4.5414 -8.2754 -1.9953 0.9621
5.2641 -7.8355 -1.9953 0.9621
5.9445 -7.3328 -1.9953 0.9621
7.1570 -6.1550 -1.9953 0.9621
8.5352 -4.0319 -1.9953 0.9621
9.1175 -2.4450 -1.9953 0.9621
9.2998 -1.6188 -1.9953 0.9621
9.4074 -0.7797 -1.9953 0.9621
9.4394 0.0657 -1.9953 0.9621
9.3956 0.9106 -1.9953 0.9621
9.2763 1.7482 -1.9953 0.9621
9.0825 2.5717 -1.9953 0.9621
8.8158 3.3746 -1.9953 0.9621
8.4783 4.1503 -1.9953 0.9621
7.0223 5.1690 -1.8431 0.9650
5.9878 6.3386 -1.8431 0.9650
4.3570 6.6846 -1.6867 0.9679
4.0882 7.7018 -1.8431 0.9650
1.8946 8.5113 -1.8431 0.9650
0.3462 8.7127 -1.8432 0.9650
-1.2132 8.6348 -1.8432 0.9650
-1.9815 8.4915 -1.8432 0.9650
-2.7338 8.2800 -1.8432 0.9650
-4.1460 7.6215 -1.8340 0.9652
-5.1167 6.3596 -1.7254 0.9672
-6.0523 6.2771 -1.8432 0.9650
-8.5110 4.0590 -1.9932 0.9622
-8.8499 3.2843 -1.9954 0.9621
-9.3990 -0.8758 -1.9954 0.9621
-7.6228 -5.5677 -1.9954 0.9621
-2.7526 -2.8924 -0.8440 0.9838
-2.2895 -2.8840 -0.7784 0.9851
-1.9082 -2.9041 -0.7345 0.9859
-1.2494 -2.9384 -0.6749 0.9870
-1.0181 -3.1523 -0.7002 0.9865
-0.4097 -9.4308 -1.9954 0.9621
0.4363 -9.4296 -1.9954 0.9621
2.1111 -9.2006 -1.9953 0.9621
8.1044 -4.8400 -1.9953 0.9621
8.5052 -4.0949 -1.9953 0.9621
8.8376 -3.3170 -1.9953 0.9621
9.0991 -2.5124 -1.9953 0.9621
9.4396 -0.0042 -1.9953 0.9621
9.4021 0.8410 -1.9953 0.9621
9.1013 2.5044 -1.9953 0.9621
8.8405 3.3092 -1.9953 0.9621
7.0603 5.1169 -1.8431 0.9650
6.5738 5.7285 -1.8431 0.9650
6.0345 6.2941 -1.8431 0.9650
5.3271 6.6595 -1.8027 0.9657
4.4294 6.6870 -1.6955 0.9677
2.7104 8.2876 -1.8431 0.9650
1.9575 8.4970 -1.8431 0.9650
1.1889 8.6382 -1.8431 0.9650
-2.2209 -2.8405 -0.8474 0.9853
-1.5144 -2.8787 -0.7645 0.9867
-1.2038 -2.8904 -0.7359 0.9872
-0.7359 -3.3645 -0.8094 0.9859
-0.5020 -3.9733 -0.9412 0.9837
-0.1560 -4.3307 -1.0185 0.9824
1.2124 -8.4030 -1.9954 0.9657
1.9599 -8.2607 -1.9953 0.9657
2.6916 -8.0521 -1.9953 0.9657
4.0846 -7.4429 -1.9953 0.9657
4.7346 -7.0473 -1.9953 0.9657
5.3465 -6.5951 -1.9953 0.9657
5.9155 -6.0899 -1.9953 0.9657
6.4370 -5.5358 -1.9953 0.9657
7.6766 -3.6263 -1.9953 0.9657
8.3642 -1.4560 -1.9953 0.9657
8.4898 0.0591 -1.9953 0.9657
8.4504 0.8190 -1.9953 0.9657
7.9290 3.0351 -1.9953 0.9657
7.2361 4.3858 -1.9886 0.9658
6.3158 4.6490 -1.8431 0.9683
5.8742 5.1958 -1.8431 0.9683
4.8534 6.1602 -1.8431 0.9683
4.2823 6.5700 -1.8431 0.9683
0.3114 7.8362 -1.8432 0.9683
-0.2427 4.8551 -1.1425 0.9802
-3.1157 7.1970 -1.8432 0.9683
-3.7475 6.8891 -1.8432 0.9683
-4.2146 6.3238 -1.7861 0.9693
-5.9271 5.1355 -1.8432 0.9683
-6.3631 4.5842 -1.8432 0.9683
-7.9596 2.9539 -1.9954 0.9657
-8.4584 0.7326 -1.9954 0.9657
-8.4900 -0.0277 -1.9954 0.9657
-8.3489 -1.5414 -1.9954 0.9657
-8.1774 -2.2828 -1.9954 0.9657
-7.9402 -3.0057 -1.9954 0.9657
-7.6392 -3.7046 -1.9954 0.9657
-3.2358 -2.8408 -1.0120 0.9825
-2.7262 -2.8646 -0.9294 0.9839
-2.2534 -2.8384 -0.8518 0.9852
-1.8798 -2.8608 -0.8045 0.9860
-0.9794 -3.0327 -0.7490 0.9870
1.1502 -8.4118 -1.9954 0.9657
2.6320 -8.0718 -1.9953 0.9657
4.0293 -7.4729 -1.9953 0.9657
4.6822 -7.0821 -1.9953 0.9657
5.2975 -6.6345 -1.9953 0.9657
5.8703 -6.1335 -1.9953 0.9657
6.8701 -4.9882 -1.9953 0.9657
7.6496 -3.6830 -1.9953 0.9657
8.3532 -1.5179 -1.9953 0.9657
8.4556 -0.7639 -1.9953 0.9657
7.6528 3.6763 -1.9953 0.9657
7.2719 4.3342 -1.9896 0.9658
5.9125 5.1522 -1.8431 0.9683
3.7281 6.8996 -1.8431 0.9683
3.0953 7.2057 -1.8431 0.9683
1.7606 7.6422 -1.8431 0.9683
-2.6802 -2.8583 -1.0145 0.9839
-1.4938 -2.8396 -0.8308 0.9868
-0.6998 -3.1997 -0.8480 0.9866
-0.4565 -3.6138 -0.9431 0.9851
-0.1362 -3.7802 -0.9794 0.9845
0.2097 -3.9062 -1.0128 0.9840
1.1005 -7.6275 -1.9954 0.9687
1.7790 -7.4983 -1.9953 0.9687
2.4432 -7.3089 -1.9953 0.9687
3.0878 -7.0608 -1.9953 0.9687
3.7076 -6.7560 -1.9953 0.9687
4.2976 -6.3969 -1.9953 0.9687
5.3696 -5.5279 -1.9953 0.9687
5.8429 -5.0249 -1.9953 0.9687
6.2694 -4.4816 -1.9953 0.9687
6.6454 -3.9023 -1.9953 0.9687
6.9681 -3.2916 -1.9953 0.9687
7.2349 -2.6545 -1.9953 0.9687
7.4435 -1.9961 -1.9953 0.9687
7.5923 -1.3216 -1.9953 0.9687
7.6801 -0.6365 -1.9953 0.9687
7.7063 0.0536 -1.9953 0.9687
7.1972 2.7550 -1.9953 0.9687
6.9216 3.3883 -1.9953 0.9687
5.3321 4.7163 -1.8431 0.9710
4.8884 5.1748 -1.8431 0.9710
4.4055 5.5917 -1.8431 0.9710
3.3376 6.2878 -1.8431 0.9710
2.1626 6.7822 -1.8431 0.9710
0.9184 7.0592 -1.8432 0.9710
-0.9905 7.0494 -1.8432 0.9710
-1.6177 6.9324 -1.8432 0.9710
-2.2319 6.7598 -1.8432 0.9710
-2.8281 6.5328 -1.8432 0.9710
-3.4017 6.2533 -1.8432 0.9710
-4.4624 5.5464 -1.8432 0.9710
-5.3801 4.6616 -1.8432 0.9710
-5.7845 4.1674 -1.8459 0.9710
-6.6116 3.9154 -1.9895 0.9687
-7.4361 2.0236 -1.9954 0.9687
-7.7065 -0.0251 -1.9954 0.9687
-7.4227 -2.0721 -1.9954 0.9687
-7.2074 -2.7283 -1.9954 0.9687
-6.9342 -3.3627 -1.9954 0.9687
-1.2127 -2.8522 -0.8025 0.9873
0.1802 -3.8955 -1.0097 0.9840
1.0440 -7.6355 -1.9954 0.9687
3.0355 -7.0835 -1.9953 0.9687
3.6575 -6.7833 -1.9953 0.9687
4.2501 -6.4286 -1.9953 0.9687
5.8056 -5.0680 -1.9953 0.9687
6.2360 -4.5279 -1.9953 0.9687
6.9436 -3.3431 -1.9953 0.9687
7.2150 -2.7080 -1.9953 0.9687
7.4285 -2.0511 -1.9953 0.9687
7.6752 -0.6934 -1.9953 0.9687
7.4303 2.0446 -1.9953 0.9687
7.2174 2.7016 -1.9953 0.9687
6.6171 3.9439 -1.9945 0.9687
5.3669 4.6768 -1.8431 0.9710
4.4467 5.5589 -1.8431 0.9710
3.3840 6.2629 -1.8431 0.9710
2.2128 6.7660 -1.8431 0.9710
1.5981 6.9370 -1.8431 0.9710
0.9706 7.0522 -1.8432 0.9710
-2.6632 -2.8402 -1.1022 0.9839
-1.7964 -2.7785 -0.9367 0.9863
-1.1724 -2.8150 -0.8633 0.9874
-0.6753 -3.0875 -0.8947 0.9869
0.5588 -3.8729 -1.1078 0.9839
1.6271 -6.8580 -1.9953 0.9711
2.2346 -6.6848 -1.9953 0.9711
2.8241 -6.4579 -1.9953 0.9711
4.4386 -5.4752 -1.9953 0.9711
4.9110 -5.0558 -1.9953 0.9711
6.9440 -1.2088 -1.9953 0.9711
7.0155 0.6799 -1.9953 0.9711
6.9264 1.3053 -1.9953 0.9711
6.3306 3.0990 -1.9953 0.9711
4.4710 4.7329 -1.8431 0.9733
3.5552 5.4544 -1.8431 0.9733
2.5254 6.0010 -1.8431 0.9733
1.9780 6.2030 -1.8431 0.9733
1.4146 6.3552 -1.8431 0.9733
0.8400 6.4563 -1.8432 0.9733
0.2585 6.5056 -1.8432 0.9733
-0.2397 4.7955 -1.3593 0.9802
-0.9059 6.4474 -1.8432 0.9733
-1.4795 6.3404 -1.8432 0.9733
-2.0413 6.1825 -1.8432 0.9733
-2.5866 5.9749 -1.8432 0.9733
-3.6108 5.4178 -1.8432 0.9733
-4.0813 5.0727 -1.8432 0.9733
-6.3619 3.0341 -1.9954 0.9711
-6.6080 2.4523 -1.9954 0.9711
-6.8011 1.8508 -1.9954 0.9711
-7.0484 -0.0230 -1.9954 0.9711
-7.0180 -0.6540 -1.9954 0.9711
-6.9313 -1.2797 -1.9954 0.9711
-6.7888 -1.8951 -1.9954 0.9711
-2.6937 -2.8305 -1.1061 0.9839
-1.8244 -2.7766 -0.9405 0.9863
-1.4995 -2.7999 -0.8991 0.9869
-1.1968 -2.8147 -0.8658 0.9874
-0.9208 -2.8513 -0.8482 0.9876
-0.4482 -3.3485 -0.9564 0.9861
-0.1498 -3.4477 -0.9769 0.9858
1.5763 -6.8699 -1.9953 0.9711
3.3451 -6.2040 -1.9953 0.9711
3.8872 -5.8796 -1.9953 0.9711
5.7035 -4.1412 -1.9953 0.9711
6.0514 -3.6139 -1.9953 0.9711
6.5989 -2.4767 -1.9953 0.9711
6.9348 -1.2601 -1.9953 0.9711
7.0198 -0.6342 -1.9953 0.9711
7.0203 0.6280 -1.9953 0.9711
6.7958 1.8700 -1.9953 0.9711
6.6011 2.4709 -1.9953 0.9711
6.3533 3.0520 -1.9953 0.9711
6.0545 3.6086 -1.9953 0.9711
5.6932 4.1261 -1.9905 0.9712
4.9264 4.2929 -1.8499 0.9732
3.5955 5.4279 -1.8431 0.9733
3.0950 5.7281 -1.8431 0.9733
2.0238 6.1882 -1.8431 0.9733
1.4616 6.3446 -1.8431 0.9733
0.8877 6.4499 -1.8432 0.9733
-2.6366 -2.8119 -1.1856 0.9840
-1.4541 -2.7640 -0.9606 0.9870
-1.1573 -2.7788 -0.9259 0.9875
-0.8834 -2.8062 -0.9049 0.9878
-0.6535 -2.9880 -0.9408 0.9873
-0.3948 -3.1247 -0.9687 0.9869
0.1758 -3.2735 -1.0083 0.9864
0.5043 -3.4950 -1.0861 0.9853
2.0567 -6.1526 -1.9953 0.9732
2.5993 -5.9438 -1.9953 0.9732
3.1210 -5.6872 -1.9953 0.9732
3.6177 -5.3849 -1.9953 0.9732
4.0853 -5.0394 -1.9953 0.9732
4.9186 -4.2300 -1.9953 0.9732
5.2775 -3.7726 -1.9953 0.9732
5.5941 -3.2849 -1.9953 0.9732
5.8657 -2.7709 -1.9953 0.9732
6.0903 -2.2346 -1.9953 0.9732
6.2659 -1.6803 -1.9953 0.9732
6.3912 -1.1125 -1.9953 0.9732
6.4651 -0.5358 -1.9953 0.9732
6.4871 0.0451 -1.9953 0.9732
6.3751 1.2014 -1.9953 0.9732
6.0586 2.3191 -1.9953 0.9732
5.8266 2.8523 -1.9953 0.9732
5.5478 3.3625 -1.9953 0.9732
2.8095 5.2930 -1.8431 0.9752
2.3244 5.5233 -1.8431 0.9752
1.8205 5.7092 -1.8431 0.9752
-1.3618 5.8357 -1.8432 0.9752
-3.7564 4.6689 -1.8432 0.9752
-5.5819 3.3056 -1.9954 0.9732
-5.8555 2.7926 -1.9954 0.9732
-6.0820 2.2571 -1.9954 0.9732
-6.3870 1.1362 -1.9954 0.9732
-6.4631 0.5598 -1.9954 0.9732
-6.4873 -0.0212 -1.9954 0.9732
-6.4593 -0.6019 -1.9954 0.9732
-6.3795 -1.1778 -1.9954 0.9732
-6.0671 -2.2967 -1.9954 0.9732
-5.8372 -2.8307 -1.9954 0.9732
-3.9214 -2.8642 -1.4936 0.9799
-1.7987 -2.7373 -1.0074 0.9864
-1.4793 -2.7622 -0.9638 0.9870
-1.1810 -2.7777 -0.9284 0.9874
-0.9055 -2.8038 -0.9062 0.9877
-0.6727 -2.9702 -0.9367 0.9873
0.1512 -3.2686 -1.0064 0.9864
0.4739 -3.4661 -1.0760 0.9855
2.5552 -5.9629 -1.9953 0.9732
3.5777 -5.4115 -1.9953 0.9732
4.0479 -5.0695 -1.9953 0.9732
4.8871 -4.2663 -1.9953 0.9732
5.2495 -3.8116 -1.9953 0.9732
5.5696 -3.3262 -1.9953 0.9732
5.8451 -2.8142 -1.9953 0.9732
6.0736 -2.2796 -1.9953 0.9732
6.4615 0.5780 -1.9953 0.9732
6.0756 2.2742 -1.9953 0.9732
5.8476 2.8091 -1.9953 0.9732
5.5726 3.3213 -1.9953 0.9732
5.2528 3.8069 -1.9953 0.9732
4.8730 4.2463 -1.9880 0.9733
4.1472 4.3255 -1.8431 0.9752
3.7432 4.6795 -1.8431 0.9752
3.3092 4.9958 -1.8431 0.9752
2.3652 5.5059 -1.8431 0.9752
1.8627 5.6956 -1.8431 0.9752
1.3453 5.8395 -1.8431 0.9752
-2.6103 -2.7837 -1.2685 0.9840
-2.1312 -2.7258 -1.1501 0.9855
-1.7561 -2.7162 -1.0752 0.9865
-0.8733 -2.7741 -0.9667 0.9878
-0.6245 -2.8553 -0.9715 0.9878
-0.3710 -2.9365 -0.9839 0.9876
-0.1088 -3.0204 -1.0046 0.9873
0.4651 -3.2234 -1.0826 0.9864
1.3857 -5.8406 -1.9953 0.9750
2.4052 -5.4998 -1.9953 0.9750
2.8879 -5.2624 -1.9953 0.9750
3.3475 -4.9827 -1.9953 0.9750
5.1763 -3.0396 -1.9953 0.9750
5.6354 -2.0677 -1.9953 0.9750
5.7979 -1.5548 -1.9953 0.9750
5.9822 -0.4958 -1.9953 0.9750
6.0026 0.0418 -1.9953 0.9750
5.8989 1.1117 -1.9953 0.9750
5.7757 1.6354 -1.9953 0.9750
5.3914 2.6392 -1.9953 0.9750
4.0148 4.2500 -1.9434 0.9757
3.4315 4.3555 -1.8431 0.9769
3.0278 4.6452 -1.8431 0.9769
2.5997 4.8977 -1.8431 0.9769
2.1507 5.1108 -1.8431 0.9769
1.6845 5.2828 -1.8431 0.9769
0.7153 5.4985 -1.8432 0.9769
0.2202 5.5405 -1.8432 0.9769
-1.2600 5.3998 -1.8432 0.9769
-2.2029 5.0885 -1.8432 0.9769
-3.0751 4.6141 -1.8432 0.9769
-3.4759 4.3202 -1.8432 0.9769
-3.9032 4.0481 -1.8692 0.9766
-4.5229 3.9189 -1.9893 0.9751
-5.4181 2.5840 -1.9954 0.9750
-5.6277 2.0885 -1.9954 0.9750
-5.9100 1.0513 -1.9954 0.9750
-5.9804 0.5180 -1.9954 0.9750
-6.0027 -0.0196 -1.9954 0.9750
-5.9769 -0.5570 -1.9954 0.9750
-5.1450 -3.0924 -1.9954 0.9750
-4.8474 -3.5406 -1.9954 0.9750
-2.6542 -2.7890 -1.2798 0.9839
-2.1671 -2.7297 -1.1586 0.9854
-1.7864 -2.7187 -1.0813 0.9864
-1.1669 -2.7444 -0.9913 0.9875
-0.3923 -2.9306 -0.9828 0.9876
0.1417 -3.0627 -1.0191 0.9872
0.7980 -3.4777 -1.1860 0.9851
1.8609 -5.7070 -1.9953 0.9750
2.3644 -5.5175 -1.9953 0.9750
2.8489 -5.2836 -1.9953 0.9750
3.7455 -4.6908 -1.9953 0.9750
4.5221 -3.9476 -1.9953 0.9750
4.8574 -3.5269 -1.9953 0.9750
5.1537 -3.0778 -1.9953 0.9750
5.7862 -1.5977 -1.9953 0.9750
5.9060 -1.0732 -1.9953 0.9750
5.9784 -0.5401 -1.9953 0.9750
5.7877 1.5919 -1.9953 0.9750
5.6218 2.1044 -1.9953 0.9750
5.4108 2.5993 -1.9953 0.9750
5.1564 3.0733 -1.9953 0.9750
4.8605 3.5226 -1.9953 0.9750
4.5204 3.9392 -1.9931 0.9750
4.0739 4.2492 -1.9567 0.9755
3.4637 4.3300 -1.8431 0.9769
3.0621 4.6227 -1.8431 0.9769
1.2448 5.4033 -1.8431 0.9769
-1.4169 -2.6934 -1.0883 0.9872
-1.1306 -2.7148 -1.0517 0.9876
-0.6044 -2.7632 -1.0115 0.9881
0.1555 -2.8953 -1.0369 0.9878
0.7650 -3.2246 -1.1851 0.9860
1.7690 -5.2919 -1.9953 0.9766
2.2357 -5.1123 -1.9953 0.9766
3.5138 -4.3344 -1.9953 0.9766
3.8877 -4.0023 -1.9953 0.9766
4.2304 -3.6382 -1.9953 0.9766
4.5392 -3.2448 -1.9953 0.9766
4.8115 -2.8254 -1.9953 0.9766
5.0451 -2.3832 -1.9953 0.9766
5.2383 -1.9219 -1.9953 0.9766
5.3893 -1.4452 -1.9953 0.9766
5.5606 -0.4609 -1.9953 0.9766
5.5537 0.5382 -1.9953 0.9766
5.3687 1.5201 -1.9953 0.9766
5.0115 2.4532 -1.9953 0.9766
4.7717 2.8921 -1.9953 0.9766
4.4936 3.3077 -1.9953 0.9766
2.8144 4.3179 -1.8431 0.9783
2.4165 4.5525 -1.8431 0.9783
1.5658 4.9105 -1.8431 0.9783
0.2046 5.1500 -1.8432 0.9783
-0.2379 4.7607 -1.7046 0.9800
-0.7171 5.1040 -1.8432 0.9783
-1.1712 5.0193 -1.8432 0.9783
-1.6159 4.8943 -1.8432 0.9783
-2.8584 4.2889 -1.8432 0.9783
-3.8589 4.0022 -1.9882 0.9767
-4.2140 3.6512 -1.9939 0.9766
-4.8010 2.8432 -1.9954 0.9766
-5.0363 2.4019 -1.9954 0.9766
-5.2311 1.9413 -1.9954 0.9766
-5.5797 -0.0182 -1.9954 0.9766
-5.5557 -0.5177 -1.9954 0.9766
-5.4870 -1.0130 -1.9954 0.9766
-5.3743 -1.5002 -1.9954 0.9766
-5.0205 -2.4347 -1.9954 0.9766
-4.7824 -2.8744 -1.9954 0.9766
-4.5058 -3.2911 -1.9954 0.9766
-3.0746 -2.6993 -1.4631 0.9828
-2.6273 -2.7607 -1.3629 0.9839
-2.1649 -2.7271 -1.2452 0.9853
-1.7897 -2.7237 -1.1655 0.9863
-0.8848 -2.7399 -1.0296 0.9878
-0.1239 -2.8518 -1.0208 0.9879
0.1338 -2.8928 -1.0356 0.9878
0.4122 -3.0143 -1.0880 0.9872
0.7356 -3.2058 -1.1762 0.9861
2.1978 -5.1287 -1.9953 0.9766
2.6481 -4.9113 -1.9953 0.9766
3.0772 -4.6545 -1.9953 0.9766
3.8580 -4.0310 -1.9953 0.9766
4.2034 -3.6694 -1.9953 0.9766
4.7905 -2.8609 -1.9953 0.9766
5.0274 -2.4205 -1.9953 0.9766
5.3785 -1.4851 -1.9953 0.9766
5.4898 -0.9976 -1.9953 0.9766
5.5575 0.4971 -1.9953 0.9766
5.4907 0.9927 -1.9953 0.9766
5.3798 1.4803 -1.9953 0.9766
5.0295 2.4161 -1.9953 0.9766
4.5180 3.2743 -1.9953 0.9766
4.2067 3.6657 -1.9953 0.9766
3.3867 4.2338 -1.9388 0.9772
2.8463 4.2969 -1.8431 0.9783
0.7027 5.1060 -1.8432 0.9783
-2.5579 -2.7279 -1.4331 0.9841
-1.7627 -2.7263 -1.2441 0.9862
-1.4194 -2.6981 -1.1683 0.9870
-0.8533 -2.7107 -1.0891 0.9879
-0.0986 -2.7365 -1.0493 0.9883
0.1472 -2.7420 -1.0523 0.9883
1.6507 -4.9382 -1.9953 0.9779
2.0863 -4.7706 -1.9953 0.9779
3.9477 -3.3951 -1.9953 0.9779
4.7080 -2.2240 -1.9953 0.9779
5.0291 -1.3486 -1.9953 0.9779
5.1297 -0.8929 -1.9953 0.9779
5.1890 -0.4301 -1.9953 0.9779
5.1825 0.5023 -1.9953 0.9779
5.1167 0.9643 -1.9953 0.9779
4.6765 2.2893 -1.9953 0.9779
4.1933 3.0866 -1.9953 0.9779
3.5754 3.7849 -1.9953 0.9779
3.2139 4.0792 -1.9901 0.9780
2.7494 4.2181 -1.9295 0.9787
1.8656 4.4331 -1.8431 0.9796
1.4612 4.5823 -1.8431 0.9796
0.6205 4.7695 -1.8432 0.9796
-0.2373 4.7488 -1.8221 0.9798
-0.6692 4.7629 -1.8432 0.9796
-1.9108 4.4138 -1.8432 0.9796
-2.7183 4.0787 -1.8783 0.9792
-3.2516 4.0414 -1.9878 0.9780
-3.6092 3.7432 -1.9927 0.9780
-3.9352 3.4096 -1.9954 0.9779
-4.2246 3.0436 -1.9954 0.9779
-4.4802 2.6531 -1.9954 0.9779
-4.6997 2.2414 -1.9954 0.9779
-4.8815 1.8116 -1.9954 0.9779
-5.0241 1.3672 -1.9954 0.9779
-5.1263 0.9119 -1.9954 0.9779
-2.2878 -0.0075 -0.8767 0.9902
-2.3040 -0.2147 -0.8867 0.9901
-5.1203 -0.9453 -1.9954 0.9779
-5.0151 -1.4000 -1.9954 0.9779
-4.8696 -1.8434 -1.9954 0.9779
-4.4628 -2.6823 -1.9954 0.9779
-2.6005 -2.7325 -1.4456 0.9840
-1.7923 -2.7277 -1.2508 0.9861
-0.6228 -2.7499 -1.0805 0.9880
-0.3659 -2.7335 -1.0569 0.9883
-0.1189 -2.7368 -1.0498 0.9883
0.1267 -2.7395 -1.0510 0.9883
0.3880 -2.8375 -1.0975 0.9878
1.6141 -4.9503 -1.9953 0.9779
2.0509 -4.7859 -1.9953 0.9779
2.4711 -4.5831 -1.9953 0.9779
2.8716 -4.3434 -1.9953 0.9779
3.2489 -4.0689 -1.9953 0.9779
4.2133 -3.0592 -1.9953 0.9779
4.6914 -2.2587 -1.9953 0.9779
4.8748 -1.8296 -1.9953 0.9779
5.0190 -1.3858 -1.9953 0.9779
5.1229 -0.9309 -1.9953 0.9779
5.1857 -0.4685 -1.9953 0.9779
5.2068 -0.0023 -1.9953 0.9779
5.0202 1.3814 -1.9953 0.9779
4.4727 2.6658 -1.9953 0.9779
4.2160 3.0555 -1.9953 0.9779
3.9255 3.4207 -1.9953 0.9779
2.2864 4.2315 -1.8431 0.9796
1.4950 4.5714 -1.8431 0.9796
1.0797 4.6869 -1.8432 0.9796
0.6558 4.7647 -1.8432 0.9796
-2.5533 -2.7230 -1.5277 0.9840
-2.1360 -2.7319 -1.4193 0.9851
-1.4219 -2.7029 -1.2500 0.9869
-0.3426 -2.7120 -1.1188 0.9883
-0.0976 -2.7080 -1.1090 0.9884
0.3971 -2.7526 -1.1382 0.9881
0.7258 -3.0594 -1.2869 0.9865
1.5456 -4.6238 -1.9953 0.9791
2.3455 -4.2740 -1.9953 0.9791
2.7188 -4.0469 -1.9953 0.9791
3.3969 -3.4971 -1.9953 0.9791
3.6964 -3.1789 -1.9953 0.9791
4.2041 -2.4687 -1.9953 0.9791
4.4082 -2.0824 -1.9953 0.9791
4.5770 -1.6793 -1.9953 0.9791
4.8031 -0.8361 -1.9953 0.9791
4.8752 0.0339 -1.9953 0.9791
4.8526 0.4703 -1.9953 0.9791
4.7910 0.9029 -1.9953 0.9791
4.5531 1.7429 -1.9953 0.9791
4.3788 2.1435 -1.9953 0.9791
4.1693 2.5270 -1.9953 0.9791
3.9263 2.8901 -1.9953 0.9791
3.3479 3.5440 -1.9953 0.9791
3.0155 3.8275 -1.9943 0.9792
2.6550 4.0733 -1.9900 0.9792
2.2298 4.2008 -1.9465 0.9797
1.7688 4.2031 -1.8663 0.9805
0.5810 4.4658 -1.8432 0.9807
0.1788 4.4999 -1.8432 0.9807
-1.0234 4.3856 -1.8432 0.9807
-1.4119 4.2764 -1.8432 0.9807
-2.6939 4.0420 -1.9880 0.9792
-4.1949 2.4842 -1.9954 0.9791
-4.4005 2.0987 -1.9954 0.9791
-4.5707 1.6962 -1.9954 0.9791
-4.7042 1.2802 -1.9954 0.9791
-2.0161 -0.1879 -0.8287 0.9913
-4.6958 -1.3109 -1.9954 0.9791
-4.3867 -2.1273 -1.9954 0.9791
-4.1786 -2.5115 -1.9954 0.9791
-3.9370 -2.8756 -1.9954 0.9791
-3.0746 -2.6993 -1.6745 0.9825
-2.5907 -2.7222 -1.5380 0.9839
-0.8650 -2.6783 -1.1519 0.9879
0.1251 -2.7032 -1.1076 0.9884
1.5114 -4.6351 -1.9953 0.9791
2.3138 -4.2913 -1.9953 0.9791
2.6887 -4.0669 -1.9953 0.9791
3.6728 -3.2062 -1.9953 0.9791
4.1857 -2.4997 -1.9953 0.9791
4.5644 -1.7131 -1.9953 0.9791
4.7968 -0.8716 -1.9953 0.9791
4.8556 -0.4386 -1.9953 0.9791
4.8559 0.4344 -1.9953 0.9791
4.7975 0.8674 -1.9953 0.9791
4.5659 1.7091 -1.9953 0.9791
4.1879 2.4960 -1.9953 0.9791
3.9476 2.8610 -1.9953 0.9791
3.6756 3.2029 -1.9953 0.9791
3.3741 3.5192 -1.9953 0.9791
3.0444 3.8058 -1.9947 0.9792
2.6855 4.0542 -1.9903 0.9792
2.2696 4.2005 -1.9541 0.9796
1.0110 4.3885 -1.8432 0.9807
-2.5616 -2.7319 -1.6321 0.9838
-2.1377 -2.7341 -1.5125 0.9850
-1.7655 -2.7307 -1.4171 0.9859
-1.4245 -2.7078 -1.3335 0.9867
-1.1164 -2.6806 -1.2655 0.9874
-0.0966 -2.6811 -1.1692 0.9884
0.1441 -2.6835 -1.1712 0.9883
0.3941 -2.7315 -1.2027 0.9880
0.7214 -3.0406 -1.3619 0.9865
2.5532 -3.8004 -1.9953 0.9802
3.1900 -3.2841 -1.9953 0.9802
3.7246 -2.6625 -1.9953 0.9802
3.9481 -2.3183 -1.9953 0.9802
4.2982 -1.5770 -1.9953 0.9802
4.4222 -1.1859 -1.9953 0.9802
4.5106 -0.7852 -1.9953 0.9802
4.5628 -0.3782 -1.9953 0.9802
4.4052 1.2473 -1.9953 0.9802
4.1121 2.0130 -1.9953 0.9802
3.4294 3.0333 -1.9953 0.9802
2.1412 4.0340 -1.9904 0.9803
0.1679 4.2258 -1.8432 0.9817
-0.5884 4.1880 -1.8432 0.9817
-0.9644 4.1328 -1.8495 0.9817
-1.3583 4.1139 -1.8881 0.9813
-2.5350 3.8037 -1.9921 0.9803
-2.8700 3.5672 -1.9954 0.9802
-3.4602 2.9981 -1.9954 0.9802
-3.9395 2.3329 -1.9954 0.9802
-1.4678 -0.1368 -0.6424 0.9936
-1.4935 -0.4169 -0.6758 0.9933
-1.5219 -0.5761 -0.7092 0.9929
-3.6972 -2.7005 -1.9954 0.9802
-3.0746 -2.6993 -1.7831 0.9823
-1.7950 -2.7317 -1.4246 0.9858
-1.4514 -2.7101 -1.3398 0.9867
-1.1407 -2.6829 -1.2705 0.9874
-0.8588 -2.6591 -1.2178 0.9879
-0.6137 -2.7099 -1.2109 0.9879
-0.1166 -2.6829 -1.1704 0.9884
0.3728 -2.7268 -1.1994 0.9881
1.4193 -4.3529 -1.9953 0.9802
2.5250 -3.8192 -1.9953 0.9802
2.8568 -3.5778 -1.9953 0.9802
3.1657 -3.3076 -1.9953 0.9802
3.7048 -2.6900 -1.9953 0.9802
3.9308 -2.3475 -1.9953 0.9802
4.1252 -1.9861 -1.9953 0.9802
4.5598 -0.4119 -1.9953 0.9802
4.5602 0.4079 -1.9953 0.9802
4.5054 0.8146 -1.9953 0.9802
4.2879 1.6050 -1.9953 0.9802
3.7072 2.6867 -1.9953 0.9802
3.4517 3.0079 -1.9953 0.9802
2.8600 3.5753 -1.9953 0.9802
2.5270 3.8149 -1.9943 0.9802
2.1713 4.0185 -1.9907 0.9803
-2.5836 -2.7553 -1.7484 0.9835
-2.1394 -2.7363 -1.6078 0.9848
-1.4272 -2.7129 -1.4189 0.9866
-1.1184 -2.6854 -1.3465 0.9873
-0.5881 -2.6890 -1.2741 0.9879
-0.0957 -2.6567 -1.2305 0.9884
1.7272 -3.9495 -1.9953 0.9812
2.0739 -3.7790 -1.9953 0.9812
2.7146 -3.3486 -1.9953 0.9812
3.7172 -2.1828 -1.9953 0.9812
3.8977 -1.8412 -1.9953 0.9812
4.0469 -1.4848 -1.9953 0.9812
4.1636 -1.1165 -1.9953 0.9812
4.2468 -0.7393 -1.9953 0.9812
4.2959 -0.3561 -1.9953 0.9812
4.3106 0.0300 -1.9953 0.9812
4.1476 1.1744 -1.9953 0.9812
4.0258 1.5410 -1.9953 0.9812
3.6864 2.2343 -1.9953 0.9812
3.2289 2.8560 -1.9953 0.9812
2.3538 3.6113 -1.9953 0.9812
2.0199 3.8053 -1.9942 0.9812
0.9261 4.1604 -1.9729 0.9814
-0.5799 4.1275 -1.9293 0.9818
-0.9596 4.1124 -1.9547 0.9816
-1.7081 3.9455 -1.9901 0.9812
-2.0572 3.7817 -1.9927 0.9812
-3.2579 2.8228 -1.9954 0.9812
-1.2601 0.4676 -0.6222 0.9941
-1.2714 -0.2347 -0.5985 0.9943
-1.2706 -0.3547 -0.6106 0.9942
-1.2776 -0.6196 -0.6573 0.9938
-3.4810 -2.5425 -1.9954 0.9812
-1.7964 -2.7338 -1.5142 0.9857
-1.4541 -2.7151 -1.4257 0.9865
-1.1428 -2.6876 -1.3519 0.9872
-0.8610 -2.6660 -1.2968 0.9877
-0.3589 -2.6814 -1.2523 0.9881
-0.1155 -2.6584 -1.2317 0.9883
0.1232 -2.6617 -1.2334 0.9883
1.6979 -3.9622 -1.9953 0.9812
2.6897 -3.3686 -1.9953 0.9812
3.7009 -2.2102 -1.9953 0.9812
3.8839 -1.8700 -1.9953 0.9812
4.2412 -0.7707 -1.9953 0.9812
4.2932 -0.3878 -1.9953 0.9812
4.3107 -0.0019 -1.9953 0.9812
4.2935 0.3841 -1.9953 0.9812
4.1562 1.1436 -1.9953 0.9812
4.0371 1.5112 -1.9953 0.9812
3.8856 1.8666 -1.9953 0.9812
3.4904 2.5296 -1.9953 0.9812
3.2499 2.8320 -1.9953 0.9812
2.6927 3.3662 -1.9953 0.9812
2.3805 3.5938 -1.9953 0.9812
2.0483 3.7908 -1.9945 0.9812
1.3358 4.0844 -1.9892 0.9812
0.9585 4.1607 -1.9764 0.9814
0.5721 4.1565 -1.9421 0.9817
-2.1412 -2.7385 -1.7052 0.9846
-1.7682 -2.7349 -1.5975 0.9856
-1.4299 -2.7181 -1.5065 0.9864
-1.1204 -2.6902 -1.4295 0.9871
-0.8410 -2.6714 -1.3738 0.9876
-0.5826 -2.6636 -1.3374 0.9879
-0.3364 -2.6629 -1.3166 0.9881
0.1469 -2.7362 -1.3441 0.9879
0.3906 -2.7070 -1.3416 0.9879
0.7010 -2.9544 -1.4894 0.9866
2.2684 -3.3766 -1.9953 0.9820
2.5616 -3.1599 -1.9953 0.9820
3.0841 -2.6524 -1.9953 0.9820
3.3092 -2.3656 -1.9953 0.9820
3.5077 -2.0598 -1.9953 0.9820
3.6781 -1.7375 -1.9953 0.9820
3.8189 -1.4012 -1.9953 0.9820
4.0075 -0.6976 -1.9953 0.9820
4.0539 -0.3360 -1.9953 0.9820
4.0677 0.0283 -1.9953 0.9820
3.9974 0.7533 -1.9953 0.9820
3.9139 1.1082 -1.9953 0.9820
3.2760 2.4114 -1.9953 0.9820
2.7934 2.9570 -1.9953 0.9820
2.2212 3.4078 -1.9953 0.9820
1.2342 3.8705 -1.9927 0.9821
0.8819 3.9620 -1.9910 0.9821
0.5233 4.0226 -1.9898 0.9821
-0.2024 4.0499 -1.9890 0.9821
-0.5643 4.0163 -1.9894 0.9821
-0.9221 3.9515 -1.9904 0.9821
-1.2731 3.8559 -1.9918 0.9821
-1.6148 3.7301 -1.9938 0.9821
-2.8235 2.9283 -1.9954 0.9820
-3.0743 2.6638 -1.9954 0.9820
-1.1202 0.4157 -0.5861 0.9947
-1.1326 0.3082 -0.5758 0.9948
-1.1442 -0.1066 -0.5637 0.9949
-1.1323 -0.3161 -0.5767 0.9948
-3.4865 -2.0955 -1.9954 0.9820
-3.2849 -2.3993 -1.9954 0.9820
-1.4569 -2.7203 -1.5137 0.9863
-1.1448 -2.6925 -1.4352 0.9870
-0.6023 -2.6592 -1.3374 0.9879
0.1252 -2.7055 -1.3285 0.9880
0.6716 -2.9271 -1.4731 0.9867
1.2610 -3.8674 -1.9954 0.9820
2.2434 -3.3932 -1.9953 0.9820
2.8126 -2.9387 -1.9953 0.9820
3.0644 -2.6751 -1.9953 0.9820
3.6651 -1.7646 -1.9953 0.9820
3.8084 -1.4294 -1.9953 0.9820
3.9211 -1.0827 -1.9953 0.9820
4.0678 -0.0018 -1.9953 0.9820
3.9220 1.0792 -1.9953 0.9820
3.8096 1.4260 -1.9953 0.9820
2.8152 2.9363 -1.9953 0.9820
2.2464 3.3913 -1.9953 0.9820
1.9337 3.5788 -1.9953 0.9820
1.6054 3.7372 -1.9952 0.9820
1.2629 3.8615 -1.9929 0.9821
0.5531 4.0188 -1.9899 0.9821
-2.3691 -3.0300 -1.9954 0.9828
-1.4327 -2.7234 -1.5964 0.9862
-1.1225 -2.6952 -1.5146 0.9869
-0.8432 -2.6787 -1.4569 0.9874
-0.3452 -2.7324 -1.4288 0.9877
-0.0946 -2.6247 -1.3625 0.9882
0.3893 -2.6980 -1.4141 0.9878
0.6902 -2.9091 -1.5511 0.9866
1.2194 -3.6478 -1.9954 0.9828
2.1449 -3.1927 -1.9953 0.9828
2.6799 -2.7589 -1.9953 0.9828
3.1290 -2.2367 -1.9953 0.9828
3.4777 -1.6428 -1.9953 0.9828
3.7892 -0.6596 -1.9953 0.9828
3.8331 -0.3177 -1.9953 0.9828
3.8461 0.0268 -1.9953 0.9828
3.8283 0.3710 -1.9953 0.9828
3.2893 1.9936 -1.9953 0.9828
3.0975 2.2801 -1.9953 0.9828
2.6412 2.7960 -1.9953 0.9828
1.8033 3.3973 -1.9953 0.9828
1.4919 3.5451 -1.9953 0.9828
0.8353 3.7528 -1.9945 0.9828
-0.1917 3.8363 -1.9927 0.9828
-0.5345 3.8044 -1.9930 0.9828
-0.8734 3.7429 -1.9939 0.9828
-1.2059 3.6522 -1.9953 0.9828
-1.5280 3.5297 -1.9954 0.9828
-1.8379 3.3787 -1.9954 0.9828
-2.4111 2.9967 -1.9954 0.9828
-2.6697 2.7688 -1.9954 0.9828
-2.9069 2.5187 -1.9954 0.9828
-3.1207 2.2483 -1.9954 0.9828
-0.9596 0.5683 -0.5786 0.9950
-0.9779 0.4664 -0.5620 0.9951
-1.0299 -0.0034 -0.5343 0.9954
-1.0190 -0.2845 -0.5489 0.9952
-1.0049 -0.3804 -0.5574 0.9952
-0.9752 -0.4729 -0.5623 0.9951
-0.9625 -0.5785 -0.5825 0.9950
-3.1060 -2.2686 -1.9954 0.9828
-2.8904 -2.5376 -1.9954 0.9828
-2.6516 -2.7862 -1.9954 0.9828
-0.6029 -2.6618 -1.4159 0.9878
-0.1141 -2.6253 -1.3632 0.9882
0.1211 -2.6182 -1.3597 0.9883
0.3680 -2.6914 -1.4092 0.9878
0.6625 -2.8874 -1.5369 0.9867
1.1924 -3.6568 -1.9954 0.9828
1.5150 -3.5353 -1.9953 0.9828
1.8254 -3.3855 -1.9953 0.9828
2.1212 -3.2084 -1.9953 0.9828
2.3999 -3.0056 -1.9953 0.9828
2.6594 -2.7787 -1.9953 0.9828
3.1123 -2.2598 -1.9953 0.9828
3.6010 -1.3515 -1.9953 0.9828
3.7075 -1.0237 -1.9953 0.9828
3.7843 -0.6876 -1.9953 0.9828
3.8309 0.3427 -1.9953 0.9828
3.7849 0.6843 -1.9953 0.9828
3.4670 1.6655 -1.9953 0.9828
3.1143 2.2571 -1.9953 0.9828
2.8997 2.5269 -1.9953 0.9828
2.6619 2.7763 -1.9953 0.9828
2.4026 3.0035 -1.9953 0.9828
2.1240 3.2066 -1.9953 0.9828
1.8284 3.3839 -1.9953 0.9828
1.1956 3.6557 -1.9954 0.9828
0.8632 3.7468 -1.9947 0.9828
0.5239 3.8068 -1.9935 0.9828
-1.4345 -2.7269 -1.6876 0.9860
-0.8456 -2.6861 -1.5424 0.9872
-0.5834 -2.6675 -1.4956 0.9876
1.1550 -3.4552 -1.9954 0.9835
1.7527 -3.1938 -1.9953 0.9835
2.2942 -2.8300 -1.9953 0.9835
2.5384 -2.6132 -1.9953 0.9835
3.2941 -1.5561 -1.9953 0.9835
3.4202 -1.2549 -1.9953 0.9835
1.8844 -0.5053 -1.0685 0.9911
1.8842 0.3551 -1.0501 0.9913
3.2721 1.6018 -1.9953 0.9835
3.1155 1.8883 -1.9953 0.9835
1.7081 3.2179 -1.9953 0.9835
-0.1819 3.6386 -1.9954 0.9835
-0.8279 3.5478 -1.9954 0.9835
-1.4474 3.3433 -1.9954 0.9835
-2.0204 3.0315 -1.9954 0.9835
-2.7534 2.3857 -1.9954 0.9835
-2.9559 2.1296 -1.9954 0.9835
-0.8663 0.5130 -0.5514 0.9954
-0.8938 0.4262 -0.5423 0.9955
-0.9249 0.2517 -0.5250 0.9956
-0.9473 0.0820 -0.5208 0.9957
-0.9474 -0.0883 -0.5211 0.9957
-0.9410 -0.1737 -0.5241 0.9956
-0.9244 -0.2580 -0.5256 0.9956
-0.8921 -0.4326 -0.5430 0.9955
-2.9419 -2.1488 -1.9954 0.9835
-2.7377 -2.4036 -1.9954 0.9835
-2.2652 -2.8533 -1.9954 0.9835
-1.4609 -2.7279 -1.6948 0.9860
-0.6045 -2.6690 -1.4988 0.9876
-0.1141 -2.6253 -1.4392 0.9881
0.1211 -2.6182 -1.4355 0.9881
0.6605 -2.8787 -1.6177 0.9866
1.1294 -3.4636 -1.9954 0.9835
1.4350 -3.3486 -1.9953 0.9835
1.7290 -3.2067 -1.9953 0.9835
2.0092 -3.0390 -1.9953 0.9835
2.2732 -2.8469 -1.9953 0.9835
2.5190 -2.6319 -1.9953 0.9835
3.1278 -1.8679 -1.9953 0.9835
3.2825 -1.5804 -1.9953 0.9835
1.8834 -0.5200 -1.0702 0.9911
1.8719 -0.0008 -1.0253 0.9915
1.8886 0.1689 -1.0385 0.9914
1.8847 0.3407 -1.0490 0.9913
3.2839 1.5775 -1.9953 0.9835
2.9499 2.1379 -1.9953 0.9835
2.7466 2.3934 -1.9953 0.9835
2.5213 2.6297 -1.9953 0.9835
2.0119 3.0372 -1.9953 0.9835
1.7318 3.2052 -1.9953 0.9835
1.4379 3.3473 -1.9953 0.9835
0.4967 3.6091 -1.9954 0.9835
-2.3640 -2.5211 -1.9954 0.9842
-1.8764 -2.9023 -1.9954 0.9842
-1.1289 -2.7106 -1.6953 0.9865
-0.8480 -2.6938 -1.6305 0.9870
-0.5853 -2.6762 -1.5816 0.9874
-0.3325 -2.6318 -1.5316 0.9878
-0.0946 -2.6247 -1.5164 0.9879
0.1405 -2.6176 -1.5135 0.9880
0.7978 -3.3627 -1.9954 0.9842
2.1764 -2.6847 -1.9953 0.9842
1.7021 -0.6245 -1.0468 0.9917
1.7294 -0.4638 -1.0338 0.9918
1.7382 -0.3026 -1.0186 0.9919
1.7278 0.0120 -0.9976 0.9921
1.7412 0.1687 -1.0100 0.9920
1.7360 0.3271 -1.0199 0.9919
2.5887 2.2897 -1.9953 0.9842
2.1388 2.7147 -1.9953 0.9842
1.6204 3.0526 -1.9953 0.9842
1.0499 3.2927 -1.9954 0.9842
0.7509 3.3735 -1.9954 0.9842
0.4459 3.4272 -1.9954 0.9842
0.1372 3.4533 -1.9954 0.9842
-0.1725 3.4517 -1.9954 0.9842
-0.4809 3.4224 -1.9954 0.9842
-1.0836 3.2818 -1.9954 0.9842
-1.6515 3.0359 -1.9954 0.9842
-1.9167 2.8759 -1.9954 0.9842
-2.1665 2.6927 -1.9954 0.9842
-2.3989 2.4879 -1.9954 0.9842
-0.8012 0.5772 -0.5701 0.9954
-0.8132 0.4816 -0.5456 0.9956
-0.8578 0.3183 -0.5283 0.9958
-0.8680 0.2362 -0.5194 0.9959
-0.8822 -0.0822 -0.5116 0.9959
-0.8785 -0.1622 -0.5158 0.9959
-0.8568 -0.3243 -0.5289 0.9958
-0.8382 -0.4065 -0.5378 0.9957
-0.8109 -0.4874 -0.5462 0.9956
-2.3826 -2.5035 -1.9954 0.9842
-1.8979 -2.8883 -1.9954 0.9842
-1.4621 -2.7300 -1.7880 0.9858
-1.1531 -2.7119 -1.7014 0.9865
-0.6063 -2.6770 -1.5847 0.9874
-0.1141 -2.6253 -1.5171 0.9879
0.3668 -2.6829 -1.5634 0.9876
0.6646 -2.8964 -1.7157 0.9864
1.3613 -3.1767 -1.9953 0.9842
1.6402 -3.0420 -1.9953 0.9842
2.1565 -2.7007 -1.9953 0.9842
3.1139 -1.4992 -1.9953 0.9842
1.6992 0.6360 -1.0475 0.9917
2.7984 2.0281 -1.9953 0.9842
2.6056 2.2705 -1.9953 0.9842
2.1588 2.6988 -1.9953 0.9842
1.6429 3.0406 -1.9953 0.9842
1.3641 3.1755 -1.9953 0.9842
0.4712 3.4238 -1.9954 0.9842
