ply
format ascii 1.0
element vertex 1578
property float32 x
property float32 y
property float32 z
property float32 I
end_header
7.6852 11.6801 2.4653 0.9448
6.2897 11.7272 2.3465 0.9474
5.1599 12.1156 2.3220 0.9479
3.9083 12.0780 2.2384 0.9497
1.6143 12.0091 2.1366 0.9520
-1.6226 11.9118 2.1198 0.9523
-5.0538 11.8087 2.2649 0.9492
-13.2899 13.8975 3.3906 0.9249
6.3835 11.7196 2.3531 0.9472
3.9956 12.0806 2.2436 0.9496
2.8171 12.0452 2.1812 0.9510
1.6937 12.0114 2.1389 0.9519
-0.1917 4.8815 0.8614 0.9804
-4.9649 11.8113 2.2592 0.9493
-4.5547 6.9936 1.4716 0.9667
14.2130 10.3665 2.6950 0.9313
7.8971 12.0021 2.2010 0.9435
5.1599 12.1156 2.0174 0.9481
3.9083 12.0780 1.9447 0.9499
2.7346 12.0427 1.8918 0.9513
1.6143 12.0091 1.8563 0.9521
0.5268 11.9764 1.8365 0.9526
-0.2231 4.8761 0.7478 0.9804
-2.7194 11.8788 1.8668 0.9519
-13.2822 13.8893 2.9441 0.9252
14.3903 10.3541 2.7159 0.9308
8.0027 11.9932 2.2088 0.9433
6.5571 12.0384 2.1000 0.9460
3.9956 12.0806 1.9493 0.9498
1.6937 12.0114 1.8583 0.9521
0.6044 11.9787 1.8374 0.9526
-1.5446 11.9141 1.8405 0.9525
-2.6393 11.8812 1.8645 0.9519
-4.9649 11.8113 1.9628 0.9495
8.0178 12.1856 1.8995 0.9429
6.5200 12.1565 1.7963 0.9459
0.5325 12.1076 1.5782 0.9523
-0.2230 4.8756 0.6356 0.9805
-1.6403 12.0423 1.5826 0.9522
-3.8981 11.9744 1.6399 0.9505
-5.0537 11.8087 1.6726 0.9495
8.1264 12.1787 1.9066 0.9427
3.9956 12.0806 1.6570 0.9500
2.8480 12.1772 1.6285 0.9508
-0.1917 4.8802 0.6360 0.9805
-3.8136 11.9770 1.6368 0.9506
-4.9649 11.8113 1.6684 0.9496
-9.7298 12.3590 2.0483 0.9385
8.0285 12.2018 1.5684 0.9429
6.5200 12.1565 1.4813 0.9460
2.7646 12.1747 1.3406 0.9510
1.6320 12.1406 1.3154 0.9519
0.5325 12.1076 1.3014 0.9524
-0.2230 4.8750 0.5240 0.9806
-3.8981 11.9744 1.3523 0.9506
-5.1091 11.9380 1.3944 0.9491
-4.5719 6.9219 0.8908 0.9672
-9.6258 12.0658 1.6574 0.9398
-2.6708 -19.3939 2.1022 0.9243
-0.9184 -19.4508 2.0910 0.9247
4.7565 7.1284 0.9202 0.9661
1.7122 12.1430 1.3168 0.9519
-2.6682 12.0114 1.3212 0.9517
-13.2620 14.0488 2.0746 0.9252
8.1989 12.4609 1.2627 0.9419
6.6488 12.3967 1.1908 0.9451
5.2695 12.3729 1.1384 0.9474
3.9324 12.1524 1.0813 0.9500
-0.2230 4.8745 0.4131 0.9806
-3.8981 11.9744 1.0660 0.9507
-4.5634 6.9090 0.7009 0.9673
-9.6258 12.0658 1.3066 0.9399
-2.6708 -19.3939 1.6572 0.9244
-0.9185 -19.4508 1.6484 0.9248
4.6932 7.0335 0.7158 0.9666
6.7539 12.3998 1.1953 0.9449
5.3654 12.3757 1.1419 0.9473
2.8951 12.3787 1.0762 0.9502
1.7122 12.1430 1.0381 0.9520
0.6211 12.3103 1.0434 0.9517
-0.1916 4.8789 0.4133 0.9806
-1.5615 12.0447 1.0281 0.9524
-13.2927 14.0813 1.6392 0.9252
7.0434 13.1324 0.9241 0.9420
5.5741 13.0882 0.8821 0.9446
3.9371 12.1671 0.7930 0.9500
2.8103 12.3761 0.7870 0.9504
-0.2230 4.8740 0.3026 0.9806
-2.7666 12.0851 0.7688 0.9515
-5.1937 12.1356 0.8185 0.9485
-9.6258 12.0658 0.9571 0.9400
7.1548 13.1357 0.9275 0.9418
5.6767 13.0939 0.8850 0.9444
4.0248 12.1689 0.7948 0.9499
2.8951 12.3787 0.7883 0.9503
-5.1023 12.1383 0.8165 0.9486
4.7011 7.1448 0.3372 0.9663
7.0706 13.1832 0.5899 0.9419
5.5741 13.0882 0.5609 0.9446
2.8103 12.3761 0.5004 0.9505
1.6320 12.1406 0.4830 0.9521
-2.7666 12.0851 0.4889 0.9516
-3.8981 11.9744 0.4966 0.9508
-5.1937 12.1356 0.5205 0.9485
-4.5445 6.8804 0.3251 0.9675
-9.6258 12.0658 0.6086 0.9401
4.0290 12.1817 0.5059 0.9499
2.8951 12.3787 0.5013 0.9504
1.7122 12.1430 0.4835 0.9521
-0.1916 4.8776 0.1925 0.9806
-2.7122 12.2096 0.4932 0.9512
-5.1023 12.1383 0.5192 0.9487
4.6352 7.0447 0.1424 0.9668
5.5741 13.0882 0.2403 0.9447
3.9410 12.1790 0.2162 0.9501
2.8103 12.3761 0.2144 0.9505
0.5116 11.6328 0.1967 0.9545
-1.6403 12.0423 0.2053 0.9525
-3.8981 11.9744 0.2127 0.9509
-5.1937 12.1356 0.2230 0.9486
-4.5330 6.8629 0.1389 0.9676
-9.6258 12.0658 0.2607 0.9401
-13.3352 13.9448 0.3259 0.9257
4.6581 6.9808 0.1418 0.9670
5.6821 13.1062 0.2413 0.9445
2.8951 12.3787 0.2147 0.9504
1.7122 12.1430 0.2071 0.9521
0.5870 11.6351 0.1968 0.9545
-0.1915 4.8769 0.0824 0.9807
-1.5615 12.0446 0.2052 0.9526
7.0514 13.1474 -0.0840 0.9421
5.5741 13.0882 -0.0801 0.9447
3.9410 12.1790 -0.0721 0.9501
1.6320 12.1406 -0.0690 0.9522
0.5051 11.4832 -0.0647 0.9551
-0.2229 4.8724 -0.0275 0.9807
-1.6403 12.0423 -0.0684 0.9525
-2.7492 12.0090 -0.0694 0.9519
-9.6258 12.0658 -0.0869 0.9401
-13.3278 13.9371 -0.1086 0.9258
-4.2044 -18.2423 -0.1054 0.9279
-2.4658 -17.9054 -0.1018 0.9303
0.7666 -18.0341 -0.1016 0.9303
2.4042 -18.0871 -0.1027 0.9296
4.0454 -17.9372 -0.1035 0.9291
5.7796 -17.9509 -0.1062 0.9273
4.6437 6.9592 -0.0471 0.9671
7.1630 13.1507 -0.0843 0.9419
5.6821 13.1062 -0.0804 0.9445
0.5795 11.4855 -0.0647 0.9550
-0.1915 4.8763 -0.0275 0.9807
-2.6682 12.0114 -0.0693 0.9520
-3.8136 11.9770 -0.0708 0.9510
-5.0193 11.9407 -0.0729 0.9495
-4.4790 6.8775 -0.0462 0.9677
7.0514 13.1474 -0.4201 0.9420
3.4931 10.7947 -0.3195 0.9556
2.7140 11.9521 -0.3451 0.9521
-2.7385 11.9625 -0.3456 0.9521
-3.8268 11.7555 -0.3481 0.9517
-5.0157 11.7198 -0.3590 0.9503
-4.5276 6.8549 -0.2313 0.9677
-9.6258 12.0658 -0.4346 0.9401
-7.7581 -18.0541 -0.5533 0.9244
-5.9452 -18.1719 -0.5384 0.9263
0.7621 -17.9272 -0.5052 0.9307
2.3815 -17.9163 -0.5089 0.9302
3.9714 -17.6093 -0.5083 0.9303
5.7075 -17.7268 -0.5244 0.9282
6.6509 -15.6804 -0.4796 0.9341
7.1630 13.1507 -0.4217 0.9418
3.5703 10.7948 -0.3202 0.9555
1.5940 11.3044 -0.3215 0.9553
-1.5615 12.0446 -0.3420 0.9526
-2.6612 11.9800 -0.3456 0.9521
-4.9275 11.7225 -0.3581 0.9504
-4.4851 6.8868 -0.2314 0.9676
7.8011 -14.3726 -0.8293 0.9366
4.6109 7.0077 -0.4254 0.9670
7.0706 13.1832 -0.7587 0.9418
4.4755 10.5086 -0.5793 0.9553
3.3899 10.4760 -0.5584 0.9569
0.5180 11.7783 -0.5979 0.9539
-0.2228 4.8713 -0.2473 0.9807
-13.3907 14.0028 -0.9826 0.9253
-7.7955 -18.1413 -1.0014 0.9240
-4.1673 -18.0814 -0.9410 0.9284
0.7583 -17.8392 -0.9055 0.9310
3.9986 -17.7299 -0.9217 0.9298
5.7260 -17.7845 -0.9475 0.9279
7.6287 -14.2741 -0.8208 0.9372
4.6398 6.9535 -0.4239 0.9671
7.1825 13.1866 -0.7615 0.9416
5.6976 13.1420 -0.7264 0.9442
3.4656 10.4783 -0.5597 0.9568
1.5339 10.8786 -0.5572 0.9570
0.5944 11.7809 -0.5982 0.9539
-0.1915 4.8750 -0.2474 0.9806
-1.5329 11.8245 -0.6047 0.9534
-3.7439 11.7580 -0.6258 0.9518
-4.4896 6.8937 -0.4172 0.9676
-9.1226 11.5877 -0.7479 0.9426
6.6344 -15.3646 -1.2271 0.9351
7.7154 -14.2147 -1.1859 0.9372
4.6028 6.9955 -0.6140 0.9670
7.0706 13.1832 -1.0969 0.9418
3.3899 10.4760 -0.8073 0.9568
1.4236 10.5905 -0.7835 0.9580
-0.2228 4.8708 -0.3575 0.9806
-2.6989 11.7894 -0.8868 0.9527
-3.8268 11.7555 -0.9065 0.9516
-5.0157 11.7198 -0.9347 0.9502
-9.2953 11.6514 -1.0929 0.9420
-12.9152 13.5057 -1.3702 0.9278
-7.5925 -17.6688 -1.4101 0.9258
-2.4351 -17.6825 -1.3088 0.9309
3.9270 -17.4120 -1.3088 0.9309
5.6528 -17.5571 -1.3524 0.9287
6.5623 -15.4714 -1.2322 0.9348
4.6447 6.9608 -0.6136 0.9670
5.6976 13.1420 -1.0503 0.9442
3.4656 10.4783 -0.8092 0.9567
1.4937 10.5931 -0.7844 0.9580
-0.1914 4.8743 -0.3577 0.9806
-12.8648 13.6280 -1.3741 0.9276
6.6376 -15.3720 -1.6075 0.9349
11.9464 15.0287 -1.8431 0.9258
4.5946 6.9829 -0.8025 0.9670
7.0434 13.1324 -1.4307 0.9419
3.3899 10.4760 -1.0571 0.9567
0.4653 10.5801 -1.0167 0.9583
-0.2228 4.8702 -0.4681 0.9806
-1.6103 11.8221 -1.1455 0.9532
-9.1039 16.9028 -1.8432 0.9258
-4.5126 6.8321 -0.7861 0.9676
-9.1522 11.4720 -1.4089 0.9427
-12.1046 -15.1272 -1.8600 0.9251
-9.1287 -16.8894 -1.8432 0.9258
-7.5797 -17.6390 -1.8432 0.9258
-4.0504 -17.5743 -1.7315 0.9301
-2.4142 -17.5307 -1.6989 0.9314
0.7417 -17.4465 -1.6765 0.9322
2.3135 -17.4046 -1.6856 0.9319
7.5628 -14.1508 -1.5404 0.9376
10.5291 -16.0536 -1.8431 0.9258
13.3337 13.8128 -1.8431 0.9258
3.4656 10.4783 -1.0596 0.9566
1.4962 10.6111 -1.0288 0.9579
0.5339 10.5822 -1.0172 0.9583
-0.1914 4.8737 -0.4683 0.9806
-1.5329 11.8245 -1.1447 0.9532
-2.4496 11.0274 -1.0845 0.9556
-3.7439 11.7580 -1.1847 0.9516
-12.7808 13.5390 -1.7875 0.9279
6.3127 -14.6197 -1.8916 0.9379
10.5181 -13.0972 -1.9953 0.9346
12.6856 -11.0110 -1.9953 0.9346
13.6207 -9.8308 -1.9953 0.9346
16.7977 0.0419 -1.9953 0.9346
16.7265 1.5459 -1.9953 0.9346
16.5209 3.0375 -1.9953 0.9346
16.1825 4.5047 -1.9953 0.9346
15.7141 5.9357 -1.9953 0.9346
15.1194 7.3190 -1.9953 0.9346
14.4033 8.6435 -1.9953 0.9346
9.6553 12.1465 -1.8431 0.9394
4.6014 6.9933 -0.9944 0.9668
7.0434 13.1324 -1.7701 0.9417
3.3899 10.4760 -1.3079 0.9566
-1.5525 11.3975 -1.3664 0.9547
-3.8268 11.7555 -1.4685 0.9514
-6.4903 12.0503 -1.6258 0.9464
-12.5524 9.1216 -1.8432 0.9394
-16.1906 4.4763 -1.9954 0.9346
-16.5264 3.0085 -1.9954 0.9346
-16.7980 0.0124 -1.9954 0.9346
-16.7316 -1.4919 -1.9954 0.9346
-16.5308 -2.9842 -1.9954 0.9346
-15.7334 -5.8850 -1.9954 0.9346
-14.4313 -8.5971 -1.9954 0.9346
-6.4280 -14.9588 -1.9340 0.9365
-4.8843 -14.9294 -1.8659 0.9387
-2.1169 -15.3715 -1.8432 0.9394
-0.7319 -15.4993 -1.8432 0.9394
0.6590 -15.5026 -1.8432 0.9394
2.0446 -15.3813 -1.8432 0.9394
3.4137 -15.1364 -1.8432 0.9394
6.2026 -14.6235 -1.8869 0.9380
7.8433 -14.6757 -1.9766 0.9352
12.6142 -11.0927 -1.9953 0.9346
13.5569 -9.9185 -1.9953 0.9346
14.3906 -8.6647 -1.9953 0.9346
15.7054 -5.9588 -1.9953 0.9346
16.5164 -3.0618 -1.9953 0.9346
16.7977 -0.0666 -1.9953 0.9346
16.7361 1.4378 -1.9953 0.9346
12.5950 9.0624 -1.8431 0.9394
11.7329 10.1538 -1.8431 0.9394
5.6756 13.0913 -1.6949 0.9441
-0.1914 4.8730 -0.5793 0.9805
-4.9275 11.7225 -1.5105 0.9501
-10.6514 11.2833 -1.8432 0.9394
-11.6190 10.2842 -1.8432 0.9394
-12.4932 9.2024 -1.8432 0.9394
-13.2671 8.0468 -1.8432 0.9394
-15.0850 7.3901 -1.9954 0.9346
-15.6862 6.0096 -1.9954 0.9346
-16.5066 3.1152 -1.9954 0.9346
-16.7409 -1.3838 -1.9954 0.9346
-16.5497 -2.8774 -1.9954 0.9346
-14.4865 -8.5037 -1.9954 0.9346
-12.7373 -10.9513 -1.9954 0.9346
-11.7055 -12.0479 -1.9954 0.9346
6.7179 -12.3769 -1.9953 0.9447
12.7059 -6.0727 -1.9953 0.9447
13.1987 -4.9105 -1.9953 0.9447
13.5854 -3.7089 -1.9953 0.9447
13.8629 -2.4774 -1.9953 0.9447
14.0291 -1.2261 -1.9953 0.9447
14.0228 1.2960 -1.9953 0.9447
13.8504 2.5465 -1.9953 0.9447
12.6755 6.1360 -1.9953 0.9447
11.1540 6.6936 -1.8431 0.9488
10.5098 7.6655 -1.8431 0.9488
9.7812 8.5759 -1.8431 0.9488
8.9740 9.4173 -1.8431 0.9488
4.6045 6.9980 -1.1869 0.9667
6.1484 11.4637 -1.8431 0.9488
5.0971 11.9682 -1.8431 0.9488
1.4261 10.6090 -1.5167 0.9577
-1.5414 11.3160 -1.6182 0.9549
-5.0157 11.7198 -1.8063 0.9498
-6.1685 11.4529 -1.8432 0.9488
-4.5334 6.8637 -1.1655 0.9673
-8.1125 10.1689 -1.8432 0.9488
-13.1829 4.9531 -1.9954 0.9447
-13.8549 2.5222 -1.9954 0.9447
-14.0251 1.2714 -1.9954 0.9447
-13.5789 -3.7328 -1.9954 0.9447
-12.6953 -6.0950 -1.9954 0.9447
-11.4045 -8.2618 -1.9954 0.9447
-10.6189 -9.2499 -1.9954 0.9447
-2.0920 -3.1571 -0.5366 0.9848
-1.2620 -3.8573 -0.5750 0.9837
-1.9212 -13.9509 -1.9954 0.9447
-0.6642 -14.0669 -1.9954 0.9447
0.5981 -14.0699 -1.9954 0.9447
1.8556 -13.9598 -1.9954 0.9447
3.0982 -13.7375 -1.9954 0.9447
4.3160 -13.4049 -1.9954 0.9447
7.7233 -11.7758 -1.9953 0.9447
8.7468 -11.0368 -1.9953 0.9447
9.7000 -10.2092 -1.9953 0.9447
10.5752 -9.2996 -1.9953 0.9447
11.3655 -8.3153 -1.9953 0.9447
12.0644 -7.2641 -1.9953 0.9447
13.1667 -4.9956 -1.9953 0.9447
13.5611 -3.7965 -1.9953 0.9447
14.0208 -1.3166 -1.9953 0.9447
14.0824 -0.0558 -1.9953 0.9447
9.8364 8.5125 -1.8431 0.9488
9.0346 9.3592 -1.8431 0.9488
4.6490 6.9672 -1.1868 0.9667
5.1743 11.9350 -1.8431 0.9488
2.4887 10.6409 -1.5484 0.9568
1.4962 10.6111 -1.5184 0.9576
0.5339 10.5822 -1.5013 0.9581
-0.1914 4.8725 -0.6909 0.9805
-1.4673 11.3181 -1.6171 0.9549
-2.4535 11.0448 -1.6031 0.9553
-4.9275 11.7225 -1.8017 0.9499
-6.0945 11.4925 -1.8432 0.9488
-4.5073 6.9209 -1.1702 0.9672
-8.0467 10.2211 -1.8432 0.9488
-8.9297 9.4594 -1.8432 0.9488
-9.7408 8.6218 -1.8432 0.9488
-12.6466 6.1955 -1.9954 0.9447
-13.5489 3.8403 -1.9954 0.9447
-14.0166 1.3619 -1.9954 0.9447
-13.8745 -2.4123 -1.9954 0.9447
-12.7344 -6.0129 -1.9954 0.9447
-11.4576 -8.1880 -1.9954 0.9447
-10.6784 -9.1811 -1.9954 0.9447
-9.8133 -10.1004 -1.9954 0.9447
4.8015 -11.1198 -1.9953 0.9521
6.7080 -10.0850 -1.9953 0.9521
7.5841 -9.4438 -1.9953 0.9521
9.1470 -7.9395 -1.9953 0.9521
9.8212 -7.0885 -1.9953 0.9521
10.4165 -6.1806 -1.9953 0.9521
11.3520 -4.2234 -1.9953 0.9521
11.6845 -3.1899 -1.9953 0.9521
9.5934 5.7571 -1.8431 0.9557
9.0393 6.5930 -1.8431 0.9557
8.4126 7.3760 -1.8431 0.9557
4.6131 7.0111 -1.3826 0.9665
5.2881 9.8597 -1.8431 0.9557
4.3840 10.2936 -1.8431 0.9557
2.4287 10.6956 -1.8068 0.9565
-1.5101 11.0859 -1.8432 0.9557
-2.4967 10.9062 -1.8432 0.9557
-3.4633 10.6388 -1.8432 0.9557
-5.3054 9.8504 -1.8432 0.9557
-4.5429 6.8780 -1.3579 0.9671
-7.7326 8.0861 -1.8432 0.9557
-9.6036 5.7402 -1.8432 0.9557
-11.6743 3.2276 -1.9954 0.9521
-11.9196 -2.1518 -1.9954 0.9521
-11.3446 -4.2434 -1.9954 0.9521
-10.4057 -6.1990 -1.9954 0.9521
-9.1331 -7.9556 -1.9954 0.9521
-2.9152 -3.0395 -0.6938 0.9831
-2.3864 -2.9823 -0.6292 0.9846
-1.9831 -2.9929 -0.5915 0.9856
-1.1374 -3.4764 -0.6026 0.9853
-2.7202 -11.8028 -1.9954 0.9521
-1.6524 -11.9990 -1.9954 0.9521
2.6647 -11.8154 -1.9954 0.9521
3.7121 -11.5293 -1.9954 0.9521
5.7091 -10.6823 -1.9953 0.9521
8.3428 -8.7808 -1.9953 0.9521
10.8942 -5.2935 -1.9953 0.9521
11.6637 -3.2653 -1.9953 0.9521
11.9092 -2.2077 -1.9953 0.9521
11.3581 4.2067 -1.9953 0.9521
4.6588 6.9819 -1.3827 0.9665
4.4503 10.2651 -1.8431 0.9557
2.5024 10.6994 -1.8102 0.9564
-3.3945 10.6609 -1.8432 0.9557
-5.2417 9.8845 -1.8432 0.9557
-6.9208 8.7909 -1.8432 0.9557
-7.6802 8.1359 -1.8432 0.9557
-8.3779 7.4155 -1.8432 0.9557
-9.5663 5.8021 -1.8432 0.9557
-10.8490 5.3148 -1.9902 0.9522
-11.9021 2.2462 -1.9954 0.9521
-12.0555 1.1714 -1.9954 0.9521
-12.0711 -0.9978 -1.9954 0.9521
-11.9332 -2.0747 -1.9954 0.9521
-11.6995 -3.1350 -1.9954 0.9521
-11.3717 -4.1701 -1.9954 0.9521
-10.4455 -6.1316 -1.9954 0.9521
-9.1843 -7.8965 -1.9954 0.9521
5.8793 -8.8391 -1.9953 0.9577
7.3616 -7.6486 -1.9953 0.9577
8.0169 -6.9587 -1.9953 0.9577
9.1296 -5.4170 -1.9953 0.9577
10.4502 -1.8675 -1.9953 0.9577
10.2269 2.8469 -1.9953 0.9577
9.5551 4.6254 -1.9953 0.9577
8.4082 5.0458 -1.8431 0.9609
7.9226 5.7785 -1.8431 0.9609
5.3391 6.7166 -1.6127 0.9657
4.3992 6.6860 -1.5043 0.9680
3.8423 9.0219 -1.8432 0.9609
-0.2227 4.8681 -0.9160 0.9804
-2.1883 9.5588 -1.8432 0.9609
-4.6500 8.6334 -1.8432 0.9609
-4.2059 6.3678 -1.4344 0.9694
-5.0743 6.3605 -1.5294 0.9674
-6.7773 7.0871 -1.8432 0.9609
-7.9328 5.7646 -1.8432 0.9609
-8.4171 5.0311 -1.8432 0.9609
-9.9375 3.7338 -1.9954 0.9577
-10.4442 1.9013 -1.9954 0.9577
-10.5725 0.9584 -1.9954 0.9577
-10.6158 0.0078 -1.9954 0.9577
-10.5739 -0.9429 -1.9954 0.9577
-10.4470 -1.8859 -1.9954 0.9577
-10.2361 -2.8138 -1.9954 0.9577
-9.9430 -3.7192 -1.9954 0.9577
-9.1202 -5.4331 -1.9954 0.9577
-2.8073 -2.9270 -0.7623 0.9836
-2.3443 -2.9296 -0.7052 0.9848
-1.9531 -2.9476 -0.6646 0.9857
-1.0755 -3.2873 -0.6501 0.9860
-1.4483 -10.5165 -1.9954 0.9577
-0.5007 -10.6040 -1.9954 0.9577
0.4509 -10.6062 -1.9954 0.9577
3.2535 -10.1049 -1.9954 0.9577
4.1453 -9.7730 -1.9954 0.9577
5.0037 -9.3625 -1.9953 0.9577
5.8220 -8.8769 -1.9953 0.9577
6.5935 -8.3198 -1.9953 0.9577
7.3121 -7.6960 -1.9953 0.9577
7.9718 -7.0103 -1.9953 0.9577
8.5676 -6.2683 -1.9953 0.9577
9.0944 -5.4759 -1.9953 0.9577
9.9254 -3.7658 -1.9953 0.9577
10.5768 0.9087 -1.9953 0.9577
10.4529 1.8522 -1.9953 0.9577
9.9549 3.6870 -1.9953 0.9577
8.4406 4.9914 -1.8431 0.9609
6.8105 7.0552 -1.8431 0.9609
5.4004 6.7044 -1.6181 0.9656
3.9005 8.9969 -1.8432 0.9609
3.0792 9.3100 -1.8432 0.9609
1.3691 9.7100 -1.8432 0.9609
0.4941 9.7936 -1.8432 0.9609
-1.2607 9.7247 -1.8432 0.9609
-4.1721 6.4062 -1.4370 0.9694
-5.0085 6.3619 -1.5219 0.9676
-7.3429 6.4993 -1.8432 0.9609
-7.8954 5.8157 -1.8432 0.9609
-9.9132 3.7979 -1.9954 0.9577
-10.2135 2.8949 -1.9954 0.9577
-10.4317 1.9687 -1.9954 0.9577
-10.6156 0.0764 -1.9954 0.9577
-9.1550 -5.3741 -1.9954 0.9577
-8.6370 -6.1723 -1.9954 0.9577
3.7420 -8.6662 -1.9954 0.9621
5.2279 -7.8598 -1.9953 0.9621
5.9107 -7.3601 -1.9953 0.9621
6.5460 -6.8012 -1.9953 0.9621
7.1288 -6.1877 -1.9953 0.9621
7.6542 -5.5245 -1.9953 0.9621
8.1181 -4.8169 -1.9953 0.9621
9.2924 -1.6606 -1.9953 0.9621
9.4038 -0.8219 -1.9953 0.9621
9.4396 0.0235 -1.9953 0.9621
9.3996 0.8687 -1.9953 0.9621
9.2840 1.7070 -1.9953 0.9621
9.0939 2.5315 -1.9953 0.9621
8.8306 3.3356 -1.9953 0.9621
8.4965 4.1130 -1.9953 0.9621
6.5564 5.7485 -1.8431 0.9650
6.0153 6.3125 -1.8431 0.9650
4.1213 7.6842 -1.8431 0.9650
3.4166 8.0223 -1.8432 0.9650
2.6845 8.2961 -1.8432 0.9650
1.1617 8.6419 -1.8432 0.9650
-0.2227 4.8675 -1.0300 0.9803
-1.9458 8.4997 -1.8432 0.9650
-3.4308 8.0163 -1.8432 0.9650
-4.2128 6.3782 -1.6158 0.9692
-5.0743 6.3605 -1.7199 0.9673
-6.0264 6.3019 -1.8432 0.9650
-8.4917 4.0923 -1.9925 0.9622
-8.8365 3.3201 -1.9954 0.9621
-9.0983 2.5155 -1.9954 0.9621
-9.4397 0.0069 -1.9954 0.9621
-9.2895 -1.6770 -1.9954 0.9621
-8.8414 -3.3071 -1.9954 0.9621
-8.1097 -4.8312 -1.9954 0.9621
-2.7737 -2.8920 -0.8470 0.9838
-2.3069 -2.8830 -0.7805 0.9850
-1.5774 -2.9185 -0.7012 0.9865
-1.2591 -2.9302 -0.6741 0.9870
-1.0280 -3.1421 -0.6988 0.9866
0.4009 -9.4311 -1.9954 0.9621
1.2438 -9.3573 -1.9954 0.9621
2.0768 -9.2084 -1.9954 0.9621
2.8930 -8.9854 -1.9954 0.9621
3.6860 -8.6902 -1.9954 0.9621
4.4494 -8.3253 -1.9953 0.9621
5.1770 -7.8934 -1.9953 0.9621
5.8630 -7.3981 -1.9953 0.9621
7.0886 -6.2336 -1.9953 0.9621
7.6184 -5.5738 -1.9953 0.9621
8.0869 -4.8692 -1.9953 0.9621
9.0901 -2.5448 -1.9953 0.9621
9.2815 -1.7206 -1.9953 0.9621
9.3983 -0.8826 -1.9953 0.9621
9.2948 1.6469 -1.9953 0.9621
8.5229 4.0580 -1.9953 0.9621
7.0779 5.0927 -1.8431 0.9650
6.5934 5.7060 -1.8431 0.9650
4.1328 7.5875 -1.8263 0.9653
3.4684 8.0001 -1.8432 0.9650
1.9857 8.4905 -1.8432 0.9650
1.2175 8.6342 -1.8432 0.9650
0.4394 8.7085 -1.8432 0.9650
-0.1913 4.8709 -1.0304 0.9803
-1.8909 8.5121 -1.8432 0.9650
-2.6455 8.3086 -1.8432 0.9650
-4.0852 7.7035 -1.8432 0.9650
-4.1867 6.4286 -1.6217 0.9691
-5.9856 6.3407 -1.8432 0.9650
-9.2759 1.7506 -1.9954 0.9621
-9.3002 -1.6169 -1.9954 0.9621
-8.8626 -3.2499 -1.9954 0.9621
-8.5360 -4.0305 -1.9954 0.9621
-8.1407 -4.7787 -1.9954 0.9621
-3.3504 -2.8806 -0.9340 0.9821
3.3656 -7.7944 -1.9954 0.9657
4.0500 -7.4617 -1.9954 0.9657
4.7020 -7.0691 -1.9953 0.9657
5.3161 -6.6196 -1.9953 0.9657
5.8875 -6.1170 -1.9953 0.9657
7.3015 -4.3323 -1.9953 0.9657
7.9571 -2.9604 -1.9953 0.9657
8.1903 -2.2360 -1.9953 0.9657
8.3576 -1.4936 -1.9953 0.9657
8.4578 -0.7392 -1.9953 0.9657
8.4540 0.7813 -1.9953 0.9657
8.3500 1.5352 -1.9953 0.9657
7.2574 4.3552 -1.9892 0.9658
5.8968 5.1702 -1.8431 0.9683
5.4102 5.6775 -1.8431 0.9683
4.3107 6.5514 -1.8431 0.9683
3.7067 6.9111 -1.8432 0.9683
2.4145 7.4615 -1.8432 0.9683
1.0448 7.7725 -1.8432 0.9683
-2.4276 7.4572 -1.8432 0.9683
-3.7189 6.9046 -1.8432 0.9683
-4.8908 6.1305 -1.8432 0.9683
-5.4202 5.6680 -1.8432 0.9683
-5.9059 5.1598 -1.8432 0.9683
-6.7988 4.0638 -1.8616 0.9680
-7.6483 3.6858 -1.9954 0.9657
-8.1831 2.2624 -1.9954 0.9657
-8.3528 1.5206 -1.9954 0.9657
-8.4900 0.0062 -1.9954 0.9657
-8.3550 -1.5083 -1.9954 0.9657
-8.1864 -2.2504 -1.9954 0.9657
-7.9520 -2.9744 -1.9954 0.9657
-7.6537 -3.6745 -1.9954 0.9657
-7.2939 -4.3451 -1.9954 0.9657
-2.7420 -2.8589 -0.9310 0.9839
-2.2704 -2.8373 -0.8540 0.9852
-1.8950 -2.8599 -0.8063 0.9860
-0.9887 -3.0222 -0.7473 0.9870
-0.7639 -3.3145 -0.7994 0.9861
-0.2021 -4.2794 -1.0069 0.9826
1.1187 -8.4160 -1.9954 0.9657
1.8678 -8.2820 -1.9954 0.9657
2.6020 -8.0815 -1.9954 0.9657
3.3152 -7.8160 -1.9954 0.9657
4.6562 -7.0993 -1.9953 0.9657
8.1757 -2.2888 -1.9953 0.9657
8.3478 -1.5475 -1.9953 0.9657
8.4899 -0.0337 -1.9953 0.9657
8.4588 0.7267 -1.9953 0.9657
8.1936 2.2239 -1.9953 0.9657
7.6655 3.6498 -1.9953 0.9657
7.2885 4.3101 -1.9901 0.9658
5.9301 5.1320 -1.8431 0.9683
4.9196 6.1075 -1.8431 0.9683
4.3529 6.5235 -1.8431 0.9683
3.1195 7.1953 -1.8432 0.9683
2.4626 7.4457 -1.8432 0.9683
1.7860 7.6363 -1.8432 0.9683
0.3952 7.8325 -1.8432 0.9683
-0.1907 4.8563 -1.1422 0.9802
-1.0083 7.7773 -1.8432 0.9683
-1.7007 7.6558 -1.8432 0.9683
-3.0390 7.2297 -1.8432 0.9683
-3.6742 6.9285 -1.8432 0.9683
-5.3835 5.7028 -1.8432 0.9683
-5.8725 5.1979 -1.8432 0.9683
-7.9281 3.0374 -1.9954 0.9657
-8.1683 2.3154 -1.9954 0.9657
-8.4898 0.0611 -1.9954 0.9657
-8.3646 -1.4543 -1.9954 0.9657
-8.2007 -2.1975 -1.9954 0.9657
-7.6773 -3.6250 -1.9954 0.9657
3.0550 -7.0751 -1.9954 0.9687
3.6763 -6.7731 -1.9954 0.9687
4.2680 -6.4167 -1.9953 0.9687
5.8199 -5.0516 -1.9953 0.9687
6.9532 -3.3232 -1.9953 0.9687
7.4344 -2.0296 -1.9953 0.9687
7.6772 -0.6710 -1.9953 0.9687
7.7065 0.0192 -1.9953 0.9687
7.6738 0.7092 -1.9953 0.9687
7.5794 1.3935 -1.9953 0.9687
7.2093 2.7232 -1.9953 0.9687
6.6041 3.9631 -1.9942 0.9687
5.3526 4.6930 -1.8431 0.9710
4.4297 5.5725 -1.8431 0.9710
3.3646 6.2733 -1.8432 0.9710
2.7893 6.5494 -1.8432 0.9710
0.9484 7.0552 -1.8432 0.9710
0.3128 7.1118 -1.8432 0.9710
-0.9608 7.0535 -1.8432 0.9710
-1.5886 6.9392 -1.8432 0.9710
-2.2036 6.7690 -1.8432 0.9710
-3.3756 6.2674 -1.8432 0.9710
-4.4395 5.5648 -1.8432 0.9710
-5.3609 4.6836 -1.8432 0.9710
-5.7588 4.1848 -1.8432 0.9710
-6.5940 3.9414 -1.9890 0.9688
-6.9424 3.3456 -1.9954 0.9687
-7.2141 2.7105 -1.9954 0.9687
-7.4279 2.0536 -1.9954 0.9687
-7.5819 1.3802 -1.9954 0.9687
-7.6751 0.6957 -1.9954 0.9687
-7.7065 0.0057 -1.9954 0.9687
-7.6761 -0.6845 -1.9954 0.9687
-7.5839 -1.3691 -1.9954 0.9687
-7.4309 -2.0427 -1.9954 0.9687
-6.9473 -3.3354 -1.9954 0.9687
-6.6208 -3.9441 -1.9954 0.9687
-1.8668 -2.8174 -0.8751 0.9861
-0.9581 -2.9286 -0.7978 0.9873
-0.4883 -3.5460 -0.9268 0.9853
0.1654 -3.8900 -1.0081 0.9840
1.0155 -7.6393 -1.9954 0.9687
2.3618 -7.3357 -1.9954 0.9687
3.0092 -7.0947 -1.9954 0.9687
3.6325 -6.7967 -1.9954 0.9687
5.3082 -5.5869 -1.9953 0.9687
5.7871 -5.0891 -1.9953 0.9687
6.9315 -3.3680 -1.9953 0.9687
7.4212 -2.0776 -1.9953 0.9687
7.5774 -1.4047 -1.9953 0.9687
7.6727 -0.7205 -1.9953 0.9687
7.6782 0.6597 -1.9953 0.9687
7.5883 1.3446 -1.9953 0.9687
7.4374 2.0187 -1.9953 0.9687
7.2267 2.6766 -1.9953 0.9687
6.9580 3.3130 -1.9953 0.9687
6.6320 3.9218 -1.9949 0.9687
5.9937 4.3126 -1.9118 0.9700
5.3828 4.6584 -1.8431 0.9710
3.4051 6.2515 -1.8432 0.9710
2.2353 6.7586 -1.8432 0.9710
-0.1889 4.8085 -1.2460 0.9803
-1.5437 6.9493 -1.8432 0.9710
-2.1598 6.7831 -1.8432 0.9710
-2.7585 6.5625 -1.8432 0.9710
-3.8849 5.9652 -1.8432 0.9710
-4.8866 5.1765 -1.8432 0.9710
-6.9207 3.3904 -1.9954 0.9687
-7.1965 2.7570 -1.9954 0.9687
-7.4144 2.1015 -1.9954 0.9687
-7.5729 1.4292 -1.9954 0.9687
-7.6704 0.7453 -1.9954 0.9687
-7.5926 -1.3201 -1.9954 0.9687
-7.2354 -2.6532 -1.9954 0.9687
-6.9687 -3.2905 -1.9954 0.9687
-6.2700 -4.4808 -1.9954 0.9687
-2.7518 -2.8323 -1.0225 0.9838
2.7941 -6.4709 -1.9954 0.9711
3.3623 -6.1947 -1.9954 0.9711
5.3229 -4.6202 -1.9953 0.9711
5.7152 -4.1250 -1.9953 0.9711
6.0617 -3.5967 -1.9953 0.9711
6.7996 -1.8563 -1.9953 0.9711
4.9008 4.2969 -1.8451 0.9733
4.4915 4.7134 -1.8431 0.9733
3.0773 5.7376 -1.8432 0.9733
2.5511 5.9901 -1.8432 0.9733
2.0045 6.1945 -1.8432 0.9733
1.4417 6.3491 -1.8432 0.9733
0.8674 6.4527 -1.8432 0.9733
-1.4529 6.3466 -1.8432 0.9733
-2.5617 5.9856 -1.8432 0.9733
-3.0874 5.7322 -1.8432 0.9733
-4.0604 5.0896 -1.8432 0.9733
-4.4998 4.7055 -1.8432 0.9733
-4.9031 4.2837 -1.8432 0.9733
-5.4971 3.9946 -1.9237 0.9721
-6.5981 2.4790 -1.9954 0.9711
-6.7935 1.8782 -1.9954 0.9711
-6.7963 -1.8683 -1.9954 0.9711
-6.6017 -2.4693 -1.9954 0.9711
-6.0554 -3.6073 -1.9954 0.9711
-5.7080 -4.1351 -1.9954 0.9711
-3.1658 -2.7577 -1.1885 0.9827
-2.2268 -2.7828 -1.0090 0.9853
-1.8391 -2.7756 -0.9426 0.9863
-1.5128 -2.7990 -0.9007 0.9869
-1.2094 -2.8145 -0.8672 0.9873
-0.4605 -3.3443 -0.9557 0.9861
0.1504 -3.5387 -1.0027 0.9854
0.5053 -3.8012 -1.0855 0.9842
1.5507 -6.8757 -1.9954 0.9711
3.3223 -6.2163 -1.9954 0.9711
3.8656 -5.8938 -1.9954 0.9711
4.3778 -5.5240 -1.9953 0.9711
5.6885 -4.1618 -1.9953 0.9711
6.7874 -1.9002 -1.9953 0.9711
6.9303 -1.2847 -1.9953 0.9711
7.0175 -0.6590 -1.9953 0.9711
7.0483 -0.0279 -1.9953 0.9711
6.6096 2.4480 -1.9953 0.9711
6.3638 3.0300 -1.9953 0.9711
6.0669 3.5877 -1.9953 0.9711
4.9592 4.2918 -1.8567 0.9731
4.0842 5.0704 -1.8431 0.9733
1.4827 6.3397 -1.8432 0.9733
0.9090 6.4470 -1.8432 0.9733
0.3281 6.5025 -1.8432 0.9733
-0.1884 4.7971 -1.3591 0.9802
-1.4119 6.3558 -1.8432 0.9733
-3.0503 5.7520 -1.8432 0.9733
-4.0274 5.1157 -1.8432 0.9733
-4.8753 4.3153 -1.8432 0.9733
-5.4293 3.9992 -1.9090 0.9724
-6.0208 3.6517 -1.9935 0.9712
-6.3297 3.1009 -1.9954 0.9711
-6.5819 2.5216 -1.9954 0.9711
-6.9261 1.3071 -1.9954 0.9711
-7.0154 0.6816 -1.9954 0.9711
-6.9442 -1.2073 -1.9954 0.9711
-6.6175 -2.4267 -1.9954 0.9711
-3.2091 -2.7592 -1.1981 0.9826
-2.7352 -2.8153 -1.1112 0.9838
4.0621 -5.0581 -1.9954 0.9732
4.8992 -4.2524 -1.9953 0.9732
5.5791 -3.3104 -1.9953 0.9732
6.0801 -2.2621 -1.9953 0.9732
6.2583 -1.7085 -1.9953 0.9732
6.2497 1.7397 -1.9953 0.9732
5.8391 2.8266 -1.9953 0.9732
5.5625 3.3381 -1.9953 0.9732
5.2413 3.8228 -1.9953 0.9732
4.8594 4.2606 -1.9878 0.9733
4.1339 4.3382 -1.8431 0.9752
2.3480 5.5133 -1.8432 0.9752
0.7983 5.9390 -1.8432 0.9752
-0.8088 5.9376 -1.8432 0.9752
-2.3578 5.5091 -1.8432 0.9752
-3.3026 5.0002 -1.8432 0.9752
-3.7371 4.6844 -1.8432 0.9752
-4.1416 4.3309 -1.8432 0.9752
-5.2362 3.8050 -1.9909 0.9733
-5.8441 2.8163 -1.9954 0.9732
-6.2527 1.7287 -1.9954 0.9732
-6.3824 1.1619 -1.9954 0.9732
-6.4608 0.5857 -1.9954 0.9732
-6.4873 0.0048 -1.9954 0.9732
-6.4617 -0.5762 -1.9954 0.9732
-6.2553 -1.7195 -1.9954 0.9732
-6.0762 -2.2728 -1.9954 0.9732
-5.5733 -3.3202 -1.9954 0.9732
-5.2536 -3.8059 -1.9954 0.9732
-2.6929 -2.8077 -1.1966 0.9839
-2.2064 -2.7574 -1.0862 0.9853
-1.4925 -2.7613 -0.9654 0.9870
-0.4290 -3.1152 -0.9672 0.9869
-0.1509 -3.1951 -0.9838 0.9867
0.1388 -3.2661 -1.0055 0.9864
0.4587 -3.4508 -1.0707 0.9855
1.4272 -6.3283 -1.9954 0.9732
1.9882 -6.1751 -1.9954 0.9732
3.0578 -5.7214 -1.9954 0.9732
4.0293 -5.0842 -1.9954 0.9732
4.4684 -4.7030 -1.9953 0.9732
4.8716 -4.2840 -1.9953 0.9732
5.2356 -3.8305 -1.9953 0.9732
5.5576 -3.3463 -1.9953 0.9732
6.2471 -1.7489 -1.9953 0.9732
6.3786 -1.1825 -1.9953 0.9732
6.4589 -0.6065 -1.9953 0.9732
6.4872 -0.0257 -1.9953 0.9732
6.4635 0.5553 -1.9953 0.9732
6.3878 1.1319 -1.9953 0.9732
6.2608 1.6993 -1.9953 0.9732
5.2658 3.7889 -1.9953 0.9732
3.3261 4.9846 -1.8432 0.9752
2.8664 5.2625 -1.8432 0.9752
1.8817 5.6894 -1.8432 0.9752
0.8367 5.9338 -1.8432 0.9752
0.3020 5.9848 -1.8432 0.9752
-0.1880 4.7856 -1.4731 0.9802
-0.7704 5.9427 -1.8432 0.9752
-1.2995 5.8499 -1.8432 0.9752
-1.8181 5.7100 -1.8432 0.9752
-3.7068 4.7084 -1.8432 0.9752
-4.1135 4.3576 -1.8432 0.9752
-4.5533 4.0302 -1.8703 0.9749
-5.2101 3.8377 -1.9903 0.9733
-5.5468 3.3642 -1.9954 0.9732
-6.0579 2.3209 -1.9954 0.9732
-6.4872 0.0467 -1.9954 0.9732
-6.4653 -0.5344 -1.9954 0.9732
-6.3914 -1.1112 -1.9954 0.9732
-6.2662 -1.6791 -1.9954 0.9732
-5.8662 -2.7699 -1.9954 0.9732
-5.5946 -3.2841 -1.9954 0.9732
-3.2531 -2.7970 -1.3196 0.9822
-2.7187 -2.7982 -1.2000 0.9838
2.8636 -5.2757 -1.9954 0.9750
3.3245 -4.9981 -1.9954 0.9750
4.1627 -4.3250 -1.9954 0.9750
5.7908 -1.5809 -1.9953 0.9750
5.9091 -1.0560 -1.9953 0.9750
5.9038 1.0855 -1.9953 0.9750
5.6155 2.1211 -1.9953 0.9750
4.8498 3.5373 -1.9953 0.9750
4.5079 3.9524 -1.9929 0.9750
3.4504 4.3406 -1.8431 0.9769
3.0478 4.6321 -1.8432 0.9769
2.6208 4.8864 -1.8432 0.9769
2.1727 5.1015 -1.8432 0.9769
0.2436 5.5395 -1.8432 0.9769
-0.2183 4.7730 -1.5882 0.9801
-0.7484 5.4941 -1.8432 0.9769
-1.2374 5.4051 -1.8432 0.9769
-3.0560 4.6268 -1.8432 0.9769
-3.8730 4.0501 -1.8628 0.9767
-4.8560 3.5288 -1.9954 0.9750
-5.4076 2.6060 -1.9954 0.9750
-5.9783 0.5419 -1.9954 0.9750
-5.9791 -0.5331 -1.9954 0.9750
-5.6223 -2.1030 -1.9954 0.9750
-5.1570 -3.0722 -1.9954 0.9750
-4.8612 -3.5216 -1.9954 0.9750
-3.0997 -2.7001 -1.3664 0.9828
-2.6765 -2.7906 -1.2853 0.9838
-2.1862 -2.7321 -1.1631 0.9854
-1.8023 -2.7200 -1.0846 0.9863
-1.4724 -2.7241 -1.0293 0.9870
-0.4031 -2.9274 -0.9823 0.9876
-0.1422 -3.0123 -1.0024 0.9874
0.7814 -3.4649 -1.1807 0.9851
2.3440 -5.5262 -1.9954 0.9750
4.1346 -4.3517 -1.9954 0.9750
4.5077 -3.9640 -1.9953 0.9750
5.1425 -3.0964 -1.9953 0.9750
5.3991 -2.6234 -1.9953 0.9750
5.9022 -1.0942 -1.9953 0.9750
6.0027 -0.0238 -1.9953 0.9750
5.9807 0.5138 -1.9953 0.9750
5.4198 2.5805 -1.9953 0.9750
4.8725 3.5059 -1.9953 0.9750
4.5345 3.9242 -1.9933 0.9750
4.1014 4.2487 -1.9630 0.9754
2.2056 5.0874 -1.8432 0.9769
1.7412 5.2644 -1.8432 0.9769
0.2794 5.5378 -1.8432 0.9769
-0.1875 4.7740 -1.5881 0.9801
-0.7129 5.4989 -1.8432 0.9769
-3.0260 4.6464 -1.8432 0.9769
-3.8262 4.0532 -1.8528 0.9768
-4.8328 3.5598 -1.9952 0.9750
-5.3907 2.6408 -1.9954 0.9750
-5.7753 1.6369 -1.9954 0.9750
-5.8987 1.1132 -1.9954 0.9750
-5.9824 -0.4945 -1.9954 0.9750
-5.9141 -1.0282 -1.9954 0.9750
-5.7982 -1.5537 -1.9954 0.9750
-5.6358 -2.0667 -1.9954 0.9750
-5.4281 -2.5630 -1.9954 0.9750
-5.1768 -3.0388 -1.9954 0.9750
-2.7021 -2.7811 -1.2889 0.9838
2.6617 -4.9039 -1.9954 0.9766
3.0902 -4.6459 -1.9954 0.9766
4.5244 -3.2655 -1.9953 0.9766
4.7986 -2.8472 -1.9953 0.9766
5.3827 -1.4695 -1.9953 0.9766
5.5560 0.5135 -1.9953 0.9766
5.3753 1.4963 -1.9953 0.9766
5.2198 1.9717 -1.9953 0.9766
3.3657 4.2340 -1.9342 0.9773
2.8330 4.3057 -1.8431 0.9783
2.4361 4.5421 -1.8432 0.9783
1.5868 4.9038 -1.8432 0.9783
1.1413 5.0262 -1.8432 0.9783
0.6867 5.1082 -1.8432 0.9783
0.2265 5.1491 -1.8432 0.9783
-0.2178 4.7613 -1.7045 0.9800
-1.1502 5.0242 -1.8432 0.9783
-1.5954 4.9010 -1.8432 0.9783
-2.4441 4.5378 -1.8432 0.9783
-3.2450 4.0676 -1.8608 0.9781
-3.8419 4.0176 -1.9879 0.9767
-4.5138 3.2801 -1.9954 0.9766
-5.0265 2.4223 -1.9954 0.9766
-5.2232 1.9625 -1.9954 0.9766
-5.3780 1.4869 -1.9954 0.9766
-5.4895 0.9993 -1.9954 0.9766
-5.5797 0.0041 -1.9954 0.9766
-5.4910 -0.9913 -1.9954 0.9766
-5.3802 -1.4790 -1.9954 0.9766
-5.0301 -2.4149 -1.9954 0.9766
-4.7936 -2.8557 -1.9954 0.9766
-4.5186 -3.2735 -1.9954 0.9766
-2.6503 -2.7633 -1.3692 0.9839
-1.8056 -2.7250 -1.1690 0.9862
-1.1651 -2.7113 -1.0553 0.9875
-0.8960 -2.7386 -1.0304 0.9878
0.1229 -2.8915 -1.0349 0.9878
0.3997 -3.0071 -1.0848 0.9872
0.7209 -3.1963 -1.1717 0.9862
1.7101 -5.3112 -1.9954 0.9766
3.4656 -4.3730 -1.9954 0.9766
3.8433 -4.0451 -1.9954 0.9766
4.1901 -3.6847 -1.9954 0.9766
5.3731 -1.5042 -1.9953 0.9766
5.5553 -0.5217 -1.9953 0.9766
5.5797 -0.0221 -1.9953 0.9766
5.5592 0.4776 -1.9953 0.9766
5.2324 1.9379 -1.9953 0.9766
5.0378 2.3987 -1.9953 0.9766
3.8680 4.0070 -1.9916 0.9766
3.4100 4.2334 -1.9440 0.9772
2.4654 4.5262 -1.8432 0.9783
2.0501 4.7288 -1.8432 0.9783
1.6184 4.8934 -1.8432 0.9783
0.7196 5.1036 -1.8432 0.9783
-0.1870 4.7622 -1.7043 0.9800
-1.1177 5.0315 -1.8432 0.9783
-1.5638 4.9112 -1.8432 0.9783
-2.8128 4.3190 -1.8432 0.9783
-3.8042 4.0299 -1.9818 0.9767
-4.1737 3.6942 -1.9932 0.9766
-4.4925 3.3092 -1.9954 0.9766
-5.0108 2.4547 -1.9954 0.9766
-5.2105 1.9962 -1.9954 0.9766
-5.4830 1.0348 -1.9954 0.9766
-5.5536 0.5396 -1.9954 0.9766
-5.5796 0.0401 -1.9954 0.9766
-5.3896 -1.4442 -1.9954 0.9766
-5.2386 -1.9210 -1.9954 0.9766
-5.0456 -2.3824 -1.9954 0.9766
-4.5397 -3.2442 -1.9954 0.9766
-2.6854 -2.7640 -1.3781 0.9838
2.0641 -4.7802 -1.9954 0.9779
3.2603 -4.0598 -1.9954 0.9779
3.6107 -3.7515 -1.9954 0.9779
3.9322 -3.4131 -1.9954 0.9779
4.2220 -3.0473 -1.9953 0.9779
4.4779 -2.6569 -1.9953 0.9779
4.6978 -2.2453 -1.9953 0.9779
5.1256 -0.9160 -1.9953 0.9779
5.1871 -0.4533 -1.9953 0.9779
5.2068 0.0130 -1.9953 0.9779
5.1210 0.9415 -1.9953 0.9779
5.0161 1.3963 -1.9953 0.9779
4.8709 1.8399 -1.9953 0.9779
4.6866 2.2687 -1.9953 0.9779
3.9151 3.4326 -1.9954 0.9779
3.5920 3.7694 -1.9954 0.9779
2.2733 4.2385 -1.8431 0.9796
1.0651 4.6903 -1.8432 0.9796
0.2113 4.8050 -1.8432 0.9796
-0.6492 4.7657 -1.8432 0.9796
-1.4888 4.5734 -1.8432 0.9796
-1.8924 4.4217 -1.8432 0.9796
-2.2807 4.2345 -1.8432 0.9796
-3.5933 3.7576 -1.9924 0.9780
-3.9211 3.4258 -1.9954 0.9779
-4.2122 3.0609 -1.9954 0.9779
-4.4693 2.6714 -1.9954 0.9779
-2.3041 0.2089 -0.8866 0.9901
-2.2868 0.0017 -0.8763 0.9903
-4.6939 -2.2536 -1.9954 0.9779
-3.0997 -2.7001 -1.5753 0.9825
-2.1835 -2.7287 -1.3393 0.9851
-1.8077 -2.7282 -1.2542 0.9861
-0.8856 -2.7070 -1.0915 0.9879
-0.1292 -2.7369 -1.0500 0.9883
0.1164 -2.7382 -1.0503 0.9883
0.6765 -2.9994 -1.1783 0.9869
1.5958 -4.9563 -1.9954 0.9779
2.8556 -4.3539 -1.9954 0.9779
3.5864 -3.7747 -1.9954 0.9779
4.2022 -3.0745 -1.9953 0.9779
5.1196 -0.9491 -1.9953 0.9779
5.1840 -0.4868 -1.9953 0.9779
5.1877 0.4457 -1.9953 0.9779
5.0250 1.3639 -1.9953 0.9779
4.7011 2.2384 -1.9953 0.9779
4.2265 3.0410 -1.9953 0.9779
2.8141 4.2174 -1.9430 0.9785
1.9131 4.4128 -1.8432 0.9796
1.5103 4.5664 -1.8432 0.9796
1.0953 4.6833 -1.8432 0.9796
-1.4593 4.5830 -1.8432 0.9796
-2.6587 4.0824 -1.8670 0.9793
-3.1870 4.0481 -1.9744 0.9782
-3.5683 3.7800 -1.9921 0.9780
-4.1923 3.0880 -1.9954 0.9779
-4.6759 2.2907 -1.9954 0.9779
-5.0095 1.4199 -1.9954 0.9779
-5.1165 0.9656 -1.9954 0.9779
-5.1299 -0.8919 -1.9954 0.9779
-4.7084 -2.2232 -1.9954 0.9779
-4.2363 -3.0274 -1.9954 0.9779
-3.1419 -2.7013 -1.5879 0.9824
1.9327 -4.4759 -1.9954 0.9791
2.3257 -4.2849 -1.9954 0.9791
3.0527 -3.8013 -1.9954 0.9791
3.6818 -3.1958 -1.9954 0.9791
3.9532 -2.8533 -1.9954 0.9791
4.1928 -2.4878 -1.9953 0.9791
4.3988 -2.1023 -1.9953 0.9791
4.5693 -1.7000 -1.9953 0.9791
4.7032 -1.2840 -1.9953 0.9791
4.7993 -0.8577 -1.9953 0.9791
4.8568 -0.4245 -1.9953 0.9791
4.8753 0.0122 -1.9953 0.9791
4.8546 0.4487 -1.9953 0.9791
4.6968 1.3074 -1.9953 0.9791
3.6658 3.2141 -1.9954 0.9791
2.6728 4.0622 -1.9902 0.9792
1.3865 4.2847 -1.8432 0.9807
0.9972 4.3916 -1.8432 0.9807
0.6000 4.4633 -1.8432 0.9807
0.1979 4.4991 -1.8432 0.9807
-0.6078 4.4622 -1.8432 0.9807
-1.3940 4.2823 -1.8432 0.9807
-2.2021 4.0886 -1.9006 0.9801
-3.0352 3.8045 -1.9919 0.9792
-3.6715 3.2077 -1.9954 0.9791
-3.9440 2.8660 -1.9954 0.9791
-4.1848 2.5013 -1.9954 0.9791
-4.3920 2.1165 -1.9954 0.9791
-4.6990 1.2992 -1.9954 0.9791
-2.0156 0.1827 -0.8283 0.9913
-4.7010 -1.2923 -1.9954 0.9791
-3.9482 -2.8602 -1.9954 0.9791
-2.6104 -2.7218 -1.5435 0.9838
-2.1852 -2.7309 -1.4315 0.9850
-1.4627 -2.7063 -1.2590 0.9868
-1.1514 -2.6794 -1.1936 0.9875
-0.6299 -2.7328 -1.1478 0.9880
-0.1279 -2.7084 -1.1097 0.9883
0.1149 -2.7035 -1.1075 0.9884
0.6643 -2.9455 -1.2358 0.9870
1.4942 -4.6407 -1.9954 0.9791
1.9037 -4.4883 -1.9954 0.9791
2.2980 -4.2998 -1.9954 0.9791
2.6738 -4.0767 -1.9954 0.9791
3.0281 -3.8209 -1.9954 0.9791
3.6611 -3.2195 -1.9954 0.9791
4.1767 -2.5148 -1.9954 0.9791
4.3851 -2.1307 -1.9953 0.9791
4.5583 -1.7295 -1.9953 0.9791
4.6948 -1.3143 -1.9953 0.9791
4.7937 -0.8887 -1.9953 0.9791
4.8540 -0.4558 -1.9953 0.9791
4.8753 -0.0193 -1.9953 0.9791
4.8005 0.8506 -1.9953 0.9791
4.7051 1.2771 -1.9953 0.9791
4.4018 2.0959 -1.9953 0.9791
4.1965 2.4816 -1.9953 0.9791
3.6865 3.1904 -1.9954 0.9791
3.3860 3.5077 -1.9954 0.9791
1.8222 4.2030 -1.8749 0.9804
1.4141 4.2757 -1.8432 0.9807
0.6288 4.4593 -1.8432 0.9807
-0.1767 4.5000 -1.8432 0.9807
-1.7451 4.1516 -1.8432 0.9807
-3.0101 3.8234 -1.9916 0.9792
-4.1685 2.5283 -1.9954 0.9791
-4.3782 2.1448 -1.9954 0.9791
-4.5527 1.7442 -1.9954 0.9791
-4.6906 1.3295 -1.9954 0.9791
-2.0662 0.3899 -0.8606 0.9910
-2.0168 0.1960 -0.8293 0.9913
-1.9920 0.0143 -0.8153 0.9914
-2.0140 -0.1665 -0.8271 0.9913
-4.7092 -1.2619 -1.9954 0.9791
-4.2045 -2.4681 -1.9954 0.9791
-3.1419 -2.7013 -1.6958 0.9823
1.8150 -4.2033 -1.9954 0.9802
2.5356 -3.8121 -1.9954 0.9802
2.8668 -3.5698 -1.9954 0.9802
3.7124 -2.6795 -1.9954 0.9802
3.9375 -2.3363 -1.9954 0.9802
4.5070 -0.8054 -1.9953 0.9802
4.5610 -0.3986 -1.9953 0.9802
4.5784 0.0114 -1.9953 0.9802
4.5029 0.8279 -1.9953 0.9802
4.4107 1.2278 -1.9953 0.9802
4.2830 1.6178 -1.9953 0.9802
4.1210 1.9949 -1.9953 0.9802
3.1585 3.3145 -1.9954 0.9802
2.5151 3.8224 -1.9941 0.9802
2.1588 4.0250 -1.9905 0.9803
-0.1933 4.2248 -1.8432 0.9817
-0.5708 4.1905 -1.8432 0.9817
-1.3395 4.1148 -1.8859 0.9813
-2.1638 4.0175 -1.9887 0.9803
-2.5190 3.8138 -1.9920 0.9803
-3.4479 3.0123 -1.9954 0.9802
-3.9299 2.3490 -1.9954 0.9802
-1.5142 0.5689 -0.7050 0.9930
-1.4233 0.0010 -0.6203 0.9938
-1.4667 -0.1308 -0.6418 0.9936
-1.4702 -0.2654 -0.6511 0.9935
-1.5097 -0.5647 -0.7025 0.9930
-4.1274 -1.9816 -1.9954 0.9802
-3.9334 -2.3432 -1.9954 0.9802
-3.7077 -2.6860 -1.9954 0.9802
-3.0997 -2.7001 -1.7915 0.9822
-2.6261 -2.7381 -1.6534 0.9836
-2.1869 -2.7330 -1.5255 0.9848
-1.4654 -2.7112 -1.3432 0.9866
-0.8702 -2.6599 -1.2197 0.9879
-0.3715 -2.6979 -1.1869 0.9882
0.6635 -2.9418 -1.3143 0.9869
2.1580 -4.0379 -1.9954 0.9802
2.5110 -3.8285 -1.9954 0.9802
2.8437 -3.5882 -1.9954 0.9802
3.4381 -3.0234 -1.9954 0.9802
3.9223 -2.3617 -1.9954 0.9802
4.1180 -2.0009 -1.9954 0.9802
4.2807 -1.6241 -1.9953 0.9802
4.4089 -1.2343 -1.9953 0.9802
4.5017 -0.8345 -1.9953 0.9802
4.5082 0.7988 -1.9953 0.9802
4.4185 1.1993 -1.9953 0.9802
4.2934 1.5901 -1.9953 0.9802
4.1337 1.9682 -1.9953 0.9802
3.9409 2.3305 -1.9954 0.9802
3.7164 2.6740 -1.9954 0.9802
3.4620 2.9961 -1.9954 0.9802
3.1798 3.2940 -1.9954 0.9802
2.1850 4.0115 -1.9908 0.9803
1.8131 4.1821 -1.9865 0.9803
1.3834 4.1827 -1.9200 0.9810
0.5905 4.1878 -1.8432 0.9817
-0.9189 4.1368 -1.8468 0.9817
-1.3106 4.1162 -1.8827 0.9813
-3.4284 3.0345 -1.9954 0.9802
-3.6863 2.7153 -1.9954 0.9802
-3.9147 2.3743 -1.9954 0.9802
-1.4684 0.2771 -0.6513 0.9935
-1.4649 -0.1211 -0.6406 0.9936
-1.4899 -0.5464 -0.6916 0.9931
-4.1401 -1.9549 -1.9954 0.9802
-3.9484 -2.3178 -1.9954 0.9802
-2.6638 -2.7418 -1.6660 0.9835
1.7088 -3.9575 -1.9954 0.9812
2.0564 -3.7886 -1.9954 0.9812
2.6992 -3.3610 -1.9954 0.9812
2.9893 -3.1058 -1.9954 0.9812
3.2554 -2.8257 -1.9954 0.9812
3.4953 -2.5228 -1.9954 0.9812
4.0401 -1.5031 -1.9954 0.9812
4.2434 -0.7583 -1.9953 0.9812
4.2943 -0.3753 -1.9953 0.9812
4.2924 0.3967 -1.9953 0.9812
4.2396 0.7795 -1.9953 0.9812
4.1528 1.1560 -1.9953 0.9812
4.0326 1.5232 -1.9954 0.9812
2.9738 3.1207 -1.9954 0.9812
2.6824 3.3744 -1.9954 0.9812
2.0364 3.7969 -1.9944 0.9812
1.6858 3.9582 -1.9915 0.9812
1.3230 4.0884 -1.9891 0.9812
0.5587 4.1563 -1.9412 0.9817
-0.1894 4.1401 -1.9184 0.9819
-0.9416 4.1132 -1.9532 0.9816
-1.3294 4.0837 -1.9879 0.9812
-2.0413 3.7900 -1.9926 0.9812
-2.6883 3.3697 -1.9954 0.9812
-2.9793 3.1155 -1.9954 0.9812
-3.4872 2.5341 -1.9954 0.9812
-1.2744 0.6141 -0.6548 0.9938
-1.2592 0.4731 -0.6226 0.9941
-1.2707 0.3513 -0.6102 0.9942
-1.2718 0.2315 -0.5984 0.9943
-1.2584 0.0009 -0.5825 0.9945
-1.2734 -0.1135 -0.5918 0.9944
-1.2720 -0.2296 -0.5983 0.9943
-1.2707 -0.3493 -0.6100 0.9942
-1.2724 -0.6109 -0.6533 0.9938
-3.7034 -2.2062 -1.9954 0.9812
-3.4909 -2.5290 -1.9954 0.9812
-1.8118 -2.7344 -1.5184 0.9856
-1.4682 -2.7163 -1.4293 0.9865
-1.1554 -2.6888 -1.3547 0.9872
-0.6182 -2.6823 -1.2741 0.9879
-0.3696 -2.6836 -1.2539 0.9881
0.1131 -2.6608 -1.2328 0.9883
0.6628 -2.9389 -1.3945 0.9868
1.3211 -4.1033 -1.9954 0.9812
1.6832 -3.9685 -1.9954 0.9812
2.0318 -3.8018 -1.9954 0.9812
2.9692 -3.1251 -1.9954 0.9812
3.6929 -2.2236 -1.9954 0.9812
3.8772 -1.8839 -1.9954 0.9812
4.0303 -1.5292 -1.9954 0.9812
4.1511 -1.1621 -1.9954 0.9812
4.2385 -0.7857 -1.9953 0.9812
4.2918 -0.4030 -1.9953 0.9812
4.2949 0.3690 -1.9953 0.9812
4.2446 0.7521 -1.9953 0.9812
4.0423 1.4972 -1.9954 0.9812
3.8920 1.8531 -1.9954 0.9812
3.7104 2.1942 -1.9954 0.9812
3.2596 2.8209 -1.9954 0.9812
2.7041 3.3571 -1.9954 0.9812
2.3926 3.5857 -1.9954 0.9812
2.0611 3.7841 -1.9946 0.9812
1.3494 4.0801 -1.9892 0.9812
0.9731 4.1608 -1.9779 0.9813
0.5861 4.1567 -1.9431 0.9817
-0.1626 4.1409 -1.9182 0.9819
-0.5353 4.1291 -1.9273 0.9818
-2.9591 3.1346 -1.9954 0.9812
-1.2709 0.2398 -0.5987 0.9943
-1.2600 0.0091 -0.5832 0.9945
-1.2728 -0.1052 -0.5912 0.9944
-1.2727 -0.2213 -0.5980 0.9943
-1.2706 -0.3405 -0.6089 0.9942
-1.2611 -0.4624 -0.6217 0.9941
-3.7175 -2.1822 -1.9954 0.9812
-2.7992 -2.8811 -1.8594 0.9825
1.6125 -3.7345 -1.9954 0.9820
2.8209 -2.9308 -1.9954 0.9820
3.6702 -1.7541 -1.9954 0.9820
3.8125 -1.4184 -1.9954 0.9820
3.9242 -1.0713 -1.9954 0.9820
4.0044 -0.7156 -1.9954 0.9820
4.0523 -0.3542 -1.9954 0.9820
4.0505 0.3744 -1.9954 0.9820
4.0007 0.7356 -1.9954 0.9820
3.9188 1.0909 -1.9954 0.9820
3.0586 2.6817 -1.9954 0.9820
2.8062 2.9449 -1.9954 0.9820
1.2508 3.8653 -1.9928 0.9821
0.8988 3.9583 -1.9911 0.9821
0.1782 4.0513 -1.9892 0.9821
-0.1853 4.0507 -1.9890 0.9821
-0.5474 4.0186 -1.9894 0.9821
-1.2569 3.8610 -1.9918 0.9821
-1.9289 3.5814 -1.9954 0.9820
-2.2419 3.3942 -1.9954 0.9820
-2.5368 3.1799 -1.9954 0.9820
-3.0634 2.6764 -1.9954 0.9820
-3.2907 2.3913 -1.9954 0.9820
-3.4916 2.0870 -1.9954 0.9820
-1.0882 0.5244 -0.5925 0.9946
-1.1192 0.4205 -0.5865 0.9947
-1.1325 0.3131 -0.5763 0.9948
-1.1441 0.1037 -0.5635 0.9949
-1.1337 0.0008 -0.5561 0.9950
-1.1407 -0.2059 -0.5686 0.9948
-3.2942 -2.3865 -1.9954 0.9820
-2.8157 -2.9358 -1.9954 0.9820
-2.1905 -2.7375 -1.7198 0.9845
-1.8133 -2.7366 -1.6103 0.9855
-1.1575 -2.6937 -1.4382 0.9870
-0.8748 -2.6738 -1.3800 0.9875
-0.3676 -2.6691 -1.3216 0.9881
-0.1240 -2.6256 -1.2893 0.9884
0.6576 -2.9160 -1.4663 0.9868
2.8019 -2.9490 -1.9954 0.9820
3.0547 -2.6862 -1.9954 0.9820
3.2830 -2.4019 -1.9954 0.9820
3.8033 -1.4430 -1.9954 0.9820
3.9172 -1.0966 -1.9954 0.9820
3.9258 1.0655 -1.9954 0.9820
3.3019 2.3758 -1.9954 0.9820
3.0759 2.6619 -1.9954 0.9820
2.8252 2.9267 -1.9954 0.9820
2.5517 3.1679 -1.9954 0.9820
1.9457 3.5723 -1.9954 0.9820
1.6180 3.7320 -1.9953 0.9820
1.2758 3.8574 -1.9930 0.9821
0.9244 3.9527 -1.9912 0.9821
0.2044 4.0501 -1.9892 0.9821
-1.9058 3.5937 -1.9954 0.9820
-2.5162 3.1962 -1.9954 0.9820
-2.7923 2.9580 -1.9954 0.9820
-3.2752 2.4125 -1.9954 0.9820
-1.0853 0.5317 -0.5928 0.9946
-1.1396 0.2151 -0.5689 0.9948
-1.1350 0.0082 -0.5568 0.9950
-1.1414 -0.1985 -0.5683 0.9949
-3.3096 -2.3651 -1.9954 0.9820
-3.0845 -2.6520 -1.9954 0.9820
-2.8346 -2.9175 -1.9954 0.9820
1.5247 -3.5311 -1.9954 0.9828
2.1301 -3.2025 -1.9954 0.9828
2.4083 -2.9989 -1.9954 0.9828
2.6672 -2.7712 -1.9954 0.9828
2.9046 -2.5212 -1.9954 0.9828
3.3078 -1.9627 -1.9954 0.9828
3.4703 -1.6586 -1.9954 0.9828
3.7862 -0.6766 -1.9954 0.9828
3.8316 -0.3349 -1.9954 0.9828
3.8462 0.0096 -1.9954 0.9828
3.8299 0.3540 -1.9954 0.9828
3.7828 0.6955 -1.9954 0.9828
3.5981 1.3591 -1.9954 0.9828
3.2980 1.9791 -1.9954 0.9828
3.1075 2.2665 -1.9954 0.9828
2.8920 2.5357 -1.9954 0.9828
2.6534 2.7845 -1.9954 0.9828
2.1141 3.2131 -1.9954 0.9828
1.1842 3.6594 -1.9954 0.9828
0.8514 3.7494 -1.9946 0.9828
0.5119 3.8083 -1.9935 0.9828
0.1688 3.8376 -1.9928 0.9828
-0.1755 3.8370 -1.9927 0.9828
-0.5185 3.8066 -1.9930 0.9828
-1.1905 3.6571 -1.9952 0.9828
-1.5133 3.5360 -1.9954 0.9828
-2.1198 3.2094 -1.9954 0.9828
-2.3987 3.0067 -1.9954 0.9828
-2.6583 2.7798 -1.9954 0.9828
-2.8965 2.5306 -1.9954 0.9828
-0.9614 0.5746 -0.5811 0.9950
-0.9762 0.4704 -0.5622 0.9951
-1.0376 -0.0925 -0.5404 0.9953
-1.0193 -0.2802 -0.5484 0.9952
-1.0058 -0.3762 -0.5571 0.9952
-0.9768 -0.4690 -0.5621 0.9951
-0.9608 -0.5723 -0.5802 0.9950
-2.6623 -2.7759 -1.9954 0.9828
-1.4735 -2.7262 -1.6077 0.9861
-0.6137 -2.6625 -1.4175 0.9878
0.3573 -2.6880 -1.4068 0.9879
0.6488 -2.8767 -1.5298 0.9868
1.8129 -3.3922 -1.9954 0.9828
2.1094 -3.2162 -1.9954 0.9828
2.8883 -2.5399 -1.9954 0.9828
3.1042 -2.2711 -1.9954 0.9828
3.7818 -0.7011 -1.9954 0.9828
3.8294 -0.3596 -1.9954 0.9828
3.8321 0.3292 -1.9954 0.9828
3.3107 1.9578 -1.9954 0.9828
3.1221 2.2464 -1.9954 0.9828
2.9084 2.5169 -1.9954 0.9828
2.4128 2.9953 -1.9954 0.9828
2.1348 3.1994 -1.9954 0.9828
1.5299 3.5289 -1.9954 0.9828
1.2078 3.6517 -1.9954 0.9828
0.8756 3.7440 -1.9947 0.9828
0.5365 3.8051 -1.9935 0.9828
-0.8334 3.7518 -1.9938 0.9828
-1.4905 3.5457 -1.9954 0.9828
-1.8020 3.3980 -1.9954 0.9828
-2.0990 3.2230 -1.9954 0.9828
-3.0968 2.2811 -1.9954 0.9828
-0.9642 0.5848 -0.5850 0.9949
-0.9735 0.4769 -0.5624 0.9951
-1.0187 0.2887 -0.5493 0.9952
-1.0377 0.1008 -0.5409 0.9953
-1.0327 -0.1796 -0.5438 0.9953
-1.0073 -0.3694 -0.5566 0.9952
-0.9794 -0.4625 -0.5619 0.9951
-3.1293 -2.2363 -1.9954 0.9828
1.4442 -3.3446 -1.9954 0.9835
2.2812 -2.8405 -1.9954 0.9835
2.5264 -2.6248 -1.9954 0.9835
2.7513 -2.3881 -1.9954 0.9835
3.1331 -1.8590 -1.9954 0.9835
3.2870 -1.5710 -1.9954 0.9835
1.8838 -0.5143 -1.0695 0.9911
1.8850 -0.3369 -1.0488 0.9913
1.8885 -0.1650 -1.0383 0.9914
1.8726 0.0047 -1.0256 0.9915
1.8888 0.1746 -1.0389 0.9914
3.2791 1.5873 -1.9954 0.9835
3.1238 1.8746 -1.9954 0.9835
2.5132 2.6374 -1.9954 0.9835
2.0025 3.0434 -1.9954 0.9835
1.4275 3.3518 -1.9954 0.9835
1.1216 3.4662 -1.9954 0.9835
0.4854 3.6106 -1.9954 0.9835
-0.1665 3.6393 -1.9954 0.9835
-0.8130 3.5512 -1.9954 0.9835
-1.1277 3.4642 -1.9954 0.9835
-1.4334 3.3493 -1.9954 0.9835
-1.7276 3.2075 -1.9954 0.9835
-2.0078 3.0399 -1.9954 0.9835
-2.7435 2.3969 -1.9954 0.9835
-0.8648 0.5169 -0.5518 0.9954
-0.9246 0.2556 -0.5254 0.9956
-0.9413 0.1714 -0.5241 0.9956
-0.9474 0.0859 -0.5210 0.9957
-0.9416 -0.1700 -0.5240 0.9956
-0.8931 -0.4288 -0.5426 0.9955
-0.8654 -0.5155 -0.5517 0.9954
-2.9503 -2.1373 -1.9954 0.9835
-2.7471 -2.3929 -1.9954 0.9835
-2.0123 -3.0369 -1.9954 0.9835
-1.4747 -2.7284 -1.6986 0.9860
-1.1621 -2.7045 -1.6122 0.9867
-0.8796 -2.6886 -1.5494 0.9872
-0.3626 -2.6327 -1.4556 0.9880
0.1113 -2.6185 -1.4355 0.9881
0.3563 -2.6804 -1.4810 0.9877
0.6456 -2.8626 -1.6072 0.9867
1.1165 -3.4678 -1.9954 0.9835
1.4226 -3.3539 -1.9954 0.9835
1.7172 -3.2130 -1.9954 0.9835
1.9980 -3.0464 -1.9954 0.9835
2.2628 -2.8552 -1.9954 0.9835
2.5094 -2.6411 -1.9954 0.9835
2.7358 -2.4058 -1.9954 0.9835
2.9402 -2.1511 -1.9954 0.9835
3.1210 -1.8792 -1.9954 0.9835
3.2768 -1.5922 -1.9954 0.9835
3.4062 -1.2924 -1.9954 0.9835
1.8730 -0.0074 -1.0259 0.9915
1.8884 0.1622 -1.0381 0.9914
1.8852 0.3340 -1.0486 0.9913
3.4163 1.2653 -1.9954 0.9835
3.2893 1.5661 -1.9954 0.9835
2.9572 2.1278 -1.9954 0.9835
2.7548 2.3840 -1.9954 0.9835
2.2853 2.8372 -1.9954 0.9835
2.0221 3.0304 -1.9954 0.9835
1.7426 3.1993 -1.9954 0.9835
1.4491 3.3425 -1.9954 0.9835
1.1440 3.4588 -1.9954 0.9835
0.5087 3.6074 -1.9954 0.9835
0.1836 3.6385 -1.9954 0.9835
-0.7900 3.5564 -1.9954 0.9835
-1.7068 3.2186 -1.9954 0.9835
-2.2535 2.8625 -1.9954 0.9835
-2.5008 2.6492 -1.9954 0.9835
-2.9333 2.1606 -1.9954 0.9835
-0.9103 0.3487 -0.5339 0.9956
-0.9240 0.2619 -0.5260 0.9956
-0.9404 0.1775 -0.5242 0.9956
-0.9474 0.0920 -0.5213 0.9957
-0.9418 0.0068 -0.5158 0.9957
-0.9473 -0.0783 -0.5206 0.9957
-0.9424 -0.1639 -0.5239 0.9956
-0.8677 -0.5093 -0.5510 0.9954
-2.9640 -2.1182 -1.9954 0.9835
-2.7625 -2.3751 -1.9954 0.9835
1.3700 -3.1729 -1.9954 0.9842
1.6487 -3.0375 -1.9954 0.9842
1.9140 -2.8776 -1.9954 0.9842
2.3966 -2.4901 -1.9954 0.9842
2.6100 -2.2654 -1.9954 0.9842
2.8024 -2.0226 -1.9954 0.9842
2.9722 -1.7636 -1.9954 0.9842
3.1182 -1.4903 -1.9954 0.9842
1.7286 -0.4719 -1.0345 0.9918
1.7405 -0.1521 -1.0087 0.9920
1.7267 0.0043 -0.9969 0.9921
1.7409 0.1609 -1.0094 0.9920
3.1107 1.5058 -1.9954 0.9842
2.9634 1.7783 -1.9954 0.9842
1.8997 2.8871 -1.9954 0.9842
0.7653 3.3702 -1.9954 0.9842
0.1519 3.4527 -1.9954 0.9842
-0.1579 3.4524 -1.9954 0.9842
-0.4665 3.4244 -1.9954 0.9842
-1.3598 3.1773 -1.9954 0.9842
-1.6388 3.0428 -1.9954 0.9842
-1.9047 2.8838 -1.9954 0.9842
-2.6027 2.2739 -1.9954 0.9842
-0.8388 0.4042 -0.5376 0.9957
-0.8572 0.3221 -0.5287 0.9958
-0.8822 -0.0787 -0.5114 0.9959
-0.8676 -0.2385 -0.5195 0.9959
-0.8392 -0.4029 -0.5374 0.9957
-0.8016 -0.5807 -0.5715 0.9954
-2.3923 -2.4943 -1.9954 0.9842
-1.9090 -2.8810 -1.9954 0.9842
-1.4759 -2.7306 -1.7920 0.9858
-1.1657 -2.7126 -1.7046 0.9865
-0.1240 -2.6256 -1.5176 0.9879
0.1113 -2.6185 -1.5132 0.9880
1.0592 -3.2897 -1.9954 0.9842
1.3495 -3.1817 -1.9954 0.9842
2.3805 -2.5055 -1.9954 0.9842
2.5953 -2.2823 -1.9954 0.9842
2.7892 -2.0407 -1.9954 0.9842
1.7072 -0.6477 -1.0542 0.9916
1.7271 -0.0068 -0.9971 0.9921
1.7403 0.1495 -1.0085 0.9920
1.7378 0.3079 -1.0189 0.9919
2.9748 1.7592 -1.9954 0.9842
2.6133 2.2616 -1.9954 0.9842
2.4003 2.4865 -1.9954 0.9842
2.1680 2.6915 -1.9954 0.9842
1.9183 2.8748 -1.9954 0.9842
1.6531 3.0350 -1.9954 0.9842
1.3747 3.1709 -1.9954 0.9842
0.7871 3.3652 -1.9954 0.9842
0.1742 3.4517 -1.9954 0.9842
-0.1356 3.4534 -1.9954 0.9842
-0.4443 3.4274 -1.9954 0.9842
-0.7495 3.3738 -1.9954 0.9842
-1.3392 3.1860 -1.9954 0.9842
-1.8861 2.8960 -1.9954 0.9842
-2.1378 2.7155 -1.9954 0.9842
-2.3724 2.5132 -1.9954 0.9842
-0.8095 0.4910 -0.5466 0.9956
-0.8562 0.3280 -0.5293 0.9958
-0.8662 0.2455 -0.5198 0.9959
-0.8782 0.1657 -0.5160 0.9959
-2.6206 -2.2532 -1.9954 0.9842
