ply
format ascii 1.0
element vertex 1630
property float32 x
property float32 y
property float32 z
property float32 I
end_header
5.0301 6.9264 1.5094 0.9658
5.8286 12.0638 2.3624 0.9470
4.5684 12.0981 2.2802 0.9488
3.3647 12.0619 2.2080 0.9504
1.1309 11.9948 2.1244 0.9522
-1.0049 11.9306 2.1111 0.9525
-3.1826 11.8651 2.1661 0.9513
-4.3329 11.8306 2.2216 0.9501
-5.5537 11.7939 2.2986 0.9484
4.7487 7.0755 1.5025 0.9660
6.4409 11.7320 2.3599 0.9471
4.0584 12.0828 2.2475 0.9495
0.6836 11.9813 2.1161 0.9524
-0.3828 11.9493 2.1081 0.9526
-2.5338 11.8846 2.1427 0.9518
-3.6539 11.8510 2.1867 0.9509
-4.8305 11.8156 2.2508 0.9495
-4.4620 7.0210 1.4668 0.9668
4.9890 6.8698 1.3007 0.9662
5.8055 12.0161 2.0444 0.9474
2.2263 12.0277 1.8739 0.9517
1.1309 11.9948 1.8457 0.9524
-1.0049 11.9306 1.8342 0.9527
-2.0797 11.8983 1.8504 0.9523
14.4226 10.3757 2.7218 0.9306
6.6102 12.0402 2.1042 0.9459
5.3121 12.1204 2.0273 0.9479
2.8848 12.0475 1.8978 0.9511
1.7667 12.0139 1.8603 0.9520
0.6836 11.9813 1.8385 0.9526
-1.4495 11.9172 1.8391 0.9526
-2.5338 11.8846 1.8616 0.9520
-4.8305 11.8156 1.9555 0.9497
-4.4505 7.0030 1.2711 0.9670
4.9715 6.8457 1.1017 0.9664
7.2859 12.1797 1.8482 0.9444
4.5683 12.0981 1.6840 0.9492
3.4016 12.1940 1.6485 0.9502
1.1433 12.1261 1.5861 0.9521
-9.8074 16.7726 2.5301 0.9246
4.7279 7.0445 1.1048 0.9664
6.6767 12.1614 1.8066 0.9456
5.3121 12.1204 1.7233 0.9480
2.9164 12.1794 1.6309 0.9507
1.7861 12.1455 1.5986 0.9517
0.6911 12.1125 1.5799 0.9522
-0.3870 12.0801 1.5739 0.9524
-2.5616 12.0148 1.5997 0.9517
-4.8305 11.8156 1.6622 0.9498
-9.5581 12.4399 2.0429 0.9387
-1.3181 -19.3530 2.0830 0.9249
7.2858 12.1797 1.5240 0.9445
4.6653 12.3549 1.4181 0.9483
3.4016 12.1940 1.3594 0.9503
2.2507 12.1594 1.3279 0.9515
-1.0159 12.0612 1.2997 0.9525
-3.2174 11.9951 1.3336 0.9513
-4.3804 11.9601 1.3677 0.9500
-5.6145 11.9230 1.4152 0.9484
-4.1232 -19.4373 2.1337 0.9232
6.6911 12.1877 1.4930 0.9456
5.4026 12.3270 1.4452 0.9473
4.0834 12.1571 1.3771 0.9497
2.9164 12.1794 1.3448 0.9509
1.7861 12.1454 1.3182 0.9518
-0.3870 12.0801 1.2978 0.9525
-1.4654 12.0477 1.3032 0.9523
-2.5616 12.0148 1.3192 0.9518
-3.0724 -19.4058 1.6632 0.9242
-1.3181 -19.3531 1.6421 0.9251
4.9537 6.8212 0.7136 0.9667
5.9798 12.3767 1.1636 0.9463
4.6653 12.3549 1.1180 0.9484
3.4016 12.1940 1.0717 0.9505
2.2786 12.3103 1.0598 0.9510
1.1433 12.1261 1.0311 0.9523
0.0613 12.2937 1.0407 0.9518
-1.0159 12.0612 1.0246 0.9526
-2.1373 12.2276 1.0508 0.9514
-3.2174 11.9950 1.0513 0.9514
-4.4529 12.1580 1.0961 0.9494
-5.6145 11.9230 1.1156 0.9485
-4.1232 -19.4374 1.6820 0.9233
-2.3375 -19.3837 1.6528 0.9246
4.6978 6.9997 0.7136 0.9667
6.8086 12.4016 1.1976 0.9448
2.9647 12.3809 1.0777 0.9502
1.7861 12.1454 1.0392 0.9519
-0.3870 12.0801 1.0231 0.9526
-4.9642 12.1426 1.1105 0.9487
-4.4233 6.9602 0.6981 0.9674
7.7000 12.8721 0.9301 0.9417
6.3346 13.1112 0.9030 0.9433
4.6653 12.3549 0.8189 0.9484
2.2786 12.3103 0.7763 0.9511
-3.2174 11.9950 0.7701 0.9514
4.6844 6.9797 0.5213 0.9669
5.7607 13.1440 0.8899 0.9441
4.0890 12.1739 0.7964 0.9498
0.6997 12.2628 0.7617 0.9520
-3.6939 11.9807 0.7774 0.9510
-4.9642 12.1426 0.8135 0.9488
-4.4191 6.9536 0.5109 0.9675
7.7261 12.9157 0.5934 0.9415
6.3592 13.1620 0.5764 0.9432
3.4016 12.1939 0.4992 0.9506
2.2786 12.3103 0.4937 0.9511
-2.1373 12.2276 0.4895 0.9515
-4.4529 12.1580 0.5105 0.9495
-5.6145 11.9230 0.5197 0.9486
1.1537 -19.8611 0.7845 0.9234
4.6747 6.9652 0.3308 0.9670
5.7607 13.1440 0.5659 0.9442
4.0923 12.1837 0.5068 0.9499
0.6997 12.2628 0.4843 0.9520
-0.3870 12.0801 0.4766 0.9528
-3.6939 11.9807 0.4944 0.9511
-4.4165 6.9495 0.3247 0.9676
-1.2512 -18.3698 0.3110 0.9290
3.6610 -18.1492 0.3128 0.9286
6.3419 13.1262 0.2462 0.9433
2.2786 12.3102 0.2115 0.9511
0.0613 12.2936 0.2077 0.9520
-1.0159 12.0612 0.2045 0.9527
-2.1373 12.2276 0.2097 0.9516
-4.4529 12.1580 0.2187 0.9495
-5.6145 11.9230 0.2226 0.9486
4.6644 6.9499 0.1414 0.9671
5.7450 13.1082 0.2418 0.9444
-0.3870 12.0801 0.2042 0.9528
-1.4654 12.0476 0.2050 0.9526
-2.6039 12.2135 0.2109 0.9513
-4.4149 6.9470 0.1390 0.9676
-4.5644 -18.1756 -0.1055 0.9278
-2.8747 -18.1568 -0.1035 0.9291
0.3837 -18.2579 -0.1028 0.9296
3.6038 -17.8655 -0.1026 0.9297
5.2904 -17.8546 -0.1048 0.9282
5.0158 6.9067 -0.0481 0.9664
7.7266 12.9165 -0.0847 0.9416
4.6653 12.3548 -0.0744 0.9485
2.2506 12.1593 -0.0696 0.9517
1.0842 11.4995 -0.0650 0.9548
-1.0159 12.0611 -0.0681 0.9527
-4.3804 11.9600 -0.0717 0.9503
-5.6145 11.9229 -0.0742 0.9486
-5.5846 -18.1792 -0.1071 0.9267
-2.1828 -18.1011 -0.1027 0.9297
1.0396 -17.8964 -0.1009 0.9308
6.1705 -18.3083 -0.1088 0.9256
4.0923 12.1837 -0.0724 0.9499
2.9164 12.1793 -0.0705 0.9511
1.7861 12.1453 -0.0691 0.9521
0.6554 11.4873 -0.0648 0.9550
-2.5615 12.0147 -0.0692 0.9520
-4.8833 11.9449 -0.0727 0.9497
-4.4215 6.9574 -0.0464 0.9676
-6.3163 -18.1408 -0.5409 0.9260
-4.4975 -17.9094 -0.5199 0.9288
-1.2209 -17.9257 -0.5059 0.9306
0.3761 -17.8941 -0.5040 0.9309
1.9678 -17.8118 -0.5046 0.9308
3.5723 -17.7092 -0.5087 0.9303
5.2236 -17.6291 -0.5177 0.9291
7.7268 12.9169 -0.4238 0.9415
6.3591 13.1619 -0.4116 0.9432
4.0664 10.7687 -0.3241 0.9550
3.0058 10.7751 -0.3150 0.9562
1.0704 11.3528 -0.3211 0.9554
0.0563 11.2839 -0.3177 0.9559
-4.3403 11.8507 -0.3554 0.9508
-7.3927 -18.1361 -0.5515 0.9246
-5.5309 -18.0045 -0.5304 0.9274
-3.8356 -18.0820 -0.5205 0.9287
-2.1512 -17.8392 -0.5060 0.9306
-0.5572 -17.9721 -0.5063 0.9306
6.0055 -17.8189 -0.5295 0.9275
6.7932 -15.4565 -0.4754 0.9347
2.8631 11.9567 -0.3462 0.9520
1.6618 11.3006 -0.3216 0.9553
-1.4654 12.0476 -0.3417 0.9526
-2.5615 12.0147 -0.3459 0.9520
-4.4261 6.9645 -0.2324 0.9675
-8.1786 -18.1158 -1.0080 0.9235
0.3766 -17.9178 -0.9089 0.9307
1.9689 -17.8220 -0.9093 0.9307
7.7271 12.9173 -0.7634 0.9415
3.9624 10.4933 -0.5688 0.9561
2.9184 10.4619 -0.5508 0.9574
2.0137 10.8790 -0.5611 0.9567
1.1126 11.8005 -0.6011 0.9536
-2.0640 11.8086 -0.6079 0.9531
-3.1586 11.7757 -0.6183 0.9523
-4.3003 11.7414 -0.6341 0.9512
-5.5118 11.7049 -0.6561 0.9495
-2.1560 -17.8792 -0.9133 0.9304
1.0374 -17.8586 -0.9072 0.9309
2.6459 -17.8645 -0.9159 0.9302
4.2390 -17.6227 -0.9192 0.9300
6.0140 -17.8439 -0.9550 0.9274
6.7191 -15.2880 -0.8469 0.9353
7.9634 -14.4698 -0.8376 0.9360
7.2405 13.1884 -0.7630 0.9415
3.5201 10.4800 -0.5607 0.9567
2.8631 11.9566 -0.6235 0.9520
1.5992 10.8747 -0.5574 0.9569
0.6724 11.7844 -0.5986 0.9538
-0.3799 11.8592 -0.6017 0.9536
-1.4386 11.8274 -0.6042 0.9534
-2.5147 11.7950 -0.6116 0.9528
-4.7941 11.7265 -0.6425 0.9505
-6.0425 11.6890 -0.6673 0.9487
-4.4242 6.9617 -0.4183 0.9675
-7.9815 -17.6792 -1.4223 0.9252
5.1509 -17.3838 -1.3294 0.9299
6.2884 -15.8785 -1.2522 0.9338
7.2504 -14.4124 -1.1829 0.9373
8.9170 12.2786 -1.1127 0.9410
3.9624 10.4933 -0.8224 0.9560
2.9184 10.4619 -0.7964 0.9574
1.1150 11.8256 -0.8709 0.9535
-0.9309 11.0527 -0.8133 0.9565
-2.0640 11.8085 -0.8790 0.9531
-5.5118 11.7049 -0.9486 0.9494
-9.1318 -17.7099 -1.4610 0.9232
-7.1979 -17.6583 -1.3982 0.9264
-5.4099 -17.6106 -1.3508 0.9288
-3.7277 -17.5734 -1.3172 0.9305
-2.1452 -17.7890 -1.3138 0.9307
-0.5615 -18.1120 -1.3287 0.9299
1.0337 -17.7945 -1.3069 0.9310
2.6047 -17.5864 -1.3035 0.9312
6.7057 -15.2573 -1.2220 0.9353
7.8732 -14.3059 -1.1973 0.9366
3.5201 10.4800 -0.8106 0.9566
1.5584 10.5972 -0.7854 0.9579
0.6768 11.8619 -0.8712 0.9535
-0.3799 11.8592 -0.8700 0.9535
-2.3529 11.0362 -0.8274 0.9558
-3.6263 11.7616 -0.9024 0.9518
-6.0425 11.6890 -0.9648 0.9486
-12.8745 13.9827 -1.3936 0.9266
-12.5232 -15.1388 -1.8862 0.9241
-7.9751 -17.6649 -1.8607 0.9251
-6.1385 -17.6301 -1.7922 0.9277
-4.4158 -17.5841 -1.7406 0.9297
0.3669 -17.4565 -1.6763 0.9322
3.5044 -17.3728 -1.7015 0.9313
5.1508 -17.3835 -1.7406 0.9297
7.2346 -14.3811 -1.5455 0.9374
10.0023 -16.1285 -1.8220 0.9266
13.6367 13.0824 -1.8142 0.9269
8.9169 12.2786 -1.4569 0.9408
7.7016 12.8748 -1.4403 0.9415
3.9624 10.4932 -1.0768 0.9559
2.9184 10.4619 -1.0427 0.9573
0.0536 10.7478 -1.0319 0.9577
-2.0640 11.8085 -1.1509 0.9530
-3.1586 11.7756 -1.1705 0.9522
-5.5118 11.7049 -1.2421 0.9493
-13.6955 13.4037 -1.8398 0.9259
-11.8458 -15.4501 -1.8691 0.9247
-10.4081 -16.4148 -1.8660 0.9249
-8.8920 -17.2448 -1.8627 0.9250
-3.7261 -17.5657 -1.7239 0.9304
-2.1131 -17.5227 -1.6944 0.9315
-0.5420 -17.4808 -1.6790 0.9321
4.1746 -17.3549 -1.7137 0.9308
5.6417 -16.7394 -1.6959 0.9315
6.7093 -15.2656 -1.6009 0.9352
7.8756 -14.3103 -1.5682 0.9365
4.6597 6.9430 -0.8028 0.9670
7.2125 13.1375 -1.4388 0.9416
5.7384 13.0932 -1.3724 0.9442
3.5201 10.4800 -1.0614 0.9565
0.6039 10.5843 -1.0178 0.9583
-1.4386 11.8273 -1.1439 0.9533
-2.3486 11.0161 -1.0814 0.9557
-4.4586 7.0158 -0.7981 0.9671
-10.8345 -13.0974 -2.0191 0.9338
-1.8847 -4.1747 -0.5441 0.9817
-5.2011 -14.9378 -1.8789 0.9383
-1.0559 -15.5032 -1.8458 0.9393
0.3260 -15.5106 -1.8429 0.9394
1.7008 -15.3955 -1.8399 0.9395
7.2380 -14.3877 -1.9131 0.9372
13.0893 -10.1506 -1.9676 0.9355
13.9271 -8.9386 -1.9658 0.9355
16.3746 -2.0661 -1.9605 0.9357
16.4799 0.8663 -1.9603 0.9357
16.3401 2.3283 -1.9606 0.9357
16.0732 3.7728 -1.9612 0.9357
14.5325 7.8940 -1.9645 0.9356
11.9417 9.5709 -1.8179 0.9402
10.0802 11.5599 -1.8219 0.9401
8.9169 12.2785 -1.8026 0.9407
7.7019 12.8752 -1.7821 0.9414
6.3346 13.1111 -1.7297 0.9430
3.9624 10.4932 -1.3324 0.9558
0.9991 10.5962 -1.2643 0.9580
-0.9323 11.0687 -1.3195 0.9562
-2.0640 11.8085 -1.4240 0.9529
-5.5118 11.7049 -1.5368 0.9492
-4.7999 6.7501 -0.9839 0.9672
-11.2378 10.9985 -1.8678 0.9386
-12.1844 9.9667 -1.8699 0.9386
-13.0349 8.8528 -1.8717 0.9385
-16.6106 4.0743 -2.0316 0.9334
-17.0780 1.0688 -2.0326 0.9334
-16.9958 -1.9724 -2.0324 0.9334
-14.4516 -9.0729 -2.0269 0.9336
-13.5751 -10.3121 -2.0250 0.9336
-10.3369 -13.4822 -2.0180 0.9339
-1.9060 -3.6963 -0.4940 0.9834
-6.0961 -14.9552 -1.9184 0.9370
-4.5863 -14.9299 -1.8553 0.9390
-3.2327 -15.2396 -1.8505 0.9392
3.6144 -15.0258 -1.8358 0.9396
6.4227 -14.6134 -1.8961 0.9377
10.4600 -12.9048 -1.9732 0.9353
13.4506 -9.6555 -1.9668 0.9355
14.9239 -7.1094 -1.9636 0.9356
16.4387 -1.4587 -1.9604 0.9357
15.9252 4.3657 -1.9615 0.9356
15.4816 5.7670 -1.9624 0.9356
14.9169 7.1249 -1.9637 0.9356
14.2351 8.4291 -1.9651 0.9355
12.4161 8.9322 -1.8169 0.9402
11.5843 10.0105 -1.8186 0.9402
10.6602 11.0127 -1.8206 0.9401
2.5484 10.6427 -1.2999 0.9569
-0.1578 4.9266 -0.5855 0.9803
-1.3873 11.4054 -1.3648 0.9548
-2.3511 11.0276 -1.3394 0.9556
-3.6263 11.7615 -1.4620 0.9516
-4.4724 7.0374 -0.9905 0.9670
-9.5619 12.4447 -1.8642 0.9387
-11.6425 10.5800 -1.8687 0.9386
-12.5501 9.5131 -1.8707 0.9385
-15.8605 6.3635 -2.0300 0.9335
-16.3722 4.9310 -2.0311 0.9334
-2.6345 -3.1847 -0.5856 0.9834
-2.1844 -3.1785 -0.5465 0.9845
-2.2079 -13.9454 -2.0005 0.9446
0.2958 -14.0779 -1.9951 0.9447
2.7768 -13.7660 -1.9898 0.9448
5.1575 -13.0230 -1.9846 0.9450
7.3646 -11.8753 -1.9799 0.9451
9.3312 -10.3611 -1.9757 0.9452
10.2057 -9.4815 -1.9738 0.9453
10.9986 -8.5293 -1.9721 0.9453
11.7043 -7.5120 -1.9706 0.9454
12.3175 -6.4374 -1.9692 0.9454
13.2494 -4.1501 -1.9672 0.9455
13.8558 0.7284 -1.9659 0.9455
13.7380 1.9575 -1.9662 0.9455
13.1823 4.3622 -1.9674 0.9454
12.7484 5.5194 -1.9683 0.9454
10.7007 7.1125 -1.8205 0.9494
10.0340 8.0420 -1.8220 0.9494
7.5781 10.4350 -1.8273 0.9492
5.6233 11.6389 -1.8315 0.9491
4.2721 11.3135 -1.7135 0.9523
0.9991 10.5961 -1.5080 0.9579
-2.9493 10.9955 -1.6130 0.9551
-8.5376 9.9904 -1.8620 0.9483
-9.4013 9.2011 -1.8639 0.9482
-10.1913 8.3365 -1.8656 0.9482
-10.9010 7.4035 -1.8671 0.9482
-11.5243 6.4097 -1.8684 0.9481
-13.0512 5.8059 -2.0239 0.9439
-13.8853 3.4058 -2.0257 0.9439
-14.2749 0.8933 -2.0266 0.9439
-14.2981 -0.3792 -2.0266 0.9439
-14.2064 -1.6487 -2.0264 0.9439
-13.2543 -5.3337 -2.0243 0.9439
-12.7204 -6.4872 -2.0232 0.9439
-10.5330 -9.5916 -2.0185 0.9441
-2.4417 -3.1846 -0.5686 0.9839
-2.0108 -3.1713 -0.5321 0.9849
-1.7158 -3.3276 -0.5305 0.9850
-1.4515 -3.5609 -0.5449 0.9846
-2.9321 -13.8225 -2.0021 0.9445
-1.6894 -14.0097 -1.9994 0.9446
-0.4367 -14.0854 -1.9967 0.9447
0.8161 -14.0494 -1.9940 0.9447
2.0591 -13.9025 -1.9913 0.9448
4.4769 -13.2833 -1.9861 0.9449
5.6330 -12.8166 -1.9836 0.9450
10.5456 -9.0940 -1.9730 0.9453
11.9708 -7.0717 -1.9700 0.9454
12.5442 -5.9757 -1.9687 0.9454
13.6574 2.4648 -1.9664 0.9455
13.3882 3.6702 -1.9669 0.9455
13.0142 4.8479 -1.9678 0.9454
11.0514 6.5439 -1.8198 0.9494
10.4335 7.5060 -1.8211 0.9494
8.9550 9.2512 -1.8243 0.9493
4.6711 6.9599 -1.1877 0.9667
6.2164 11.3229 -1.8302 0.9492
4.0753 12.1330 -1.8135 0.9496
1.5607 10.6130 -1.5199 0.9576
0.6039 10.5843 -1.5021 0.9581
-0.1577 4.9222 -0.6978 0.9803
-2.3541 11.0417 -1.5996 0.9554
-3.6263 11.7615 -1.7439 0.9515
-6.0171 11.6399 -1.8566 0.9484
-8.0018 10.4143 -1.8609 0.9483
-8.9052 9.6718 -1.8628 0.9483
-9.7391 8.8503 -1.8646 0.9482
-10.4965 7.9564 -1.8662 0.9482
-12.7268 6.4739 -2.0231 0.9439
-1.7123 -3.0390 -0.5746 0.9860
-1.1812 -3.3925 -0.5918 0.9855
-1.8983 -11.9902 -1.9999 0.9520
0.2545 -12.1087 -1.9952 0.9521
1.3284 -12.0242 -1.9929 0.9521
3.4290 -11.5725 -1.9884 0.9522
4.4393 -11.2096 -1.9862 0.9523
5.4126 -10.7592 -1.9841 0.9523
7.2182 -9.6117 -1.9802 0.9524
8.0370 -8.9240 -1.9785 0.9525
8.7913 -8.1675 -1.9768 0.9525
10.0845 -6.4724 -1.9740 0.9526
10.6139 -5.5470 -1.9729 0.9526
11.4184 -3.5766 -1.9712 0.9527
11.6877 -2.5466 -1.9706 0.9527
11.9422 0.6278 -1.9701 0.9527
11.6460 2.7336 -1.9707 0.9527
10.9858 4.7563 -1.9721 0.9526
10.4915 5.6989 -1.9669 0.9528
9.2196 6.1281 -1.8237 0.9561
8.6442 6.9281 -1.8250 0.9561
8.0002 7.6750 -1.8264 0.9561
6.5259 8.9861 -1.8295 0.9560
2.9965 10.7418 -1.8372 0.9558
1.9759 10.6751 -1.7885 0.9569
0.9991 10.5961 -1.7533 0.9578
0.0558 11.1902 -1.8435 0.9556
-0.9344 11.0936 -1.8340 0.9559
-2.9092 10.8458 -1.8499 0.9555
-4.7944 10.1815 -1.8539 0.9554
-4.7832 6.7266 -1.3597 0.9671
-8.0735 7.9015 -1.8610 0.9552
-9.3591 6.3563 -1.8638 0.9552
-9.8932 5.5025 -1.8649 0.9551
-11.2030 4.9837 -2.0199 0.9515
-12.1330 1.8525 -2.0219 0.9515
-12.2711 -0.3255 -2.0222 0.9515
-12.1925 -1.4150 -2.0221 0.9515
-12.0162 -2.4928 -2.0217 0.9515
-11.3770 -4.5783 -2.0203 0.9515
-10.9197 -5.5688 -2.0193 0.9515
-9.7486 -7.4053 -2.0168 0.9516
-2.2931 -2.9909 -0.6209 0.9848
-1.9034 -3.0018 -0.5855 0.9857
-1.3338 -3.2721 -0.5821 0.9858
-0.3756 -12.1138 -1.9966 0.9521
1.7716 -11.9611 -1.9919 0.9522
6.7125 -9.9794 -1.9813 0.9524
8.3588 -8.6175 -1.9778 0.9525
10.3145 -6.0933 -1.9736 0.9526
10.8095 -5.1494 -1.9725 0.9526
11.2195 -4.1662 -1.9716 0.9526
11.5414 -3.1512 -1.9709 0.9527
11.7729 -2.1122 -1.9704 0.9527
11.9122 -1.0570 -1.9701 0.9527
11.9584 0.0062 -1.9700 0.9527
11.9112 1.0693 -1.9701 0.9527
11.7708 2.1243 -1.9704 0.9527
9.5223 5.6385 -1.8231 0.9561
6.9804 8.6301 -1.8286 0.9560
4.6853 6.9811 -1.3851 0.9665
4.4688 10.1963 -1.8340 0.9559
3.5485 10.5647 -1.8360 0.9558
0.6039 10.5842 -1.7465 0.9579
-2.3399 10.9751 -1.8487 0.9555
-3.3100 10.7357 -1.8507 0.9555
-4.2560 10.4104 -1.8528 0.9554
-5.1701 10.0014 -1.8548 0.9554
-6.0449 9.5119 -1.8566 0.9553
-6.8732 8.9454 -1.8584 0.9553
-7.6481 8.3064 -1.8601 0.9553
-8.3631 7.5999 -1.8616 0.9552
-11.3819 4.5666 -2.0203 0.9515
-2.0254 -2.9472 -0.6722 0.9856
-1.3624 -3.0177 -0.6223 0.9866
-1.1259 -3.2336 -0.6436 0.9862
-1.6634 -10.5062 -1.9994 0.9576
0.2230 -10.6131 -1.9953 0.9577
2.0948 -10.3848 -1.9913 0.9578
3.0067 -10.1475 -1.9893 0.9578
3.8932 -9.8305 -1.9874 0.9579
7.0516 -7.8299 -1.9806 0.9580
8.3153 -6.4485 -1.9779 0.9581
8.8505 -5.6804 -1.9767 0.9581
9.7075 -4.0195 -1.9749 0.9581
10.0230 -3.1395 -1.9742 0.9582
10.4161 -1.3143 -1.9733 0.9582
10.4835 0.5511 -1.9732 0.9582
10.3940 1.4810 -1.9734 0.9582
10.2231 2.3996 -1.9738 0.9582
9.6427 4.1748 -1.9750 0.9581
8.0914 5.3781 -1.8262 0.9612
7.5858 6.0798 -1.8273 0.9612
4.8665 6.7012 -1.5567 0.9669
4.1984 7.0185 -1.5372 0.9673
3.4510 9.1391 -1.8362 0.9610
2.6274 9.4187 -1.8379 0.9610
0.9197 9.7547 -1.8416 0.9609
0.0489 9.8078 -1.8435 0.9609
-0.8240 9.7833 -1.8454 0.9608
-1.6922 9.6811 -1.8473 0.9608
-2.5487 9.5018 -1.8491 0.9608
-3.3866 9.2467 -1.8509 0.9607
-4.2023 7.1868 -1.5648 0.9667
-5.4293 6.3532 -1.5708 0.9666
-8.1917 5.5635 -1.8613 0.9605
-8.6586 4.8158 -1.8623 0.9605
-9.8042 4.3615 -2.0169 0.9573
-10.4286 2.5579 -2.0183 0.9572
-10.7201 0.6709 -2.0189 0.9572
-10.7375 -0.2848 -2.0189 0.9572
-10.2766 -3.1067 -2.0179 0.9572
-9.9563 -4.0065 -2.0172 0.9573
-3.2830 -2.9896 -0.8346 0.9821
-1.2576 -3.0852 -0.6262 0.9865
-0.8432 -3.9748 -0.7637 0.9836
-1.2730 -10.5561 -1.9985 0.9576
-0.3291 -10.6167 -1.9965 0.9577
1.5531 -10.4858 -1.9924 0.9578
2.4766 -10.2959 -1.9904 0.9578
3.3788 -10.0252 -1.9885 0.9579
5.0913 -9.2512 -1.9848 0.9579
5.8885 -8.7544 -1.9831 0.9580
7.9719 -6.8746 -1.9786 0.9581
9.0527 -5.3478 -1.9763 0.9581
9.4878 -4.5197 -1.9753 0.9581
10.1311 -2.7661 -1.9740 0.9582
10.1284 2.7766 -1.9740 0.9582
9.8445 3.6671 -1.9746 0.9581
7.8887 5.6752 -1.8266 0.9612
7.3576 6.3580 -1.8277 0.9612
4.1793 7.6125 -1.6323 0.9653
3.9192 8.9424 -1.8352 0.9610
2.2780 9.5134 -1.8387 0.9610
1.4247 9.6880 -1.8405 0.9609
0.5584 9.7862 -1.8424 0.9609
-1.1859 9.7502 -1.8462 0.9608
-2.0501 9.6159 -1.8480 0.9608
-2.8997 9.4049 -1.8499 0.9607
-4.5280 8.7593 -1.8534 0.9607
-4.1904 6.5937 -1.4685 0.9687
-4.8900 6.3643 -1.5086 0.9679
-7.8887 5.9797 -1.8606 0.9605
-8.3940 5.2578 -1.8617 0.9605
-9.9606 3.9963 -2.0173 0.9573
-10.2799 3.0961 -2.0180 0.9572
-2.3837 -2.8816 -0.7905 0.9848
-1.9946 -2.9024 -0.7444 0.9857
-1.3225 -2.9294 -0.6794 0.9869
-1.4788 -9.3404 -1.9990 0.9621
-0.6420 -9.4264 -1.9972 0.9621
1.0356 -9.3740 -1.9935 0.9622
4.2238 -8.3960 -1.9867 0.9623
4.9495 -7.9810 -1.9851 0.9623
5.6352 -7.5038 -1.9836 0.9624
6.2756 -6.9683 -1.9823 0.9624
6.8659 -6.3787 -1.9810 0.9624
7.4014 -5.7397 -1.9798 0.9624
7.8783 -5.0564 -1.9788 0.9625
8.2929 -4.3341 -1.9779 0.9625
8.6421 -3.5783 -1.9772 0.9625
8.9232 -2.7950 -1.9766 0.9625
9.1343 -1.9902 -1.9761 0.9625
9.2736 -1.1701 -1.9758 0.9625
9.3403 -0.3411 -1.9757 0.9625
8.8778 2.9378 -1.9767 0.9625
8.2064 4.4577 -1.9741 0.9625
7.2025 4.7873 -1.8281 0.9653
5.6940 6.5298 -1.8313 0.9652
3.7775 7.8185 -1.8355 0.9651
3.0700 8.1301 -1.8370 0.9651
2.3371 8.3781 -1.8386 0.9651
1.5845 8.5602 -1.8402 0.9650
0.8179 8.6750 -1.8418 0.9650
-0.7326 8.6985 -1.8452 0.9649
-3.0101 8.2186 -1.8501 0.9648
-3.7319 7.9251 -1.8517 0.9648
-4.1628 7.1192 -1.7432 0.9668
-6.8046 5.5661 -1.8583 0.9647
-7.2764 4.9419 -1.8593 0.9647
-8.7078 3.8737 -2.0146 0.9618
-9.0207 3.0853 -2.0152 0.9618
-9.2616 2.2717 -2.0158 0.9618
-9.5202 0.5958 -2.0163 0.9618
-9.5356 -0.2529 -2.0163 0.9618
-9.4747 -1.0996 -2.0162 0.9618
-9.3381 -1.9372 -2.0159 0.9618
-9.1268 -2.7591 -2.0155 0.9618
-8.4881 -4.3288 -2.0141 0.9618
-3.1673 -2.8842 -0.9055 0.9826
-2.2165 -2.8909 -0.7700 0.9852
-1.5073 -2.9231 -0.6952 0.9866
-1.2121 -2.9737 -0.6788 0.9870
-0.9829 -3.1998 -0.7076 0.9864
1.3813 -9.3258 -1.9928 0.9622
2.2029 -9.1580 -1.9910 0.9622
5.9073 -7.2880 -1.9830 0.9624
7.0954 -6.1188 -1.9805 0.9624
8.0584 -4.7605 -1.9784 0.9625
8.7674 -3.2556 -1.9769 0.9625
9.3102 -0.8261 -1.9757 0.9625
9.3464 0.0048 -1.9757 0.9625
9.3094 0.8357 -1.9757 0.9625
8.7641 3.2647 -1.9769 0.9625
7.6867 4.5515 -1.8883 0.9641
6.5486 5.6590 -1.8295 0.9652
6.0234 6.2226 -1.8306 0.9652
5.3881 6.6614 -1.8111 0.9656
4.4892 6.6889 -1.7028 0.9676
4.1351 7.5319 -1.8163 0.9655
0.4965 8.7026 -1.8425 0.9650
-1.0544 8.6686 -1.8459 0.9649
-1.8225 8.5482 -1.8475 0.9649
-4.0240 7.7842 -1.8523 0.9648
-4.8900 6.3643 -1.6965 0.9677
-1.9645 -2.8586 -0.8152 0.9858
0.1784 -8.4883 -1.9954 0.9657
0.9315 -8.4320 -1.9938 0.9657
1.6761 -8.3091 -1.9922 0.9658
2.4062 -8.1208 -1.9906 0.9658
4.4540 -7.1820 -1.9862 0.9659
5.6482 -6.2716 -1.9836 0.9659
6.1798 -5.7413 -1.9825 0.9659
6.6622 -5.1665 -1.9814 0.9660
7.4654 -3.9016 -1.9797 0.9660
7.7800 -3.2214 -1.9790 0.9660
8.3491 -1.0535 -1.9778 0.9660
8.4032 0.4417 -1.9777 0.9660
8.1941 1.9234 -1.9781 0.9660
7.9924 2.6448 -1.9786 0.9660
7.7279 3.3458 -1.9791 0.9660
7.4020 4.0207 -1.9797 0.9660
5.6234 5.3948 -1.8315 0.9685
5.1246 5.8768 -1.8326 0.9685
4.5848 6.3132 -1.8337 0.9684
3.3990 7.0351 -1.8363 0.9684
2.1026 7.5373 -1.8391 0.9684
1.4253 7.7005 -1.8405 0.9683
0.0391 7.8439 -1.8435 0.9683
-0.6589 7.8227 -1.8450 0.9683
-1.3528 7.7394 -1.8465 0.9682
-2.7063 7.3892 -1.8494 0.9682
-3.3550 7.1247 -1.8508 0.9682
-5.1267 5.9992 -1.8547 0.9681
-6.1151 5.0022 -1.8568 0.9681
-7.4281 4.1314 -1.9976 0.9657
-8.3215 2.0411 -2.0137 0.9654
-8.4714 1.2935 -2.0141 0.9654
-8.5536 0.5353 -2.0142 0.9654
-8.5128 -0.9879 -2.0141 0.9654
-8.2005 -2.4791 -2.0135 0.9654
-7.9455 -3.1974 -2.0129 0.9654
-3.7217 -2.8271 -1.0984 0.9810
-3.1216 -2.8426 -0.9922 0.9828
-2.6557 -2.8902 -0.9225 0.9840
-1.4860 -2.8818 -0.7620 0.9868
-1.1788 -2.8920 -0.7340 0.9872
-0.4914 -4.0752 -0.9647 0.9833
0.4922 -8.4730 -1.9947 0.9657
1.2425 -8.3889 -1.9931 0.9658
2.7042 -8.0236 -1.9899 0.9658
3.4042 -7.7455 -1.9884 0.9658
4.0763 -7.4069 -1.9870 0.9659
4.7154 -7.0103 -1.9856 0.9659
6.8475 -4.9154 -1.9810 0.9660
7.8929 -2.9309 -1.9788 0.9660
8.2837 -1.4862 -1.9779 0.9660
8.3821 -0.7438 -1.9777 0.9660
8.3814 0.7524 -1.9777 0.9660
7.8899 2.9391 -1.9788 0.9660
7.5998 3.6300 -1.9794 0.9660
6.3207 4.5471 -1.8300 0.9685
5.8944 5.0936 -1.8309 0.9685
3.1373 7.1583 -1.8368 0.9684
2.4904 7.4145 -1.8382 0.9684
1.1398 7.7506 -1.8412 0.9683
0.4466 7.8275 -1.8426 0.9683
-0.1551 4.8430 -1.1388 0.9803
-1.6388 7.6866 -1.8471 0.9682
-2.3175 7.5165 -1.8486 0.9682
-2.9788 7.2863 -1.8500 0.9682
-3.6174 6.9978 -1.8514 0.9681
-5.3466 5.8068 -1.8551 0.9681
-5.8450 5.3116 -1.8562 0.9681
-6.2974 4.7735 -1.8572 0.9681
-7.6207 3.8765 -2.0095 0.9655
-7.9489 3.1892 -2.0129 0.9654
-8.2032 2.4706 -2.0135 0.9654
-2.3340 -2.8215 -0.9481 0.9850
-1.5974 -2.8352 -0.8426 0.9866
-1.0062 -2.8899 -0.7923 0.9874
0.0811 -3.8616 -1.0001 0.9842
3.4512 -6.8603 -1.9883 0.9688
4.0448 -6.5221 -1.9871 0.9688
4.5929 -6.1159 -1.9803 0.9689
6.7815 -3.5441 -1.9812 0.9689
7.5849 -0.9571 -1.9794 0.9689
7.6341 0.4013 -1.9793 0.9689
7.5688 1.0785 -1.9795 0.9689
7.4439 1.7473 -1.9798 0.9689
7.0201 3.0394 -1.9807 0.9689
5.5203 4.4243 -1.8317 0.9712
4.1637 5.7334 -1.8346 0.9711
3.6398 6.0846 -1.8358 0.9711
2.5080 6.6418 -1.8382 0.9711
1.9090 6.8433 -1.8395 0.9711
0.0355 7.1200 -1.8435 0.9710
-0.5980 7.1003 -1.8449 0.9710
-1.2278 7.0241 -1.8463 0.9710
-1.8487 6.8922 -1.8476 0.9709
-2.4558 6.7053 -1.8489 0.9709
-3.0443 6.4648 -1.8502 0.9709
-3.6093 6.1727 -1.8514 0.9709
-4.1464 5.8310 -1.8525 0.9709
-4.6510 5.4425 -1.8536 0.9709
-5.9312 4.0282 -1.8564 0.9708
-7.3513 2.5143 -2.0116 0.9684
-7.7701 -0.2061 -2.0125 0.9684
-7.7206 -0.8960 -2.0124 0.9684
-7.6095 -1.5786 -2.0122 0.9684
-7.2066 -2.9000 -2.0113 0.9684
-6.9181 -3.5281 -2.0107 0.9684
-3.6852 -2.7994 -1.1982 0.9811
-1.7908 -2.8242 -0.8659 0.9863
-0.1175 -3.7909 -0.9820 0.9845
0.2273 -3.9125 -1.0147 0.9839
1.1280 -7.6157 -1.9933 0.9687
2.4553 -7.2851 -1.9905 0.9687
3.7016 -6.7260 -1.9878 0.9688
4.2822 -6.3663 -1.9866 0.9688
4.8284 -5.9569 -1.9854 0.9688
5.8009 -5.0024 -1.9833 0.9688
6.2198 -4.4648 -1.9824 0.9689
6.5894 -3.8927 -1.9816 0.9689
6.9070 -3.2903 -1.9809 0.9689
7.1701 -2.6625 -1.9803 0.9689
7.3768 -2.0141 -1.9799 0.9689
7.5254 -1.3501 -1.9796 0.9689
7.6142 0.6835 -1.9794 0.9689
7.3748 2.0217 -1.9799 0.9689
6.9037 3.2975 -1.9809 0.9689
5.9913 4.3102 -1.9110 0.9700
4.9238 5.0867 -1.8330 0.9712
4.4546 5.5073 -1.8340 0.9712
3.9497 5.8850 -1.8351 0.9711
3.4130 6.2167 -1.8362 0.9711
2.8487 6.4998 -1.8375 0.9711
1.6549 6.9113 -1.8400 0.9711
-0.1538 4.8021 -1.2440 0.9803
-0.8606 7.0754 -1.8455 0.9710
-1.4873 6.9760 -1.8468 0.9710
-2.7030 6.6117 -1.8494 0.9709
-4.8504 5.2679 -1.8541 0.9708
-5.3023 4.8184 -1.8550 0.9708
-5.7123 4.3300 -1.8559 0.9708
-6.3975 4.0072 -1.9545 0.9693
-6.9218 3.5210 -2.0107 0.9684
-7.4400 2.2408 -2.0118 0.9684
-2.3124 -2.7954 -1.0270 0.9850
-1.9060 -2.7734 -0.9526 0.9861
-1.2709 -2.8150 -0.8743 0.9872
-0.9853 -2.8299 -0.8483 0.9876
-0.7567 -3.0131 -0.8795 0.9872
-0.5184 -3.2743 -0.9385 0.9863
-0.2332 -3.4241 -0.9716 0.9858
0.0738 -3.5111 -0.9942 0.9855
1.3919 -6.9003 -1.9928 0.9712
1.9985 -6.7448 -1.9915 0.9712
3.1574 -6.2764 -1.9890 0.9712
3.7007 -5.9674 -1.9878 0.9712
4.6940 -5.2120 -1.9857 0.9713
5.5377 -4.2944 -1.9838 0.9713
5.8953 -3.7837 -1.9831 0.9713
6.6791 -2.0921 -1.9814 0.9713
6.9921 -0.2553 -1.9807 0.9713
6.9871 0.3673 -1.9807 0.9713
6.6450 2.1989 -1.9815 0.9713
5.8326 3.8768 -1.9826 0.9713
5.3463 4.2849 -1.9396 0.9719
4.6738 4.4838 -1.8335 0.9734
4.2587 4.8839 -1.8344 0.9734
3.8097 5.2459 -1.8354 0.9734
3.3302 5.5670 -1.8364 0.9734
2.8237 5.8445 -1.8375 0.9734
1.7463 6.2601 -1.8398 0.9733
-1.1228 6.4235 -1.8460 0.9733
-1.6905 6.3024 -1.8472 0.9732
-2.2455 6.1312 -1.8484 0.9732
-2.7835 5.9110 -1.8496 0.9732
-3.2999 5.6435 -1.8507 0.9732
-4.6797 4.5800 -1.8537 0.9731
-5.0706 4.1477 -1.8545 0.9731
-6.2024 3.4497 -2.0092 0.9709
-6.4865 2.8855 -2.0098 0.9709
-7.0220 1.0722 -2.0109 0.9709
-7.1015 -0.1884 -2.0111 0.9709
-6.5868 -2.6506 -2.0100 0.9709
-6.3233 -3.2248 -2.0094 0.9709
-6.0095 -3.7728 -2.0087 0.9709
-2.1239 -2.7701 -0.9882 0.9856
-1.4464 -2.8051 -0.8935 0.9870
-1.1482 -2.8168 -0.8611 0.9874
-0.8866 -2.8862 -0.8548 0.9875
-0.4061 -3.3678 -0.9603 0.9860
0.2067 -3.5591 -1.0093 0.9853
0.5770 -3.8960 -1.1150 0.9838
1.6458 -6.8422 -1.9922 0.9712
2.2461 -6.6645 -1.9909 0.9712
2.8279 -6.4344 -1.9897 0.9712
6.0304 -3.5624 -1.9828 0.9713
6.7514 -1.8434 -1.9812 0.9713
6.9695 -0.6184 -1.9808 0.9713
6.9689 0.6256 -1.9808 0.9713
6.5597 2.4435 -1.9817 0.9713
6.0268 3.5687 -1.9828 0.9713
5.6759 4.0833 -1.9794 0.9714
4.9643 4.2899 -1.8574 0.9731
4.5056 4.6546 -1.8339 0.9734
3.6138 5.3846 -1.8358 0.9734
3.1226 5.6878 -1.8369 0.9734
1.5139 6.3221 -1.8403 0.9733
0.3708 6.4990 -1.8428 0.9733
-0.1535 4.7935 -1.3577 0.9803
-3.5073 5.5189 -1.8512 0.9732
-3.9863 5.1881 -1.8522 0.9732
-4.4340 4.8157 -1.8532 0.9732
-4.8469 4.4046 -1.8540 0.9731
-1.8781 -2.7328 -1.0199 0.9862
-1.2540 -2.7776 -0.9374 0.9873
-0.2162 -3.1739 -0.9785 0.9868
0.0684 -3.2531 -1.0008 0.9865
0.3715 -3.3627 -1.0406 0.9859
2.3830 -6.0173 -1.9906 0.9733
2.9069 -5.7783 -1.9895 0.9733
3.8802 -5.1668 -1.9874 0.9733
4.3220 -4.7991 -1.9865 0.9733
5.7152 -2.9869 -1.9835 0.9734
5.9566 -2.4664 -1.9830 0.9734
6.1509 -1.9267 -1.9825 0.9734
6.3932 -0.8067 -1.9820 0.9734
6.3796 0.9090 -1.9820 0.9734
6.2742 1.4727 -1.9823 0.9734
5.6670 3.0783 -1.9836 0.9734
5.0267 4.0288 -1.9814 0.9734
3.5077 4.8300 -1.8360 0.9753
3.0660 5.1254 -1.8370 0.9753
2.5996 5.3806 -1.8380 0.9753
2.1122 5.5936 -1.8391 0.9753
1.6075 5.7626 -1.8401 0.9753
1.0895 5.8863 -1.8413 0.9753
0.5623 5.9635 -1.8424 0.9752
-0.5034 5.9763 -1.8447 0.9752
-2.0663 5.6419 -1.8481 0.9752
-2.5612 5.4390 -1.8491 0.9752
-3.0363 5.1926 -1.8501 0.9751
-3.9118 4.5775 -1.8520 0.9751
-4.9004 4.0085 -1.9473 0.9739
-5.3933 3.6629 -2.0053 0.9731
-6.3451 1.5563 -2.0095 0.9730
-6.5217 0.4081 -2.0098 0.9730
-6.4906 -0.7532 -2.0098 0.9730
-6.3973 -1.3272 -2.0096 0.9730
-5.5283 -3.4707 -2.0077 0.9731
-2.1049 -2.7454 -1.0640 0.9856
-1.7401 -2.7443 -0.9995 0.9865
-0.8631 -2.8095 -0.9040 0.9878
-0.6378 -3.0069 -0.9454 0.9872
-0.0997 -3.2155 -0.9895 0.9866
0.5195 -3.5079 -1.0907 0.9853
2.0677 -6.1351 -1.9913 0.9733
2.6034 -5.9236 -1.9902 0.9733
3.1180 -5.6655 -1.9891 0.9733
3.6074 -5.3631 -1.9880 0.9733
4.0679 -5.0186 -1.9870 0.9733
4.4958 -4.6350 -1.9861 0.9733
5.2414 -3.7625 -1.9845 0.9734
5.5532 -3.2805 -1.9838 0.9734
5.8211 -2.7731 -1.9832 0.9734
6.0432 -2.2440 -1.9828 0.9734
6.2176 -1.6976 -1.9824 0.9734
6.4185 -0.5696 -1.9820 0.9734
6.4179 0.5761 -1.9820 0.9734
6.3419 1.1445 -1.9821 0.9734
6.0409 2.2503 -1.9828 0.9734
5.5499 3.2863 -1.9838 0.9734
4.8675 4.2062 -1.9787 0.9734
4.1486 4.2858 -1.8347 0.9753
3.7529 4.6398 -1.8355 0.9753
2.8749 5.2365 -1.8374 0.9753
1.3935 5.8196 -1.8406 0.9753
0.8712 5.9241 -1.8417 0.9753
-0.1533 4.7848 -1.4725 0.9802
-0.7243 5.9551 -1.8452 0.9752
-1.7697 5.7397 -1.8474 0.9752
-3.6676 4.7733 -1.8515 0.9751
-5.8198 2.9605 -2.0083 0.9730
-6.2550 1.8839 -2.0093 0.9730
-2.2696 -2.7437 -1.1836 0.9851
-1.8730 -2.7254 -1.0992 0.9862
-1.5331 -2.7212 -1.0382 0.9869
-0.9628 -2.7652 -0.9733 0.9877
-0.7100 -2.8273 -0.9690 0.9878
-0.4614 -2.9142 -0.9807 0.9876
0.6828 -3.3849 -1.1478 0.9855
1.7026 -5.7461 -1.9921 0.9751
2.2055 -5.5689 -1.9910 0.9751
3.5915 -4.7824 -1.9880 0.9751
4.0006 -4.4422 -1.9872 0.9751
4.3779 -4.0673 -1.9863 0.9751
5.5143 -2.2832 -1.9839 0.9752
5.9188 -0.7468 -1.9830 0.9752
5.9615 -0.2177 -1.9829 0.9752
5.9572 0.3132 -1.9830 0.9752
5.8086 1.3634 -1.9833 0.9752
5.2461 2.8497 -1.9845 0.9751
4.6615 3.7360 -1.9858 0.9751
4.3006 4.1258 -1.9810 0.9752
3.7084 4.2528 -1.8756 0.9765
3.2467 4.4706 -1.8366 0.9770
2.4060 4.9799 -1.8384 0.9770
1.9548 5.1768 -1.8394 0.9769
0.5203 5.5184 -1.8425 0.9769
0.0277 5.5460 -1.8435 0.9769
-0.9560 5.4695 -1.8457 0.9769
-1.9117 5.2196 -1.8477 0.9768
-2.3694 5.0316 -1.8487 0.9768
-2.8087 4.8035 -1.8497 0.9768
-3.2262 4.5370 -1.8506 0.9768
-4.1227 4.0349 -1.9175 0.9760
-4.6606 3.8124 -2.0015 0.9749
-5.2770 2.9350 -2.0072 0.9749
-5.5185 2.4549 -2.0077 0.9749
-5.7161 1.9550 -2.0081 0.9749
-5.8682 1.4394 -2.0084 0.9749
-6.0314 0.3774 -2.0088 0.9748
-6.0411 -0.1602 -2.0088 0.9748
-6.0027 -0.6966 -2.0087 0.9748
-5.9165 -1.2274 -2.0085 0.9749
-5.7831 -1.7483 -2.0083 0.9749
-5.6037 -2.2550 -2.0079 0.9749
-5.3797 -2.7436 -2.0074 0.9749
-3.6488 -2.7717 -1.5231 0.9809
-2.9605 -2.6959 -1.3310 0.9833
-2.5528 -2.7783 -1.2542 0.9842
-2.0905 -2.7266 -1.1421 0.9856
-1.7202 -2.7130 -1.0678 0.9866
-1.4080 -2.7307 -1.0213 0.9871
-1.1210 -2.7502 -0.9872 0.9876
-0.8532 -2.7774 -0.9658 0.9878
-0.6080 -2.8661 -0.9739 0.9877
0.4787 -3.2324 -1.0862 0.9863
2.8859 -5.2437 -1.9896 0.9751
3.3389 -4.9639 -1.9886 0.9751
4.5247 -3.9019 -1.9860 0.9751
5.5945 -2.0775 -1.9837 0.9752
5.7561 -1.5716 -1.9834 0.9752
5.8723 -1.0535 -1.9831 0.9752
5.9417 0.5334 -1.9830 0.9752
5.5924 2.0832 -1.9837 0.9752
5.3863 2.5727 -1.9842 0.9752
5.1377 3.0422 -1.9847 0.9751
4.8484 3.4880 -1.9854 0.9751
4.5170 3.9033 -1.9844 0.9751
4.1111 4.2471 -1.9648 0.9754
2.6608 4.8466 -1.8379 0.9770
1.7623 5.2468 -1.8398 0.9769
-0.1529 4.7751 -1.5881 0.9801
-0.6702 5.5100 -1.8450 0.9769
-1.1580 5.4317 -1.8461 0.9769
-2.1040 5.1464 -1.8481 0.9768
-3.3926 4.4154 -1.8509 0.9768
-4.8060 3.6429 -2.0046 0.9749
-5.1164 3.2048 -2.0068 0.9749
-5.6061 2.2492 -2.0079 0.9749
-5.7849 1.7423 -2.0083 0.9749
-2.2542 -2.7250 -1.2647 0.9851
-1.5221 -2.7016 -1.1089 0.9869
-0.9517 -2.7333 -1.0350 0.9878
-0.4359 -2.7532 -0.9968 0.9882
-0.1933 -2.8374 -1.0170 0.9880
0.0606 -2.8843 -1.0317 0.9878
0.3276 -2.9653 -1.0669 0.9874
2.9321 -4.7279 -1.9895 0.9766
3.7198 -4.1304 -1.9878 0.9767
4.0707 -3.7819 -1.9870 0.9767
4.6731 -2.9993 -1.9857 0.9767
5.5439 -0.2024 -1.9838 0.9767
5.4016 1.2679 -1.9842 0.9767
5.2683 1.7433 -1.9844 0.9767
4.6247 3.0739 -1.9858 0.9767
4.3345 3.4740 -1.9865 0.9767
3.0766 4.2364 -1.8723 0.9780
2.6384 4.4106 -1.8379 0.9784
2.2369 4.6298 -1.8388 0.9784
1.3830 4.9578 -1.8406 0.9784
0.9373 5.0637 -1.8416 0.9784
-1.3377 4.9871 -1.8465 0.9783
-1.7767 4.8510 -1.8474 0.9783
-2.2020 4.6761 -1.8483 0.9783
-2.9981 4.2162 -1.8501 0.9783
-3.4648 4.0544 -1.9072 0.9776
-4.3401 3.5502 -2.0052 0.9765
-4.6400 3.1513 -2.0058 0.9765
-4.9032 2.7271 -2.0064 0.9764
-5.1274 2.2809 -2.0068 0.9764
-5.3109 1.8165 -2.0072 0.9764
-5.5501 0.8474 -2.0078 0.9764
-5.6038 0.3507 -2.0079 0.9764
-5.5771 -0.6472 -2.0078 0.9764
-5.4970 -1.1404 -2.0076 0.9764
-5.3732 -1.6243 -2.0074 0.9764
-5.2066 -2.0952 -2.0070 0.9764
-4.7509 -2.9827 -2.0060 0.9765
-3.6824 -2.7972 -1.6537 0.9805
-2.9605 -2.6959 -1.4319 0.9831
-2.5275 -2.7507 -1.3359 0.9843
-2.0921 -2.7286 -1.2296 0.9855
-1.7234 -2.7180 -1.1509 0.9864
-1.3892 -2.6941 -1.0840 0.9872
-1.1080 -2.7183 -1.0498 0.9876
-0.8434 -2.7456 -1.0271 0.9879
-0.5860 -2.7623 -1.0098 0.9881
-0.3362 -2.7881 -1.0043 0.9881
-0.0887 -2.8604 -1.0234 0.9879
1.7790 -5.2785 -1.9919 0.9766
3.1044 -4.6153 -1.9891 0.9766
3.5009 -4.3192 -1.9882 0.9767
4.7803 -2.8240 -1.9855 0.9767
5.3528 -1.4615 -1.9843 0.9767
5.5259 -0.4903 -1.9839 0.9767
5.5475 0.0029 -1.9838 0.9767
5.5254 0.4960 -1.9839 0.9767
5.3513 1.4670 -1.9843 0.9767
5.0088 2.3924 -1.9850 0.9767
4.7775 2.8289 -1.9855 0.9767
3.8589 3.9865 -1.9841 0.9767
3.4230 4.2320 -1.9465 0.9771
2.8633 4.2663 -1.8374 0.9784
1.1989 5.0066 -1.8410 0.9784
0.7494 5.0960 -1.8420 0.9784
0.2936 5.1452 -1.8430 0.9783
-0.1526 4.7633 -1.7043 0.9800
-0.6229 5.1214 -1.8449 0.9783
-1.0763 5.0484 -1.8459 0.9783
-1.9554 4.7829 -1.8478 0.9783
-2.3740 4.5924 -1.8487 0.9783
-2.7741 4.3652 -1.8496 0.9783
-3.7174 4.0374 -1.9626 0.9770
-4.4691 3.3876 -2.0054 0.9765
-5.0012 2.5441 -2.0066 0.9764
-5.3749 1.6188 -2.0074 0.9764
-2.2559 -2.7271 -1.3563 0.9850
-1.5249 -2.7064 -1.1904 0.9868
-1.2100 -2.6801 -1.1269 0.9875
-0.9407 -2.7018 -1.0963 0.9878
-0.4335 -2.7381 -1.0624 0.9882
-0.1865 -2.7381 -1.0517 0.9883
0.0574 -2.7335 -1.0478 0.9884
0.3094 -2.8004 -1.0797 0.9880
0.5967 -2.9581 -1.1564 0.9872
2.3346 -4.6407 -1.9908 0.9780
3.1169 -4.1504 -1.9891 0.9780
3.7998 -3.5302 -1.9876 0.9780
4.0973 -3.1774 -1.9870 0.9780
4.5927 -2.4003 -1.9859 0.9780
4.9433 -1.5484 -1.9851 0.9781
5.1718 0.2719 -1.9846 0.9781
5.1274 0.7306 -1.9847 0.9781
4.7548 2.0586 -1.9856 0.9780
3.7430 3.5909 -1.9877 0.9780
3.4064 3.9065 -1.9862 0.9780
2.5240 4.2194 -1.8842 0.9792
1.6961 4.4917 -1.8399 0.9796
0.8747 4.7256 -1.8417 0.9796
0.4514 4.7871 -1.8426 0.9796
-0.3994 4.7416 -1.8235 0.9798
-1.2482 4.6534 -1.8463 0.9796
-1.6577 4.5261 -1.8472 0.9796
-2.8932 4.0687 -1.9132 0.9788
-3.7347 3.6552 -2.0026 0.9779
-4.0488 3.3119 -2.0045 0.9778
-4.3284 2.9397 -2.0051 0.9778
-4.5739 2.5439 -2.0057 0.9778
-5.0858 1.2475 -2.0068 0.9778
-2.2958 -0.0609 -0.8801 0.9902
-5.1276 -1.0638 -2.0068 0.9778
-5.0121 -1.5152 -2.0066 0.9778
-4.6628 -2.3780 -2.0058 0.9778
-4.4319 -2.7824 -2.0053 0.9778
-4.1658 -3.1644 -2.0048 0.9778
-1.3899 -2.6954 -1.1622 0.9871
-0.8337 -2.7140 -1.0880 0.9879
-0.5829 -2.7478 -1.0764 0.9880
-0.3299 -2.7356 -1.0559 0.9883
-0.0848 -2.7365 -1.0492 0.9883
0.1594 -2.7438 -1.0532 0.9883
0.4233 -2.8581 -1.1072 0.9877
0.7466 -3.1038 -1.2234 0.9864
1.6603 -4.9263 -1.9922 0.9780
2.8976 -4.3078 -1.9895 0.9780
3.2678 -4.0316 -1.9887 0.9780
3.6119 -3.7237 -1.9880 0.9780
3.9273 -3.3867 -1.9873 0.9780
4.2115 -3.0232 -1.9867 0.9780
4.4624 -2.6361 -1.9862 0.9780
4.8566 -1.8034 -1.9853 0.9781
4.9970 -1.3643 -1.9850 0.9781
5.1587 -0.4578 -1.9847 0.9781
5.0970 0.9198 -1.9848 0.9781
4.9956 1.3695 -1.9850 0.9781
4.6757 2.2333 -1.9857 0.9780
4.4597 2.6407 -1.9862 0.9780
4.2084 3.0276 -1.9867 0.9780
3.2566 4.0262 -1.9845 0.9781
2.8297 4.2162 -1.9459 0.9785
1.9268 4.3963 -1.8394 0.9796
1.5291 4.5523 -1.8403 0.9796
1.1188 4.6725 -1.8412 0.9796
0.6994 4.7557 -1.8421 0.9796
0.2740 4.8015 -1.8430 0.9796
-0.1522 4.7515 -1.8218 0.9798
-0.5813 4.7789 -1.8449 0.9796
-1.0043 4.7106 -1.8458 0.9796
-1.8244 4.4626 -1.8475 0.9796
-2.2149 4.2847 -1.8484 0.9796
-2.5978 4.0878 -1.8561 0.9795
-3.5336 3.8378 -1.9992 0.9779
-3.8704 3.5172 -2.0041 0.9778
-4.1691 3.1602 -2.0048 0.9778
-4.4348 2.7778 -2.0054 0.9778
-4.8588 1.9494 -2.0063 0.9778
-5.0137 1.5100 -2.0066 0.9778
-2.2576 -2.7292 -1.4496 0.9848
-1.8779 -2.7326 -1.3570 0.9858
-1.5276 -2.7114 -1.2737 0.9866
-0.9298 -2.6706 -1.1574 0.9879
-0.6834 -2.7216 -1.1485 0.9879
0.5736 -2.8436 -1.1873 0.9875
1.3833 -4.6685 -1.9928 0.9792
1.7920 -4.5250 -1.9919 0.9792
2.9191 -3.8870 -1.9895 0.9792
3.2519 -3.6108 -1.9888 0.9792
3.5588 -3.3063 -1.9881 0.9792
4.0858 -2.6223 -1.9870 0.9792
4.6302 -1.4503 -1.9858 0.9792
4.7402 -1.0328 -1.9856 0.9793
4.8477 -0.1770 -1.9853 0.9793
4.8026 0.6843 -1.9854 0.9793
4.6065 1.5243 -1.9859 0.9792
4.2653 2.3169 -1.9866 0.9792
4.0434 2.6876 -1.9871 0.9792
3.7895 3.0372 -1.9876 0.9792
3.5056 3.3631 -1.9882 0.9792
2.4879 4.1591 -1.9835 0.9793
2.0299 4.2014 -1.9097 0.9800
1.5890 4.2080 -1.8409 0.9807
1.2087 4.3328 -1.8410 0.9807
-0.7763 4.4413 -1.8453 0.9807
-1.1686 4.3567 -1.8461 0.9807
-1.5520 4.2375 -1.8469 0.9807
-1.9330 4.1049 -1.8570 0.9806
-2.3848 4.0785 -1.9337 0.9798
-3.1757 3.7161 -2.0006 0.9791
-4.0517 2.7517 -2.0045 0.9791
-4.2813 2.3812 -2.0050 0.9790
-4.6371 1.5860 -2.0058 0.9790
-4.6914 -1.4182 -2.0059 0.9790
-4.5461 -1.8294 -2.0056 0.9790
-3.8995 -2.9621 -2.0042 0.9791
-2.5028 -2.7239 -1.5140 0.9841
-2.0952 -2.7327 -1.4093 0.9852
-1.7293 -2.7273 -1.3217 0.9861
-1.3923 -2.7002 -1.2434 0.9870
-0.8259 -2.6886 -1.1511 0.9879
-0.3272 -2.7132 -1.1185 0.9883
-0.0840 -2.7080 -1.1088 0.9884
0.1571 -2.7046 -1.1088 0.9884
0.4081 -2.7551 -1.1399 0.9880
0.7419 -3.0844 -1.2984 0.9864
1.5548 -4.6132 -1.9924 0.9792
1.9579 -4.4548 -1.9916 0.9792
2.7137 -4.0344 -1.9899 0.9792
3.0604 -3.7757 -1.9892 0.9792
3.3828 -3.4875 -1.9885 0.9792
3.6782 -3.1719 -1.9879 0.9792
4.1796 -2.4691 -1.9868 0.9792
4.5489 -1.6892 -1.9860 0.9792
4.6804 -1.2779 -1.9857 0.9792
4.8509 0.0025 -1.9853 0.9793
4.8315 0.4337 -1.9854 0.9793
4.5472 1.6939 -1.9860 0.9792
4.1771 2.4734 -1.9868 0.9792
3.6750 3.1757 -1.9879 0.9792
3.3792 3.4910 -1.9885 0.9792
2.7033 4.0279 -1.9854 0.9793
1.4319 4.2630 -1.8405 0.9808
0.2565 4.4959 -1.8430 0.9807
-0.1442 4.5030 -1.8439 0.9807
-0.5442 4.4744 -1.8448 0.9807
-3.9025 2.9581 -2.0042 0.9791
-4.3669 2.2214 -2.0052 0.9790
-4.5480 1.8247 -2.0056 0.9790
-4.6929 1.4134 -2.0059 0.9790
-2.2595 -2.7314 -1.5449 0.9847
-1.5305 -2.7164 -1.3588 0.9865
-0.4290 -2.7096 -1.1956 0.9881
-0.1831 -2.6889 -1.1746 0.9883
0.0562 -2.6767 -1.1668 0.9884
0.2995 -2.7107 -1.1885 0.9882
2.0534 -4.0819 -1.9914 0.9803
2.7418 -3.6510 -1.9899 0.9803
3.0545 -3.3916 -1.9892 0.9803
3.6047 -2.7954 -1.9880 0.9803
3.8380 -2.4633 -1.9875 0.9803
4.4529 -0.9702 -1.9862 0.9803
4.5539 -0.1663 -1.9860 0.9803
4.5506 0.2392 -1.9860 0.9803
4.5116 0.6429 -1.9861 0.9803
4.4369 1.0415 -1.9862 0.9803
3.7982 2.5246 -1.9876 0.9803
3.5597 2.8529 -1.9881 0.9803
3.2929 3.1590 -1.9887 0.9803
3.0000 3.4403 -1.9893 0.9803
2.6832 3.6947 -1.9900 0.9803
2.3416 3.9144 -1.9879 0.9803
1.5792 4.1822 -1.9483 0.9807
1.1665 4.1816 -1.8920 0.9812
-0.3552 4.2170 -1.8444 0.9817
-0.7290 4.1706 -1.8452 0.9817
-1.1067 4.1261 -1.8618 0.9815
-1.5043 4.1072 -1.9063 0.9811
-1.9234 4.0846 -1.9676 0.9805
-2.6586 3.7387 -1.9994 0.9802
-3.2844 3.2145 -2.0029 0.9801
-3.5582 2.9106 -2.0035 0.9801
-3.8039 2.5834 -2.0040 0.9801
-4.2031 1.8698 -2.0049 0.9801
-1.4912 0.5100 -0.6868 0.9931
-1.4892 0.3653 -0.6683 0.9933
-1.4735 0.2250 -0.6496 0.9935
-1.4720 -0.1708 -0.6458 0.9936
-1.4939 -0.4516 -0.6802 0.9932
-4.2679 -1.7175 -2.0050 0.9801
-4.0976 -2.0897 -2.0046 0.9801
-3.8947 -2.4452 -2.0042 0.9801
-2.9605 -2.6959 -1.7451 0.9827
-2.5049 -2.7262 -1.6135 0.9840
-1.7306 -2.7293 -1.4084 0.9860
-1.3949 -2.7052 -1.3265 0.9868
-0.8183 -2.6636 -1.2144 0.9879
-0.3245 -2.6907 -1.1811 0.9882
-0.0831 -2.6801 -1.1686 0.9884
0.1559 -2.6846 -1.1720 0.9883
0.4051 -2.7351 -1.2050 0.9880
0.7372 -3.0649 -1.3738 0.9863
2.2027 -4.0024 -1.9910 0.9803
2.5489 -3.7893 -1.9903 0.9803
2.8746 -3.5465 -1.9896 0.9803
3.7053 -2.6598 -1.9878 0.9803
3.9261 -2.3193 -1.9873 0.9803
4.4856 -0.8048 -1.9861 0.9803
4.5569 0.0023 -1.9860 0.9803
4.3955 1.2050 -1.9863 0.9803
4.2716 1.5912 -1.9866 0.9803
3.7026 2.6636 -1.9878 0.9803
3.1741 3.2791 -1.9890 0.9803
2.5442 3.7907 -1.9897 0.9803
1.4048 4.1822 -1.9228 0.9809
0.2409 4.2222 -1.8431 0.9817
-0.1355 4.2287 -1.8439 0.9817
-0.5111 4.2018 -1.8447 0.9817
-0.8830 4.1415 -1.8455 0.9817
-1.2699 4.1187 -1.8784 0.9814
-1.6755 4.0983 -1.9296 0.9809
-2.0999 4.0622 -1.9929 0.9802
-2.7977 3.6412 -2.0012 0.9802
-3.1123 3.3802 -2.0025 0.9802
-3.4015 3.0911 -2.0031 0.9801
-3.6639 2.7773 -2.0037 0.9801
-3.8973 2.4412 -2.0042 0.9801
-4.0998 2.0855 -2.0046 0.9801
-1.4939 0.4499 -0.6799 0.9932
-2.2613 -2.7336 -1.6422 0.9845
-1.5334 -2.7216 -1.4460 0.9863
-1.2164 -2.6944 -1.3684 0.9871
-0.6708 -2.6711 -1.2748 0.9879
-0.4267 -2.6951 -1.2631 0.9880
-0.1815 -2.6643 -1.2361 0.9883
0.0558 -2.6561 -1.2297 0.9884
1.2233 -4.1285 -1.9931 0.9812
1.5849 -4.0018 -1.9924 0.9812
1.9336 -3.8437 -1.9916 0.9812
2.8764 -3.1939 -1.9896 0.9812
3.1481 -2.9247 -1.9890 0.9812
3.6144 -2.3198 -1.9880 0.9812
3.8055 -1.9889 -1.9876 0.9813
3.9666 -1.6424 -1.9872 0.9813
4.0963 -1.2831 -1.9870 0.9813
3.9399 1.7058 -1.9873 0.9813
3.7733 2.0497 -1.9877 0.9813
3.1010 2.9749 -1.9891 0.9812
2.2081 3.6913 -1.9910 0.9812
1.8697 3.8699 -1.9895 0.9812
0.3916 4.1535 -1.9311 0.9818
-1.8363 3.8997 -1.9952 0.9812
-2.1796 3.7275 -1.9987 0.9811
-2.5054 3.5233 -2.0012 0.9811
-2.8096 3.2878 -2.0019 0.9811
-3.0917 3.0259 -2.0025 0.9811
-3.3494 2.7398 -2.0030 0.9811
-3.7834 2.1043 -2.0040 0.9811
-1.2654 0.4328 -0.6190 0.9941
-1.2700 0.3115 -0.6053 0.9943
-1.2701 0.0795 -0.5891 0.9944
-1.2750 -0.1480 -0.5942 0.9944
-1.2678 -0.2630 -0.5994 0.9943
-1.2527 -0.5041 -0.6250 0.9941
-3.8570 -1.9670 -2.0041 0.9811
-3.6661 -2.3016 -2.0037 0.9811
-2.9605 -2.6959 -1.8534 0.9825
-1.3975 -2.7102 -1.4115 0.9866
-0.8180 -2.6627 -1.2894 0.9878
-0.3225 -2.6741 -1.2468 0.9882
0.1548 -2.6644 -1.2354 0.9883
0.4033 -2.7229 -1.2741 0.9879
0.7294 -3.0323 -1.4437 0.9863
1.3750 -4.0797 -1.9928 0.9812
1.7316 -3.9398 -1.9921 0.9812
2.0742 -3.7689 -1.9913 0.9812
2.7070 -3.3397 -1.9900 0.9812
3.4894 -2.5049 -1.9883 0.9812
3.8762 -1.8465 -1.9874 0.9813
4.1408 -1.1306 -1.9869 0.9813
4.2917 0.0022 -1.9865 0.9813
4.2746 0.3837 -1.9866 0.9813
4.2237 0.7623 -1.9867 0.9813
4.1396 1.1348 -1.9869 0.9813
4.0229 1.4985 -1.9871 0.9813
3.8743 1.8505 -1.9874 0.9813
3.6952 2.1881 -1.9878 0.9812
3.4869 2.5085 -1.9883 0.9812
2.9891 3.0880 -1.9894 0.9812
2.7036 3.3425 -1.9900 0.9812
2.3965 3.5708 -1.9906 0.9812
0.9963 4.1606 -1.9803 0.9813
0.6113 4.1569 -1.9448 0.9817
-0.1327 4.1418 -1.9182 0.9819
-0.8776 4.1163 -1.9482 0.9816
-1.2638 4.0990 -1.9855 0.9813
-2.9297 3.1819 -2.0021 0.9811
-3.2020 2.9097 -2.0027 0.9811
-3.8590 1.9630 -2.0041 0.9811
-1.5361 -2.7264 -1.5350 0.9862
-0.9322 -2.6773 -1.3906 0.9874
-0.6678 -2.6592 -1.3449 0.9879
-0.4244 -2.6804 -1.3312 0.9880
0.2958 -2.6773 -1.3213 0.9881
0.5628 -2.7902 -1.3962 0.9874
1.1545 -3.8962 -1.9933 0.9821
1.4957 -3.7767 -1.9926 0.9821
3.4115 -2.1896 -1.9884 0.9821
3.9584 -0.8625 -1.9873 0.9821
4.0192 -0.5071 -1.9871 0.9821
4.0482 -0.1478 -1.9871 0.9821
4.0106 0.5715 -1.9872 0.9821
3.9442 0.9258 -1.9873 0.9821
3.8467 1.2729 -1.9875 0.9821
3.7188 1.6100 -1.9878 0.9821
3.5615 1.9346 -1.9881 0.9821
2.6663 3.0577 -1.9901 0.9821
2.3847 3.2837 -1.9907 0.9821
2.0840 3.4838 -1.9913 0.9821
1.7666 3.6565 -1.9920 0.9821
-0.3405 4.0431 -1.9903 0.9821
-0.6991 3.9995 -1.9916 0.9821
-1.0529 3.9252 -1.9935 0.9821
-1.3993 3.8206 -1.9958 0.9820
-2.0583 3.5201 -2.0002 0.9820
-2.6509 3.1020 -2.0015 0.9820
-2.9170 2.8548 -2.0021 0.9820
-3.1600 2.5849 -2.0026 0.9820
-3.3781 2.2943 -2.0031 0.9820
-1.1256 0.3850 -0.5835 0.9947
-1.1329 0.2779 -0.5722 0.9948
-1.1384 -0.0302 -0.5586 0.9949
-1.1307 -0.3418 -0.5794 0.9948
-1.0907 -0.5563 -0.6006 0.9946
-3.2513 -2.4698 -2.0028 0.9820
-1.7333 -2.7335 -1.5877 0.9857
-1.4001 -2.7153 -1.4986 0.9865
-1.0956 -2.6877 -1.4237 0.9872
-0.5659 -2.6680 -1.3378 0.9879
-0.3207 -2.6598 -1.3141 0.9881
0.1602 -2.7582 -1.3552 0.9878
0.4015 -2.7106 -1.3441 0.9879
1.6342 -3.7182 -1.9923 0.9821
2.2653 -3.3678 -1.9909 0.9821
3.0710 -2.6483 -1.9892 0.9821
3.2935 -2.3642 -1.9887 0.9821
3.4899 -2.0616 -1.9883 0.9821
3.6587 -1.7429 -1.9879 0.9821
3.7986 -1.4105 -1.9876 0.9821
3.9085 -1.0671 -1.9874 0.9821
3.9875 -0.7154 -1.9872 0.9821
4.0348 0.3622 -1.9871 0.9821
3.9868 0.7195 -1.9872 0.9821
3.9074 1.0712 -1.9874 0.9821
3.7971 1.4145 -1.9876 0.9821
3.6569 1.7467 -1.9879 0.9821
3.0683 2.6515 -1.9892 0.9821
2.8212 2.9145 -1.9897 0.9821
2.5517 3.1547 -1.9903 0.9821
1.6304 3.7200 -1.9923 0.9821
1.2923 3.8473 -1.9908 0.9821
0.9446 3.9449 -1.9898 0.9821
0.2310 4.0487 -1.9892 0.9821
-0.1299 4.0542 -1.9897 0.9821
-0.4900 4.0288 -1.9908 0.9821
-0.8469 3.9723 -1.9923 0.9821
-1.8722 3.6217 -1.9998 0.9820
-2.1875 3.4420 -2.0005 0.9820
-3.0209 2.7453 -2.0023 0.9820
-1.1308 0.3406 -0.5793 0.9948
-2.4587 -2.9722 -2.0011 0.9828
-1.2210 -2.7044 -1.5394 0.9867
-0.6696 -2.6662 -1.4261 0.9877
-0.4220 -2.6654 -1.4000 0.9879
2.3044 -3.0686 -1.9908 0.9829
3.0301 -2.3498 -1.9893 0.9829
3.2263 -2.0707 -1.9888 0.9829
3.6567 -1.1454 -1.9879 0.9829
3.8286 -0.1398 -1.9875 0.9829
3.7930 0.5405 -1.9876 0.9829
3.7302 0.8756 -1.9878 0.9829
3.5170 1.5227 -1.9882 0.9829
3.3683 1.8296 -1.9885 0.9829
3.1929 2.1222 -1.9889 0.9829
2.7679 2.6553 -1.9898 0.9829
2.2551 3.1053 -1.9909 0.9829
1.9707 3.2945 -1.9916 0.9828
1.6706 3.4577 -1.9922 0.9828
1.0325 3.7015 -1.9936 0.9828
0.6992 3.7776 -1.9930 0.9828
-0.6622 3.7884 -1.9951 0.9828
-0.9972 3.7178 -1.9969 0.9828
-2.2348 3.1428 -2.0006 0.9828
-2.5061 2.9326 -2.0012 0.9828
-3.1935 2.1689 -2.0027 0.9828
-0.9879 0.4395 -0.5609 0.9951
-1.0210 0.2504 -0.5454 0.9953
-1.0351 0.1580 -0.5432 0.9953
-1.0366 0.0649 -0.5388 0.9953
-1.0281 -0.2133 -0.5447 0.9953
-0.9664 -0.4929 -0.5628 0.9951
-0.9704 -0.6093 -0.5944 0.9948
-3.0736 -2.3348 -2.0024 0.9828
-2.8532 -2.5982 -2.0019 0.9828
-2.6102 -2.8408 -2.0014 0.9828
-1.4028 -2.7206 -1.5880 0.9863
-0.8223 -2.6770 -1.4528 0.9875
-0.5640 -2.6590 -1.4101 0.9878
-0.3234 -2.6818 -1.4013 0.9879
-0.0814 -2.6243 -1.3621 0.9882
0.4001 -2.7014 -1.4167 0.9878
0.7019 -2.9179 -1.5569 0.9866
1.2270 -3.6408 -1.9931 0.9828
1.5453 -3.5161 -1.9925 0.9828
2.1422 -3.1848 -1.9912 0.9829
3.4602 -1.6483 -1.9883 0.9829
3.5925 -1.3340 -1.9880 0.9829
3.6964 -1.0093 -1.9878 0.9829
3.7712 -0.6766 -1.9877 0.9829
3.8162 -0.3386 -1.9876 0.9829
3.8312 0.0020 -1.9875 0.9829
3.8159 0.3426 -1.9876 0.9829
3.6954 1.0130 -1.9878 0.9829
3.5911 1.3377 -1.9881 0.9829
3.4585 1.6519 -1.9883 0.9829
3.1124 2.2391 -1.9891 0.9829
2.9017 2.5075 -1.9895 0.9829
2.6680 2.7562 -1.9900 0.9829
2.4131 2.9833 -1.9906 0.9829
1.5417 3.5177 -1.9925 0.9828
0.8948 3.7368 -1.9934 0.9828
0.2188 3.8352 -1.9928 0.9828
-0.1230 3.8404 -1.9933 0.9828
-0.4642 3.8161 -1.9943 0.9828
-0.8022 3.7625 -1.9958 0.9828
-1.1346 3.6800 -1.9978 0.9828
-1.7700 3.4240 -1.9996 0.9828
-2.6132 2.8381 -2.0014 0.9828
-2.8559 2.5953 -2.0020 0.9828
-0.9700 0.6076 -0.5938 0.9949
-0.9669 0.4919 -0.5628 0.9951
-0.9997 0.4011 -0.5588 0.9952
-2.3285 -2.8148 -2.0008 0.9835
-2.0684 -3.0098 -2.0002 0.9835
-1.2233 -2.7097 -1.6283 0.9865
-0.6714 -2.6735 -1.5097 0.9875
-0.4208 -2.6577 -1.4738 0.9878
0.0551 -2.6202 -1.4354 0.9881
0.2940 -2.6612 -1.4664 0.9879
1.3398 -3.3830 -1.9929 0.9835
1.9165 -3.0903 -1.9917 0.9836
2.1830 -2.9069 -1.9911 0.9836
2.8706 -2.2261 -1.9896 0.9836
3.0565 -1.9617 -1.9892 0.9836
1.8845 0.0991 -1.0336 0.9914
1.8884 0.2691 -1.0447 0.9913
1.8864 0.4428 -1.0613 0.9912
1.8669 3.1208 -1.9918 0.9836
1.5825 3.2755 -1.9924 0.9835
0.3419 3.6265 -1.9951 0.9835
0.0182 3.6438 -1.9958 0.9835
-0.3059 3.6323 -1.9965 0.9835
-0.6278 3.5919 -1.9972 0.9835
-0.9450 3.5231 -1.9978 0.9835
-1.2549 3.4263 -1.9985 0.9835
-1.8430 3.1519 -1.9998 0.9835
-2.1165 2.9765 -2.0004 0.9835
-0.8756 0.4870 -0.5487 0.9954
-0.9169 0.3136 -0.5307 0.9956
-0.9302 0.2281 -0.5246 0.9956
-0.9446 0.1442 -0.5234 0.9957
-0.9440 -0.0250 -0.5172 0.9957
-0.9375 -0.1945 -0.5244 0.9956
-0.9222 -0.2788 -0.5277 0.9956
-0.8866 -0.4521 -0.5451 0.9955
-2.9108 -2.2111 -2.0021 0.9835
-1.1010 -2.7009 -1.5975 0.9868
-0.8246 -2.6844 -1.5381 0.9873
-0.5656 -2.6662 -1.4928 0.9876
-0.3173 -2.6314 -1.4517 0.9880
0.1520 -2.6173 -1.4359 0.9881
0.7038 -2.9257 -1.6481 0.9864
1.4638 -3.3307 -1.9926 0.9835
2.0293 -3.0169 -1.9914 0.9836
2.2888 -2.8238 -1.9909 0.9836
2.9508 -2.1182 -1.9894 0.9836
3.1268 -1.8471 -1.9891 0.9836
1.8720 0.0010 -1.0253 0.9915
3.4022 1.2673 -1.9885 0.9836
3.2765 1.5650 -1.9887 0.9836
3.1249 1.8504 -1.9891 0.9836
2.0262 3.0191 -1.9914 0.9836
1.4604 3.3322 -1.9927 0.9835
1.1588 3.4500 -1.9933 0.9835
0.5299 3.6031 -1.9947 0.9835
-0.4402 3.6190 -1.9967 0.9835
-1.0749 3.4862 -1.9981 0.9835
-1.3810 3.3780 -1.9988 0.9835
-2.7046 2.4578 -2.0016 0.9835
-2.9131 2.2081 -2.0021 0.9835
-0.9076 0.3641 -0.5356 0.9955
-0.9223 0.2778 -0.5276 0.9956
-1.9620 -2.8549 -2.0000 0.9841
-1.7000 -3.0172 -1.9994 0.9841
-1.2261 -2.7158 -1.7203 0.9863
-0.9402 -2.7003 -1.6508 0.9869
-0.4388 -2.7713 -1.6199 0.9871
-0.1789 -2.6272 -1.5203 0.9879
0.0551 -2.6202 -1.5131 0.9880
0.5608 -2.7799 -1.6373 0.9870
1.2711 -3.2095 -1.9930 0.9842
1.8183 -2.9320 -1.9919 0.9842
2.3076 -2.5623 -1.9908 0.9842
2.9001 -1.8613 -1.9895 0.9842
3.0535 -1.5958 -1.9892 0.9842
1.7196 -0.5386 -1.0404 0.9917
1.7328 -0.3775 -1.0239 0.9918
1.7418 -0.2198 -1.0136 0.9919
1.7341 -0.0633 -1.0019 0.9920
1.7366 0.0913 -1.0040 0.9920
1.7145 0.5674 -1.0427 0.9917
3.0277 1.6446 -1.9893 0.9842
2.8700 1.9076 -1.9896 0.9842
2.4878 2.3867 -1.9904 0.9842
2.0268 2.7909 -1.9914 0.9842
1.7712 2.9609 -1.9920 0.9842
1.5014 3.1075 -1.9926 0.9842
0.3244 3.4404 -1.9951 0.9842
-1.1904 3.2501 -1.9984 0.9841
-1.4750 3.1324 -1.9990 0.9841
-2.0076 2.8233 -2.0001 0.9841
-2.6834 2.1950 -2.0016 0.9841
-0.7970 0.5413 -0.5562 0.9956
-0.8222 0.4573 -0.5432 0.9957
-0.8615 0.2946 -0.5256 0.9958
-0.8817 0.0552 -0.5101 0.9959
-0.8799 -0.0233 -0.5082 0.9959
-0.8764 -0.1818 -0.5168 0.9959
-0.8651 -0.2615 -0.5218 0.9958
-0.8533 -0.3434 -0.5310 0.9958
-1.1042 -2.7090 -1.6890 0.9866
-0.5675 -2.6753 -1.5789 0.9874
-0.3173 -2.6314 -1.5302 0.9878
1.3888 -3.1599 -1.9928 0.9842
1.6637 -3.0230 -1.9922 0.9842
1.9253 -2.8623 -1.9916 0.9842
2.1716 -2.6791 -1.9911 0.9842
2.6105 -2.2511 -1.9902 0.9842
1.7004 -0.6314 -1.0472 0.9917
1.7286 -0.4720 -1.0345 0.9918
1.7406 -0.1545 -1.0089 0.9920
1.7407 0.1563 -1.0090 0.9920
1.7284 0.4738 -1.0347 0.9918
1.6999 0.6332 -1.0473 0.9917
3.1088 1.4849 -1.9891 0.9842
2.9649 1.7556 -1.9894 0.9842
2.7976 2.0126 -1.9898 0.9842
1.9224 2.8643 -1.9917 0.9842
1.0994 3.2730 -1.9934 0.9842
0.8043 3.3589 -1.9941 0.9842
0.5027 3.4182 -1.9947 0.9842
-0.1107 3.4555 -1.9960 0.9842
-1.0196 3.3070 -1.9980 0.9841
-1.8578 2.9234 -1.9998 0.9841
-0.8331 0.4238 -0.5397 0.9957
