ply
format ascii 1.0
element vertex 1246
property float32 x
property float32 y
property float32 z
property float32 I
end_header
7.1169 11.6627 2.4091 0.9460
4.6872 12.1014 2.2883 0.9487
3.4739 12.0649 2.2138 0.9503
2.3282 12.0305 2.1607 0.9514
0.1530 11.9651 2.1100 0.9526
-3.0907 11.8677 2.1624 0.9514
-4.2385 11.8332 2.2163 0.9502
-5.4551 11.7966 2.2917 0.9486
13.1279 10.3186 2.5580 0.9347
7.3511 12.0465 2.1619 0.9445
4.6872 12.1014 1.9881 0.9488
0.1530 11.9651 1.8331 0.9527
-1.9888 11.9008 1.8484 0.9523
-4.2385 11.8332 1.9256 0.9504
13.1268 10.3178 2.1742 0.9349
7.4350 12.1840 1.8587 0.9441
2.3537 12.1623 1.6132 0.9513
-0.9234 12.0638 1.5756 0.9524
-2.0106 12.0312 1.5884 0.9520
-4.2843 11.9607 1.6544 0.9500
-9.7988 17.0220 2.5577 0.9238
-3.3540 -19.4145 2.1156 0.9238
-1.5889 -19.3614 2.0861 0.9248
13.1258 10.3170 1.7928 0.9350
6.0980 12.3477 1.4788 0.9461
4.7867 12.3583 1.4231 0.9481
2.3537 12.1623 1.3302 0.9514
-0.9234 12.0638 1.2992 0.9525
-2.0106 12.0312 1.3098 0.9521
-4.2850 11.9628 1.3645 0.9502
-9.7683 16.9691 2.1025 0.9243
-4.1687 -19.4389 2.1348 0.9231
7.5928 12.4427 1.2339 0.9432
6.1142 12.3806 1.1689 0.9461
3.5119 12.1971 1.0745 0.9503
1.2411 12.1289 1.0321 0.9522
-3.1245 11.9977 1.0495 0.9514
-4.3559 12.1608 1.0935 0.9495
-4.1687 -19.4389 1.6830 0.9233
-2.3781 -19.3851 1.6533 0.9246
13.1252 10.3165 1.0352 0.9353
6.4771 13.1154 0.9071 0.9431
1.2411 12.1289 0.7560 0.9523
0.1573 12.2964 0.7626 0.9519
-2.0438 12.2302 0.7689 0.9515
1.9201 -19.8382 0.7859 0.9233
13.1251 10.3164 0.6583 0.9354
7.8326 12.8356 0.5929 0.9416
3.5119 12.1971 0.5005 0.9505
-2.0438 12.2302 0.4889 0.9516
-3.1245 11.9977 0.4889 0.9516
-4.3559 12.1608 0.5093 0.9496
1.1195 -19.8623 0.7844 0.9235
13.0343 10.2450 0.2800 0.9358
7.8326 12.8356 0.2540 0.9416
1.1925 11.6539 0.1979 0.9542
0.1486 11.6217 0.1963 0.9546
-0.9234 12.0638 0.2044 0.9527
-4.3559 12.1608 0.2182 0.9496
-5.5148 11.9258 0.2219 0.9488
-4.8363 -18.1616 -0.1058 0.9276
-1.4932 -18.1948 -0.1028 0.9296
0.1318 -18.0490 -0.1016 0.9303
1.7282 -17.8550 -0.1010 0.9308
3.3309 -17.7329 -0.1016 0.9304
7.8326 12.8356 -0.0847 0.9416
6.4771 13.1154 -0.0823 0.9432
2.3537 12.1623 -0.0697 0.9517
1.1771 11.5032 -0.0651 0.9548
0.1467 11.4726 -0.0646 0.9551
-0.9234 12.0638 -0.0681 0.9528
-2.0106 12.0312 -0.0687 0.9524
-3.1245 11.9977 -0.0698 0.9516
-5.5148 11.9258 -0.0740 0.9488
-4.8146 6.8664 -0.0472 0.9670
-7.4649 -18.1797 -0.1106 0.9244
-5.7286 -18.4904 -0.1090 0.9255
-2.2162 -18.0656 -0.1025 0.9298
-0.5966 -18.1380 -0.1022 0.9300
1.0128 -17.9694 -0.1013 0.9305
2.6473 -18.0672 -0.1028 0.9296
-4.8022 -18.0336 -0.5255 0.9280
-3.0840 -17.8517 -0.5101 0.9301
-1.4716 -17.9323 -0.5066 0.9305
0.1310 -17.9367 -0.5051 0.9307
1.7221 -17.7918 -0.5033 0.9310
3.3196 -17.6727 -0.5063 0.9306
4.9978 -17.7229 -0.5185 0.9290
6.8532 -17.9861 -0.5420 0.9259
7.2910 -14.9699 -0.4689 0.9355
6.4771 13.1154 -0.4119 0.9431
4.1807 10.7938 -0.3259 0.9547
1.1621 11.3563 -0.3214 0.9553
0.1449 11.3272 -0.3190 0.9557
-0.9234 12.0638 -0.3407 0.9527
-2.0106 12.0312 -0.3435 0.9524
-4.7901 6.8316 -0.2349 0.9672
-0.5898 -17.9327 -0.5052 0.9307
1.0076 -17.8757 -0.5041 0.9309
2.6166 -17.8576 -0.5082 0.9303
6.7859 -15.4838 -0.4760 0.9346
-4.7891 -17.9841 -0.9438 0.9282
3.3197 -17.6729 -0.9119 0.9305
6.1437 -16.1241 -0.8751 0.9332
7.1577 -14.6962 -0.8290 0.9366
7.8326 12.8356 -0.7626 0.9416
6.4771 13.1154 -0.7418 0.9431
4.0655 10.4963 -0.5708 0.9559
1.2077 11.8021 -0.6017 0.9536
-1.9738 11.8112 -0.6073 0.9532
-3.0674 11.7784 -0.6173 0.9524
-4.2067 11.7441 -0.6326 0.9513
-4.7697 6.8025 -0.4213 0.9673
0.9996 -17.7350 -0.9008 0.9313
4.2169 -17.6377 -0.9197 0.9299
6.7110 -15.3128 -0.8479 0.9352
7.9412 -14.4595 -0.8366 0.9361
-1.4599 -17.7897 -1.3088 0.9309
1.7350 -17.9255 -1.3205 0.9303
4.8887 -17.3359 -1.3207 0.9303
6.1364 -16.1047 -1.2637 0.9332
7.1227 -14.6244 -1.1927 0.9368
13.0361 10.2465 -1.2158 0.9357
9.4521 12.7726 -1.1651 0.9383
7.8064 12.7927 -1.0988 0.9417
6.4771 13.1154 -1.0725 0.9430
4.0655 10.4963 -0.8253 0.9559
2.0548 10.6180 -0.7930 0.9576
-4.2067 11.7441 -0.9147 0.9512
-5.4140 11.7078 -0.9458 0.9496
-4.7426 6.7638 -0.6057 0.9674
-2.1734 -17.7167 -1.3088 0.9309
-0.5954 -18.0997 -1.3278 0.9299
2.5878 -17.6609 -1.3088 0.9309
4.1505 -17.3602 -1.3088 0.9309
-11.1081 -15.6588 -1.8432 0.9258
-9.6693 -16.5860 -1.8432 0.9258
-8.1536 -17.3813 -1.8432 0.9258
-6.4271 -17.6377 -1.8022 0.9273
-4.6845 -17.5913 -1.7477 0.9295
-1.4366 -17.5046 -1.6862 0.9319
0.1275 -17.4629 -1.6766 0.9322
1.6862 -17.4213 -1.6803 0.9321
3.2645 -17.3792 -1.6977 0.9314
4.8887 -17.3359 -1.7292 0.9302
9.9104 -16.4429 -1.8432 0.9258
12.7495 14.3539 -1.8432 0.9258
9.3963 12.6972 -1.5165 0.9385
7.8064 12.7927 -1.4388 0.9416
6.4771 13.1154 -1.4043 0.9429
4.0655 10.4963 -1.0806 0.9558
3.0131 10.4647 -1.0455 0.9572
2.0568 10.6279 -1.0393 0.9574
0.1352 10.5702 -1.0149 0.9584
-0.8464 11.0574 -1.0647 0.9564
-5.4140 11.7078 -1.2384 0.9495
-4.7360 6.7545 -0.7920 0.9674
-14.1569 11.7254 -1.7648 0.9288
-10.3278 -16.1841 -1.8432 0.9258
-8.8453 -17.0397 -1.8432 0.9258
-7.2514 -17.6597 -1.8328 0.9262
0.9830 -17.4401 -1.6770 0.9322
4.1494 -17.3556 -1.7132 0.9308
6.6981 -15.2833 -1.6020 0.9351
7.8486 -14.2907 -1.5653 0.9366
10.7040 -15.9377 -1.8432 0.9258
-1.8129 -3.8646 -0.5071 0.9830
-5.4442 -14.9404 -1.8889 0.9380
-3.9929 -14.9942 -1.8432 0.9394
-2.6415 -15.2902 -1.8432 0.9394
-1.2691 -15.4647 -1.8432 0.9394
0.1133 -15.5163 -1.8432 0.9394
1.4949 -15.4445 -1.8432 0.9394
2.8645 -15.2500 -1.8432 0.9394
4.2114 -14.9342 -1.8432 0.9394
11.0862 -12.6200 -1.9954 0.9346
13.1495 -10.4528 -1.9954 0.9346
14.0282 -9.2401 -1.9954 0.9346
14.7954 -7.9539 -1.9954 0.9346
16.6539 2.1948 -1.9954 0.9346
16.3922 3.6694 -1.9954 0.9346
16.0002 5.1149 -1.9954 0.9346
10.3044 11.6010 -1.8432 0.9394
9.2302 12.4727 -1.8432 0.9394
3.0131 10.4647 -1.2936 0.9571
2.0568 10.6279 -1.2859 0.9573
1.0846 10.5987 -1.2656 0.9580
-6.9292 12.0371 -1.6498 0.9456
-4.7387 6.7583 -0.9805 0.9673
-10.0044 11.8609 -1.8432 0.9394
-11.9501 9.8976 -1.8432 0.9394
-12.7842 8.7939 -1.8432 0.9394
-14.6328 8.2496 -1.9954 0.9346
-15.3094 6.9135 -1.9954 0.9346
-15.8643 5.5224 -1.9954 0.9346
-16.5925 2.6201 -1.9954 0.9346
-16.7599 1.1318 -1.9954 0.9346
-16.7941 -0.3655 -1.9954 0.9346
-16.6948 -1.8598 -1.9954 0.9346
-16.4628 -3.3394 -1.9954 0.9346
-16.0999 -4.7924 -1.9954 0.9346
-14.9942 -7.5729 -1.9954 0.9346
-13.4126 -10.1132 -1.9954 0.9346
-12.4585 -11.2676 -1.9954 0.9346
-10.2617 -13.2993 -1.9954 0.9346
-4.6237 -14.9242 -1.8559 0.9390
2.2496 -15.3527 -1.8432 0.9394
6.4058 -14.6164 -1.8956 0.9377
9.3655 -13.9448 -1.9954 0.9346
11.6911 -12.0618 -1.9954 0.9346
12.7190 -10.9726 -1.9954 0.9346
14.4640 -8.5418 -1.9954 0.9346
16.2076 -4.4140 -1.9954 0.9346
16.7336 -1.4683 -1.9954 0.9346
16.7979 0.0280 -1.9954 0.9346
16.7286 1.5240 -1.9954 0.9346
16.5264 3.0079 -1.9954 0.9346
16.1928 4.4680 -1.9954 0.9346
15.7305 5.8924 -1.9954 0.9346
-10.0568 -9.8582 -1.9954 0.9447
-2.2423 -3.1609 -0.5491 0.9845
-1.8636 -3.1966 -0.5243 0.9852
-1.3403 -3.6781 -0.5547 0.9843
-1.1518 -14.0355 -1.9954 0.9447
0.1029 -14.0823 -1.9954 0.9447
1.3567 -14.0172 -1.9954 0.9447
3.8222 -13.5540 -1.9954 0.9447
5.0142 -13.1597 -1.9954 0.9447
6.1664 -12.6608 -1.9954 0.9447
8.3149 -11.3658 -1.9954 0.9447
9.2942 -10.5801 -1.9954 0.9447
10.1996 -9.7102 -1.9954 0.9447
11.0239 -8.7632 -1.9954 0.9447
11.7606 -7.7464 -1.9954 0.9447
12.9485 -5.5369 -1.9954 0.9447
13.7254 -3.1516 -1.9954 0.9447
14.0668 -0.6664 -1.9954 0.9447
14.0703 0.5892 -1.9954 0.9447
13.9619 1.8400 -1.9954 0.9447
13.7425 3.0763 -1.9954 0.9447
13.4139 4.2881 -1.9954 0.9447
10.2273 8.0387 -1.8432 0.9488
9.4707 8.9177 -1.8432 0.9488
6.7761 11.1043 -1.8432 0.9488
5.7601 11.6636 -1.8432 0.9488
3.0209 10.4919 -1.5470 0.9568
0.1352 10.5702 -1.4978 0.9582
-0.8485 11.0849 -1.5752 0.9561
-2.8642 10.9981 -1.6103 0.9551
-5.4140 11.7078 -1.8277 0.9492
-6.4899 11.2740 -1.8432 0.9488
-8.3872 9.9436 -1.8432 0.9488
-10.7177 7.3724 -1.8432 0.9488
-12.8347 5.7959 -1.9954 0.9447
-13.2999 4.6297 -1.9954 0.9447
-13.6594 3.4268 -1.9954 0.9447
-13.9104 2.1965 -1.9954 0.9447
-14.0794 -0.3064 -1.9954 0.9447
-13.9961 -1.5592 -1.9954 0.9447
-12.5704 -6.3488 -1.9954 0.9447
-11.2445 -8.4784 -1.9954 0.9447
-10.4447 -9.4462 -1.9954 0.9447
-2.4404 -3.1628 -0.5660 0.9840
-1.4522 -3.5367 -0.5417 0.9847
-4.1676 -13.4519 -1.9954 0.9447
-2.9529 -13.7696 -1.9954 0.9447
-1.7148 -13.9779 -1.9954 0.9447
-0.4630 -14.0750 -1.9954 0.9447
0.7925 -14.0603 -1.9954 0.9447
2.0417 -13.9339 -1.9954 0.9447
3.2746 -13.6966 -1.9954 0.9447
4.4815 -13.3505 -1.9954 0.9447
6.7792 -12.3436 -1.9954 0.9447
7.8516 -11.6907 -1.9954 0.9447
8.8617 -10.9449 -1.9954 0.9447
11.4400 -8.2127 -1.9954 0.9447
12.7156 -6.0526 -1.9954 0.9447
13.2041 -4.8960 -1.9954 0.9447
13.5877 -3.7005 -1.9954 0.9447
14.0287 -1.2309 -1.9954 0.9447
14.0245 1.2777 -1.9954 0.9447
13.8550 2.5217 -1.9954 0.9447
-1.4835 -3.1624 -0.5754 0.9859
-1.2151 -3.3345 -0.5846 0.9857
-1.0296 -3.8663 -0.6591 0.9839
-2.0619 -11.9355 -1.9954 0.9521
-0.9907 -12.0717 -1.9954 0.9521
1.1669 -12.0559 -1.9954 0.9521
2.2360 -11.9041 -1.9954 0.9521
4.3127 -11.3184 -1.9954 0.9521
5.3036 -10.8893 -1.9954 0.9521
6.2524 -10.3737 -1.9954 0.9521
9.4815 -7.5370 -1.9954 0.9521
10.1151 -6.6626 -1.9954 0.9521
10.6683 -5.7352 -1.9954 0.9521
11.1368 -4.7622 -1.9954 0.9521
11.5166 -3.7513 -1.9954 0.9521
11.8050 -2.7107 -1.9954 0.9521
12.1016 0.5067 -1.9954 0.9521
12.0084 1.5826 -1.9954 0.9521
11.8197 2.6459 -1.9954 0.9521
11.5371 3.6881 -1.9954 0.9521
11.1627 4.7010 -1.9954 0.9521
10.6785 5.6653 -1.9914 0.9522
9.3772 6.1030 -1.8432 0.9557
8.7963 6.9140 -1.8432 0.9557
7.4301 8.3650 -1.8432 0.9557
4.5576 7.4686 -1.4414 0.9652
4.9542 10.0317 -1.8432 0.9557
4.0410 10.4331 -1.8432 0.9557
2.0664 10.6776 -1.7916 0.9569
1.0846 10.5987 -1.7551 0.9577
0.1352 10.5702 -1.7415 0.9581
-0.8493 11.0959 -1.8333 0.9559
-2.8197 10.8272 -1.8432 0.9557
-3.7729 10.5330 -1.8432 0.9557
-5.5819 9.6965 -1.8432 0.9557
-7.2137 8.5523 -1.8432 0.9557
-9.2181 6.3409 -1.8432 0.9557
-9.7462 5.4947 -1.8432 0.9557
-11.0389 4.9850 -1.9954 0.9521
-12.0848 0.8161 -1.9954 0.9521
-12.1094 -0.2635 -1.9954 0.9521
-11.2550 -4.4758 -1.9954 0.9521
-10.2823 -6.4018 -1.9954 0.9521
-3.9491 -3.5716 -0.8772 0.9786
-1.9123 -2.9966 -0.5856 0.9857
-1.6059 -3.0936 -0.5742 0.9860
-1.3376 -3.2575 -0.5801 0.9858
-1.1028 -3.5594 -0.6139 0.9850
-2.5398 -11.8430 -1.9954 0.9521
-1.4748 -12.0221 -1.9954 0.9521
3.8545 -11.4826 -1.9954 0.9521
5.8306 -10.6165 -1.9954 0.9521
8.4299 -8.6973 -1.9954 0.9521
10.4293 -6.1591 -1.9954 0.9521
11.3567 -4.2110 -1.9954 0.9521
11.6866 -3.1827 -1.9954 0.9521
11.9236 -2.1292 -1.9954 0.9521
12.1122 0.0202 -1.9954 0.9521
-2.9840 -2.9251 -0.7854 0.9831
-2.0869 -2.9418 -0.6779 0.9854
-1.4042 -2.9935 -0.6215 0.9866
-1.1592 -3.1811 -0.6364 0.9863
-1.8072 -10.4609 -1.9954 0.9577
-0.8683 -10.5803 -1.9954 0.9577
0.0775 -10.6156 -1.9954 0.9577
1.0227 -10.5665 -1.9954 0.9577
2.8813 -10.2173 -1.9954 0.9577
4.6484 -9.5440 -1.9954 0.9577
5.4800 -9.0921 -1.9954 0.9577
6.2680 -8.5679 -1.9954 0.9577
7.0062 -7.9755 -1.9954 0.9577
7.6887 -7.3198 -1.9954 0.9577
9.3503 -5.0266 -1.9954 0.9577
9.7608 -4.1738 -1.9954 0.9577
10.0938 -3.2879 -1.9954 0.9577
10.3465 -2.3758 -1.9954 0.9577
10.5170 -1.4448 -1.9954 0.9577
10.6039 -0.5023 -1.9954 0.9577
10.6065 0.4441 -1.9954 0.9577
9.7836 4.1202 -1.9954 0.9577
8.2187 5.3490 -1.8432 0.9609
7.7096 6.0598 -1.8432 0.9609
7.1392 6.7224 -1.8432 0.9609
6.5121 7.3315 -1.8432 0.9609
4.9614 6.7043 -1.5677 0.9666
4.2028 6.8873 -1.5165 0.9677
4.3421 8.7923 -1.8432 0.9609
3.5417 9.1441 -1.8432 0.9609
0.9982 9.7551 -1.8432 0.9609
0.1254 9.8053 -1.8432 0.9609
-3.3067 9.2317 -1.8432 0.9609
-4.2046 7.3041 -1.5841 0.9663
-4.4685 6.3729 -1.4630 0.9688
-5.3600 6.3547 -1.5626 0.9667
-7.5521 6.2550 -1.8432 0.9609
-8.0792 5.5575 -1.8432 0.9609
-8.5421 4.8158 -1.8432 0.9609
-10.0258 3.4900 -1.9954 0.9577
-10.4860 1.6558 -1.9954 0.9577
-10.6134 -0.2310 -1.9954 0.9577
-9.8645 -3.9229 -1.9954 0.9577
-9.4759 -4.7859 -1.9954 0.9577
-8.4764 -6.3912 -1.9954 0.9577
-2.2636 -2.9336 -0.6965 0.9850
-1.5386 -2.9639 -0.6277 0.9865
-1.2616 -3.0725 -0.6243 0.9866
-1.2926 -10.5369 -1.9954 0.9577
-0.3490 -10.6101 -1.9954 0.9577
0.5974 -10.5990 -1.9954 0.9577
3.3783 -10.0639 -1.9954 0.9577
6.6802 -8.2505 -1.9954 0.9577
7.3885 -7.6227 -1.9954 0.9577
8.6237 -6.1909 -1.9954 0.9577
9.1408 -5.3982 -1.9954 0.9577
9.5853 -4.5626 -1.9954 0.9577
10.5720 0.9631 -1.9954 0.9577
10.2334 2.8236 -1.9954 0.9577
9.9412 3.7239 -1.9954 0.9577
-2.9473 -2.8891 -0.8724 0.9833
-2.4609 -2.8853 -0.8016 0.9846
-2.0549 -2.8968 -0.7507 0.9856
-1.6985 -2.9135 -0.7129 0.9863
-1.3725 -2.9259 -0.6831 0.9869
-0.8893 -3.3396 -0.7305 0.9860
-0.6790 -3.9304 -0.8431 0.9838
-0.7721 -9.4081 -1.9954 0.9621
0.9094 -9.3958 -1.9954 0.9621
2.5621 -9.0854 -1.9954 0.9621
3.3611 -8.8210 -1.9954 0.9621
4.1334 -8.4866 -1.9954 0.9621
7.3894 -5.8740 -1.9954 0.9621
8.3144 -4.4697 -1.9954 0.9621
8.6794 -3.7114 -1.9954 0.9621
8.9755 -2.9236 -1.9954 0.9621
9.2002 -2.1126 -1.9954 0.9621
9.3518 -1.2847 -1.9954 0.9621
9.4314 0.3949 -1.9954 0.9621
9.2117 2.0620 -1.9954 0.9621
8.3268 4.4177 -1.9925 0.9622
5.7906 6.5193 -1.8432 0.9650
4.9242 6.6541 -1.7498 0.9667
3.8610 7.8182 -1.8432 0.9650
0.1115 8.7189 -1.8432 0.9650
-0.6655 8.6942 -1.8432 0.9650
-2.9404 8.2089 -1.8432 0.9650
-3.6598 7.9144 -1.8432 0.9650
-4.4685 6.3729 -1.6453 0.9687
-5.3164 6.3030 -1.7430 0.9669
-6.7154 5.5620 -1.8432 0.9650
-7.1841 4.9418 -1.8432 0.9650
-8.6032 3.8851 -1.9954 0.9621
-9.1560 2.2970 -1.9954 0.9621
-9.4183 0.6360 -1.9954 0.9621
-9.4375 -0.2054 -1.9954 0.9621
-9.0474 -2.6931 -1.9954 0.9621
-8.7716 -3.4882 -1.9954 0.9621
-8.4260 -4.2556 -1.9954 0.9621
-8.0135 -4.9892 -1.9954 0.9621
-3.1855 -2.8810 -0.9079 0.9826
-2.2279 -2.8874 -0.7709 0.9852
-1.8548 -2.9066 -0.7288 0.9860
-1.2170 -2.9640 -0.6773 0.9870
-0.7682 -3.5823 -0.7744 0.9851
1.3686 -9.3400 -1.9954 0.9621
3.0040 -8.9489 -1.9954 0.9621
3.7891 -8.6458 -1.9954 0.9621
4.5441 -8.2740 -1.9954 0.9621
7.6683 -5.5050 -1.9954 0.9621
8.1281 -4.8001 -1.9954 0.9621
8.5233 -4.0571 -1.9954 0.9621
8.8508 -3.2818 -1.9954 0.9621
9.2927 -1.6594 -1.9954 0.9621
9.4035 -0.8251 -1.9954 0.9621
9.4397 0.0157 -1.9954 0.9621
8.8398 3.3113 -1.9954 0.9621
-2.9111 -2.8536 -0.9581 0.9834
-1.3542 -2.8868 -0.7494 0.9870
-1.0739 -2.9469 -0.7371 0.9872
-0.6187 -3.5811 -0.8541 0.9852
0.0620 -8.4898 -1.9954 0.9657
0.8179 -8.4506 -1.9954 0.9657
1.5673 -8.3441 -1.9954 0.9657
2.3043 -8.1714 -1.9954 0.9657
3.0230 -7.9337 -1.9954 0.9657
3.7176 -7.6329 -1.9954 0.9657
4.3826 -7.2714 -1.9954 0.9657
5.6032 -6.3785 -1.9954 0.9657
6.1491 -5.8540 -1.9954 0.9657
6.6461 -5.2831 -1.9954 0.9657
7.0902 -4.6701 -1.9954 0.9657
8.0726 -2.6295 -1.9954 0.9657
8.4111 -1.1555 -1.9954 0.9657
7.4999 3.9790 -1.9954 0.9657
6.7174 4.3719 -1.8837 0.9676
5.7096 5.3762 -1.8432 0.9683
5.2081 5.8635 -1.8432 0.9683
4.0851 6.6945 -1.8432 0.9683
3.4726 7.0317 -1.8432 0.9683
2.1699 7.5363 -1.8432 0.9683
1.4901 7.6996 -1.8432 0.9683
0.7983 7.8017 -1.8432 0.9683
0.1003 7.8418 -1.8432 0.9683
-0.5986 7.8196 -1.8432 0.9683
-1.2927 7.7352 -1.8432 0.9683
-2.6446 7.3831 -1.8432 0.9683
-3.2917 7.1182 -1.8432 0.9683
-4.4310 6.3194 -1.8139 0.9688
-5.0564 5.9947 -1.8432 0.9683
-5.5703 5.5205 -1.8432 0.9683
-6.0399 5.0025 -1.8432 0.9683
-6.4614 4.4446 -1.8432 0.9683
-7.2835 4.1062 -1.9651 0.9662
-8.0182 2.7911 -1.9954 0.9657
-8.2349 2.0659 -1.9954 0.9657
-8.3862 1.3242 -1.9954 0.9657
-8.4708 0.5720 -1.9954 0.9657
-8.4881 -0.1847 -1.9954 0.9657
-8.1372 -2.4222 -1.9954 0.9657
-7.2073 -4.4873 -1.9954 0.9657
-3.1394 -2.8393 -0.9948 0.9828
-1.8274 -2.8636 -0.7984 0.9861
-1.1869 -2.8905 -0.7344 0.9872
-0.4983 -4.0617 -0.9617 0.9833
-0.1429 -4.3435 -1.0214 0.9823
0.4778 -8.4766 -1.9954 0.9657
1.2309 -8.4004 -1.9954 0.9657
1.9742 -8.2573 -1.9954 0.9657
4.0870 -7.4416 -1.9954 0.9657
5.3425 -6.5984 -1.9954 0.9657
6.8969 -4.9512 -1.9954 0.9657
7.9604 -2.9517 -1.9954 0.9657
8.3578 -1.4924 -1.9954 0.9657
8.4900 0.0141 -1.9954 0.9657
8.4550 0.7703 -1.9954 0.9657
8.3528 1.5203 -1.9954 0.9657
7.9506 2.9782 -1.9954 0.9657
-2.8755 -2.8187 -1.0425 0.9835
-2.4149 -2.8314 -0.9635 0.9847
-1.9929 -2.8094 -0.8918 0.9859
-1.6498 -2.8299 -0.8481 0.9866
-0.3046 -3.7113 -0.9641 0.9847
0.0281 -3.8414 -0.9946 0.9843
0.4031 -4.1646 -1.0833 0.9829
2.0917 -7.4173 -1.9954 0.9687
2.7440 -7.2015 -1.9954 0.9687
3.9782 -6.6004 -1.9954 0.9687
4.5369 -6.2016 -1.9895 0.9687
5.0861 -5.7898 -1.9954 0.9687
5.5816 -5.3138 -1.9954 0.9687
6.0327 -4.7955 -1.9954 0.9687
6.4358 -4.2392 -1.9954 0.9687
7.0859 -3.0300 -1.9954 0.9687
7.5111 -1.7247 -1.9954 0.9687
7.6979 -0.3647 -1.9954 0.9687
7.6998 0.3224 -1.9954 0.9687
7.5204 1.6835 -1.9954 0.9687
5.5968 4.3991 -1.8432 0.9710
5.1827 4.8801 -1.8432 0.9710
4.7275 5.3223 -1.8432 0.9710
3.1522 6.3828 -1.8432 0.9710
2.5711 6.6382 -1.8432 0.9710
1.9697 6.8408 -1.8432 0.9710
1.3526 6.9890 -1.8432 0.9710
-0.5433 7.0979 -1.8432 0.9710
-2.4005 6.7018 -1.8432 0.9710
-2.9879 6.4613 -1.8432 0.9710
-4.0869 5.8287 -1.8432 0.9710
-4.5898 5.4415 -1.8432 0.9710
-5.4824 4.5408 -1.8432 0.9710
-5.8651 4.0345 -1.8432 0.9710
-6.7019 3.7783 -1.9920 0.9687
-7.4749 1.8752 -1.9954 0.9687
-7.6592 -0.8533 -1.9954 0.9687
-7.3863 -2.1987 -1.9954 0.9687
-6.8790 -3.4743 -1.9954 0.9687
-3.7195 -2.8045 -1.2061 0.9809
-3.0942 -2.7984 -1.0802 0.9829
-2.1590 -2.7981 -0.9151 0.9855
-1.8004 -2.8214 -0.8666 0.9863
-1.4746 -2.8408 -0.8287 0.9869
-0.1245 -3.7847 -0.9805 0.9845
0.2204 -3.9099 -1.0139 0.9839
1.1173 -7.6251 -1.9954 0.9687
1.7920 -7.4953 -1.9954 0.9687
2.4525 -7.3059 -1.9954 0.9687
3.7098 -6.7549 -1.9954 0.9687
4.2967 -6.3976 -1.9954 0.9687
4.8494 -5.9895 -1.9954 0.9687
5.3636 -5.5337 -1.9954 0.9687
5.8352 -5.0340 -1.9954 0.9687
6.9584 -3.3122 -1.9954 0.9687
7.2258 -2.6793 -1.9954 0.9687
7.4357 -2.0250 -1.9954 0.9687
7.5865 -1.3547 -1.9954 0.9687
7.7065 0.0128 -1.9954 0.9687
7.6747 0.6992 -1.9954 0.9687
7.2168 2.7033 -1.9954 0.9687
-2.3922 -2.8048 -1.0436 0.9848
-1.0290 -2.8238 -0.8508 0.9876
-0.7917 -2.9731 -0.8710 0.9873
-0.2796 -3.4064 -0.9676 0.9859
0.0255 -3.4976 -0.9902 0.9856
0.3511 -3.6278 -1.0318 0.9850
1.3012 -6.9273 -1.9954 0.9711
1.9130 -6.7839 -1.9954 0.9711
4.1617 -5.6887 -1.9954 0.9711
5.8863 -3.8772 -1.9954 0.9711
6.9828 -0.9593 -1.9954 0.9711
7.0422 0.2949 -1.9954 0.9711
6.4959 2.7356 -1.9954 0.9711
5.4522 4.2855 -1.9632 0.9716
4.7401 4.4633 -1.8432 0.9733
4.3237 4.8678 -1.8432 0.9733
3.8730 5.2336 -1.8432 0.9733
0.6628 6.4770 -1.8432 0.9733
0.0833 6.5103 -1.8432 0.9733
-1.0732 6.4218 -1.8432 0.9733
-1.6409 6.3006 -1.8432 0.9733
-2.1955 6.1294 -1.8432 0.9733
-3.2482 5.6427 -1.8432 0.9733
-3.7379 5.3309 -1.8432 0.9733
-4.1978 4.9768 -1.8432 0.9733
-4.6244 4.5831 -1.8432 0.9733
-5.7853 3.9795 -1.9878 0.9712
-6.8366 1.7151 -1.9954 0.9711
-6.9622 1.0994 -1.9954 0.9711
-7.0324 0.4749 -1.9954 0.9711
-7.0051 -0.7804 -1.9954 0.9711
-6.9078 -1.4012 -1.9954 0.9711
-6.7555 -2.0109 -1.9954 0.9711
-6.2915 -3.1776 -1.9954 0.9711
-5.9835 -3.7254 -1.9954 0.9711
-1.4549 -2.8028 -0.8940 0.9870
-1.1560 -2.8152 -0.8615 0.9874
-0.8914 -2.8773 -0.8527 0.9876
-0.4123 -3.3608 -0.9586 0.9860
2.2430 -6.6820 -1.9954 0.9711
3.3930 -6.1780 -1.9954 0.9711
3.9298 -5.8512 -1.9954 0.9711
4.9056 -5.0612 -1.9954 0.9711
5.3369 -4.6041 -1.9954 0.9711
5.7258 -4.1105 -1.9954 0.9711
6.0691 -3.5842 -1.9954 0.9711
6.6087 -2.4505 -1.9954 0.9711
7.0214 -0.6161 -1.9954 0.9711
7.0484 0.0117 -1.9954 0.9711
7.0193 0.6395 -1.9954 0.9711
6.7945 1.8748 -1.9954 0.9711
-2.8174 -2.7618 -1.2135 0.9836
-2.3696 -2.7783 -1.1231 0.9848
-1.6049 -2.7529 -0.9801 0.9868
-1.3014 -2.7743 -0.9425 0.9873
-1.0172 -2.7915 -0.9138 0.9876
-0.7675 -2.8821 -0.9174 0.9876
-0.2592 -3.1588 -0.9748 0.9868
2.8406 -5.8323 -1.9954 0.9732
3.3488 -5.5562 -1.9954 0.9732
4.2815 -4.8738 -1.9954 0.9732
5.0783 -4.0369 -1.9954 0.9732
5.4177 -3.5685 -1.9954 0.9732
5.7140 -3.0718 -1.9954 0.9732
6.4816 0.2714 -1.9954 0.9732
6.4317 0.8476 -1.9954 0.9732
6.3306 1.4171 -1.9954 0.9732
5.9788 2.5179 -1.9954 0.9732
3.9795 4.4803 -1.8432 0.9752
3.5647 4.8169 -1.8432 0.9752
2.6535 5.3730 -1.8432 0.9752
0.6100 5.9614 -1.8432 0.9752
-0.3659 4.7800 -1.4745 0.9801
-1.5102 5.7991 -1.8432 0.9752
-2.9896 5.1935 -1.8432 0.9752
-3.8637 4.5806 -1.8432 0.9752
-4.2563 4.2183 -1.8432 0.9752
-4.8422 4.0105 -1.9339 0.9740
-5.3388 3.6724 -1.9931 0.9732
-5.6511 3.1859 -1.9954 0.9732
-5.9124 2.6700 -1.9954 0.9732
-6.2924 1.5786 -1.9954 0.9732
-6.4079 1.0119 -1.9954 0.9732
-6.4858 -0.1411 -1.9954 0.9732
-6.4475 -0.7183 -1.9954 0.9732
-6.3579 -1.2897 -1.9954 0.9732
-3.6868 -2.7799 -1.4202 0.9809
-2.5958 -2.8068 -1.1759 0.9841
-1.7494 -2.7414 -1.0003 0.9865
-1.4355 -2.7653 -0.9583 0.9870
-0.8699 -2.8076 -0.9041 0.9878
-0.6430 -2.9983 -0.9432 0.9872
-0.3837 -3.1276 -0.9692 0.9869
-0.1056 -3.2113 -0.9882 0.9866
0.1846 -3.2751 -1.0090 0.9864
3.6169 -5.3854 -1.9954 0.9732
4.0822 -5.0419 -1.9954 0.9732
4.5151 -4.6583 -1.9954 0.9732
4.9120 -4.2376 -1.9954 0.9732
5.2699 -3.7833 -1.9954 0.9732
6.0826 -2.2554 -1.9954 0.9732
6.2593 -1.7047 -1.9954 0.9732
6.2536 1.7255 -1.9954 0.9732
-2.8000 -2.7447 -1.3033 0.9836
-0.7444 -2.7954 -0.9616 0.9879
-0.5007 -2.8983 -0.9777 0.9877
0.3008 -3.1080 -1.0379 0.9869
2.1373 -5.6094 -1.9954 0.9750
2.6285 -5.3967 -1.9954 0.9750
3.0987 -5.1412 -1.9954 0.9750
3.5443 -4.8447 -1.9954 0.9750
3.9617 -4.5098 -1.9954 0.9750
4.6990 -3.7353 -1.9954 0.9750
5.5193 -2.3601 -1.9954 0.9750
5.7076 -1.8592 -1.9954 0.9750
5.9469 -0.8170 -1.9954 0.9750
5.9513 0.7843 -1.9954 0.9750
5.8578 1.3113 -1.9954 0.9750
5.7177 1.8278 -1.9954 0.9750
5.5322 2.3298 -1.9954 0.9750
5.0311 3.2744 -1.9954 0.9750
4.7194 3.7095 -1.9954 0.9750
3.2984 4.4572 -1.8432 0.9769
2.4553 4.9717 -1.8432 0.9769
1.5342 5.3284 -1.8432 0.9769
0.0709 5.5445 -1.8432 0.9769
-0.3643 4.7593 -1.5867 0.9801
-0.9140 5.4691 -1.8432 0.9769
-1.8698 5.2201 -1.8432 0.9769
-3.1834 4.5401 -1.8432 0.9769
-4.6127 3.8204 -1.9909 0.9751
-5.4708 2.4705 -1.9954 0.9750
-5.8224 1.4607 -1.9954 0.9750
-5.9892 0.4044 -1.9954 0.9750
-6.0014 -0.1306 -1.9954 0.9750
-5.9659 -0.6646 -1.9954 0.9750
-5.5779 -2.2182 -1.9954 0.9750
-5.3582 -2.7062 -1.9954 0.9750
-5.0959 -3.1727 -1.9954 0.9750
-2.9816 -2.6965 -1.3363 0.9832
-2.1037 -2.7264 -1.1447 0.9856
-1.7321 -2.7143 -1.0703 0.9865
-1.4163 -2.7283 -1.0218 0.9871
-0.8599 -2.7756 -0.9659 0.9878
-0.6132 -2.8595 -0.9721 0.9877
1.3958 -5.8383 -1.9954 0.9750
1.9103 -5.6907 -1.9954 0.9750
2.8897 -5.2615 -1.9954 0.9750
3.7773 -4.6653 -1.9954 0.9750
4.1778 -4.3103 -1.9954 0.9750
4.5451 -3.9211 -1.9954 0.9750
5.1687 -3.0525 -1.9954 0.9750
5.4201 -2.5800 -1.9954 0.9750
5.9093 -1.0552 -1.9954 0.9750
6.0028 0.0100 -1.9954 0.9750
5.9058 1.0749 -1.9954 0.9750
5.7865 1.5966 -1.9954 0.9750
-2.3248 -2.7257 -1.2811 0.9849
-1.9372 -2.7308 -1.1973 0.9859
-1.5778 -2.7064 -1.1203 0.9868
-0.9941 -2.7280 -1.0383 0.9877
0.2845 -2.9395 -1.0561 0.9875
1.5144 -5.3703 -1.9954 0.9766
1.9868 -5.2141 -1.9954 0.9766
2.8803 -4.7789 -1.9954 0.9766
3.2945 -4.5033 -1.9954 0.9766
3.6825 -4.1920 -1.9954 0.9766
4.3679 -3.4721 -1.9954 0.9766
4.6597 -3.0693 -1.9954 0.9766
5.1304 -2.1938 -1.9954 0.9766
5.5735 -0.2640 -1.9954 0.9766
5.5319 0.7291 -1.9954 0.9766
5.3148 1.6990 -1.9954 0.9766
5.1423 2.1656 -1.9954 0.9766
4.9290 2.6150 -1.9954 0.9766
4.6765 3.0437 -1.9954 0.9766
4.3868 3.4481 -1.9954 0.9766
4.0612 3.8241 -1.9948 0.9766
3.6937 4.1584 -1.9890 0.9766
3.1354 4.2369 -1.8849 0.9779
2.6848 4.3997 -1.8432 0.9783
2.2823 4.6213 -1.8432 0.9783
1.8616 4.8062 -1.8432 0.9783
0.5247 5.1274 -1.8432 0.9783
-2.5714 4.4669 -1.8432 0.9783
-3.4211 4.0560 -1.8975 0.9777
-3.9517 3.9164 -1.9896 0.9766
-4.2972 3.5592 -1.9954 0.9766
-4.5972 3.1623 -1.9954 0.9766
-5.2696 1.8344 -1.9954 0.9766
-5.4121 1.3577 -1.9954 0.9766
-5.5115 0.8703 -1.9954 0.9766
-5.5671 0.3759 -1.9954 0.9766
-5.5785 -0.1214 -1.9954 0.9766
-5.5455 -0.6178 -1.9954 0.9766
-5.4684 -1.1092 -1.9954 0.9766
-5.1848 -2.0619 -1.9954 0.9766
-4.7367 -2.9491 -1.9954 0.9766
-3.7253 -2.8089 -1.6685 0.9804
-2.1052 -2.7284 -1.2324 0.9855
-1.3973 -2.6918 -1.0846 0.9872
-0.8501 -2.7438 -1.0272 0.9879
-0.3415 -2.7833 -1.0028 0.9882
-0.0940 -2.8577 -1.0225 0.9879
0.1632 -2.8962 -1.0373 0.9878
0.4444 -3.0326 -1.0961 0.9871
1.7757 -5.2897 -1.9954 0.9766
2.6860 -4.8907 -1.9954 0.9766
4.2248 -3.6448 -1.9954 0.9766
4.5327 -3.2540 -1.9954 0.9766
4.8045 -2.8373 -1.9954 0.9766
5.0381 -2.3981 -1.9954 0.9766
5.3837 -1.4662 -1.9954 0.9766
5.5797 0.0093 -1.9954 0.9766
5.5567 0.5062 -1.9954 0.9766
5.4896 0.9991 -1.9954 0.9766
5.2252 1.9573 -1.9954 0.9766
-2.3247 -2.7256 -1.3728 0.9848
-1.9386 -2.7329 -1.2840 0.9857
-1.5806 -2.7113 -1.2027 0.9866
-1.2595 -2.6849 -1.1365 0.9874
-0.4735 -2.7409 -1.0659 0.9882
0.0200 -2.7343 -1.0479 0.9884
0.5516 -2.9364 -1.1450 0.9873
2.2799 -4.6812 -1.9954 0.9779
3.4364 -3.9118 -1.9954 0.9779
4.0759 -3.2401 -1.9954 0.9779
4.3483 -2.8642 -1.9954 0.9779
4.7875 -2.0472 -1.9954 0.9779
5.0748 -1.1653 -1.9954 0.9779
5.1584 -0.7086 -1.9954 0.9779
5.2010 -0.2464 -1.9954 0.9779
5.2023 0.2178 -1.9954 0.9779
5.0811 1.1374 -1.9954 0.9779
4.9596 1.5855 -1.9954 0.9779
4.7987 2.0209 -1.9954 0.9779
4.5996 2.4403 -1.9954 0.9779
4.0937 3.2176 -1.9954 0.9779
1.7372 4.4850 -1.8432 0.9796
1.3308 4.6219 -1.8432 0.9796
0.4896 4.7847 -1.8432 0.9796
0.0615 4.8093 -1.8432 0.9796
-2.0187 4.3655 -1.8432 0.9796
-2.3995 4.1684 -1.8432 0.9796
-2.8538 4.0701 -1.9049 0.9789
-3.6958 3.6627 -1.9940 0.9780
-4.0100 3.3213 -1.9954 0.9779
-4.9174 1.7118 -1.9954 0.9779
-5.1431 0.8121 -1.9954 0.9779
-2.2944 -0.0499 -0.8795 0.9902
-2.3023 -0.2565 -0.8877 0.9901
-5.1029 -1.0351 -1.9954 0.9779
-4.9905 -1.4855 -1.9954 0.9779
-4.8383 -1.9241 -1.9954 0.9779
-4.4202 -2.7520 -1.9954 0.9779
-4.1575 -3.1348 -1.9954 0.9779
-2.9816 -2.6965 -1.5406 0.9829
-2.1068 -2.7305 -1.3216 0.9853
-1.7385 -2.7243 -1.2385 0.9863
-1.3997 -2.6965 -1.1643 0.9871
-1.1024 -2.6847 -1.1122 0.9876
-0.5893 -2.7479 -1.0770 0.9880
-0.3355 -2.7350 -1.0559 0.9883
0.4184 -2.8554 -1.1059 0.9877
1.6570 -4.9362 -1.9954 0.9779
2.0900 -4.7690 -1.9954 0.9779
2.5065 -4.5639 -1.9954 0.9779
3.2765 -4.0467 -1.9954 0.9779
3.6239 -3.7388 -1.9954 0.9779
3.9425 -3.4012 -1.9954 0.9779
4.7014 -2.2379 -1.9954 0.9779
5.1854 0.4724 -1.9954 0.9779
5.1227 0.9324 -1.9954 0.9779
5.0193 1.3849 -1.9954 0.9779
-2.3266 -2.7278 -1.4673 0.9846
-1.2617 -2.6896 -1.2159 0.9872
-0.9713 -2.6654 -1.1611 0.9878
-0.7221 -2.7118 -1.1486 0.9879
-0.4710 -2.7265 -1.1324 0.9881
0.2635 -2.7225 -1.1195 0.9882
0.5250 -2.7948 -1.1639 0.9878
1.7359 -4.5558 -1.9954 0.9791
2.1348 -4.3831 -1.9954 0.9791
2.5167 -4.1756 -1.9954 0.9791
2.8786 -3.9348 -1.9954 0.9791
3.2176 -3.6628 -1.9954 0.9791
4.2942 -2.3085 -1.9954 0.9791
4.8699 -0.2307 -1.9954 0.9791
4.8711 0.2040 -1.9954 0.9791
4.6438 1.4845 -1.9954 0.9791
4.0861 2.6594 -1.9954 0.9791
3.2377 3.6451 -1.9954 0.9791
2.8964 3.9139 -1.9928 0.9792
2.0751 4.2019 -1.9180 0.9799
1.6294 4.2067 -1.8463 0.9807
1.2461 4.3277 -1.8432 0.9807
0.8557 4.4214 -1.8432 0.9807
-0.7423 4.4419 -1.8432 0.9807
-1.5186 4.2397 -1.8432 0.9807
-1.8987 4.1060 -1.8515 0.9806
-4.6044 1.6028 -1.9954 0.9791
-2.0336 0.3211 -0.8426 0.9911
-2.0770 -0.4213 -0.8674 0.9909
-4.6727 -1.3909 -1.9954 0.9791
-4.5303 -1.8016 -1.9954 0.9791
-4.3518 -2.1979 -1.9954 0.9791
-2.9816 -2.6965 -1.6453 0.9828
-0.8322 -2.6861 -1.1509 0.9879
-0.5862 -2.7333 -1.1441 0.9880
-0.0891 -2.7078 -1.1088 0.9884
0.1524 -2.7041 -1.1085 0.9884
0.4035 -2.7540 -1.1392 0.9880
0.7346 -3.0725 -1.2930 0.9864
1.9570 -4.4653 -1.9954 0.9791
2.3469 -4.2733 -1.9954 0.9791
2.7182 -4.0473 -1.9954 0.9791
3.0679 -3.7891 -1.9954 0.9791
3.9605 -2.8432 -1.9954 0.9791
4.1980 -2.4791 -1.9954 0.9791
4.8567 -0.4261 -1.9954 0.9791
4.8753 0.0081 -1.9954 0.9791
4.8552 0.4423 -1.9954 0.9791
-1.2639 -2.6944 -1.2970 0.9871
-0.7155 -2.6867 -1.2117 0.9879
-0.4685 -2.7119 -1.1994 0.9881
0.0195 -2.6775 -1.1669 0.9884
0.2615 -2.7020 -1.1831 0.9882
0.5211 -2.7744 -1.2303 0.9878
1.6302 -4.2784 -1.9954 0.9802
2.7033 -3.6952 -1.9954 0.9802
3.0217 -3.4397 -1.9954 0.9802
3.5840 -2.8490 -1.9954 0.9802
3.8235 -2.5185 -1.9954 0.9802
4.3533 -1.4180 -1.9954 0.9802
4.4623 -1.0246 -1.9954 0.9802
4.5744 0.1915 -1.9954 0.9802
4.4679 1.0001 -1.9954 0.9802
3.8373 2.4975 -1.9954 0.9802
3.0405 3.4231 -1.9954 0.9802
2.3818 3.9031 -1.9927 0.9802
2.0212 4.0927 -1.9893 0.9803
1.6200 4.1827 -1.9548 0.9806
1.2042 4.1821 -1.8967 0.9812
0.8087 4.1790 -1.8551 0.9816
0.4305 4.2072 -1.8432 0.9817
0.0541 4.2289 -1.8432 0.9817
-0.3228 4.2169 -1.8432 0.9817
-0.6971 4.1714 -1.8432 0.9817
-1.0748 4.1271 -1.8587 0.9816
-1.4716 4.1083 -1.9019 0.9811
-3.2519 3.2229 -1.9954 0.9802
-3.5261 2.9204 -1.9954 0.9802
-4.1727 1.8843 -1.9954 0.9802
-1.4901 0.5187 -0.6876 0.9931
-1.4713 -0.1639 -0.6452 0.9936
-1.4746 -0.2991 -0.6557 0.9935
-1.4937 -0.4446 -0.6792 0.9932
-3.8867 -2.4199 -1.9954 0.9802
-3.6557 -2.7564 -1.9954 0.9802
-2.9816 -2.6965 -1.7520 0.9826
-1.7420 -2.7298 -1.4113 0.9860
-0.8245 -2.6612 -1.2142 0.9879
-0.3300 -2.6900 -1.1811 0.9882
0.1513 -2.6841 -1.1716 0.9883
0.4005 -2.7334 -1.2040 0.9880
0.7300 -3.0536 -1.3683 0.9864
1.4570 -4.3404 -1.9954 0.9802
2.8810 -3.5583 -1.9954 0.9802
3.1865 -3.2876 -1.9954 0.9802
3.7193 -2.6700 -1.9954 0.9802
4.1340 -1.9678 -1.9954 0.9802
4.2928 -1.5917 -1.9954 0.9802
4.4175 -1.2031 -1.9954 0.9802
4.5071 -0.8048 -1.9954 0.9802
4.5609 -0.4002 -1.9954 0.9802
4.5595 0.4154 -1.9954 0.9802
4.2875 1.6060 -1.9954 0.9802
-2.3304 -2.7323 -1.6623 0.9843
-1.9432 -2.7392 -1.5546 0.9853
-1.2662 -2.6993 -1.3801 0.9869
-0.9738 -2.6725 -1.3166 0.9875
-0.7088 -2.6616 -1.2749 0.9879
-0.2189 -2.6672 -1.2387 0.9883
0.0194 -2.6527 -1.2279 0.9884
0.2595 -2.6814 -1.2470 0.9882
0.5182 -2.7589 -1.2994 0.9877
2.5452 -3.4791 -1.9954 0.9812
2.8450 -3.2386 -1.9954 0.9812
3.3744 -2.6824 -1.9954 0.9812
3.5999 -2.3712 -1.9954 0.9812
3.7968 -2.0411 -1.9954 0.9812
4.0987 -1.3351 -1.9954 0.9812
4.2014 -0.9647 -1.9954 0.9812
4.2706 -0.5867 -1.9954 0.9812
4.3059 -0.2040 -1.9954 0.9812
4.3069 0.1803 -1.9954 0.9812
4.2066 0.9417 -1.9954 0.9812
3.8080 2.0203 -1.9954 0.9812
3.3891 2.6639 -1.9954 0.9812
3.1384 2.9551 -1.9954 0.9812
2.2454 3.6797 -1.9954 0.9812
1.9067 3.8609 -1.9932 0.9812
1.5532 4.0100 -1.9905 0.9812
1.1885 4.1279 -1.9884 0.9812
0.8049 4.1593 -1.9610 0.9815
0.4251 4.1542 -1.9329 0.9818
0.0530 4.1465 -1.9195 0.9819
-0.3166 4.1363 -1.9202 0.9819
-0.6891 4.1234 -1.9351 0.9817
-1.0697 4.1076 -1.9648 0.9815
-1.4487 4.0444 -1.9886 0.9812
-1.8052 3.9037 -1.9908 0.9812
-2.4748 3.5295 -1.9954 0.9812
-3.0618 3.0344 -1.9954 0.9812
-3.3199 2.7497 -1.9954 0.9812
-3.7551 2.1170 -1.9954 0.9812
-1.2561 0.5673 -0.6380 0.9939
-1.2644 0.4402 -0.6197 0.9941
-1.2702 0.3187 -0.6062 0.9942
-1.2741 0.2012 -0.5971 0.9943
-1.2709 0.0858 -0.5896 0.9944
-1.2700 -0.3780 -0.6133 0.9942
-1.2539 -0.4986 -0.6246 0.9941
-3.8478 -1.9434 -1.9954 0.9812
-2.9816 -2.6965 -1.8608 0.9824
-2.5446 -2.7514 -1.7347 0.9836
-2.1117 -2.7369 -1.6001 0.9849
-1.7434 -2.7319 -1.5001 0.9858
-1.1020 -2.6838 -1.3430 0.9873
-0.8252 -2.6634 -1.2907 0.9878
-0.3282 -2.6752 -1.2476 0.9882
-0.0874 -2.6559 -1.2301 0.9884
0.1501 -2.6639 -1.2351 0.9883
0.3987 -2.7213 -1.2731 0.9880
2.7126 -3.3502 -1.9954 0.9812
3.2640 -2.8158 -1.9954 0.9812
3.5018 -2.5139 -1.9954 0.9812
3.7118 -2.1920 -1.9954 0.9812
3.8923 -1.8527 -1.9954 0.9812
4.0418 -1.4987 -1.9954 0.9812
4.1592 -1.1327 -1.9954 0.9812
4.2942 -0.3768 -1.9954 0.9812
4.1554 1.1466 -1.9954 0.9812
4.0368 1.5121 -1.9954 0.9812
-1.9447 -2.7414 -1.6487 0.9851
-1.5906 -2.7284 -1.5492 0.9860
-1.2686 -2.7043 -1.4652 0.9868
-0.9765 -2.6797 -1.3990 0.9874
-0.7089 -2.6622 -1.3514 0.9878
-0.2207 -2.6887 -1.3233 0.9881
0.5158 -2.7462 -1.3706 0.9876
1.1041 -3.9151 -1.9954 0.9820
1.4484 -3.8012 -1.9954 0.9820
1.7812 -3.6571 -1.9954 0.9820
2.4018 -3.2831 -1.9954 0.9820
3.1843 -2.5313 -1.9954 0.9820
3.3971 -2.2376 -1.9954 0.9820
3.5829 -1.9261 -1.9954 0.9820
3.7402 -1.5994 -1.9954 0.9820
4.0329 0.5315 -1.9954 0.9820
3.9696 0.8886 -1.9954 0.9820
3.8747 1.2386 -1.9954 0.9820
3.1981 2.5138 -1.9954 0.9820
2.4198 3.2698 -1.9954 0.9820
2.1189 3.4724 -1.9954 0.9820
1.8012 3.6473 -1.9954 0.9820
1.1237 3.9027 -1.9922 0.9821
0.7710 3.9842 -1.9906 0.9821
0.0519 4.0547 -1.9891 0.9821
-0.3095 4.0432 -1.9891 0.9821
-0.6686 4.0007 -1.9897 0.9821
-1.0228 3.9274 -1.9907 0.9821
-2.0294 3.5254 -1.9954 0.9820
-2.3354 3.3306 -1.9954 0.9820
-2.6227 3.1094 -1.9954 0.9820
-2.8893 2.8635 -1.9954 0.9820
-3.1328 2.5947 -1.9954 0.9820
-3.5435 1.9977 -1.9954 0.9820
-1.1429 0.1805 -0.5676 0.9949
-1.1430 0.0772 -0.5619 0.9949
-1.1442 -0.1275 -0.5647 0.9949
-1.1375 -0.2308 -0.5694 0.9948
-1.0895 -0.5503 -0.5987 0.9946
-2.9816 -2.6965 -1.9719 0.9822
-2.7620 -2.9864 -1.9954 0.9820
-2.1135 -2.7391 -1.6970 0.9847
-1.4101 -2.7164 -1.5013 0.9865
-0.8274 -2.6705 -1.3713 0.9876
-0.3264 -2.6608 -1.3150 0.9881
0.3969 -2.7090 -1.3430 0.9879
1.2945 -3.8564 -1.9954 0.9820
1.6328 -3.7257 -1.9954 0.9820
1.9582 -3.5655 -1.9954 0.9820
2.2680 -3.3769 -1.9954 0.9820
2.5597 -3.1615 -1.9954 0.9820
3.0800 -2.6572 -1.9954 0.9820
3.6730 -1.7483 -1.9954 0.9820
3.8141 -1.4142 -1.9954 0.9820
3.9249 -1.0689 -1.9954 0.9820
4.0045 -0.7151 -1.9954 0.9820
4.0522 -0.3556 -1.9954 0.9820
4.0510 0.3691 -1.9954 0.9820
3.9213 1.0820 -1.9954 0.9820
3.8093 1.4269 -1.9954 0.9820
-2.4960 -2.9264 -1.9954 0.9828
-1.9463 -2.7437 -1.7451 0.9850
-1.5919 -2.7306 -1.6397 0.9859
-0.9792 -2.6872 -1.4837 0.9872
-0.7108 -2.6693 -1.4330 0.9876
-0.4602 -2.6637 -1.4024 0.9879
-0.2157 -2.6283 -1.3681 0.9882
0.0191 -2.6213 -1.3599 0.9883
0.5143 -2.7377 -1.4451 0.9875
3.2121 -2.1157 -1.9954 0.9828
3.3877 -1.8212 -1.9954 0.9828
3.6571 -1.1912 -1.9954 0.9828
3.7487 -0.8608 -1.9954 0.9828
3.8105 -0.5235 -1.9954 0.9828
3.8419 -0.1820 -1.9954 0.9828
3.8429 0.1609 -1.9954 0.9828
3.8133 0.5026 -1.9954 0.9828
3.7534 0.8402 -1.9954 0.9828
3.6636 1.1712 -1.9954 0.9828
2.2880 3.0917 -1.9954 0.9828
1.0642 3.6961 -1.9954 0.9828
0.7303 3.7739 -1.9942 0.9828
-0.2932 3.8300 -1.9927 0.9828
-0.6333 3.7896 -1.9933 0.9828
-0.9688 3.7201 -1.9943 0.9828
-1.2970 3.6210 -1.9954 0.9828
-1.6144 3.4911 -1.9954 0.9828
-2.2082 3.1492 -1.9954 0.9828
-2.7319 2.7075 -1.9954 0.9828
-3.1689 2.1798 -1.9954 0.9828
-1.0108 0.3518 -0.5552 0.9952
-1.0203 0.2560 -0.5457 0.9953
-1.0346 0.1634 -0.5434 0.9953
-1.0175 -0.3029 -0.5508 0.9952
-1.0006 -0.3979 -0.5586 0.9952
-0.9682 -0.4890 -0.5627 0.9951
-0.9690 -0.6033 -0.5921 0.9949
-2.6115 -2.8238 -1.9954 0.9828
-2.3496 -3.0452 -1.9954 0.9828
-1.7461 -2.7362 -1.6839 0.9855
-0.8296 -2.6777 -1.4543 0.9874
-0.5704 -2.6596 -1.4111 0.9878
-0.0863 -2.6245 -1.3622 0.9882
0.6967 -2.9142 -1.5544 0.9866
1.8515 -3.3713 -1.9954 0.9828
2.4203 -2.9893 -1.9954 0.9828
2.6769 -2.7618 -1.9954 0.9828
3.3119 -1.9558 -1.9954 0.9828
3.4729 -1.6531 -1.9954 0.9828
3.7864 -0.6761 -1.9954 0.9828
3.7077 1.0230 -1.9954 0.9828
-2.6017 -2.5503 -1.9954 0.9835
-2.3642 -2.7719 -1.9954 0.9835
-1.5931 -2.7327 -1.7325 0.9857
-1.2735 -2.7147 -1.6423 0.9864
-0.7128 -2.6766 -1.5170 0.9874
-0.4594 -2.6592 -1.4780 0.9878
-0.2157 -2.6283 -1.4444 0.9880
0.0191 -2.6213 -1.4357 0.9881
0.2582 -2.6680 -1.4681 0.9878
1.2972 -3.4044 -1.9954 0.9835
1.5952 -3.2753 -1.9954 0.9835
2.4044 -2.7370 -1.9954 0.9835
2.6386 -2.5120 -1.9954 0.9835
3.2088 -1.7250 -1.9954 0.9835
1.8836 -0.0892 -1.0328 0.9914
1.8826 0.0788 -1.0320 0.9914
1.8743 0.5992 -1.0777 0.9911
2.8643 2.2513 -1.9954 0.9835
2.6524 2.4975 -1.9954 0.9835
1.8977 3.1098 -1.9954 0.9835
1.6132 3.2665 -1.9954 0.9835
0.6922 3.5768 -1.9954 0.9835
0.0466 3.6428 -1.9954 0.9835
-0.2781 3.6325 -1.9954 0.9835
-0.6005 3.5933 -1.9954 0.9835
-0.9182 3.5255 -1.9954 0.9835
-1.2285 3.4298 -1.9954 0.9835
-1.5291 3.3067 -1.9954 0.9835
-2.0916 2.9829 -1.9954 0.9835
-2.3489 2.7848 -1.9954 0.9835
-2.5876 2.5645 -1.9954 0.9835
-0.9159 0.3188 -0.5311 0.9956
-0.9435 -0.0205 -0.5169 0.9957
-0.9471 -0.1055 -0.5219 0.9957
-0.9081 -0.3611 -0.5353 0.9956
-0.8877 -0.4483 -0.5447 0.9955
-0.8640 -0.5380 -0.5575 0.9954
-2.4736 -2.6747 -1.9954 0.9835
-2.2256 -2.8843 -1.9954 0.9835
-1.7475 -2.7385 -1.7792 0.9853
-1.4152 -2.7262 -1.6823 0.9861
-0.5719 -2.6667 -1.4938 0.9876
-0.3228 -2.6316 -1.4521 0.9880
-0.0863 -2.6245 -1.4382 0.9881
0.6980 -2.9194 -1.6440 0.9864
1.1594 -3.4538 -1.9954 0.9835
1.4624 -3.3368 -1.9954 0.9835
2.2925 -2.8314 -1.9954 0.9835
2.7585 -2.3798 -1.9954 0.9835
2.9595 -2.1246 -1.9954 0.9835
3.4159 -1.2666 -1.9954 0.9835
1.8839 -0.5131 -1.0694 0.9911
1.8887 0.1721 -1.0387 0.9914
1.8845 0.3430 -1.0491 0.9913
1.8834 0.5197 -1.0701 0.9911
-1.9997 -2.8188 -1.9954 0.9842
-1.2760 -2.7202 -1.7347 0.9862
-0.7148 -2.6841 -1.6037 0.9873
-0.4616 -2.6719 -1.5654 0.9876
0.2530 -2.6143 -1.5164 0.9879
0.9380 -3.3263 -1.9954 0.9842
1.5133 -3.1071 -1.9954 0.9842
1.7841 -2.9600 -1.9954 0.9842
2.0406 -2.7893 -1.9954 0.9842
2.2809 -2.5965 -1.9954 0.9842
2.5031 -2.3830 -1.9954 0.9842
3.0441 -1.6365 -1.9954 0.9842
1.7161 -0.5590 -1.0420 0.9917
1.7326 -0.3978 -1.0263 0.9918
1.7350 0.0727 -1.0026 0.9920
1.7417 0.2295 -1.0143 0.9919
1.7327 0.3879 -1.0251 0.9918
3.0530 1.6197 -1.9954 0.9842
2.5162 2.3692 -1.9954 0.9842
2.0559 2.7781 -1.9954 0.9842
1.8003 2.9502 -1.9954 0.9842
1.5303 3.0988 -1.9954 0.9842
1.2483 3.2228 -1.9954 0.9842
0.9562 3.3211 -1.9954 0.9842
0.6566 3.3931 -1.9954 0.9842
0.3518 3.4381 -1.9954 0.9842
0.0442 3.4558 -1.9954 0.9842
-0.2638 3.4460 -1.9954 0.9842
-1.4506 3.1369 -1.9954 0.9842
-1.7242 2.9952 -1.9954 0.9842
-2.2283 2.6418 -1.9954 0.9842
-2.4548 2.4328 -1.9954 0.9842
-2.6617 2.2045 -1.9954 0.9842
-0.8203 0.4625 -0.5437 0.9957
-0.8448 0.3815 -0.5352 0.9957
-0.8607 0.2996 -0.5262 0.9958
-0.8796 -0.0192 -0.5080 0.9959
-0.8654 -0.2576 -0.5213 0.9958
-0.8540 -0.3396 -0.5306 0.9958
-0.8052 -0.5013 -0.5476 0.9956
-2.5633 -2.3182 -1.9954 0.9842
-2.3466 -2.5373 -1.9954 0.9842
-1.4163 -2.7284 -1.7748 0.9859
-1.1126 -2.7097 -1.6912 0.9866
-0.5738 -2.6758 -1.5800 0.9874
-0.0863 -2.6245 -1.5160 0.9879
0.3945 -2.6924 -1.5710 0.9875
0.8036 -3.3613 -1.9954 0.9842
1.6637 -3.0293 -1.9954 0.9842
2.1748 -2.6860 -1.9954 0.9842
2.6168 -2.2576 -1.9954 0.9842
2.8075 -2.0155 -1.9954 0.9842
1.7287 -0.4708 -1.0344 0.9918
1.7264 0.0029 -0.9968 0.9921
1.7408 0.1586 -1.0092 0.9920
1.7370 0.3162 -1.0193 0.9919
1.6991 0.6365 -1.0475 0.9917
