ply
format ascii 1.0
element vertex 1358
property float32 x
property float32 y
property float32 z
property float32 I
end_header
4.8751 6.8944 1.4889 0.9663
6.7897 11.6857 2.3831 0.9466
4.3879 12.0924 2.2683 0.9491
2.0616 12.0225 2.1508 0.9517
-0.1008 11.9575 2.1085 0.9526
-2.2465 11.8930 2.1341 0.9520
-3.3568 11.8597 2.1733 0.9512
-5.7536 11.7876 2.3129 0.9481
6.1305 11.7398 2.3353 0.9476
3.7744 12.0740 2.2306 0.9499
2.6146 12.0391 2.1723 0.9512
5.6699 12.1310 2.0514 0.9473
3.1939 12.0565 1.9107 0.9508
2.0616 12.0225 1.8687 0.9518
-2.2465 11.8930 1.8542 0.9522
-4.5179 11.8248 1.9392 0.9501
-5.7536 11.7876 2.0094 0.9483
9.2133 11.8833 2.3035 0.9410
6.2821 12.0302 2.0791 0.9466
5.0082 12.1111 2.0077 0.9483
7.0729 12.1731 1.8333 0.9448
5.6699 12.1310 1.7437 0.9474
4.3879 12.0924 1.6752 0.9494
3.2289 12.1886 1.6420 0.9504
0.9803 12.1210 1.5836 0.9521
-2.2711 12.0233 1.5934 0.9518
-3.3935 11.9896 1.6226 0.9510
-4.5345 11.8682 1.6545 0.9500
-5.7536 11.7876 1.7081 0.9485
-4.3411 7.1895 1.0937 0.9667
3.7908 12.1263 1.6545 0.9500
-1.1368 -19.3478 2.0812 0.9250
4.8386 6.8427 0.8999 0.9668
3.2289 12.1886 1.3540 0.9505
2.0842 12.1542 1.3242 0.9516
0.9803 12.1210 1.3058 0.9523
-0.1019 12.0885 1.2981 0.9525
-1.1800 12.0561 1.3008 0.9524
-3.3935 11.9896 1.3380 0.9511
-4.5674 11.9543 1.3742 0.9498
-5.8166 11.9168 1.4239 0.9481
-4.3344 7.1784 0.9005 0.9668
-3.7733 -19.4271 2.1251 0.9235
6.3756 12.2092 1.4790 0.9461
-1.1368 -19.3478 1.6407 0.9251
4.8279 6.8276 0.7079 0.9670
4.4811 12.3492 1.1121 0.9486
2.0842 12.1542 1.0439 0.9517
0.9803 12.1210 1.0294 0.9524
-0.1036 12.2886 1.0403 0.9519
-1.1800 12.0561 1.0255 0.9525
-4.6430 12.1521 1.1012 0.9491
-5.8166 11.9168 1.1225 0.9482
-4.3354 7.1800 0.7100 0.9669
-1.9969 -19.3737 1.6487 0.9248
2.6869 12.3724 1.0718 0.9504
6.2285 -15.2842 1.0235 0.9360
4.8224 6.8198 0.5179 0.9671
7.5501 12.9943 0.9319 0.9415
6.1251 13.1048 0.8970 0.9437
4.4811 12.3492 0.8146 0.9487
3.2326 12.2026 0.7828 0.9507
0.9803 12.1210 0.7541 0.9524
-0.1036 12.2886 0.7620 0.9519
-3.3935 11.9896 0.7727 0.9513
-4.6430 12.1521 0.8067 0.9492
-5.8166 11.9168 0.8223 0.9482
3.8026 12.1642 0.7903 0.9502
2.6870 12.3724 0.7851 0.9505
2.3819 -19.8244 0.7873 0.9232
3.2326 12.2026 0.4978 0.9507
2.0842 12.1542 0.4862 0.9518
-0.1036 12.2886 0.4846 0.9520
-2.3087 12.2223 0.4905 0.9514
-4.3447 7.1954 0.3314 0.9669
1.5026 -19.8508 0.7850 0.9234
7.9814 12.4418 0.5828 0.9425
6.8812 13.1775 0.5862 0.9422
5.3708 12.9877 0.5542 0.9453
2.6869 12.3724 0.4992 0.9506
4.8261 6.8250 0.1412 0.9671
4.4811 12.3492 0.2219 0.9488
2.0842 12.1542 0.2083 0.9519
0.9419 11.6461 0.1974 0.9543
-4.6430 12.1521 0.2197 0.9493
-5.8166 11.9168 0.2240 0.9483
6.6050 -18.4987 0.3318 0.9244
7.9814 12.4418 0.2497 0.9426
6.8812 13.1775 0.2511 0.9423
5.3708 12.9877 0.2374 0.9453
3.8060 12.1750 0.2155 0.9502
2.6869 12.3724 0.2139 0.9506
2.1488 -17.8842 -0.1014 0.9305
3.8248 -18.0592 -0.1039 0.9288
7.5754 13.0380 -0.0849 0.9415
6.1320 13.1198 -0.0815 0.9437
4.4811 12.3492 -0.0740 0.9488
2.0842 12.1542 -0.0694 0.9519
0.9297 11.4959 -0.0649 0.9549
-0.1019 12.0885 -0.0681 0.9528
-1.1800 12.0561 -0.0682 0.9527
-4.5674 11.9543 -0.0720 0.9501
-7.0757 -18.2371 -0.1101 0.9247
-5.2506 -18.1928 -0.1066 0.9271
-3.5237 -18.1421 -0.1040 0.9287
-1.8606 -18.0510 -0.1022 0.9300
-0.2472 -18.2034 -0.1025 0.9298
7.9814 12.4418 -0.0832 0.9426
2.6432 12.1710 -0.0701 0.9514
-2.6783 -17.9871 -0.5121 0.9298
-1.0536 -17.9316 -0.5058 0.9306
0.5460 -17.9305 -0.5051 0.9307
2.1470 -17.8693 -0.5068 0.9305
3.7730 -17.8147 -0.5127 0.9297
5.4362 -17.7094 -0.5216 0.9286
6.2217 -15.2675 -0.4642 0.9362
4.8459 6.8531 -0.2363 0.9670
2.8789 10.8674 -0.3166 0.9560
1.9397 11.3117 -0.3232 0.9551
0.9179 11.3494 -0.3206 0.9555
-0.1019 12.0885 -0.3404 0.9528
-1.1800 12.0561 -0.3411 0.9527
-3.3422 11.8079 -0.3455 0.9521
-5.1724 -17.9221 -0.5252 0.9281
1.3481 -17.8090 -0.5029 0.9310
2.9597 -17.8091 -0.5083 0.9303
6.8625 13.1417 -0.4175 0.9424
5.3708 12.9877 -0.3957 0.9453
3.3744 10.7945 -0.3185 0.9558
2.4588 11.3218 -0.3262 0.9547
3.7742 -17.8204 -0.9238 0.9296
5.4375 -17.7137 -0.9397 0.9285
7.4216 -14.3923 -0.8212 0.9372
7.5754 13.0380 -0.7647 0.9414
2.8302 10.6836 -0.5605 0.9567
1.8663 10.8834 -0.5600 0.9567
0.9538 11.7932 -0.6000 0.9537
-0.1001 11.8675 -0.6019 0.9536
-1.1584 11.8357 -0.6031 0.9535
-3.3315 11.7704 -0.6204 0.9522
-4.4839 11.7358 -0.6371 0.9509
-5.7103 11.6989 -0.6602 0.9492
-6.9884 -18.0122 -0.9798 0.9255
-3.4872 -17.9537 -0.9275 0.9294
-0.2443 -17.9896 -0.9124 0.9305
2.9499 -17.7504 -0.9125 0.9305
4.5720 -17.6246 -0.9234 0.9297
5.8934 -16.5055 -0.8888 0.9322
6.9284 -15.0247 -0.8391 0.9359
6.8812 13.1775 -0.7539 0.9422
3.2738 10.4725 -0.5565 0.9570
2.3648 10.8892 -0.5651 0.9564
-2.6289 -17.6546 -1.3087 0.9309
2.1292 -17.7218 -1.3087 0.9309
3.6983 -17.4619 -1.3087 0.9309
6.1735 -15.1493 -1.1995 0.9365
7.3671 -14.2866 -1.1786 0.9376
4.8617 6.8755 -0.6174 0.9668
6.1488 13.1555 -1.0648 0.9434
3.8059 10.4885 -0.8181 0.9562
0.9600 11.8704 -0.8732 0.9534
-1.0814 11.0490 -0.8140 0.9565
-2.0821 11.0226 -0.8225 0.9560
-6.8475 -17.6490 -1.3880 0.9269
-5.0800 -17.6018 -1.3433 0.9292
-1.8301 -17.7552 -1.3087 0.9309
-0.2443 -17.9897 -1.3192 0.9304
1.3545 -17.8933 -1.3157 0.9306
2.9262 -17.6078 -1.3087 0.9309
4.4998 -17.3462 -1.3140 0.9306
5.8545 -16.3968 -1.2766 0.9326
6.9024 -14.9682 -1.2086 0.9360
8.4195 -14.6639 -1.2398 0.9344
4.5641 7.1147 -0.6198 0.9667
4.3440 10.5047 -0.8335 0.9554
3.2738 10.4725 -0.8045 0.9569
2.3061 10.6186 -0.7967 0.9574
-2.6112 -17.5359 -1.7021 0.9312
0.5315 -17.4521 -1.6763 0.9322
2.0918 -17.4105 -1.6835 0.9320
5.3582 -17.4553 -1.7530 0.9293
6.1555 -15.1051 -1.5660 0.9366
7.3423 -14.2387 -1.5380 0.9377
13.6881 13.4615 -1.8431 0.9258
12.4356 14.6265 -1.8431 0.9258
4.8889 6.9139 -0.8130 0.9665
7.5501 12.9943 -1.4428 0.9414
6.1251 13.1048 -1.3888 0.9435
3.8059 10.4885 -1.0712 0.9562
2.8302 10.6837 -1.0611 0.9566
1.8213 10.6209 -1.0345 0.9576
0.8566 10.5919 -1.0202 0.9582
-0.0906 10.7434 -1.0315 0.9577
-5.7103 11.6989 -1.2498 0.9490
-9.9021 16.3993 -1.8392 0.9259
-11.4267 -15.4277 -1.8432 0.9258
-10.0080 -16.3836 -1.8432 0.9258
-5.0800 -17.6018 -1.7588 0.9290
-3.4101 -17.5573 -1.7171 0.9307
-0.2373 -17.4726 -1.6776 0.9322
2.8899 -17.3892 -1.6923 0.9316
4.4998 -17.3462 -1.7204 0.9305
5.8595 -16.4106 -1.6729 0.9324
8.4489 -14.7150 -1.6290 0.9341
11.0276 -15.7667 -1.8472 0.9256
13.0672 14.0651 -1.8431 0.9258
9.6968 12.5069 -1.5193 0.9384
4.5550 7.1005 -0.8099 0.9667
6.8547 13.1267 -1.4217 0.9422
4.3440 10.5047 -1.0913 0.9553
3.2738 10.4725 -1.0534 0.9569
2.3098 10.6355 -1.0449 0.9572
0.4723 -15.5093 -1.8431 0.9394
7.5522 -14.6457 -1.9574 0.9358
8.9971 -14.1852 -1.9953 0.9346
11.3698 -12.3650 -1.9953 0.9346
12.4253 -11.3039 -1.9953 0.9346
13.3821 -10.1530 -1.9953 0.9346
14.2328 -8.9215 -1.9953 0.9346
15.5892 -6.2564 -1.9953 0.9346
16.0842 -4.8439 -1.9953 0.9346
16.6882 -1.9151 -1.9953 0.9346
16.7633 1.0744 -1.9953 0.9346
16.3072 4.0298 -1.9953 0.9346
14.6629 8.1953 -1.9953 0.9346
11.9875 9.8519 -1.8431 0.9394
10.0506 11.8214 -1.8431 0.9394
7.5501 12.9943 -1.7852 0.9413
6.1251 13.1048 -1.7183 0.9434
2.8302 10.6837 -1.3128 0.9565
1.8213 10.6209 -1.2800 0.9575
-0.0970 11.5027 -1.3664 0.9547
-1.0830 11.0654 -1.3207 0.9562
-2.0850 11.0378 -1.3343 0.9558
-3.1108 10.9906 -1.3568 0.9550
-4.4839 11.7358 -1.4923 0.9507
-5.7103 11.6989 -1.5464 0.9489
-5.0075 6.8341 -1.0064 0.9664
-11.2450 10.6918 -1.8432 0.9394
-16.3730 3.7543 -1.9954 0.9346
-16.6422 2.2820 -1.9954 0.9346
-16.7793 0.7915 -1.9954 0.9346
-16.7831 -0.7052 -1.9954 0.9346
-16.0004 -5.1145 -1.9954 0.9346
-15.4816 -6.5184 -1.9954 0.9346
-14.8399 -7.8706 -1.9954 0.9346
-12.2330 -11.5119 -1.9954 0.9346
-11.1597 -12.5551 -1.9954 0.9346
-2.2999 -3.7651 -0.5241 0.9824
-5.7992 -14.9472 -1.9045 0.9375
-4.3066 -14.9223 -1.8449 0.9394
-2.9585 -15.2319 -1.8431 0.9394
-1.5909 -15.4348 -1.8431 0.9394
-0.2107 -15.5151 -1.8431 0.9394
1.1712 -15.4723 -1.8431 0.9394
2.5438 -15.3066 -1.8431 0.9394
3.8962 -15.0194 -1.8431 0.9394
5.2339 -14.6585 -1.8489 0.9392
8.3473 -14.5382 -1.9913 0.9347
9.6276 -13.7650 -1.9953 0.9346
10.8146 -12.8534 -1.9953 0.9346
11.9158 -11.8397 -1.9953 0.9346
12.9224 -10.7321 -1.9953 0.9346
13.8264 -9.5392 -1.9953 0.9346
14.6206 -8.2706 -1.9953 0.9346
16.2862 -4.1137 -1.9953 0.9346
16.5878 -2.6477 -1.9953 0.9346
16.6979 1.8292 -1.9953 0.9346
16.4687 3.3083 -1.9953 0.9346
16.1089 4.7611 -1.9953 0.9346
15.6212 6.1761 -1.9953 0.9346
11.5311 10.3824 -1.8431 0.9394
9.5074 12.2626 -1.8431 0.9394
4.3440 10.5047 -1.3503 0.9552
2.3098 10.6355 -1.2928 0.9571
-0.8260 -14.0583 -1.9953 0.9447
0.4287 -14.0760 -1.9953 0.9447
2.9178 -13.7770 -1.9953 0.9447
5.3145 -13.0412 -1.9953 0.9447
6.4542 -12.5164 -1.9953 0.9447
7.5427 -11.8922 -1.9953 0.9447
9.5319 -10.3663 -1.9953 0.9447
10.4168 -9.4767 -1.9953 0.9447
12.5505 -6.3876 -1.9953 0.9447
13.0693 -5.2451 -1.9953 0.9447
13.9906 -1.6055 -1.9953 0.9447
14.0780 -0.3538 -1.9953 0.9447
14.0536 0.9007 -1.9953 0.9447
13.9177 2.1481 -1.9953 0.9447
13.6712 3.3784 -1.9953 0.9447
13.3162 4.5819 -1.9953 0.9447
12.8556 5.7490 -1.9953 0.9447
12.2872 6.8674 -1.9944 0.9447
8.4260 9.9105 -1.8431 0.9488
4.9624 7.0178 -1.2178 0.9659
4.3893 12.0963 -1.8233 0.9493
2.9859 11.2713 -1.6521 0.9540
1.8213 10.6209 -1.5268 0.9574
0.8566 10.5919 -1.5057 0.9580
-3.1108 10.9906 -1.6184 0.9549
-4.4839 11.7358 -1.7801 0.9505
-5.7060 11.6901 -1.8431 0.9488
-6.7240 11.1358 -1.8431 0.9488
-4.9692 6.7818 -1.1913 0.9666
-10.1877 8.0888 -1.8432 0.9488
-13.3917 4.3567 -1.9954 0.9447
-14.0702 -0.5912 -1.9954 0.9447
-13.4140 -4.2878 -1.9954 0.9447
-11.8044 -7.6796 -1.9954 0.9447
-11.0739 -8.6999 -1.9954 0.9447
-10.2556 -9.6510 -1.9954 0.9447
-1.9255 -3.1521 -0.5234 0.9852
-1.6575 -3.3519 -0.5298 0.9850
-3.9050 -13.5304 -1.9953 0.9447
-2.6851 -13.8242 -1.9953 0.9447
-1.4439 -14.0083 -1.9953 0.9447
4.7354 -13.2625 -1.9953 0.9447
7.0121 -12.2126 -1.9953 0.9447
8.0713 -11.5400 -1.9953 0.9447
9.0665 -10.7757 -1.9953 0.9447
9.9897 -9.9259 -1.9953 0.9447
14.0797 0.2814 -1.9953 0.9447
13.9987 1.5335 -1.9953 0.9447
13.8067 2.7735 -1.9953 0.9447
13.5050 3.9915 -1.9953 0.9447
10.4036 7.8091 -1.8431 0.9488
7.9705 10.2804 -1.8431 0.9488
4.5432 7.0822 -1.1922 0.9666
6.0213 11.5308 -1.8431 0.9488
3.7460 11.9831 -1.7789 0.9505
2.3098 10.6355 -1.5421 0.9570
-1.7839 -11.9801 -1.9953 0.9521
1.4449 -12.0257 -1.9953 0.9521
2.5096 -11.8493 -1.9953 0.9521
3.5543 -11.5789 -1.9953 0.9521
4.5709 -11.2165 -1.9953 0.9521
7.3721 -9.6102 -1.9953 0.9521
8.1982 -8.9159 -1.9953 0.9521
8.9593 -8.1507 -1.9953 0.9521
9.6493 -7.3209 -1.9953 0.9521
10.7945 -5.4939 -1.9953 0.9521
11.2407 -4.5112 -1.9953 0.9521
12.0873 0.7747 -1.9953 0.9521
11.7584 2.9057 -1.9953 0.9521
11.4531 3.9408 -1.9953 0.9521
9.7663 5.4585 -1.8431 0.9557
9.2417 6.3062 -1.8431 0.9557
7.9770 7.8450 -1.8431 0.9557
7.2471 8.5239 -1.8431 0.9557
6.4596 9.1351 -1.8431 0.9557
4.5672 7.8606 -1.4977 0.9638
2.8650 10.8152 -1.8431 0.9557
1.8291 10.6662 -1.7828 0.9571
-0.0944 11.1879 -1.8431 0.9557
-1.0898 11.1351 -1.8431 0.9557
-2.0767 10.9938 -1.8431 0.9557
-3.0470 10.7654 -1.8431 0.9557
-4.9076 10.0545 -1.8431 0.9557
-5.7831 9.5777 -1.8431 0.9557
-7.3898 8.4005 -1.8432 0.9557
-8.7623 6.9570 -1.8432 0.9557
-9.8571 5.2930 -1.8432 0.9557
-11.5180 3.7472 -1.9954 0.9521
-11.9999 1.6454 -1.9954 0.9521
-12.0987 0.5707 -1.9954 0.9521
-12.1015 -0.5085 -1.9954 0.9521
-10.7004 -5.6751 -1.9954 0.9521
-10.1527 -6.6051 -1.9954 0.9521
-3.8186 -3.5935 -0.8638 0.9790
-2.2124 -2.9871 -0.6124 0.9850
-1.8356 -3.0049 -0.5801 0.9858
-1.2780 -3.2940 -0.5821 0.9858
-2.3094 -11.8900 -1.9953 0.9521
-1.2418 -12.0483 -1.9953 0.9521
0.9142 -12.0776 -1.9953 0.9521
1.9857 -11.9483 -1.9953 0.9521
3.0413 -11.7241 -1.9953 0.9521
4.0729 -11.4068 -1.9953 0.9521
5.0720 -10.9990 -1.9953 0.9521
6.0310 -10.5039 -1.9953 0.9521
6.9420 -9.9253 -1.9953 0.9521
7.7979 -9.2680 -1.9953 0.9521
8.5919 -8.5371 -1.9953 0.9521
11.0312 -5.0015 -1.9953 0.9521
11.4327 -3.9997 -1.9953 0.9521
11.9607 -1.9091 -1.9953 0.9521
12.0832 -0.8369 -1.9953 0.9521
11.8749 2.3855 -1.9953 0.9521
8.3145 7.4863 -1.8431 0.9557
7.6152 8.1967 -1.8431 0.9557
6.8553 8.8420 -1.8431 0.9557
3.3382 10.6786 -1.8431 0.9557
-1.5635 -10.5000 -1.9953 0.9577
-0.6227 -10.5975 -1.9953 0.9577
0.3231 -10.6108 -1.9953 0.9577
1.2664 -10.5400 -1.9953 0.9577
2.1995 -10.3854 -1.9953 0.9577
4.0062 -9.8308 -1.9953 0.9577
7.8524 -7.1437 -1.9953 0.9577
8.9947 -5.6381 -1.9953 0.9577
9.8519 -3.9539 -1.9953 0.9577
10.1648 -3.0612 -1.9953 0.9577
10.3969 -2.1443 -1.9953 0.9577
10.5465 -1.2103 -1.9953 0.9577
10.6124 -0.2667 -1.9953 0.9577
10.5940 0.6790 -1.9953 0.9577
10.3057 2.5467 -1.9953 0.9577
9.6908 4.3338 -1.9953 0.9577
8.7611 4.8967 -1.8865 0.9600
8.0999 5.5271 -1.8431 0.9609
6.9915 6.8758 -1.8431 0.9609
6.3517 7.4708 -1.8431 0.9609
4.7355 6.6969 -1.5417 0.9672
4.1921 7.2150 -1.5684 0.9666
4.1521 8.8836 -1.8431 0.9609
3.3449 9.2179 -1.8431 0.9609
2.5111 9.4790 -1.8431 0.9609
1.6574 9.6649 -1.8431 0.9609
0.7905 9.7741 -1.8431 0.9609
-0.9552 9.7594 -1.8431 0.9609
-1.8201 9.6356 -1.8431 0.9609
-4.1974 6.9515 -1.5263 0.9675
-4.6666 6.3689 -1.4841 0.9684
-6.4768 7.3626 -1.8431 0.9609
-7.1065 6.7569 -1.8431 0.9609
-10.0950 3.2842 -1.9954 0.9577
-10.3473 2.3726 -1.9954 0.9577
-10.5174 1.4421 -1.9954 0.9577
-10.6040 0.5002 -1.9954 0.9577
-10.6064 -0.4457 -1.9954 0.9577
-10.3593 -2.3193 -1.9954 0.9577
-10.1118 -3.2322 -1.9954 0.9577
-9.3784 -4.9740 -1.9954 0.9577
-3.1069 -2.9238 -0.8019 0.9828
-2.6051 -2.9308 -0.7370 0.9842
-1.8042 -2.9536 -0.6505 0.9860
-1.2117 -3.1230 -0.6296 0.9865
-0.9920 -3.4371 -0.6724 0.9855
0.8013 -10.5855 -1.9953 0.9577
4.4454 -9.6401 -1.9953 0.9577
5.2859 -9.2062 -1.9953 0.9577
6.0843 -8.6991 -1.9953 0.9577
8.1666 -6.7824 -1.9953 0.9577
8.7379 -6.0285 -1.9953 0.9577
9.2398 -5.2268 -1.9953 0.9577
9.6684 -4.3836 -1.9953 0.9577
10.2925 -2.5997 -1.9953 0.9577
10.5526 1.1560 -1.9953 0.9577
9.8721 3.9031 -1.9953 0.9577
9.4808 4.7640 -1.9944 0.9577
7.8424 5.8867 -1.8431 0.9609
6.6743 7.1840 -1.8431 0.9609
5.2040 6.7122 -1.5964 0.9660
4.2786 6.6698 -1.4894 0.9683
4.5390 8.6922 -1.8431 0.9609
2.0811 9.5826 -1.8431 0.9609
-1.3903 -9.3367 -1.9953 0.9621
1.1260 -9.3722 -1.9953 0.9621
2.7701 -9.0240 -1.9953 0.9621
4.3263 -8.3898 -1.9953 0.9621
5.7454 -7.4897 -1.9953 0.9621
7.9982 -5.0135 -1.9953 0.9621
8.7604 -3.5158 -1.9953 0.9621
9.0386 -2.7221 -1.9953 0.9621
9.3780 -1.0762 -1.9953 0.9621
9.4203 0.6038 -1.9953 0.9621
9.3291 1.4399 -1.9953 0.9621
9.1639 2.2646 -1.9953 0.9621
7.2025 4.9147 -1.8431 0.9650
6.7365 5.5363 -1.8431 0.9650
6.2169 6.1140 -1.8431 0.9650
5.6480 6.6431 -1.8431 0.9650
4.7355 6.6969 -1.7338 0.9670
3.6921 7.8993 -1.8431 0.9650
2.9743 8.1966 -1.8431 0.9650
-0.0735 8.7193 -1.8431 0.9650
-1.6185 8.5681 -1.8431 0.9650
-3.8248 7.8360 -1.8431 0.9650
-4.6666 6.3689 -1.6690 0.9682
-5.5391 6.2967 -1.7727 0.9663
-6.8289 5.4219 -1.8431 0.9650
-7.2844 4.7926 -1.8432 0.9650
-8.9766 2.9203 -1.9954 0.9621
-9.3586 -1.2342 -1.9954 0.9621
-9.2116 -2.0624 -1.9954 0.9621
-8.9915 -2.8741 -1.9954 0.9621
-8.6999 -3.6631 -1.9954 0.9621
-8.3393 -4.4229 -1.9954 0.9621
-3.6471 -2.8652 -0.9804 0.9812
-2.1421 -2.8921 -0.7608 0.9854
-1.7777 -2.9101 -0.7208 0.9862
-1.4456 -2.9234 -0.6894 0.9868
-1.1654 -3.0039 -0.6811 0.9869
-0.7255 -3.7351 -0.8043 0.9846
-0.9678 -9.3899 -1.9953 0.9621
-0.1282 -9.4388 -1.9953 0.9621
0.7125 -9.4127 -1.9953 0.9621
1.5475 -9.3119 -1.9953 0.9621
2.3703 -9.1372 -1.9953 0.9621
3.1742 -8.8899 -1.9953 0.9621
4.7002 -8.1862 -1.9953 0.9621
6.0773 -7.2230 -1.9953 0.9621
6.6961 -6.6534 -1.9953 0.9621
7.2618 -6.0310 -1.9953 0.9621
8.2161 -4.6477 -1.9953 0.9621
8.9100 -3.1172 -1.9953 0.9621
9.1522 -2.3117 -1.9953 0.9621
9.4170 -0.6522 -1.9953 0.9621
9.4377 0.1886 -1.9953 0.9621
9.3835 1.0279 -1.9953 0.9621
9.2547 1.8591 -1.9953 0.9621
9.0525 2.6755 -1.9953 0.9621
8.7784 3.4707 -1.9953 0.9621
8.4346 4.2383 -1.9953 0.9621
7.4118 4.5930 -1.8431 0.9650
6.9736 5.2345 -1.8431 0.9650
5.9349 6.3881 -1.8431 0.9650
4.2867 6.6823 -1.6782 0.9681
3.3321 8.0578 -1.8431 0.9650
2.6016 8.3224 -1.8431 0.9650
1.8505 8.5210 -1.8431 0.9650
0.2584 -8.4861 -1.9953 0.9657
1.7591 -8.3058 -1.9953 0.9657
2.4914 -8.1162 -1.9953 0.9657
3.2040 -7.8622 -1.9953 0.9657
3.8911 -7.5458 -1.9953 0.9657
4.5473 -7.1695 -1.9953 0.9657
5.1674 -6.7363 -1.9953 0.9657
6.2800 -5.7132 -1.9953 0.9657
8.1293 -2.4482 -1.9953 0.9657
8.4873 -0.2133 -1.9953 0.9657
8.0280 2.7623 -1.9953 0.9657
7.4033 4.1378 -1.9933 0.9658
5.5915 5.4989 -1.8431 0.9683
5.0798 5.9748 -1.8431 0.9683
4.5278 6.4033 -1.8431 0.9683
3.9399 6.7809 -1.8431 0.9683
2.6751 7.3720 -1.8431 0.9683
1.3255 7.7296 -1.8431 0.9683
0.6322 7.8169 -1.8431 0.9683
-0.0661 7.8421 -1.8431 0.9683
-2.1358 7.5460 -1.8431 0.9683
-4.0537 6.7135 -1.8431 0.9683
-4.6274 6.3153 -1.8400 0.9683
-5.6835 5.4039 -1.8431 0.9683
-6.1419 4.8765 -1.8431 0.9683
-6.5516 4.3104 -1.8431 0.9683
-7.4594 4.0056 -1.9899 0.9658
-7.8077 3.3348 -1.9954 0.9657
-8.0735 2.6266 -1.9954 0.9657
-8.4113 1.1534 -1.9954 0.9657
-8.4806 0.4000 -1.9954 0.9657
-8.2849 -1.8549 -1.9954 0.9657
-8.0869 -2.5850 -1.9954 0.9657
-7.8247 -3.2946 -1.9954 0.9657
-2.5553 -2.8748 -0.9040 0.9843
-2.1090 -2.8475 -0.8328 0.9855
-1.4257 -2.8831 -0.7559 0.9869
-1.1269 -2.9046 -0.7322 0.9873
-0.9007 -3.1210 -0.7634 0.9867
-0.6758 -3.4794 -0.8330 0.9855
-0.4233 -4.1064 -0.9702 0.9832
0.6408 -8.4658 -1.9953 0.9657
1.3919 -8.3751 -1.9953 0.9657
3.5552 -7.7098 -1.9953 0.9657
6.5313 -5.4242 -1.9953 0.9657
6.9882 -4.8214 -1.9953 0.9657
7.3896 -4.1802 -1.9953 0.9657
7.7323 -3.5058 -1.9953 0.9657
8.0137 -2.8036 -1.9953 0.9657
8.2315 -2.0792 -1.9953 0.9657
8.4697 -0.5866 -1.9953 0.9657
7.8953 3.1215 -1.9953 0.9657
6.2720 4.7079 -1.8431 0.9683
5.8281 5.2475 -1.8431 0.9683
4.2345 6.6009 -1.8431 0.9683
0.1179 -3.8724 -1.0031 0.9841
0.9193 -7.6515 -1.9953 0.9687
3.5320 -6.8494 -1.9953 0.9687
4.1277 -6.5079 -1.9953 0.9687
4.6906 -6.1146 -1.9953 0.9687
5.7005 -5.1860 -1.9953 0.9687
6.8681 -3.4955 -1.9953 0.9687
7.1520 -2.8703 -1.9953 0.9687
7.3791 -2.2223 -1.9953 0.9687
7.5476 -1.5566 -1.9953 0.9687
7.6562 -0.8786 -1.9953 0.9687
7.7040 -0.1936 -1.9953 0.9687
7.4814 1.8488 -1.9953 0.9687
7.0350 3.1461 -1.9953 0.9687
6.3375 4.3244 -1.9865 0.9688
5.0755 4.9915 -1.8431 0.9710
4.6110 5.4234 -1.8431 0.9710
4.1100 5.8123 -1.8431 0.9710
3.5763 6.1551 -1.8431 0.9710
2.4282 6.6917 -1.8431 0.9710
1.2032 7.0162 -1.8431 0.9710
-0.0600 7.1184 -1.8431 0.9710
-2.5407 6.6498 -1.8431 0.9710
-3.1225 6.3973 -1.8431 0.9710
-3.6796 6.0939 -1.8431 0.9710
-5.1589 4.9052 -1.8431 0.9710
-5.5751 4.4265 -1.8431 0.9710
-6.0925 4.0084 -1.8882 0.9703
-7.3284 2.3842 -1.9954 0.9687
-7.5116 1.7224 -1.9954 0.9687
-7.6351 1.0469 -1.9954 0.9687
-7.6979 0.3631 -1.9954 0.9687
-7.6997 -0.3235 -1.9954 0.9687
-7.5203 -1.6837 -1.9954 0.9687
-7.3406 -2.3464 -1.9954 0.9687
-7.1026 -2.9905 -1.9954 0.9687
-6.8082 -3.6109 -1.9953 0.9687
-3.5768 -2.8100 -1.1777 0.9814
-2.9875 -2.8114 -1.0622 0.9832
-2.5307 -2.8472 -0.9863 0.9844
-1.1069 -2.8531 -0.7924 0.9874
-0.0518 -3.8122 -0.9871 0.9844
1.2634 -7.6022 -1.9953 0.9687
2.5914 -7.2577 -1.9953 0.9687
3.8373 -6.6832 -1.9953 0.9687
4.9615 -5.8969 -1.9953 0.9687
6.3433 -4.3764 -1.9953 0.9687
6.7076 -3.7944 -1.9953 0.9687
7.0187 -3.1823 -1.9953 0.9687
7.2741 -2.5449 -1.9953 0.9687
7.4718 -1.8873 -1.9953 0.9687
7.6880 -0.5325 -1.9953 0.9687
7.7049 0.1540 -1.9953 0.9687
7.5555 1.5178 -1.9953 0.9687
7.3904 2.1843 -1.9953 0.9687
7.1667 2.8334 -1.9953 0.9687
6.8860 3.4601 -1.9953 0.9687
5.7454 4.3126 -1.8600 0.9708
4.8452 5.2152 -1.8431 0.9710
4.3618 5.6258 -1.8431 0.9710
3.8437 5.9917 -1.8431 0.9710
3.2951 6.3101 -1.8431 0.9710
1.5108 6.9565 -1.8431 0.9710
-0.4926 -3.3083 -0.9469 0.9862
-0.2016 -3.4312 -0.9730 0.9858
1.4604 -6.8954 -1.9953 0.9711
2.0684 -6.7381 -1.9953 0.9711
4.2900 -5.5924 -1.9953 0.9711
5.2137 -4.7431 -1.9953 0.9711
5.6152 -4.2602 -1.9953 0.9711
5.9721 -3.7435 -1.9953 0.9711
6.2816 -3.1970 -1.9953 0.9711
6.5412 -2.6252 -1.9953 0.9711
6.7489 -2.0325 -1.9953 0.9711
6.9031 -1.4237 -1.9953 0.9711
7.0461 -0.1771 -1.9953 0.9711
6.9659 1.0751 -1.9953 0.9711
6.8425 1.6909 -1.9953 0.9711
6.6648 2.2933 -1.9953 0.9711
6.4343 2.8774 -1.9953 0.9711
6.1526 3.4387 -1.9953 0.9711
5.8158 3.9685 -1.9932 0.9712
5.2182 4.2886 -1.9121 0.9723
4.6421 4.5652 -1.8431 0.9733
4.2173 4.9603 -1.8431 0.9733
3.7590 5.3160 -1.8431 0.9733
3.2709 5.6295 -1.8431 0.9733
2.2208 6.1203 -1.8431 0.9733
1.1004 6.4171 -1.8431 0.9733
0.5248 6.4895 -1.8431 0.9733
-0.0549 6.5105 -1.8431 0.9733
-0.6342 6.4798 -1.8431 0.9733
-1.2085 6.3976 -1.8431 0.9733
-2.3237 6.0819 -1.8431 0.9733
-2.8559 5.8510 -1.8431 0.9733
-3.3654 5.5735 -1.8431 0.9733
-3.8481 5.2518 -1.8431 0.9733
-4.3003 4.8885 -1.8431 0.9733
-4.7184 4.4863 -1.8431 0.9733
-5.0990 4.0485 -1.8431 0.9733
-5.8719 3.8633 -1.9898 0.9712
-6.2097 3.3345 -1.9953 0.9711
-6.4819 2.7685 -1.9953 0.9711
-6.8701 1.5753 -1.9953 0.9711
-6.9831 0.9575 -1.9953 0.9711
-7.0406 0.3321 -1.9953 0.9711
-7.0422 -0.2959 -1.9954 0.9711
-6.7137 -2.1460 -1.9953 0.9711
-5.9081 -3.8437 -1.9953 0.9711
-2.5064 -2.8197 -1.0680 0.9844
-2.0449 -2.7609 -0.9726 0.9858
-0.8436 -2.9229 -0.8612 0.9874
-0.6112 -3.1467 -0.9075 0.9868
-0.3488 -3.3837 -0.9630 0.9860
0.2707 -3.5767 -1.0154 0.9852
1.7698 -6.8225 -1.9953 0.9711
2.3701 -6.6379 -1.9953 0.9711
2.9515 -6.4006 -1.9953 0.9711
3.5096 -6.1125 -1.9953 0.9711
4.0397 -5.7758 -1.9953 0.9711
4.9999 -4.9680 -1.9953 0.9711
5.8016 -4.0027 -1.9953 0.9711
6.1348 -3.4704 -1.9953 0.9711
6.6530 -2.3276 -1.9953 0.9711
6.8337 -1.7261 -1.9953 0.9711
6.9602 -1.1110 -1.9953 0.9711
7.0315 -0.4870 -1.9953 0.9711
7.0064 0.7675 -1.9953 0.9711
6.9103 1.3882 -1.9953 0.9711
6.5547 2.5915 -1.9953 0.9711
6.2980 3.1646 -1.9953 0.9711
4.8385 4.3565 -1.8431 0.9733
3.0137 5.7712 -1.8431 0.9733
2.4880 6.0166 -1.8431 0.9733
1.9426 6.2142 -1.8431 0.9733
-0.4624 -3.1054 -0.9657 0.9869
0.0992 -3.2583 -1.0027 0.9865
0.7996 -3.7754 -1.1870 0.9840
1.9037 -6.2017 -1.9953 0.9732
2.4482 -6.0076 -1.9953 0.9732
2.9732 -5.7658 -1.9953 0.9732
5.1682 -3.9211 -1.9953 0.9732
6.0205 -2.4162 -1.9953 0.9732
6.3535 -1.3104 -1.9953 0.9732
6.4450 -0.7396 -1.9953 0.9732
6.4740 0.4149 -1.9953 0.9732
6.2978 1.5563 -1.9953 0.9732
5.9221 2.6484 -1.9953 0.9732
4.3438 4.2718 -1.8739 0.9748
3.8815 4.5654 -1.8431 0.9752
3.4598 4.8928 -1.8431 0.9752
3.0105 5.1813 -1.8431 0.9752
2.0440 5.6330 -1.8431 0.9752
1.0128 5.9062 -1.8431 0.9752
0.4831 5.9729 -1.8431 0.9752
-0.5837 5.9639 -1.8431 0.9752
-2.1388 5.5978 -1.8431 0.9752
-2.6285 5.3852 -1.8431 0.9752
-3.0975 5.1298 -1.8431 0.9752
-3.9580 4.4993 -1.8431 0.9752
-5.4182 3.5647 -1.9948 0.9732
-5.7154 3.0691 -1.9953 0.9732
-6.1690 2.0070 -1.9953 0.9732
-6.3232 1.4499 -1.9953 0.9732
-6.4816 -0.2723 -1.9953 0.9732
-6.3306 -1.4173 -1.9953 0.9732
-6.1793 -1.9752 -1.9953 0.9732
-5.4378 -3.5377 -1.9953 0.9732
-2.9148 -2.7430 -1.2311 0.9834
-2.4822 -2.7925 -1.1492 0.9845
-1.6781 -2.7472 -0.9901 0.9866
-0.0438 -3.2268 -0.9926 0.9866
0.2488 -3.2869 -1.0139 0.9863
0.5947 -3.5785 -1.1158 0.9849
1.6289 -6.2794 -1.9953 0.9732
2.1814 -6.1095 -1.9953 0.9732
3.7181 -5.3160 -1.9953 0.9732
4.1766 -4.9640 -1.9953 0.9732
4.6018 -4.5725 -1.9953 0.9732
5.3397 -3.6840 -1.9953 0.9732
5.9083 -2.6788 -1.9953 0.9732
6.1233 -2.1423 -1.9953 0.9732
6.4718 -0.4482 -1.9953 0.9732
6.4860 0.1296 -1.9953 0.9732
6.3602 1.2776 -1.9953 0.9732
5.5143 3.4171 -1.9953 0.9732
4.7384 4.2664 -1.9612 0.9737
3.2356 5.0438 -1.8431 0.9752
1.7880 5.7195 -1.8431 0.9752
1.2717 5.8559 -1.8431 0.9752
-0.1764 -3.0024 -0.9997 0.9874
0.0930 -3.0544 -1.0158 0.9872
0.7244 -3.4205 -1.1622 0.9854
2.7512 -5.3352 -1.9953 0.9750
3.2151 -5.0691 -1.9953 0.9750
4.4402 -4.0395 -1.9953 0.9750
5.5708 -2.2357 -1.9953 0.9750
5.8790 -1.2125 -1.9953 0.9750
5.9636 -0.6844 -1.9953 0.9750
6.0008 -0.1508 -1.9953 0.9750
5.9904 0.3839 -1.9953 0.9750
5.9325 0.9156 -1.9953 0.9750
5.6761 1.9531 -1.9953 0.9750
4.6374 3.8112 -1.9953 0.9750
4.2655 4.1948 -1.9886 0.9751
3.6179 4.2553 -1.8566 0.9767
3.2013 4.5273 -1.8431 0.9769
2.3478 5.0233 -1.8431 0.9769
1.8914 5.2123 -1.8431 0.9769
1.4199 5.3600 -1.8431 0.9769
0.9372 5.4651 -1.8431 0.9769
0.4470 5.5268 -1.8431 0.9769
-0.0404 4.7883 -1.5917 0.9800
-1.9790 5.1797 -1.8431 0.9769
-2.8661 4.7467 -1.8431 0.9769
-3.2773 4.4727 -1.8431 0.9769
-3.6624 4.1633 -1.8431 0.9769
-4.2339 4.0256 -1.9420 0.9757
-5.2885 2.8398 -1.9953 0.9750
-5.5203 2.3578 -1.9953 0.9750
-5.9961 0.2828 -1.9953 0.9750
-5.9512 -0.7849 -1.9953 0.9750
-5.8577 -1.3115 -1.9953 0.9750
-5.7178 -1.8277 -1.9953 0.9750
-5.5324 -2.3294 -1.9953 0.9750
-5.3031 -2.8126 -1.9953 0.9750
-2.9149 -2.7431 -1.3305 0.9833
-2.0207 -2.7283 -1.1286 0.9858
-1.6550 -2.7092 -1.0553 0.9867
-0.0412 -3.0326 -1.0081 0.9873
0.5452 -3.2809 -1.1056 0.9861
2.0185 -5.6532 -1.9953 0.9750
2.5137 -5.4511 -1.9953 0.9750
2.9890 -5.2057 -1.9953 0.9750
3.4404 -4.9190 -1.9953 0.9750
3.8646 -4.5932 -1.9953 0.9750
4.9409 -3.4089 -1.9953 0.9750
5.4671 -2.4787 -1.9953 0.9750
5.8852 1.1822 -1.9953 0.9750
5.7566 1.7014 -1.9953 0.9750
5.5823 2.2070 -1.9953 0.9750
5.3637 2.6952 -1.9953 0.9750
5.1025 3.1619 -1.9953 0.9750
4.8008 3.6035 -1.9953 0.9750
3.9494 4.2509 -1.9288 0.9758
3.3975 4.3821 -1.8431 0.9769
2.9939 4.6671 -1.8431 0.9769
2.1189 5.1240 -1.8431 0.9769
0.0879 -2.8871 -1.0329 0.9878
0.3584 -2.9832 -1.0745 0.9873
0.6701 -3.1638 -1.1565 0.9864
2.1057 -5.1671 -1.9953 0.9766
3.7767 -4.1073 -1.9953 0.9766
4.4451 -3.3725 -1.9953 0.9766
4.7277 -2.9635 -1.9953 0.9766
4.9727 -2.5309 -1.9953 0.9766
5.1783 -2.0782 -1.9953 0.9766
5.5779 -0.1402 -1.9953 0.9766
5.4168 1.3386 -1.9953 0.9766
5.2761 1.8154 -1.9953 0.9766
4.8706 2.7222 -1.9953 0.9766
4.6089 3.1450 -1.9953 0.9766
3.9743 3.9085 -1.9934 0.9766
3.5970 4.2308 -1.9859 0.9767
2.9970 4.2384 -1.8563 0.9782
2.1824 4.6693 -1.8431 0.9783
1.7581 4.8450 -1.8431 0.9783
1.3198 4.9823 -1.8431 0.9783
0.8711 5.0800 -1.8431 0.9783
-0.5020 5.1296 -1.8431 0.9783
-0.9567 5.0645 -1.8431 0.9783
-1.4037 4.9593 -1.8431 0.9783
-1.8395 4.8147 -1.8431 0.9783
-2.2608 4.6318 -1.8431 0.9783
-3.0463 4.1575 -1.8431 0.9783
-4.3698 3.4695 -1.9953 0.9766
-4.6613 3.0668 -1.9953 0.9766
-5.1313 2.1916 -1.9953 0.9766
-5.3060 1.7262 -1.9953 0.9766
-5.4386 1.2470 -1.9953 0.9766
-5.5280 0.7580 -1.9953 0.9766
-5.5735 0.2629 -1.9953 0.9766
-5.5748 -0.2342 -1.9953 0.9766
-5.4449 -1.2191 -1.9953 0.9766
-5.3148 -1.6989 -1.9953 0.9766
-3.4503 -2.7106 -1.5691 0.9815
-2.8616 -2.6929 -1.4052 0.9834
-2.4341 -2.7385 -1.3102 0.9846
-2.0222 -2.7303 -1.2150 0.9857
-1.6572 -2.7128 -1.1368 0.9866
-1.3335 -2.6968 -1.0758 0.9873
-1.0561 -2.7221 -1.0441 0.9877
-0.7937 -2.7500 -1.0236 0.9879
-0.5359 -2.7590 -1.0051 0.9881
-0.0390 -2.8681 -1.0258 0.9879
1.4010 -5.4009 -1.9953 0.9766
1.8762 -5.2548 -1.9953 0.9766
3.1980 -4.5723 -1.9953 0.9766
3.5923 -4.2695 -1.9953 0.9766
4.2924 -3.5649 -1.9953 0.9766
4.5927 -3.1686 -1.9953 0.9766
5.4098 -1.3664 -1.9953 0.9766
5.5100 -0.8795 -1.9953 0.9766
5.5465 0.6076 -1.9953 0.9766
5.4704 1.0989 -1.9953 0.9766
5.1889 2.0515 -1.9953 0.9766
4.9857 2.5052 -1.9953 0.9766
4.7429 2.9391 -1.9953 0.9766
4.4624 3.3496 -1.9953 0.9766
4.1466 3.7335 -1.9953 0.9766
3.7884 4.0777 -1.9904 0.9766
3.2835 4.2351 -1.9164 0.9775
2.3857 4.5687 -1.8431 0.9783
1.5378 4.9193 -1.8431 0.9783
-0.4069 -2.7326 -1.0587 0.9882
0.3381 -2.8140 -1.0861 0.9879
0.6303 -2.9762 -1.1658 0.9871
2.3864 -4.6278 -1.9953 0.9779
3.8515 -3.5039 -1.9953 0.9779
4.6404 -2.3617 -1.9953 0.9779
4.9856 -1.5015 -1.9953 0.9779
5.1729 -0.5936 -1.9953 0.9779
5.2052 -0.1308 -1.9953 0.9779
5.1961 0.3330 -1.9953 0.9779
5.1459 0.7944 -1.9953 0.9779
4.9235 1.6941 -1.9953 0.9779
4.5451 2.5403 -1.9953 0.9779
4.3009 2.9348 -1.9953 0.9779
3.7124 3.6509 -1.9953 0.9779
3.3673 3.9606 -1.9922 0.9780
2.4525 4.2209 -1.8707 0.9793
1.2316 4.6493 -1.8431 0.9796
-0.0400 4.7423 -1.8174 0.9799
-0.8927 4.7261 -1.8431 0.9796
-1.3099 4.6278 -1.8431 0.9796
-3.4300 3.8991 -1.9901 0.9780
-4.3498 2.8618 -1.9953 0.9779
-4.5873 2.4633 -1.9953 0.9779
-4.9514 1.6108 -1.9953 0.9779
-2.3160 0.3176 -0.8958 0.9900
-2.3008 0.1085 -0.8827 0.9902
-2.2997 -0.0966 -0.8821 0.9902
-2.3076 -0.3043 -0.8920 0.9901
-5.0810 -1.1376 -1.9953 0.9779
-4.9596 -1.5854 -1.9953 0.9779
-4.3645 -2.8394 -1.9953 0.9779
-3.4503 -2.7106 -1.6814 0.9814
-2.8616 -2.6929 -1.5058 0.9833
-2.4209 -2.7235 -1.3964 0.9845
-1.6602 -2.7178 -1.2205 0.9865
-1.3306 -2.6909 -1.1504 0.9872
-1.0439 -2.6906 -1.1060 0.9877
-0.7861 -2.7237 -1.0864 0.9879
-0.5331 -2.7446 -1.0714 0.9881
-0.2822 -2.7374 -1.0546 0.9883
-0.0371 -2.7354 -1.0484 0.9883
0.4810 -2.8940 -1.1242 0.9875
2.5926 -4.5154 -1.9953 0.9779
3.3522 -3.9842 -1.9953 0.9779
3.6935 -3.6700 -1.9953 0.9779
4.0055 -3.3266 -1.9953 0.9779
4.2858 -2.9569 -1.9953 0.9779
4.5319 -2.5637 -1.9953 0.9779
5.1417 -0.8207 -1.9953 0.9779
5.1944 -0.3598 -1.9953 0.9779
5.1758 0.5670 -1.9953 0.9779
5.1048 1.0255 -1.9953 0.9779
4.9933 1.4758 -1.9953 0.9779
4.4259 2.7426 -1.9953 0.9779
4.1642 3.1257 -1.9953 0.9779
3.8694 3.4840 -1.9953 0.9779
3.5429 3.8135 -1.9948 0.9779
3.1813 4.1032 -1.9897 0.9780
2.7062 4.2186 -1.9207 0.9788
2.2263 4.2634 -1.8431 0.9796
1.4350 4.5906 -1.8431 0.9796
-0.4048 -2.7184 -1.1249 0.9882
0.0824 -2.7044 -1.1073 0.9884
0.3289 -2.7373 -1.1284 0.9882
0.6096 -2.8785 -1.2042 0.9874
1.8399 -4.5148 -1.9953 0.9791
2.9674 -3.8683 -1.9953 0.9791
3.6063 -3.2808 -1.9953 0.9791
3.8840 -2.9468 -1.9953 0.9791
4.1309 -2.5893 -1.9953 0.9791
4.3449 -2.2114 -1.9953 0.9791
4.6682 -1.4059 -1.9953 0.9791
4.8435 -0.5558 -1.9953 0.9791
4.8653 0.3118 -1.9953 0.9791
4.6100 1.5862 -1.9953 0.9791
4.4505 1.9903 -1.9953 0.9791
4.2557 2.3786 -1.9953 0.9791
4.0271 2.7479 -1.9953 0.9791
3.7665 3.0955 -1.9953 0.9791
3.1579 3.7143 -1.9953 0.9791
2.4397 4.1989 -1.9875 0.9792
1.5361 4.2333 -1.8431 0.9807
0.7611 4.4386 -1.8431 0.9807
-0.0380 4.5033 -1.8431 0.9807
-2.4593 4.0730 -1.9473 0.9796
-3.2184 3.6586 -1.9943 0.9792
-3.5332 3.3594 -1.9953 0.9791
-4.4835 1.9150 -1.9953 0.9791
-2.0934 0.4800 -0.8790 0.9908
-2.0205 -0.2665 -0.8341 0.9912
-2.0903 -0.4680 -0.8767 0.9908
-4.4933 -1.8919 -1.9953 0.9791
-4.3070 -2.2843 -1.9953 0.9791
-4.0866 -2.6587 -1.9953 0.9791
-3.8337 -3.0119 -1.9953 0.9791
-2.8616 -2.6929 -1.6082 0.9832
-2.0252 -2.7344 -1.3926 0.9854
-1.6633 -2.7229 -1.3059 0.9863
-1.0354 -2.6687 -1.1716 0.9877
-0.7788 -2.6987 -1.1496 0.9879
-0.0368 -2.7070 -1.1080 0.9884
0.2051 -2.7092 -1.1120 0.9883
0.4597 -2.7664 -1.1477 0.9880
1.2242 -4.7191 -1.9953 0.9791
1.6394 -4.5914 -1.9953 0.9791
2.0416 -4.4273 -1.9953 0.9791
3.1388 -3.7305 -1.9953 0.9791
3.7505 -3.1148 -1.9953 0.9791
4.0129 -2.7686 -1.9953 0.9791
4.2434 -2.4004 -1.9953 0.9791
4.4402 -2.0132 -1.9953 0.9791
4.6018 -1.6100 -1.9953 0.9791
4.7269 -1.1939 -1.9953 0.9791
4.8743 0.0974 -1.9953 0.9791
4.6754 1.3818 -1.9953 0.9791
4.5338 1.7925 -1.9953 0.9791
4.3563 2.1890 -1.9953 0.9791
4.1441 2.5680 -1.9953 0.9791
3.8991 2.9267 -1.9953 0.9791
3.6231 3.2622 -1.9953 0.9791
3.3183 3.5717 -1.9953 0.9791
2.1938 4.2011 -1.9397 0.9797
1.7381 4.2032 -1.8615 0.9805
0.9558 4.4009 -1.8431 0.9807
-0.1578 -2.6865 -1.1729 0.9883
0.0816 -2.6781 -1.1677 0.9884
1.3435 -4.3768 -1.9953 0.9802
2.4522 -3.8663 -1.9953 0.9802
2.7867 -3.6327 -1.9953 0.9802
3.0989 -3.3702 -1.9953 0.9802
3.6474 -2.7673 -1.9953 0.9802
3.8793 -2.4317 -1.9953 0.9802
4.2490 -1.7052 -1.9953 0.9802
4.3839 -1.3203 -1.9953 0.9802
4.4840 -0.9248 -1.9953 0.9802
4.5769 -0.1150 -1.9953 0.9802
4.5690 0.2928 -1.9953 0.9802
4.5248 0.6984 -1.9953 0.9802
4.4447 1.0984 -1.9953 0.9802
4.3293 1.4896 -1.9953 0.9802
4.1795 1.8691 -1.9953 0.9802
3.9965 2.2337 -1.9953 0.9802
3.7818 2.5806 -1.9953 0.9802
2.9656 3.4881 -1.9953 0.9802
2.6434 3.7382 -1.9953 0.9802
1.9320 4.1337 -1.9886 0.9803
1.1077 4.1816 -1.8853 0.9813
0.7168 4.1799 -1.8482 0.9817
-0.0357 4.2290 -1.8431 0.9817
-0.4120 4.2091 -1.8431 0.9817
-0.7850 4.1557 -1.8431 0.9817
-1.5678 4.1033 -1.9144 0.9810
-1.9914 4.0799 -1.9786 0.9804
-3.3180 3.1548 -1.9953 0.9802
-3.5857 2.8469 -1.9953 0.9802
-4.0336 2.1660 -1.9953 0.9802
-1.4933 0.4858 -0.6844 0.9932
-1.4849 0.3405 -0.6639 0.9934
-1.4736 0.2021 -0.6482 0.9935
-1.4509 0.0684 -0.6331 0.9937
-1.4733 -0.1943 -0.6476 0.9935
-1.4831 -0.3321 -0.6624 0.9934
-2.8616 -2.6929 -1.7125 0.9830
-2.4248 -2.7280 -1.5907 0.9842
-2.0268 -2.7365 -1.4841 0.9853
-1.6659 -2.7271 -1.3927 0.9862
-1.3354 -2.7005 -1.3129 0.9869
-0.7716 -2.6737 -1.2128 0.9879
-0.0364 -2.6785 -1.1675 0.9884
0.2035 -2.6889 -1.1752 0.9883
0.4572 -2.7514 -1.2156 0.9879
1.1496 -4.4317 -1.9953 0.9802
1.5395 -4.3118 -1.9953 0.9802
1.9172 -4.1576 -1.9953 0.9802
2.9476 -3.5033 -1.9953 0.9802
3.2478 -3.2270 -1.9953 0.9802
3.5221 -2.9251 -1.9953 0.9802
3.7685 -2.6000 -1.9953 0.9802
4.1698 -1.8906 -1.9953 0.9802
4.3216 -1.5119 -1.9953 0.9802
4.4390 -1.1212 -1.9953 0.9802
4.5775 0.0915 -1.9953 0.9802
4.3906 1.2977 -1.9953 0.9802
4.0910 2.0557 -1.9953 0.9802
3.6616 2.7485 -1.9953 0.9802
2.8053 3.6183 -1.9953 0.9802
2.4700 3.8503 -1.9936 0.9802
2.1137 4.0478 -1.9901 0.9803
1.7295 4.1824 -1.9725 0.9804
-0.1564 -2.6619 -1.2343 0.9883
0.6041 -2.8523 -1.3496 0.9872
1.2650 -4.1209 -1.9953 0.9812
1.6268 -3.9919 -1.9953 0.9812
3.4341 -2.6055 -1.9953 0.9812
3.6524 -2.2895 -1.9953 0.9812
4.2218 -0.8707 -1.9953 0.9812
4.2826 -0.4915 -1.9953 0.9812
4.3018 0.2757 -1.9953 0.9812
4.1848 1.0341 -1.9953 0.9812
3.7628 2.1031 -1.9953 0.9812
3.3303 2.7370 -1.9953 0.9812
3.0734 3.0225 -1.9953 0.9812
2.4888 3.5196 -1.9953 0.9812
1.4664 4.0412 -1.9899 0.9812
0.3358 4.1526 -1.9284 0.9818
-0.0349 4.1443 -1.9184 0.9819
-0.4046 4.1335 -1.9225 0.9819
-1.1614 4.1034 -1.9740 0.9814
-1.5336 4.0140 -1.9890 0.9812
-1.8871 3.8661 -1.9914 0.9812
-2.5478 3.4772 -1.9953 0.9812
-3.1240 2.9703 -1.9953 0.9812
-3.3760 2.6804 -1.9953 0.9812
-1.2455 0.5319 -0.6269 0.9940
-1.2676 0.4124 -0.6170 0.9941
-1.2688 0.2909 -0.6026 0.9943
-1.2751 0.1748 -0.5957 0.9943
-1.2677 0.0598 -0.5874 0.9944
-1.2752 -0.1682 -0.5954 0.9943
-1.2683 -0.2840 -0.6016 0.9943
-1.2682 -0.4054 -0.6163 0.9941
-1.2473 -0.5252 -0.6265 0.9941
-3.3897 -2.6630 -1.9953 0.9812
-2.8616 -2.6929 -1.8189 0.9828
-2.4360 -2.7406 -1.6973 0.9840
-1.3378 -2.7054 -1.3970 0.9868
-0.7675 -2.6594 -1.2813 0.9879
-0.2752 -2.6699 -1.2424 0.9882
-0.0360 -2.6513 -1.2274 0.9884
0.2020 -2.6685 -1.2387 0.9883
0.4552 -2.7391 -1.2853 0.9878
1.0824 -4.1726 -1.9953 0.9812
1.8051 -3.9145 -1.9953 0.9812
2.4706 -3.5324 -1.9953 0.9812
3.3162 -2.7541 -1.9953 0.9812
3.5481 -2.4480 -1.9953 0.9812
3.7520 -2.1224 -1.9953 0.9812
3.9260 -1.7800 -1.9953 0.9812
4.0688 -1.4235 -1.9953 0.9812
4.3004 -0.2978 -1.9953 0.9812
4.3098 0.0861 -1.9953 0.9812
4.2262 0.8490 -1.9953 0.9812
4.1339 1.2218 -1.9953 0.9812
3.8517 1.9354 -1.9953 0.9812
3.6642 2.2706 -1.9953 0.9812
3.4475 2.5878 -1.9953 0.9812
3.2035 2.8844 -1.9953 0.9812
2.9340 3.1581 -1.9953 0.9812
2.6413 3.4067 -1.9953 0.9812
1.2820 4.1009 -1.9889 0.9812
0.3227 -2.6856 -1.3268 0.9880
1.1937 -3.8887 -1.9953 0.9820
2.4759 -3.2275 -1.9953 0.9820
2.7533 -2.9943 -1.9953 0.9820
3.0089 -2.7374 -1.9953 0.9820
3.4466 -2.1605 -1.9953 0.9820
3.6253 -1.8451 -1.9953 0.9820
3.7751 -1.5151 -1.9953 0.9820
4.0665 -0.1022 -1.9953 0.9820
3.5508 1.9846 -1.9953 0.9820
3.3601 2.2928 -1.9953 0.9820
3.1426 2.5828 -1.9953 0.9820
2.9003 2.8522 -1.9953 0.9820
2.6349 3.0991 -1.9953 0.9820
2.0436 3.5172 -1.9953 0.9820
1.3864 3.8206 -1.9936 0.9821
0.6858 3.9991 -1.9903 0.9821
0.3269 4.0425 -1.9894 0.9821
-0.0342 4.0548 -1.9890 0.9821
-0.3950 4.0359 -1.9892 0.9821
-2.4042 3.2812 -1.9953 0.9820
-2.9480 2.8029 -1.9953 0.9820
-3.3983 2.2358 -1.9953 0.9820
-1.1062 0.4725 -0.5900 0.9947
-1.1281 0.3670 -0.5819 0.9947
-1.1326 0.2597 -0.5700 0.9948
-1.1411 0.0538 -0.5604 0.9949
-1.1337 -0.2538 -0.5699 0.9948
-1.1079 -0.4665 -0.5897 0.9947
-3.1987 -2.5130 -1.9953 0.9820
-2.7025 -3.0404 -1.9953 0.9820
-2.0300 -2.7408 -1.6730 0.9849
-1.6684 -2.7313 -1.5699 0.9858
-1.3403 -2.7105 -1.4832 0.9866
-1.0409 -2.6830 -1.4116 0.9873
-0.5200 -2.6775 -1.3379 0.9879
-0.2869 -2.7833 -1.3725 0.9876
-0.0356 -2.6229 -1.2867 0.9884
0.2004 -2.6480 -1.3026 0.9882
0.4531 -2.7266 -1.3558 0.9878
1.7034 -3.6940 -1.9953 0.9820
2.0254 -3.5277 -1.9953 0.9820
2.3314 -3.3334 -1.9953 0.9820
2.6189 -3.1126 -1.9953 0.9820
3.1293 -2.5989 -1.9953 0.9820
3.7048 -1.6797 -1.9953 0.9820
3.8396 -1.3433 -1.9953 0.9820
4.0169 -0.6412 -1.9953 0.9820
4.0581 -0.2811 -1.9953 0.9820
4.0670 0.0813 -1.9953 0.9820
4.0436 0.4430 -1.9953 0.9820
3.9881 0.8011 -1.9953 0.9820
3.9010 1.1530 -1.9953 0.9820
3.2533 2.4420 -1.9953 0.9820
3.0230 2.7218 -1.9953 0.9820
2.7687 2.9801 -1.9953 0.9820
2.1964 3.4238 -1.9953 0.9820
1.8829 3.6058 -1.9953 0.9820
1.5540 3.7580 -1.9948 0.9820
0.8614 3.9663 -1.9909 0.9821
0.0798 -2.6195 -1.3596 0.9883
0.3216 -2.6770 -1.3987 0.9879
1.1287 -3.6769 -1.9953 0.9828
1.4515 -3.5618 -1.9953 0.9828
2.0601 -3.2480 -1.9953 0.9828
2.3410 -3.0517 -1.9953 0.9828
3.6828 -1.1091 -1.9953 0.9828
3.8383 0.2460 -1.9953 0.9828
3.6369 1.2514 -1.9953 0.9828
3.3574 1.8765 -1.9953 0.9828
3.1771 2.1679 -1.9953 0.9828
2.9715 2.4421 -1.9953 0.9828
2.4914 2.9303 -1.9953 0.9828
1.3120 3.6156 -1.9953 0.9828
0.9849 3.7177 -1.9952 0.9828
0.6496 3.7881 -1.9939 0.9828
0.3097 3.8292 -1.9930 0.9828
-0.0324 3.8409 -1.9927 0.9828
-0.3742 3.8230 -1.9928 0.9828
-1.0471 3.6994 -1.9946 0.9828
-1.3728 3.5929 -1.9953 0.9828
-1.6871 3.4565 -1.9953 0.9828
-1.9881 3.2926 -1.9953 0.9828
-2.2733 3.1025 -1.9953 0.9828
-2.5404 2.8879 -1.9953 0.9828
-2.7874 2.6503 -1.9953 0.9828
-3.0123 2.3916 -1.9953 0.9828
-3.2132 2.1140 -1.9953 0.9828
-1.0243 0.2349 -0.5452 0.9953
-1.0354 0.0488 -0.5378 0.9953
-1.0367 -0.1367 -0.5425 0.9953
-0.9946 -0.4188 -0.5599 0.9951
-2.8010 -2.6359 -1.9953 0.9828
-2.0317 -2.7431 -1.7709 0.9847
-1.6697 -2.7334 -1.6617 0.9857
-1.3429 -2.7157 -1.5717 0.9864
2.2044 -3.1518 -1.9953 0.9828
2.4762 -2.9431 -1.9953 0.9828
2.7284 -2.7110 -1.9953 0.9828
2.9589 -2.4574 -1.9953 0.9828
3.3477 -1.8938 -1.9953 0.9828
3.6305 -1.2701 -1.9953 0.9828
3.7981 -0.6062 -1.9953 0.9828
3.8455 0.0768 -1.9953 0.9828
3.8233 0.4188 -1.9953 0.9828
3.7709 0.7575 -1.9953 0.9828
3.6885 1.0901 -1.9953 0.9828
3.4367 1.7269 -1.9953 0.9828
3.2694 2.0260 -1.9953 0.9828
3.0761 2.3090 -1.9953 0.9828
1.7804 3.4094 -1.9953 0.9828
1.4698 3.5543 -1.9953 0.9828
1.1476 3.6710 -1.9953 0.9828
0.0798 -2.6195 -1.4354 0.9881
0.3207 -2.6694 -1.4725 0.9878
1.6697 -3.2380 -1.9953 0.9835
2.4659 -2.6817 -1.9953 0.9835
3.2468 -1.6525 -1.9953 0.9835
1.8792 -0.5659 -1.0749 0.9911
1.8858 -0.3889 -1.0546 0.9913
1.8862 0.1209 -1.0352 0.9914
1.8860 0.4661 -1.0641 0.9912
1.8888 0.6499 -1.0940 0.9909
3.3257 1.4873 -1.9953 0.9835
3.1801 1.7774 -1.9953 0.9835
2.8145 2.3131 -1.9953 0.9835
2.5975 2.5545 -1.9953 0.9835
2.3598 2.7755 -1.9953 0.9835
1.8302 3.1500 -1.9953 0.9835
0.9329 3.5216 -1.9953 0.9835
0.6157 3.5907 -1.9953 0.9835
0.2937 3.6313 -1.9953 0.9835
-0.0307 3.6430 -1.9953 0.9835
-0.6762 3.5798 -1.9953 0.9835
-1.3003 3.4032 -1.9953 0.9835
-1.8831 3.1187 -1.9953 0.9835
-2.4063 2.7353 -1.9953 0.9835
-2.8532 2.2653 -1.9953 0.9835
-0.9194 0.2991 -0.5295 0.9956
-0.9454 -0.0397 -0.5183 0.9957
-0.9043 -0.3808 -0.5374 0.9955
-2.4203 -2.7229 -1.9953 0.9835
-1.3455 -2.7211 -1.6626 0.9863
-1.0469 -2.6983 -1.5852 0.9869
-0.7737 -2.6809 -1.5283 0.9874
-0.5172 -2.6630 -1.4858 0.9877
-0.0356 -2.6229 -1.4367 0.9881
0.4506 -2.7117 -1.5056 0.9875
0.9148 -3.5264 -1.9953 0.9835
1.5256 -3.3083 -1.9953 0.9835
1.8140 -3.1594 -1.9953 0.9835
2.5843 -2.5678 -1.9953 0.9835
2.8026 -2.3276 -1.9953 0.9835
2.9987 -2.0689 -1.9953 0.9835
3.3180 -1.5044 -1.9953 0.9835
1.8857 -0.4763 -1.0652 0.9912
1.8776 0.0375 -1.0286 0.9915
1.8892 0.2069 -1.0409 0.9914
1.8854 0.3787 -1.0533 0.9913
1.8804 0.5558 -1.0739 0.9911
3.3879 1.3395 -1.9953 0.9835
3.2553 1.6357 -1.9953 0.9835
2.9136 2.1870 -1.9953 0.9835
2.7074 2.4377 -1.9953 0.9835
1.9671 3.0664 -1.9953 0.9835
1.3922 3.3666 -1.9953 0.9835
1.0870 3.4772 -1.9953 0.9835
-0.1543 -2.6265 -1.5190 0.9879
0.3532 -2.9395 -1.7093 0.9864
0.5975 -2.8212 -1.6649 0.9868
1.8511 -2.9185 -1.9953 0.9842
2.7533 -2.0889 -1.9953 0.9842
1.7227 -0.5188 -1.0387 0.9917
1.7380 0.1114 -1.0055 0.9920
1.7103 0.5885 -1.0443 0.9917
2.6700 2.1943 -1.9953 0.9842
1.7363 2.9882 -1.9953 0.9842
1.1789 3.2488 -1.9953 0.9842
-0.0291 3.4559 -1.9953 0.9842
-0.6415 3.3960 -1.9953 0.9842
-0.9412 3.3254 -1.9953 0.9842
-1.2335 3.2284 -1.9953 0.9842
-1.5160 3.1058 -1.9953 0.9842
-2.0427 2.7878 -1.9953 0.9842
-2.2827 2.5949 -1.9953 0.9842
-2.5046 2.3814 -1.9953 0.9842
-2.7067 2.1490 -1.9953 0.9842
-0.7956 0.5235 -0.5499 0.9956
-0.8267 0.4439 -0.5418 0.9957
-0.8492 0.3627 -0.5331 0.9957
-0.8632 0.2808 -0.5241 0.9958
-0.8746 -0.1958 -0.5175 0.9959
-0.8282 -0.4393 -0.5413 0.9957
-0.7977 -0.5189 -0.5494 0.9956
-2.2960 -2.5831 -1.9953 0.9842
-0.7759 -2.6885 -1.6156 0.9872
-0.5193 -2.6738 -1.5726 0.9875
-0.2711 -2.6300 -1.5265 0.9879
-0.0356 -2.6229 -1.5145 0.9880
1.1621 -3.2548 -1.9953 0.9842
1.4472 -3.1384 -1.9953 0.9842
1.9808 -2.8321 -1.9953 0.9842
2.2250 -2.6445 -1.9953 0.9842
3.1476 -1.4271 -1.9953 0.9842
1.7083 -0.5977 -1.0449 0.9917
1.7312 -0.4373 -1.0309 0.9918
1.7309 0.0346 -0.9995 0.9920
1.7417 0.1908 -1.0116 0.9919
1.7337 0.3483 -1.0209 0.9919
1.7556 0.6941 -1.0899 0.9913
2.7640 2.0747 -1.9953 0.9842
2.5684 2.3125 -1.9953 0.9842
2.1176 2.7313 -1.9953 0.9842
1.8661 2.9089 -1.9953 0.9842
1.5997 3.0635 -1.9953 0.9842
1.3207 3.1937 -1.9953 0.9842
0.7335 3.3773 -1.9953 0.9842
